
<svg xmlns="http://www.w3.org/2000/svg" version="1.1" xmlns:xlink="http://www.w3.org/1999/xlink" preserveAspectRatio="none" x="0px" y="0px" width="400px" height="400px" viewBox="0 0 400 400">
<defs>
<linearGradient id="Gradient_1" gradientUnits="userSpaceOnUse" x1="7.924999999999983" y1="199.95" x2="387.975" y2="199.95" spreadMethod="pad">
<stop  offset="0%" stop-color="#FFFFFF" stop-opacity="0"/>

<stop  offset="20.784313725490197%" stop-color="#737373" stop-opacity="0.050980392156862744"/>

<stop  offset="51.76470588235294%" stop-color="#424242" stop-opacity="0.07058823529411765"/>

<stop  offset="100%" stop-color="#000000" stop-opacity="0.09803921568627451"/>
</linearGradient>

<path id="Layer1_0_1_STROKES" stroke="url(#Gradient_1)" stroke-width="7.1" stroke-linejoin="round" stroke-linecap="round" fill="none" d="
M 263.9 118.8
L 314.85 114.05 340.3 113.2 354 114.45
Q 355.85 114.85 356.8 115.15 358.25 115.5 359.3 115.9
L 361.3 116.85 362.65 117.75 363.2 118.45 363.25 118.6 363.2 120.15 362.45 123.15
Q 362.25 123.85 361.5 125.5 360.7 127.3 360.15 128.2
L 359.85 128.85
Q 359.55 129.35 359.45 129.6 359.15 130.05 359.05 130.25
L 358.65 130.95
Q 357.55 132.85 356.9 133.75
L 355 136.55
Q 353.65 138.45 352.9 139.35
L 350.25 142.85 331.5 164.2 267.5 227.6 267.25 227.9 266.95 228.15 230.15 266
Q 230.35 265.85 232.75 264.8
L 233.55 264.45 265.1 245.45 294.65 224.85
Q 305.7 216.65 316.65 207.65
L 336.35 190.55 361 165.3
Q 367.25 158 371.05 152.55 371.1 152.5 373.45 149.15
L 375.7 145.6
Q 377.15 143.2 377.9 141.9
L 379.9 137.95
Q 380.9 135.7 381.7 133.8
L 383.75 126.65
Q 383.9 126 384.2 124
L 384.45 121.15
Q 384.45 119.1 384.35 118.1 384.15 116.5 383.9 114.85 383.45 113.2 382.85 111.6 382 109.6 381.3 108.4 380.55 107.1 379.3 105.6 378.25 104.25 377 103.2
L 374.6 101.25 369.7 98.6 365.05 97.05
Q 362.75 96.4 360.65 96.1
L 358.8 95.8 358.5 95.85 358 95.75 348.6 95.35 331.1 97.15
Q 327.45 97.75 324.65 98.35 321.85 98.9 318.5 99.75
L 314.1 100.7 287.95 108.75 266.5 117.4 263.9 118.8 263.85 118.75
Q 263.8 118.6 263.85 118.6
L 265.8 117.7 263.9 118.8 Z
M 361.95 191.95
L 362.85 198.05
Q 363.5 203.3 363.65 205.05 363.95 209.5 364.05 214.15 364.1 219.95 363.75 225
L 363.6 226.05 363.6 226.45 363.25 230.15 363.2 230.35 363.2 230.5 362.65 234.35 362.7 234.55 362.6 234.7 362.55 235.5 362.2 237
Q 361.1 243.7 359.3 249.8
L 354.95 262.8
Q 353.8 265.8 352.3 269.1
L 349.3 275.35
Q 347.8 278.25 346.1 281.35
L 333.65 300.35 320.85 315.65 312.7 324.5 327.45 312.75 337.3 303.6 344.15 296.4 353 285.95
Q 353.3 285.65 357.3 280.15
L 361.4 274.05
Q 362.7 272.05 365.3 267.7
L 372 254.45
Q 374.8 248.2 377.25 240.8
L 380.5 229.15 380.55 228.75 380.75 228.4 380.9 227.55
Q 382.1 222.15 383.05 215.4 383.8 210.15 384.15 204.95 384.4 201.15 384.45 196.95
L 384.4 189.9
Q 384.4 185.25 381 181.95 377.6 178.7 372.95 178.75 368.25 178.85 365 182.25 361.7 185.6 361.75 190.3 361.8 190.75 361.95 191.95 Z
M 189.9 36
L 196 35.05
Q 201.25 34.4 203 34.3 207.45 33.95 212.15 33.95 217.95 33.8 223 34.2
L 224.05 34.35 224.4 34.3 228.15 34.7 228.3 34.75 228.45 34.75 232.3 35.3 232.5 35.25 232.7 35.35 233.45 35.4 235 35.75
Q 241.65 36.9 247.75 38.65
L 260.7 43
Q 263.8 44.15 267.1 45.65
L 273.25 48.65
Q 276.25 50.15 279.3 51.85
L 298.35 64.3 313.65 77.05 322.35 85.35 310.75 70.5 301.6 60.65 294.4 53.8 283.9 44.95
Q 283.6 44.65 278.1 40.65
L 272 36.55
Q 270 35.25 265.7 32.7
L 256.15 27.7 256 27.6 252.45 25.95
Q 246.15 23.15 238.8 20.7
L 225.55 17.05
Q 220.15 15.85 213.4 14.9 208.15 14.15 202.95 13.8 199.15 13.55 194.9 13.5
L 187.9 13.5
Q 183.2 13.6 179.95 16.95 176.7 20.3 176.75 25 176.85 29.7 180.2 32.95 183.6 36.2 188.25 36.2 188.75 36.15 189.9 36 Z
M 116.9 134
L 112.2 83.1 111.3 57.65 112.6 43.95
Q 112.95 42.05 113.25 41.15 113.55 39.75 114 38.65
L 114.9 36.7 115.85 35.3 116.25 34.95 116.55 34.75 118.2 34.8 120.4 35.25 120.6 35.35 121.2 35.5
Q 121.95 35.7 123.65 36.45 125.4 37.25 126.3 37.75
L 127 38.1
Q 127.45 38.4 127.65 38.5 128.15 38.8 128.4 38.9
L 129.05 39.3
Q 130.9 40.4 131.8 41.05
L 134.65 42.95
Q 136.55 44.35 137.45 45
L 162.3 66.45 225.65 130.45 225.95 130.7 226.2 131 264.1 167.85 262.9 165.2 243.5 132.85 222.95 103.3
Q 214.75 92.25 205.75 81.3
L 188.65 61.6 163.35 36.95
Q 156.05 30.7 150.65 26.9
L 143.7 22.25
Q 141.3 20.85 139.95 20.05
L 136.1 18.05
Q 133.8 17.05 131.85 16.25
L 124.75 14.2
Q 124.05 14.05 122.05 13.75
L 119.2 13.55
Q 117.2 13.5 116.15 13.6 114.55 13.8 112.95 14.1 111.3 14.5 109.65 15.15 107.65 16 106.5 16.65 105.2 17.4 103.65 18.65 102.35 19.7 101.3 20.95
L 99.35 23.4 96.7 28.25 95.1 32.9
Q 94.5 35.25 94.2 37.3
L 93.9 39.2 93.9 39.45 93.8 39.95 93.45 49.35 95.25 66.85
Q 95.85 70.5 96.45 73.3 97 76.1 97.8 79.45
L 98.85 83.9 106.9 110 115.55 131.5 115.65 131.85 116.7 134.1
Q 116.7 134.15 116.85 134.1
L 116.9 134 Z
M 132.05 281.05
L 81.15 285.8 55.7 286.7 41.95 285.4
Q 40.1 285 39.2 284.75 37.75 284.4 36.7 283.95
L 34.65 283.05 33.3 282.1 32.8 281.45 32.75 281.25 32.75 279.7 33.5 276.75
Q 33.75 276 34.5 274.35 35.25 272.6 35.8 271.7
L 36.1 271
Q 36.4 270.55 36.55 270.35 36.85 269.85 36.95 269.6
L 37.35 268.95
Q 38.45 267.1 39.1 266.1
L 41 263.3
Q 42.3 261.45 43.05 260.5
L 64.5 235.7 129 171.8 165.8 133.9
Q 165.95 133.85 165.85 133.75
L 165.75 133.75 163.5 134.85 163.2 135.1 162.4 135.5 130.9 154.45 101.35 175
Q 90.25 183.25 79.35 192.25
L 59.6 209.35 35 234.6
Q 28.75 241.95 24.9 247.3 24.85 247.35 22.55 250.75
L 20.3 254.25
Q 18.8 256.65 18.1 257.95
L 16.1 261.9
Q 15 264.15 14.3 266.15
L 12.2 273.25
Q 12.05 273.9 11.8 275.95
L 11.5 278.75
Q 11.55 280.75 11.65 281.8 11.75 283.4 12.1 285.05 12.55 286.7 13.1 288.35 13.95 290.3 14.7 291.45 15.4 292.8 16.65 294.3 17.75 295.6 19 296.7
L 21.4 298.6 26.3 301.3 30.9 302.9
Q 33.2 303.45 35.35 303.75
L 37.95 304.15 47.3 304.5 64.9 302.75
Q 68.55 302.15 71.35 301.55 74.15 301 77.45 300.2
L 108.05 291.1 129.5 282.45 129.9 282.35 130.15 282.15 132.15 281.3
Q 132.15 281.25 132.15 281.1
L 132.05 281.05 Z
M 34.15 208
L 33.2 201.9
Q 32.55 196.65 32.4 194.9 32.1 190.45 32 185.75 31.95 180 32.35 174.95
L 32.45 173.85 32.45 173.5 32.8 169.75 32.85 169.65 32.9 169.45 33.4 165.6 33.35 165.45 33.45 165.2 33.85 162.9
Q 34.95 156.25 36.75 150.15
L 41.1 137.2
Q 42.25 134.1 43.75 130.85
L 46.75 124.65
Q 48.25 121.65 49.95 118.6
L 50.75 117.15 62.4 99.55 75.2 84.25 83.45 75.55 68.6 87.2 58.75 96.35 51.9 103.5 43.05 114
Q 42.8 114.3 38.75 119.8
L 34.65 125.9
Q 33.35 127.9 30.8 132.2
L 25.8 141.75 25.7 141.9 24.1 145.5
Q 21.25 151.75 18.8 159.1
L 15.55 170.75 15.5 171.15 15.3 171.55 15.15 172.35
Q 13.95 177.8 13 184.55 12.3 189.75 11.95 194.95 11.7 198.75 11.6 203.05
L 11.65 210.05
Q 11.65 214.7 15.1 217.95 18.45 221.25 23.1 221.2 27.85 221.05 31.1 217.7 34.35 214.35 34.3 209.65 34.25 209.15 34.15 208 Z
M 279.2 265.9
L 283.85 316.8 284.75 342.25 283.5 356
Q 283.1 357.9 282.85 358.75 282.5 360.2 282.05 361.25
L 281.15 363.3 280.2 364.6 279.8 365 279.5 365.15 279.35 365.2 277.85 365.2 274.85 364.45
Q 274.15 364.2 272.4 363.45 270.7 362.7 269.75 362.15
L 269.05 361.85
Q 268.6 361.55 268.4 361.4 267.95 361.1 267.7 361.05
L 267 360.6
Q 265.15 359.55 264.25 358.85
L 261.4 356.95
Q 259.5 355.65 258.6 354.9
L 233.8 333.45 170.35 269.45 170.1 269.25 169.85 268.95 131.85 232.2 152.55 267.05 173.1 296.65
Q 181.3 307.7 190.35 318.6
L 207.45 338.4 232.7 362.95
Q 240 369.2 245.4 373.05 245.45 373.1 248.8 375.45
L 252.35 377.65
Q 254.75 379.15 256.1 379.85
L 260 381.85
Q 262.25 382.9 264.2 383.65
L 271.3 385.75
Q 272 385.95 274 386.2
L 276.85 386.45
Q 278.9 386.4 279.9 386.3 281.5 386.15 283.1 385.85 284.8 385.4 286.4 384.85 288.4 384 289.55 383.25 290.85 382.55 292.4 381.35 293.7 380.2 294.8 379
L 296.75 376.55 299.35 371.65 300.95 367
Q 301.5 364.75 301.85 362.6
L 302.15 360.8 302.15 360.45 302.25 360 302.6 350.65 300.8 333.05
Q 300.2 329.4 299.65 326.6 299.05 323.85 298.25 320.5
L 297.25 316.1 289.15 289.9 280.5 268.45 280.4 268.1 279.35 265.85
Q 279.35 265.8 279.25 265.8
L 279.2 265.9 Z
M 206 363.8
L 199.9 364.75
Q 194.65 365.4 192.9 365.55 188.45 365.85 183.75 365.95 177.95 366 172.9 365.6
L 167.75 365.15 167.6 365.05 167.4 365.1 163.6 364.55 163.4 364.55 163.2 364.5 162.4 364.4 160.9 364.05
Q 154.25 363 148.15 361.2
L 135.15 356.85
Q 132.1 355.65 128.8 354.2
L 122.65 351.2
Q 119.65 349.7 116.55 348
L 115.15 347.2 97.55 335.5 82.25 322.75 73.55 314.5
Q 73.5 314.35 73.4 314.5 73.25 314.55 73.4 314.6
L 85.15 329.3 94.3 339.2 101.5 346.05 112 354.9
Q 112.25 355.15 117.8 359.2
L 123.9 363.25
Q 125.9 364.55 130.2 367.15
L 143.45 373.85
Q 149.75 376.7 157.1 379.15
L 168.75 382.45 169.15 382.45 169.5 382.6 170.35 382.75
Q 175.75 384 182.5 385 187.75 385.65 192.95 386 196.75 386.25 201 386.4
L 208 386.3
Q 212.7 386.25 215.95 382.9 219.2 379.5 219.15 374.85 219.05 370.1 215.7 366.85 212.3 363.6 207.65 363.7 207.15 363.7 206 363.8 Z
M 232.75 264.8
L 230.8 265.85 232.5 265 232.75 264.8 Z
M 230.8 265.85
L 230.15 266"/>
</defs>

<g transform="matrix( 1, 0, 0, 1, 0,0) ">
<use xlink:href="#Layer1_0_1_STROKES"/>
</g>
</svg>
