
<svg xmlns="http://www.w3.org/2000/svg" version="1.1" xmlns:xlink="http://www.w3.org/1999/xlink" preserveAspectRatio="none" x="0px" y="0px" width="400px" height="400px" viewBox="0 0 400 400">
<defs>
<g id="Tween_3_0_Layer0_0_FILL">
<path fill="#0099CC" stroke="none" d="
M -6.7 -72.5
L -12.65 -54.6 -15.95 -41.55 -17.8 -31.8 -19.5 -18.2
Q -19.55 -17.8 -19.95 -11
L -20.05 -3.65
Q -20.05 -1.25 -19.85 3.75
L -18.85 14.45 -18.85 14.65 -18.25 18.55
Q -17.2 25.35 -15.25 32.85
L -11.65 44.4 -11.5 44.75 -11.4 45.15 -11.1 45.95
Q -9.15 51.15 -6.3 57.35 -4.05 62.1 -1.5 66.65 0.35 70 2.6 73.6
L 6.45 79.45
Q 9.05 83.35 13.65 84.25 18.25 85.15 22.15 82.55 26.05 79.9 26.95 75.3 27.85 70.7 25.25 66.8 24.95 66.4 24.2 65.5
L 20.1 60.9
Q 16.7 56.85 15.65 55.45 12.95 51.9 10.35 48 7.1 43.2 4.7 38.75
L 4.2 37.8 4 37.5 2.3 34.15 2.25 34 2.15 33.85 0.5 30.35 0.4 30.2 0.35 30 0 29.3 -0.55 27.85
Q -3.25 21.65 -5.1 15.55
L -8.5 2.3
Q -9.2 -0.9 -9.75 -4.45
L -10.6 -11.3
Q -10.95 -14.6 -11.2 -18.1
L -11.3 -19.75 -11.1 -40.85 -8.75 -60.65 -6.55 -72.45
Q -6.45 -72.55 -6.6 -72.55 -6.7 -72.65 -6.7 -72.5 Z"/>
</g>

<g id="Tween_2_0_Layer0_0_FILL">
<path fill="#0099CC" stroke="none" d="
M -104.7 -52
Q -105.95 -51 -107.15 -49.85 -108.3 -48.6 -109.35 -47.2 -110.55 -45.4 -111.15 -44.2 -111.85 -42.85 -112.45 -41 -112.95 -39.35 -113.2 -37.75
L -113.5 -34.65 -113.05 -29.1 -111.85 -24.35
Q -111.1 -22.1 -110.2 -20.15
L -109.45 -18.45 -109.3 -18.2 -109.1 -17.75 -104.3 -9.7 -93.25 4.05
Q -90.75 6.8 -88.75 8.8 -86.75 10.85 -84.25 13.2
L -81 16.35 -60 33.9 -41.05 47.2 -40.75 47.45 -40.45 47.6 -38.65 48.75
Q -38.6 48.8 -38.5 48.7
L -38.5 48.6 -70.2 8.45 -84.8 -12.4 -91.2 -24.6
Q -91.9 -26.4 -92.15 -27.3 -92.65 -28.7 -92.85 -29.8
L -93.2 -32 -93.15 -33.65 -93 -34.15 -92.85 -34.45 -92.75 -34.6 -91.45 -35.4 -89.4 -36.15 -89.15 -36.2 -88.55 -36.4
Q -87.8 -36.6 -86 -36.9 -84.1 -37.2 -83.05 -37.25
L -82.3 -37.35
Q -81.75 -37.35 -81.5 -37.4 -80.95 -37.4 -80.7 -37.45
L -79.9 -37.45
Q -77.75 -37.55 -76.6 -37.5
L -73.2 -37.45
Q -70.9 -37.35 -69.75 -37.25
L -65.35 -36.9 -37.25 -32.8 50.8 -13.65 51.15 -13.6 51.5 -13.5 103.35 -3.25
Q 103.45 -3.15 103.45 -3.3
L 103.4 -3.4 101.25 -4.65 100.9 -4.8 100.15 -5.25 67.05 -21.35 33.7 -34.95
Q 20.8 -39.75 7.3 -44
L -17.8 -51.25 -52.4 -58.15
Q -61.95 -59.4 -68.55 -59.65 -68.6 -59.65 -72.7 -59.8
L -76.9 -59.75
Q -79.7 -59.65 -81.2 -59.55
L -85.6 -59.1
Q -88.05 -58.75 -90.1 -58.3
L -97.2 -56.2
Q -97.85 -55.95 -99.7 -55.1
L -102.2 -53.75
Q -103.9 -52.65 -104.7 -52 Z"/>
</g>
</defs>

<g transform="matrix( 1, 0, 0, 1, 40,230.5) ">
<g transform="matrix( 1, 0, 0, 1, 0,0) ">
<use xlink:href="#Tween_3_0_Layer0_0_FILL"/>
</g>
</g>

<g transform="matrix( 1, 0, 0, 1, 40,230.5) ">
<g transform="matrix( 1, 0, 0, 1, 0,0) ">
<use xlink:href="#Tween_3_0_Layer0_0_FILL"/>
</g>
</g>

<g transform="matrix( -1, 0, 0, -1, 355.55,169.5) ">
<g transform="matrix( 1, 0, 0, 1, 0,0) ">
<use xlink:href="#Tween_3_0_Layer0_0_FILL"/>
</g>
</g>

<g transform="matrix( 0.000091552734375, -1, 1, 0.000091552734375, 228.45,358.4) ">
<g transform="matrix( 1, 0, 0, 1, 0,0) ">
<use xlink:href="#Tween_3_0_Layer0_0_FILL"/>
</g>
</g>

<g transform="matrix( 0.000091552734375, 1, -1, 0.000091552734375, 167.45,42.45) ">
<g transform="matrix( 1, 0, 0, 1, 0,0) ">
<use xlink:href="#Tween_3_0_Layer0_0_FILL"/>
</g>
</g>

<g transform="matrix( 1, 0, 0, 1, 46.95,60) ">
<g transform="matrix( 1, 0, 0, 1, 85.6,80.3) ">
<g transform="matrix( 1, 0, 0, 1, 0,0) ">
<use xlink:href="#Tween_2_0_Layer0_0_FILL"/>
</g>
</g>
</g>

<g transform="matrix( 0.000091552734375, 1, -1, 0.000091552734375, 337.95,48.95) ">
<g transform="matrix( 1, 0, 0, 1, 85.6,80.3) ">
<g transform="matrix( 1, 0, 0, 1, 0,0) ">
<use xlink:href="#Tween_2_0_Layer0_0_FILL"/>
</g>
</g>
</g>

<g transform="matrix( -1, 0, 0, -1, 349.05,340) ">
<g transform="matrix( 1, 0, 0, 1, 85.6,80.3) ">
<g transform="matrix( 1, 0, 0, 1, 0,0) ">
<use xlink:href="#Tween_2_0_Layer0_0_FILL"/>
</g>
</g>
</g>

<g transform="matrix( 0.000091552734375, -1, 1, 0.000091552734375, 57.95,351.05) ">
<g transform="matrix( 1, 0, 0, 1, 85.6,80.3) ">
<g transform="matrix( 1, 0, 0, 1, 0,0) ">
<use xlink:href="#Tween_2_0_Layer0_0_FILL"/>
</g>
</g>
</g>
</svg>
