<?xml version="1.0" encoding="utf-8"?>
<!-- Generator: Adobe Illustrator 19.1.0, SVG Export Plug-In . SVG Version: 6.00 Build 0)  -->
<svg version="1.1" id="Layer_2" xmlns="http://www.w3.org/2000/svg" xmlns:xlink="http://www.w3.org/1999/xlink" x="0px" y="0px"
	 viewBox="0 0 81.5 113.5" style="enable-background:new 0 0 81.5 113.5;" xml:space="preserve">
<style type="text/css">
	.st0{fill:#CDCCCC;}
</style>
<g>
	<path class="st0" d="M81.5,10.1v93.3c0,5.6-4.5,10.1-10.1,10.1H10.1C4.5,113.5,0,109,0,103.4V10.1C0,4.5,4.5,0,10.1,0h61.3
		C77,0,81.5,4.5,81.5,10.1z M75.9,32.3c0-3.3-2.7-6-6-6c-3.3,0-6,2.7-6,6s2.7,6,6,6C73.2,38.3,75.9,35.6,75.9,32.3z M75.9,100.1
		c0-3.3-2.7-6-6-6c-3.3,0-6,2.7-6,6c0,3.3,2.7,6,6,6C73.2,106.1,75.9,103.4,75.9,100.1z M74.1,66c0-18-14.5-32.5-32.5-32.5
		S9.1,48,9.1,66s14.6,32.5,32.5,32.5S74.1,83.9,74.1,66z M60.5,9.8c0-1.1-0.9-2-2-2H24.8c-0.5,0-1,0.2-1.4,0.6
		c-0.4,0.4-0.6,0.9-0.6,1.4c0,1.1,0.9,2,2,2h33.8c0.5,0,1-0.2,1.4-0.6C60.3,10.8,60.5,10.3,60.5,9.8z M19,32.3c0-3.3-2.7-6-6-6
		s-6,2.7-6,6s2.7,6,6,6S19,35.6,19,32.3z M19,100.1c0-3.3-2.7-6-6-6s-6,2.7-6,6c0,3.3,2.7,6,6,6S19,103.4,19,100.1z"/>
	<path class="st0" d="M41.6,56.5c5.2,0,9.5,4.3,9.5,9.5s-4.3,9.5-9.5,9.5c-5.3,0-9.5-4.3-9.5-9.5S36.3,56.5,41.6,56.5z"/>
</g>
</svg>
