<?xml version="1.0" encoding="utf-8"?>
<!-- Generator: Adobe Illustrator 19.1.0, SVG Export Plug-In . SVG Version: 6.00 Build 0)  -->
<svg version="1.1" id="Layer_2" xmlns="http://www.w3.org/2000/svg" xmlns:xlink="http://www.w3.org/1999/xlink" x="0px" y="0px"
	 viewBox="0 0 481.9 242" style="enable-background:new 0 0 481.9 242;" xml:space="preserve">
<style type="text/css">
	.st0{fill:#CDCCCC;}
</style>
<g>
	<path class="st0" d="M481.9,131.2v81.7c0,16.1-13,29.1-29.1,29.1h-35.7v-26.8c0-2.9-2.3-5.2-5.2-5.2h-6.5c-2.9,0-5.2,2.3-5.2,5.2
		V242h-31.2v-26.8c0-2.9-2.3-5.2-5.2-5.2h-6.5c-2.9,0-5.2,2.3-5.2,5.2V242h-31.2v-26.8c0-2.9-2.3-5.2-5.2-5.2h-6.5
		c-2.9,0-5.2,2.3-5.2,5.2V242h-31.2v-26.8c0-2.9-2.3-5.2-5.2-5.2h-6.5c-2.9,0-5.2,2.3-5.2,5.2V242h-31.2v-26.8
		c0-2.9-2.3-5.2-5.2-5.2h-6.5c-2.9,0-5.2,2.3-5.2,5.2V242h-31.2v-26.8c0-2.9-2.3-5.2-5.2-5.2h-6.5c-2.8,0-5.2,2.3-5.2,5.2V242H129
		v-26.8c0-2.9-2.3-5.2-5.2-5.2h-6.5c-2.8,0-5.2,2.3-5.2,5.2V242H81v-26.8c0-2.9-2.3-5.2-5.2-5.2h-6.5c-2.9,0-5.2,2.3-5.2,5.2V242
		H29.1C13,242,0,228.9,0,212.9v-81.8c13.2-1.3,23.5-12.4,23.5-26S13.2,80.4,0,79.1v-50C0,13,13,0,29.1,0h423.7
		c16.1,0,29.1,13,29.1,29.1V79c-14.4,0-26.1,11.7-26.1,26.1S467.5,131.2,481.9,131.2z M400.3,153.1V71.2c0-3.5-2.9-6.4-6.4-6.4h-51
		c-3.5,0-6.4,2.9-6.4,6.4v81.9c0,3.5,2.9,6.4,6.4,6.4h51C397.5,159.5,400.3,156.7,400.3,153.1z M272.9,153.1V71.2
		c0-3.5-2.9-6.4-6.4-6.4h-51c-3.5,0-6.4,2.9-6.4,6.4v81.9c0,3.5,2.9,6.4,6.4,6.4h51C270,159.5,272.9,156.7,272.9,153.1z
		 M144.7,153.1V71.2c0-3.5-2.8-6.4-6.4-6.4h-51c-3.5,0-6.4,2.9-6.4,6.4v81.9c0,3.5,2.9,6.4,6.4,6.4h51
		C141.9,159.5,144.7,156.7,144.7,153.1z"/>
</g>
</svg>
