<?xml version="1.0" encoding="utf-8"?>
<!-- Generator: Adobe Illustrator 15.1.0, SVG Export Plug-In . SVG Version: 6.00 Build 0)  -->
<!DOCTYPE svg PUBLIC "-//W3C//DTD SVG 1.1//EN" "http://www.w3.org/Graphics/SVG/1.1/DTD/svg11.dtd">
<svg version="1.1" id="Layer_1" xmlns="http://www.w3.org/2000/svg" xmlns:xlink="http://www.w3.org/1999/xlink" x="0px" y="0px"
	 width="432.65px" height="191.7px" viewBox="19.75 137.65 432.65 191.7" enable-background="new 19.75 137.65 432.65 191.7"
	 xml:space="preserve">
<g transform="matrix( 1, 0, 0, 1, 0,0) ">
	<g>
		<g id="Layer2_0_FILL">
			<path fill="#2D0B44" d="M300.15,302.65c-0.267,0.1-0.5,0.25-0.7,0.449c-0.167,0.167-0.3,0.367-0.4,0.601
				c-0.133,0.233-0.199,0.5-0.199,0.8c0,0.367,0.116,0.7,0.35,1c0.2,0.3,0.467,0.533,0.8,0.7c-0.233,0.1-0.433,0.217-0.6,0.35
				c-0.2,0.134-0.351,0.3-0.45,0.5c-0.133,0.167-0.233,0.351-0.3,0.55c-0.033,0.2-0.05,0.4-0.05,0.601
				c0,0.366,0.05,0.684,0.149,0.95c0.134,0.267,0.3,0.5,0.5,0.699c0.2,0.2,0.45,0.351,0.75,0.45c0.3,0.101,0.617,0.15,0.95,0.15
				c0.367,0,0.7-0.05,1-0.15c0.267-0.1,0.517-0.25,0.75-0.45c0.2-0.199,0.35-0.433,0.45-0.699c0.133-0.301,0.2-0.617,0.2-0.95
				c0-0.2-0.033-0.4-0.101-0.601c-0.066-0.199-0.149-0.383-0.25-0.55c-0.133-0.2-0.283-0.366-0.45-0.5
				c-0.199-0.133-0.399-0.25-0.6-0.35c0.167-0.101,0.316-0.2,0.45-0.3c0.133-0.134,0.25-0.268,0.35-0.4
				c0.101-0.166,0.167-0.334,0.2-0.5c0.066-0.166,0.1-0.334,0.1-0.5c0-0.3-0.05-0.566-0.149-0.8c-0.101-0.233-0.25-0.434-0.45-0.601
				c-0.167-0.199-0.383-0.35-0.65-0.449c-0.267-0.101-0.55-0.15-0.85-0.15S300.384,302.55,300.15,302.65 M302.25,303.95
				c0.067,0.2,0.101,0.399,0.101,0.6c0,0.167-0.033,0.351-0.101,0.55c-0.066,0.167-0.166,0.316-0.3,0.45
				c-0.133,0.101-0.283,0.2-0.45,0.3c-0.166,0.066-0.35,0.101-0.55,0.101c-0.167,0-0.35-0.034-0.55-0.101
				c-0.167-0.1-0.3-0.199-0.4-0.3c-0.133-0.134-0.233-0.283-0.3-0.45c-0.066-0.199-0.1-0.383-0.1-0.55c0-0.2,0.033-0.384,0.1-0.55
				c0.066-0.2,0.15-0.35,0.25-0.45c0.134-0.134,0.283-0.233,0.45-0.3c0.167-0.1,0.35-0.15,0.55-0.15s0.384,0.033,0.55,0.101
				c0.167,0.1,0.317,0.2,0.45,0.3C302.084,303.633,302.183,303.783,302.25,303.95 M299.3,308.2c0-0.233,0.051-0.467,0.15-0.7
				c0.066-0.2,0.184-0.366,0.35-0.5c0.134-0.167,0.301-0.283,0.5-0.35c0.2-0.067,0.417-0.101,0.65-0.101
				c0.267,0,0.5,0.033,0.7,0.101c0.2,0.1,0.366,0.216,0.5,0.35c0.133,0.167,0.25,0.35,0.35,0.55c0.067,0.2,0.101,0.417,0.101,0.65
				s-0.033,0.467-0.101,0.7c-0.1,0.199-0.217,0.366-0.35,0.5c-0.167,0.133-0.351,0.25-0.55,0.35c-0.2,0.066-0.417,0.1-0.65,0.1
				s-0.45-0.033-0.65-0.1c-0.199-0.066-0.383-0.184-0.55-0.35c-0.133-0.134-0.233-0.301-0.3-0.5
				C299.35,308.667,299.3,308.434,299.3,308.2 M292.7,310.45c0.066,0,0.134-0.017,0.2-0.05c0.066,0,0.116-0.034,0.149-0.101
				c0.067-0.033,0.117-0.083,0.15-0.149c0-0.067,0-0.134,0-0.2s0-0.134,0-0.2c-0.033-0.066-0.083-0.134-0.15-0.2
				c-0.033-0.033-0.083-0.066-0.149-0.1s-0.134-0.05-0.2-0.05c-0.133,0-0.25,0.05-0.35,0.149c-0.101,0.101-0.15,0.233-0.15,0.4
				c0,0.133,0.05,0.25,0.15,0.35C292.45,310.4,292.567,310.45,292.7,310.45 M292.25,305.45c0,0.066,0.033,0.116,0.101,0.149
				c0.033,0.066,0.083,0.117,0.149,0.15c0.067,0,0.134,0,0.2,0s0.134,0,0.2,0c0.066-0.033,0.116-0.084,0.149-0.15
				c0.067-0.033,0.117-0.083,0.15-0.149c0-0.067,0-0.134,0-0.2s0-0.133,0-0.2c-0.033-0.066-0.083-0.116-0.15-0.149
				c-0.033-0.066-0.083-0.101-0.149-0.101c-0.066-0.033-0.134-0.05-0.2-0.05c-0.133,0-0.25,0.05-0.35,0.15
				c-0.101,0.1-0.15,0.217-0.15,0.35C292.2,305.316,292.217,305.383,292.25,305.45 M290.35,302.5h-0.2
				c-0.367,0.3-0.75,0.566-1.15,0.8c-0.366,0.233-0.767,0.417-1.2,0.55v0.601c0.134-0.034,0.284-0.083,0.45-0.15
				c0.167-0.066,0.334-0.149,0.5-0.25c0.167-0.066,0.317-0.149,0.45-0.25c0.167-0.1,0.316-0.216,0.45-0.35v6.899h0.7V302.5
				 M296.9,302.5h-0.2c-0.366,0.3-0.75,0.566-1.15,0.8c-0.366,0.233-0.767,0.417-1.199,0.55v0.601
				c0.133-0.034,0.283-0.083,0.449-0.15c0.167-0.066,0.334-0.149,0.5-0.25c0.167-0.066,0.317-0.149,0.45-0.25
				c0.167-0.1,0.317-0.216,0.45-0.35v6.899h0.7V302.5 M366.15,295.4c0.733,0,1.1,0.516,1.1,1.55v3.1h1.25v-3.35
				c0-0.733-0.149-1.3-0.45-1.7c-0.333-0.4-0.8-0.6-1.399-0.6c-0.767,0-1.351,0.35-1.75,1.05h-0.05v-0.9h-1.25v5.5h1.25V296.9
				c0-0.434,0.133-0.783,0.399-1.051C365.483,295.55,365.783,295.4,366.15,295.4 M360.05,294.4c-0.732,0-1.366,0.283-1.899,0.85
				c-0.5,0.533-0.75,1.217-0.75,2.05c0,0.934,0.233,1.65,0.7,2.15s1.1,0.75,1.899,0.75c0.834,0,1.5-0.167,2-0.5v-1
				c-0.5,0.366-1.05,0.55-1.649,0.55c-0.5,0-0.9-0.15-1.2-0.45c-0.3-0.267-0.467-0.649-0.5-1.149h3.75v-0.5
				c0-0.867-0.2-1.533-0.601-2C361.4,294.65,360.817,294.4,360.05,294.4 M360.9,295.7c0.2,0.267,0.3,0.616,0.3,1.05h-2.55
				c0.066-0.434,0.233-0.767,0.5-1c0.233-0.267,0.533-0.4,0.899-0.4C360.417,295.35,360.7,295.467,360.9,295.7 M354.2,294.4
				c-0.733,0-1.366,0.283-1.9,0.85c-0.5,0.533-0.75,1.217-0.75,2.05c0,0.934,0.233,1.65,0.7,2.15s1.101,0.75,1.9,0.75
				c0.833,0,1.5-0.167,2-0.5v-1c-0.5,0.366-1.05,0.55-1.65,0.55c-0.5,0-0.899-0.15-1.2-0.45c-0.3-0.267-0.466-0.649-0.5-1.149h3.75
				v-0.5c0-0.867-0.199-1.533-0.6-2C355.55,294.65,354.967,294.4,354.2,294.4 M353.3,295.75c0.233-0.267,0.534-0.4,0.9-0.4
				c0.367,0,0.65,0.117,0.85,0.351c0.2,0.267,0.301,0.616,0.301,1.05H352.8C352.867,296.316,353.033,295.983,353.3,295.75
				 M344.25,295.95c0.334-0.366,0.767-0.55,1.3-0.55c0.434,0,0.834,0.149,1.2,0.449V294.7c-0.366-0.2-0.8-0.3-1.3-0.3
				c-0.934,0-1.667,0.283-2.2,0.85c-0.533,0.533-0.8,1.267-0.8,2.2c0,0.8,0.25,1.45,0.75,1.95c0.5,0.533,1.167,0.8,2,0.8
				c0.6,0,1.117-0.134,1.55-0.4v-1.1c-0.399,0.333-0.816,0.5-1.25,0.5c-0.533,0-0.967-0.167-1.3-0.5
				c-0.3-0.333-0.45-0.784-0.45-1.351S343.917,296.316,344.25,295.95 M349.25,295.7h-0.05v-1.15h-1.25v5.5h1.25V297.4
				c0-0.566,0.134-1.018,0.4-1.351c0.233-0.333,0.533-0.5,0.899-0.5c0.3,0,0.517,0.067,0.65,0.2v-1.2c-0.134-0.066-0.3-0.1-0.5-0.1
				c-0.333,0-0.617,0.116-0.851,0.35C349.533,295,349.35,295.3,349.25,295.7 M338.05,293.85c0.101-0.133,0.233-0.25,0.4-0.35
				c0.134-0.066,0.3-0.117,0.5-0.15c0.167-0.033,0.35-0.05,0.55-0.05c0.7,0,1.267,0.15,1.7,0.45v-1.25c-0.366-0.2-0.95-0.3-1.75-0.3
				c-0.366,0-0.717,0.05-1.05,0.149c-0.333,0.066-0.634,0.2-0.9,0.4c-0.267,0.166-0.483,0.383-0.649,0.65
				c-0.167,0.266-0.25,0.583-0.25,0.949c0,0.301,0.05,0.551,0.149,0.75c0.101,0.234,0.233,0.434,0.4,0.601s0.35,0.316,0.55,0.45
				c0.233,0.166,0.483,0.316,0.75,0.449c0.233,0.101,0.467,0.2,0.7,0.301c0.2,0.1,0.383,0.217,0.55,0.35
				c0.134,0.1,0.25,0.217,0.35,0.35c0.101,0.134,0.15,0.283,0.15,0.45c0,0.366-0.133,0.634-0.4,0.8
				c-0.267,0.167-0.666,0.25-1.199,0.25c-0.167,0-0.334-0.016-0.5-0.05c-0.2-0.033-0.384-0.066-0.551-0.1
				c-0.199-0.067-0.383-0.15-0.55-0.25c-0.166-0.067-0.3-0.15-0.399-0.25v1.3c0.1,0.066,0.233,0.133,0.399,0.2
				c0.2,0.033,0.4,0.066,0.601,0.1c0.166,0.034,0.35,0.067,0.55,0.101s0.366,0.05,0.5,0.05c0.366,0,0.733-0.05,1.1-0.15
				c0.334-0.066,0.634-0.183,0.9-0.35s0.483-0.384,0.649-0.65c0.167-0.267,0.25-0.6,0.25-1c0-0.3-0.066-0.55-0.199-0.75
				c-0.101-0.233-0.233-0.45-0.4-0.649c-0.2-0.167-0.417-0.334-0.65-0.5c-0.232-0.167-0.482-0.316-0.75-0.45
				c-0.267-0.101-0.5-0.2-0.699-0.3c-0.2-0.101-0.367-0.2-0.5-0.301c-0.134-0.1-0.233-0.217-0.301-0.35
				c-0.066-0.133-0.1-0.283-0.1-0.45C337.95,294.1,337.983,293.95,338.05,293.85 M303.75,292.35h-1.3v7.7h4.25v-1.1h-2.95V292.35
				 M316.4,294.4c-0.767,0-1.384,0.283-1.851,0.85c-0.433,0.566-0.649,1.316-0.649,2.25c0,0.8,0.2,1.45,0.6,1.95
				c0.434,0.5,0.983,0.75,1.65,0.75c0.833,0,1.45-0.351,1.85-1.05v0.6c0,1.267-0.649,1.9-1.95,1.9c-0.533,0-1.1-0.167-1.699-0.5
				v1.149c0.533,0.233,1.149,0.351,1.85,0.351c2.033,0,3.05-1.018,3.05-3.051v-5.05H318v0.75C317.634,294.7,317.1,294.4,316.4,294.4
				 M316.7,295.4c0.367,0,0.684,0.149,0.95,0.449c0.267,0.268,0.399,0.584,0.399,0.95v0.75c0,0.467-0.133,0.851-0.399,1.15
				c-0.267,0.333-0.617,0.5-1.05,0.5c-0.434,0-0.783-0.167-1.051-0.5c-0.232-0.333-0.35-0.767-0.35-1.3
				c0-0.634,0.134-1.117,0.4-1.45C315.867,295.584,316.233,295.4,316.7,295.4 M310.3,294.4c-0.899,0-1.616,0.266-2.149,0.8
				c-0.533,0.533-0.8,1.25-0.8,2.149c0,0.867,0.25,1.551,0.75,2.051c0.533,0.533,1.217,0.8,2.05,0.8c0.866,0,1.566-0.267,2.1-0.8
				c0.5-0.533,0.75-1.234,0.75-2.101c0-0.899-0.233-1.6-0.7-2.1C311.8,294.666,311.134,294.4,310.3,294.4 M309.05,295.95
				c0.301-0.366,0.684-0.55,1.15-0.55c0.5,0,0.884,0.166,1.15,0.5c0.267,0.333,0.399,0.8,0.399,1.399c0,0.601-0.133,1.067-0.399,1.4
				s-0.65,0.5-1.15,0.5c-0.467,0-0.85-0.167-1.15-0.5c-0.267-0.333-0.399-0.784-0.399-1.351
				C308.65,296.75,308.783,296.283,309.05,295.95 M294.8,295.55h0.9v3.101c0,1,0.533,1.5,1.6,1.5c0.4,0,0.717-0.051,0.95-0.15v-1
				c-0.133,0.133-0.316,0.2-0.55,0.2c-0.267,0-0.467-0.067-0.6-0.2c-0.101-0.166-0.15-0.4-0.15-0.7v-2.75h1.3v-1h-1.3V292.9
				l-1.25,0.399v1.25h-0.9V295.55 M291.75,292.35h-1.399l-2.9,7.7h1.4l0.649-1.95h3.05l0.7,1.95h1.4L291.75,292.35 M291,293.5
				c0.067,0.2,0.117,0.367,0.15,0.5l1.05,3.05h-2.35l1.05-3.05C290.933,293.867,290.967,293.7,291,293.5 M325.45,299.4
				c0.5-0.533,0.75-1.234,0.75-2.101c0-0.899-0.233-1.6-0.7-2.1c-0.5-0.534-1.166-0.8-2-0.8c-0.899,0-1.616,0.266-2.149,0.8
				c-0.533,0.533-0.801,1.25-0.801,2.149c0,0.867,0.25,1.551,0.75,2.051c0.534,0.533,1.217,0.8,2.051,0.8
				C324.217,300.2,324.917,299.934,325.45,299.4 M324.95,297.3c0,0.601-0.133,1.067-0.4,1.4c-0.267,0.333-0.649,0.5-1.149,0.5
				c-0.467,0-0.851-0.167-1.15-0.5c-0.267-0.333-0.399-0.784-0.399-1.351c0-0.6,0.133-1.066,0.399-1.399
				c0.3-0.366,0.684-0.55,1.15-0.55c0.5,0,0.883,0.166,1.149,0.5C324.817,296.233,324.95,296.7,324.95,297.3 M328.7,294.55h-1.25
				v5.5h1.25V296.9c0-0.434,0.134-0.783,0.4-1.051c0.233-0.3,0.533-0.449,0.899-0.449c0.733,0,1.101,0.516,1.101,1.55v3.1h1.25
				v-3.35c0-0.733-0.15-1.3-0.45-1.7c-0.333-0.4-0.8-0.6-1.4-0.6c-0.767,0-1.35,0.35-1.75,1.05h-0.05V294.55 M165.45,292.35v1.101
				h2.2v6.6h1.3v-6.6h2.2v-1.101H165.45 M121,308.2c0.101-0.5,0.15-1.084,0.15-1.75c0-2.634-0.767-3.95-2.3-3.95
				c-0.834,0-1.45,0.35-1.851,1.05c-0.433,0.7-0.649,1.733-0.649,3.101c0,0.633,0.05,1.183,0.149,1.649
				c0.101,0.467,0.25,0.867,0.45,1.2s0.45,0.583,0.75,0.75c0.267,0.167,0.6,0.25,1,0.25c0.367,0,0.717-0.1,1.05-0.3
				c0.3-0.167,0.55-0.417,0.75-0.75C120.733,309.116,120.9,308.7,121,308.2 M120.35,308c-0.067,0.4-0.184,0.75-0.351,1.05
				c-0.133,0.267-0.3,0.467-0.5,0.601c-0.233,0.166-0.483,0.25-0.75,0.25c-0.566,0-1-0.284-1.3-0.851
				c-0.267-0.566-0.4-1.383-0.4-2.45c0-1.166,0.15-2.033,0.45-2.6c0.3-0.6,0.733-0.9,1.3-0.9c1.101,0,1.65,1.15,1.65,3.45
				C120.45,307.083,120.417,307.566,120.35,308 M123.3,310.15c0-0.067,0-0.134,0-0.2s0-0.134,0-0.2
				c-0.033-0.066-0.083-0.134-0.149-0.2c-0.033-0.033-0.083-0.066-0.15-0.1c-0.066-0.033-0.133-0.05-0.2-0.05
				c-0.133,0-0.25,0.05-0.35,0.149c-0.1,0.101-0.15,0.233-0.15,0.4c0,0.133,0.051,0.25,0.15,0.35c0.1,0.101,0.217,0.15,0.35,0.15
				c0.067,0,0.134-0.017,0.2-0.05c0.067,0,0.117-0.034,0.15-0.101C123.217,310.267,123.266,310.217,123.3,310.15 M124.5,306.65
				c0,0.633,0.05,1.183,0.15,1.649c0.1,0.467,0.25,0.867,0.45,1.2c0.199,0.333,0.449,0.583,0.75,0.75c0.267,0.167,0.6,0.25,1,0.25
				c0.366,0,0.717-0.1,1.05-0.3c0.3-0.167,0.55-0.417,0.75-0.75c0.233-0.334,0.399-0.75,0.5-1.25c0.1-0.5,0.149-1.084,0.149-1.75
				c0-2.634-0.767-3.95-2.3-3.95c-0.833,0-1.45,0.35-1.85,1.05C124.717,304.25,124.5,305.283,124.5,306.65 M125.6,309.05
				c-0.267-0.566-0.4-1.383-0.4-2.45c0-1.166,0.15-2.033,0.45-2.6c0.3-0.6,0.733-0.9,1.3-0.9c1.1,0,1.65,1.15,1.65,3.45
				c0,0.533-0.033,1.017-0.101,1.45c-0.066,0.4-0.183,0.75-0.35,1.05c-0.134,0.267-0.3,0.467-0.5,0.601
				c-0.233,0.166-0.483,0.25-0.75,0.25C126.334,309.9,125.9,309.616,125.6,309.05 M122.45,305.6c0.033,0.066,0.083,0.117,0.15,0.15
				c0.066,0,0.133,0,0.199,0c0.067,0,0.134,0,0.2,0c0.067-0.033,0.117-0.084,0.15-0.15c0.066-0.033,0.116-0.083,0.149-0.149
				c0-0.067,0-0.134,0-0.2s0-0.133,0-0.2c-0.033-0.066-0.083-0.116-0.149-0.149c-0.033-0.066-0.083-0.101-0.15-0.101
				c-0.066-0.033-0.133-0.05-0.2-0.05c-0.133,0-0.25,0.05-0.35,0.15c-0.1,0.1-0.15,0.217-0.15,0.35c0,0.066,0.018,0.133,0.051,0.2
				C122.35,305.517,122.384,305.566,122.45,305.6 M134.35,302.65h-0.75c-0.167,0.399-0.384,0.816-0.65,1.25s-0.566,0.883-0.9,1.35
				c-0.3,0.434-0.633,0.883-1,1.35c-0.333,0.434-0.683,0.834-1.05,1.2v0.65h3.65v1.899h0.7v-1.899h1.199v-0.65h-1.199V302.65
				 M132.9,305.05c0.233-0.399,0.483-0.833,0.75-1.3v4.05H130.8c0.2-0.2,0.4-0.45,0.601-0.75c0.233-0.267,0.467-0.566,0.7-0.899
				C132.367,305.783,132.634,305.416,132.9,305.05 M160.75,292.75c-0.267,0.166-0.483,0.383-0.649,0.65
				c-0.167,0.266-0.25,0.583-0.25,0.949c0,0.301,0.05,0.551,0.149,0.75c0.101,0.234,0.233,0.434,0.4,0.601s0.35,0.316,0.55,0.45
				c0.233,0.166,0.483,0.316,0.75,0.449c0.233,0.101,0.467,0.2,0.7,0.301c0.2,0.1,0.383,0.217,0.55,0.35
				c0.134,0.1,0.25,0.217,0.35,0.35c0.101,0.134,0.15,0.283,0.15,0.45c0,0.366-0.133,0.634-0.4,0.8
				c-0.267,0.167-0.666,0.25-1.199,0.25c-0.167,0-0.334-0.016-0.5-0.05c-0.2-0.033-0.384-0.066-0.551-0.1
				c-0.199-0.067-0.383-0.15-0.55-0.25c-0.166-0.067-0.3-0.15-0.399-0.25v1.3c0.1,0.066,0.233,0.133,0.399,0.2
				c0.2,0.033,0.4,0.066,0.601,0.1c0.166,0.034,0.35,0.067,0.55,0.101s0.366,0.05,0.5,0.05c0.366,0,0.733-0.05,1.1-0.15
				c0.334-0.066,0.634-0.183,0.9-0.35s0.483-0.384,0.649-0.65c0.167-0.267,0.25-0.6,0.25-1c0-0.3-0.066-0.55-0.199-0.75
				c-0.101-0.233-0.233-0.45-0.4-0.649c-0.2-0.167-0.417-0.334-0.65-0.5c-0.232-0.167-0.482-0.316-0.75-0.45
				c-0.267-0.101-0.5-0.2-0.699-0.3c-0.2-0.101-0.367-0.2-0.5-0.301c-0.134-0.1-0.233-0.217-0.301-0.35
				c-0.066-0.133-0.1-0.283-0.1-0.45c0-0.2,0.033-0.35,0.1-0.45c0.101-0.133,0.233-0.25,0.4-0.35c0.134-0.066,0.3-0.117,0.5-0.15
				c0.167-0.033,0.35-0.05,0.55-0.05c0.7,0,1.267,0.15,1.7,0.45v-1.25c-0.366-0.2-0.95-0.3-1.75-0.3c-0.366,0-0.717,0.05-1.05,0.149
				C161.317,292.416,161.016,292.55,160.75,292.75 M155.2,292.2c-1.167,0-2.083,0.384-2.75,1.149c-0.7,0.734-1.05,1.717-1.05,2.95
				c0,1.134,0.333,2.067,1,2.8c0.667,0.734,1.566,1.101,2.7,1.101c1.1,0,2-0.366,2.699-1.101c0.667-0.732,1-1.732,1-3
				c0-1.166-0.333-2.1-1-2.8C157.134,292.566,156.266,292.2,155.2,292.2 M153.4,294.15c0.467-0.533,1.05-0.801,1.75-0.801
				s1.267,0.25,1.7,0.75c0.399,0.5,0.6,1.217,0.6,2.15c0,0.867-0.2,1.55-0.6,2.05c-0.434,0.5-1.017,0.75-1.75,0.75
				c-0.7,0-1.267-0.25-1.7-0.75c-0.434-0.533-0.65-1.233-0.65-2.1S152.967,294.65,153.4,294.15 M149.8,296.55
				c0.5-0.466,0.75-1.083,0.75-1.85c0-0.733-0.232-1.317-0.699-1.75c-0.5-0.4-1.184-0.601-2.051-0.601h-2.35v7.7h1.25v-2.8h1.05
				C148.617,297.25,149.3,297.017,149.8,296.55 M146.7,296.2v-2.8h0.95c1.066,0,1.6,0.449,1.6,1.35c0,0.467-0.149,0.834-0.45,1.1
				c-0.3,0.234-0.716,0.351-1.25,0.351H146.7 M144.6,292.35h-1.15l-3.7,9h1.15L144.6,292.35 M136.35,292.35
				c-0.334,0.066-0.634,0.2-0.9,0.4c-0.267,0.166-0.483,0.383-0.65,0.65c-0.166,0.266-0.25,0.583-0.25,0.949
				c0,0.301,0.051,0.551,0.15,0.75c0.1,0.234,0.233,0.434,0.4,0.601c0.166,0.167,0.35,0.316,0.55,0.45
				c0.233,0.166,0.483,0.316,0.75,0.449c0.233,0.101,0.467,0.2,0.7,0.301c0.199,0.1,0.383,0.217,0.55,0.35
				c0.133,0.1,0.25,0.217,0.35,0.35c0.101,0.134,0.15,0.283,0.15,0.45c0,0.366-0.134,0.634-0.4,0.8
				c-0.267,0.167-0.666,0.25-1.2,0.25c-0.166,0-0.333-0.016-0.5-0.05c-0.199-0.033-0.383-0.066-0.55-0.1
				c-0.2-0.067-0.383-0.15-0.55-0.25c-0.167-0.067-0.3-0.15-0.4-0.25v1.3c0.101,0.066,0.233,0.133,0.4,0.2
				c0.2,0.033,0.4,0.066,0.6,0.1c0.167,0.034,0.351,0.067,0.551,0.101c0.199,0.033,0.366,0.05,0.5,0.05c0.366,0,0.733-0.05,1.1-0.15
				c0.333-0.066,0.634-0.183,0.9-0.35s0.483-0.384,0.649-0.65c0.167-0.267,0.25-0.6,0.25-1c0-0.3-0.066-0.55-0.2-0.75
				c-0.1-0.233-0.232-0.45-0.399-0.649c-0.2-0.167-0.417-0.334-0.65-0.5c-0.233-0.167-0.483-0.316-0.75-0.45
				c-0.267-0.101-0.5-0.2-0.7-0.3c-0.199-0.101-0.366-0.2-0.5-0.301c-0.133-0.1-0.232-0.217-0.3-0.35
				c-0.066-0.133-0.1-0.283-0.1-0.45c0-0.2,0.033-0.35,0.1-0.45c0.101-0.133,0.233-0.25,0.4-0.35c0.133-0.066,0.3-0.117,0.5-0.15
				c0.167-0.033,0.35-0.05,0.55-0.05c0.7,0,1.267,0.15,1.7,0.45v-1.25c-0.367-0.2-0.95-0.3-1.75-0.3
				C137.033,292.2,136.683,292.25,136.35,292.35 M124.75,292.35h-1.3v7.7h1.3V292.35 M129.9,292.2c-1.167,0-2.083,0.384-2.75,1.149
				c-0.7,0.734-1.05,1.717-1.05,2.95c0,1.134,0.333,2.067,1,2.8c0.666,0.734,1.566,1.101,2.699,1.101c1.101,0,2-0.366,2.7-1.101
				c0.667-0.732,1-1.732,1-3c0-1.166-0.333-2.1-1-2.8C131.834,292.566,130.967,292.2,129.9,292.2 M128.1,294.15
				c0.467-0.533,1.05-0.801,1.75-0.801c0.699,0,1.267,0.25,1.699,0.75c0.4,0.5,0.601,1.217,0.601,2.15c0,0.867-0.2,1.55-0.601,2.05
				c-0.433,0.5-1.017,0.75-1.75,0.75c-0.699,0-1.267-0.25-1.699-0.75c-0.434-0.533-0.65-1.233-0.65-2.1S127.667,294.65,128.1,294.15
				 M121,292.85c-0.433-0.333-1.017-0.5-1.75-0.5h-2.45v7.7h2.45c0.8,0,1.467-0.2,2-0.6c0.5-0.4,0.75-0.934,0.75-1.601
				c0-0.533-0.149-0.967-0.45-1.3c-0.333-0.333-0.767-0.533-1.3-0.6c0.467-0.134,0.817-0.366,1.05-0.7
				c0.233-0.334,0.351-0.717,0.351-1.15C121.65,293.6,121.433,293.184,121,292.85 M118.9,295.55h-0.851v-2.2H119
				c0.867,0,1.3,0.334,1.3,1c0,0.4-0.116,0.7-0.35,0.9C119.683,295.45,119.334,295.55,118.9,295.55 M118.05,296.6H119
				c1.101,0,1.65,0.4,1.65,1.2c0,0.366-0.134,0.667-0.4,0.9c-0.233,0.233-0.6,0.35-1.1,0.35h-1.101V296.6 M292.15,161.45H290v7h2.15
				v-3.35c0-0.6,0.133-1.067,0.399-1.4c0.268-0.333,0.634-0.5,1.101-0.5c0.366,0,0.684,0.066,0.95,0.2v-2
				c-0.134-0.033-0.317-0.05-0.551-0.05c-0.899,0-1.517,0.467-1.85,1.4h-0.05V161.45 M283.05,162.3c-0.666,0.667-1,1.583-1,2.75
				c0,1.133,0.317,2.017,0.95,2.65c0.601,0.6,1.467,0.9,2.601,0.9c1.033,0,1.883-0.167,2.55-0.5v-1.55
				c-0.601,0.367-1.283,0.55-2.05,0.55c-1.2,0-1.834-0.517-1.9-1.55h4.55v-0.9c0-1.033-0.283-1.85-0.85-2.45
				c-0.566-0.6-1.351-0.9-2.351-0.9S283.717,161.633,283.05,162.3 M285.55,162.75c0.801,0,1.2,0.5,1.2,1.5h-2.6
				c0.066-0.433,0.233-0.8,0.5-1.1C284.884,162.883,285.183,162.75,285.55,162.75 M272.1,163.05v3.2c0,1.567,0.767,2.35,2.3,2.35
				c0.633,0,1.116-0.083,1.45-0.25v-1.6c-0.233,0.133-0.467,0.2-0.7,0.2c-0.601,0-0.9-0.367-0.9-1.1v-2.8h1.601v-1.6h-1.601v-2.15
				l-2.149,0.65v1.5H271v1.6H272.1 M270.35,164.65c0-1.033-0.283-1.85-0.851-2.45c-0.566-0.6-1.35-0.9-2.35-0.9s-1.833,0.333-2.5,1
				c-0.667,0.667-1,1.583-1,2.75c0,1.133,0.316,2.017,0.95,2.65c0.6,0.6,1.467,0.9,2.6,0.9c1.033,0,1.884-0.167,2.55-0.5v-1.55
				c-0.6,0.367-1.283,0.55-2.05,0.55c-1.2,0-1.833-0.517-1.9-1.55h4.551V164.65 M265.75,164.25c0.067-0.433,0.233-0.8,0.5-1.1
				c0.233-0.267,0.533-0.4,0.9-0.4c0.8,0,1.2,0.5,1.2,1.5H265.75 M279.7,159.3l-2.15,0.65v1.5h-1.1v1.6h1.1v3.2
				c0,1.567,0.768,2.35,2.301,2.35c0.633,0,1.116-0.083,1.449-0.25v-1.6c-0.232,0.133-0.466,0.2-0.699,0.2
				c-0.601,0-0.9-0.367-0.9-1.1v-2.8h1.6v-1.6h-1.6V159.3 M257.5,158.1h-2.149v10.35h2.149v-0.8h0.05
				c0.434,0.633,1.084,0.95,1.95,0.95c0.967,0,1.733-0.35,2.3-1.05c0.567-0.7,0.851-1.633,0.851-2.8c0-1.067-0.25-1.917-0.75-2.55
				c-0.467-0.6-1.167-0.9-2.101-0.9c-0.966,0-1.716,0.4-2.25,1.2h-0.05V158.1 M259,162.95c0.467,0,0.817,0.167,1.05,0.5
				c0.233,0.3,0.351,0.75,0.351,1.35c0,0.7-0.134,1.233-0.4,1.6s-0.649,0.55-1.149,0.55c-0.4,0-0.733-0.15-1-0.45
				c-0.233-0.267-0.351-0.633-0.351-1.1v-0.7c0-0.534,0.134-0.967,0.4-1.3C258.2,163.1,258.567,162.95,259,162.95 M249.15,164.55
				c-0.233-0.1-0.483-0.2-0.75-0.3c-0.167-0.067-0.333-0.117-0.5-0.15c-0.167-0.067-0.316-0.133-0.45-0.2
				c-0.133-0.066-0.233-0.15-0.3-0.25c-0.101-0.066-0.15-0.167-0.15-0.3c0-0.1,0.033-0.184,0.101-0.25
				c0.066-0.1,0.133-0.167,0.199-0.2c0.101-0.066,0.217-0.1,0.351-0.1c0.133-0.033,0.267-0.05,0.399-0.05
				c0.301,0,0.617,0.033,0.95,0.1c0.3,0.1,0.584,0.233,0.851,0.4v-1.7c-0.301-0.1-0.617-0.167-0.95-0.2
				c-0.3-0.033-0.617-0.05-0.95-0.05c-0.4,0-0.783,0.034-1.15,0.1c-0.366,0.1-0.683,0.233-0.949,0.4c-0.301,0.167-0.533,0.4-0.7,0.7
				c-0.167,0.267-0.25,0.6-0.25,1c0,0.3,0.033,0.55,0.1,0.75c0.101,0.2,0.217,0.383,0.351,0.55c0.133,0.167,0.316,0.317,0.55,0.45
				c0.2,0.1,0.434,0.2,0.7,0.3c0.166,0.067,0.35,0.133,0.55,0.2s0.366,0.133,0.5,0.2c0.167,0.066,0.3,0.133,0.399,0.2
				c0.101,0.1,0.15,0.217,0.15,0.35c0,0.233-0.116,0.4-0.35,0.5c-0.2,0.1-0.5,0.15-0.9,0.15c-0.3,0-0.633-0.05-1-0.15
				c-0.333-0.1-0.684-0.267-1.05-0.5v1.75c0.667,0.233,1.383,0.35,2.149,0.35c0.4,0,0.801-0.033,1.2-0.1
				c0.4-0.1,0.75-0.233,1.05-0.4c0.301-0.2,0.534-0.434,0.7-0.7c0.167-0.3,0.25-0.667,0.25-1.1c0-0.3-0.033-0.55-0.1-0.75
				c-0.101-0.233-0.233-0.417-0.4-0.55C249.584,164.833,249.384,164.683,249.15,164.55 M215.6,163.7c0.267-0.333,0.633-0.5,1.1-0.5
				c0.367,0,0.684,0.066,0.95,0.2v-2c-0.134-0.033-0.316-0.05-0.55-0.05c-0.9,0-1.517,0.467-1.851,1.4h-0.05v-1.3h-2.15v7h2.15
				v-3.35C215.2,164.5,215.334,164.033,215.6,163.7 M210.75,162.25c-0.666-0.633-1.583-0.95-2.75-0.95c-1.2,0-2.133,0.317-2.8,0.95
				c-0.7,0.667-1.05,1.583-1.05,2.75c0,1.1,0.333,1.983,1,2.65c0.667,0.633,1.583,0.95,2.75,0.95s2.1-0.333,2.8-1
				c0.667-0.667,1-1.583,1-2.75C211.7,163.783,211.384,162.917,210.75,162.25 M209.5,164.9c0,1.367-0.517,2.05-1.55,2.05
				c-1.066,0-1.6-0.667-1.6-2c0-0.633,0.133-1.133,0.399-1.5c0.3-0.333,0.7-0.5,1.2-0.5C208.983,162.95,209.5,163.6,209.5,164.9
				 M241.35,161.45v7h2.149v-7H241.35 M231.95,161.45v7h2.15v-3.35c0-0.6,0.133-1.067,0.399-1.4c0.267-0.333,0.634-0.5,1.101-0.5
				c0.366,0,0.683,0.066,0.949,0.2v-2c-0.133-0.033-0.316-0.05-0.55-0.05c-0.899,0-1.517,0.467-1.85,1.4h-0.05v-1.3H231.95
				 M223.25,163.05v-1.6h-1.6v-2.15l-2.15,0.65v1.5h-1.1v1.6h1.1v3.2c0,1.567,0.767,2.35,2.3,2.35c0.634,0,1.117-0.083,1.45-0.25
				v-1.6c-0.233,0.133-0.467,0.2-0.7,0.2c-0.6,0-0.899-0.367-0.899-1.1v-2.8H223.25 M230.7,164.65c0-1.033-0.283-1.85-0.85-2.45
				c-0.567-0.6-1.351-0.9-2.351-0.9s-1.833,0.333-2.5,1c-0.666,0.667-1,1.583-1,2.75c0,1.133,0.317,2.017,0.95,2.65
				c0.6,0.6,1.467,0.9,2.6,0.9c1.034,0,1.884-0.167,2.551-0.5v-1.55c-0.601,0.367-1.283,0.55-2.051,0.55
				c-1.199,0-1.833-0.517-1.899-1.55h4.55V164.65 M226.6,163.15c0.233-0.267,0.533-0.4,0.899-0.4c0.8,0,1.2,0.5,1.2,1.5h-2.6
				C226.167,163.817,226.334,163.45,226.6,163.15 M241.55,160c0.233,0.233,0.534,0.35,0.9,0.35c0.367,0,0.667-0.1,0.9-0.3
				c0.233-0.233,0.35-0.517,0.35-0.85c0-0.3-0.116-0.55-0.35-0.75c-0.233-0.233-0.533-0.35-0.9-0.35c-0.366,0-0.667,0.117-0.9,0.35
				c-0.232,0.2-0.35,0.45-0.35,0.75C241.2,159.533,241.317,159.8,241.55,160 M198.25,158.1H196.1v10.35h2.149v-4
				c0-0.434,0.117-0.8,0.351-1.1c0.267-0.267,0.583-0.4,0.949-0.4c0.768,0,1.15,0.5,1.15,1.5v4h2.15v-4.3c0-1.9-0.801-2.85-2.4-2.85
				c-0.9,0-1.616,0.4-2.15,1.2h-0.05V158.1 M192.55,160.25c0.2,0.033,0.4,0.083,0.601,0.15c0.2,0.033,0.399,0.1,0.6,0.2
				s0.367,0.2,0.5,0.3v-2.05c-0.3-0.133-0.649-0.217-1.05-0.25c-0.4-0.067-0.85-0.1-1.35-0.1c-0.533,0-1.033,0.05-1.5,0.15
				s-0.867,0.267-1.2,0.5c-0.367,0.267-0.65,0.583-0.851,0.95c-0.199,0.367-0.3,0.8-0.3,1.3c0,0.633,0.184,1.184,0.55,1.65
				c0.367,0.467,0.934,0.867,1.7,1.2c0.3,0.1,0.584,0.217,0.851,0.35c0.267,0.1,0.483,0.217,0.649,0.35
				c0.2,0.133,0.351,0.283,0.45,0.45c0.134,0.133,0.2,0.3,0.2,0.5c0,0.133-0.033,0.267-0.101,0.4c-0.066,0.1-0.183,0.2-0.35,0.3
				c-0.133,0.1-0.3,0.167-0.5,0.2c-0.2,0.067-0.45,0.1-0.75,0.1c-0.467,0-0.934-0.083-1.4-0.25c-0.466-0.167-0.899-0.417-1.3-0.75
				v2.15c0.367,0.2,0.8,0.35,1.3,0.45c0.467,0.067,0.967,0.1,1.5,0.1c0.534,0,1.034-0.05,1.5-0.15c0.467-0.1,0.884-0.25,1.25-0.45
				c0.367-0.233,0.65-0.533,0.851-0.9c0.2-0.4,0.3-0.867,0.3-1.4c0-0.4-0.05-0.75-0.15-1.05c-0.133-0.3-0.316-0.566-0.55-0.8
				c-0.2-0.233-0.467-0.434-0.8-0.6c-0.3-0.2-0.65-0.383-1.05-0.55c-0.267-0.1-0.517-0.217-0.75-0.35
				c-0.233-0.1-0.434-0.217-0.601-0.35c-0.166-0.1-0.283-0.217-0.35-0.35c-0.1-0.133-0.15-0.283-0.15-0.45
				c0-0.133,0.034-0.267,0.101-0.4c0.1-0.133,0.217-0.233,0.35-0.3c0.134-0.1,0.3-0.167,0.5-0.2c0.2-0.066,0.434-0.1,0.7-0.1
				C192.117,160.2,192.317,160.217,192.55,160.25 M272.45,142.65h-3.25v10.5h3.25V142.65 M269.5,140.5
				c0.367,0.333,0.817,0.5,1.351,0.5c0.566,0,1.017-0.167,1.35-0.5c0.333-0.3,0.5-0.7,0.5-1.2c0-0.466-0.167-0.867-0.5-1.2
				c-0.333-0.3-0.783-0.45-1.35-0.45c-0.533,0-0.983,0.15-1.351,0.45c-0.333,0.333-0.5,0.733-0.5,1.2
				C269,139.767,269.167,140.167,269.5,140.5 M255.85,141.15h4.199v12h3.301v-12h4.199v-2.7H255.85V141.15 M295.3,143.9
				c-1,1.033-1.5,2.417-1.5,4.15c0,1.7,0.467,3.017,1.4,3.95s2.25,1.4,3.95,1.4c1.533,0,2.783-0.25,3.75-0.75v-2.35
				c-0.867,0.534-1.867,0.8-3,0.8c-1.833,0-2.8-0.767-2.9-2.3h6.851v-1.35c0-1.567-0.417-2.8-1.25-3.7
				c-0.834-0.9-2.017-1.35-3.551-1.35C297.55,142.4,296.3,142.9,295.3,143.9 M299,144.6c1.233,0,1.851,0.75,1.851,2.25H297
				c0.067-0.667,0.283-1.217,0.65-1.65C298.05,144.8,298.5,144.6,299,144.6 M286.95,144.9c1.1,0,1.65,0.75,1.65,2.25v6h3.25v-6.55
				c0-2.8-1.15-4.2-3.45-4.2c-1.533,0-2.7,0.65-3.5,1.95c-0.566-1.3-1.583-1.95-3.05-1.95c-0.733,0-1.4,0.184-2,0.55
				c-0.601,0.333-1.067,0.783-1.4,1.35h-0.05v-1.65h-3.25v10.5h3.25v-5.85c0-0.733,0.167-1.316,0.5-1.75
				c0.333-0.433,0.783-0.65,1.35-0.65c1.101,0,1.65,0.733,1.65,2.2v6.05h3.2v-5.9c0-0.667,0.166-1.233,0.5-1.7
				C285.967,145.117,286.417,144.9,286.95,144.9 M197.25,145.7c1.134-0.733,2.334-1.1,3.601-1.1c1.233,0,1.85,0.566,1.85,1.7
				l-2.85,0.4c-2.4,0.3-3.601,1.483-3.601,3.55c0,0.933,0.283,1.7,0.851,2.3c0.6,0.567,1.399,0.85,2.399,0.85
				c1.4,0,2.45-0.583,3.15-1.75h0.05v1.5h3.05v-6.3c0-2.967-1.5-4.45-4.5-4.45c-0.633,0-1.333,0.083-2.1,0.25
				c-0.8,0.2-1.434,0.417-1.9,0.65V145.7 M200.65,151.1c-0.434,0-0.783-0.117-1.05-0.35s-0.4-0.533-0.4-0.9
				c0-0.8,0.533-1.283,1.6-1.45l1.9-0.2v0.7c0,0.633-0.184,1.167-0.55,1.6C201.75,150.9,201.25,151.1,200.65,151.1 M187.9,145.05
				h1.7v4.8c0,2.367,1.149,3.55,3.449,3.55c0.967,0,1.684-0.117,2.15-0.35v-2.4c-0.366,0.167-0.717,0.25-1.05,0.25
				c-0.867,0-1.3-0.533-1.3-1.6v-4.25h2.35v-2.4h-2.35v-3.2l-3.25,0.95v2.25h-1.7V145.05 M241.35,142.65h-3.25V158h3.25v-6.05h0.05
				c0.667,0.966,1.633,1.45,2.899,1.45c1.434,0,2.584-0.533,3.45-1.6c0.867-1.033,1.3-2.433,1.3-4.2c0-1.6-0.366-2.867-1.1-3.8
				c-0.767-0.933-1.833-1.4-3.2-1.4c-1.433,0-2.55,0.617-3.35,1.85h-0.05V142.65 M241.3,148.45v-0.85c0-0.8,0.217-1.45,0.65-1.95
				c0.4-0.5,0.934-0.75,1.6-0.75c1.434,0,2.15,0.917,2.15,2.75c0,1.033-0.2,1.833-0.6,2.4c-0.4,0.567-0.967,0.85-1.7,0.85
				c-0.634,0-1.134-0.217-1.5-0.65C241.5,149.783,241.3,149.183,241.3,148.45 M228.5,142.65h-3.25V149c0,2.933,1.217,4.4,3.65,4.4
				c1.333,0,2.399-0.617,3.2-1.85h0.05v1.6h3.25v-10.5h-3.25v6c0,0.7-0.167,1.25-0.5,1.65c-0.367,0.4-0.833,0.6-1.4,0.6
				c-1.166,0-1.75-0.733-1.75-2.2V142.65 M221.25,139.45L218,140.4v2.25h-1.7v2.4h1.7v4.8c0,2.367,1.15,3.55,3.45,3.55
				c0.967,0,1.684-0.117,2.15-0.35v-2.4c-0.367,0.167-0.717,0.25-1.051,0.25c-0.866,0-1.3-0.533-1.3-1.6v-4.25h2.351v-2.4h-2.351
				V139.45 M211.55,148.15c0-0.9,0.2-1.6,0.601-2.1c0.399-0.533,0.95-0.8,1.649-0.8c0.534,0,0.983,0.1,1.351,0.3v-2.95
				c-0.167-0.1-0.434-0.15-0.8-0.15c-1.334,0-2.25,0.716-2.75,2.15h-0.051v-1.95h-3.25v10.5h3.25V148.15 M180.7,142.3
				c0-0.233,0.05-0.433,0.15-0.6c0.133-0.2,0.3-0.367,0.5-0.5c0.199-0.133,0.467-0.233,0.8-0.3c0.3-0.066,0.633-0.1,1-0.1
				c0.267,0,0.55,0.017,0.85,0.05c0.3,0.066,0.617,0.133,0.95,0.2c0.3,0.1,0.6,0.217,0.9,0.35c0.267,0.1,0.533,0.25,0.8,0.45v-3.1
				c-0.5-0.167-1.05-0.3-1.65-0.4c-0.6-0.1-1.283-0.15-2.05-0.15s-1.5,0.083-2.2,0.25c-0.7,0.167-1.316,0.433-1.85,0.8
				c-0.533,0.333-0.95,0.783-1.25,1.35c-0.3,0.533-0.45,1.183-0.45,1.95c0,1,0.283,1.833,0.85,2.5c0.567,0.7,1.417,1.284,2.551,1.75
				c0.467,0.2,0.883,0.383,1.25,0.55c0.399,0.2,0.75,0.383,1.05,0.55c0.267,0.2,0.483,0.417,0.649,0.65
				c0.167,0.233,0.25,0.483,0.25,0.75c0,0.233-0.05,0.434-0.149,0.6c-0.101,0.2-0.25,0.367-0.45,0.5c-0.233,0.133-0.5,0.233-0.8,0.3
				c-0.3,0.066-0.667,0.1-1.101,0.1c-0.699,0-1.399-0.117-2.1-0.35c-0.7-0.267-1.35-0.65-1.95-1.15v3.3
				c0.533,0.267,1.167,0.467,1.9,0.6s1.5,0.2,2.3,0.2s1.55-0.066,2.25-0.2c0.7-0.167,1.316-0.417,1.85-0.75
				c0.534-0.367,0.95-0.817,1.25-1.35c0.334-0.567,0.5-1.267,0.5-2.1c0-0.567-0.1-1.083-0.3-1.55c-0.166-0.434-0.416-0.833-0.75-1.2
				c-0.333-0.333-0.733-0.633-1.2-0.9c-0.466-0.3-1-0.567-1.6-0.8c-0.434-0.2-0.816-0.383-1.15-0.55
				c-0.333-0.167-0.616-0.333-0.85-0.5c-0.267-0.167-0.467-0.35-0.6-0.55C180.75,142.75,180.7,142.533,180.7,142.3 M155.5,267.1
				V279.4h128.7v33.75h2.3V279.4V267.1H155.5 M115,267.1h-6.5V279.4h4.2v33.75h2.3V279.4V267.1z"/>
			<path fill="#69199F" d="M171.8,318.75v0.6h3.95c-0.333,0.601-0.649,1.2-0.95,1.801c-0.333,0.6-0.616,1.199-0.85,1.8
				c-0.233,0.6-0.434,1.2-0.6,1.8c-0.2,0.566-0.334,1.134-0.4,1.7h0.7c0.066-0.4,0.149-0.8,0.25-1.2c0.1-0.4,0.2-0.783,0.3-1.15
				c0.134-0.399,0.283-0.783,0.45-1.149c0.167-0.4,0.333-0.8,0.5-1.2c0.2-0.434,0.417-0.866,0.649-1.3
				c0.233-0.434,0.5-0.9,0.801-1.4v-0.3H171.8 M166.5,319.35v0.75c0.267-0.267,0.567-0.483,0.9-0.649c0.3-0.167,0.633-0.25,1-0.25
				c0.2,0,0.399,0.033,0.6,0.1s0.367,0.167,0.5,0.3c0.134,0.134,0.233,0.301,0.3,0.5c0.067,0.167,0.101,0.367,0.101,0.601
				c0,0.267-0.033,0.5-0.101,0.7c-0.066,0.233-0.166,0.433-0.3,0.6c-0.133,0.2-0.3,0.384-0.5,0.55c-0.2,0.167-0.433,0.351-0.7,0.55
				c-0.366,0.267-0.683,0.5-0.949,0.7c-0.267,0.233-0.483,0.467-0.65,0.7c-0.167,0.2-0.3,0.434-0.4,0.7
				c-0.066,0.233-0.1,0.533-0.1,0.899v0.351h4.55v-0.601h-3.85c0-0.066,0.017-0.133,0.05-0.199c0-0.034,0-0.084,0-0.15
				c0.033-0.167,0.083-0.333,0.15-0.5c0.066-0.167,0.183-0.316,0.35-0.45c0.134-0.166,0.316-0.333,0.55-0.5
				c0.2-0.166,0.467-0.366,0.8-0.6c0.268-0.2,0.518-0.384,0.75-0.55c0.2-0.2,0.384-0.417,0.551-0.65
				c0.166-0.233,0.283-0.467,0.35-0.7c0.1-0.267,0.15-0.566,0.15-0.899c0-0.301-0.033-0.551-0.101-0.75
				c-0.1-0.233-0.233-0.45-0.399-0.65c-0.134-0.167-0.317-0.3-0.551-0.4c-0.199-0.1-0.433-0.166-0.699-0.199c-0.067,0-0.134,0-0.2,0
				c-0.033-0.034-0.083-0.051-0.15-0.051c-0.433,0-0.8,0.067-1.1,0.2C167.067,318.934,166.766,319.116,166.5,319.35 M258.4,313.75
				v-0.5c0-0.866-0.2-1.533-0.601-2c-0.399-0.5-0.982-0.75-1.75-0.75c-0.732,0-1.366,0.283-1.899,0.85
				c-0.5,0.534-0.75,1.217-0.75,2.051c0,0.933,0.233,1.649,0.7,2.149s1.1,0.75,1.899,0.75c0.834,0,1.5-0.166,2-0.5v-1
				c-0.5,0.367-1.05,0.55-1.649,0.55c-0.5,0-0.9-0.149-1.2-0.449c-0.3-0.267-0.467-0.65-0.5-1.15H258.4 M256.05,311.45
				c0.367,0,0.65,0.116,0.851,0.35c0.2,0.267,0.3,0.617,0.3,1.05h-2.55c0.066-0.433,0.233-0.767,0.5-1
				C255.384,311.583,255.683,311.45,256.05,311.45 M164.1,326.4c0.1,0.1,0.217,0.149,0.35,0.149c0.066,0,0.134-0.017,0.2-0.05
				c0.066,0,0.116-0.033,0.149-0.1c0.067-0.034,0.117-0.084,0.15-0.15c0-0.066,0-0.134,0-0.2s0-0.133,0-0.2
				c-0.033-0.066-0.083-0.133-0.15-0.199c-0.033-0.034-0.083-0.067-0.149-0.101s-0.134-0.05-0.2-0.05c-0.133,0-0.25,0.05-0.35,0.15
				c-0.101,0.1-0.15,0.233-0.15,0.399C163.95,326.184,164,326.3,164.1,326.4 M164.45,320.85c-0.133,0-0.25,0.051-0.35,0.15
				c-0.101,0.1-0.15,0.217-0.15,0.35c0,0.067,0.017,0.134,0.05,0.2c0,0.066,0.033,0.117,0.101,0.15
				c0.033,0.066,0.083,0.116,0.149,0.149c0.067,0,0.134,0,0.2,0s0.134,0,0.2,0c0.066-0.033,0.116-0.083,0.149-0.149
				c0.067-0.033,0.117-0.084,0.15-0.15c0-0.066,0-0.133,0-0.2c0-0.066,0-0.133,0-0.199c-0.033-0.067-0.083-0.117-0.15-0.15
				c-0.033-0.066-0.083-0.1-0.149-0.1C164.584,320.866,164.516,320.85,164.45,320.85 M160.5,318.6c-0.833,0-1.45,0.351-1.85,1.051
				c-0.434,0.699-0.65,1.733-0.65,3.1c0,0.634,0.05,1.184,0.15,1.65c0.1,0.466,0.25,0.866,0.45,1.199
				c0.199,0.334,0.449,0.584,0.75,0.75c0.267,0.167,0.6,0.25,1,0.25c0.366,0,0.717-0.1,1.05-0.3c0.3-0.166,0.55-0.416,0.75-0.75
				c0.233-0.333,0.399-0.75,0.5-1.25c0.1-0.5,0.149-1.083,0.149-1.75C162.8,319.917,162.033,318.6,160.5,318.6 M159.15,320.1
				c0.3-0.6,0.733-0.899,1.3-0.899c1.1,0,1.65,1.149,1.65,3.45c0,0.533-0.033,1.017-0.101,1.449c-0.066,0.4-0.183,0.75-0.35,1.051
				c-0.134,0.267-0.3,0.466-0.5,0.6c-0.233,0.167-0.483,0.25-0.75,0.25c-0.566,0-1-0.283-1.3-0.85c-0.267-0.567-0.4-1.384-0.4-2.45
				C158.7,321.533,158.85,320.667,159.15,320.1 M247.85,311.3c-0.5-0.533-1.167-0.8-2-0.8c-0.9,0-1.617,0.267-2.15,0.8
				s-0.8,1.25-0.8,2.15c0,0.866,0.25,1.55,0.75,2.05c0.533,0.533,1.217,0.8,2.05,0.8c0.867,0,1.566-0.267,2.1-0.8
				c0.5-0.533,0.75-1.233,0.75-2.1C248.55,312.5,248.317,311.8,247.85,311.3 M245.75,311.5c0.5,0,0.884,0.167,1.15,0.5
				s0.399,0.8,0.399,1.4c0,0.6-0.133,1.066-0.399,1.399c-0.267,0.334-0.65,0.5-1.15,0.5c-0.467,0-0.85-0.166-1.149-0.5
				c-0.267-0.333-0.4-0.783-0.4-1.35c0-0.601,0.134-1.066,0.4-1.4C244.9,311.684,245.283,311.5,245.75,311.5 M253,311.85v-1.199
				c-0.133-0.067-0.3-0.101-0.5-0.101c-0.333,0-0.616,0.117-0.85,0.351c-0.267,0.199-0.45,0.5-0.55,0.899h-0.051v-1.149h-1.25v5.5
				h1.25v-2.65c0-0.566,0.134-1.017,0.4-1.35c0.233-0.334,0.533-0.5,0.9-0.5C252.65,311.65,252.867,311.717,253,311.85
				 M216.8,311.65v-1h-1.3V309l-1.25,0.4v1.25h-0.899v1h0.899v3.1c0,1,0.533,1.5,1.601,1.5c0.399,0,0.717-0.05,0.949-0.15v-1
				c-0.133,0.134-0.316,0.2-0.55,0.2c-0.267,0-0.467-0.066-0.6-0.2c-0.101-0.166-0.15-0.399-0.15-0.699v-2.75H216.8 M220.1,310.5
				c-0.733,0-1.367,0.283-1.9,0.85c-0.5,0.534-0.75,1.217-0.75,2.051c0,0.933,0.233,1.649,0.7,2.149s1.1,0.75,1.899,0.75
				c0.834,0,1.5-0.166,2-0.5v-1c-0.5,0.367-1.05,0.55-1.649,0.55c-0.5,0-0.9-0.149-1.2-0.449c-0.3-0.267-0.467-0.65-0.5-1.15h3.75
				v-0.5c0-0.866-0.2-1.533-0.6-2C221.45,310.75,220.867,310.5,220.1,310.5 M219.2,311.85c0.233-0.267,0.533-0.399,0.9-0.399
				c0.366,0,0.649,0.116,0.85,0.35c0.2,0.267,0.3,0.617,0.3,1.05h-2.55C218.766,312.417,218.933,312.083,219.2,311.85
				 M204.15,310.65H202.8l2.15,5.5l-0.35,0.899c-0.233,0.467-0.584,0.7-1.051,0.7c-0.166,0-0.35-0.033-0.55-0.1v1
				c0.2,0.066,0.417,0.1,0.65,0.1c0.934,0,1.667-0.566,2.2-1.7l2.5-6.399h-1.301l-1.35,4c-0.066,0.166-0.1,0.3-0.1,0.399h-0.051
				c-0.033-0.233-0.066-0.366-0.1-0.399L204.15,310.65 M211.05,310.5c-0.267,0-0.533,0.05-0.8,0.15
				c-0.267,0.066-0.517,0.166-0.75,0.3c-0.2,0.133-0.366,0.3-0.5,0.5c-0.133,0.2-0.2,0.434-0.2,0.7c0,0.199,0.034,0.383,0.101,0.55
				c0.066,0.166,0.167,0.316,0.3,0.45c0.1,0.133,0.25,0.25,0.45,0.35c0.167,0.1,0.366,0.184,0.6,0.25
				c0.167,0.066,0.334,0.134,0.5,0.2c0.134,0.066,0.267,0.133,0.4,0.2c0.1,0.066,0.184,0.133,0.25,0.199
				c0.066,0.101,0.1,0.217,0.1,0.351c0,0.434-0.383,0.649-1.149,0.649c-0.567,0-1.084-0.183-1.551-0.55v1.2
				c0.467,0.2,1,0.3,1.601,0.3c0.3,0,0.583-0.033,0.85-0.1c0.3-0.066,0.55-0.167,0.75-0.3c0.233-0.167,0.417-0.351,0.55-0.551
				c0.101-0.199,0.15-0.433,0.15-0.699c0-0.233-0.033-0.434-0.1-0.601c-0.067-0.166-0.167-0.316-0.301-0.45
				c-0.133-0.133-0.283-0.25-0.449-0.35c-0.2-0.1-0.417-0.2-0.65-0.3c-0.2-0.066-0.366-0.117-0.5-0.15
				c-0.133-0.066-0.25-0.133-0.35-0.2c-0.101-0.066-0.167-0.133-0.2-0.199c-0.066-0.067-0.101-0.167-0.101-0.301
				c0-0.1,0.034-0.183,0.101-0.25c0.033-0.1,0.1-0.166,0.2-0.199c0.1-0.067,0.217-0.117,0.35-0.15c0.1-0.033,0.233-0.05,0.4-0.05
				c0.5,0,0.949,0.133,1.35,0.399v-1.1C212.05,310.583,211.584,310.5,211.05,310.5 M228.4,313.15c0-0.434,0.116-0.817,0.35-1.15
				s0.5-0.5,0.8-0.5c0.4,0,0.684,0.134,0.851,0.4s0.25,0.683,0.25,1.25v3h1.25v-3.4c0-1.5-0.617-2.25-1.851-2.25
				c-0.8,0-1.399,0.384-1.8,1.15c-0.1-0.334-0.3-0.601-0.6-0.801c-0.267-0.233-0.601-0.35-1-0.35c-0.767,0-1.333,0.333-1.7,1h-0.05
				v-0.85h-1.25v5.5h1.25v-3c0-0.467,0.116-0.851,0.35-1.15c0.2-0.333,0.467-0.5,0.8-0.5c0.733,0,1.101,0.517,1.101,1.55v3.101h1.25
				V313.15 M241.9,308.65c-0.467-0.233-1.083-0.351-1.851-0.351c-1.133,0-2.083,0.384-2.85,1.15s-1.15,1.767-1.15,3
				c0,1.133,0.334,2.05,1,2.75c0.7,0.733,1.601,1.1,2.7,1.1c0.867,0,1.584-0.149,2.15-0.45v-1.199c-0.533,0.333-1.15,0.5-1.851,0.5
				c-0.8,0-1.449-0.25-1.949-0.75c-0.467-0.5-0.7-1.167-0.7-2c0-0.9,0.267-1.617,0.8-2.15c0.5-0.533,1.167-0.8,2-0.8
				c0.634,0,1.2,0.149,1.7,0.45V308.65 M202.25,308.6c-0.366-0.199-0.95-0.3-1.75-0.3c-0.366,0-0.717,0.05-1.05,0.15
				c-0.333,0.066-0.633,0.2-0.9,0.399c-0.267,0.167-0.482,0.384-0.649,0.65s-0.25,0.583-0.25,0.95c0,0.3,0.05,0.55,0.149,0.75
				c0.101,0.233,0.233,0.434,0.4,0.6c0.167,0.167,0.35,0.316,0.55,0.45c0.233,0.167,0.483,0.316,0.75,0.45
				c0.233,0.1,0.467,0.2,0.7,0.3c0.2,0.1,0.384,0.217,0.55,0.35c0.134,0.101,0.25,0.217,0.351,0.351
				c0.1,0.133,0.149,0.283,0.149,0.45c0,0.366-0.133,0.633-0.399,0.8c-0.267,0.166-0.667,0.25-1.2,0.25
				c-0.167,0-0.333-0.017-0.5-0.05c-0.2-0.034-0.384-0.067-0.55-0.101c-0.2-0.066-0.384-0.149-0.551-0.25
				c-0.166-0.066-0.3-0.149-0.399-0.25v1.3c0.1,0.067,0.233,0.134,0.399,0.2c0.2,0.033,0.4,0.066,0.601,0.101
				c0.167,0.033,0.35,0.066,0.55,0.1s0.367,0.05,0.5,0.05c0.367,0,0.733-0.05,1.1-0.149c0.334-0.067,0.634-0.184,0.9-0.351
				c0.267-0.166,0.483-0.383,0.65-0.649c0.166-0.267,0.25-0.601,0.25-1c0-0.301-0.067-0.551-0.2-0.75
				c-0.101-0.233-0.233-0.45-0.4-0.65c-0.2-0.167-0.416-0.333-0.649-0.5s-0.483-0.316-0.75-0.45c-0.267-0.1-0.5-0.2-0.7-0.3
				s-0.367-0.2-0.5-0.3c-0.134-0.101-0.233-0.217-0.3-0.351c-0.067-0.133-0.101-0.283-0.101-0.449c0-0.2,0.033-0.351,0.101-0.45
				c0.1-0.134,0.233-0.25,0.399-0.351c0.134-0.066,0.3-0.116,0.5-0.149c0.167-0.033,0.351-0.05,0.55-0.05
				c0.7,0,1.268,0.149,1.7,0.449V308.6 M187.65,311.85v-1.199c-0.134-0.067-0.3-0.101-0.5-0.101c-0.333,0-0.617,0.117-0.851,0.351
				c-0.267,0.199-0.449,0.5-0.55,0.899h-0.05v-1.149h-1.25v5.5h1.25v-2.65c0-0.566,0.134-1.017,0.4-1.35
				c0.233-0.334,0.533-0.5,0.899-0.5C187.3,311.65,187.516,311.717,187.65,311.85 M191.85,310.75c-0.4-0.167-0.867-0.25-1.4-0.25
				c-0.267,0-0.533,0.05-0.8,0.15c-0.267,0.066-0.517,0.166-0.75,0.3c-0.2,0.133-0.367,0.3-0.5,0.5c-0.134,0.2-0.2,0.434-0.2,0.7
				c0,0.199,0.033,0.383,0.1,0.55c0.067,0.166,0.167,0.316,0.301,0.45c0.1,0.133,0.25,0.25,0.449,0.35
				c0.167,0.1,0.367,0.184,0.601,0.25c0.167,0.066,0.333,0.134,0.5,0.2c0.133,0.066,0.267,0.133,0.399,0.2
				c0.101,0.066,0.184,0.133,0.25,0.199c0.067,0.101,0.101,0.217,0.101,0.351c0,0.434-0.384,0.649-1.15,0.649
				c-0.566,0-1.083-0.183-1.55-0.55v1.2c0.467,0.2,1,0.3,1.6,0.3c0.301,0,0.584-0.033,0.851-0.1c0.3-0.066,0.55-0.167,0.75-0.3
				c0.233-0.167,0.417-0.351,0.55-0.551c0.1-0.199,0.15-0.433,0.15-0.699c0-0.233-0.033-0.434-0.101-0.601
				c-0.066-0.166-0.166-0.316-0.3-0.45c-0.133-0.133-0.283-0.25-0.45-0.35c-0.2-0.1-0.416-0.2-0.649-0.3
				c-0.2-0.066-0.367-0.117-0.5-0.15c-0.134-0.066-0.25-0.133-0.351-0.2c-0.1-0.066-0.166-0.133-0.2-0.199
				c-0.066-0.067-0.1-0.167-0.1-0.301c0-0.1,0.033-0.183,0.1-0.25c0.034-0.1,0.101-0.166,0.2-0.199
				c0.101-0.067,0.217-0.117,0.351-0.15c0.1-0.033,0.233-0.05,0.399-0.05c0.5,0,0.95,0.133,1.351,0.399V310.75 M197.15,308.45H196
				l-3.7,9h1.15L197.15,308.45 M176.55,310.65l-1.3,3.85c-0.066,0.233-0.116,0.483-0.149,0.75c-0.033-0.233-0.101-0.483-0.2-0.75
				l-1.2-3.85h-1.35l2,5.5h1.35l2.15-5.5H176.55 M167.5,311.8h-0.05v-1.149h-1.25v5.5h1.25v-2.65c0-0.566,0.134-1.017,0.4-1.35
				c0.233-0.334,0.533-0.5,0.899-0.5c0.3,0,0.517,0.066,0.65,0.199v-1.199c-0.134-0.067-0.3-0.101-0.5-0.101
				c-0.333,0-0.617,0.117-0.851,0.351C167.783,311.1,167.6,311.4,167.5,311.8 M171.5,310.65h-1.25v5.5h1.25V310.65 M170.15,308.8
				c0,0.2,0.066,0.367,0.2,0.5c0.166,0.134,0.35,0.2,0.55,0.2s0.383-0.066,0.55-0.2c0.134-0.133,0.2-0.3,0.2-0.5
				s-0.066-0.366-0.2-0.5c-0.167-0.133-0.35-0.2-0.55-0.2s-0.384,0.067-0.55,0.2C170.217,308.434,170.15,308.6,170.15,308.8
				 M183.25,313.75v-0.5c0-0.866-0.2-1.533-0.6-2c-0.4-0.5-0.983-0.75-1.75-0.75c-0.733,0-1.367,0.283-1.9,0.85
				c-0.5,0.534-0.75,1.217-0.75,2.051c0,0.933,0.233,1.649,0.7,2.149s1.1,0.75,1.9,0.75c0.833,0,1.5-0.166,2-0.5v-1
				c-0.5,0.367-1.051,0.55-1.65,0.55c-0.5,0-0.9-0.149-1.2-0.449c-0.3-0.267-0.467-0.65-0.5-1.15H183.25 M180.9,311.45
				c0.366,0,0.649,0.116,0.85,0.35c0.2,0.267,0.3,0.617,0.3,1.05h-2.55c0.067-0.433,0.233-0.767,0.5-1
				C180.233,311.583,180.533,311.45,180.9,311.45 M160.65,308.45h-2.2v7.7h2.15c1.3,0,2.35-0.367,3.149-1.101
				c0.8-0.7,1.2-1.649,1.2-2.85C164.95,309.7,163.516,308.45,160.65,308.45 M159.7,315.05v-5.5h1.1c1.867,0,2.801,0.9,2.801,2.7
				c0,0.9-0.25,1.6-0.75,2.1c-0.5,0.467-1.2,0.7-2.101,0.7H159.7 M401.9,269.1h-1.4l-2.899,7.7H399l0.65-1.95h3.05l0.7,1.95h1.4
				L401.9,269.1 M401.15,270.25c0.066,0.2,0.117,0.367,0.15,0.5l1.05,3.05H400l1.051-3.05
				C401.084,270.617,401.117,270.45,401.15,270.25 M448.301,271.3h-1.25v8.05h1.25V276h0.05c0.366,0.6,0.899,0.9,1.6,0.9
				c0.767,0,1.367-0.268,1.8-0.801c0.434-0.566,0.65-1.3,0.65-2.199c0-0.834-0.184-1.5-0.55-2c-0.4-0.5-0.95-0.75-1.65-0.75
				c-0.833,0-1.45,0.366-1.85,1.1h-0.05V271.3 M450.75,272.65c0.268,0.3,0.4,0.717,0.4,1.25c0,0.633-0.133,1.133-0.4,1.5
				c-0.267,0.366-0.633,0.55-1.1,0.55c-0.4,0-0.717-0.15-0.95-0.45c-0.267-0.267-0.399-0.6-0.399-1v-0.7
				c0-0.466,0.133-0.85,0.399-1.149c0.267-0.334,0.617-0.5,1.05-0.5C450.183,272.15,450.517,272.316,450.75,272.65 M424.4,271.9
				c-0.4-0.5-0.983-0.75-1.75-0.75c-0.733,0-1.366,0.283-1.9,0.85c-0.5,0.533-0.75,1.217-0.75,2.05c0,0.934,0.233,1.65,0.7,2.15
				s1.101,0.75,1.9,0.75c0.833,0,1.5-0.167,2-0.5v-1c-0.5,0.366-1.05,0.55-1.65,0.55c-0.5,0-0.899-0.15-1.2-0.45
				c-0.3-0.267-0.466-0.649-0.5-1.149H425v-0.5C425,273.033,424.801,272.367,424.4,271.9 M423.5,272.45
				c0.2,0.267,0.301,0.616,0.301,1.05h-2.551c0.067-0.434,0.233-0.767,0.5-1c0.233-0.267,0.534-0.4,0.9-0.4
				C423.017,272.1,423.301,272.217,423.5,272.45 M414.801,269.1h-2.2v7.7h2.149c1.301,0,2.351-0.366,3.15-1.1
				c0.8-0.7,1.2-1.65,1.2-2.851C419.1,270.35,417.667,269.1,414.801,269.1 M413.85,270.2h1.1c1.867,0,2.8,0.899,2.8,2.7
				c0,0.899-0.25,1.6-0.75,2.1c-0.5,0.467-1.199,0.7-2.1,0.7h-1.05V270.2 M408.4,271.3h-1.3v-1.649l-1.25,0.399v1.25h-0.9v1h0.9
				v3.101c0,1,0.533,1.5,1.6,1.5c0.4,0,0.717-0.051,0.95-0.15v-1c-0.133,0.133-0.316,0.2-0.55,0.2c-0.267,0-0.467-0.067-0.601-0.2
				c-0.1-0.166-0.149-0.4-0.149-0.7v-2.75h1.3V271.3 M443.1,271.15c-0.9,0-1.617,0.266-2.15,0.8c-0.533,0.533-0.8,1.25-0.8,2.149
				c0,0.867,0.25,1.551,0.75,2.051c0.533,0.533,1.217,0.8,2.05,0.8c0.867,0,1.567-0.267,2.101-0.8c0.5-0.533,0.75-1.234,0.75-2.101
				c0-0.899-0.233-1.6-0.7-2.1C444.6,271.416,443.933,271.15,443.1,271.15 M441.85,275.45c-0.267-0.333-0.4-0.784-0.4-1.351
				c0-0.6,0.134-1.066,0.4-1.399c0.3-0.366,0.684-0.55,1.149-0.55c0.5,0,0.884,0.166,1.15,0.5c0.267,0.333,0.4,0.8,0.4,1.399
				c0,0.601-0.134,1.067-0.4,1.4s-0.65,0.5-1.15,0.5C442.534,275.95,442.15,275.783,441.85,275.45 M436.95,271.3h-0.899v1h0.899
				v3.101c0,1,0.533,1.5,1.601,1.5c0.399,0,0.717-0.051,0.949-0.15v-1c-0.133,0.133-0.316,0.2-0.55,0.2
				c-0.267,0-0.467-0.067-0.6-0.2c-0.101-0.166-0.15-0.4-0.15-0.7v-2.75h1.3v-1h-1.3v-1.649l-1.25,0.399V271.3 M426.551,271.6
				c-0.2,0.134-0.367,0.301-0.5,0.5c-0.134,0.2-0.2,0.434-0.2,0.7c0,0.2,0.033,0.384,0.1,0.55c0.067,0.167,0.167,0.316,0.3,0.45
				c0.101,0.134,0.25,0.25,0.45,0.351c0.167,0.1,0.367,0.184,0.601,0.25c0.166,0.066,0.333,0.133,0.5,0.199
				c0.133,0.066,0.267,0.134,0.399,0.2c0.101,0.067,0.184,0.134,0.25,0.2c0.067,0.1,0.101,0.217,0.101,0.35
				c0,0.434-0.384,0.65-1.15,0.65c-0.566,0-1.083-0.184-1.55-0.55v1.2c0.467,0.199,1,0.3,1.6,0.3c0.3,0,0.584-0.034,0.851-0.101
				c0.3-0.066,0.55-0.166,0.75-0.3c0.233-0.167,0.416-0.35,0.55-0.55c0.1-0.2,0.149-0.434,0.149-0.7c0-0.233-0.033-0.433-0.1-0.6
				s-0.167-0.317-0.3-0.45c-0.134-0.133-0.283-0.25-0.45-0.35c-0.2-0.101-0.417-0.2-0.65-0.301c-0.199-0.066-0.366-0.116-0.5-0.149
				c-0.133-0.067-0.25-0.134-0.35-0.2s-0.167-0.133-0.2-0.2c-0.066-0.066-0.1-0.167-0.1-0.3c0-0.1,0.033-0.184,0.1-0.25
				c0.033-0.1,0.101-0.166,0.2-0.2c0.1-0.066,0.217-0.116,0.35-0.149c0.101-0.033,0.233-0.051,0.4-0.051c0.5,0,0.95,0.134,1.35,0.4
				v-1.1c-0.399-0.167-0.866-0.25-1.399-0.25c-0.267,0-0.533,0.05-0.8,0.149C427.034,271.367,426.784,271.467,426.551,271.6
				 M432.2,268.65h-1.25v8.149h1.25v-2.649h0.05l2.101,2.649h1.6l-2.45-2.85l2.25-2.65h-1.5l-2,2.5h-0.05V268.65 M391.85,268.95
				c-0.834,0-1.45,0.35-1.851,1.05c-0.433,0.7-0.649,1.733-0.649,3.1c0,0.634,0.05,1.184,0.149,1.65
				c0.101,0.467,0.25,0.867,0.45,1.2s0.45,0.583,0.75,0.75c0.267,0.167,0.6,0.25,1,0.25c0.367,0,0.717-0.101,1.05-0.3
				c0.3-0.167,0.55-0.417,0.75-0.75c0.233-0.334,0.4-0.75,0.5-1.25c0.101-0.5,0.15-1.084,0.15-1.75
				C394.15,270.267,393.384,268.95,391.85,268.95 M390.5,270.45c0.3-0.601,0.733-0.9,1.3-0.9c1.101,0,1.65,1.15,1.65,3.45
				c0,0.533-0.033,1.017-0.1,1.45c-0.067,0.399-0.184,0.75-0.351,1.05c-0.133,0.267-0.3,0.467-0.5,0.6
				c-0.233,0.167-0.483,0.25-0.75,0.25c-0.566,0-1-0.283-1.3-0.85c-0.267-0.566-0.4-1.383-0.4-2.45
				C390.05,271.883,390.2,271.017,390.5,270.45 M387.1,270.95c0,0.5-0.167,0.884-0.5,1.149c-0.367,0.268-0.884,0.4-1.551,0.4h-0.55
				v0.6h0.601c0.733,0,1.3,0.134,1.699,0.4c0.367,0.3,0.551,0.717,0.551,1.25c0,0.267-0.051,0.5-0.15,0.7s-0.233,0.366-0.4,0.5
				c-0.199,0.134-0.399,0.233-0.6,0.3c-0.233,0.066-0.467,0.1-0.7,0.1c-0.6,0-1.183-0.199-1.75-0.6v0.75
				c0.5,0.3,1.067,0.45,1.7,0.45c0.367,0,0.7-0.05,1-0.15c0.333-0.1,0.617-0.25,0.85-0.45c0.233-0.199,0.417-0.434,0.551-0.699
				c0.133-0.301,0.199-0.634,0.199-1c0-0.268-0.05-0.518-0.149-0.75c-0.066-0.2-0.184-0.384-0.351-0.551
				c-0.166-0.166-0.366-0.3-0.6-0.399c-0.2-0.067-0.434-0.116-0.7-0.15v-0.05c1.033-0.267,1.55-0.916,1.55-1.95
				c0-0.3-0.05-0.566-0.149-0.8c-0.134-0.233-0.283-0.416-0.45-0.55c-0.2-0.167-0.434-0.284-0.7-0.351
				c-0.233-0.1-0.483-0.149-0.75-0.149c-0.6,0-1.166,0.149-1.7,0.45v0.699c0.5-0.366,1.018-0.55,1.551-0.55
				c0.5,0,0.866,0.134,1.1,0.4C386.967,270.184,387.1,270.517,387.1,270.95 M381.9,276.9c0.066,0,0.133-0.018,0.2-0.051
				c0.066,0,0.116-0.033,0.149-0.1c0.067-0.033,0.117-0.084,0.15-0.15c0-0.066,0-0.133,0-0.199s0-0.134,0-0.2
				c-0.033-0.067-0.083-0.134-0.15-0.2c-0.033-0.033-0.083-0.066-0.149-0.1c-0.067-0.033-0.134-0.051-0.2-0.051
				c-0.134,0-0.25,0.051-0.351,0.15c-0.1,0.1-0.149,0.233-0.149,0.4c0,0.133,0.05,0.25,0.149,0.35
				C381.65,276.85,381.766,276.9,381.9,276.9 M381.9,272.2c0.066,0,0.133,0,0.2,0c0.066-0.034,0.116-0.083,0.149-0.15
				c0.067-0.033,0.117-0.083,0.15-0.149c0-0.066,0-0.134,0-0.2c0-0.067,0-0.134,0-0.2c-0.033-0.066-0.083-0.117-0.15-0.15
				c-0.033-0.066-0.083-0.1-0.149-0.1c-0.067-0.033-0.134-0.05-0.2-0.05c-0.134,0-0.25,0.05-0.351,0.149
				c-0.1,0.101-0.149,0.217-0.149,0.351c0,0.066,0.017,0.134,0.05,0.2c0,0.066,0.033,0.116,0.1,0.149
				c0.034,0.067,0.084,0.116,0.15,0.15C381.766,272.2,381.834,272.2,381.9,272.2 M377.95,269c-0.033-0.033-0.083-0.05-0.15-0.05
				c-0.433,0-0.8,0.066-1.1,0.2c-0.333,0.133-0.633,0.316-0.9,0.55v0.75c0.268-0.267,0.567-0.483,0.9-0.65
				c0.3-0.167,0.634-0.25,1-0.25c0.2,0,0.4,0.034,0.6,0.101c0.2,0.066,0.367,0.166,0.5,0.3c0.134,0.134,0.233,0.3,0.301,0.5
				c0.066,0.167,0.1,0.366,0.1,0.6c0,0.267-0.033,0.5-0.1,0.7c-0.067,0.233-0.167,0.434-0.301,0.6c-0.133,0.2-0.3,0.384-0.5,0.551
				c-0.199,0.166-0.433,0.35-0.699,0.55c-0.367,0.267-0.684,0.5-0.95,0.7c-0.267,0.232-0.483,0.467-0.65,0.699
				c-0.166,0.2-0.3,0.434-0.399,0.7c-0.067,0.233-0.101,0.534-0.101,0.9v0.35h4.55v-0.6h-3.85c0-0.067,0.017-0.134,0.05-0.2
				c0-0.033,0-0.084,0-0.15c0.033-0.166,0.084-0.333,0.15-0.5c0.066-0.166,0.184-0.316,0.35-0.449c0.134-0.167,0.317-0.334,0.55-0.5
				c0.2-0.167,0.467-0.367,0.801-0.601c0.267-0.2,0.517-0.384,0.75-0.55c0.199-0.2,0.383-0.416,0.55-0.65
				c0.167-0.232,0.283-0.467,0.35-0.699c0.101-0.268,0.15-0.566,0.15-0.9c0-0.3-0.033-0.55-0.101-0.75
				c-0.1-0.233-0.232-0.45-0.399-0.65c-0.134-0.166-0.316-0.3-0.55-0.399c-0.2-0.101-0.434-0.167-0.7-0.2
				C378.084,269,378.016,269,377.95,269 M153.2,301.7v27.649h2.3V301.7H153.2 M115,267.1V279.4h38.2v11.25h2.3V279.4V267.1H115
				 M372.95,279.4V267.1H286.5V279.4H372.95z"/>
		</g>
	</g>
</g>
<g transform="matrix( 1, 0, 0, 1, 0,0) ">
	<g>
		<g id="Layer1_0_FILL">
			<path fill="#69199F" d="M152.75,225.5v12.3h22.5v-12.3H152.75 M134.2,195.2h-2.3v30.3H115v12.3h19.2v-12.3V195.2z"/>
			<path fill="#2D0B44" d="M152.75,225.5H134.2v12.3h16.25v22.65h2.3V237.8V225.5 M115,172.45h-2.3v53.05h-4.2v12.3h6.5v-12.3
				V172.45z"/>
		</g>
	</g>
</g>
<g transform="matrix( 1, 0, 0, 1, 0,0) ">
	<g>
		<g id="Layer0_0_FILL">
			<path fill="#2D0B44" d="M75.25,268.45h-1.7v3.3c-0.3-0.533-0.8-0.8-1.5-0.8c-0.767,0-1.366,0.283-1.8,0.85
				c-0.467,0.534-0.7,1.25-0.7,2.15c0,0.899,0.2,1.583,0.601,2.05c0.434,0.5,0.983,0.75,1.649,0.75c0.768,0,1.351-0.3,1.75-0.9v0.75
				h1.7V268.45 M73.6,273.5v0.45c0,0.433-0.117,0.783-0.351,1.05c-0.2,0.3-0.483,0.45-0.85,0.45c-0.367,0-0.65-0.134-0.851-0.4
				c-0.199-0.267-0.3-0.634-0.3-1.1c0-0.534,0.117-0.95,0.351-1.25c0.199-0.3,0.483-0.45,0.85-0.45c0.333,0,0.6,0.117,0.8,0.35
				C73.483,272.834,73.6,273.133,73.6,273.5 M67.25,272.1H67.2v-1h-1.7v5.5h1.7v-2.649c0-0.434,0.1-0.8,0.3-1.101
				c0.233-0.266,0.533-0.399,0.9-0.399c0.267,0,0.5,0.066,0.7,0.2v-1.601C69,271.017,68.867,271,68.7,271
				C68,271,67.516,271.367,67.25,272.1 M82.6,276.6c1.233,0,2.233-0.35,3-1.05c0.733-0.733,1.1-1.7,1.1-2.899
				c0-2.5-1.366-3.75-4.1-3.75h-2.7v7.699H82.6 M81.6,270.3h0.85c0.767,0,1.367,0.217,1.8,0.65c0.434,0.399,0.65,0.966,0.65,1.7
				c0,0.8-0.217,1.416-0.65,1.85c-0.433,0.467-1.017,0.7-1.75,0.7H81.6V270.3 M100.65,271.1H98.9l-1,3.4
				c-0.101,0.4-0.167,0.717-0.2,0.95c-0.033-0.267-0.1-0.583-0.2-0.95l-0.95-3.4H94.7l1.95,5.5h1.95L100.65,271.1 M93.95,271.1h-1.7
				v5.5h1.7V271.1 M93.1,268.5c-0.267,0-0.5,0.084-0.7,0.25c-0.167,0.133-0.25,0.334-0.25,0.6c0,0.234,0.083,0.45,0.25,0.65
				c0.2,0.166,0.434,0.25,0.7,0.25c0.3,0,0.55-0.084,0.75-0.25c0.166-0.166,0.25-0.383,0.25-0.65c0-0.266-0.084-0.467-0.25-0.6
				C93.65,268.584,93.4,268.5,93.1,268.5 M89.55,272.1H89.5v-1h-1.7v5.5h1.7v-2.649c0-0.434,0.101-0.8,0.3-1.101
				c0.233-0.266,0.534-0.399,0.9-0.399c0.267,0,0.5,0.066,0.7,0.2v-1.601C91.3,271.017,91.167,271,91,271
				C90.3,271,89.817,271.367,89.55,272.1 M103.7,270.95c-0.767,0-1.417,0.267-1.95,0.8s-0.8,1.267-0.8,2.2
				c0,0.866,0.233,1.55,0.7,2.05c0.5,0.5,1.2,0.75,2.1,0.75c0.8,0,1.45-0.133,1.95-0.4v-1.25c-0.434,0.301-0.95,0.45-1.55,0.45
				c-0.967,0-1.483-0.399-1.55-1.2h3.6v-0.75c0-0.8-0.217-1.434-0.65-1.899C105.117,271.2,104.5,270.95,103.7,270.95 M102.6,273.3
				c0.033-0.333,0.149-0.616,0.35-0.85s0.45-0.351,0.75-0.351c0.634,0,0.95,0.4,0.95,1.2H102.6 M58,268.9h-1.75v3.05h-3.2v-3.05
				H51.35v7.699h1.699v-3.149h3.2v3.149H58V268.9 M60.7,271.1c-0.4,0.101-0.717,0.217-0.95,0.351v1.25
				c0.601-0.4,1.217-0.601,1.851-0.601c0.666,0,1,0.301,1,0.9l-1.5,0.2c-1.267,0.167-1.9,0.783-1.9,1.85
				c0,0.534,0.15,0.95,0.45,1.25s0.717,0.45,1.25,0.45c0.733,0,1.283-0.316,1.649-0.95H62.6v0.8h1.6v-3.3
				c0-1.566-0.783-2.35-2.35-2.35C61.516,270.95,61.134,271,60.7,271.1 M60.75,274.85c0-0.399,0.283-0.649,0.851-0.75l1-0.1v0.35
				c0,0.334-0.101,0.617-0.301,0.851c-0.199,0.233-0.466,0.35-0.8,0.35c-0.233,0-0.416-0.066-0.55-0.2
				C60.817,275.217,60.75,275.05,60.75,274.85 M68.55,227.85l-1.699,0.45v1.2h-0.9v1.25h0.9v2.5c0,1.267,0.6,1.9,1.8,1.9
				c0.5,0,0.883-0.066,1.149-0.2v-1.25c-0.199,0.1-0.383,0.149-0.55,0.149c-0.467,0-0.7-0.283-0.7-0.85v-2.25h1.25v-1.25h-1.25
				V227.85 M75.65,232c0-0.8-0.217-1.434-0.65-1.9c-0.433-0.5-1.05-0.75-1.85-0.75c-0.767,0-1.417,0.268-1.95,0.801
				s-0.8,1.266-0.8,2.199c0,0.867,0.233,1.551,0.7,2.051c0.5,0.5,1.199,0.75,2.1,0.75c0.8,0,1.45-0.134,1.95-0.4v-1.25
				c-0.434,0.3-0.95,0.45-1.55,0.45c-0.967,0-1.483-0.4-1.551-1.2h3.601V232 M72.05,231.7c0.034-0.333,0.15-0.616,0.351-0.851
				c0.2-0.232,0.45-0.35,0.75-0.35c0.633,0,0.95,0.4,0.95,1.2H72.05 M60.7,229.85v1.25c0.6-0.399,1.217-0.6,1.85-0.6
				c0.667,0,1,0.3,1,0.9l-1.5,0.199c-1.267,0.167-1.899,0.783-1.899,1.851c0,0.533,0.149,0.95,0.45,1.25
				c0.3,0.3,0.717,0.45,1.25,0.45c0.733,0,1.283-0.316,1.649-0.95h0.05v0.8h1.601v-3.3c0-1.567-0.783-2.351-2.351-2.351
				c-0.333,0-0.716,0.051-1.149,0.15C61.25,229.6,60.933,229.717,60.7,229.85 M63.25,233.6c-0.2,0.234-0.467,0.351-0.8,0.351
				c-0.233,0-0.417-0.067-0.55-0.2c-0.134-0.133-0.2-0.3-0.2-0.5c0-0.4,0.283-0.65,0.85-0.75l1-0.1v0.35
				C63.55,233.084,63.45,233.367,63.25,233.6 M58.35,227.85l-1.7,0.45v1.2h-0.9v1.25h0.9v2.5c0,1.267,0.6,1.9,1.8,1.9
				c0.5,0,0.884-0.066,1.15-0.2v-1.25c-0.2,0.1-0.384,0.149-0.551,0.149c-0.466,0-0.699-0.283-0.699-0.85v-2.25h1.25v-1.25h-1.25
				V227.85 M106.2,232c0-0.8-0.217-1.434-0.65-1.9c-0.433-0.5-1.05-0.75-1.85-0.75c-0.767,0-1.417,0.268-1.95,0.801
				s-0.8,1.266-0.8,2.199c0,0.867,0.233,1.551,0.7,2.051c0.5,0.5,1.2,0.75,2.1,0.75c0.8,0,1.45-0.134,1.95-0.4v-1.25
				c-0.434,0.3-0.95,0.45-1.55,0.45c-0.967,0-1.483-0.4-1.55-1.2h3.6V232 M102.95,230.85c0.2-0.232,0.45-0.35,0.75-0.35
				c0.634,0,0.95,0.4,0.95,1.2h-2.05C102.634,231.367,102.75,231.084,102.95,230.85 M82.6,235c1.233,0,2.233-0.35,3-1.05
				c0.733-0.733,1.1-1.7,1.1-2.9c0-2.5-1.366-3.75-4.1-3.75h-2.7v7.7H82.6 M81.6,228.7h0.85c0.767,0,1.367,0.216,1.8,0.649
				c0.434,0.4,0.65,0.967,0.65,1.7c0,0.8-0.217,1.417-0.65,1.851c-0.433,0.467-1.017,0.699-1.75,0.699H81.6V228.7 M98.6,235
				l2.05-5.5H98.9l-1,3.4c-0.101,0.399-0.167,0.717-0.2,0.949c-0.033-0.266-0.1-0.583-0.2-0.949l-0.95-3.4H94.7l1.95,5.5H98.6
				 M92.25,235h1.7v-5.5h-1.7V235 M91.4,231.05v-1.6c-0.101-0.034-0.233-0.05-0.4-0.05c-0.7,0-1.183,0.366-1.45,1.1H89.5v-1h-1.7
				v5.5h1.7v-2.65c0-0.434,0.101-0.8,0.3-1.1c0.233-0.267,0.534-0.4,0.9-0.4C90.967,230.85,91.2,230.916,91.4,231.05 M92.4,228.4
				c0.2,0.166,0.434,0.25,0.7,0.25c0.3,0,0.55-0.084,0.75-0.25c0.166-0.167,0.25-0.384,0.25-0.65s-0.084-0.467-0.25-0.6
				c-0.2-0.167-0.45-0.25-0.75-0.25c-0.267,0-0.5,0.083-0.7,0.25c-0.167,0.133-0.25,0.333-0.25,0.6
				C92.15,227.983,92.233,228.2,92.4,228.4 M52,227.3c-0.366,0.101-0.683,0.233-0.95,0.4c-0.267,0.2-0.482,0.45-0.649,0.75
				c-0.167,0.267-0.25,0.6-0.25,1c0,0.533,0.149,0.966,0.45,1.3c0.3,0.367,0.75,0.684,1.35,0.95c0.233,0.1,0.45,0.183,0.65,0.25
				c0.199,0.1,0.383,0.2,0.55,0.3c0.133,0.1,0.233,0.217,0.3,0.35c0.1,0.101,0.15,0.234,0.15,0.4c0,0.1-0.033,0.2-0.101,0.3
				c-0.033,0.101-0.1,0.184-0.2,0.25c-0.133,0.067-0.283,0.116-0.449,0.15c-0.134,0.033-0.317,0.05-0.551,0.05
				c-0.366,0-0.732-0.05-1.1-0.15c-0.366-0.133-0.7-0.333-1-0.6v1.7c0.267,0.134,0.583,0.25,0.95,0.35
				c0.399,0.067,0.8,0.101,1.2,0.101c0.433,0,0.833-0.051,1.199-0.15c0.367-0.066,0.684-0.184,0.95-0.35
				c0.3-0.2,0.533-0.45,0.7-0.75c0.167-0.268,0.25-0.617,0.25-1.051c0-0.333-0.05-0.616-0.15-0.85c-0.1-0.233-0.232-0.434-0.399-0.6
				c-0.2-0.2-0.417-0.367-0.65-0.5c-0.233-0.134-0.5-0.268-0.8-0.4c-0.233-0.1-0.45-0.2-0.65-0.3
				c-0.166-0.067-0.316-0.15-0.449-0.25c-0.134-0.101-0.233-0.2-0.301-0.3c-0.066-0.101-0.1-0.217-0.1-0.351
				c0-0.1,0.033-0.2,0.1-0.3c0.067-0.1,0.15-0.184,0.25-0.25c0.134-0.066,0.284-0.117,0.45-0.15c0.134-0.033,0.3-0.05,0.5-0.05
				c0.167,0,0.317,0,0.45,0c0.167,0.034,0.333,0.067,0.5,0.101c0.167,0.066,0.316,0.133,0.45,0.199
				c0.167,0.066,0.316,0.134,0.45,0.2v-1.6c-0.267-0.101-0.551-0.167-0.851-0.2c-0.333-0.066-0.7-0.1-1.1-0.1
				C52.75,227.15,52.367,227.2,52,227.3 M35.95,235h1.7v-5.5h-1.7V235 M30.95,234.35c0.533-0.533,0.8-1.266,0.8-2.199
				c0-0.834-0.267-1.5-0.8-2c-0.5-0.533-1.217-0.801-2.15-0.801c-0.933,0-1.666,0.268-2.199,0.801c-0.533,0.5-0.801,1.199-0.801,2.1
				s0.268,1.6,0.801,2.1c0.5,0.533,1.217,0.801,2.149,0.801C29.683,235.15,30.417,234.883,30.95,234.35 M27.85,231.1
				c0.233-0.3,0.55-0.449,0.949-0.449c0.801,0,1.2,0.516,1.2,1.55c0,1.1-0.399,1.649-1.2,1.649c-0.866,0-1.3-0.533-1.3-1.6
				C27.5,231.75,27.617,231.367,27.85,231.1 M34.5,226.85h-1.7V235h1.7V226.85 M36.8,228.65c0.301,0,0.551-0.084,0.75-0.25
				c0.167-0.167,0.25-0.384,0.25-0.65s-0.083-0.467-0.25-0.6c-0.199-0.167-0.449-0.25-0.75-0.25c-0.267,0-0.5,0.083-0.699,0.25
				c-0.167,0.133-0.25,0.333-0.25,0.6c0,0.233,0.083,0.45,0.25,0.65C36.3,228.566,36.533,228.65,36.8,228.65 M45.95,232.65h2.95
				v-1.2h-2.95V232.65 M44.5,226.85h-1.7v3.301c-0.3-0.533-0.8-0.801-1.5-0.801c-0.767,0-1.366,0.283-1.8,0.851
				c-0.467,0.533-0.7,1.25-0.7,2.149c0,0.9,0.2,1.584,0.601,2.051c0.434,0.5,0.983,0.75,1.649,0.75c0.768,0,1.351-0.301,1.75-0.9
				V235h1.7V226.85 M40.85,231.1c0.199-0.3,0.483-0.449,0.85-0.449c0.333,0,0.6,0.116,0.8,0.35c0.233,0.233,0.351,0.533,0.351,0.9
				v0.449c0,0.434-0.117,0.783-0.351,1.051c-0.2,0.3-0.483,0.449-0.85,0.449c-0.367,0-0.65-0.133-0.851-0.399
				c-0.199-0.267-0.3-0.634-0.3-1.101C40.5,231.816,40.617,231.4,40.85,231.1 M20,228.45c-0.166,0.267-0.25,0.6-0.25,1
				c0,0.533,0.15,0.966,0.45,1.3c0.3,0.367,0.75,0.684,1.35,0.95c0.233,0.1,0.45,0.183,0.65,0.25c0.2,0.1,0.384,0.2,0.55,0.3
				c0.134,0.1,0.233,0.217,0.3,0.35c0.101,0.101,0.15,0.234,0.15,0.4c0,0.1-0.033,0.2-0.1,0.3c-0.033,0.101-0.101,0.184-0.2,0.25
				c-0.134,0.067-0.283,0.116-0.45,0.15c-0.133,0.033-0.316,0.05-0.55,0.05c-0.367,0-0.733-0.05-1.101-0.15
				c-0.366-0.133-0.699-0.333-1-0.6v1.7c0.268,0.134,0.584,0.25,0.95,0.35c0.4,0.067,0.8,0.101,1.2,0.101
				c0.434,0,0.833-0.051,1.2-0.15c0.366-0.066,0.684-0.184,0.95-0.35c0.3-0.2,0.533-0.45,0.699-0.75
				c0.167-0.268,0.25-0.617,0.25-1.051c0-0.333-0.05-0.616-0.149-0.85c-0.101-0.233-0.233-0.434-0.4-0.6
				c-0.2-0.2-0.416-0.367-0.649-0.5c-0.233-0.134-0.5-0.268-0.801-0.4c-0.232-0.1-0.449-0.2-0.649-0.3
				c-0.167-0.067-0.316-0.15-0.45-0.25c-0.133-0.101-0.233-0.2-0.3-0.3c-0.066-0.101-0.101-0.217-0.101-0.351
				c0-0.1,0.034-0.2,0.101-0.3s0.149-0.184,0.25-0.25c0.133-0.066,0.283-0.117,0.45-0.15c0.133-0.033,0.3-0.05,0.5-0.05
				c0.166,0,0.316,0,0.449,0c0.167,0.034,0.334,0.067,0.5,0.101c0.167,0.066,0.317,0.133,0.45,0.199
				c0.167,0.066,0.317,0.134,0.45,0.2v-1.6c-0.267-0.101-0.55-0.167-0.85-0.2c-0.334-0.066-0.7-0.1-1.101-0.1
				c-0.399,0-0.783,0.05-1.149,0.149c-0.367,0.101-0.684,0.233-0.95,0.4C20.384,227.9,20.167,228.15,20,228.45 M174,251.4
				c-0.333-0.134-0.733-0.2-1.2-0.2c-0.466,0-0.899,0.116-1.3,0.35c-0.366,0.2-0.683,0.5-0.95,0.9
				c-0.267,0.366-0.466,0.833-0.6,1.399c-0.133,0.533-0.2,1.134-0.2,1.801c0,0.566,0.05,1.066,0.15,1.5c0.1,0.434,0.25,0.8,0.45,1.1
				c0.199,0.3,0.449,0.533,0.75,0.7c0.3,0.167,0.633,0.25,1,0.25c0.333,0,0.649-0.067,0.949-0.2c0.268-0.133,0.518-0.316,0.75-0.55
				c0.2-0.233,0.367-0.5,0.5-0.8c0.101-0.334,0.15-0.684,0.15-1.051c0-0.333-0.05-0.649-0.15-0.949
				c-0.1-0.301-0.25-0.551-0.449-0.75c-0.167-0.2-0.384-0.367-0.65-0.5c-0.267-0.101-0.566-0.15-0.9-0.15
				c-0.866,0-1.482,0.367-1.85,1.1c0-0.533,0.05-1.016,0.15-1.449c0.1-0.434,0.267-0.801,0.5-1.101c0.199-0.3,0.433-0.533,0.699-0.7
				c0.301-0.199,0.634-0.3,1-0.3c0.434,0,0.834,0.101,1.2,0.3V251.4 M172.8,254.95c0.2,0.1,0.367,0.233,0.5,0.399
				c0.134,0.167,0.25,0.367,0.351,0.601c0.066,0.233,0.1,0.483,0.1,0.75s-0.05,0.517-0.149,0.75c-0.067,0.233-0.167,0.433-0.301,0.6
				c-0.166,0.167-0.333,0.3-0.5,0.4c-0.199,0.1-0.416,0.149-0.649,0.149c-0.267,0-0.5-0.066-0.7-0.199
				c-0.2-0.101-0.366-0.234-0.5-0.4c-0.133-0.2-0.25-0.416-0.35-0.65c-0.067-0.266-0.101-0.533-0.101-0.8
				c0-0.233,0.033-0.45,0.101-0.649c0.1-0.2,0.217-0.384,0.35-0.551c0.167-0.166,0.35-0.3,0.55-0.399
				c0.2-0.067,0.417-0.101,0.65-0.101S172.6,254.883,172.8,254.95 M167.2,252.2c0.134,0.134,0.233,0.3,0.3,0.5
				c0.067,0.167,0.101,0.366,0.101,0.6c0,0.267-0.033,0.5-0.101,0.7c-0.066,0.233-0.166,0.434-0.3,0.6
				c-0.133,0.2-0.3,0.384-0.5,0.551c-0.2,0.166-0.434,0.35-0.7,0.55c-0.366,0.267-0.683,0.5-0.95,0.7
				c-0.267,0.232-0.482,0.467-0.649,0.699c-0.167,0.2-0.3,0.434-0.4,0.7c-0.066,0.233-0.1,0.534-0.1,0.9v0.35h4.55v-0.6h-3.85
				c0-0.067,0.017-0.134,0.05-0.2c0-0.033,0-0.084,0-0.15c0.033-0.166,0.083-0.333,0.149-0.5c0.067-0.166,0.184-0.316,0.351-0.449
				c0.133-0.167,0.316-0.334,0.55-0.5c0.2-0.167,0.467-0.367,0.8-0.601c0.267-0.2,0.517-0.384,0.75-0.55
				c0.2-0.2,0.384-0.416,0.55-0.65c0.167-0.232,0.284-0.467,0.351-0.699c0.1-0.268,0.149-0.566,0.149-0.9c0-0.3-0.033-0.55-0.1-0.75
				c-0.1-0.233-0.233-0.45-0.4-0.65c-0.133-0.166-0.316-0.3-0.55-0.399c-0.2-0.101-0.433-0.167-0.7-0.2c-0.066,0-0.133,0-0.199,0
				c-0.033-0.033-0.084-0.05-0.15-0.05c-0.434,0-0.8,0.066-1.1,0.2c-0.334,0.133-0.634,0.316-0.9,0.55v0.75
				c0.267-0.267,0.566-0.483,0.9-0.65c0.3-0.167,0.633-0.25,1-0.25c0.199,0,0.399,0.034,0.6,0.101S167.067,252.066,167.2,252.2
				 M232.7,243.25h-1.25v5.5h1.25v-3.15c0-0.434,0.134-0.783,0.4-1.05c0.233-0.3,0.533-0.45,0.899-0.45
				c0.733,0,1.101,0.518,1.101,1.551v3.1h1.25v-3.35c0-0.734-0.15-1.301-0.45-1.7c-0.333-0.4-0.8-0.601-1.4-0.601
				c-0.767,0-1.35,0.351-1.75,1.051h-0.05V243.25 M226,243.95c-0.5,0.533-0.75,1.216-0.75,2.05c0,0.934,0.233,1.65,0.7,2.15
				s1.1,0.75,1.9,0.75c0.833,0,1.5-0.167,2-0.5v-1c-0.5,0.366-1.051,0.55-1.65,0.55c-0.5,0-0.9-0.15-1.2-0.45
				c-0.3-0.267-0.467-0.65-0.5-1.15h3.75v-0.5c0-0.866-0.2-1.533-0.6-2c-0.4-0.5-0.983-0.75-1.75-0.75
				C227.167,243.1,226.533,243.383,226,243.95 M226.5,245.45c0.067-0.434,0.233-0.767,0.5-1c0.233-0.267,0.533-0.4,0.9-0.4
				c0.366,0,0.649,0.116,0.85,0.351c0.2,0.266,0.3,0.616,0.3,1.05H226.5 M220.15,243.95c-0.5,0.533-0.75,1.216-0.75,2.05
				c0,0.934,0.233,1.65,0.7,2.15s1.1,0.75,1.899,0.75c0.834,0,1.5-0.167,2-0.5v-1c-0.5,0.366-1.05,0.55-1.649,0.55
				c-0.5,0-0.9-0.15-1.2-0.45c-0.3-0.267-0.467-0.65-0.5-1.15h3.75v-0.5c0-0.866-0.2-1.533-0.601-2c-0.399-0.5-0.982-0.75-1.75-0.75
				C221.317,243.1,220.683,243.383,220.15,243.95 M220.65,245.45c0.066-0.434,0.233-0.767,0.5-1c0.233-0.267,0.533-0.4,0.899-0.4
				c0.367,0,0.65,0.116,0.851,0.351c0.2,0.266,0.3,0.616,0.3,1.05H220.65 M217.05,246.1c0-0.566,0.134-1.016,0.4-1.35
				c0.233-0.334,0.533-0.5,0.9-0.5c0.3,0,0.517,0.066,0.649,0.2v-1.2c-0.133-0.066-0.3-0.1-0.5-0.1c-0.333,0-0.616,0.116-0.85,0.35
				c-0.267,0.2-0.45,0.5-0.55,0.9h-0.051v-1.15h-1.25v5.5h1.25V246.1 M211.1,243.95c-0.533,0.533-0.801,1.267-0.801,2.2
				c0,0.8,0.25,1.449,0.75,1.949c0.5,0.533,1.167,0.801,2,0.801c0.601,0,1.117-0.134,1.551-0.4v-1.1c-0.4,0.333-0.817,0.5-1.25,0.5
				c-0.533,0-0.967-0.167-1.301-0.5c-0.3-0.334-0.449-0.783-0.449-1.351c0-0.566,0.166-1.033,0.5-1.399
				c0.333-0.367,0.767-0.551,1.3-0.551c0.434,0,0.833,0.15,1.2,0.45V243.4c-0.367-0.2-0.801-0.301-1.301-0.301
				C212.367,243.1,211.634,243.383,211.1,243.95 M161.65,258.65c0,0.133,0.05,0.25,0.149,0.35c0.101,0.1,0.217,0.15,0.351,0.15
				c0.066,0,0.133-0.018,0.2-0.051c0.066,0,0.116-0.033,0.149-0.1c0.067-0.033,0.117-0.084,0.15-0.15c0-0.066,0-0.133,0-0.199
				s0-0.134,0-0.2c-0.033-0.067-0.083-0.134-0.15-0.2c-0.033-0.033-0.083-0.066-0.149-0.1c-0.067-0.033-0.134-0.051-0.2-0.051
				c-0.134,0-0.25,0.051-0.351,0.15C161.7,258.35,161.65,258.483,161.65,258.65 M161.8,254.3c0.034,0.067,0.084,0.116,0.15,0.15
				c0.066,0,0.134,0,0.2,0s0.133,0,0.2,0c0.066-0.034,0.116-0.083,0.149-0.15c0.067-0.033,0.117-0.083,0.15-0.149
				c0-0.066,0-0.134,0-0.2c0-0.067,0-0.134,0-0.2c-0.033-0.066-0.083-0.117-0.15-0.15c-0.033-0.066-0.083-0.1-0.149-0.1
				c-0.067-0.033-0.134-0.05-0.2-0.05c-0.134,0-0.25,0.05-0.351,0.149c-0.1,0.101-0.149,0.217-0.149,0.351
				c0,0.066,0.017,0.134,0.05,0.2C161.7,254.217,161.733,254.267,161.8,254.3 M155.85,257c0.1,0.467,0.25,0.867,0.449,1.2
				c0.2,0.333,0.45,0.583,0.75,0.75c0.268,0.167,0.601,0.25,1,0.25c0.367,0,0.717-0.101,1.051-0.3c0.3-0.167,0.55-0.417,0.75-0.75
				c0.233-0.334,0.399-0.75,0.5-1.25c0.1-0.5,0.149-1.084,0.149-1.75c0-2.634-0.767-3.95-2.3-3.95c-0.833,0-1.45,0.35-1.85,1.05
				c-0.434,0.7-0.65,1.733-0.65,3.1C155.7,255.983,155.75,256.533,155.85,257 M156.8,257.75c-0.267-0.566-0.399-1.383-0.399-2.45
				c0-1.167,0.149-2.033,0.45-2.6c0.3-0.601,0.733-0.9,1.3-0.9c1.1,0,1.649,1.15,1.649,3.45c0,0.533-0.033,1.017-0.1,1.45
				c-0.066,0.399-0.184,0.75-0.35,1.05c-0.134,0.267-0.301,0.467-0.5,0.6c-0.233,0.167-0.483,0.25-0.75,0.25
				C157.533,258.6,157.1,258.316,156.8,257.75 M207.3,240.9c-0.366,0-0.716,0.05-1.05,0.149c-0.333,0.067-0.633,0.2-0.899,0.4
				c-0.267,0.167-0.483,0.384-0.65,0.649c-0.167,0.268-0.25,0.584-0.25,0.95c0,0.3,0.05,0.55,0.15,0.75
				c0.1,0.233,0.233,0.434,0.399,0.601c0.167,0.166,0.351,0.316,0.55,0.449c0.233,0.167,0.483,0.316,0.75,0.45
				c0.233,0.101,0.467,0.2,0.7,0.3c0.2,0.101,0.384,0.217,0.55,0.351c0.134,0.1,0.25,0.216,0.351,0.35
				c0.1,0.134,0.149,0.284,0.149,0.45c0,0.367-0.133,0.633-0.399,0.8s-0.667,0.25-1.2,0.25c-0.167,0-0.333-0.017-0.5-0.05
				c-0.2-0.033-0.383-0.066-0.55-0.1c-0.2-0.066-0.384-0.15-0.55-0.25c-0.167-0.066-0.301-0.15-0.4-0.25v1.3
				c0.1,0.066,0.233,0.134,0.4,0.2c0.199,0.033,0.399,0.066,0.6,0.1c0.167,0.033,0.35,0.066,0.55,0.1s0.367,0.051,0.5,0.051
				c0.367,0,0.733-0.051,1.101-0.15c0.333-0.066,0.633-0.184,0.899-0.35c0.267-0.167,0.483-0.384,0.65-0.65s0.25-0.6,0.25-1
				c0-0.3-0.066-0.55-0.2-0.75c-0.1-0.233-0.233-0.45-0.4-0.65c-0.199-0.166-0.416-0.333-0.649-0.5
				c-0.233-0.166-0.483-0.316-0.75-0.449c-0.267-0.101-0.5-0.2-0.7-0.301c-0.2-0.1-0.366-0.199-0.5-0.3
				c-0.133-0.1-0.233-0.216-0.3-0.35s-0.101-0.284-0.101-0.45c0-0.2,0.034-0.35,0.101-0.45c0.1-0.134,0.233-0.25,0.399-0.35
				c0.134-0.067,0.301-0.116,0.5-0.15c0.167-0.033,0.351-0.05,0.551-0.05c0.699,0,1.267,0.15,1.699,0.45v-1.25
				C208.683,241,208.1,240.9,207.3,240.9 M196.55,245.6c0-0.434,0.134-0.783,0.4-1.05c0.233-0.3,0.533-0.45,0.9-0.45
				c0.733,0,1.1,0.518,1.1,1.551v3.1h1.25v-3.35c0-0.734-0.15-1.301-0.45-1.7c-0.333-0.4-0.8-0.601-1.399-0.601
				c-0.767,0-1.351,0.351-1.75,1.051h-0.051v-0.9h-1.25v5.5h1.25V245.6 M189.2,243.9c-0.533,0.533-0.8,1.25-0.8,2.149
				c0,0.866,0.25,1.55,0.75,2.05c0.533,0.533,1.217,0.801,2.05,0.801c0.867,0,1.566-0.268,2.1-0.801c0.5-0.533,0.75-1.232,0.75-2.1
				c0-0.9-0.232-1.6-0.699-2.1c-0.5-0.533-1.167-0.801-2-0.801C190.45,243.1,189.733,243.367,189.2,243.9 M190.1,244.65
				c0.3-0.367,0.683-0.551,1.149-0.551c0.5,0,0.884,0.167,1.15,0.5c0.267,0.334,0.399,0.801,0.399,1.4s-0.133,1.066-0.399,1.4
				c-0.267,0.333-0.65,0.5-1.15,0.5c-0.467,0-0.85-0.167-1.149-0.5c-0.267-0.334-0.4-0.783-0.4-1.351
				C189.7,245.45,189.834,244.983,190.1,244.65 M185.85,243.25V244c-0.367-0.6-0.9-0.9-1.601-0.9c-0.767,0-1.383,0.283-1.85,0.851
				c-0.434,0.566-0.65,1.316-0.65,2.25c0,0.8,0.2,1.45,0.601,1.95c0.433,0.5,0.983,0.75,1.649,0.75c0.834,0,1.45-0.351,1.851-1.051
				v0.601c0,1.267-0.65,1.899-1.95,1.899c-0.533,0-1.101-0.166-1.7-0.5V251c0.533,0.233,1.15,0.35,1.85,0.35
				c2.034,0,3.051-1.016,3.051-3.05v-5.05H185.85 M183.05,246.1c0-0.633,0.134-1.116,0.4-1.449c0.267-0.367,0.634-0.551,1.1-0.551
				c0.367,0,0.684,0.15,0.95,0.45c0.267,0.267,0.4,0.583,0.4,0.95v0.75c0,0.467-0.134,0.85-0.4,1.15
				c-0.267,0.333-0.616,0.5-1.05,0.5s-0.783-0.167-1.05-0.5C183.167,247.066,183.05,246.633,183.05,246.1 M176,243.9
				c-0.533,0.533-0.8,1.25-0.8,2.149c0,0.866,0.25,1.55,0.75,2.05c0.533,0.533,1.217,0.801,2.05,0.801
				c0.867,0,1.567-0.268,2.101-0.801c0.5-0.533,0.75-1.232,0.75-2.1c0-0.9-0.233-1.6-0.7-2.1c-0.5-0.533-1.167-0.801-2-0.801
				C177.25,243.1,176.533,243.367,176,243.9 M176.5,246.05c0-0.6,0.134-1.066,0.4-1.399c0.3-0.367,0.684-0.551,1.149-0.551
				c0.5,0,0.884,0.167,1.15,0.5c0.267,0.334,0.4,0.801,0.4,1.4s-0.134,1.066-0.4,1.4c-0.267,0.333-0.65,0.5-1.15,0.5
				c-0.466,0-0.85-0.167-1.149-0.5C176.634,247.066,176.5,246.617,176.5,246.05 M164.8,244.25h1.301v-1H164.8v-1.65l-1.25,0.4v1.25
				h-0.899v1h0.899v3.1c0,1,0.534,1.5,1.601,1.5c0.399,0,0.717-0.05,0.95-0.149v-1c-0.134,0.134-0.317,0.2-0.551,0.2
				c-0.267,0-0.466-0.066-0.6-0.2c-0.1-0.167-0.15-0.4-0.15-0.7V244.25 M171.6,241.05H170.3v7.7h4.25v-1.1H171.6V241.05
				 M157.35,246.8h3.05l0.7,1.95h1.399l-2.899-7.7h-1.4l-2.9,7.7h1.4L157.35,246.8 M159,242.7l1.05,3.05h-2.35l1.05-3.05
				c0.033-0.134,0.067-0.3,0.101-0.5C158.917,242.4,158.967,242.566,159,242.7 M123.15,191.35c-0.101,0.1-0.15,0.233-0.15,0.4
				c0,0.133,0.05,0.25,0.15,0.35c0.1,0.1,0.217,0.15,0.35,0.15c0.067,0,0.134-0.017,0.2-0.05c0.066,0,0.117-0.034,0.15-0.1
				c0.066-0.033,0.116-0.083,0.149-0.15c0-0.067,0-0.133,0-0.2s0-0.133,0-0.2c-0.033-0.066-0.083-0.133-0.149-0.2
				c-0.033-0.033-0.084-0.067-0.15-0.1s-0.133-0.05-0.2-0.05C123.367,191.2,123.25,191.25,123.15,191.35 M124,186.85
				c-0.033-0.067-0.083-0.117-0.149-0.15c-0.033-0.067-0.084-0.1-0.15-0.1c-0.066-0.033-0.133-0.05-0.2-0.05
				c-0.133,0-0.25,0.05-0.35,0.15c-0.101,0.1-0.15,0.216-0.15,0.35c0,0.067,0.017,0.133,0.05,0.2c0,0.067,0.034,0.117,0.101,0.15
				c0.033,0.067,0.083,0.117,0.149,0.15c0.067,0,0.134,0,0.2,0c0.067,0,0.134,0,0.2,0c0.066-0.033,0.117-0.083,0.15-0.15
				c0.066-0.033,0.116-0.083,0.149-0.15c0-0.067,0-0.133,0-0.2C124,186.983,124,186.917,124,186.85 M127.7,184.3
				c-0.833,0-1.45,0.35-1.85,1.05c-0.434,0.7-0.65,1.733-0.65,3.1c0,0.633,0.05,1.183,0.15,1.65c0.1,0.467,0.25,0.867,0.449,1.2
				c0.2,0.333,0.45,0.583,0.75,0.75c0.268,0.167,0.601,0.25,1,0.25c0.367,0,0.717-0.1,1.051-0.3c0.3-0.167,0.55-0.417,0.75-0.75
				c0.233-0.333,0.399-0.75,0.5-1.25c0.1-0.5,0.149-1.083,0.149-1.75C130,185.617,129.233,184.3,127.7,184.3 M128.35,191.45
				c-0.233,0.167-0.483,0.25-0.75,0.25c-0.567,0-1-0.284-1.301-0.85c-0.267-0.567-0.399-1.383-0.399-2.45
				c0-1.167,0.149-2.033,0.45-2.6c0.3-0.6,0.733-0.9,1.3-0.9c1.1,0,1.649,1.15,1.649,3.45c0,0.533-0.033,1.017-0.1,1.45
				c-0.066,0.4-0.184,0.75-0.35,1.05C128.717,191.117,128.55,191.317,128.35,191.45 M135.05,184.45h-0.75
				c-0.166,0.4-0.383,0.816-0.649,1.25c-0.267,0.433-0.566,0.883-0.9,1.35c-0.3,0.434-0.633,0.883-1,1.35
				c-0.333,0.434-0.683,0.833-1.05,1.2v0.65h3.65v1.9h0.699v-1.9h1.2v-0.65h-1.2V184.45 M132.1,188.85
				c0.233-0.267,0.467-0.567,0.699-0.9c0.268-0.367,0.534-0.733,0.801-1.1c0.233-0.4,0.483-0.833,0.75-1.3v4.05H131.5
				C131.7,189.4,131.9,189.15,132.1,188.85 M119.55,184.3c-0.833,0-1.449,0.35-1.85,1.05c-0.434,0.7-0.65,1.733-0.65,3.1
				c0,0.633,0.051,1.183,0.15,1.65s0.25,0.867,0.45,1.2c0.2,0.333,0.45,0.583,0.75,0.75c0.267,0.167,0.6,0.25,1,0.25
				c0.366,0,0.717-0.1,1.05-0.3c0.3-0.167,0.55-0.417,0.75-0.75c0.233-0.333,0.4-0.75,0.5-1.25s0.15-1.083,0.15-1.75
				C121.85,185.617,121.084,184.3,119.55,184.3 M117.75,188.4c0-1.167,0.15-2.033,0.45-2.6c0.3-0.6,0.733-0.9,1.3-0.9
				c1.101,0,1.65,1.15,1.65,3.45c0,0.533-0.033,1.017-0.101,1.45c-0.066,0.4-0.183,0.75-0.35,1.05c-0.133,0.267-0.3,0.467-0.5,0.6
				c-0.233,0.167-0.483,0.25-0.75,0.25c-0.566,0-1-0.284-1.3-0.85C117.884,190.283,117.75,189.467,117.75,188.4 M169.65,175.25h2.2
				v-1.1h-5.7v1.1h2.2v6.6h1.3V175.25 M165.15,175.55v-1.25c-0.367-0.2-0.95-0.3-1.75-0.3c-0.367,0-0.717,0.05-1.05,0.15
				c-0.334,0.067-0.634,0.2-0.9,0.4c-0.267,0.167-0.483,0.383-0.65,0.65c-0.166,0.267-0.25,0.583-0.25,0.95
				c0,0.3,0.051,0.55,0.15,0.75c0.1,0.233,0.233,0.434,0.4,0.6c0.166,0.167,0.35,0.317,0.55,0.45c0.233,0.167,0.483,0.316,0.75,0.45
				c0.233,0.1,0.467,0.2,0.7,0.3c0.199,0.1,0.383,0.216,0.55,0.35c0.133,0.1,0.25,0.217,0.35,0.35c0.101,0.133,0.15,0.284,0.15,0.45
				c0,0.367-0.134,0.633-0.4,0.8s-0.666,0.25-1.2,0.25c-0.166,0-0.333-0.017-0.5-0.05c-0.199-0.033-0.383-0.067-0.55-0.1
				c-0.2-0.067-0.383-0.15-0.55-0.25c-0.167-0.067-0.3-0.15-0.4-0.25v1.3c0.101,0.067,0.233,0.133,0.4,0.2
				c0.2,0.033,0.4,0.067,0.6,0.1c0.167,0.033,0.351,0.066,0.551,0.1c0.199,0.033,0.366,0.05,0.5,0.05c0.366,0,0.733-0.05,1.1-0.15
				c0.333-0.067,0.634-0.184,0.9-0.35s0.483-0.383,0.649-0.65c0.167-0.267,0.25-0.6,0.25-1c0-0.3-0.066-0.55-0.2-0.75
				c-0.1-0.233-0.232-0.45-0.399-0.65c-0.2-0.167-0.417-0.333-0.65-0.5c-0.233-0.167-0.483-0.317-0.75-0.45
				c-0.267-0.1-0.5-0.2-0.7-0.3c-0.199-0.1-0.366-0.2-0.5-0.3c-0.133-0.1-0.232-0.217-0.3-0.35c-0.066-0.133-0.1-0.283-0.1-0.45
				c0-0.2,0.033-0.35,0.1-0.45c0.101-0.133,0.233-0.25,0.4-0.35c0.133-0.066,0.3-0.117,0.5-0.15c0.167-0.033,0.35-0.05,0.55-0.05
				C164.15,175.1,164.717,175.25,165.15,175.55 M159.5,177.9c0-1.167-0.333-2.1-1-2.8c-0.666-0.733-1.533-1.1-2.6-1.1
				c-1.167,0-2.083,0.383-2.75,1.15c-0.7,0.733-1.05,1.717-1.05,2.95c0,1.133,0.333,2.066,1,2.8c0.666,0.733,1.566,1.1,2.699,1.1
				c1.101,0,2-0.367,2.7-1.1C159.167,180.167,159.5,179.167,159.5,177.9 M157.55,175.9c0.4,0.5,0.601,1.217,0.601,2.15
				c0,0.867-0.2,1.55-0.601,2.05c-0.433,0.5-1.017,0.75-1.75,0.75c-0.699,0-1.267-0.25-1.699-0.75c-0.434-0.533-0.65-1.233-0.65-2.1
				s0.217-1.55,0.65-2.05c0.467-0.534,1.05-0.8,1.75-0.8C156.55,175.15,157.117,175.4,157.55,175.9 M147.4,179.05h1.05
				c0.867,0,1.55-0.233,2.05-0.7s0.75-1.083,0.75-1.85c0-0.733-0.233-1.317-0.7-1.75c-0.5-0.4-1.183-0.6-2.05-0.6h-2.35v7.7h1.25
				V179.05 M147.4,175.2h0.95c1.066,0,1.6,0.45,1.6,1.35c0,0.467-0.15,0.833-0.45,1.1c-0.3,0.233-0.717,0.35-1.25,0.35h-0.85V175.2
				 M140.45,183.15h1.15l3.699-9h-1.149L140.45,183.15 M139.85,175.55v-1.25c-0.367-0.2-0.95-0.3-1.75-0.3
				c-0.367,0-0.717,0.05-1.051,0.15c-0.333,0.067-0.633,0.2-0.899,0.4c-0.267,0.167-0.483,0.383-0.65,0.65
				c-0.166,0.267-0.25,0.583-0.25,0.95c0,0.3,0.05,0.55,0.15,0.75c0.1,0.233,0.233,0.434,0.399,0.6
				c0.167,0.167,0.351,0.317,0.551,0.45c0.233,0.167,0.483,0.316,0.75,0.45c0.233,0.1,0.467,0.2,0.699,0.3
				c0.2,0.1,0.384,0.216,0.551,0.35c0.133,0.1,0.25,0.217,0.35,0.35s0.15,0.284,0.15,0.45c0,0.367-0.134,0.633-0.4,0.8
				s-0.667,0.25-1.2,0.25c-0.166,0-0.333-0.017-0.5-0.05c-0.2-0.033-0.383-0.067-0.55-0.1c-0.2-0.067-0.383-0.15-0.55-0.25
				c-0.167-0.067-0.3-0.15-0.4-0.25v1.3c0.101,0.067,0.233,0.133,0.4,0.2c0.2,0.033,0.399,0.067,0.6,0.1
				c0.167,0.033,0.351,0.066,0.55,0.1c0.2,0.033,0.367,0.05,0.5,0.05c0.367,0,0.733-0.05,1.101-0.15
				c0.333-0.067,0.633-0.184,0.899-0.35c0.268-0.167,0.483-0.383,0.65-0.65s0.25-0.6,0.25-1c0-0.3-0.066-0.55-0.2-0.75
				c-0.1-0.233-0.233-0.45-0.399-0.65c-0.2-0.167-0.417-0.333-0.65-0.5c-0.233-0.167-0.483-0.317-0.75-0.45
				c-0.267-0.1-0.5-0.2-0.7-0.3c-0.2-0.1-0.366-0.2-0.5-0.3c-0.133-0.1-0.233-0.217-0.3-0.35s-0.1-0.283-0.1-0.45
				c0-0.2,0.033-0.35,0.1-0.45c0.1-0.133,0.233-0.25,0.4-0.35c0.133-0.066,0.3-0.117,0.5-0.15c0.166-0.033,0.35-0.05,0.55-0.05
				C138.85,175.1,139.417,175.25,139.85,175.55 M133.2,180.9c0.667-0.733,1-1.733,1-3c0-1.167-0.333-2.1-1-2.8
				c-0.667-0.733-1.533-1.1-2.6-1.1c-1.167,0-2.084,0.383-2.75,1.15c-0.7,0.733-1.051,1.717-1.051,2.95c0,1.133,0.334,2.066,1,2.8
				c0.667,0.733,1.567,1.1,2.7,1.1C131.6,182,132.5,181.633,133.2,180.9 M132.25,175.9c0.4,0.5,0.601,1.217,0.601,2.15
				c0,0.867-0.2,1.55-0.601,2.05c-0.433,0.5-1.017,0.75-1.75,0.75c-0.7,0-1.267-0.25-1.7-0.75c-0.433-0.533-0.649-1.233-0.649-2.1
				s0.217-1.55,0.649-2.05c0.467-0.534,1.051-0.8,1.75-0.8C131.25,175.15,131.817,175.4,132.25,175.9 M125.45,181.85v-7.7h-1.3v7.7
				H125.45 M119.95,174.15h-2.45v7.7h2.45c0.8,0,1.467-0.2,2-0.6c0.5-0.4,0.75-0.934,0.75-1.6c0-0.533-0.15-0.966-0.45-1.3
				c-0.333-0.333-0.767-0.533-1.3-0.6c0.467-0.133,0.816-0.367,1.05-0.7c0.233-0.333,0.351-0.716,0.351-1.15
				c0-0.5-0.217-0.917-0.65-1.25S120.683,174.15,119.95,174.15 M118.75,178.4h0.95c1.1,0,1.65,0.4,1.65,1.2
				c0,0.367-0.134,0.667-0.4,0.9c-0.233,0.233-0.6,0.35-1.1,0.35h-1.101V178.4 M118.75,177.35v-2.2h0.95c0.867,0,1.3,0.333,1.3,1
				c0,0.4-0.116,0.7-0.35,0.9c-0.267,0.2-0.617,0.3-1.05,0.3H118.75z"/>
			<path fill="#69199F" d="M231.8,230.15c-0.399-0.167-0.866-0.25-1.399-0.25c-0.267,0-0.533,0.05-0.8,0.149
				c-0.267,0.067-0.517,0.167-0.75,0.3c-0.2,0.134-0.367,0.301-0.5,0.5c-0.134,0.2-0.2,0.434-0.2,0.7c0,0.2,0.033,0.384,0.1,0.55
				c0.067,0.167,0.167,0.316,0.3,0.45c0.101,0.134,0.25,0.25,0.45,0.351c0.167,0.1,0.367,0.184,0.601,0.25
				c0.166,0.066,0.333,0.133,0.5,0.199c0.133,0.066,0.267,0.134,0.399,0.2c0.101,0.067,0.184,0.134,0.25,0.2
				c0.067,0.1,0.101,0.217,0.101,0.35c0,0.434-0.384,0.65-1.15,0.65c-0.566,0-1.083-0.184-1.55-0.55v1.2c0.467,0.199,1,0.3,1.6,0.3
				c0.3,0,0.584-0.034,0.851-0.101c0.3-0.066,0.55-0.166,0.75-0.3c0.233-0.167,0.416-0.35,0.55-0.55c0.1-0.2,0.149-0.434,0.149-0.7
				c0-0.233-0.033-0.433-0.1-0.6s-0.167-0.317-0.3-0.45c-0.134-0.133-0.283-0.25-0.45-0.35c-0.2-0.101-0.417-0.2-0.65-0.301
				c-0.199-0.066-0.366-0.116-0.5-0.149c-0.133-0.067-0.25-0.134-0.35-0.2s-0.167-0.133-0.2-0.2c-0.066-0.066-0.1-0.167-0.1-0.3
				c0-0.1,0.033-0.184,0.1-0.25c0.033-0.1,0.101-0.166,0.2-0.2c0.1-0.066,0.217-0.116,0.35-0.149c0.101-0.033,0.233-0.051,0.4-0.051
				c0.5,0,0.95,0.134,1.35,0.4V230.15 M224.95,229.9c-0.733,0-1.366,0.283-1.9,0.85c-0.5,0.533-0.75,1.217-0.75,2.05
				c0,0.934,0.233,1.65,0.7,2.15s1.101,0.75,1.9,0.75c0.833,0,1.5-0.167,2-0.5v-1c-0.5,0.366-1.05,0.55-1.65,0.55
				c-0.5,0-0.899-0.15-1.2-0.45c-0.3-0.267-0.466-0.649-0.5-1.149h3.75v-0.5c0-0.867-0.199-1.533-0.6-2
				C226.3,230.15,225.717,229.9,224.95,229.9 M224.05,231.25c0.233-0.267,0.534-0.4,0.9-0.4c0.367,0,0.65,0.117,0.85,0.351
				c0.2,0.267,0.301,0.616,0.301,1.05h-2.551C223.617,231.816,223.783,231.483,224.05,231.25 M234.5,227.4h-1.25v8.149h1.25V232.9
				h0.05l2.101,2.649h1.6l-2.45-2.85l2.25-2.65h-1.5l-2,2.5h-0.05V227.4 M240.5,228.4l-1.25,0.399v1.25h-0.899v1h0.899v3.101
				c0,1,0.533,1.5,1.601,1.5c0.399,0,0.717-0.051,0.949-0.15v-1c-0.133,0.133-0.316,0.2-0.55,0.2c-0.267,0-0.467-0.067-0.6-0.2
				c-0.101-0.166-0.15-0.4-0.15-0.7v-2.75h1.3v-1h-1.3V228.4 M204.2,227.85h-1.4l-2.899,7.7h1.399l0.65-1.95H205l0.7,1.95h1.4
				L204.2,227.85 M203.6,229.5l1.05,3.05H202.3l1.051-3.05c0.033-0.133,0.066-0.3,0.1-0.5
				C203.516,229.2,203.567,229.367,203.6,229.5 M209.4,228.4l-1.25,0.399v1.25h-0.9v1h0.9v3.101c0,1,0.533,1.5,1.6,1.5
				c0.4,0,0.717-0.051,0.95-0.15v-1c-0.133,0.133-0.316,0.2-0.55,0.2c-0.267,0-0.467-0.067-0.601-0.2
				c-0.1-0.166-0.149-0.4-0.149-0.7v-2.75h1.3v-1h-1.3V228.4 M217.1,227.85h-2.2v7.7h2.149c1.301,0,2.351-0.366,3.15-1.1
				c0.8-0.7,1.2-1.65,1.2-2.851C221.4,229.1,219.967,227.85,217.1,227.85 M216.15,234.45v-5.5h1.1c1.867,0,2.8,0.899,2.8,2.7
				c0,0.899-0.25,1.6-0.75,2.1c-0.5,0.467-1.199,0.7-2.1,0.7H216.15 M245.4,229.9c-0.9,0-1.617,0.266-2.15,0.8
				c-0.533,0.533-0.8,1.25-0.8,2.149c0,0.867,0.25,1.551,0.75,2.051c0.533,0.533,1.217,0.8,2.05,0.8c0.867,0,1.567-0.267,2.101-0.8
				c0.5-0.533,0.75-1.234,0.75-2.101c0-0.899-0.233-1.6-0.7-2.1C246.9,230.166,246.233,229.9,245.4,229.9 M244.15,231.45
				c0.3-0.366,0.684-0.55,1.149-0.55c0.5,0,0.884,0.166,1.15,0.5c0.267,0.333,0.4,0.8,0.4,1.399c0,0.601-0.134,1.067-0.4,1.4
				s-0.65,0.5-1.15,0.5c-0.466,0-0.85-0.167-1.149-0.5c-0.267-0.333-0.4-0.784-0.4-1.351
				C243.75,232.25,243.884,231.783,244.15,231.45 M254.7,232.65c0-0.834-0.184-1.5-0.55-2c-0.4-0.5-0.95-0.75-1.65-0.75
				c-0.833,0-1.45,0.366-1.85,1.1h-0.05v-0.95h-1.25v8.05h1.25v-3.35h0.05c0.366,0.6,0.899,0.9,1.6,0.9
				c0.767,0,1.367-0.268,1.8-0.801C254.483,234.283,254.7,233.55,254.7,232.65 M252.05,230.9c0.434,0,0.768,0.166,1,0.5
				c0.268,0.3,0.4,0.717,0.4,1.25c0,0.633-0.133,1.133-0.4,1.5c-0.267,0.366-0.633,0.55-1.1,0.55c-0.4,0-0.717-0.15-0.95-0.45
				c-0.267-0.267-0.399-0.6-0.399-1v-0.7c0-0.466,0.133-0.85,0.399-1.149C251.266,231.066,251.617,230.9,252.05,230.9 M194.45,227.7
				c-0.833,0-1.45,0.35-1.85,1.05c-0.434,0.7-0.65,1.733-0.65,3.1c0,0.634,0.05,1.184,0.15,1.65c0.1,0.467,0.25,0.867,0.449,1.2
				c0.2,0.333,0.45,0.583,0.75,0.75c0.268,0.167,0.601,0.25,1,0.25c0.367,0,0.717-0.101,1.051-0.3c0.3-0.167,0.55-0.417,0.75-0.75
				c0.233-0.334,0.399-0.75,0.5-1.25c0.1-0.5,0.149-1.084,0.149-1.75C196.75,229.017,195.983,227.7,194.45,227.7 M192.65,231.8
				c0-1.167,0.149-2.033,0.45-2.6c0.3-0.601,0.733-0.9,1.3-0.9c1.1,0,1.649,1.15,1.649,3.45c0,0.533-0.033,1.017-0.1,1.45
				c-0.066,0.399-0.184,0.75-0.35,1.05c-0.134,0.267-0.301,0.467-0.5,0.6c-0.233,0.167-0.483,0.25-0.75,0.25
				c-0.567,0-1-0.283-1.301-0.85C192.783,233.684,192.65,232.867,192.65,231.8 M190,227.85h-0.75c-0.166,0.4-0.383,0.816-0.649,1.25
				s-0.567,0.884-0.9,1.351c-0.3,0.433-0.633,0.884-1,1.35c-0.333,0.434-0.684,0.833-1.05,1.2v0.65h3.649v1.899h0.7v-1.899h1.2V233
				H190V227.85 M186.45,233c0.2-0.2,0.4-0.45,0.6-0.75c0.233-0.267,0.467-0.566,0.7-0.9c0.267-0.366,0.533-0.732,0.8-1.1
				c0.233-0.4,0.483-0.834,0.75-1.3V233H186.45 M184.7,234.95c-0.033-0.067-0.083-0.134-0.15-0.2
				c-0.033-0.033-0.083-0.066-0.149-0.1s-0.134-0.051-0.2-0.051c-0.133,0-0.25,0.051-0.35,0.15c-0.101,0.1-0.15,0.233-0.15,0.4
				c0,0.133,0.05,0.25,0.15,0.35c0.1,0.1,0.217,0.15,0.35,0.15c0.066,0,0.134-0.018,0.2-0.051c0.066,0,0.116-0.033,0.149-0.1
				c0.067-0.033,0.117-0.084,0.15-0.15c0-0.066,0-0.133,0-0.199S184.7,235.017,184.7,234.95 M184.7,230.45c0-0.067,0-0.134,0-0.2
				c-0.033-0.066-0.083-0.117-0.15-0.15c-0.033-0.066-0.083-0.1-0.149-0.1c-0.066-0.033-0.134-0.05-0.2-0.05
				c-0.133,0-0.25,0.05-0.35,0.149c-0.101,0.101-0.15,0.217-0.15,0.351c0,0.066,0.017,0.134,0.05,0.2
				c0,0.066,0.033,0.116,0.101,0.149c0.033,0.067,0.083,0.116,0.149,0.15c0.067,0,0.134,0,0.2,0s0.134,0,0.2,0
				c0.066-0.034,0.116-0.083,0.149-0.15c0.067-0.033,0.117-0.083,0.15-0.149C184.7,230.584,184.7,230.517,184.7,230.45
				 M180.25,227.7c-0.833,0-1.45,0.35-1.85,1.05c-0.434,0.7-0.65,1.733-0.65,3.1c0,0.634,0.05,1.184,0.15,1.65
				c0.1,0.467,0.25,0.867,0.45,1.2c0.199,0.333,0.449,0.583,0.75,0.75c0.267,0.167,0.6,0.25,1,0.25c0.366,0,0.717-0.101,1.05-0.3
				c0.3-0.167,0.55-0.417,0.75-0.75c0.233-0.334,0.399-0.75,0.5-1.25c0.1-0.5,0.149-1.084,0.149-1.75
				C182.55,229.017,181.783,227.7,180.25,227.7 M178.45,231.8c0-1.167,0.15-2.033,0.45-2.6c0.3-0.601,0.733-0.9,1.3-0.9
				c1.1,0,1.65,1.15,1.65,3.45c0,0.533-0.033,1.017-0.101,1.45c-0.066,0.399-0.183,0.75-0.35,1.05c-0.134,0.267-0.3,0.467-0.5,0.6
				c-0.233,0.167-0.483,0.25-0.75,0.25c-0.566,0-1-0.283-1.3-0.85C178.584,233.684,178.45,232.867,178.45,231.8 M233.4,203.85
				c-0.3-0.266-0.467-0.649-0.5-1.149h3.75v-0.5c0-0.866-0.2-1.534-0.601-2c-0.399-0.5-0.982-0.75-1.75-0.75
				c-0.732,0-1.366,0.283-1.899,0.85c-0.5,0.534-0.75,1.217-0.75,2.05c0,0.934,0.233,1.65,0.7,2.15s1.1,0.75,1.899,0.75
				c0.834,0,1.5-0.166,2-0.5v-1c-0.5,0.367-1.05,0.55-1.649,0.55C234.1,204.3,233.7,204.15,233.4,203.85 M233.4,200.8
				c0.233-0.267,0.533-0.4,0.899-0.4c0.367,0,0.65,0.117,0.851,0.35c0.2,0.267,0.3,0.617,0.3,1.05h-2.55
				C232.967,201.367,233.134,201.033,233.4,200.8 M138.75,207.55c-0.833,0-1.45,0.351-1.85,1.05c-0.434,0.7-0.65,1.734-0.65,3.101
				c0,0.634,0.05,1.183,0.15,1.649c0.1,0.467,0.25,0.867,0.45,1.2c0.199,0.333,0.449,0.583,0.75,0.75c0.267,0.167,0.6,0.25,1,0.25
				c0.366,0,0.717-0.1,1.05-0.3c0.3-0.166,0.55-0.416,0.75-0.75c0.233-0.334,0.399-0.75,0.5-1.25c0.1-0.5,0.149-1.084,0.149-1.75
				C141.05,208.867,140.283,207.55,138.75,207.55 M137.4,209.05c0.3-0.6,0.733-0.899,1.3-0.899c1.1,0,1.65,1.149,1.65,3.449
				c0,0.533-0.033,1.018-0.101,1.45c-0.066,0.4-0.183,0.75-0.35,1.05c-0.134,0.268-0.3,0.467-0.5,0.601
				c-0.233,0.167-0.483,0.25-0.75,0.25c-0.566,0-1-0.284-1.3-0.851c-0.267-0.566-0.4-1.383-0.4-2.449
				C136.95,210.483,137.1,209.617,137.4,209.05 M143.2,215c0-0.066,0-0.133,0-0.2c-0.033-0.066-0.083-0.134-0.15-0.2
				c-0.033-0.033-0.083-0.066-0.149-0.1s-0.134-0.05-0.2-0.05c-0.133,0-0.25,0.05-0.35,0.149c-0.101,0.101-0.15,0.234-0.15,0.4
				c0,0.133,0.05,0.25,0.15,0.35c0.1,0.101,0.217,0.15,0.35,0.15c0.066,0,0.134-0.017,0.2-0.05c0.066,0,0.116-0.034,0.149-0.101
				c0.067-0.033,0.117-0.083,0.15-0.149C143.2,215.133,143.2,215.066,143.2,215 M145.75,208.85c0.167-0.1,0.317-0.217,0.45-0.35v6.9
				h0.7v-7.851h-0.2c-0.366,0.3-0.75,0.567-1.15,0.8c-0.366,0.234-0.767,0.417-1.199,0.551v0.6c0.133-0.033,0.283-0.084,0.449-0.15
				c0.167-0.066,0.334-0.149,0.5-0.25C145.467,209.033,145.617,208.95,145.75,208.85 M142.35,209.95
				c-0.101,0.1-0.15,0.216-0.15,0.35c0,0.067,0.017,0.134,0.05,0.2c0,0.066,0.033,0.117,0.101,0.15
				c0.033,0.066,0.083,0.116,0.149,0.149c0.067,0,0.134,0,0.2,0s0.134,0,0.2,0c0.066-0.033,0.116-0.083,0.149-0.149
				c0.067-0.033,0.117-0.084,0.15-0.15c0-0.066,0-0.133,0-0.2c0-0.066,0-0.134,0-0.2c-0.033-0.066-0.083-0.116-0.15-0.149
				c-0.033-0.067-0.083-0.101-0.149-0.101c-0.066-0.033-0.134-0.05-0.2-0.05C142.567,209.8,142.45,209.85,142.35,209.95
				 M152.75,208.3v-0.6h-3.399l-0.2,3.75c0.5-0.034,0.883-0.05,1.149-0.05c0.667,0,1.184,0.149,1.551,0.449
				c0.333,0.301,0.5,0.734,0.5,1.301c0,0.266-0.033,0.5-0.101,0.699c-0.1,0.234-0.233,0.434-0.399,0.601
				c-0.167,0.167-0.367,0.283-0.601,0.35c-0.233,0.101-0.5,0.15-0.8,0.15c-0.5,0-1.017-0.15-1.55-0.45v0.75
				c0.366,0.2,0.866,0.3,1.5,0.3c0.434,0,0.816-0.066,1.149-0.2c0.334-0.133,0.601-0.3,0.801-0.5c0.233-0.199,0.416-0.449,0.55-0.75
				c0.1-0.3,0.149-0.633,0.149-1c0-0.366-0.05-0.699-0.149-1c-0.101-0.266-0.267-0.5-0.5-0.699c-0.2-0.2-0.467-0.351-0.8-0.45
				c-0.301-0.101-0.65-0.15-1.051-0.15c-0.199,0-0.449,0-0.75,0l0.15-2.5H152.75 M183.7,203.6l-1.3-4h-1.351l2.15,5.5l-0.35,0.9
				c-0.233,0.467-0.584,0.7-1.051,0.7c-0.166,0-0.35-0.034-0.55-0.101v1c0.2,0.066,0.417,0.101,0.65,0.101
				c0.934,0,1.667-0.567,2.2-1.7l2.5-6.4H185.3l-1.35,4c-0.066,0.167-0.1,0.301-0.1,0.4H183.8
				C183.766,203.767,183.733,203.633,183.7,203.6 M190.7,200.8v-1.1c-0.4-0.167-0.866-0.25-1.4-0.25c-0.267,0-0.533,0.05-0.8,0.15
				c-0.267,0.066-0.517,0.167-0.75,0.3c-0.2,0.133-0.366,0.3-0.5,0.5c-0.133,0.2-0.2,0.434-0.2,0.7c0,0.2,0.034,0.384,0.101,0.551
				c0.066,0.166,0.167,0.316,0.3,0.449c0.1,0.134,0.25,0.25,0.45,0.351c0.167,0.1,0.366,0.183,0.6,0.25
				c0.167,0.066,0.334,0.134,0.5,0.2c0.134,0.066,0.267,0.133,0.4,0.199c0.1,0.066,0.184,0.134,0.25,0.2
				c0.066,0.101,0.1,0.217,0.1,0.351c0,0.434-0.383,0.649-1.149,0.649c-0.567,0-1.084-0.183-1.551-0.55v1.2
				c0.467,0.2,1,0.3,1.601,0.3c0.3,0,0.583-0.033,0.85-0.1c0.3-0.066,0.55-0.167,0.75-0.301c0.233-0.166,0.417-0.35,0.55-0.55
				c0.101-0.2,0.15-0.433,0.15-0.7c0-0.232-0.033-0.434-0.1-0.6c-0.067-0.166-0.167-0.316-0.301-0.45
				c-0.133-0.134-0.283-0.25-0.449-0.35c-0.2-0.101-0.417-0.2-0.65-0.3c-0.2-0.066-0.366-0.117-0.5-0.15
				c-0.133-0.066-0.25-0.133-0.35-0.2c-0.101-0.066-0.167-0.134-0.2-0.2c-0.066-0.066-0.101-0.166-0.101-0.3
				c0-0.1,0.034-0.183,0.101-0.25c0.033-0.1,0.1-0.167,0.2-0.2c0.1-0.066,0.217-0.116,0.35-0.149c0.1-0.034,0.233-0.05,0.4-0.05
				C189.85,200.4,190.3,200.533,190.7,200.8 M193.9,204.05c-0.101-0.167-0.15-0.399-0.15-0.7v-2.75h1.3v-1h-1.3v-1.65l-1.25,0.4
				v1.25H191.6v1h0.899v3.101c0,1,0.533,1.5,1.601,1.5c0.399,0,0.717-0.05,0.949-0.15v-1c-0.133,0.134-0.316,0.2-0.55,0.2
				C194.233,204.25,194.033,204.184,193.9,204.05 M200.7,202.7v-0.5c0-0.866-0.2-1.534-0.6-2c-0.4-0.5-0.983-0.75-1.75-0.75
				c-0.733,0-1.367,0.283-1.9,0.85c-0.5,0.534-0.75,1.217-0.75,2.05c0,0.934,0.233,1.65,0.7,2.15s1.1,0.75,1.899,0.75
				c0.834,0,1.5-0.166,2-0.5v-1c-0.5,0.367-1.05,0.55-1.649,0.55c-0.5,0-0.9-0.149-1.2-0.45c-0.3-0.266-0.467-0.649-0.5-1.149H200.7
				 M197.45,200.8c0.233-0.267,0.533-0.4,0.9-0.4c0.366,0,0.649,0.117,0.85,0.35c0.2,0.267,0.3,0.617,0.3,1.05h-2.55
				C197.016,201.367,197.183,201.033,197.45,200.8 M210.15,201.7c0-1.5-0.617-2.25-1.851-2.25c-0.8,0-1.399,0.383-1.8,1.149
				c-0.1-0.333-0.3-0.6-0.6-0.8c-0.267-0.233-0.601-0.35-1-0.35c-0.767,0-1.333,0.333-1.7,1h-0.05v-0.85h-1.25v5.5h1.25v-3
				c0-0.467,0.116-0.85,0.35-1.149c0.2-0.333,0.467-0.5,0.8-0.5c0.733,0,1.101,0.517,1.101,1.55v3.1h1.25v-3
				c0-0.434,0.116-0.816,0.35-1.149s0.5-0.5,0.8-0.5c0.4,0,0.684,0.134,0.851,0.399c0.167,0.268,0.25,0.684,0.25,1.25v3h1.25V201.7
				 M226.1,200.25c-0.5-0.533-1.167-0.8-2-0.8c-0.9,0-1.617,0.267-2.15,0.8s-0.8,1.25-0.8,2.15c0,0.866,0.25,1.55,0.75,2.05
				c0.533,0.533,1.217,0.8,2.05,0.8c0.867,0,1.566-0.267,2.1-0.8c0.5-0.534,0.75-1.233,0.75-2.101
				C226.8,201.45,226.567,200.75,226.1,200.25 M224,200.45c0.5,0,0.884,0.167,1.15,0.5s0.399,0.8,0.399,1.399
				c0,0.601-0.133,1.066-0.399,1.4s-0.65,0.5-1.15,0.5c-0.467,0-0.85-0.166-1.149-0.5c-0.267-0.334-0.4-0.783-0.4-1.35
				c0-0.601,0.134-1.066,0.4-1.4C223.15,200.633,223.533,200.45,224,200.45 M231.25,200.8v-1.2c-0.133-0.067-0.3-0.1-0.5-0.1
				c-0.333,0-0.616,0.117-0.85,0.35c-0.267,0.2-0.45,0.5-0.55,0.9H229.3v-1.15h-1.25v5.5h1.25v-2.649c0-0.567,0.134-1.017,0.4-1.351
				c0.233-0.333,0.533-0.5,0.9-0.5C230.9,200.6,231.117,200.666,231.25,200.8 M220.15,197.6c-0.467-0.233-1.083-0.35-1.851-0.35
				c-1.133,0-2.083,0.383-2.85,1.15s-1.15,1.767-1.15,3c0,1.133,0.334,2.05,1,2.75c0.7,0.732,1.601,1.1,2.7,1.1
				c0.867,0,1.584-0.15,2.15-0.45v-1.2c-0.533,0.334-1.15,0.5-1.851,0.5c-0.8,0-1.449-0.25-1.949-0.75c-0.467-0.5-0.7-1.166-0.7-2
				c0-0.899,0.267-1.616,0.8-2.149c0.5-0.534,1.167-0.8,2-0.8c0.634,0,1.2,0.15,1.7,0.45V197.6 M180.5,197.55
				c-0.366-0.2-0.95-0.3-1.75-0.3c-0.366,0-0.717,0.05-1.05,0.15c-0.333,0.067-0.633,0.2-0.9,0.4
				c-0.267,0.167-0.482,0.383-0.649,0.65c-0.167,0.267-0.25,0.583-0.25,0.95c0,0.3,0.05,0.55,0.149,0.75
				c0.101,0.233,0.233,0.434,0.4,0.6s0.35,0.316,0.55,0.45c0.233,0.167,0.483,0.316,0.75,0.45c0.233,0.1,0.467,0.199,0.7,0.3
				c0.2,0.1,0.384,0.216,0.55,0.35c0.134,0.101,0.25,0.217,0.351,0.351c0.1,0.133,0.149,0.283,0.149,0.449
				c0,0.367-0.133,0.634-0.399,0.801c-0.267,0.166-0.667,0.25-1.2,0.25c-0.167,0-0.333-0.018-0.5-0.051
				c-0.2-0.033-0.384-0.066-0.55-0.1c-0.2-0.066-0.384-0.15-0.551-0.25c-0.166-0.066-0.3-0.15-0.399-0.25v1.3
				c0.1,0.067,0.233,0.134,0.399,0.2c0.2,0.033,0.4,0.066,0.601,0.1c0.167,0.033,0.35,0.066,0.55,0.101
				c0.2,0.033,0.367,0.05,0.5,0.05c0.367,0,0.733-0.05,1.1-0.15c0.334-0.066,0.634-0.184,0.9-0.35s0.483-0.383,0.65-0.65
				c0.166-0.266,0.25-0.6,0.25-1c0-0.3-0.067-0.55-0.2-0.75c-0.101-0.232-0.233-0.449-0.4-0.649c-0.2-0.167-0.416-0.333-0.649-0.5
				s-0.483-0.317-0.75-0.45c-0.267-0.1-0.5-0.2-0.7-0.3c-0.2-0.1-0.367-0.2-0.5-0.3c-0.134-0.1-0.233-0.217-0.3-0.35
				c-0.067-0.133-0.101-0.283-0.101-0.45c0-0.2,0.033-0.35,0.101-0.45c0.1-0.133,0.233-0.25,0.399-0.35
				c0.134-0.066,0.3-0.117,0.5-0.15c0.167-0.033,0.351-0.05,0.55-0.05c0.7,0,1.268,0.15,1.7,0.45V197.55 M165.9,200.8v-1.2
				c-0.134-0.067-0.3-0.1-0.5-0.1c-0.333,0-0.617,0.117-0.851,0.35c-0.267,0.2-0.449,0.5-0.55,0.9h-0.05v-1.15h-1.25v5.5h1.25
				v-2.649c0-0.567,0.134-1.017,0.4-1.351c0.233-0.333,0.533-0.5,0.899-0.5C165.55,200.6,165.766,200.666,165.9,200.8 M170.1,200.8
				v-1.1c-0.4-0.167-0.867-0.25-1.4-0.25c-0.267,0-0.533,0.05-0.8,0.15c-0.267,0.066-0.517,0.167-0.75,0.3
				c-0.2,0.133-0.367,0.3-0.5,0.5c-0.134,0.2-0.2,0.434-0.2,0.7c0,0.2,0.033,0.384,0.1,0.551c0.067,0.166,0.167,0.316,0.301,0.449
				c0.1,0.134,0.25,0.25,0.449,0.351c0.167,0.1,0.367,0.183,0.601,0.25c0.167,0.066,0.333,0.134,0.5,0.2
				c0.133,0.066,0.267,0.133,0.399,0.199c0.101,0.066,0.184,0.134,0.25,0.2c0.067,0.101,0.101,0.217,0.101,0.351
				c0,0.434-0.384,0.649-1.15,0.649c-0.566,0-1.083-0.183-1.55-0.55v1.2c0.467,0.2,1,0.3,1.6,0.3c0.301,0,0.584-0.033,0.851-0.1
				c0.3-0.066,0.55-0.167,0.75-0.301c0.233-0.166,0.417-0.35,0.55-0.55c0.1-0.2,0.15-0.433,0.15-0.7c0-0.232-0.033-0.434-0.101-0.6
				c-0.066-0.166-0.166-0.316-0.3-0.45c-0.133-0.134-0.283-0.25-0.45-0.35c-0.2-0.101-0.416-0.2-0.649-0.3
				c-0.2-0.066-0.367-0.117-0.5-0.15c-0.134-0.066-0.25-0.133-0.351-0.2c-0.1-0.066-0.166-0.134-0.2-0.2
				c-0.066-0.066-0.1-0.166-0.1-0.3c0-0.1,0.033-0.183,0.1-0.25c0.034-0.1,0.101-0.167,0.2-0.2c0.101-0.066,0.217-0.116,0.351-0.149
				c0.1-0.034,0.233-0.05,0.399-0.05C169.25,200.4,169.7,200.533,170.1,200.8 M175.4,197.4h-1.15l-3.7,9h1.15L175.4,197.4
				 M147,200.6c0.3,0,0.517,0.066,0.65,0.2v-1.2c-0.134-0.067-0.3-0.1-0.5-0.1c-0.333,0-0.617,0.117-0.851,0.35
				c-0.267,0.2-0.449,0.5-0.55,0.9h-0.05v-1.15h-1.25v5.5h1.25v-2.649c0-0.567,0.134-1.017,0.4-1.351
				C146.334,200.767,146.634,200.6,147,200.6 M149.75,199.6h-1.25v5.5h1.25V199.6 M156.1,199.6H154.8l-1.3,3.85
				c-0.066,0.233-0.116,0.483-0.149,0.75c-0.033-0.233-0.101-0.483-0.2-0.75l-1.2-3.85h-1.35l2,5.5h1.35L156.1,199.6 M159.15,199.45
				c-0.733,0-1.367,0.283-1.9,0.85c-0.5,0.534-0.75,1.217-0.75,2.05c0,0.934,0.233,1.65,0.7,2.15s1.1,0.75,1.9,0.75
				c0.833,0,1.5-0.166,2-0.5v-1c-0.5,0.367-1.051,0.55-1.65,0.55c-0.5,0-0.9-0.149-1.2-0.45c-0.3-0.266-0.467-0.649-0.5-1.149h3.75
				v-0.5c0-0.866-0.2-1.534-0.6-2C160.5,199.7,159.917,199.45,159.15,199.45 M158.25,200.8c0.233-0.267,0.533-0.4,0.9-0.4
				c0.366,0,0.649,0.117,0.85,0.35c0.2,0.267,0.3,0.617,0.3,1.05h-2.55C157.817,201.367,157.983,201.033,158.25,200.8 M148.6,197.25
				c-0.134,0.133-0.2,0.3-0.2,0.5s0.066,0.367,0.2,0.5c0.166,0.133,0.35,0.2,0.55,0.2s0.383-0.067,0.55-0.2
				c0.134-0.133,0.2-0.3,0.2-0.5s-0.066-0.367-0.2-0.5c-0.167-0.133-0.35-0.2-0.55-0.2S148.766,197.117,148.6,197.25 M138.9,197.4
				h-2.2v7.7h2.15c1.3,0,2.35-0.366,3.149-1.1c0.8-0.7,1.2-1.65,1.2-2.85C143.2,198.65,141.766,197.4,138.9,197.4 M137.95,198.5h1.1
				c1.867,0,2.801,0.9,2.801,2.7c0,0.899-0.25,1.6-0.75,2.1c-0.5,0.467-1.2,0.7-2.101,0.7h-1.05V198.5z"/>
		</g>
	</g>
</g>
</svg>
