<?xml version="1.0" encoding="utf-8"?>
<!-- Generator: Adobe Illustrator 15.1.0, SVG Export Plug-In . SVG Version: 6.00 Build 0)  -->
<!DOCTYPE svg PUBLIC "-//W3C//DTD SVG 1.1//EN" "http://www.w3.org/Graphics/SVG/1.1/DTD/svg11.dtd">
<svg version="1.1" id="Layer_1" xmlns="http://www.w3.org/2000/svg" xmlns:xlink="http://www.w3.org/1999/xlink" x="0px" y="0px"
	 width="520.8px" height="71.925px" viewBox="29.15 129.275 520.8 71.925" enable-background="new 29.15 129.275 520.8 71.925"
	 xml:space="preserve">
<g transform="matrix( 1, 0, 0, 1, 0,0) ">
	<g>
		<g id="Layer3_0_FILL">
			<path fill="#769750" d="M549.95,184.6l-14.6-6.8l-34.3,0.8L391.7,178.2l-38.7-1.9l-21.149,12.05l27.75,5.7l60.5,7.15l53.25-7.15
				l59.05,3.7L549.95,184.6z"/>
		</g>
	</g>
</g>
<g transform="matrix( 1, 0, 0, 1, 0,0) ">
	<g>
		<g id="Layer2_0_FILL">
			
				<linearGradient id="SVGID_1_" gradientUnits="userSpaceOnUse" x1="594.1453" y1="-104.2739" x2="528.6476" y2="-103.074" gradientTransform="matrix(1 0 0 -1 -227.3457 81.5898)">
				<stop  offset="0" style="stop-color:#C4B07D"/>
				<stop  offset="1" style="stop-color:#FFFFFF"/>
			</linearGradient>
			<path fill="url(#SVGID_1_)" d="M367.25,188.35v-6.199H299.35v6.199H367.25z"/>
		</g>
	</g>
</g>
<g transform="matrix( 1, 0, 0, 1, 0,0) ">
	<g>
		<g id="Layer1_0_FILL">
			<path fill="#C48553" d="M401.551,155.7l1.149-0.35l-20.45-21.3L369.3,159.7l-0.05,2.25c0.257-0.104,0.507-0.22,0.75-0.351
				c4.229-1.886,8.812-3.319,13.75-4.3C389.236,156.2,395.169,155.667,401.551,155.7 M381.1,143.2l2-1.25v12.8l-2,0.3V143.2
				 M431.801,166.45L432,154.8l-18.05,3.2l0.25,9.75l12.95-1.05l3.6-0.3L431.801,166.45 M468.801,166l0.25-11.2l-16.2,2.65
				l0.149,9.8L468.801,166 M494.45,166.6v-10.35l-9.05,1.3v10.05L494.45,166.6z"/>
			<path fill="#C4B07D" d="M383.1,141.95l-2,1.25v11.85l2-0.3V141.95 M401.551,168.6V155.7c-6.382-0.034-12.314,0.5-17.801,1.6
				c-4.938,0.981-9.521,2.414-13.75,4.3c-0.243,0.131-0.493,0.247-0.75,0.351c-0.571,0.279-1.138,0.562-1.7,0.85l-0.1,9.45
				c0.896-0.264,1.796-0.514,2.7-0.75c0.614-0.166,1.231-0.332,1.85-0.5c2.26-0.521,4.543-0.973,6.851-1.35
				c0.863-0.135,1.729-0.268,2.6-0.4c2.212-0.287,4.445-0.504,6.7-0.65c1.161-0.076,2.328-0.143,3.5-0.199
				C394.909,168.32,398.209,168.387,401.551,168.6 M387.55,136.2l-5.899-6.45l-13.45,28.1l-0.65,4.95
				c0.562-0.287,1.129-0.57,1.7-0.85l0.05-2.25l12.95-25.65l20.45,21.3l3.351-0.9l7.85,1.8v-2.15l-5.35-0.85l-0.75-3.9l-7.301,0.85
				L387.55,136.2 M469.051,154.8v-3.55l-14.75,2.8l-1.45-0.25v3.65L469.051,154.8 M432,154.8v-4.25l-0.3-0.05l-16.5,3.8l-1.3-0.2
				v2.15l0.05,1.75L432,154.8 M494.45,156.25v-3.2l-3.149,0.45l-5.9,0.9v3.15L494.45,156.25 M430.75,166.4l-3.6,0.3l0.05,20.95V190
				l3.601,0.5L430.75,166.4 M381.45,169.25c-0.87,0.133-1.736,0.266-2.6,0.4v19.6c0.867,0.053,1.733,0.086,2.6,0.1V169.25 M372,171
				c-0.618,0.168-1.235,0.334-1.85,0.5v17.15c0.616,0.05,1.233,0.1,1.85,0.149V171 M391.65,168.4
				c-1.172,0.057-2.339,0.123-3.5,0.199v20.851c1.168,0.018,2.334,0.018,3.5,0V168.4z"/>
			<path fill="#9F8E65" d="M401.551,155.7V168.6l4.05-0.35l0.45-13.8l-3.351,0.9L401.551,155.7 M432,150.55v4.25l20.851,2.65v-3.65
				L432,150.55 M516.2,160.4v-2.8l-21.75-4.55v3.2L516.2,160.4 M401.551,168.6V189l3.899,0.1l0.15-20.85L401.551,168.6 M436,166.6
				l-4.199-0.149l-1.051-0.05l0.051,24.1l5.199-0.65v-2.199V166.6 M485.4,157.55v-3.15l-16.35-3.15v3.55L485.4,157.55z"/>
			<path fill="#544B41" d="M469.051,151.25l-0.15-0.05l-14.65-1.75l-1.399-0.3v4.65l1.45,0.25L469.051,151.25 M387.55,136.2
				l12.95,14l7.301-0.85l0.75,3.9l5.35,0.85v-4.3v4.3l1.3,0.2l16.5-3.8l0.3,0.05l20.851,3.25v-4.65h-0.101L387.55,136.2
				 M491.301,153.5l3.149-0.45l21.75,4.55l-32.25-14.3L491.301,153.5z"/>
			<path fill="#4A433C" d="M468.9,151.2l0.15,0.05l16.35,3.15l5.9-0.9l-7.351-10.2l-29.7,6.15L468.9,151.2 M401.551,168.6
				c-3.342-0.213-6.642-0.279-9.9-0.199v21.05c3.309-0.063,6.608-0.213,9.9-0.45V168.6 M388.15,189.45V168.6
				c-2.255,0.146-4.488,0.363-6.7,0.65v20.1C383.687,189.437,385.921,189.47,388.15,189.45 M378.85,169.65
				c-2.308,0.377-4.591,0.828-6.851,1.35v17.8c2.286,0.2,4.569,0.351,6.851,0.45V169.65 M370.15,171.5
				c-0.904,0.236-1.805,0.486-2.7,0.75l-0.2,16.1c0.967,0.105,1.934,0.205,2.9,0.301V171.5z"/>
			<path fill="#765036" d="M414.25,169.45l-8.649-1.2l-0.15,20.85l11.65-0.85l-0.25-0.5V169.8L414.25,169.45 M436,166.6v21.051
				l14.351,1.1l-0.2-21.6L436,166.6 M485.4,167.6l-16.6-1.6v24.55l16.6-2.2V167.6 M516.2,169.05l-21.75-2.45v23.2h21.75V169.05z"/>
			<path fill="#9A6842" d="M414.2,167.75l0.05,1.7l2.601,0.35v17.95l10.35-0.1l-0.05-20.95L414.2,167.75 M453,167.25l-2.85-0.1
				l0.2,21.6l18.45,1.8V166L453,167.25 M494.45,189.8v-23.2l-9.05,1v20.75L494.45,189.8z"/>
			<path fill="#835838" d="M413.95,158l-0.05-1.75l-7.85-1.8l-0.45,13.8l8.649,1.2l-0.05-1.7L413.95,158 M431.801,166.45L436,166.6
				l14.15,0.551l2.85,0.1l-0.149-9.8L432,154.8L431.801,166.45 M468.801,166l16.6,1.6v-10.05l-16.35-2.75L468.801,166 M516.2,169.05
				v-8.65l-21.75-4.15v10.35L516.2,169.05z"/>
		</g>
	</g>
	<g>
		
			<path id="Layer1_0_1_STROKES" fill="none" stroke="#D16540" stroke-linecap="round" stroke-linejoin="round" stroke-opacity="0" d="
			M516.2,169.05v-8.65l-21.75-4.15v10.35L516.2,169.05v20.75h-21.75l-9.05-1.45l-16.6,2.2l-18.45-1.8L436,187.65v2.199l-5.199,0.65
			L427.2,190v-2.35l-10.35,0.1l0.25,0.5l-11.65,0.875L401.551,189c-3.292,0.237-6.592,0.387-9.9,0.45
			c-1.166,0.018-2.332,0.026-3.5,0.024c-2.229,0.004-4.463-0.029-6.7-0.1c-0.866-0.031-1.732-0.064-2.6-0.1
			c-2.281-0.116-4.564-0.275-6.851-0.476c-0.616-0.05-1.233-0.1-1.85-0.149c-0.967-0.096-1.934-0.195-2.9-0.301l0.2-16.1l0.1-9.45
			l0.65-4.95l13.45-28.075l5.925,6.425l65.2,12.95l0.075,0.025l1.399,0.275l29.7-6.15l32.25,14.3v2.8 M494.45,153.05v3.2l-9.05,1.3
			v10.05l9.05-1v23.2 M491.301,153.525l3.149-0.475l21.75,4.55 M381.1,143.2l2-1.25v12.8l-2,0.3V143.2z M401.551,155.7V168.6
			l4.05-0.35l0.45-13.8l-3.351,0.925L401.551,155.7c-6.382-0.034-12.314,0.5-17.801,1.6c-4.938,0.981-9.513,2.422-13.725,4.325
			c-0.261,0.113-0.519,0.23-0.775,0.35c-0.571,0.264-1.138,0.538-1.7,0.825 M391.65,168.425c3.259-0.097,6.559-0.038,9.9,0.175V189
			 M388.15,168.6c1.161-0.076,2.328-0.135,3.5-0.175v21.025 M367.45,172.25c0.896-0.264,1.796-0.514,2.7-0.75
			c0.614-0.166,1.231-0.324,1.85-0.475c2.26-0.539,4.543-0.998,6.851-1.375c0.863-0.135,1.729-0.26,2.6-0.375
			c2.212-0.305,4.445-0.529,6.7-0.676v20.875 M369.25,161.975l0.05-2.274l12.95-25.65l20.45,21.325 M381.45,169.275v20.1
			 M378.85,169.65v19.625 M372,171.025V188.8 M370.15,171.5v17.15 M387.575,136.2l12.925,14l7.301-0.85l0.75,3.9l5.35,0.85v-4.3
			 M431.825,166.475l4.2,0.15l14.15,0.525l2.824,0.1l-0.149-9.8L432,154.8L431.825,166.475l-1.075-0.074l0.051,24.1 M432,154.8
			v-4.25l-0.3-0.05l-16.5,3.8l-1.3-0.2v2.15l0.05,1.75L432,154.8z M430.75,166.4l-3.574,0.3l0.024,20.95 M406.051,154.45l7.85,1.8
			 M414.2,167.75l0.05,1.7l2.601,0.35v17.95 M405.6,168.25l8.649,1.2 M413.95,158l0.25,9.75l12.976-1.05 M405.6,168.25l-0.15,20.875
			 M436.025,166.625L436,187.65 M485.4,154.4v3.15l-16.35-2.75l-0.25,11.2l16.6,1.6v20.75 M469.051,154.8v-3.55l-14.75,2.8
			l-1.45-0.225v3.625L469.051,154.8z M454.25,149.45l14.676,1.775l0.125,0.025l16.35,3.15l5.9-0.875L483.95,143.3 M452.85,153.825
			v-4.65 M450.35,188.75l-0.175-21.6 M468.801,190.55V166L453,167.25 M432,150.55l20.851,3.275"/>
	</g>
</g>
<g transform="matrix( 1, 0, 0, 1, 0,0) ">
	<g>
		<g id="Layer0_0_FILL">
			<path d="M69.15,178.45l-0.8-0.4l-0.851,1.8l0.15,0.25l0.55,0.7L69.15,178.45 M57.95,179.35l-0.8-0.399l-0.851,1.8l0.15,0.25
				l0.55,0.7L57.95,179.35 M35.15,180.25l-0.8-0.4L33.5,181.65l0.15,0.25l0.55,0.699L35.15,180.25 M130.7,180.1l0.55,0.7l0.95-2.35
				l-0.8-0.4l-0.851,1.8L130.7,180.1 M118.85,177.6L118,179.4l0.15,0.25l0.55,0.699l0.95-2.35L118.85,177.6 M209.45,181.6
				l-0.8-0.399L207.8,183l0.15,0.25l0.55,0.7L209.45,181.6 M171.25,181l0.55,0.7l0.95-2.351l-0.8-0.399l-0.85,1.8L171.25,181
				 M196.9,181.15l-0.8-0.4l-0.851,1.8l0.15,0.25l0.55,0.7L196.9,181.15 M168.6,181.25l-0.801-0.4l-0.85,1.801l0.15,0.25l0.55,0.699
				L168.6,181.25 M307.65,182.1l0.149,0.25l0.551,0.7l0.949-2.35l-0.8-0.4L307.65,182.1 M295.7,181.45l0.55,0.7l0.95-2.351
				l-0.8-0.399l-0.851,1.8L295.7,181.45 M268,177.35l-0.8-0.399l-0.85,1.8L266.5,179l0.55,0.7L268,177.35 M273.05,177.55l-0.8-0.399
				l-0.85,1.8l0.149,0.25l0.551,0.7L273.05,177.55 M357.15,181.45l0.55,0.7l0.95-2.351l-0.8-0.399L357,181.2L357.15,181.45z"/>
		</g>
	</g>
	<g>
		<path id="Layer0_0_1_STROKES" fill="none" stroke="#C4C4C4" stroke-linecap="round" stroke-linejoin="round" d="M362.05,181.1
			l1.801-1.949v-1c-0.267,0-0.5-0.101-0.7-0.301c-0.167-0.166-0.25-0.366-0.25-0.6c0-0.267,0.083-0.5,0.25-0.7
			c0.2-0.167,0.434-0.25,0.7-0.25c0.233,0,0.433,0.083,0.6,0.25c0.2,0.2,0.3,0.434,0.3,0.7c0,0.233-0.1,0.434-0.3,0.6
			c-0.167,0.2-0.366,0.301-0.6,0.301 M362.6,185.55l1.25-2.95v-3.449l1.55,2.199 M363.85,182.6l1.1,3.101 M173.5,178.85l1.8-1.949
			v-1c-0.267,0-0.5-0.101-0.699-0.301c-0.167-0.166-0.25-0.366-0.25-0.6c0-0.267,0.083-0.5,0.25-0.7
			c0.199-0.167,0.433-0.25,0.699-0.25c0.233,0,0.434,0.083,0.601,0.25c0.2,0.2,0.3,0.434,0.3,0.7c0,0.233-0.1,0.434-0.3,0.6
			c-0.167,0.2-0.367,0.301-0.601,0.301 M175.3,176.9l1.551,2.199 M174.05,183.3l1.25-2.95V176.9 M175.3,180.35l1.101,3.101
			 M183.35,178.85l1.8-1.949v-1c-0.267,0-0.5-0.101-0.7-0.301c-0.167-0.166-0.25-0.366-0.25-0.6c0-0.267,0.083-0.5,0.25-0.7
			c0.2-0.167,0.434-0.25,0.7-0.25c0.233,0,0.434,0.083,0.6,0.25c0.2,0.2,0.3,0.434,0.3,0.7c0,0.233-0.1,0.434-0.3,0.6
			c-0.166,0.2-0.366,0.301-0.6,0.301 M185.15,176.9l1.55,2.199 M183.9,183.3l1.25-2.95V176.9 M185.15,180.35l1.1,3.101 M209.8,182
			l1.801-1.95v-1c-0.267,0-0.5-0.1-0.7-0.3c-0.167-0.166-0.25-0.367-0.25-0.6c0-0.268,0.083-0.5,0.25-0.7
			c0.2-0.167,0.434-0.25,0.7-0.25c0.233,0,0.433,0.083,0.6,0.25c0.2,0.2,0.3,0.433,0.3,0.7c0,0.232-0.1,0.434-0.3,0.6
			c-0.167,0.2-0.366,0.3-0.6,0.3 M210.35,186.45l1.25-2.95v-3.45l1.55,2.2 M211.6,183.5l1.1,3.1 M237.15,179.3l1.8-1.95v-1
			c-0.267,0-0.5-0.1-0.7-0.3c-0.166-0.167-0.25-0.366-0.25-0.6c0-0.267,0.084-0.5,0.25-0.7c0.2-0.166,0.434-0.25,0.7-0.25
			c0.233,0,0.434,0.084,0.6,0.25c0.2,0.2,0.301,0.434,0.301,0.7c0,0.233-0.101,0.433-0.301,0.6c-0.166,0.2-0.366,0.3-0.6,0.3
			 M237.7,183.75l1.25-2.95v-3.45l1.55,2.2 M297.55,180.65l1.801-1.95v-1c-0.267,0-0.5-0.101-0.7-0.3
			c-0.167-0.167-0.25-0.367-0.25-0.601c0-0.267,0.083-0.5,0.25-0.7c0.2-0.166,0.434-0.25,0.7-0.25c0.233,0,0.433,0.084,0.6,0.25
			c0.2,0.2,0.3,0.434,0.3,0.7c0,0.233-0.1,0.434-0.3,0.601c-0.167,0.199-0.366,0.3-0.6,0.3 M300.9,180.9l-1.55-2.2v3.45l1.1,3.1
			 M298.1,185.1l1.25-2.949 M310.55,181.1l1.801-1.949v-1c-0.267,0-0.5-0.101-0.7-0.301c-0.167-0.166-0.25-0.366-0.25-0.6
			c0-0.267,0.083-0.5,0.25-0.7c0.2-0.167,0.434-0.25,0.7-0.25c0.233,0,0.433,0.083,0.6,0.25c0.2,0.2,0.3,0.434,0.3,0.7
			c0,0.233-0.1,0.434-0.3,0.6c-0.167,0.2-0.366,0.301-0.6,0.301 M311.1,185.55l1.25-2.95v-3.449l1.55,2.199 M312.35,182.6l1.1,3.101
			 M36.35,182l1.8-1.95v-1c-0.267,0-0.5-0.1-0.7-0.3c-0.167-0.166-0.25-0.367-0.25-0.6c0-0.268,0.083-0.5,0.25-0.7
			c0.2-0.167,0.434-0.25,0.7-0.25c0.233,0,0.434,0.083,0.6,0.25c0.2,0.2,0.3,0.433,0.3,0.7c0,0.232-0.1,0.434-0.3,0.6
			c-0.166,0.2-0.366,0.3-0.6,0.3 M38.15,180.05l1.55,2.2 M36.9,186.45l1.25-2.95v-3.45 M38.15,183.5l1.1,3.1 M70.85,180.2l1.8-1.95
			v-1c-0.267,0-0.5-0.1-0.7-0.3c-0.167-0.167-0.25-0.366-0.25-0.601c0-0.266,0.083-0.5,0.25-0.699c0.2-0.167,0.434-0.25,0.7-0.25
			c0.233,0,0.434,0.083,0.6,0.25c0.2,0.199,0.3,0.434,0.3,0.699c0,0.234-0.1,0.434-0.3,0.601c-0.166,0.2-0.366,0.3-0.6,0.3
			 M71.4,184.65l1.25-2.95v-3.45l1.55,2.2 M72.65,181.7l1.1,3.1 M59.65,180.65l1.8-1.95v-1c-0.267,0-0.5-0.101-0.7-0.3
			c-0.166-0.167-0.25-0.367-0.25-0.601c0-0.267,0.084-0.5,0.25-0.7c0.2-0.166,0.434-0.25,0.7-0.25c0.233,0,0.434,0.084,0.6,0.25
			c0.2,0.2,0.301,0.434,0.301,0.7c0,0.233-0.101,0.434-0.301,0.601c-0.166,0.199-0.366,0.3-0.6,0.3 M63,180.9l-1.55-2.2v3.45
			l1.1,3.1 M60.2,185.1l1.25-2.949 M100,181.55l1.8-1.95v-1c-0.267,0-0.5-0.1-0.699-0.3c-0.167-0.167-0.25-0.366-0.25-0.6
			c0-0.267,0.083-0.5,0.25-0.7c0.199-0.166,0.433-0.25,0.699-0.25c0.233,0,0.434,0.084,0.601,0.25c0.2,0.2,0.3,0.434,0.3,0.7
			c0,0.233-0.1,0.433-0.3,0.6c-0.167,0.2-0.367,0.3-0.601,0.3 M87.75,180.65l1.8-1.95v-1c-0.267,0-0.5-0.101-0.699-0.3
			c-0.167-0.167-0.25-0.367-0.25-0.601c0-0.267,0.083-0.5,0.25-0.7c0.199-0.166,0.433-0.25,0.699-0.25
			c0.233,0,0.434,0.084,0.601,0.25c0.2,0.2,0.3,0.434,0.3,0.7c0,0.233-0.1,0.434-0.3,0.601c-0.167,0.199-0.367,0.3-0.601,0.3
			 M88.3,185.1l1.25-2.949v-3.45l1.551,2.2 M89.55,182.15l1.101,3.1 M100.55,186l1.25-2.95v-3.45l1.551,2.2 M101.8,183.05
			l1.101,3.101 M133.4,179.75l1.8-1.95v-1c-0.267,0-0.5-0.1-0.7-0.3c-0.166-0.166-0.25-0.367-0.25-0.6c0-0.268,0.084-0.5,0.25-0.7
			c0.2-0.167,0.434-0.25,0.7-0.25c0.233,0,0.434,0.083,0.6,0.25c0.2,0.2,0.301,0.433,0.301,0.7c0,0.232-0.101,0.434-0.301,0.6
			c-0.166,0.2-0.366,0.3-0.6,0.3 M133.95,184.2l1.25-2.95v-3.45l1.55,2.2 M135.2,181.25l1.1,3.1 M120.85,179.75l1.8-1.95v-1
			c-0.267,0-0.5-0.1-0.7-0.3c-0.167-0.166-0.25-0.367-0.25-0.6c0-0.268,0.083-0.5,0.25-0.7c0.2-0.167,0.434-0.25,0.7-0.25
			c0.233,0,0.434,0.083,0.6,0.25c0.2,0.2,0.3,0.433,0.3,0.7c0,0.232-0.1,0.434-0.3,0.6c-0.166,0.2-0.366,0.3-0.6,0.3 M124.2,180
			l-1.55-2.2v3.45l1.1,3.1 M121.4,184.2l1.25-2.95"/>
	</g>
	<g>
		<path id="Layer0_0_2_STROKES" fill="none" stroke="#232323" stroke-linecap="round" stroke-linejoin="round" d="M216,179.35
			c-0.267,0-0.483-0.1-0.649-0.3c-0.2-0.167-0.301-0.366-0.301-0.6c0-0.267,0.101-0.5,0.301-0.7c0.166-0.166,0.383-0.25,0.649-0.25
			c0.233,0,0.45,0.084,0.65,0.25c0.167,0.2,0.25,0.434,0.25,0.7c0,0.233-0.083,0.433-0.25,0.6
			C216.45,179.25,216.233,179.35,216,179.35v1l2.7,2.051l2.7-2.051v-1c-0.233,0-0.45-0.1-0.65-0.3c-0.166-0.167-0.25-0.366-0.25-0.6
			c0-0.267,0.084-0.5,0.25-0.7c0.2-0.166,0.417-0.25,0.65-0.25c0.267,0,0.483,0.084,0.649,0.25c0.2,0.2,0.301,0.434,0.301,0.7
			c0,0.233-0.101,0.433-0.301,0.6c-0.166,0.2-0.383,0.3-0.649,0.3 M214.85,186.9L216,183.8v-3.45l-1.75,3.4 M220.2,186.75l1.2-2.95
			v-3.45l1.75,3.4 M221.4,183.8l1.1,3.101 M217.2,186.75l-1.2-2.95 M253.55,176.35c-0.267,0-0.482-0.1-0.649-0.3
			c-0.2-0.167-0.3-0.366-0.3-0.6c0-0.267,0.1-0.5,0.3-0.7c0.167-0.166,0.383-0.25,0.649-0.25c0.233,0,0.45,0.084,0.65,0.25
			c0.167,0.2,0.25,0.434,0.25,0.7c0,0.233-0.083,0.433-0.25,0.6C254,176.25,253.783,176.35,253.55,176.35v1l2.7,2.051l2.7-2.051v-1
			c-0.233,0-0.45-0.1-0.65-0.3c-0.166-0.167-0.25-0.366-0.25-0.6c0-0.267,0.084-0.5,0.25-0.7c0.2-0.166,0.417-0.25,0.65-0.25
			c0.267,0,0.483,0.084,0.65,0.25c0.199,0.2,0.3,0.434,0.3,0.7c0,0.233-0.101,0.433-0.3,0.6c-0.167,0.2-0.384,0.3-0.65,0.3
			 M254.75,183.75l-1.2-2.95L252.4,183.9 M260.7,180.75l-1.75-3.4v3.45l1.1,3.101 M253.55,180.8v-3.45l-1.75,3.4 M257.75,183.75
			l1.2-2.95 M317.2,178c-0.267,0-0.483-0.1-0.65-0.3c-0.199-0.167-0.3-0.366-0.3-0.601c0-0.266,0.101-0.5,0.3-0.699
			c0.167-0.167,0.384-0.25,0.65-0.25c0.233,0,0.45,0.083,0.65,0.25c0.166,0.199,0.25,0.434,0.25,0.699
			c0,0.234-0.084,0.434-0.25,0.601C317.65,177.9,317.433,178,317.2,178v1l2.7,2.05l2.7-2.05v-1c-0.233,0-0.45-0.1-0.65-0.3
			c-0.167-0.167-0.25-0.366-0.25-0.601c0-0.266,0.083-0.5,0.25-0.699c0.2-0.167,0.417-0.25,0.65-0.25
			c0.267,0,0.483,0.083,0.649,0.25c0.2,0.199,0.3,0.434,0.3,0.699c0,0.234-0.1,0.434-0.3,0.601c-0.166,0.2-0.383,0.3-0.649,0.3
			 M318.4,185.4l-1.2-2.95l-1.15,3.1 M324.35,182.4l-1.75-3.4v3.45l1.1,3.1 M321.4,185.4l1.2-2.95 M317.2,182.45V179l-1.75,3.4
			 M78.85,178.45c0.233,0,0.449-0.101,0.649-0.3c0.167-0.167,0.25-0.367,0.25-0.601c0-0.267-0.083-0.5-0.25-0.7
			c-0.2-0.166-0.416-0.25-0.649-0.25c-0.267,0-0.483,0.084-0.65,0.25c-0.2,0.2-0.3,0.434-0.3,0.7c0,0.233,0.1,0.434,0.3,0.601
			C78.367,178.35,78.584,178.45,78.85,178.45v1l2.699,2.05l2.7-2.05v-1c-0.233,0-0.45-0.101-0.649-0.3
			c-0.167-0.167-0.25-0.367-0.25-0.601c0-0.267,0.083-0.5,0.25-0.7c0.199-0.166,0.416-0.25,0.649-0.25
			c0.267,0,0.483,0.084,0.65,0.25c0.2,0.2,0.3,0.434,0.3,0.7c0,0.233-0.1,0.434-0.3,0.601c-0.167,0.199-0.384,0.3-0.65,0.3
			 M77.7,186l1.15-3.1v-3.45l-1.75,3.399 M80.05,185.85L78.85,182.9 M83.05,185.85l1.2-2.949v-3.45L86,182.85 M84.25,182.9
			l1.101,3.1 M140.1,179.05c0.233,0,0.449-0.1,0.649-0.3c0.167-0.166,0.25-0.367,0.25-0.6c0-0.268-0.083-0.5-0.25-0.7
			c-0.2-0.167-0.416-0.25-0.649-0.25c-0.267,0-0.483,0.083-0.65,0.25c-0.2,0.2-0.3,0.433-0.3,0.7c0,0.232,0.1,0.434,0.3,0.6
			C139.617,178.95,139.834,179.05,140.1,179.05v1l2.699,2.05l2.7-2.05v-1c-0.233,0-0.45-0.1-0.649-0.3
			c-0.167-0.166-0.25-0.367-0.25-0.6c0-0.268,0.083-0.5,0.25-0.7c0.199-0.167,0.416-0.25,0.649-0.25c0.267,0,0.483,0.083,0.65,0.25
			c0.2,0.2,0.3,0.433,0.3,0.7c0,0.232-0.1,0.434-0.3,0.6c-0.167,0.2-0.384,0.3-0.65,0.3 M138.95,186.6l1.15-3.1v-3.45l-1.75,3.4
			 M141.3,186.45l-1.199-2.95 M144.3,186.45l1.2-2.95v-3.45l1.75,3.4 M145.5,183.5l1.101,3.1"/>
	</g>
	<g>
		<path id="Layer0_0_3_STROKES" fill="none" stroke="#3F3F3F" stroke-linecap="round" stroke-linejoin="round" d="M353.15,181.75
			l1.8-1.95v-0.85c-0.1-0.101-0.167-0.167-0.2-0.2c-0.166-0.166-0.25-0.367-0.25-0.6c0-0.268,0.084-0.5,0.25-0.7
			c0.2-0.167,0.434-0.25,0.7-0.25c0.233,0,0.434,0.083,0.6,0.25c0.2,0.2,0.301,0.433,0.301,0.7c0,0.232-0.101,0.434-0.301,0.6
			c-0.166,0.2-0.366,0.3-0.6,0.3c-0.167,0-0.333-0.033-0.5-0.1 M357.15,181.45l-0.4,0.3c-0.833,0.066-1.433-0.584-1.8-1.95v3.45
			l1.1,3.1 M353.7,186.2l1.25-2.95 M167.25,181.3l1.8-1.95v-0.85c-0.1-0.1-0.166-0.166-0.199-0.2c-0.167-0.167-0.25-0.366-0.25-0.6
			c0-0.267,0.083-0.5,0.25-0.7c0.199-0.166,0.433-0.25,0.699-0.25c0.233,0,0.434,0.084,0.601,0.25c0.2,0.2,0.3,0.434,0.3,0.7
			c0,0.233-0.1,0.433-0.3,0.6c-0.167,0.2-0.367,0.3-0.601,0.3c-0.166,0-0.333-0.033-0.5-0.1 M163.1,183.2l1.8-1.95v-0.85
			c-0.101-0.101-0.167-0.167-0.2-0.2c-0.167-0.167-0.25-0.366-0.25-0.601c0-0.266,0.083-0.5,0.25-0.699
			c0.2-0.167,0.434-0.25,0.7-0.25c0.233,0,0.434,0.083,0.6,0.25c0.2,0.199,0.3,0.434,0.3,0.699c0,0.234-0.1,0.434-0.3,0.601
			c-0.166,0.2-0.366,0.3-0.6,0.3c-0.167,0-0.333-0.033-0.5-0.1 M164.9,181.25c0.366,1.367,0.967,2.017,1.8,1.95l0.4-0.3
			 M163.65,187.65l1.25-2.95v-3.45 M171.25,181l-0.399,0.3c-0.834,0.067-1.434-0.583-1.801-1.95v3.45l1.101,3.101 M167.8,185.75
			l1.25-2.95 M164.9,184.7l1.1,3.1 M191.4,183.1l1.8-1.949V180.3c-0.1-0.1-0.167-0.167-0.2-0.2c-0.166-0.166-0.25-0.366-0.25-0.6
			c0-0.267,0.084-0.5,0.25-0.7c0.2-0.167,0.434-0.25,0.7-0.25c0.233,0,0.434,0.083,0.6,0.25c0.2,0.2,0.301,0.434,0.301,0.7
			c0,0.233-0.101,0.434-0.301,0.6c-0.166,0.2-0.366,0.301-0.6,0.301c-0.167,0-0.333-0.033-0.5-0.101 M195.4,182.8l-0.4,0.3
			c-0.833,0.066-1.433-0.583-1.8-1.949v3.449l1.1,3.101 M191.95,187.55l1.25-2.95 M203.95,183.55l1.8-1.95v-0.85
			c-0.1-0.1-0.166-0.166-0.2-0.2c-0.166-0.167-0.25-0.366-0.25-0.6c0-0.267,0.084-0.5,0.25-0.7c0.2-0.166,0.434-0.25,0.7-0.25
			c0.233,0,0.434,0.084,0.601,0.25c0.199,0.2,0.3,0.434,0.3,0.7c0,0.233-0.101,0.433-0.3,0.6c-0.167,0.2-0.367,0.3-0.601,0.3
			c-0.166,0-0.333-0.033-0.5-0.1 M205.75,181.6c0.367,1.367,0.967,2.018,1.8,1.95l0.4-0.3 M204.5,188l1.25-2.95v-3.45
			 M205.75,185.05l1.101,3.101 M267.55,179.5l1.801-1.95v-0.85c-0.101-0.101-0.167-0.167-0.2-0.2c-0.167-0.166-0.25-0.367-0.25-0.6
			c0-0.268,0.083-0.5,0.25-0.7c0.2-0.167,0.434-0.25,0.7-0.25c0.233,0,0.433,0.083,0.6,0.25c0.2,0.2,0.3,0.433,0.3,0.7
			c0,0.232-0.1,0.434-0.3,0.6c-0.167,0.2-0.366,0.3-0.6,0.3c-0.167,0-0.334-0.033-0.5-0.1 M271.55,179.2l-0.399,0.3
			c-0.833,0.066-1.434-0.584-1.8-1.95V181l1.1,3.1 M262.5,179.3l1.8-1.95v-0.85c-0.1-0.1-0.166-0.166-0.199-0.2
			c-0.167-0.167-0.25-0.366-0.25-0.6c0-0.267,0.083-0.5,0.25-0.7c0.199-0.166,0.433-0.25,0.699-0.25c0.233,0,0.434,0.084,0.601,0.25
			c0.2,0.2,0.3,0.434,0.3,0.7c0,0.233-0.1,0.433-0.3,0.6c-0.167,0.2-0.367,0.3-0.601,0.3c-0.166,0-0.333-0.033-0.5-0.1 M266.5,179
			l-0.399,0.3c-0.834,0.067-1.434-0.583-1.801-1.95v3.45l1.101,3.101 M268.1,183.95l1.25-2.95 M263.05,183.75l1.25-2.95
			 M29.65,182.2l1.8-1.95v-0.85c-0.1-0.101-0.167-0.167-0.2-0.2c-0.166-0.167-0.25-0.366-0.25-0.601c0-0.266,0.084-0.5,0.25-0.699
			c0.2-0.167,0.434-0.25,0.7-0.25c0.233,0,0.434,0.083,0.6,0.25c0.2,0.199,0.301,0.434,0.301,0.699c0,0.234-0.101,0.434-0.301,0.601
			c-0.166,0.2-0.366,0.3-0.6,0.3c-0.167,0-0.333-0.033-0.5-0.1 M33.65,181.9l-0.4,0.3c-0.833,0.066-1.433-0.583-1.8-1.95v3.45
			l1.1,3.1 M30.2,186.65l1.25-2.95 M56.45,181l-0.4,0.3c-0.833,0.067-1.433-0.583-1.8-1.95v3.45l1.101,3.101 M52.45,181.3l1.8-1.95
			v-0.85c-0.1-0.1-0.166-0.166-0.2-0.2c-0.166-0.167-0.25-0.366-0.25-0.6c0-0.267,0.084-0.5,0.25-0.7c0.2-0.166,0.434-0.25,0.7-0.25
			c0.233,0,0.434,0.084,0.601,0.25c0.199,0.2,0.3,0.434,0.3,0.7c0,0.233-0.101,0.433-0.3,0.6c-0.167,0.2-0.367,0.3-0.601,0.3
			c-0.166,0-0.333-0.033-0.5-0.1 M53,185.75l1.25-2.95 M63.65,180.4l1.8-1.95V177.6c-0.1-0.1-0.167-0.166-0.2-0.199
			c-0.166-0.167-0.25-0.367-0.25-0.601c0-0.267,0.084-0.5,0.25-0.7c0.2-0.166,0.434-0.25,0.7-0.25c0.233,0,0.434,0.084,0.6,0.25
			c0.2,0.2,0.301,0.434,0.301,0.7c0,0.233-0.101,0.434-0.301,0.601c-0.166,0.199-0.366,0.3-0.6,0.3c-0.167,0-0.333-0.034-0.5-0.101
			 M67.65,180.1l-0.4,0.301c-0.833,0.066-1.433-0.584-1.8-1.95v3.45l1.1,3.1 M64.2,184.85l1.25-2.949 M118.15,179.65l-0.4,0.3
			c-0.833,0.066-1.433-0.583-1.8-1.95v3.45l1.1,3.1 M114.15,179.95l1.8-1.95v-0.85c-0.1-0.101-0.167-0.167-0.2-0.2
			c-0.166-0.167-0.25-0.366-0.25-0.601c0-0.266,0.084-0.5,0.25-0.699c0.2-0.167,0.434-0.25,0.7-0.25c0.233,0,0.434,0.083,0.6,0.25
			c0.2,0.199,0.301,0.434,0.301,0.699c0,0.234-0.101,0.434-0.301,0.601c-0.166,0.2-0.366,0.3-0.6,0.3c-0.167,0-0.333-0.033-0.5-0.1
			 M114.7,184.4l1.25-2.95 M126.7,180.4l1.8-1.95V177.6c-0.1-0.1-0.166-0.166-0.2-0.199c-0.166-0.167-0.25-0.367-0.25-0.601
			c0-0.267,0.084-0.5,0.25-0.7c0.2-0.166,0.434-0.25,0.7-0.25c0.233,0,0.434,0.084,0.601,0.25c0.199,0.2,0.3,0.434,0.3,0.7
			c0,0.233-0.101,0.434-0.3,0.601c-0.167,0.199-0.367,0.3-0.601,0.3c-0.166,0-0.333-0.034-0.5-0.101 M130.7,180.1l-0.4,0.301
			c-0.833,0.066-1.433-0.584-1.8-1.95v3.45l1.101,3.1 M127.25,184.85l1.25-2.949"/>
	</g>
	<g>
		<path id="Layer0_0_4_STROKES" fill="none" stroke="#565656" stroke-linecap="round" stroke-linejoin="round" d="M244.35,182.95
			l1.1-2.2l0.05-0.95c-0.066,0-0.133-0.017-0.2-0.05c-0.133-0.1-0.25-0.184-0.35-0.25c-0.167-0.166-0.25-0.367-0.25-0.6
			c0-0.268,0.083-0.5,0.25-0.7c0.233-0.167,0.467-0.25,0.7-0.25s0.434,0.083,0.6,0.25c0.2,0.2,0.3,0.433,0.3,0.7
			c0,0.232-0.1,0.434-0.3,0.6c-0.166,0.2-0.366,0.3-0.6,0.3c-0.033,0-0.083,0-0.15,0 M245.45,180.75l2.4,1.7 M247.7,185.75
			c-0.633-0.8-1.383-1.316-2.25-1.55v-3.45 M245.45,184.2c1.566-0.134,2.75-0.083,3.55,0.149 M106.75,183.4l1.101-2.2l0.05-0.95
			c-0.066,0-0.134-0.017-0.2-0.05c-0.133-0.101-0.25-0.184-0.35-0.25c-0.167-0.167-0.25-0.366-0.25-0.601
			c0-0.266,0.083-0.5,0.25-0.699c0.233-0.167,0.467-0.25,0.699-0.25c0.233,0,0.434,0.083,0.601,0.25c0.2,0.199,0.3,0.434,0.3,0.699
			c0,0.234-0.1,0.434-0.3,0.601c-0.167,0.2-0.367,0.3-0.601,0.3c-0.033,0-0.083,0-0.149,0 M110.1,186.2
			c-0.634-0.8-1.384-1.317-2.25-1.55v-3.45l2.399,1.7 M107.85,184.65c1.566-0.134,2.75-0.084,3.55,0.149"/>
	</g>
	<g>
		<path id="Layer0_0_5_STROKES" fill="none" stroke="#858585" stroke-linecap="round" stroke-linejoin="round" d="M347.3,181.1
			l1.801-1.949v-1c-0.267,0-0.5-0.101-0.7-0.301c-0.167-0.166-0.25-0.366-0.25-0.6c0-0.267,0.083-0.5,0.25-0.7
			c0.2-0.167,0.434-0.25,0.7-0.25c0.233,0,0.433,0.083,0.6,0.25c0.2,0.2,0.3,0.434,0.3,0.7c0,0.233-0.1,0.434-0.3,0.6
			c-0.167,0.2-0.366,0.301-0.6,0.301 M347.85,185.55l1.25-2.95v-3.449l1.55,2.199 M349.1,182.6l1.1,3.101"/>
	</g>
	<g>
		<path id="Layer0_0_6_STROKES" fill="none" stroke="#747474" stroke-linecap="round" stroke-linejoin="round" d="M337,179.3
			l1.8-1.95v-1c-0.267,0-0.5-0.1-0.699-0.3c-0.167-0.167-0.25-0.366-0.25-0.6c0-0.267,0.083-0.5,0.25-0.7
			c0.199-0.166,0.433-0.25,0.699-0.25c0.233,0,0.434,0.084,0.601,0.25c0.2,0.2,0.3,0.434,0.3,0.7c0,0.233-0.1,0.433-0.3,0.6
			c-0.167,0.2-0.367,0.3-0.601,0.3 M337.55,183.75l1.25-2.95v-3.45l1.551,2.2 M338.8,180.8l1.101,3.101"/>
	</g>
	<g>
		<path id="Layer0_0_7_STROKES" fill="none" stroke="#777777" stroke-linecap="round" stroke-linejoin="round" d="M326.1,180.5
			l1.8-1.95v-1c-0.267,0-0.5-0.1-0.7-0.3c-0.167-0.166-0.25-0.367-0.25-0.6c0-0.268,0.083-0.5,0.25-0.7
			c0.2-0.167,0.434-0.25,0.7-0.25c0.233,0,0.434,0.083,0.6,0.25c0.2,0.2,0.3,0.433,0.3,0.7c0,0.232-0.1,0.434-0.3,0.6
			c-0.166,0.2-0.366,0.3-0.6,0.3 M329.45,180.75l-1.55-2.2V182l1.1,3.1 M326.65,184.95l1.25-2.95"/>
	</g>
	<g>
		<path id="Layer0_0_8_STROKES" fill="none" stroke="#5D5D5D" stroke-linecap="round" stroke-linejoin="round" d="M331.85,178.85
			l1.8-1.949v-1c-0.267,0-0.5-0.101-0.7-0.301c-0.167-0.166-0.25-0.366-0.25-0.6c0-0.267,0.083-0.5,0.25-0.7
			c0.2-0.167,0.434-0.25,0.7-0.25c0.233,0,0.434,0.083,0.6,0.25c0.2,0.2,0.3,0.434,0.3,0.7c0,0.233-0.1,0.434-0.3,0.6
			c-0.166,0.2-0.366,0.301-0.6,0.301 M332.4,183.3l1.25-2.95V176.9l1.55,2.199 M333.65,180.35l1.1,3.101"/>
	</g>
	<g>
		<path id="Layer0_0_9_STROKES" fill="none" stroke="#4A4A4A" stroke-linecap="round" stroke-linejoin="round" d="M303.8,182.65
			l1.801-1.95v-0.851c-0.101-0.1-0.167-0.166-0.2-0.199c-0.167-0.167-0.25-0.367-0.25-0.601c0-0.267,0.083-0.5,0.25-0.7
			c0.2-0.166,0.434-0.25,0.7-0.25c0.233,0,0.433,0.084,0.6,0.25c0.2,0.2,0.3,0.434,0.3,0.7c0,0.233-0.1,0.434-0.3,0.601
			c-0.167,0.199-0.366,0.3-0.6,0.3c-0.167,0-0.334-0.034-0.5-0.101 M307.8,182.35l-0.399,0.301c-0.833,0.066-1.434-0.584-1.8-1.95
			v3.45l1.1,3.1 M304.35,187.1l1.25-2.949"/>
	</g>
	<g>
		<path id="Layer0_0_10_STROKES" fill="none" stroke="#515151" stroke-linecap="round" stroke-linejoin="round" d="M291.7,181.75
			l1.8-1.95v-0.85c-0.1-0.101-0.166-0.167-0.2-0.2c-0.166-0.166-0.25-0.367-0.25-0.6c0-0.268,0.084-0.5,0.25-0.7
			c0.2-0.167,0.434-0.25,0.7-0.25c0.233,0,0.434,0.083,0.601,0.25c0.199,0.2,0.3,0.433,0.3,0.7c0,0.232-0.101,0.434-0.3,0.6
			c-0.167,0.2-0.367,0.3-0.601,0.3c-0.166,0-0.333-0.033-0.5-0.1 M295.7,181.45l-0.4,0.3c-0.833,0.066-1.433-0.584-1.8-1.95v3.45
			l1.101,3.1 M292.25,186.2l1.25-2.95"/>
	</g>
	<g>
		<path id="Layer0_0_11_STROKES" fill="none" stroke="#6B6B6B" stroke-linecap="round" stroke-linejoin="round" d="M285,181.55
			l1.8-1.95v-1c-0.267,0-0.5-0.1-0.699-0.3c-0.167-0.167-0.25-0.366-0.25-0.6c0-0.267,0.083-0.5,0.25-0.7
			c0.199-0.166,0.433-0.25,0.699-0.25c0.233,0,0.434,0.084,0.601,0.25c0.2,0.2,0.3,0.434,0.3,0.7c0,0.233-0.1,0.433-0.3,0.6
			c-0.167,0.2-0.367,0.3-0.601,0.3 M286.8,179.6l1.551,2.2 M285.55,186l1.25-2.95v-3.45 M286.8,183.05l1.101,3.101"/>
	</g>
	<g>
		<path id="Layer0_0_12_STROKES" fill="none" stroke="#696969" stroke-linecap="round" stroke-linejoin="round" d="M274.7,181.1
			l1.8-1.949v-1c-0.267,0-0.5-0.101-0.7-0.301c-0.166-0.166-0.25-0.366-0.25-0.6c0-0.267,0.084-0.5,0.25-0.7
			c0.2-0.167,0.434-0.25,0.7-0.25c0.233,0,0.434,0.083,0.601,0.25c0.199,0.2,0.3,0.434,0.3,0.7c0,0.233-0.101,0.434-0.3,0.6
			c-0.167,0.2-0.367,0.301-0.601,0.301 M275.25,185.55l1.25-2.95v-3.449l1.55,2.199 M276.5,182.6l1.101,3.101 M44.85,179.3l1.8-1.95
			v-1c-0.267,0-0.5-0.1-0.7-0.3c-0.167-0.167-0.25-0.366-0.25-0.6c0-0.267,0.083-0.5,0.25-0.7c0.2-0.166,0.434-0.25,0.7-0.25
			c0.233,0,0.434,0.084,0.6,0.25c0.2,0.2,0.3,0.434,0.3,0.7c0,0.233-0.1,0.433-0.3,0.6c-0.166,0.2-0.366,0.3-0.6,0.3 M48.2,179.55
			l-1.55-2.2v3.45l1.1,3.101 M45.4,183.75l1.25-2.95"/>
	</g>
	<g>
		<path id="Layer0_0_13_STROKES" fill="none" stroke="#959595" stroke-linecap="round" stroke-linejoin="round" d="M231.55,181.85
			l1.801-1.949v-1c-0.267,0-0.5-0.101-0.7-0.301c-0.167-0.166-0.25-0.366-0.25-0.6c0-0.267,0.083-0.5,0.25-0.7
			c0.2-0.167,0.434-0.25,0.7-0.25c0.233,0,0.433,0.083,0.6,0.25c0.2,0.2,0.3,0.434,0.3,0.7c0,0.233-0.1,0.434-0.3,0.6
			c-0.167,0.2-0.366,0.301-0.6,0.301 M232.1,186.3l1.25-2.95V179.9l1.55,2.199 M233.35,183.35l1.1,3.101"/>
	</g>
	<g>
		<path id="Layer0_0_14_STROKES" fill="none" stroke="#666666" stroke-linecap="round" stroke-linejoin="round" d="M238.95,180.8
			l1.1,3.101"/>
	</g>
	<g>
		<path id="Layer0_0_15_STROKES" fill="none" stroke="#5F5F5F" stroke-linecap="round" stroke-linejoin="round" d="M198.15,182.9
			l1.8-1.95v-1c-0.267,0-0.5-0.101-0.7-0.3c-0.166-0.167-0.25-0.367-0.25-0.601c0-0.267,0.084-0.5,0.25-0.7
			c0.2-0.166,0.434-0.25,0.7-0.25c0.233,0,0.434,0.084,0.6,0.25c0.2,0.2,0.301,0.434,0.301,0.7c0,0.233-0.101,0.434-0.301,0.601
			c-0.166,0.199-0.366,0.3-0.6,0.3 M198.7,187.35l1.25-2.949v-3.45l1.55,2.2 M199.95,184.4l1.1,3.1"/>
	</g>
	<g>
		<path id="Layer0_0_16_STROKES" fill="none" stroke="#919191" stroke-linecap="round" stroke-linejoin="round" d="M224.9,182.75
			l1.8-1.95v-1c-0.267,0-0.5-0.1-0.7-0.3c-0.166-0.166-0.25-0.367-0.25-0.6c0-0.268,0.084-0.5,0.25-0.7
			c0.2-0.167,0.434-0.25,0.7-0.25c0.233,0,0.434,0.083,0.6,0.25c0.2,0.2,0.301,0.433,0.301,0.7c0,0.232-0.101,0.434-0.301,0.6
			c-0.166,0.2-0.366,0.3-0.6,0.3 M225.45,187.2l1.25-2.95v-3.45l1.55,2.2 M226.7,184.25l1.1,3.1"/>
	</g>
	<g>
		<path id="Layer0_0_17_STROKES" fill="none" stroke="#8C8C8C" stroke-linecap="round" stroke-linejoin="round" d="M94.4,180.65
			l1.8-1.95v-1c-0.267,0-0.5-0.101-0.7-0.3c-0.166-0.167-0.25-0.367-0.25-0.601c0-0.267,0.084-0.5,0.25-0.7
			c0.2-0.166,0.434-0.25,0.7-0.25c0.233,0,0.434,0.084,0.6,0.25c0.2,0.2,0.301,0.434,0.301,0.7c0,0.233-0.101,0.434-0.301,0.601
			c-0.166,0.199-0.366,0.3-0.6,0.3 M97.75,180.9l-1.55-2.2v3.45l1.1,3.1 M94.95,185.1l1.25-2.949"/>
	</g>
	<g>
		<path id="Layer0_0_18_STROKES" fill="none" stroke="#7E7E7E" stroke-linecap="round" stroke-linejoin="round" d="M153.25,178.6
			c-0.267,0-0.483-0.1-0.649-0.3c-0.2-0.167-0.301-0.366-0.301-0.6c0-0.267,0.101-0.5,0.301-0.7c0.166-0.166,0.383-0.25,0.649-0.25
			c0.233,0,0.45,0.084,0.65,0.25c0.167,0.2,0.25,0.434,0.25,0.7c0,0.233-0.083,0.433-0.25,0.6
			C153.7,178.5,153.483,178.6,153.25,178.6v1l2.7,2.051l2.7-2.051v-1c-0.233,0-0.45-0.1-0.65-0.3c-0.166-0.167-0.25-0.366-0.25-0.6
			c0-0.267,0.084-0.5,0.25-0.7c0.2-0.166,0.417-0.25,0.65-0.25c0.267,0,0.483,0.084,0.649,0.25c0.2,0.2,0.301,0.434,0.301,0.7
			c0,0.233-0.101,0.433-0.301,0.6c-0.166,0.2-0.383,0.3-0.649,0.3 M152.1,186.15l1.149-3.101v-3.45l-1.75,3.4 M158.65,179.6
			l1.75,3.4 M157.45,186l1.2-2.95v-3.45 M158.65,183.05l1.1,3.101 M154.45,186l-1.2-2.95"/>
	</g>
</g>
</svg>
