<?xml version="1.0" encoding="utf-8"?>
<!-- Generator: Adobe Illustrator 15.1.0, SVG Export Plug-In . SVG Version: 6.00 Build 0)  -->
<!DOCTYPE svg PUBLIC "-//W3C//DTD SVG 1.1//EN" "http://www.w3.org/Graphics/SVG/1.1/DTD/svg11.dtd">
<svg version="1.1" id="Layer_1" xmlns="http://www.w3.org/2000/svg" xmlns:xlink="http://www.w3.org/1999/xlink" x="0px" y="0px"
	 width="296.25px" height="209.85px" viewBox="177 96.85 296.25 209.85" enable-background="new 177 96.85 296.25 209.85"
	 xml:space="preserve">
<g transform="matrix( 1, 0, 0, 1, 0,0) ">
	<g>
		<g id="Layer1_0_FILL">
			<path fill="#2D0B44" d="M403.801,177.55v7h13.6v-7h-3.3v-3.3h-7v3.3H403.801z"/>
		</g>
	</g>
	<g>
		<path id="Layer1_0_1_STROKES" fill="none" stroke="#2D0B44" stroke-linejoin="round" d="M403.801,177.55H367.7v7h36.101V177.55
			h3.3v-3.3v-8.45h7v8.45v3.3h3.3h36.15v7H417.4h-13.6 M417.4,184.55v-7l0.45,0.45 M407.1,174.25h7"/>
	</g>
</g>
<g transform="matrix( 1, 0, 0, 1, 0,0) ">
	<g>
		<g id="Layer0_0_FILL">
			<path fill="#2D0B44" d="M359.2,120.8c-1,0-1.833,0.333-2.5,1c-0.667,0.667-1,1.583-1,2.75c0,1.133,0.316,2.017,0.95,2.65
				c0.6,0.6,1.467,0.9,2.6,0.9c1.033,0,1.884-0.167,2.55-0.5v-1.55c-0.6,0.367-1.283,0.55-2.05,0.55c-1.2,0-1.833-0.517-1.899-1.55
				h4.55v-0.9c0-1.033-0.283-1.85-0.851-2.45C360.983,121.1,360.2,120.8,359.2,120.8 M358.3,122.65c0.233-0.267,0.534-0.4,0.9-0.4
				c0.8,0,1.2,0.5,1.2,1.5H357.8C357.867,123.317,358.033,122.95,358.3,122.65 M379.95,121.7c-0.566-0.6-1.35-0.9-2.35-0.9
				s-1.834,0.333-2.5,1c-0.667,0.667-1,1.583-1,2.75c0,1.133,0.316,2.017,0.949,2.65c0.601,0.6,1.467,0.9,2.601,0.9
				c1.033,0,1.883-0.167,2.55-0.5v-1.55c-0.6,0.367-1.283,0.55-2.05,0.55c-1.2,0-1.833-0.517-1.9-1.55h4.55v-0.9
				C380.8,123.117,380.516,122.3,379.95,121.7 M376.7,122.65c0.233-0.267,0.533-0.4,0.9-0.4c0.8,0,1.199,0.5,1.199,1.5h-2.6
				C376.266,123.317,376.433,122.95,376.7,122.65 M366.3,120.95v-2.15l-2.149,0.65v1.5h-1.101v1.6h1.101v3.2
				c0,1.567,0.767,2.35,2.3,2.35c0.634,0,1.117-0.083,1.45-0.25v-1.6c-0.233,0.133-0.467,0.2-0.7,0.2c-0.6,0-0.9-0.367-0.9-1.1v-2.8
				h1.601v-1.6H366.3 M368.5,120.95v1.6h1.101v3.2c0,1.567,0.767,2.35,2.3,2.35c0.633,0,1.116-0.083,1.45-0.25v-1.6
				c-0.233,0.133-0.467,0.2-0.7,0.2c-0.601,0-0.9-0.367-0.9-1.1v-2.8h1.601v-1.6h-1.601v-2.15l-2.149,0.65v1.5H368.5 M386.65,122.9
				v-2c-0.134-0.033-0.316-0.05-0.55-0.05c-0.9,0-1.517,0.467-1.851,1.4h-0.05v-1.3h-2.15v7h2.15v-3.35c0-0.6,0.134-1.067,0.4-1.4
				c0.267-0.333,0.633-0.5,1.1-0.5C386.067,122.7,386.384,122.767,386.65,122.9 M353.95,121.7c-0.467-0.6-1.167-0.9-2.1-0.9
				c-0.967,0-1.717,0.4-2.25,1.2h-0.051v-4.4H347.4v10.35h2.149v-0.8h0.051c0.433,0.633,1.083,0.95,1.949,0.95
				c0.967,0,1.733-0.35,2.301-1.05c0.566-0.7,0.85-1.633,0.85-2.8C354.7,123.183,354.45,122.333,353.95,121.7 M351.05,122.45
				c0.467,0,0.817,0.167,1.051,0.5c0.233,0.3,0.35,0.75,0.35,1.35c0,0.7-0.133,1.233-0.4,1.6c-0.267,0.367-0.649,0.55-1.149,0.55
				c-0.4,0-0.733-0.15-1-0.45c-0.233-0.267-0.351-0.633-0.351-1.1v-0.7c0-0.534,0.134-0.967,0.4-1.3
				C350.25,122.6,350.617,122.45,351.05,122.45 M339.05,122.85c0-0.1,0.034-0.184,0.101-0.25c0.066-0.1,0.133-0.167,0.2-0.2
				c0.1-0.066,0.217-0.1,0.35-0.1c0.134-0.033,0.267-0.05,0.4-0.05c0.3,0,0.616,0.033,0.949,0.1c0.301,0.1,0.584,0.233,0.851,0.4
				v-1.7c-0.3-0.1-0.617-0.167-0.95-0.2c-0.3-0.033-0.616-0.05-0.95-0.05c-0.399,0-0.783,0.034-1.149,0.1
				c-0.367,0.1-0.684,0.233-0.95,0.4c-0.3,0.167-0.533,0.4-0.7,0.7c-0.167,0.267-0.25,0.6-0.25,1c0,0.3,0.033,0.55,0.1,0.75
				c0.101,0.2,0.217,0.383,0.351,0.55c0.133,0.167,0.316,0.317,0.55,0.45c0.2,0.1,0.434,0.2,0.7,0.3
				c0.167,0.067,0.35,0.133,0.55,0.2s0.367,0.133,0.5,0.2c0.167,0.066,0.3,0.133,0.4,0.2c0.1,0.1,0.149,0.217,0.149,0.35
				c0,0.233-0.116,0.4-0.35,0.5c-0.2,0.1-0.5,0.15-0.9,0.15c-0.3,0-0.633-0.05-1-0.15c-0.333-0.1-0.683-0.267-1.05-0.5v1.75
				c0.667,0.233,1.384,0.35,2.15,0.35c0.399,0,0.8-0.033,1.199-0.1c0.4-0.1,0.75-0.233,1.051-0.4c0.3-0.2,0.533-0.434,0.699-0.7
				c0.167-0.3,0.25-0.667,0.25-1.1c0-0.3-0.033-0.55-0.1-0.75c-0.1-0.233-0.233-0.417-0.4-0.55c-0.166-0.167-0.366-0.317-0.6-0.45
				c-0.233-0.1-0.483-0.2-0.75-0.3c-0.167-0.067-0.333-0.117-0.5-0.15c-0.167-0.067-0.316-0.133-0.45-0.2
				c-0.133-0.066-0.233-0.15-0.3-0.25C339.1,123.083,339.05,122.983,339.05,122.85 M297.5,120.95h-2.149v7h2.149V120.95
				 M296.45,119.85c0.367,0,0.667-0.1,0.9-0.3c0.233-0.233,0.35-0.517,0.35-0.85c0-0.3-0.116-0.55-0.35-0.75
				c-0.233-0.233-0.533-0.35-0.9-0.35c-0.366,0-0.667,0.117-0.9,0.35c-0.232,0.2-0.35,0.45-0.35,0.75c0,0.333,0.117,0.6,0.35,0.8
				C295.783,119.733,296.084,119.85,296.45,119.85 M293.3,118.15H291.1v3.9h-4.051v-3.9h-2.25v9.8h2.25v-4h4.051v4h2.199V118.15
				 M321.9,121.7c-0.566-0.6-1.351-0.9-2.351-0.9s-1.833,0.333-2.5,1c-0.666,0.667-1,1.583-1,2.75c0,1.133,0.317,2.017,0.95,2.65
				c0.601,0.6,1.467,0.9,2.601,0.9c1.033,0,1.883-0.167,2.55-0.5v-1.55c-0.601,0.367-1.283,0.55-2.05,0.55
				c-1.2,0-1.834-0.517-1.9-1.55h4.55v-0.9C322.75,123.117,322.467,122.3,321.9,121.7 M318.65,122.65
				c0.233-0.267,0.533-0.4,0.899-0.4c0.801,0,1.2,0.5,1.2,1.5h-2.6C318.217,123.317,318.384,122.95,318.65,122.65 M304.05,120.95
				v0.8c-0.433-0.633-1.083-0.95-1.949-0.95c-0.934,0-1.7,0.35-2.301,1.05c-0.566,0.667-0.85,1.6-0.85,2.8
				c0,1.067,0.267,1.917,0.8,2.55c0.5,0.6,1.2,0.9,2.101,0.9c0.967,0,1.699-0.383,2.199-1.15v0.55c0,0.667-0.199,1.183-0.6,1.55
				c-0.4,0.4-0.967,0.6-1.7,0.6s-1.45-0.217-2.149-0.65v1.85c0.533,0.267,1.283,0.4,2.25,0.4c1.399,0,2.483-0.367,3.25-1.1
				c0.733-0.7,1.1-1.7,1.1-3v-6.2H304.05 M301.55,123c0.268-0.367,0.634-0.55,1.101-0.55c0.434,0,0.783,0.15,1.05,0.45
				c0.267,0.3,0.4,0.684,0.4,1.15v0.55c0,0.566-0.134,1.017-0.4,1.35c-0.3,0.333-0.667,0.5-1.1,0.5c-0.467,0-0.817-0.167-1.051-0.5
				c-0.267-0.333-0.399-0.8-0.399-1.4C301.15,123.883,301.283,123.367,301.55,123 M310.15,117.6H308v10.35h2.15v-4
				c0-0.434,0.116-0.8,0.35-1.1c0.267-0.267,0.584-0.4,0.95-0.4c0.767,0,1.15,0.5,1.15,1.5v4h2.149v-4.3c0-1.9-0.8-2.85-2.399-2.85
				c-0.9,0-1.617,0.4-2.15,1.2h-0.05V117.6 M335.55,120.95H333.4v7h2.149V120.95 M333.25,118.7c0,0.333,0.117,0.6,0.351,0.8
				c0.233,0.233,0.533,0.35,0.899,0.35c0.367,0,0.667-0.1,0.9-0.3c0.233-0.233,0.35-0.517,0.35-0.85c0-0.3-0.116-0.55-0.35-0.75
				c-0.233-0.233-0.533-0.35-0.9-0.35c-0.366,0-0.666,0.117-0.899,0.35C333.367,118.15,333.25,118.4,333.25,118.7 M328.6,122.9v-2
				c-0.134-0.033-0.317-0.05-0.551-0.05c-0.899,0-1.517,0.467-1.85,1.4h-0.05v-1.3H324v7h2.15v-3.35c0-0.6,0.133-1.067,0.399-1.4
				c0.268-0.333,0.634-0.5,1.101-0.5C328.016,122.7,328.334,122.767,328.6,122.9 M462.35,97.95h-2.65
				c2.067,2.767,3.101,5.783,3.101,9.05c0,3.333-1.033,6.333-3.101,9h2.601c2.233-2.467,3.35-5.467,3.35-9
				C465.65,103.6,464.551,100.583,462.35,97.95 M458.35,102.3c-0.467-0.133-0.934-0.233-1.4-0.3c-0.5-0.067-0.983-0.1-1.45-0.1
				c-0.566,0-1.133,0.067-1.699,0.2c-0.533,0.1-1.017,0.3-1.45,0.6c-0.434,0.267-0.783,0.6-1.05,1
				c-0.233,0.433-0.351,0.95-0.351,1.55c0,0.433,0.05,0.8,0.15,1.1c0.1,0.333,0.267,0.617,0.5,0.85c0.2,0.233,0.467,0.433,0.8,0.6
				c0.3,0.2,0.667,0.367,1.1,0.5c0.268,0.133,0.534,0.233,0.801,0.3c0.267,0.066,0.533,0.167,0.8,0.3
				c0.233,0.1,0.417,0.217,0.55,0.35c0.167,0.133,0.25,0.3,0.25,0.5c0,0.333-0.167,0.567-0.5,0.7c-0.333,0.167-0.8,0.25-1.4,0.25
				c-0.466,0-0.949-0.083-1.449-0.25c-0.533-0.133-1.067-0.367-1.601-0.7v2.6c0.967,0.367,2.033,0.55,3.2,0.55
				c0.634,0,1.233-0.066,1.8-0.2c0.601-0.1,1.117-0.3,1.55-0.6c0.467-0.267,0.834-0.617,1.101-1.05c0.267-0.466,0.399-1,0.399-1.6
				c0-0.467-0.066-0.85-0.199-1.15c-0.134-0.333-0.334-0.617-0.601-0.85c-0.233-0.233-0.533-0.434-0.899-0.6
				c-0.334-0.2-0.717-0.367-1.15-0.5c-0.233-0.1-0.467-0.184-0.7-0.25c-0.267-0.1-0.5-0.184-0.7-0.25
				c-0.199-0.1-0.35-0.233-0.449-0.4c-0.134-0.133-0.2-0.284-0.2-0.45s0.033-0.3,0.1-0.4c0.101-0.1,0.217-0.2,0.351-0.3
				c0.133-0.066,0.3-0.117,0.5-0.15c0.199-0.033,0.399-0.05,0.6-0.05c0.467,0,0.934,0.066,1.4,0.2c0.467,0.1,0.899,0.267,1.3,0.5
				V102.3 M449.551,107.1c0-1.6-0.367-2.867-1.101-3.8c-0.767-0.933-1.833-1.4-3.2-1.4c-1.433,0-2.55,0.617-3.35,1.85h-0.05v-1.6
				h-3.25v15.35h3.25v-6.05h0.05c0.667,0.966,1.634,1.45,2.9,1.45c1.433,0,2.583-0.533,3.449-1.6
				C449.117,110.267,449.551,108.867,449.551,107.1 M446.2,107.15c0,1.033-0.2,1.833-0.6,2.4c-0.4,0.567-0.967,0.85-1.7,0.85
				c-0.633,0-1.133-0.217-1.5-0.65c-0.4-0.467-0.6-1.067-0.6-1.8v-0.85c0-0.8,0.217-1.45,0.649-1.95c0.4-0.5,0.934-0.75,1.601-0.75
				C445.483,104.4,446.2,105.317,446.2,107.15 M367.5,112.65v-6.45c0-2.867-1.166-4.3-3.5-4.3c-1.467,0-2.583,0.633-3.35,1.9h-0.05
				v-1.65h-3.25v10.5h3.25v-6c0-0.667,0.183-1.217,0.55-1.65c0.366-0.4,0.833-0.6,1.399-0.6c1.134,0,1.7,0.8,1.7,2.4v5.85H367.5
				 M378,109.65c-0.767,0.5-1.55,0.75-2.35,0.75c-0.9,0-1.617-0.25-2.15-0.75c-0.5-0.533-0.75-1.267-0.75-2.2
				c0-0.967,0.267-1.717,0.8-2.25c0.534-0.534,1.268-0.8,2.2-0.8c0.834,0,1.584,0.25,2.25,0.75v-2.75
				c-0.533-0.333-1.416-0.5-2.649-0.5c-1.801,0-3.233,0.517-4.301,1.55c-1.066,1.033-1.6,2.433-1.6,4.2c0,1.533,0.5,2.8,1.5,3.8
				c1,0.966,2.3,1.45,3.9,1.45c1.366,0,2.416-0.217,3.149-0.65V109.65 M388.65,109.8c-0.867,0.534-1.867,0.8-3,0.8
				c-1.833,0-2.8-0.767-2.9-2.3h6.851v-1.35c0-1.567-0.417-2.8-1.25-3.7c-0.834-0.9-2.017-1.35-3.551-1.35c-1.5,0-2.75,0.5-3.75,1.5
				c-1,1.033-1.5,2.417-1.5,4.15c0,1.7,0.467,3.017,1.4,3.95s2.25,1.4,3.95,1.4c1.533,0,2.783-0.25,3.75-0.75V109.8 M384.75,104.1
				c1.233,0,1.851,0.75,1.851,2.25h-3.851c0.067-0.667,0.283-1.217,0.65-1.65C383.8,104.3,384.25,104.1,384.75,104.1 M403.5,97.95
				h-2.6c-2.233,2.633-3.35,5.65-3.35,9.05c0,3.567,1.116,6.567,3.35,9h2.65c-2.101-2.7-3.15-5.7-3.15-9
				S401.433,100.683,403.5,97.95 M430.85,97.95H425.5v14.7h5.65c1.667,0,2.983-0.4,3.95-1.2c0.967-0.767,1.45-1.833,1.45-3.2
				c0-0.9-0.317-1.683-0.95-2.35c-0.634-0.633-1.467-1.017-2.5-1.15v-0.05c0.833-0.233,1.517-0.65,2.05-1.25
				c0.533-0.567,0.8-1.25,0.8-2.05c0-1.1-0.45-1.95-1.35-2.55C433.733,98.25,432.483,97.95,430.85,97.95 M432.45,102
				c0,0.6-0.2,1.067-0.6,1.4c-0.367,0.3-0.9,0.45-1.601,0.45h-1.449v-3.45h1.25C431.65,100.4,432.45,100.933,432.45,102
				 M428.801,110.2v-3.85h1.8c0.767,0,1.366,0.167,1.8,0.5c0.434,0.333,0.65,0.783,0.65,1.35c0,0.633-0.217,1.133-0.65,1.5
				c-0.434,0.333-1.033,0.5-1.8,0.5H428.801 M410.25,97.95h-4.85v14.7h2.95v-8.15c0-1.067-0.033-2.333-0.101-3.8h0.051
				c0.233,1.1,0.399,1.783,0.5,2.05l3.5,9.9H415l3.45-10c0.134-0.4,0.283-1.05,0.45-1.95h0.1c-0.1,1.167-0.149,2.216-0.149,3.15v8.8
				h3.3v-14.7h-4.75l-3,8.7c-0.2,0.6-0.4,1.3-0.6,2.1h-0.051c-0.1-0.7-0.267-1.4-0.5-2.1L410.25,97.95 M348.2,102.15
				c-0.8,0.2-1.434,0.417-1.9,0.65v2.4c1.134-0.733,2.334-1.1,3.601-1.1c1.233,0,1.85,0.566,1.85,1.7l-2.85,0.4
				c-2.4,0.3-3.601,1.483-3.601,3.55c0,0.933,0.284,1.7,0.851,2.3c0.6,0.567,1.399,0.85,2.399,0.85c1.4,0,2.45-0.583,3.15-1.75h0.05
				v1.5h3.05v-6.3c0-2.967-1.5-4.45-4.5-4.45C349.667,101.9,348.967,101.983,348.2,102.15 M348.65,110.25
				c-0.267-0.233-0.4-0.533-0.4-0.9c0-0.8,0.533-1.283,1.601-1.45l1.899-0.2v0.7c0,0.633-0.183,1.167-0.55,1.6
				c-0.4,0.4-0.9,0.6-1.5,0.6C349.266,110.6,348.917,110.483,348.65,110.25 M257.4,108.3v-1.35c0-1.567-0.417-2.8-1.25-3.7
				s-2.017-1.35-3.55-1.35c-1.5,0-2.75,0.5-3.75,1.5c-1,1.033-1.5,2.417-1.5,4.15c0,1.7,0.467,3.017,1.399,3.95
				c0.934,0.933,2.25,1.4,3.95,1.4c1.533,0,2.783-0.25,3.75-0.75v-2.35c-0.866,0.534-1.866,0.8-3,0.8c-1.833,0-2.8-0.767-2.9-2.3
				H257.4 M250.55,106.35c0.067-0.667,0.284-1.217,0.65-1.65c0.4-0.4,0.85-0.6,1.35-0.6c1.233,0,1.851,0.75,1.851,2.25H250.55
				 M286.75,106.95c0-1.567-0.416-2.8-1.25-3.7c-0.833-0.9-2.017-1.35-3.55-1.35c-1.5,0-2.75,0.5-3.75,1.5
				c-1,1.033-1.5,2.417-1.5,4.15c0,1.7,0.467,3.017,1.4,3.95c0.933,0.933,2.25,1.4,3.949,1.4c1.534,0,2.784-0.25,3.75-0.75v-2.35
				c-0.866,0.534-1.866,0.8-3,0.8c-1.833,0-2.8-0.767-2.899-2.3h6.85V106.95 M279.9,106.35c0.066-0.667,0.283-1.217,0.649-1.65
				c0.4-0.4,0.851-0.6,1.351-0.6c1.233,0,1.85,0.75,1.85,2.25H279.9 M295.5,105.05v-2.95c-0.166-0.1-0.433-0.15-0.8-0.15
				c-1.333,0-2.25,0.716-2.75,2.15h-0.05v-1.95h-3.25v10.5h3.25v-5c0-0.9,0.2-1.6,0.6-2.1c0.4-0.533,0.95-0.8,1.65-0.8
				C294.683,104.75,295.134,104.85,295.5,105.05 M316.3,107.25c0-1.6-0.5-2.9-1.5-3.9c-0.966-0.967-2.333-1.45-4.1-1.45
				s-3.167,0.483-4.2,1.45c-1.033,1-1.55,2.367-1.55,4.1c0,1.667,0.5,3,1.5,4c1,0.966,2.367,1.45,4.1,1.45c1.801,0,3.2-0.5,4.2-1.5
				C315.783,110.367,316.3,108.983,316.3,107.25 M310.65,104.4c1.566,0,2.35,0.967,2.35,2.9c0,2.067-0.783,3.1-2.35,3.1
				c-1.601,0-2.4-1-2.4-3c0-0.967,0.2-1.717,0.601-2.25C309.283,104.65,309.884,104.4,310.65,104.4 M230.8,112.65h3.25v-10.5h-3.25
				V112.65 M229.2,105.05v-2.95c-0.167-0.1-0.434-0.15-0.8-0.15c-1.333,0-2.25,0.716-2.75,2.15h-0.05v-1.95h-3.25v10.5h3.25v-5
				c0-0.9,0.199-1.6,0.6-2.1c0.4-0.533,0.95-0.8,1.65-0.8C228.384,104.75,228.834,104.85,229.2,105.05 M238.9,102.15h-3.45l3.7,10.5
				h3.7l3.899-10.5h-3.35l-1.9,6.55c-0.2,0.7-0.316,1.3-0.35,1.8h-0.05c-0.033-0.533-0.15-1.167-0.351-1.9L238.9,102.15 M231.1,97.6
				c-0.334,0.333-0.5,0.733-0.5,1.2c0,0.467,0.166,0.867,0.5,1.2c0.366,0.333,0.816,0.5,1.35,0.5c0.566,0,1.017-0.167,1.35-0.5
				c0.334-0.3,0.5-0.7,0.5-1.2c0-0.466-0.166-0.867-0.5-1.2c-0.333-0.3-0.783-0.45-1.35-0.45C231.917,97.15,231.467,97.3,231.1,97.6
				 M212.4,97.95h-5.2v14.7h5.2c2.366,0,4.267-0.683,5.7-2.05c1.399-1.367,2.1-3.2,2.1-5.5C220.2,100.333,217.6,97.95,212.4,97.95
				 M215.55,101.85c0.801,0.8,1.2,1.9,1.2,3.3c0,1.5-0.416,2.667-1.25,3.5c-0.8,0.867-1.916,1.3-3.35,1.3h-1.65v-9.3h1.601
				C213.567,100.65,214.717,101.05,215.55,101.85 M302.7,96.85c-1.333,0-2.383,0.367-3.15,1.1c-0.767,0.733-1.149,1.7-1.149,2.9v1.3
				h-1.8v2.4h1.8v8.1h3.2v-8.1H304v-2.4H301.6v-1.1c0-1.133,0.517-1.7,1.55-1.7c0.399,0,0.8,0.083,1.2,0.25v-2.55
				C303.917,96.917,303.367,96.85,302.7,96.85 M270.6,97.95h-5.15v14.7h3.3v-5.05h1.55c1.801,0,3.233-0.467,4.301-1.4
				c1.066-0.9,1.6-2.083,1.6-3.55C276.2,99.517,274.334,97.95,270.6,97.95 M268.75,100.5h1.3c1.768,0,2.65,0.75,2.65,2.25
				c0,1.533-0.883,2.3-2.65,2.3h-1.3V100.5 M325.25,102.1c-0.166-0.1-0.433-0.15-0.8-0.15c-1.333,0-2.25,0.716-2.75,2.15h-0.05
				v-1.95h-3.25v10.5h3.25v-5c0-0.9,0.2-1.6,0.6-2.1c0.4-0.533,0.95-0.8,1.65-0.8c0.533,0,0.983,0.1,1.35,0.3V102.1 M338.6,104.4
				c1.1,0,1.649,0.75,1.649,2.25v6h3.25v-6.55c0-2.8-1.149-4.2-3.45-4.2c-1.533,0-2.699,0.65-3.5,1.95
				c-0.566-1.3-1.583-1.95-3.05-1.95c-0.733,0-1.399,0.184-2,0.55c-0.6,0.333-1.066,0.783-1.399,1.35h-0.051v-1.65h-3.25v10.5h3.25
				v-5.85c0-0.733,0.167-1.316,0.5-1.75c0.334-0.433,0.784-0.65,1.351-0.65c1.1,0,1.649,0.733,1.649,2.2v6.05h3.2v-5.9
				c0-0.667,0.167-1.233,0.5-1.7C337.617,104.617,338.067,104.4,338.6,104.4 M382.5,302.8c0.134-0.6,0.2-1.283,0.2-2.05
				c0-3.1-0.917-4.65-2.75-4.65c-0.967,0-1.7,0.417-2.2,1.25c-0.533,0.801-0.8,2.018-0.8,3.65c0,0.733,0.066,1.383,0.2,1.95
				c0.133,0.566,0.316,1.033,0.55,1.399c0.233,0.367,0.517,0.65,0.85,0.851c0.367,0.2,0.768,0.3,1.2,0.3c0.467,0,0.884-0.1,1.25-0.3
				c0.367-0.2,0.667-0.5,0.9-0.9C382.167,303.9,382.367,303.4,382.5,302.8 M381.85,300.85c0,0.634-0.051,1.2-0.15,1.7
				c-0.066,0.5-0.184,0.917-0.35,1.25c-0.2,0.333-0.417,0.583-0.65,0.75c-0.267,0.167-0.55,0.25-0.85,0.25
				c-0.7,0-1.217-0.333-1.551-1c-0.333-0.634-0.5-1.583-0.5-2.85c0-1.4,0.184-2.434,0.551-3.101c0.333-0.699,0.85-1.05,1.55-1.05
				C381.2,296.8,381.85,298.15,381.85,300.85 M232.6,302.8c0.133-0.6,0.199-1.283,0.199-2.05c0-3.1-0.916-4.65-2.75-4.65
				c-0.966,0-1.699,0.417-2.199,1.25c-0.533,0.801-0.801,2.018-0.801,3.65c0,0.733,0.067,1.383,0.2,1.95
				c0.134,0.566,0.317,1.033,0.55,1.399c0.233,0.367,0.518,0.65,0.851,0.851c0.366,0.2,0.767,0.3,1.2,0.3
				c0.467,0,0.883-0.1,1.25-0.3c0.366-0.2,0.666-0.5,0.899-0.9C232.266,303.9,232.467,303.4,232.6,302.8 M231.95,300.85
				c0,0.634-0.05,1.2-0.15,1.7c-0.066,0.5-0.183,0.917-0.35,1.25c-0.2,0.333-0.417,0.583-0.65,0.75
				c-0.267,0.167-0.55,0.25-0.85,0.25c-0.7,0-1.217-0.333-1.55-1c-0.333-0.634-0.5-1.583-0.5-2.85c0-1.4,0.184-2.434,0.55-3.101
				c0.333-0.699,0.85-1.05,1.55-1.05C231.3,296.8,231.95,298.15,231.95,300.85 M235.35,304.6c-0.033-0.066-0.084-0.116-0.15-0.149
				c-0.066-0.067-0.133-0.116-0.2-0.15c-0.066-0.033-0.149-0.05-0.25-0.05c-0.166,0-0.3,0.066-0.399,0.2
				c-0.134,0.1-0.2,0.233-0.2,0.399c0,0.167,0.066,0.316,0.2,0.45c0.1,0.134,0.233,0.2,0.399,0.2c0.101,0,0.184-0.017,0.25-0.05
				c0.067-0.034,0.134-0.083,0.2-0.15c0.066-0.066,0.117-0.134,0.15-0.2s0.05-0.149,0.05-0.25
				C235.4,304.783,235.384,304.7,235.35,304.6 M240.25,296.25c-0.3-0.1-0.616-0.15-0.95-0.15c-0.666,0-1.316,0.167-1.949,0.5v0.851
				c0.566-0.434,1.166-0.65,1.8-0.65c0.566,0,1,0.15,1.3,0.45c0.3,0.267,0.45,0.666,0.45,1.2c0,0.6-0.2,1.05-0.601,1.35
				c-0.399,0.333-0.982,0.5-1.75,0.5h-0.699v0.7h0.75c0.866,0,1.517,0.15,1.949,0.45c0.467,0.333,0.7,0.816,0.7,1.45
				c0,0.333-0.066,0.616-0.2,0.85c-0.133,0.233-0.3,0.434-0.5,0.6c-0.199,0.167-0.433,0.283-0.699,0.351
				c-0.267,0.066-0.551,0.1-0.851,0.1c-0.7,0-1.366-0.233-2-0.7v0.9c0.567,0.334,1.233,0.5,2,0.5c0.4,0,0.8-0.05,1.2-0.15
				c0.367-0.133,0.684-0.316,0.95-0.55c0.3-0.233,0.517-0.517,0.649-0.85c0.167-0.333,0.25-0.717,0.25-1.15
				c0-0.3-0.05-0.583-0.149-0.85c-0.101-0.267-0.25-0.5-0.45-0.7c-0.2-0.166-0.417-0.316-0.65-0.45c-0.267-0.1-0.55-0.167-0.85-0.2
				c1.2-0.366,1.8-1.149,1.8-2.35c0-0.367-0.066-0.684-0.2-0.95c-0.133-0.267-0.316-0.483-0.55-0.649
				C240.8,296.45,240.55,296.316,240.25,296.25 M372.8,302.8c0.134-0.6,0.2-1.283,0.2-2.05c0-3.1-0.916-4.65-2.75-4.65
				c-0.967,0-1.7,0.417-2.2,1.25c-0.533,0.801-0.8,2.018-0.8,3.65c0,0.733,0.067,1.383,0.2,1.95c0.134,0.566,0.316,1.033,0.55,1.399
				c0.233,0.367,0.517,0.65,0.851,0.851c0.366,0.2,0.767,0.3,1.199,0.3c0.467,0,0.884-0.1,1.25-0.3c0.367-0.2,0.667-0.5,0.9-0.9
				C372.467,303.9,372.667,303.4,372.8,302.8 M372.15,300.85c0,0.634-0.05,1.2-0.15,1.7c-0.066,0.5-0.183,0.917-0.35,1.25
				c-0.2,0.333-0.417,0.583-0.65,0.75c-0.267,0.167-0.55,0.25-0.85,0.25c-0.7,0-1.217-0.333-1.55-1c-0.334-0.634-0.5-1.583-0.5-2.85
				c0-1.4,0.183-2.434,0.55-3.101c0.333-0.699,0.85-1.05,1.55-1.05C371.5,296.8,372.15,298.15,372.15,300.85 M375.2,304.3
				c-0.066-0.033-0.15-0.05-0.25-0.05c-0.167,0-0.3,0.066-0.4,0.2c-0.133,0.1-0.199,0.233-0.199,0.399
				c0,0.167,0.066,0.316,0.199,0.45c0.101,0.134,0.233,0.2,0.4,0.2c0.1,0,0.184-0.017,0.25-0.05c0.066-0.034,0.134-0.083,0.2-0.15
				c0.066-0.066,0.116-0.134,0.149-0.2c0.034-0.066,0.051-0.149,0.051-0.25c0-0.066-0.017-0.149-0.051-0.25
				c-0.033-0.066-0.083-0.116-0.149-0.149C375.334,304.383,375.266,304.334,375.2,304.3 M376.15,289.25
				c0.066-0.066,0.116-0.133,0.149-0.2c0.034-0.066,0.051-0.149,0.051-0.25c0-0.066-0.017-0.149-0.051-0.25
				c-0.033-0.066-0.083-0.116-0.149-0.149c-0.066-0.066-0.134-0.117-0.2-0.15s-0.15-0.05-0.25-0.05c-0.167,0-0.3,0.066-0.4,0.2
				c-0.133,0.1-0.199,0.232-0.199,0.399s0.066,0.317,0.199,0.45c0.101,0.133,0.233,0.2,0.4,0.2c0.1,0,0.184-0.017,0.25-0.05
				S376.084,289.316,376.15,289.25 M365.3,296.05H365.1c-0.434,0.366-0.884,0.684-1.351,0.95c-0.433,0.3-0.899,0.533-1.399,0.7v0.7
				c0.133-0.066,0.3-0.134,0.5-0.2c0.199-0.101,0.399-0.2,0.6-0.3c0.2-0.101,0.384-0.2,0.55-0.301c0.2-0.133,0.367-0.266,0.5-0.399
				v8.149h0.8V296.05 M371.6,281.55c0.199-0.134,0.366-0.267,0.5-0.399v8.149h0.8V280h-0.2c-0.434,0.367-0.883,0.684-1.35,0.95
				c-0.434,0.3-0.9,0.533-1.4,0.7v0.699c0.134-0.066,0.3-0.133,0.5-0.199c0.2-0.101,0.4-0.2,0.6-0.301
				C371.25,281.75,371.433,281.65,371.6,281.55 M366.7,281.55c0.2-0.134,0.367-0.267,0.5-0.399v8.149h0.8V280h-0.2
				c-0.433,0.367-0.883,0.684-1.35,0.95c-0.434,0.3-0.9,0.533-1.4,0.7v0.699c0.134-0.066,0.301-0.133,0.5-0.199
				c0.2-0.101,0.4-0.2,0.601-0.301C366.35,281.75,366.533,281.65,366.7,281.55 M382.35,282.2c0.3-0.534,0.6-1.083,0.899-1.65v-0.35
				H377.6v0.75h4.649c-0.366,0.667-0.733,1.366-1.1,2.1c-0.367,0.7-0.7,1.4-1,2.101c-0.267,0.732-0.5,1.434-0.7,2.1
				c-0.233,0.7-0.4,1.383-0.5,2.05h0.85c0.101-0.5,0.2-0.966,0.301-1.399c0.1-0.467,0.233-0.934,0.399-1.4
				c0.134-0.434,0.3-0.883,0.5-1.35c0.167-0.467,0.367-0.934,0.601-1.4C381.834,283.25,382.084,282.733,382.35,282.2 M257.6,283.05
				c0,0.434,0.066,0.817,0.199,1.15c0.134,0.333,0.317,0.634,0.551,0.899c0.233,0.234,0.5,0.434,0.8,0.601
				c0.333,0.134,0.684,0.2,1.05,0.2c1.033,0,1.75-0.45,2.15-1.351c0,1.366-0.233,2.417-0.7,3.15c-0.5,0.7-1.184,1.05-2.05,1.05
				c-0.5,0-1-0.133-1.5-0.4v0.851c0.467,0.167,0.949,0.25,1.449,0.25c0.601,0,1.117-0.116,1.551-0.351
				c0.467-0.232,0.85-0.566,1.149-1c0.3-0.467,0.533-1.033,0.7-1.699c0.167-0.634,0.25-1.367,0.25-2.2c0-0.7-0.066-1.3-0.2-1.8
				c-0.1-0.5-0.267-0.934-0.5-1.301c-0.267-0.333-0.566-0.6-0.899-0.8c-0.334-0.167-0.717-0.25-1.15-0.25
				c-0.4,0-0.783,0.067-1.15,0.2c-0.333,0.166-0.616,0.383-0.85,0.65c-0.267,0.266-0.467,0.583-0.6,0.949
				C257.683,282.217,257.6,282.617,257.6,283.05 M261.15,280.95c0.233,0.1,0.434,0.267,0.6,0.5c0.167,0.233,0.3,0.5,0.4,0.8
				c0.1,0.3,0.149,0.633,0.149,1c0,0.267-0.05,0.517-0.149,0.75c-0.101,0.233-0.233,0.434-0.4,0.6c-0.166,0.167-0.366,0.301-0.6,0.4
				s-0.483,0.15-0.75,0.15c-0.3,0-0.566-0.051-0.8-0.15s-0.434-0.25-0.601-0.45c-0.166-0.167-0.3-0.399-0.399-0.7
				c-0.101-0.266-0.15-0.566-0.15-0.899s0.05-0.634,0.15-0.9c0.1-0.267,0.233-0.483,0.399-0.649c0.167-0.2,0.367-0.367,0.601-0.5
				c0.233-0.101,0.483-0.15,0.75-0.15C260.65,280.75,260.917,280.816,261.15,280.95 M255.15,289.25c0.1,0.133,0.233,0.2,0.399,0.2
				c0.101,0,0.184-0.017,0.25-0.05c0.067-0.033,0.134-0.084,0.2-0.15c0.067-0.066,0.117-0.133,0.15-0.2
				c0.033-0.066,0.05-0.149,0.05-0.25c0-0.066-0.017-0.149-0.05-0.25c-0.033-0.066-0.083-0.116-0.15-0.149
				c-0.066-0.066-0.133-0.117-0.2-0.15c-0.066-0.033-0.149-0.05-0.25-0.05c-0.166,0-0.3,0.066-0.399,0.2
				c-0.134,0.1-0.2,0.232-0.2,0.399S255.016,289.117,255.15,289.25 M252.1,280.6c-0.2-0.199-0.45-0.333-0.75-0.399
				c-0.301-0.101-0.617-0.15-0.95-0.15c-0.667,0-1.316,0.167-1.95,0.5v0.851c0.566-0.434,1.167-0.65,1.8-0.65
				c0.567,0,1,0.15,1.3,0.45c0.301,0.267,0.45,0.667,0.45,1.2c0,0.6-0.2,1.05-0.6,1.35c-0.4,0.334-0.983,0.5-1.75,0.5h-0.7v0.7h0.75
				c0.867,0,1.517,0.149,1.95,0.45c0.467,0.333,0.7,0.816,0.7,1.449c0,0.334-0.067,0.617-0.2,0.851c-0.134,0.233-0.3,0.433-0.5,0.6
				s-0.434,0.284-0.7,0.351s-0.55,0.1-0.85,0.1c-0.7,0-1.367-0.233-2-0.7v0.9c0.566,0.333,1.233,0.5,2,0.5
				c0.399,0,0.8-0.05,1.199-0.15c0.367-0.134,0.684-0.316,0.95-0.55c0.3-0.233,0.517-0.517,0.65-0.85
				c0.167-0.334,0.25-0.717,0.25-1.15c0-0.3-0.05-0.584-0.15-0.85c-0.1-0.268-0.25-0.5-0.45-0.7
				c-0.199-0.167-0.416-0.317-0.649-0.45c-0.267-0.1-0.55-0.166-0.851-0.2c1.2-0.366,1.801-1.149,1.801-2.35
				c0-0.366-0.067-0.684-0.2-0.95C252.516,280.983,252.334,280.767,252.1,280.6 M245.1,280.35c-0.267-0.133-0.567-0.217-0.9-0.25
				c-0.066-0.033-0.133-0.05-0.2-0.05c-0.066,0-0.133,0-0.2,0c-0.466,0-0.899,0.067-1.3,0.2c-0.366,0.166-0.717,0.383-1.05,0.65
				v0.899c0.333-0.3,0.684-0.55,1.05-0.75c0.367-0.2,0.767-0.3,1.2-0.3c0.267,0,0.5,0.033,0.7,0.1
				c0.233,0.101,0.434,0.217,0.6,0.351c0.134,0.167,0.25,0.35,0.351,0.55c0.066,0.233,0.1,0.5,0.1,0.8s-0.033,0.567-0.1,0.8
				c-0.067,0.234-0.184,0.467-0.351,0.7c-0.166,0.2-0.366,0.417-0.6,0.65c-0.233,0.2-0.5,0.399-0.8,0.6
				c-0.434,0.333-0.817,0.634-1.15,0.9c-0.3,0.267-0.55,0.517-0.75,0.75c-0.2,0.267-0.35,0.55-0.45,0.85
				c-0.1,0.3-0.149,0.65-0.149,1.05v0.45h5.399v-0.75h-4.55c0-0.066,0-0.134,0-0.2c0-0.033,0.017-0.083,0.05-0.149
				c0.033-0.233,0.101-0.434,0.2-0.601c0.066-0.199,0.184-0.383,0.35-0.55c0.167-0.2,0.384-0.399,0.65-0.6s0.583-0.434,0.95-0.7
				c0.333-0.233,0.633-0.45,0.899-0.65c0.268-0.232,0.483-0.482,0.65-0.75c0.2-0.266,0.35-0.55,0.45-0.85
				c0.1-0.334,0.149-0.684,0.149-1.05c0-0.333-0.05-0.634-0.149-0.9c-0.101-0.3-0.233-0.55-0.4-0.75
				C245.55,280.6,245.334,280.45,245.1,280.35 M376.35,245.75c0-0.066-0.017-0.15-0.051-0.25c-0.033-0.066-0.083-0.117-0.149-0.15
				c-0.066-0.066-0.134-0.116-0.2-0.149c-0.066-0.034-0.15-0.05-0.25-0.05c-0.167,0-0.3,0.066-0.4,0.199
				c-0.133,0.101-0.199,0.234-0.199,0.4s0.066,0.316,0.199,0.45c0.101,0.134,0.233,0.2,0.4,0.2c0.1,0,0.184-0.018,0.25-0.051
				s0.134-0.083,0.2-0.149c0.066-0.067,0.116-0.134,0.149-0.2C376.334,245.934,376.35,245.85,376.35,245.75 M381.85,239.35
				c0,0.601-0.2,1.051-0.601,1.351c-0.399,0.333-0.983,0.5-1.75,0.5h-0.7v0.7h0.75c0.867,0,1.518,0.149,1.95,0.449
				c0.467,0.334,0.7,0.816,0.7,1.45c0,0.333-0.066,0.616-0.2,0.851c-0.133,0.232-0.3,0.434-0.5,0.6s-0.433,0.283-0.7,0.35
				c-0.267,0.066-0.55,0.101-0.85,0.101c-0.7,0-1.366-0.233-2-0.7v0.9c0.566,0.333,1.233,0.5,2,0.5c0.4,0,0.8-0.051,1.2-0.15
				c0.366-0.133,0.684-0.316,0.95-0.55c0.3-0.233,0.517-0.517,0.649-0.851c0.167-0.333,0.25-0.717,0.25-1.149
				c0-0.3-0.05-0.583-0.149-0.851c-0.101-0.266-0.25-0.5-0.45-0.699c-0.2-0.167-0.417-0.316-0.65-0.45
				c-0.267-0.101-0.55-0.167-0.85-0.2c1.2-0.367,1.8-1.15,1.8-2.35c0-0.367-0.066-0.684-0.2-0.95
				c-0.133-0.267-0.316-0.483-0.55-0.65c-0.2-0.2-0.45-0.333-0.75-0.399c-0.3-0.101-0.616-0.15-0.95-0.15
				c-0.666,0-1.316,0.166-1.95,0.5v0.85c0.567-0.434,1.167-0.649,1.801-0.649c0.566,0,1,0.149,1.3,0.45
				C381.7,238.416,381.85,238.816,381.85,239.35 M368,236.95h-0.2c-0.433,0.366-0.883,0.683-1.35,0.95
				c-0.434,0.3-0.9,0.533-1.4,0.699v0.7c0.134-0.066,0.301-0.134,0.5-0.2c0.2-0.1,0.4-0.199,0.601-0.3c0.2-0.1,0.383-0.2,0.55-0.3
				c0.2-0.133,0.367-0.267,0.5-0.4v8.15h0.8V236.95 M372.9,236.95h-0.2c-0.434,0.366-0.883,0.683-1.35,0.95
				c-0.434,0.3-0.9,0.533-1.4,0.699v0.7c0.134-0.066,0.3-0.134,0.5-0.2c0.2-0.1,0.4-0.199,0.6-0.3c0.2-0.1,0.384-0.2,0.551-0.3
				c0.199-0.133,0.366-0.267,0.5-0.4v8.15h0.8V236.95 M243.85,243.35c0-0.399-0.051-0.766-0.15-1.1c-0.133-0.367-0.3-0.666-0.5-0.9
				c-0.233-0.232-0.5-0.434-0.8-0.6c-0.333-0.133-0.684-0.2-1.05-0.2c-1.033,0-1.767,0.45-2.2,1.351c0-0.634,0.066-1.2,0.2-1.7
				c0.1-0.534,0.283-0.983,0.55-1.351c0.233-0.366,0.517-0.649,0.85-0.85c0.367-0.2,0.75-0.3,1.15-0.3c0.5,0,0.983,0.116,1.45,0.35
				v-0.8c-0.4-0.166-0.884-0.25-1.45-0.25s-1.066,0.117-1.5,0.35c-0.434,0.268-0.816,0.634-1.15,1.101
				c-0.3,0.433-0.533,0.983-0.7,1.649c-0.166,0.634-0.25,1.351-0.25,2.15c0,0.666,0.067,1.25,0.2,1.75
				c0.101,0.533,0.283,0.967,0.55,1.3c0.233,0.366,0.518,0.65,0.851,0.851c0.366,0.166,0.767,0.25,1.2,0.25
				c0.399,0,0.767-0.066,1.1-0.2c0.333-0.167,0.634-0.384,0.9-0.65c0.233-0.267,0.416-0.583,0.55-0.95
				C243.783,244.233,243.85,243.816,243.85,243.35 M241.95,241.45c0.233,0.1,0.434,0.25,0.6,0.45
				c0.134,0.166,0.25,0.383,0.351,0.649c0.1,0.3,0.149,0.616,0.149,0.95c0,0.3-0.05,0.6-0.149,0.9c-0.101,0.266-0.233,0.5-0.4,0.699
				c-0.166,0.167-0.366,0.316-0.6,0.45c-0.233,0.101-0.483,0.15-0.75,0.15c-0.3,0-0.566-0.067-0.8-0.2s-0.434-0.3-0.601-0.5
				c-0.166-0.233-0.3-0.5-0.399-0.8c-0.101-0.3-0.15-0.616-0.15-0.95c0-0.233,0.05-0.483,0.15-0.75c0.1-0.233,0.233-0.434,0.399-0.6
				c0.167-0.2,0.367-0.351,0.601-0.45c0.267-0.134,0.533-0.2,0.8-0.2C241.45,241.25,241.717,241.316,241.95,241.45 M236.75,245.75
				c0-0.066-0.017-0.15-0.05-0.25c-0.033-0.066-0.083-0.117-0.15-0.15c-0.066-0.066-0.133-0.116-0.199-0.149
				c-0.067-0.034-0.15-0.05-0.25-0.05c-0.167,0-0.301,0.066-0.4,0.199c-0.133,0.101-0.2,0.234-0.2,0.4s0.067,0.316,0.2,0.45
				c0.1,0.134,0.233,0.2,0.4,0.2c0.1,0,0.183-0.018,0.25-0.051c0.066-0.033,0.133-0.083,0.199-0.149
				c0.067-0.067,0.117-0.134,0.15-0.2S236.75,245.85,236.75,245.75 M231.4,237c-0.967,0-1.7,0.416-2.2,1.25
				c-0.533,0.8-0.8,2.017-0.8,3.65c0,0.732,0.066,1.383,0.2,1.949c0.133,0.566,0.316,1.033,0.55,1.4s0.517,0.65,0.85,0.85
				c0.367,0.2,0.767,0.301,1.2,0.301c0.467,0,0.884-0.101,1.25-0.301c0.367-0.199,0.667-0.5,0.9-0.899c0.267-0.4,0.467-0.9,0.6-1.5
				c0.134-0.601,0.2-1.284,0.2-2.05C234.15,238.55,233.233,237,231.4,237 M229.8,238.75c0.334-0.7,0.851-1.05,1.551-1.05
				c1.3,0,1.949,1.35,1.949,4.05c0,0.633-0.05,1.2-0.149,1.7c-0.066,0.5-0.184,0.917-0.351,1.25
				c-0.199,0.333-0.416,0.583-0.649,0.75c-0.267,0.167-0.55,0.25-0.851,0.25c-0.699,0-1.216-0.333-1.55-1
				c-0.333-0.634-0.5-1.583-0.5-2.851C229.25,240.45,229.433,239.416,229.8,238.75 M378.85,221.6c-0.233,0.2-0.417,0.45-0.551,0.75
				c-0.133,0.268-0.199,0.566-0.199,0.9c0,0.434,0.133,0.834,0.399,1.2c0.233,0.366,0.55,0.649,0.95,0.85
				c-0.267,0.101-0.5,0.233-0.7,0.4c-0.233,0.167-0.416,0.35-0.55,0.55c-0.133,0.233-0.233,0.467-0.3,0.7
				c-0.101,0.233-0.15,0.466-0.15,0.7c0,0.434,0.084,0.816,0.25,1.149c0.134,0.3,0.317,0.567,0.55,0.8
				c0.268,0.234,0.567,0.417,0.9,0.551c0.333,0.133,0.717,0.199,1.15,0.199c0.399,0,0.783-0.066,1.149-0.199
				c0.334-0.134,0.617-0.316,0.851-0.551c0.267-0.232,0.467-0.5,0.6-0.8c0.134-0.333,0.2-0.716,0.2-1.149
				c0-0.234-0.033-0.467-0.101-0.7c-0.066-0.233-0.166-0.467-0.3-0.7c-0.166-0.2-0.35-0.383-0.55-0.55s-0.434-0.3-0.7-0.4
				c0.2-0.1,0.384-0.216,0.55-0.35c0.134-0.167,0.268-0.333,0.4-0.5c0.1-0.167,0.184-0.351,0.25-0.55c0.066-0.2,0.1-0.417,0.1-0.65
				c0-0.334-0.05-0.633-0.149-0.9c-0.134-0.3-0.316-0.55-0.55-0.75c-0.2-0.199-0.45-0.366-0.75-0.5c-0.334-0.1-0.667-0.149-1-0.149
				c-0.367,0-0.7,0.05-1,0.149C379.3,221.233,379.05,221.4,378.85,221.6 M379.1,222.65c0.066-0.2,0.166-0.367,0.3-0.5
				c0.167-0.167,0.35-0.283,0.55-0.351c0.2-0.1,0.417-0.149,0.65-0.149s0.449,0.05,0.649,0.149c0.2,0.067,0.367,0.184,0.5,0.351
				c0.134,0.133,0.25,0.3,0.351,0.5c0.1,0.199,0.149,0.416,0.149,0.649s-0.05,0.45-0.149,0.65c-0.101,0.2-0.217,0.384-0.351,0.55
				c-0.166,0.133-0.333,0.25-0.5,0.35c-0.2,0.101-0.416,0.15-0.649,0.15s-0.45-0.05-0.65-0.15c-0.2-0.1-0.366-0.217-0.5-0.35
				c-0.167-0.133-0.283-0.316-0.35-0.55c-0.101-0.2-0.15-0.417-0.15-0.65C378.95,223.1,379,222.883,379.1,222.65 M381.4,225.85
				c0.233,0.101,0.434,0.234,0.6,0.4c0.167,0.2,0.3,0.416,0.4,0.65c0.1,0.232,0.149,0.482,0.149,0.75c0,0.3-0.05,0.566-0.149,0.8
				c-0.101,0.267-0.233,0.483-0.4,0.649c-0.166,0.167-0.383,0.301-0.649,0.4c-0.233,0.1-0.483,0.15-0.75,0.15
				c-0.301,0-0.567-0.051-0.801-0.15c-0.232-0.1-0.433-0.233-0.6-0.4c-0.2-0.166-0.333-0.383-0.4-0.649
				c-0.1-0.233-0.149-0.5-0.149-0.8c0-0.301,0.05-0.566,0.149-0.801c0.101-0.232,0.233-0.434,0.4-0.6c0.167-0.2,0.367-0.334,0.6-0.4
				c0.233-0.1,0.5-0.149,0.801-0.149C380.9,225.7,381.167,225.75,381.4,225.85 M326.6,229.95c0.033-0.067,0.05-0.15,0.05-0.25
				c0-0.067-0.017-0.15-0.05-0.25c-0.033-0.067-0.084-0.116-0.15-0.15c-0.066-0.066-0.133-0.116-0.2-0.149
				c-0.066-0.033-0.149-0.051-0.25-0.051c-0.166,0-0.3,0.066-0.399,0.2c-0.134,0.101-0.2,0.233-0.2,0.4s0.066,0.316,0.2,0.45
				c0.1,0.133,0.233,0.199,0.399,0.199c0.101,0,0.184-0.016,0.25-0.05c0.067-0.033,0.134-0.083,0.2-0.149
				S326.567,230.017,326.6,229.95 M331,220.95c-0.967,0-1.7,0.417-2.2,1.25c-0.533,0.8-0.8,2.017-0.8,3.649
				c0,0.734,0.067,1.384,0.2,1.95c0.134,0.567,0.316,1.034,0.55,1.4s0.517,0.649,0.851,0.85c0.366,0.2,0.767,0.3,1.199,0.3
				c0.467,0,0.884-0.1,1.25-0.3c0.367-0.2,0.667-0.5,0.9-0.899c0.267-0.4,0.467-0.9,0.6-1.5c0.134-0.601,0.2-1.283,0.2-2.051
				C333.75,222.5,332.834,220.95,331,220.95 M329.4,222.7c0.333-0.7,0.85-1.05,1.55-1.05c1.3,0,1.95,1.35,1.95,4.05
				c0,0.634-0.05,1.2-0.15,1.7c-0.066,0.5-0.183,0.916-0.35,1.25c-0.2,0.333-0.417,0.583-0.65,0.75
				c-0.267,0.166-0.55,0.25-0.85,0.25c-0.7,0-1.217-0.334-1.55-1c-0.334-0.634-0.5-1.584-0.5-2.851
				C328.85,224.4,329.033,223.367,329.4,222.7 M376.3,229.95c0.034-0.067,0.051-0.15,0.051-0.25c0-0.067-0.017-0.15-0.051-0.25
				c-0.033-0.067-0.083-0.116-0.149-0.15c-0.066-0.066-0.134-0.116-0.2-0.149s-0.15-0.051-0.25-0.051c-0.167,0-0.3,0.066-0.4,0.2
				c-0.133,0.101-0.199,0.233-0.199,0.4s0.066,0.316,0.199,0.45c0.101,0.133,0.233,0.199,0.4,0.199c0.1,0,0.184-0.016,0.25-0.05
				c0.066-0.033,0.134-0.083,0.2-0.149S376.266,230.017,376.3,229.95 M366.7,222.45c0.2-0.134,0.367-0.267,0.5-0.4v8.15h0.8v-9.3
				h-0.2c-0.433,0.366-0.883,0.684-1.35,0.949c-0.434,0.301-0.9,0.533-1.4,0.7v0.7c0.134-0.066,0.301-0.133,0.5-0.2
				c0.2-0.1,0.4-0.2,0.601-0.3S366.533,222.55,366.7,222.45 M372.9,220.9h-0.2c-0.434,0.366-0.883,0.684-1.35,0.949
				c-0.434,0.301-0.9,0.533-1.4,0.7v0.7c0.134-0.066,0.3-0.133,0.5-0.2c0.2-0.1,0.4-0.2,0.6-0.3c0.2-0.1,0.384-0.2,0.551-0.3
				c0.199-0.134,0.366-0.267,0.5-0.4v8.15h0.8V220.9 M320.6,221.3c-0.434,0.267-0.817,0.634-1.15,1.101
				c-0.3,0.434-0.533,0.982-0.7,1.649c-0.166,0.634-0.25,1.351-0.25,2.15c0,0.667,0.067,1.25,0.2,1.75
				c0.1,0.533,0.283,0.966,0.55,1.3c0.233,0.367,0.517,0.65,0.851,0.85c0.366,0.167,0.767,0.25,1.199,0.25
				c0.4,0,0.768-0.066,1.101-0.199c0.333-0.167,0.633-0.384,0.899-0.65c0.233-0.267,0.417-0.584,0.551-0.95
				c0.133-0.366,0.199-0.783,0.199-1.25c0-0.399-0.05-0.767-0.149-1.1c-0.134-0.366-0.3-0.667-0.5-0.9
				c-0.233-0.233-0.5-0.433-0.8-0.6c-0.334-0.134-0.684-0.2-1.051-0.2c-1.033,0-1.767,0.45-2.199,1.35
				c0-0.633,0.066-1.199,0.199-1.699c0.101-0.533,0.284-0.984,0.551-1.351c0.233-0.366,0.517-0.649,0.85-0.85
				c0.367-0.2,0.75-0.3,1.15-0.3c0.5,0,0.983,0.116,1.449,0.35v-0.8c-0.399-0.167-0.883-0.25-1.449-0.25
				C321.533,220.95,321.033,221.066,320.6,221.3 M320.55,225.4c0.268-0.134,0.534-0.2,0.801-0.2c0.3,0,0.566,0.066,0.8,0.2
				c0.233,0.1,0.434,0.25,0.6,0.449c0.134,0.167,0.25,0.384,0.351,0.65c0.1,0.3,0.149,0.617,0.149,0.95c0,0.3-0.05,0.6-0.149,0.899
				c-0.101,0.268-0.233,0.5-0.4,0.7c-0.167,0.167-0.366,0.317-0.6,0.45c-0.233,0.1-0.483,0.15-0.75,0.15
				c-0.301,0-0.567-0.066-0.801-0.2c-0.232-0.134-0.433-0.3-0.6-0.5c-0.167-0.233-0.3-0.5-0.4-0.8
				c-0.1-0.301-0.149-0.617-0.149-0.95c0-0.233,0.05-0.483,0.149-0.75c0.101-0.233,0.233-0.434,0.4-0.601
				C320.117,225.65,320.317,225.5,320.55,225.4 M199.7,301.4c0-0.867-0.184-1.533-0.55-2c-0.367-0.467-0.917-0.7-1.65-0.7
				c-0.967,0-1.683,0.433-2.149,1.3H195.3v-1.15h-0.8v6.5h0.8v-3.699c0-0.334,0.051-0.634,0.15-0.9s0.233-0.5,0.4-0.7
				c0.199-0.2,0.416-0.366,0.649-0.5c0.233-0.1,0.5-0.149,0.8-0.149c1.067,0,1.601,0.732,1.601,2.199v3.75h0.8V301.4 M209.45,304.25
				c-0.167,0-0.3,0.066-0.4,0.2c-0.133,0.1-0.199,0.233-0.199,0.399c0,0.167,0.066,0.316,0.199,0.45c0.101,0.134,0.233,0.2,0.4,0.2
				c0.1,0,0.184-0.017,0.25-0.05c0.066-0.034,0.134-0.083,0.2-0.15c0.066-0.066,0.116-0.134,0.149-0.2
				c0.034-0.066,0.051-0.149,0.051-0.25c0-0.066-0.017-0.149-0.051-0.25c-0.033-0.066-0.083-0.116-0.149-0.149
				c-0.066-0.067-0.134-0.116-0.2-0.15C209.634,304.267,209.55,304.25,209.45,304.25 M207,295.75h-0.8v4.05
				c-0.434-0.733-1.116-1.1-2.05-1.1c-0.434,0-0.833,0.083-1.2,0.25c-0.366,0.167-0.684,0.417-0.95,0.75
				c-0.267,0.3-0.467,0.667-0.6,1.1c-0.134,0.434-0.2,0.917-0.2,1.45c0,0.5,0.066,0.95,0.2,1.35c0.133,0.4,0.316,0.75,0.55,1.051
				c0.233,0.266,0.517,0.482,0.85,0.649c0.334,0.134,0.7,0.2,1.101,0.2c0.5,0,0.95-0.117,1.35-0.35c0.4-0.234,0.717-0.551,0.95-0.95
				v1.149h0.8V295.75 M205.05,299.55c0.233,0.101,0.434,0.25,0.601,0.45c0.167,0.166,0.3,0.383,0.399,0.65
				c0.101,0.232,0.15,0.5,0.15,0.8v1.05c0,0.334-0.05,0.633-0.15,0.9c-0.1,0.3-0.232,0.55-0.399,0.75
				c-0.2,0.199-0.434,0.366-0.7,0.5c-0.267,0.1-0.566,0.149-0.9,0.149c-0.3,0-0.566-0.05-0.8-0.149
				c-0.267-0.134-0.483-0.316-0.649-0.551c-0.2-0.199-0.351-0.467-0.45-0.8c-0.066-0.333-0.101-0.7-0.101-1.1
				c0-0.434,0.051-0.833,0.15-1.2c0.1-0.334,0.25-0.617,0.45-0.85c0.2-0.234,0.434-0.417,0.7-0.551
				c0.267-0.133,0.55-0.199,0.85-0.199S204.783,299.45,205.05,299.55 M315.05,222.45c0.2-0.134,0.367-0.267,0.5-0.4v8.15h0.801v-9.3
				h-0.2c-0.434,0.366-0.884,0.684-1.351,0.949c-0.433,0.301-0.899,0.533-1.399,0.7v0.7c0.133-0.066,0.3-0.133,0.5-0.2
				c0.2-0.1,0.399-0.2,0.6-0.3S314.884,222.55,315.05,222.45 M311.45,220.9h-0.2c-0.433,0.366-0.883,0.684-1.35,0.949
				c-0.434,0.301-0.9,0.533-1.4,0.7v0.7c0.134-0.066,0.3-0.133,0.5-0.2c0.2-0.1,0.4-0.2,0.601-0.3c0.199-0.1,0.383-0.2,0.55-0.3
				c0.2-0.134,0.366-0.267,0.5-0.4v8.15h0.8V220.9 M192.55,305.35v-4.25c0-0.8-0.183-1.399-0.55-1.8
				c-0.366-0.399-0.916-0.6-1.649-0.6c-0.2,0-0.4,0.017-0.601,0.05s-0.383,0.084-0.55,0.15c-0.2,0.033-0.383,0.1-0.55,0.199
				c-0.167,0.066-0.316,0.15-0.45,0.25v0.9c0.634-0.566,1.333-0.85,2.1-0.85c0.967,0,1.45,0.616,1.45,1.85l-2,0.3
				c-0.733,0.101-1.283,0.333-1.649,0.7c-0.367,0.334-0.551,0.8-0.551,1.4c0,0.266,0.051,0.516,0.15,0.75
				c0.1,0.232,0.233,0.434,0.4,0.6c0.199,0.166,0.416,0.283,0.649,0.35c0.267,0.101,0.55,0.15,0.851,0.15
				c0.467,0,0.883-0.117,1.25-0.35c0.366-0.234,0.649-0.551,0.85-0.95h0.05v1.149H192.55 M188.8,302.6
				c0.134-0.1,0.301-0.184,0.5-0.25c0.233-0.066,0.483-0.116,0.75-0.149l1.7-0.25v0.649c0,0.334-0.05,0.634-0.149,0.9
				c-0.101,0.267-0.233,0.5-0.4,0.7c-0.2,0.167-0.417,0.316-0.65,0.45c-0.232,0.1-0.5,0.149-0.8,0.149c-0.2,0-0.383-0.033-0.55-0.1
				c-0.167-0.034-0.316-0.116-0.45-0.25c-0.1-0.101-0.183-0.217-0.25-0.351c-0.066-0.166-0.1-0.333-0.1-0.5
				c0-0.232,0.033-0.434,0.1-0.6C188.567,302.834,188.667,302.7,188.8,302.6 M210.05,286.75c-0.033-0.066-0.083-0.117-0.149-0.15
				c-0.066-0.066-0.134-0.116-0.2-0.149c-0.066-0.034-0.15-0.05-0.25-0.05c-0.167,0-0.3,0.066-0.4,0.199
				c-0.133,0.101-0.199,0.234-0.199,0.4s0.066,0.316,0.199,0.45c0.101,0.134,0.233,0.2,0.4,0.2c0.1,0,0.184-0.018,0.25-0.051
				s0.134-0.083,0.2-0.149c0.066-0.067,0.116-0.134,0.149-0.2c0.034-0.066,0.051-0.15,0.051-0.25
				C210.1,286.934,210.084,286.85,210.05,286.75 M184.25,296.4c-0.333-0.101-0.666-0.15-1-0.15h-2.6v9.1h0.8V301.4h1.05
				c0.167,0,0.334,0.016,0.5,0.05c0.167,0.033,0.317,0.116,0.45,0.25c0.134,0.1,0.25,0.233,0.35,0.399
				c0.134,0.167,0.268,0.384,0.4,0.65l1.4,2.6h1l-1.551-2.8c-0.1-0.2-0.199-0.384-0.3-0.55c-0.1-0.133-0.183-0.25-0.25-0.35
				c-0.1-0.134-0.2-0.234-0.3-0.301c-0.1-0.1-0.217-0.166-0.35-0.199V301.1c0.333-0.066,0.616-0.166,0.85-0.3
				c0.267-0.167,0.483-0.35,0.65-0.55c0.199-0.2,0.35-0.434,0.449-0.7c0.067-0.267,0.101-0.566,0.101-0.899
				c0-0.4-0.066-0.75-0.2-1.051c-0.167-0.3-0.366-0.55-0.6-0.75C184.834,296.65,184.55,296.5,184.25,296.4 M185.05,298.7
				c0,0.3-0.05,0.566-0.149,0.8c-0.101,0.233-0.233,0.434-0.4,0.6c-0.2,0.167-0.433,0.301-0.7,0.4c-0.232,0.066-0.5,0.1-0.8,0.1
				h-1.55V297h1.6c0.634,0,1.134,0.166,1.5,0.5C184.884,297.8,185.05,298.2,185.05,298.7 M201.4,282.9
				c-0.134,0.434-0.2,0.934-0.2,1.5c0,0.5,0.066,0.949,0.2,1.35c0.1,0.4,0.283,0.733,0.55,1c0.233,0.3,0.517,0.517,0.85,0.65
				c0.334,0.166,0.7,0.25,1.101,0.25c1.066,0,1.833-0.434,2.3-1.301v4.15h0.8V281h-0.8v1c-0.434-0.767-1.1-1.15-2-1.15
				c-0.467,0-0.883,0.084-1.25,0.25c-0.366,0.167-0.684,0.4-0.95,0.7C201.766,282.1,201.567,282.467,201.4,282.9 M202.05,284.35
				c0-0.434,0.051-0.833,0.15-1.199c0.1-0.334,0.25-0.617,0.45-0.851s0.434-0.417,0.7-0.55s0.55-0.2,0.85-0.2s0.583,0.05,0.85,0.15
				c0.233,0.1,0.434,0.25,0.601,0.45c0.167,0.166,0.3,0.383,0.399,0.649c0.101,0.267,0.15,0.534,0.15,0.8v1.051
				c0,0.333-0.05,0.633-0.15,0.899c-0.1,0.267-0.232,0.517-0.399,0.75c-0.2,0.2-0.434,0.366-0.7,0.5
				c-0.267,0.101-0.566,0.15-0.9,0.15c-0.3,0-0.583-0.05-0.85-0.15c-0.233-0.134-0.434-0.316-0.6-0.55
				c-0.2-0.2-0.351-0.467-0.45-0.8C202.084,285.117,202.05,284.75,202.05,284.35 M194.7,282.9c-0.133,0.399-0.2,0.85-0.2,1.35
				c0,0.533,0.067,1.017,0.2,1.45c0.134,0.433,0.316,0.783,0.55,1.05c0.267,0.3,0.584,0.517,0.95,0.65
				c0.333,0.166,0.717,0.25,1.15,0.25c0.899,0,1.666-0.217,2.3-0.65v-0.8c-0.667,0.5-1.367,0.75-2.101,0.75
				c-0.333,0-0.633-0.05-0.899-0.15c-0.3-0.134-0.533-0.316-0.7-0.55c-0.2-0.2-0.35-0.467-0.45-0.8c-0.1-0.3-0.149-0.65-0.149-1.05
				h4.699V284c0-0.5-0.066-0.934-0.199-1.3c-0.101-0.4-0.267-0.733-0.5-1c-0.2-0.267-0.467-0.483-0.801-0.65
				c-0.333-0.134-0.699-0.2-1.1-0.2c-0.434,0-0.833,0.084-1.2,0.25c-0.366,0.167-0.666,0.4-0.899,0.7
				C195.084,282.1,194.867,282.467,194.7,282.9 M196.65,281.7c0.233-0.101,0.483-0.15,0.75-0.15c0.566,0,1,0.184,1.3,0.55
				c0.3,0.367,0.467,0.9,0.5,1.601h-3.85c0.033-0.333,0.116-0.634,0.25-0.9c0.1-0.267,0.25-0.5,0.449-0.7
				C196.217,281.934,196.417,281.8,196.65,281.7 M193.05,284.45c-0.1-0.233-0.25-0.45-0.449-0.65c-0.167-0.2-0.4-0.399-0.7-0.6
				c-0.267-0.2-0.601-0.4-1-0.601c-0.367-0.199-0.667-0.366-0.9-0.5c-0.267-0.166-0.467-0.316-0.6-0.449
				c-0.167-0.167-0.283-0.334-0.351-0.5c-0.066-0.167-0.1-0.367-0.1-0.601c0-0.267,0.05-0.483,0.15-0.649
				c0.1-0.2,0.233-0.367,0.399-0.5c0.2-0.134,0.417-0.234,0.65-0.301s0.483-0.1,0.75-0.1c0.733,0,1.366,0.166,1.899,0.5v-0.95
				c-0.466-0.2-1.066-0.3-1.8-0.3c-0.399,0-0.783,0.05-1.149,0.15c-0.334,0.133-0.634,0.3-0.9,0.5
				c-0.267,0.199-0.483,0.449-0.65,0.75c-0.166,0.266-0.25,0.583-0.25,0.949c0,0.301,0.051,0.566,0.15,0.801
				c0.066,0.232,0.184,0.449,0.35,0.649c0.2,0.2,0.434,0.384,0.7,0.55c0.267,0.2,0.601,0.4,1,0.601c0.334,0.2,0.634,0.384,0.9,0.55
				c0.267,0.133,0.483,0.283,0.649,0.45c0.167,0.167,0.301,0.333,0.4,0.5c0.066,0.2,0.1,0.417,0.1,0.649c0,0.5-0.166,0.884-0.5,1.15
				c-0.366,0.267-0.883,0.4-1.55,0.4c-0.2,0-0.383-0.018-0.55-0.051c-0.2-0.033-0.4-0.083-0.6-0.149
				c-0.2-0.067-0.384-0.134-0.551-0.2c-0.199-0.1-0.366-0.217-0.5-0.35v1c0.101,0.066,0.25,0.133,0.45,0.199
				c0.167,0.066,0.351,0.117,0.55,0.15c0.2,0.066,0.4,0.1,0.601,0.1c0.2,0.033,0.366,0.051,0.5,0.051c0.467,0,0.883-0.051,1.25-0.15
				c0.366-0.1,0.684-0.25,0.95-0.45s0.467-0.45,0.6-0.75c0.167-0.3,0.25-0.649,0.25-1.05C193.2,284.95,193.15,284.684,193.05,284.45
				 M199.15,239.85c-0.367-0.467-0.917-0.699-1.65-0.699c-0.967,0-1.683,0.434-2.149,1.3H195.3v-1.15h-0.8v6.5h0.8v-3.7
				c0-0.333,0.051-0.633,0.15-0.899s0.233-0.5,0.4-0.7c0.199-0.2,0.416-0.367,0.649-0.5c0.233-0.1,0.5-0.15,0.8-0.15
				c1.067,0,1.601,0.734,1.601,2.2v3.75h0.8v-3.95C199.7,240.983,199.516,240.316,199.15,239.85 M209.9,244.9
				c-0.066-0.066-0.134-0.117-0.2-0.15s-0.15-0.05-0.25-0.05c-0.167,0-0.3,0.066-0.4,0.2c-0.133,0.1-0.199,0.232-0.199,0.399
				s0.066,0.317,0.199,0.45c0.101,0.133,0.233,0.2,0.4,0.2c0.1,0,0.184-0.017,0.25-0.05s0.134-0.084,0.2-0.15s0.116-0.133,0.149-0.2
				c0.034-0.066,0.051-0.149,0.051-0.25c0-0.066-0.017-0.149-0.051-0.25C210.016,244.983,209.967,244.934,209.9,244.9 M207,236.2
				h-0.8v4.05c-0.434-0.733-1.116-1.1-2.05-1.1c-0.434,0-0.833,0.083-1.2,0.25c-0.366,0.166-0.684,0.416-0.95,0.75
				c-0.267,0.3-0.467,0.666-0.6,1.1c-0.134,0.434-0.2,0.916-0.2,1.45c0,0.5,0.066,0.95,0.2,1.35c0.133,0.4,0.316,0.75,0.55,1.05
				c0.233,0.268,0.517,0.484,0.85,0.65c0.334,0.133,0.7,0.2,1.101,0.2c0.5,0,0.95-0.116,1.35-0.351c0.4-0.232,0.717-0.55,0.95-0.949
				v1.149h0.8V236.2 M202.65,240.6c0.2-0.232,0.434-0.416,0.7-0.55s0.55-0.2,0.85-0.2s0.583,0.051,0.85,0.15
				c0.233,0.1,0.434,0.25,0.601,0.45c0.167,0.167,0.3,0.384,0.399,0.649c0.101,0.234,0.15,0.5,0.15,0.801v1.05
				c0,0.333-0.05,0.634-0.15,0.899c-0.1,0.301-0.232,0.551-0.399,0.75c-0.2,0.2-0.434,0.367-0.7,0.5
				c-0.267,0.101-0.566,0.15-0.9,0.15c-0.3,0-0.566-0.05-0.8-0.15c-0.267-0.133-0.483-0.316-0.649-0.55
				c-0.2-0.2-0.351-0.466-0.45-0.8c-0.066-0.334-0.101-0.7-0.101-1.1c0-0.434,0.051-0.834,0.15-1.2
				C202.3,241.117,202.45,240.834,202.65,240.6 M188.2,240.7c0.634-0.567,1.333-0.851,2.1-0.851c0.967,0,1.45,0.617,1.45,1.851
				l-2,0.3c-0.733,0.1-1.283,0.334-1.649,0.7c-0.367,0.333-0.551,0.8-0.551,1.399c0,0.268,0.051,0.518,0.15,0.75
				c0.1,0.234,0.233,0.434,0.4,0.601c0.199,0.167,0.416,0.283,0.649,0.35c0.267,0.101,0.55,0.15,0.851,0.15
				c0.467,0,0.883-0.116,1.25-0.351c0.366-0.232,0.649-0.55,0.85-0.949h0.05v1.149h0.8v-4.25c0-0.8-0.183-1.399-0.55-1.8
				c-0.366-0.4-0.916-0.6-1.649-0.6c-0.2,0-0.4,0.016-0.601,0.05c-0.2,0.033-0.383,0.083-0.55,0.149
				c-0.2,0.033-0.383,0.101-0.55,0.2c-0.167,0.067-0.316,0.15-0.45,0.25V240.7 M191.75,242.4v0.649c0,0.333-0.05,0.634-0.149,0.9
				c-0.101,0.267-0.233,0.5-0.4,0.7c-0.2,0.166-0.417,0.316-0.65,0.449c-0.232,0.101-0.5,0.15-0.8,0.15c-0.2,0-0.383-0.033-0.55-0.1
				c-0.167-0.033-0.316-0.117-0.45-0.25c-0.1-0.101-0.183-0.217-0.25-0.351c-0.066-0.167-0.1-0.333-0.1-0.5
				c0-0.233,0.033-0.433,0.1-0.6c0.067-0.167,0.167-0.3,0.3-0.4c0.134-0.1,0.301-0.183,0.5-0.25c0.233-0.066,0.483-0.116,0.75-0.149
				L191.75,242.4 M180.65,236.7v9.1h0.8v-3.95h1.05c0.167,0,0.334,0.018,0.5,0.051c0.167,0.033,0.317,0.116,0.45,0.25
				c0.134,0.1,0.25,0.232,0.35,0.399c0.134,0.167,0.268,0.384,0.4,0.65l1.4,2.6h1l-1.551-2.8c-0.1-0.2-0.199-0.383-0.3-0.55
				c-0.1-0.134-0.183-0.25-0.25-0.351c-0.1-0.133-0.2-0.232-0.3-0.3c-0.1-0.1-0.217-0.167-0.35-0.2v-0.05
				c0.333-0.066,0.616-0.167,0.85-0.3c0.267-0.166,0.483-0.35,0.65-0.55c0.199-0.2,0.35-0.434,0.449-0.7
				c0.067-0.267,0.101-0.566,0.101-0.9c0-0.399-0.066-0.75-0.2-1.05c-0.167-0.3-0.366-0.55-0.6-0.75
				c-0.267-0.2-0.551-0.35-0.851-0.45c-0.333-0.1-0.666-0.149-1-0.149H180.65 M181.45,241.05v-3.6h1.6c0.634,0,1.134,0.167,1.5,0.5
				c0.334,0.3,0.5,0.7,0.5,1.2c0,0.3-0.05,0.566-0.149,0.8c-0.101,0.233-0.233,0.433-0.4,0.6c-0.2,0.167-0.433,0.3-0.7,0.4
				c-0.232,0.066-0.5,0.1-0.8,0.1H181.45 M210.05,227.2c-0.033-0.067-0.083-0.116-0.149-0.15c-0.066-0.066-0.134-0.116-0.2-0.149
				s-0.15-0.051-0.25-0.051c-0.167,0-0.3,0.066-0.4,0.2c-0.133,0.101-0.199,0.233-0.199,0.4s0.066,0.316,0.199,0.45
				c0.101,0.133,0.233,0.199,0.4,0.199c0.1,0,0.184-0.016,0.25-0.05c0.066-0.033,0.134-0.083,0.2-0.149s0.116-0.134,0.149-0.2
				c0.034-0.067,0.051-0.15,0.051-0.25C210.1,227.383,210.084,227.3,210.05,227.2 M207,221.45h-0.8v1c-0.434-0.767-1.1-1.15-2-1.15
				c-0.467,0-0.883,0.083-1.25,0.25c-0.366,0.167-0.684,0.4-0.95,0.7c-0.233,0.3-0.433,0.666-0.6,1.1
				c-0.134,0.434-0.2,0.934-0.2,1.5c0,0.5,0.066,0.95,0.2,1.351c0.1,0.399,0.283,0.733,0.55,1c0.233,0.3,0.517,0.517,0.85,0.649
				c0.334,0.167,0.7,0.25,1.101,0.25c1.066,0,1.833-0.434,2.3-1.3v4.15h0.8V221.45 M203.35,222.2c0.267-0.134,0.55-0.2,0.85-0.2
				s0.583,0.05,0.85,0.15c0.233,0.1,0.434,0.25,0.601,0.449c0.167,0.167,0.3,0.384,0.399,0.65c0.101,0.267,0.15,0.533,0.15,0.8v1.05
				c0,0.334-0.05,0.634-0.15,0.9c-0.1,0.267-0.232,0.517-0.399,0.75c-0.2,0.2-0.434,0.367-0.7,0.5c-0.267,0.1-0.566,0.15-0.9,0.15
				c-0.3,0-0.583-0.051-0.85-0.15c-0.233-0.133-0.434-0.316-0.6-0.55c-0.2-0.2-0.351-0.467-0.45-0.8
				c-0.066-0.334-0.101-0.7-0.101-1.101c0-0.433,0.051-0.833,0.15-1.2c0.1-0.333,0.25-0.616,0.45-0.85S203.084,222.334,203.35,222.2
				 M196.25,221.55c-0.366,0.167-0.666,0.4-0.899,0.7c-0.267,0.3-0.483,0.666-0.65,1.1c-0.133,0.4-0.2,0.851-0.2,1.351
				c0,0.533,0.067,1.017,0.2,1.45c0.134,0.434,0.316,0.783,0.55,1.05c0.267,0.3,0.584,0.517,0.95,0.649
				c0.333,0.167,0.717,0.25,1.15,0.25c0.899,0,1.666-0.217,2.3-0.649v-0.8c-0.667,0.5-1.367,0.75-2.101,0.75
				c-0.333,0-0.633-0.051-0.899-0.15c-0.3-0.133-0.533-0.316-0.7-0.55c-0.2-0.2-0.35-0.467-0.45-0.8
				c-0.1-0.301-0.149-0.65-0.149-1.051h4.699v-0.399c0-0.5-0.066-0.934-0.199-1.3c-0.101-0.4-0.267-0.734-0.5-1
				c-0.2-0.268-0.467-0.484-0.801-0.65c-0.333-0.133-0.699-0.2-1.1-0.2C197.016,221.3,196.617,221.383,196.25,221.55 M197.4,222
				c0.566,0,1,0.184,1.3,0.55s0.467,0.9,0.5,1.601h-3.85c0.033-0.334,0.116-0.634,0.25-0.9c0.1-0.267,0.25-0.5,0.449-0.7
				c0.167-0.167,0.367-0.3,0.601-0.399C196.884,222.05,197.134,222,197.4,222 M190.15,219.55c0.233-0.066,0.483-0.1,0.75-0.1
				c0.733,0,1.366,0.167,1.899,0.5V219c-0.466-0.2-1.066-0.3-1.8-0.3c-0.399,0-0.783,0.05-1.149,0.149
				c-0.334,0.134-0.634,0.301-0.9,0.5c-0.267,0.2-0.483,0.45-0.65,0.75c-0.166,0.268-0.25,0.584-0.25,0.95
				c0,0.3,0.051,0.567,0.15,0.8c0.066,0.234,0.184,0.45,0.35,0.65c0.2,0.2,0.434,0.383,0.7,0.55c0.267,0.2,0.601,0.4,1,0.601
				c0.334,0.199,0.634,0.383,0.9,0.55c0.267,0.134,0.483,0.283,0.649,0.45c0.167,0.166,0.301,0.333,0.4,0.5
				c0.066,0.199,0.1,0.416,0.1,0.649c0,0.5-0.166,0.884-0.5,1.15c-0.366,0.267-0.883,0.399-1.55,0.399c-0.2,0-0.383-0.016-0.55-0.05
				c-0.2-0.033-0.4-0.083-0.6-0.149c-0.2-0.066-0.384-0.134-0.551-0.2c-0.199-0.101-0.366-0.217-0.5-0.351v1
				c0.101,0.066,0.25,0.134,0.45,0.2c0.167,0.067,0.351,0.116,0.55,0.15c0.2,0.066,0.4,0.1,0.601,0.1c0.2,0.034,0.366,0.05,0.5,0.05
				c0.467,0,0.883-0.05,1.25-0.149c0.366-0.101,0.684-0.25,0.95-0.45s0.467-0.45,0.6-0.75c0.167-0.3,0.25-0.65,0.25-1.05
				c0-0.3-0.05-0.567-0.15-0.8c-0.1-0.234-0.25-0.45-0.449-0.65c-0.167-0.2-0.4-0.4-0.7-0.6c-0.267-0.2-0.601-0.4-1-0.601
				c-0.367-0.2-0.667-0.366-0.9-0.5c-0.267-0.167-0.467-0.316-0.6-0.45c-0.167-0.166-0.283-0.333-0.351-0.5
				c-0.066-0.166-0.1-0.366-0.1-0.6c0-0.267,0.05-0.483,0.15-0.65c0.1-0.199,0.233-0.366,0.399-0.5
				C189.7,219.717,189.917,219.617,190.15,219.55 M338.15,270.85h3.25v-10.5h-3.25V270.85 M332.95,265.85c0-0.899,0.2-1.6,0.6-2.1
				c0.4-0.533,0.95-0.8,1.65-0.8c0.533,0,0.983,0.1,1.35,0.3v-2.95c-0.166-0.1-0.433-0.149-0.8-0.149
				c-1.333,0-2.25,0.717-2.75,2.149h-0.05v-1.95h-3.25v10.5h3.25V265.85 M338.45,258.2c0.367,0.333,0.816,0.5,1.35,0.5
				c0.567,0,1.018-0.167,1.351-0.5c0.333-0.3,0.5-0.7,0.5-1.2c0-0.467-0.167-0.867-0.5-1.2c-0.333-0.3-0.783-0.45-1.351-0.45
				c-0.533,0-0.982,0.15-1.35,0.45c-0.333,0.333-0.5,0.733-0.5,1.2S338.117,257.867,338.45,258.2 M353.05,261.6
				c-1,1.033-1.5,2.417-1.5,4.15c0,1.7,0.467,3.017,1.4,3.95c0.934,0.933,2.25,1.399,3.95,1.399c1.533,0,2.783-0.25,3.75-0.75V268
				c-0.867,0.533-1.867,0.8-3,0.8c-1.833,0-2.8-0.767-2.9-2.3h6.851v-1.35c0-1.566-0.417-2.801-1.25-3.7
				c-0.834-0.9-2.017-1.351-3.551-1.351C355.3,260.1,354.05,260.6,353.05,261.6 M358.6,264.55h-3.851
				c0.067-0.667,0.283-1.216,0.65-1.649c0.399-0.4,0.85-0.601,1.35-0.601C357.983,262.3,358.6,263.05,358.6,264.55 M348.1,257.15
				l-3.25,0.949v2.25h-1.7v2.4h1.7v4.8c0,2.366,1.149,3.55,3.449,3.55c0.967,0,1.684-0.116,2.15-0.35v-2.4
				c-0.366,0.167-0.717,0.25-1.05,0.25c-0.867,0-1.3-0.533-1.3-1.6v-4.25h2.35v-2.4h-2.35V257.15 M328.15,256.15h-3.3l-2.051,9.8
				c-0.133,0.566-0.199,1.116-0.199,1.649h-0.051c-0.066-0.699-0.149-1.232-0.25-1.6l-2.399-9.85h-3.55l-2.65,9.75
				c-0.2,0.633-0.3,1.199-0.3,1.699H313.3c-0.033-0.699-0.083-1.25-0.149-1.649l-2.101-9.8h-3.6l3.85,14.699h3.851l2.5-9.449
				c0.1-0.434,0.184-0.984,0.25-1.65h0.05c0.033,0.633,0.1,1.184,0.2,1.65l2.45,9.449h3.699L328.15,256.15 M357.35,196.1h-3.25v6.25
				h-0.051c-0.533-0.967-1.466-1.449-2.8-1.449c-1.433,0-2.6,0.516-3.5,1.55c-0.866,1.066-1.3,2.466-1.3,4.2
				c0,1.666,0.4,2.949,1.2,3.85c0.8,0.934,1.85,1.4,3.149,1.4c1.434,0,2.518-0.566,3.25-1.7h0.051v1.45h3.25V196.1 M352,203.4
				c0.634,0,1.15,0.217,1.55,0.649c0.4,0.467,0.601,1.034,0.601,1.7v0.8c0,0.866-0.2,1.567-0.601,2.101
				c-0.433,0.5-0.966,0.75-1.6,0.75c-0.7,0-1.25-0.234-1.65-0.7c-0.366-0.5-0.55-1.217-0.55-2.15c0-1,0.2-1.767,0.601-2.3
				C350.75,203.684,351.3,203.4,352,203.4 M344.5,211.65v-6.301c0-2.967-1.5-4.449-4.5-4.449c-0.633,0-1.333,0.083-2.1,0.25
				c-0.8,0.199-1.434,0.416-1.9,0.649v2.4c1.134-0.733,2.334-1.101,3.601-1.101c1.233,0,1.85,0.566,1.85,1.7l-2.85,0.4
				c-2.4,0.3-3.601,1.483-3.601,3.55c0,0.934,0.283,1.7,0.851,2.3c0.6,0.567,1.399,0.851,2.399,0.851c1.4,0,2.45-0.584,3.15-1.75
				h0.05v1.5H344.5 M338.35,209.25c-0.267-0.233-0.4-0.533-0.4-0.9c0-0.8,0.533-1.283,1.6-1.449l1.9-0.2v0.7
				c0,0.633-0.184,1.166-0.55,1.6c-0.4,0.4-0.9,0.6-1.5,0.6C338.967,209.6,338.617,209.483,338.35,209.25 M329.05,200.9
				c-1.5,0-2.75,0.5-3.75,1.5c-1,1.033-1.5,2.416-1.5,4.149c0,1.7,0.467,3.017,1.4,3.95s2.25,1.4,3.95,1.4
				c1.533,0,2.783-0.25,3.75-0.75V208.8c-0.867,0.534-1.867,0.8-3,0.8c-1.833,0-2.8-0.766-2.9-2.3h6.851v-1.35
				c0-1.567-0.417-2.8-1.25-3.7C331.766,201.35,330.584,200.9,329.05,200.9 M327.65,203.7c0.399-0.4,0.85-0.601,1.35-0.601
				c1.233,0,1.851,0.75,1.851,2.25H327C327.067,204.684,327.283,204.133,327.65,203.7 M316.8,196.95h-5.25v14.7h3.301V206h0.899
				c0.2,0,0.384,0.05,0.55,0.15c0.167,0.1,0.334,0.217,0.5,0.35c0.167,0.166,0.334,0.367,0.5,0.6c0.134,0.234,0.301,0.484,0.5,0.75
				l2.25,3.801h3.801l-2.75-4.351c-0.167-0.233-0.334-0.466-0.5-0.7c-0.167-0.232-0.351-0.449-0.551-0.649
				c-0.166-0.2-0.366-0.384-0.6-0.55c-0.2-0.134-0.4-0.234-0.6-0.301v-0.05c0.5-0.167,0.949-0.366,1.35-0.6
				c0.4-0.267,0.75-0.567,1.05-0.9c0.267-0.366,0.483-0.767,0.65-1.2s0.25-0.899,0.25-1.399
				C322.15,198.283,320.367,196.95,316.8,196.95 M314.85,199.45h1.5c1.533,0,2.3,0.633,2.3,1.899c0,0.634-0.217,1.15-0.65,1.551
				c-0.433,0.399-1,0.6-1.7,0.6h-1.449V199.45 M220.45,280.35v8.9h16.95v-8.9H220.45 M222.65,296.8h-2.15v8.9h2.15V296.8
				 M220.5,237.3v8.9h4.25v-8.9H220.5 M305.25,229.75v-8.9h-84.8v8.9H305.25 M294.45,167.6v-9.35c-0.467,1.8-2.383,3.517-5.75,5.15
				c-4.3,2.067-9.65,3.467-16.05,4.2H294.45 M270.45,143.75c-0.2,0.067-0.35,0.15-0.45,0.25l1,0.8l3.15,2.4l-0.2,0.1l-9.45,5.55
				l15.15-4.55l2.05-0.6l-3.1-2.9h-2h2l-1.15-1.05H270.45 M299.4,179.65v4.9h3.05v-4.9H299.4 M234.65,164.1
				c-0.5-0.2-0.983-0.4-1.45-0.6c-0.434-0.233-0.85-0.467-1.25-0.7c-2.434-1.333-3.866-2.733-4.3-4.2v9.1l21.75-0.05
				c-3.333-0.4-6.417-0.967-9.25-1.7C238.117,165.417,236.283,164.8,234.65,164.1 M265.65,154.7c-0.066-0.4-0.533-0.733-1.4-1
				c-0.899-0.267-1.95-0.4-3.149-0.4c-1.2,0-2.233,0.133-3.101,0.4c-0.933,0.267-1.416,0.6-1.45,1c-0.066,0.4,0.351,0.75,1.25,1.05
				c0.867,0.3,1.967,0.45,3.301,0.45c1.267,0,2.366-0.15,3.3-0.45C265.233,155.45,265.65,155.1,265.65,154.7 M237.9,138.8l0.05,4.6
				l1.2-1.55l44-0.05l1.2,1.55l0.05-4.6L237.9,138.8 M351.8,280.35v8.9h8.45v-8.9H351.8 M358.25,296.8h-6.75v8.9h6.75V296.8
				 M351.8,220.85v8.9h8.45v-8.9H351.8 M351.8,237.3v8.9h8.45v-8.9H351.8 M450.65,162.65v4.9h2.8v-4.9H450.65z"/>
			<path fill="#FFFFFF" d="M362.5,150.75v19.3h95.25V150.6l-95.2,0.15H362.5 M450.65,167.55v-4.9h2.8v4.9H450.65 M362.8,150.65
				l-0.25,0.1l95.2-0.15l-32.699-8.8h-29.7L362.8,150.65z"/>
		</g>
	</g>
	<g>
		<path id="Layer0_0_1_STROKES" fill="none" stroke="#2D0B44" stroke-width="2" stroke-linejoin="round" d="M362.5,150.75h0.05
			l0.25-0.1l32.551-8.85h29.7l32.699,8.8v19.45H362.5V150.75z M457.75,150.6l-95.2,0.15 M351.8,220.85h8.45v8.9h-8.45V220.85z
			 M351.8,237.3h8.45v8.9h-8.45V237.3z M351.8,280.35h8.45v8.9h-8.45V280.35z M351.5,296.8h6.75v8.9h-6.75V296.8z M227.65,167.7
			H212.9 M272.65,167.6l-23.25,0.05 M212.9,167.7V187h95.25v-19.45l-13.7,0.05h-21.8 M261.1,153.3c1.199,0,2.25,0.133,3.149,0.4
			c0.867,0.267,1.334,0.6,1.4,1c0,0.4-0.417,0.75-1.25,1.05c-0.934,0.3-2.033,0.45-3.3,0.45c-1.334,0-2.434-0.15-3.301-0.45
			c-0.899-0.3-1.316-0.65-1.25-1.05c0.034-0.4,0.518-0.733,1.45-1C258.867,153.433,259.9,153.3,261.1,153.3z M284.4,138.75
			l23.75,28.8 M249.4,167.65l-21.75,0.05 M220.45,220.85h84.8v8.9h-84.8V220.85z M220.5,237.3h4.25v8.9h-4.25V237.3z M220.5,296.8
			h2.15v8.9h-2.15V296.8z M220.45,280.35h16.95v8.9h-16.95V280.35z"/>
	</g>
	<g>
		<path id="Layer0_0_2_STROKES" fill="none" stroke="#2D0B44" stroke-linejoin="round" d="M227.65,158.6c-0.2-0.667-0.2-1.333,0-2
			c0.167-0.6,0.5-1.217,1-1.85c1.467-1.867,4.184-3.467,8.149-4.8v-5.1l1.15-1.45 M227.65,167.7v-9.1
			c0.434,1.467,1.866,2.867,4.3,4.2l2.7,1.3c1.633,0.7,3.467,1.316,5.5,1.85c2.833,0.733,5.917,1.3,9.25,1.7 M272.65,167.6
			c6.399-0.733,11.75-2.133,16.05-4.2c3.367-1.633,5.283-3.35,5.75-5.15c0.134-0.567,0.134-1.133,0-1.7
			c-0.167-0.633-0.483-1.267-0.95-1.9c-1.5-1.867-4.217-3.467-8.149-4.8c-1.167-0.4-2.434-0.767-3.801-1.1
			c-0.3-0.1-0.583-0.183-0.85-0.25c-0.366-0.067-0.717-0.133-1.05-0.2l-15.15,4.55l9.45-5.55c-3.934-0.533-8.167-0.8-12.7-0.8
			c-4.866,0-9.3,0.3-13.3,0.9c-0.633,0.1-1.233,0.2-1.8,0.3c-1.566,0.233-3.066,0.517-4.5,0.85c-1.8,0.434-3.417,0.9-4.851,1.4
			 M237.95,143.4l1.2-1.55l44-0.05l1.2,1.55 M234.65,164.1c-0.5-0.2-0.983-0.4-1.45-0.6c-0.434-0.233-0.85-0.467-1.25-0.7
			 M284.35,143.35l1.05,1.45l-0.05,5.05 M271,144.8l-1-0.8c0.101-0.1,0.25-0.183,0.45-0.25c1.367-0.633,3.65-0.683,6.85-0.15
			l0.15,0.15l1.15,1.05h6.8 M278.6,144.8l3.1,2.9l-2.05,0.6 M278.6,144.8h-2 M273.95,147.3l0.2-0.1l-3.15-2.4l-34.2,0.05
			 M270.45,143.75h7 M294.45,158.25v9.35 M177,273.4h296.25 M177,213.8h296.25"/>
	</g>
	<g>
		<path id="Layer0_0_3_STROKES" fill="none" stroke="#2D0B44" stroke-width="2" stroke-linecap="round" stroke-linejoin="round" d="
			M212.9,167.7l25-28.9l46.5-0.05"/>
	</g>
</g>
</svg>
