<?xml version="1.0" encoding="utf-8"?>
<!-- Generator: Adobe Illustrator 15.1.0, SVG Export Plug-In . SVG Version: 6.00 Build 0)  -->
<!DOCTYPE svg PUBLIC "-//W3C//DTD SVG 1.1//EN" "http://www.w3.org/Graphics/SVG/1.1/DTD/svg11.dtd">
<svg version="1.1" id="Layer_1" xmlns="http://www.w3.org/2000/svg" xmlns:xlink="http://www.w3.org/1999/xlink" x="0px" y="0px"
	 width="402.9px" height="313.85px" viewBox="29.5 37.6 402.9 313.85" enable-background="new 29.5 37.6 402.9 313.85"
	 xml:space="preserve">
<g transform="matrix( 1, 0, 0, 1, 0,0) ">
	<g>
		<g id="Layer1_0_FILL">
			<path fill="#2D0B44" d="M186.7,282l11.45,4.65l1.1-0.601C198.05,282.617,193.867,281.267,186.7,282 M169.15,292.25l-1,0.15
				l-41.101,4.949l43.2,0.2l6.7,0.05l16.25-8.399l4.95-2.55L186.7,282c-0.8,0.066-1.616,0.166-2.45,0.3l-3.1,2.101L169.15,292.25
				 M60.65,299.9v4.899l1.6-0.6C61.384,302.8,60.85,301.367,60.65,299.9 M76.6,314.15c-7.233-2.934-12.017-6.25-14.351-9.95
				l-1.6,0.6v4.25l54.25,21.7l55.399-22.1l-0.05-9.15c-0.5,5.666-5.85,10.55-16.05,14.65c-10.7,4.267-23.633,6.399-38.8,6.399
				C100.266,320.55,87.334,318.417,76.6,314.15 M120.8,296.45c-1.5-0.601-3.3-0.9-5.399-0.9c-2.134,0-3.95,0.3-5.45,0.9
				c-1.5,0.566-2.25,1.3-2.25,2.2c0,0.8,0.75,1.516,2.25,2.149c1.5,0.601,3.316,0.9,5.45,0.9c2.1,0,3.899-0.3,5.399-0.9
				c1.5-0.634,2.25-1.35,2.25-2.149C123.05,297.75,122.3,297.017,120.8,296.45 M125.95,262.3l21.6-8.7l76.5,30.601v2.899
				L236.4,282.2l0.05-0.05l-83.9-33.551L31,297.2l24.351,9.75l5.3-2.15V299.9c-0.066-0.434-0.101-0.867-0.101-1.301
				c0-0.467,0.034-0.916,0.101-1.35c0.733-5.467,6.05-10.184,15.95-14.15c10.699-4.3,23.633-6.449,38.8-6.449
				c3.633,0,7.149,0.116,10.55,0.35V262.3 M53,227.25v-20.9L37.85,212.45l0.05,20.95L53,227.25 M63.2,202.2V223.1l15.2-6.1v-20.9
				L63.2,202.2 M129.1,196.5v-20.95L114,181.7V202.6L129.1,196.5 M139.35,171.45v20.9l15.1-6.05v-20.95L139.35,171.45
				 M103.75,185.85l-15.2,6.05v20.95l15.2-6.1V185.85 M190.1,150.9v20.95l15.05-6.1v-20.9L190.1,150.9 M164.7,161.2v20.9l15.1-6.1
				v-20.9L164.7,161.2 M230.65,134.6l-15,6.05l-0.05,20.85l15.05-6.05V134.6 M236.45,165.55v-7.15l-205.4,82.95L31,248.6
				L236.45,165.55 M132.85,61.6l-39.5,15.8l39.5,15.8l39.5-15.8L132.85,61.6 M105.1,75.55l-4.5,1.8l32.199,12.9L100.6,77.35
				L105.1,75.55l32.199,12.9l26.4-10.55l-9.65-3.9l9.65,3.9l-26.4,10.55L105.1,75.55 M137.9,83.55l17.85-7L137.9,83.55l-26.25-10.5
				l13.25-5.3l12.5,5l-12.5-5l-13.25,5.3L137.9,83.55 M137.75,78.6L122.1,72.35L137.75,78.6l13.55-5.4l-17.149-6.85L151.3,73.2
				L137.75,78.6z"/>
		</g>
	</g>
	<g>
		<path id="Layer1_0_1_STROKES" fill="none" stroke="#2D0B44" stroke-width="3" stroke-linejoin="round" d="M198.8,114.5V95.25
			l-9.3,3.7v19.25 M217.4,107.05V87.8l-9.3,3.75v19.2 M236.45,99.4V80.2l-9.75,3.9v19.2 M226.7,84.1l-9.3,3.7 M208.1,91.55
			l-9.301,3.7 M180.2,121.95V102.7l-9.3,3.7v19.25 M236.45,158.4v7.15L31,248.6l0.05-7.25L31,210.25l205.45-83V158.4l-205.4,82.95
			 M189.5,98.95l-9.3,3.75 M132.85,61.6l39.5,15.8l-39.5,15.8l-39.5-15.8L132.85,61.6z M59.35,110.75v-19.2l-9.301-3.7v19.2
			 M68.65,114.5V95.25l-9.3-3.7 M50.05,87.85l-9.3-3.75v19.2 M40.75,84.1L31,80.2v19.2 M87.25,121.95V102.7l-9.3-3.7v19.2
			 M161.6,129.4v-19.25l-9.301,3.7v19.25 M152.3,113.85l-9.3,3.75v19.2 M133.7,121.3l0.05,2.4v-2.4H133.7l-9.25-3.7v19.2
			 M133.75,123.7l-0.05,16.8 M143,117.6l-9.25,3.7 M115.15,133.1v-19.2l-9.3-3.75v19.25 M105.85,110.15l-9.301-3.7v19.2
			 M96.55,106.45l-9.3-3.75 M124.45,117.6l-9.3-3.7 M31,80.2l102.75-41.1l102.7,41.1 M77.95,99l-9.3-3.75 M170.9,106.4l-9.3,3.75"/>
	</g>
	<g>
		<path id="Layer1_0_2_STROKES" fill="none" stroke="#FFFFFF" stroke-width="2" stroke-linejoin="round" d="M154.05,74l9.65,3.9
			l-26.4,10.55L105.1,75.55l-4.5,1.8l32.199,12.9 M137.4,72.75l-12.5-5l-13.25,5.3l26.25,10.5l17.85-7 M134.15,66.35L151.3,73.2
			l-13.55,5.4L122.1,72.35"/>
	</g>
	<g>
		<path id="Layer1_0_3_STROKES" fill="none" stroke="#2D0B44" stroke-width="2" stroke-linejoin="round" d="M120.8,296.45
			c1.5,0.566,2.25,1.3,2.25,2.2c0,0.8-0.75,1.516-2.25,2.149c-1.5,0.601-3.3,0.9-5.399,0.9c-2.134,0-3.95-0.3-5.45-0.9
			c-1.5-0.634-2.25-1.35-2.25-2.149c0-0.9,0.75-1.634,2.25-2.2c1.5-0.601,3.316-0.9,5.45-0.9
			C117.5,295.55,119.3,295.85,120.8,296.45z M60.65,299.9c-0.066-0.434-0.101-0.867-0.101-1.301c0-0.467,0.034-0.916,0.101-1.35
			c0.733-5.467,6.05-10.184,15.95-14.15c10.699-4.3,23.633-6.449,38.8-6.449c3.633,0,7.149,0.116,10.55,0.35v-14.7l21.6-8.7
			l76.5,30.601v2.899L236.4,282.2l0.05-0.05l-83.9-33.551L31,297.2l24.351,9.75 M60.65,304.8V299.9v-2.65 M125.95,277
			c1.3,0.1,2.583,0.217,3.85,0.35c9.101,0.934,17.233,2.851,24.4,5.75c6.833,2.734,11.483,5.834,13.95,9.301l1-0.15l12-7.85
			l-55.2-22.101 M60.65,304.8v4.25l54.25,21.7l55.399-22.1l-0.05-9.15c-0.5,5.666-5.85,10.55-16.05,14.65
			c-10.7,4.267-23.633,6.399-38.8,6.399c-15.134,0-28.066-2.133-38.8-6.399c-7.233-2.934-12.017-6.25-14.351-9.95L60.65,304.8z
			 M60.65,309.05l-5.3-2.1 M62.25,304.2c-0.866-1.4-1.399-2.833-1.6-4.3 M31,297.6v19l83.9,33.851v-19.7 M181.15,284.4l3.1-2.101
			c0.834-0.134,1.65-0.233,2.45-0.3c7.167-0.733,11.35,0.617,12.55,4.05l-1.1,0.601l-4.95,2.55l9.25,3.649l21.6-8.649 M186.7,282
			l11.45,4.65 M202.45,292.85v2.9l21.6-8.65 M202.45,295.75l-0.05,0.05l-19.8,7.851l-12.301,5 M170.25,297.55
			c0.033,0.366,0.05,0.717,0.05,1.05c0,0.268-0.017,0.566-0.05,0.9l12.351,4.15 M193.2,289.2l-16.25,8.399l-6.7-0.05l-43.2-0.2
			l41.101-4.949 M236.4,282.2l0.05,19.8L114.9,350.45"/>
	</g>
</g>
<g transform="matrix( 1, 0, 0, 1, 0,0) ">
	<g>
		<g id="Layer0_0_FILL">
			<path fill="#2D0B44" d="M297.3,304.1c-1.5,0-2.649,0.667-3.449,2c-0.801,1.334-1.2,3.301-1.2,5.9c0,2.366,0.383,4.184,1.149,5.45
				c0.768,1.233,1.834,1.85,3.2,1.85c1.434,0,2.55-0.649,3.351-1.95c0.8-1.3,1.199-3.199,1.199-5.699
				C301.55,306.616,300.134,304.1,297.3,304.1 M294.6,306.7c0.633-1.167,1.517-1.75,2.649-1.75c2.2,0,3.3,2.283,3.3,6.85
				c0,2.134-0.3,3.767-0.899,4.9c-0.601,1.166-1.45,1.75-2.55,1.75c-1.101,0-1.95-0.566-2.551-1.7c-0.6-1.134-0.899-2.75-0.899-4.85
				C293.65,309.6,293.967,307.866,294.6,306.7 M308.1,304.1c-1.5,0-2.65,0.667-3.45,2c-0.8,1.334-1.2,3.301-1.2,5.9
				c0,2.366,0.384,4.184,1.15,5.45c0.767,1.233,1.833,1.85,3.199,1.85c1.434,0,2.551-0.649,3.351-1.95c0.8-1.3,1.2-3.199,1.2-5.699
				C312.35,306.616,310.933,304.1,308.1,304.1 M305.4,306.7c0.633-1.167,1.517-1.75,2.649-1.75c2.2,0,3.301,2.283,3.301,6.85
				c0,2.134-0.301,3.767-0.9,4.9c-0.6,1.166-1.45,1.75-2.55,1.75c-1.101,0-1.95-0.566-2.55-1.7c-0.601-1.134-0.9-2.75-0.9-4.85
				C304.45,309.6,304.766,307.866,305.4,306.7 M329.2,308.15c0-1.134-0.366-2.051-1.1-2.75c-0.767-0.7-1.801-1.051-3.101-1.051
				h-4.05v14.7h1v-6.55h1.85c0.601,0,1.101,0.15,1.5,0.45c0.4,0.3,0.801,0.899,1.2,1.8l1.95,4.3h1.15l-2.15-4.7
				c-0.566-1.166-1.133-1.866-1.7-2.1v-0.05c1.067-0.2,1.917-0.65,2.55-1.351C328.9,310.116,329.2,309.217,329.2,308.15
				 M324.7,305.3c1.1,0,1.95,0.267,2.55,0.8c0.601,0.5,0.9,1.217,0.9,2.15c0,1.033-0.333,1.85-1,2.45
				c-0.667,0.566-1.55,0.85-2.65,0.85h-2.55v-6.25H324.7 M340.8,308.45c0-1.334-0.399-2.351-1.199-3.05
				c-0.801-0.7-1.95-1.051-3.45-1.051h-3.55v14.7h1v-5.899h2.1c1.6,0,2.85-0.434,3.75-1.301
				C340.35,310.95,340.8,309.816,340.8,308.45 M335.95,305.3c2.533,0,3.8,1.101,3.8,3.3c0,1.134-0.35,2.034-1.05,2.7
				c-0.667,0.601-1.667,0.9-3,0.9h-2.1v-6.9H335.95 M357.7,304.35h-0.9L351.4,316.1c-0.233,0.634-0.351,0.967-0.351,1l-0.1,0.301
				h-0.05c-0.101-0.2-0.184-0.4-0.25-0.601c-0.033-0.1-0.066-0.217-0.101-0.35c-0.066-0.101-0.116-0.184-0.149-0.25l-5.45-11.851
				H344v14.7h1v-10.7c0-0.633-0.017-1.283-0.05-1.949H345c0.134,0.566,0.283,1.033,0.45,1.399l5.25,11.25h0.35l5.2-11.3
				c0.167-0.3,0.351-0.733,0.55-1.3h0.051c-0.067,1.2-0.101,1.916-0.101,2.149v10.45h0.95V304.35 M278.9,305.2
				c-0.634,1.134-1.233,2.25-1.8,3.35c-0.567,1.134-1.084,2.267-1.551,3.4c-0.5,1.133-0.933,2.283-1.3,3.45
				c-0.366,1.166-0.649,2.383-0.85,3.649h1.05c0.2-1.3,0.483-2.533,0.85-3.7c0.367-1.199,0.801-2.366,1.301-3.5
				c0.467-1.166,1-2.333,1.6-3.5c0.634-1.166,1.283-2.383,1.95-3.649v-0.351h-9.05v0.851H278.9 M288.4,305.75
				c0.533,0.533,0.8,1.3,0.8,2.3c0,0.533-0.083,1.017-0.25,1.45s-0.4,0.833-0.7,1.2c-0.267,0.366-0.6,0.717-1,1.05
				c-0.366,0.3-0.783,0.616-1.25,0.95c-0.433,0.333-0.85,0.633-1.25,0.899c-0.399,0.301-0.75,0.584-1.05,0.851s-0.566,0.533-0.8,0.8
				s-0.417,0.55-0.55,0.85c-0.167,0.334-0.283,0.684-0.351,1.051c-0.066,0.366-0.1,0.767-0.1,1.199v0.7h8.3v-0.85h-7.3v-0.15
				c0-0.5,0.066-0.934,0.2-1.3c0.133-0.366,0.333-0.717,0.6-1.05c0.3-0.367,0.684-0.733,1.15-1.101
				c0.433-0.366,0.983-0.783,1.649-1.25c0.5-0.366,0.983-0.716,1.45-1.05c0.434-0.366,0.816-0.767,1.15-1.2
				c0.333-0.433,0.6-0.899,0.8-1.399c0.2-0.533,0.3-1.15,0.3-1.851c0-0.566-0.1-1.083-0.3-1.55c-0.167-0.466-0.417-0.85-0.75-1.149
				c-0.367-0.334-0.783-0.601-1.25-0.801c-0.467-0.166-1-0.25-1.601-0.25c-0.699,0-1.383,0.117-2.05,0.351
				c-0.633,0.267-1.233,0.616-1.8,1.05v1.1c0.6-0.533,1.2-0.934,1.8-1.199c0.601-0.301,1.233-0.45,1.9-0.45
				C287.117,304.95,287.867,305.217,288.4,305.75 M311.7,285.65h-0.95v10.5h0.95V285.65 M311.2,283c0.2,0,0.384-0.084,0.55-0.25
				c0.167-0.133,0.25-0.316,0.25-0.55s-0.083-0.417-0.25-0.55c-0.166-0.134-0.35-0.2-0.55-0.2s-0.383,0.066-0.55,0.2
				c-0.167,0.133-0.25,0.316-0.25,0.55s0.083,0.433,0.25,0.6C310.817,282.934,311,283,311.2,283 M316,280.6h-0.95v15.551H316V294.3
				c0.767,1.4,1.934,2.101,3.5,2.101c1.4,0,2.533-0.533,3.4-1.601c0.866-1.1,1.3-2.533,1.3-4.3c0-1.566-0.383-2.8-1.15-3.7
				c-0.732-0.933-1.767-1.399-3.1-1.399c-0.833,0-1.6,0.217-2.3,0.649c-0.7,0.4-1.25,0.983-1.65,1.75V280.6 M319.8,286.25
				c1.034,0,1.867,0.383,2.5,1.15c0.601,0.766,0.9,1.816,0.9,3.149c0,1.5-0.333,2.7-1,3.601c-0.667,0.934-1.533,1.399-2.6,1.399
				c-1.101,0-1.983-0.384-2.65-1.149c-0.633-0.734-0.95-1.634-0.95-2.7v-1.3c0-1.134,0.334-2.101,1-2.9
				C317.667,286.666,318.6,286.25,319.8,286.25 M300.45,280.6h-0.95v15.551h0.95v-5.801c0-1.333,0.333-2.35,1-3.05
				c0.7-0.7,1.5-1.05,2.4-1.05c0.933,0,1.633,0.3,2.1,0.9c0.434,0.566,0.65,1.467,0.65,2.699v6.301h0.949v-6.5
				c0-1.367-0.3-2.417-0.899-3.15c-0.566-0.733-1.417-1.1-2.55-1.1c-1.601,0-2.817,0.717-3.65,2.149V280.6 M361.4,281.45v14.7h3.95
				c1.333,0,2.399-0.384,3.199-1.15c0.801-0.8,1.2-1.816,1.2-3.05c0-0.967-0.3-1.767-0.899-2.4c-0.567-0.634-1.367-1-2.4-1.1v-0.05
				c0.8-0.268,1.434-0.7,1.9-1.301c0.467-0.633,0.699-1.383,0.699-2.25c0-1.033-0.35-1.85-1.05-2.449
				c-0.666-0.634-1.583-0.95-2.75-0.95H361.4 M364.45,288.05h-2.05V282.4h2.45c2.1,0,3.149,0.866,3.149,2.6
				c0,0.967-0.333,1.717-1,2.25C366.367,287.783,365.516,288.05,364.45,288.05 M362.4,295.25V289h2.149
				c2.768,0,4.15,1.017,4.15,3.05c0,1-0.3,1.784-0.9,2.351c-0.633,0.566-1.517,0.85-2.649,0.85H362.4 M354.65,282.4h4.2v-0.95h-9.45
				v0.95h4.2v13.75h1.05V282.4 M334,289.3c0-1.267-0.3-2.233-0.899-2.899c-0.567-0.667-1.4-1-2.5-1c-0.601,0-1.217,0.1-1.851,0.3
				c-0.666,0.233-1.2,0.5-1.6,0.8v1.15c1.1-0.934,2.217-1.4,3.35-1.4c1.7,0,2.55,1.133,2.55,3.4l-3.199,0.449
				c-2.434,0.4-3.65,1.518-3.65,3.351c0,0.833,0.283,1.533,0.85,2.1c0.601,0.567,1.4,0.851,2.4,0.851c0.767,0,1.467-0.217,2.1-0.65
				c0.634-0.434,1.117-1,1.45-1.7h0.05v2.101H334V289.3 M327.8,294.95c-0.399-0.4-0.6-0.917-0.6-1.55c0-0.801,0.217-1.367,0.65-1.7
				c0.433-0.366,1.199-0.634,2.3-0.8l2.899-0.4v1.05c0,1.167-0.333,2.134-1,2.9c-0.666,0.733-1.5,1.1-2.5,1.1
				C328.783,295.55,328.2,295.35,327.8,294.95 M343.3,283.3c-0.366,0.167-0.767,0.333-1.199,0.5v0.851
				c0.733-0.268,1.399-0.566,2-0.9c0.6-0.3,1.133-0.684,1.6-1.15v13.551h0.95V281.1H346.3c-0.333,0.334-0.649,0.634-0.949,0.9
				c-0.334,0.233-0.667,0.467-1,0.7C344.016,282.934,343.667,283.133,343.3,283.3 M290.85,288.25c0,0.666,0.199,1.233,0.6,1.7
				c0.4,0.466,1.1,0.917,2.1,1.35c0.834,0.366,1.417,0.717,1.75,1.05c0.367,0.334,0.551,0.734,0.551,1.2c0,1.333-0.817,2-2.45,2
				c-0.367,0-0.8-0.083-1.3-0.25c-0.533-0.2-0.967-0.45-1.301-0.75v1.15c0.667,0.466,1.5,0.7,2.5,0.7
				c1.101,0,1.967-0.268,2.601-0.801c0.633-0.533,0.95-1.217,0.95-2.05c0-0.7-0.2-1.267-0.601-1.7
				c-0.433-0.434-1.183-0.883-2.25-1.35c-0.933-0.434-1.533-0.8-1.8-1.1c-0.267-0.301-0.4-0.7-0.4-1.2c0-0.567,0.217-1.034,0.65-1.4
				s0.983-0.55,1.65-0.55c0.833,0,1.649,0.25,2.449,0.75v-1.05c-0.633-0.366-1.416-0.55-2.35-0.55s-1.733,0.266-2.4,0.8
				C291.167,286.7,290.85,287.383,290.85,288.25 M293.4,258.55h-5.2v14.7h5.2c2.366,0,4.267-0.684,5.7-2.05
				c1.399-1.366,2.1-3.2,2.1-5.5C301.2,260.934,298.6,258.55,293.4,258.55 M291.5,261.25h1.601c1.467,0,2.616,0.4,3.449,1.2
				c0.801,0.8,1.2,1.899,1.2,3.3c0,1.5-0.416,2.666-1.25,3.5c-0.8,0.867-1.916,1.3-3.35,1.3h-1.65V261.25 M314.6,271.2
				c1.399-1.366,2.1-3.2,2.1-5.5c0-4.767-2.6-7.15-7.8-7.15h-5.2v14.7h5.2C311.266,273.25,313.167,272.566,314.6,271.2 M312,269.25
				c-0.8,0.867-1.916,1.3-3.35,1.3H307v-9.3h1.601c1.467,0,2.616,0.4,3.449,1.2c0.801,0.8,1.2,1.899,1.2,3.3
				C313.25,267.25,312.834,268.416,312,269.25 M280.2,286.85c-0.967,1-1.45,2.367-1.45,4.101c0,1.634,0.45,2.95,1.351,3.95
				c0.899,1,2.116,1.5,3.649,1.5s2.75-0.5,3.65-1.5c0.866-1.033,1.3-2.367,1.3-4c0-1.7-0.434-3.051-1.3-4.051
				c-0.867-0.967-2.05-1.449-3.55-1.449C282.317,285.4,281.1,285.883,280.2,286.85 M280.85,294.3
				c-0.733-0.833-1.101-1.933-1.101-3.3c0-1.5,0.367-2.666,1.101-3.5s1.717-1.25,2.949-1.25c1.268,0,2.233,0.4,2.9,1.2
				s1,1.95,1,3.45c0,1.467-0.333,2.6-1,3.399c-0.7,0.833-1.667,1.25-2.9,1.25C282.533,295.55,281.55,295.133,280.85,294.3
				 M276.3,282.4h4.2v-0.95h-9.45v0.95h4.2v13.75h1.05V282.4 M275.4,267.25h6.1v6h3.3v-14.7h-3.3v5.851h-6.1v-5.851h-3.3v14.7h3.3
				V267.25 M301.65,192.05c-0.8,1.333-1.2,3.3-1.2,5.9c0,2.367,0.384,4.183,1.15,5.45c0.767,1.232,1.833,1.85,3.199,1.85
				c1.434,0,2.551-0.65,3.351-1.95s1.2-3.2,1.2-5.7c0-5.033-1.417-7.55-4.25-7.55C303.6,190.05,302.45,190.717,301.65,192.05
				 M301.45,197.85c0-2.3,0.316-4.034,0.95-5.2c0.633-1.167,1.517-1.75,2.649-1.75c2.2,0,3.301,2.283,3.301,6.85
				c0,2.133-0.301,3.767-0.9,4.9c-0.6,1.166-1.45,1.75-2.55,1.75c-1.101,0-1.95-0.566-2.55-1.7
				C301.75,201.566,301.45,199.95,301.45,197.85 M290.85,192.05c-0.801,1.333-1.2,3.3-1.2,5.9c0,2.367,0.383,4.183,1.149,5.45
				c0.768,1.232,1.834,1.85,3.2,1.85c1.434,0,2.55-0.65,3.351-1.95c0.8-1.3,1.199-3.2,1.199-5.7c0-5.033-1.416-7.55-4.25-7.55
				C292.8,190.05,291.65,190.717,290.85,192.05 M290.65,197.85c0-2.3,0.316-4.034,0.95-5.2c0.633-1.167,1.517-1.75,2.649-1.75
				c2.2,0,3.3,2.283,3.3,6.85c0,2.133-0.3,3.767-0.899,4.9c-0.601,1.166-1.45,1.75-2.55,1.75c-1.101,0-1.95-0.566-2.551-1.7
				C290.95,201.566,290.65,199.95,290.65,197.85 M348.85,194.5v0.85h6.449l-6.949,9.3V205h8.3v-0.85h-6.8l7.05-9.4v-0.25H348.85
				 M336.45,197v-6.7h-1V205h1v-7.05h8.4V205h1.05v-14.7h-1.05v6.7H336.45 M331.65,190.3h-0.9l-5.399,11.75
				c-0.233,0.634-0.351,0.967-0.351,1l-0.1,0.3h-0.05c-0.101-0.199-0.184-0.399-0.25-0.6c-0.033-0.1-0.067-0.217-0.101-0.35
				c-0.066-0.101-0.116-0.184-0.149-0.25L318.9,190.3h-0.95V205h1v-10.7c0-0.633-0.017-1.283-0.05-1.95h0.05
				c0.134,0.566,0.283,1.033,0.45,1.4l5.25,11.25H325l5.2-11.3c0.167-0.3,0.35-0.733,0.55-1.3h0.05c-0.066,1.2-0.1,1.917-0.1,2.15
				V205h0.95V190.3 M282.45,190.65c-0.7,0.4-1.3,0.983-1.8,1.75c-0.5,0.733-0.867,1.617-1.101,2.65
				c-0.267,1.034-0.399,2.2-0.399,3.5c0,1.1,0.1,2.067,0.3,2.9s0.483,1.533,0.85,2.1c0.367,0.567,0.817,1,1.351,1.3
				c0.533,0.268,1.133,0.4,1.8,0.4s1.267-0.117,1.8-0.35c0.533-0.268,1-0.617,1.4-1.051c0.366-0.434,0.667-0.949,0.899-1.55
				c0.2-0.6,0.301-1.25,0.301-1.95c0-0.633-0.101-1.233-0.301-1.8c-0.166-0.533-0.433-1.017-0.8-1.45
				c-0.333-0.4-0.75-0.717-1.25-0.95s-1.05-0.35-1.649-0.35c-1.733,0-2.967,0.817-3.7,2.45c0-1.067,0.1-2.05,0.3-2.95
				c0.233-0.9,0.55-1.683,0.95-2.35c0.399-0.633,0.899-1.133,1.5-1.5c0.566-0.367,1.217-0.55,1.95-0.55s1.449,0.167,2.149,0.5v-1
				c-0.6-0.233-1.316-0.35-2.149-0.35C283.95,190.05,283.15,190.25,282.45,190.65 M281.2,197.75c0.3-0.333,0.667-0.6,1.1-0.8
				c0.4-0.2,0.851-0.3,1.351-0.3s0.95,0.1,1.35,0.3c0.4,0.2,0.733,0.466,1,0.8s0.483,0.733,0.65,1.2c0.133,0.466,0.2,1,0.2,1.6
				c0,0.534-0.084,1.034-0.25,1.5c-0.167,0.467-0.4,0.884-0.7,1.25c-0.267,0.333-0.617,0.601-1.05,0.8
				c-0.4,0.2-0.834,0.301-1.301,0.301c-0.5,0-0.949-0.117-1.35-0.351s-0.75-0.533-1.05-0.899c-0.3-0.4-0.517-0.851-0.65-1.351
				c-0.166-0.5-0.25-1.033-0.25-1.6c0-0.434,0.084-0.867,0.25-1.3C280.667,198.467,280.9,198.083,281.2,197.75 M285.05,169.95
				c1.134-1.267,2.617-1.9,4.45-1.9c1.267,0,2.567,0.333,3.9,1v-1.1c-1.2-0.534-2.45-0.8-3.75-0.8c-2.233,0-4.017,0.75-5.351,2.25
				c-1.333,1.467-2,3.317-2,5.55c0,2.233,0.617,4.017,1.851,5.35c1.267,1.367,2.899,2.05,4.899,2.05c1.601,0,3.15-0.434,4.65-1.3
				v-6.25h-4.45v0.9h3.45v4.85c-1,0.567-2.167,0.85-3.5,0.85c-1.767,0-3.184-0.583-4.25-1.75s-1.6-2.783-1.6-4.85
				C283.35,172.833,283.917,171.217,285.05,169.95 M317.95,167.4h-3.65v14.7h3.45c2.4,0,4.283-0.7,5.65-2.1
				c1.366-1.4,2.05-3.217,2.05-5.45c0-2.333-0.633-4.117-1.9-5.35C322.283,168,320.417,167.4,317.95,167.4 M315.3,168.35h2.5
				c4.4,0,6.601,2.083,6.601,6.25c0,2.133-0.583,3.767-1.75,4.9s-2.851,1.7-5.05,1.7H315.3V168.35 M304.8,170.8
				c0-1.033-0.35-1.85-1.05-2.45c-0.666-0.633-1.583-0.95-2.75-0.95h-3.85v14.7h3.95c1.333,0,2.399-0.383,3.199-1.15
				c0.801-0.8,1.2-1.817,1.2-3.05c0-0.967-0.3-1.767-0.899-2.4c-0.567-0.633-1.367-1-2.4-1.1v-0.05c0.8-0.267,1.434-0.7,1.9-1.3
				C304.567,172.417,304.8,171.667,304.8,170.8 M298.15,168.35h2.45c2.1,0,3.149,0.867,3.149,2.6c0,0.966-0.333,1.716-1,2.25
				c-0.633,0.533-1.483,0.8-2.55,0.8h-2.05V168.35 M298.15,181.2v-6.25h2.149c2.768,0,4.15,1.017,4.15,3.05c0,1-0.3,1.783-0.9,2.35
				c-0.633,0.566-1.517,0.85-2.649,0.85H298.15 M271.25,193.5c0.733-0.267,1.4-0.566,2-0.9c0.601-0.3,1.134-0.684,1.601-1.15V205
				h0.949v-15.05h-0.35c-0.333,0.333-0.65,0.633-0.95,0.9c-0.333,0.233-0.666,0.467-1,0.7c-0.333,0.233-0.683,0.434-1.05,0.6
				c-0.366,0.167-0.767,0.333-1.2,0.5V193.5 M337.7,169.2c-1.267-1.2-3.133-1.8-5.6-1.8h-3.65v14.7h3.45
				c2.399,0,4.283-0.7,5.649-2.1c1.367-1.4,2.051-3.217,2.051-5.45C339.6,172.217,338.967,170.433,337.7,169.2 M329.45,168.35h2.5
				c4.4,0,6.6,2.083,6.6,6.25c0,2.133-0.583,3.767-1.75,4.9c-1.166,1.133-2.85,1.7-5.05,1.7h-2.3V168.35 M349.75,168.45
				c-0.767-0.7-1.8-1.05-3.1-1.05h-4.05v14.7h1v-6.55h1.85c0.6,0,1.1,0.15,1.5,0.45s0.8,0.9,1.2,1.8l1.95,4.3h1.149l-2.149-4.7
				c-0.567-1.167-1.134-1.867-1.7-2.1v-0.05c1.066-0.2,1.917-0.65,2.55-1.35c0.6-0.733,0.9-1.633,0.9-2.7
				C350.85,170.067,350.483,169.15,349.75,168.45 M348.9,169.15c0.6,0.5,0.899,1.217,0.899,2.15c0,1.034-0.333,1.85-1,2.45
				c-0.666,0.567-1.55,0.85-2.649,0.85h-2.55v-6.25h2.75C347.45,168.35,348.3,168.617,348.9,169.15 M354.1,167.95V169
				c1.033-0.667,2-1,2.899-1c0.967,0,1.7,0.25,2.2,0.75s0.75,1.2,0.75,2.1c0,1-0.35,1.783-1.05,2.35c-0.667,0.566-1.667,0.85-3,0.85
				h-1v0.85h1.149c1.4,0,2.5,0.283,3.301,0.85c0.767,0.567,1.149,1.383,1.149,2.45c0,1-0.333,1.8-1,2.4c-0.7,0.6-1.633,0.9-2.8,0.9
				c-1,0-2.05-0.333-3.15-1v1.1c1,0.5,2.051,0.75,3.15,0.75c1.4,0,2.55-0.383,3.45-1.15c0.866-0.8,1.3-1.85,1.3-3.15
				c0-1-0.3-1.816-0.9-2.45c-0.633-0.667-1.449-1.05-2.449-1.15v-0.05c1.899-0.533,2.85-1.8,2.85-3.8c0-1.033-0.333-1.867-1-2.5
				c-0.7-0.633-1.633-0.95-2.8-0.95C356.217,167.15,355.2,167.417,354.1,167.95 M272.3,169.4c-0.199,0.467-0.3,0.967-0.3,1.5
				c0,0.367,0.05,0.717,0.15,1.05c0.1,0.333,0.25,0.633,0.45,0.9c0.199,0.3,0.433,0.566,0.699,0.8c0.301,0.233,0.617,0.434,0.95,0.6
				c-0.467,0.133-0.866,0.333-1.2,0.6c-0.366,0.267-0.649,0.566-0.85,0.9c-0.233,0.367-0.417,0.733-0.55,1.1
				c-0.101,0.367-0.15,0.75-0.15,1.15c0,0.7,0.117,1.317,0.351,1.85c0.199,0.533,0.483,0.983,0.85,1.35
				c0.4,0.367,0.867,0.65,1.4,0.85c0.5,0.2,1.066,0.3,1.699,0.3c0.667,0,1.268-0.1,1.801-0.3c0.5-0.2,0.949-0.483,1.35-0.85
				c0.367-0.367,0.65-0.817,0.85-1.35c0.233-0.567,0.351-1.184,0.351-1.85c0-0.4-0.05-0.783-0.15-1.15
				c-0.133-0.367-0.316-0.733-0.55-1.1c-0.2-0.333-0.467-0.633-0.8-0.9s-0.733-0.467-1.2-0.6c0.333-0.167,0.634-0.367,0.9-0.6
				c0.3-0.233,0.533-0.5,0.699-0.8c0.2-0.267,0.351-0.567,0.45-0.9c0.101-0.333,0.15-0.684,0.15-1.05c0-0.533-0.083-1.033-0.25-1.5
				c-0.2-0.433-0.467-0.816-0.8-1.15c-0.367-0.367-0.783-0.633-1.25-0.8c-0.467-0.2-0.983-0.3-1.551-0.3c-0.533,0-1.033,0.1-1.5,0.3
				c-0.466,0.167-0.866,0.417-1.199,0.75C272.733,168.533,272.467,168.933,272.3,169.4 M273,170.95c0-0.4,0.067-0.784,0.2-1.15
				c0.134-0.367,0.316-0.683,0.55-0.95c0.267-0.267,0.567-0.467,0.9-0.6c0.366-0.167,0.75-0.25,1.149-0.25
				c0.4,0,0.784,0.083,1.15,0.25c0.333,0.133,0.634,0.333,0.9,0.6c0.233,0.267,0.433,0.566,0.6,0.9c0.134,0.367,0.2,0.767,0.2,1.2
				c0,0.4-0.066,0.767-0.2,1.1c-0.167,0.367-0.366,0.684-0.6,0.95c-0.267,0.267-0.584,0.467-0.95,0.6
				c-0.333,0.167-0.7,0.25-1.101,0.25c-0.366,0-0.732-0.083-1.1-0.25c-0.333-0.133-0.633-0.333-0.9-0.6
				c-0.267-0.267-0.466-0.566-0.6-0.9C273.067,171.733,273,171.35,273,170.95 M278.9,176.8c0.167,0.4,0.25,0.833,0.25,1.3
				c0,0.5-0.083,0.967-0.25,1.4c-0.167,0.4-0.4,0.75-0.7,1.05c-0.3,0.3-0.65,0.534-1.05,0.7c-0.434,0.167-0.884,0.25-1.351,0.25
				c-0.5,0-0.949-0.083-1.35-0.25s-0.75-0.4-1.05-0.7c-0.3-0.3-0.533-0.65-0.7-1.05c-0.167-0.433-0.25-0.9-0.25-1.4
				s0.1-0.95,0.3-1.35c0.134-0.433,0.351-0.8,0.65-1.1c0.3-0.3,0.667-0.533,1.1-0.7c0.4-0.167,0.834-0.25,1.3-0.25
				c0.5,0,0.967,0.1,1.4,0.3c0.4,0.167,0.75,0.4,1.05,0.7C278.516,176.033,278.733,176.4,278.9,176.8 M303.4,147.25h0.05
				c0.233,1.1,0.4,1.783,0.5,2.05l3.5,9.9h2.7l3.45-10c0.133-0.4,0.283-1.05,0.449-1.95h0.101c-0.101,1.167-0.15,2.217-0.15,3.15
				v8.8h3.3v-14.7h-4.75l-3,8.7c-0.199,0.6-0.399,1.3-0.6,2.1h-0.05c-0.101-0.7-0.267-1.4-0.5-2.1l-3-8.7h-4.851v14.7h2.95v-8.15
				C303.5,149.983,303.467,148.717,303.4,147.25 M293.5,144.5h-3.95l-5.3,14.5l-2.6-4.15c-0.167-0.233-0.333-0.467-0.5-0.7
				s-0.351-0.45-0.55-0.65c-0.167-0.2-0.367-0.383-0.601-0.55c-0.2-0.133-0.399-0.233-0.6-0.3v-0.05c0.5-0.167,0.95-0.367,1.35-0.6
				c0.4-0.267,0.75-0.567,1.05-0.9c0.268-0.367,0.483-0.767,0.65-1.2c0.167-0.433,0.25-0.9,0.25-1.4c0-2.667-1.783-4-5.35-4h-5.25
				v14.7h3.3v-5.65h0.899c0.2,0,0.384,0.05,0.551,0.15c0.166,0.1,0.333,0.216,0.5,0.35c0.166,0.167,0.333,0.367,0.5,0.6
				c0.133,0.233,0.3,0.483,0.5,0.75l2.25,3.8h7.199l1.051-3.25h5.199l1.051,3.25h3.6L293.5,144.5 M291.45,147.1
				c0.066,0.533,0.15,0.983,0.25,1.35l1.6,4.95h-3.75l1.601-5c0.133-0.433,0.217-0.867,0.25-1.3H291.45 M275.4,147h1.5
				c1.533,0,2.3,0.633,2.3,1.9c0,0.633-0.217,1.15-0.65,1.55c-0.433,0.4-1,0.6-1.699,0.6h-1.45V147 M381.9,100.8
				c0.233,0,0.417-0.083,0.55-0.25c0.167-0.167,0.25-0.367,0.25-0.6c0-0.233-0.083-0.434-0.25-0.6c-0.133-0.133-0.316-0.2-0.55-0.2
				s-0.434,0.067-0.601,0.2c-0.166,0.167-0.25,0.367-0.25,0.6c0,0.233,0.084,0.433,0.25,0.6
				C381.467,100.717,381.667,100.8,381.9,100.8 M391.2,85.9c-0.467-0.167-1-0.25-1.6-0.25c-0.7,0-1.384,0.117-2.051,0.35
				c-0.633,0.267-1.232,0.617-1.8,1.05v1.1c0.601-0.533,1.2-0.933,1.8-1.2c0.601-0.3,1.233-0.45,1.9-0.45
				c0.967,0,1.717,0.267,2.25,0.8c0.533,0.534,0.8,1.3,0.8,2.3c0,0.533-0.083,1.017-0.25,1.45c-0.166,0.434-0.399,0.833-0.7,1.2
				c-0.267,0.367-0.6,0.717-1,1.05c-0.366,0.3-0.783,0.617-1.25,0.95c-0.433,0.333-0.85,0.633-1.25,0.9
				c-0.399,0.3-0.75,0.583-1.05,0.85s-0.566,0.533-0.8,0.8c-0.233,0.267-0.417,0.55-0.55,0.85c-0.167,0.333-0.283,0.684-0.351,1.05
				c-0.066,0.367-0.1,0.767-0.1,1.2v0.7h8.3v-0.85h-7.3V99.6c0-0.5,0.066-0.934,0.2-1.3c0.133-0.367,0.333-0.716,0.6-1.05
				c0.3-0.367,0.684-0.733,1.15-1.1c0.434-0.367,0.983-0.783,1.649-1.25c0.5-0.367,0.983-0.717,1.45-1.05
				c0.434-0.367,0.817-0.767,1.15-1.2c0.333-0.433,0.6-0.9,0.8-1.4c0.2-0.533,0.3-1.15,0.3-1.85c0-0.566-0.1-1.083-0.3-1.55
				c-0.167-0.467-0.417-0.85-0.75-1.15C392.084,86.367,391.667,86.1,391.2,85.9 M424.35,90.1v0.85h6.45l-6.95,9.3v0.35h8.3v-0.85
				h-6.8l7.05-9.4V90.1H424.35 M411.95,93.55h8.4v7.05h1.05V85.9h-1.05v6.7h-8.4v-6.7h-1v14.7h1V93.55 M407.2,87.55v-1.1
				c-1.2-0.534-2.45-0.8-3.75-0.8c-2.233,0-4.017,0.75-5.35,2.25c-1.333,1.467-2,3.317-2,5.55c0,2.233,0.616,4.017,1.85,5.35
				c1.267,1.367,2.9,2.05,4.9,2.05c1.6,0,3.149-0.434,4.649-1.3V93.3h-4.449v0.9h3.449v4.85c-1,0.567-2.166,0.85-3.5,0.85
				c-1.767,0-3.183-0.583-4.25-1.75c-1.066-1.167-1.6-2.783-1.6-4.85c0-1.966,0.566-3.583,1.7-4.85c1.133-1.267,2.616-1.9,4.45-1.9
				C404.567,86.55,405.867,86.883,407.2,87.55 M373.55,85.65c-0.933,0-1.949,0.267-3.05,0.8v1.05c1.033-0.667,2-1,2.9-1
				c0.967,0,1.7,0.25,2.2,0.75s0.75,1.2,0.75,2.1c0,1-0.351,1.783-1.051,2.35c-0.666,0.566-1.666,0.85-3,0.85h-1v0.85h1.15
				c1.4,0,2.5,0.283,3.3,0.85c0.767,0.567,1.15,1.383,1.15,2.45c0,1-0.333,1.8-1,2.4c-0.7,0.6-1.634,0.9-2.8,0.9
				c-1,0-2.051-0.333-3.15-1v1.1c1,0.5,2.05,0.75,3.15,0.75c1.399,0,2.55-0.383,3.449-1.15c0.867-0.8,1.301-1.85,1.301-3.15
				c0-1-0.301-1.816-0.9-2.45c-0.633-0.667-1.45-1.05-2.45-1.15V92.9c1.9-0.533,2.851-1.8,2.851-3.8c0-1.033-0.334-1.867-1-2.5
				C375.65,85.967,374.717,85.65,373.55,85.65 M353.1,89.45c-1.267,0-2.283,0.517-3.051,1.55c-0.8,1.033-1.199,2.333-1.199,3.9
				c0,1.133,0.283,2.05,0.85,2.75c0.566,0.667,1.333,1,2.3,1c1.367,0,2.367-0.8,3-2.4c0.134,1.6,0.95,2.4,2.45,2.4
				c1.1,0,2.017-0.517,2.75-1.55s1.1-2.367,1.1-4c0-2.167-0.716-3.95-2.149-5.35s-3.351-2.1-5.75-2.1c-2.434,0-4.45,0.833-6.05,2.5
				c-1.634,1.633-2.45,3.684-2.45,6.15c0,2.434,0.75,4.417,2.25,5.95s3.483,2.3,5.95,2.3c1.633,0,3.116-0.283,4.449-0.85v-0.95
				c-1.199,0.6-2.649,0.9-4.35,0.9c-2.267,0-4.05-0.667-5.35-2c-1.301-1.333-1.95-3.117-1.95-5.35c0-2.2,0.684-4.05,2.05-5.55
				c1.367-1.5,3.15-2.25,5.35-2.25c2.2,0,3.934,0.617,5.2,1.85c1.233,1.2,1.851,2.833,1.851,4.9c0,1.333-0.283,2.433-0.851,3.3
				c-0.533,0.833-1.233,1.25-2.1,1.25c-1.033,0-1.55-0.733-1.55-2.2l0.5-6h-0.9c-0.033,0.4-0.066,0.8-0.1,1.2H355.3
				c-0.1-0.367-0.366-0.683-0.8-0.95C354.1,89.583,353.634,89.45,353.1,89.45 M350.75,91.55c0.567-0.833,1.334-1.25,2.3-1.25
				c0.667,0,1.184,0.217,1.551,0.65c0.366,0.4,0.55,1,0.55,1.8c0,1.467-0.283,2.683-0.851,3.65c-0.566,0.934-1.3,1.4-2.199,1.4
				c-0.7,0-1.25-0.267-1.65-0.8s-0.6-1.267-0.6-2.2C349.85,93.433,350.15,92.35,350.75,91.55 M314.8,92.45h-0.05V90.1h-0.899v10.5
				h0.899v-4.95c0-1.566,0.283-2.767,0.851-3.6c0.566-0.867,1.267-1.3,2.1-1.3c0.4,0,0.767,0.117,1.1,0.35v-1
				c-0.333-0.133-0.683-0.2-1.05-0.2c-0.7,0-1.3,0.217-1.8,0.65C315.417,91.017,315.033,91.65,314.8,92.45 M302.7,91.3
				c-0.967,1-1.45,2.367-1.45,4.1c0,1.633,0.45,2.95,1.351,3.95c0.899,1,2.116,1.5,3.649,1.5s2.75-0.5,3.65-1.5
				c0.866-1.033,1.3-2.367,1.3-4c0-1.7-0.434-3.05-1.3-4.05c-0.867-0.966-2.05-1.45-3.55-1.45
				C304.817,89.85,303.6,90.333,302.7,91.3 M302.25,95.45c0-1.5,0.367-2.667,1.101-3.5c0.733-0.833,1.717-1.25,2.949-1.25
				c1.268,0,2.233,0.4,2.9,1.2c0.667,0.8,1,1.95,1,3.45c0,1.467-0.333,2.6-1,3.4c-0.7,0.833-1.667,1.25-2.9,1.25
				c-1.267,0-2.25-0.417-2.949-1.25C302.617,97.917,302.25,96.817,302.25,95.45 M298.95,86.2c-1.033-0.367-2.116-0.55-3.25-0.55
				c-2.1,0-3.833,0.717-5.2,2.15c-1.399,1.434-2.1,3.35-2.1,5.75c0,2.167,0.633,3.934,1.899,5.3c1.268,1.333,2.917,2,4.95,2
				c1.267,0,2.5-0.25,3.7-0.75v-0.95c-1.066,0.5-2.283,0.75-3.65,0.75c-1.666,0-3.066-0.566-4.199-1.7
				c-1.101-1.167-1.65-2.75-1.65-4.75c0-2.067,0.583-3.733,1.75-5c1.167-1.267,2.667-1.9,4.5-1.9c1.134,0,2.217,0.233,3.25,0.7V86.2
				 M278.85,85.9h-1c-0.334,0.7-0.767,1.483-1.301,2.35c-0.5,0.833-1.066,1.7-1.699,2.6c-0.601,0.867-1.25,1.733-1.95,2.6
				c-0.667,0.833-1.333,1.633-2,2.4v0.9h7.05v3.85h0.9v-3.85h2.3V95.9h-2.3V85.9 M272,95.9c0.367-0.433,0.8-0.95,1.3-1.55
				c0.467-0.6,0.967-1.267,1.5-2c0.5-0.7,1.034-1.45,1.601-2.25c0.533-0.833,1.05-1.667,1.55-2.5v8.3H272 M376.2,64.75
				c-0.8,1.333-1.2,3.3-1.2,5.9c0,2.367,0.384,4.184,1.15,5.45c0.767,1.233,1.833,1.85,3.2,1.85c1.433,0,2.55-0.65,3.35-1.95
				s1.2-3.2,1.2-5.7c0-5.033-1.417-7.55-4.25-7.55C378.15,62.75,377,63.417,376.2,64.75 M379.6,63.6c2.199,0,3.3,2.283,3.3,6.85
				c0,2.133-0.3,3.767-0.9,4.9c-0.6,1.167-1.45,1.75-2.55,1.75s-1.95-0.567-2.55-1.7c-0.601-1.133-0.9-2.75-0.9-4.85
				c0-2.3,0.317-4.033,0.95-5.2C377.584,64.183,378.467,63.6,379.6,63.6 M327.35,91.2c-0.7-0.9-1.7-1.35-3-1.35
				c-1.4,0-2.533,0.517-3.4,1.55c-0.9,1.067-1.35,2.367-1.35,3.9c0,1.767,0.416,3.133,1.25,4.1c0.833,0.967,1.933,1.45,3.3,1.45
				c1.333,0,2.55-0.383,3.649-1.15v-1c-1.133,0.867-2.283,1.3-3.449,1.3c-1.167,0-2.084-0.417-2.75-1.25c-0.667-0.8-1-1.917-1-3.35
				h7.8v-0.45C328.4,93.383,328.05,92.133,327.35,91.2 M324.3,90.7c0.934,0,1.667,0.333,2.2,1c0.567,0.667,0.867,1.617,0.9,2.85
				h-6.75c0.133-1.233,0.533-2.183,1.2-2.85C322.483,91.033,323.3,90.7,324.3,90.7 M331.45,90.65c-0.633,0.5-0.95,1.184-0.95,2.05
				c0,0.667,0.2,1.233,0.601,1.7c0.399,0.467,1.1,0.917,2.1,1.35c0.833,0.367,1.417,0.717,1.75,1.05
				c0.367,0.333,0.55,0.733,0.55,1.2c0,1.333-0.816,2-2.45,2c-0.366,0-0.8-0.083-1.3-0.25c-0.533-0.2-0.967-0.45-1.3-0.75v1.15
				c0.667,0.467,1.5,0.7,2.5,0.7c1.1,0,1.967-0.267,2.6-0.8c0.634-0.533,0.95-1.216,0.95-2.05c0-0.7-0.2-1.267-0.6-1.7
				c-0.434-0.433-1.184-0.883-2.25-1.35c-0.934-0.434-1.533-0.8-1.8-1.1c-0.267-0.3-0.4-0.7-0.4-1.2c0-0.566,0.217-1.033,0.65-1.4
				c0.433-0.367,0.983-0.55,1.649-0.55c0.834,0,1.65,0.25,2.45,0.75V90.4c-0.633-0.367-1.417-0.55-2.35-0.55
				C332.917,89.85,332.117,90.117,331.45,90.65 M361.4,63.85V63h-6.15l-0.399,7c0.767-0.1,1.467-0.15,2.1-0.15
				c2.733,0,4.1,1.2,4.1,3.6c0,1.1-0.35,1.983-1.05,2.65c-0.666,0.667-1.6,1-2.8,1c-0.934,0-1.866-0.267-2.8-0.8v1.1
				c0.767,0.367,1.667,0.55,2.7,0.55c1.6,0,2.816-0.434,3.649-1.3c0.834-0.833,1.25-1.933,1.25-3.3s-0.399-2.434-1.2-3.2
				c-0.8-0.767-1.966-1.15-3.5-1.15c-0.3,0-0.816,0.033-1.55,0.1l0.351-5.25H361.4 M364.25,63v0.85h7.8
				c-0.633,1.133-1.232,2.25-1.8,3.35c-0.566,1.133-1.083,2.267-1.55,3.4c-0.5,1.133-0.934,2.283-1.3,3.45
				c-0.367,1.167-0.65,2.384-0.851,3.65h1.051c0.199-1.3,0.483-2.534,0.85-3.7c0.367-1.2,0.8-2.367,1.3-3.5
				c0.467-1.167,1-2.333,1.601-3.5c0.633-1.167,1.283-2.383,1.949-3.65V63H364.25 M347.75,65.35c-0.5,0.833-1.066,1.7-1.7,2.6
				c-0.6,0.866-1.25,1.733-1.949,2.6c-0.667,0.833-1.334,1.634-2,2.4v0.9h7.05v3.85h0.899v-3.85h2.301V73h-2.301V63h-1
				C348.717,63.7,348.283,64.483,347.75,65.35 M347.6,67.2c0.533-0.833,1.05-1.667,1.55-2.5V73h-5.95c0.367-0.434,0.8-0.95,1.3-1.55
				c0.467-0.6,0.967-1.267,1.5-2C346.5,68.75,347.033,68,347.6,67.2 M334.75,72h5.601v-0.9h-5.601V72 M331.1,63.85V63h-6.15l-0.4,7
				c0.768-0.1,1.467-0.15,2.101-0.15c2.733,0,4.1,1.2,4.1,3.6c0,1.1-0.35,1.983-1.05,2.65c-0.667,0.667-1.6,1-2.8,1
				c-0.934,0-1.867-0.267-2.8-0.8v1.1c0.767,0.367,1.666,0.55,2.699,0.55c1.601,0,2.817-0.434,3.65-1.3
				c0.833-0.833,1.25-1.933,1.25-3.3s-0.4-2.434-1.2-3.2S328.533,69,327,69c-0.3,0-0.816,0.033-1.55,0.1l0.35-5.25H331.1
				 M320.8,67.2h-0.949v10.5h0.949V67.2 M320.3,64.55c0.2,0,0.384-0.083,0.551-0.25c0.166-0.133,0.25-0.316,0.25-0.55
				s-0.084-0.417-0.25-0.55c-0.167-0.134-0.351-0.2-0.551-0.2c-0.199,0-0.383,0.066-0.55,0.2c-0.166,0.133-0.25,0.316-0.25,0.55
				s0.084,0.433,0.25,0.6C319.917,64.483,320.1,64.55,320.3,64.55 M311.5,72.05c0-1.566-0.35-2.816-1.05-3.75
				c-0.7-0.9-1.7-1.35-3-1.35c-1.4,0-2.533,0.517-3.4,1.55c-0.899,1.066-1.35,2.367-1.35,3.9c0,1.767,0.417,3.133,1.25,4.1
				s1.934,1.45,3.3,1.45c1.334,0,2.55-0.384,3.65-1.15v-1c-1.134,0.867-2.283,1.3-3.45,1.3s-2.083-0.417-2.75-1.25
				c-0.667-0.8-1-1.917-1-3.35h7.8V72.05 M303.75,71.65c0.134-1.233,0.533-2.183,1.2-2.85c0.634-0.667,1.45-1,2.45-1
				c0.934,0,1.667,0.333,2.2,1c0.566,0.667,0.866,1.617,0.899,2.85H303.75 M301.9,67.2c-0.333-0.134-0.684-0.2-1.05-0.2
				c-0.7,0-1.301,0.217-1.801,0.65c-0.533,0.467-0.916,1.1-1.149,1.9h-0.05V67.2h-0.9v10.5h0.9v-4.95c0-1.566,0.283-2.767,0.85-3.6
				c0.566-0.867,1.267-1.3,2.1-1.3c0.4,0,0.768,0.117,1.101,0.35V67.2 M293,68.4c-0.866-0.967-2.05-1.45-3.55-1.45
				c-1.533,0-2.75,0.483-3.65,1.45c-0.966,1-1.449,2.367-1.449,4.1c0,1.633,0.449,2.95,1.35,3.95s2.117,1.5,3.65,1.5
				s2.75-0.5,3.649-1.5c0.867-1.034,1.3-2.367,1.3-4C294.3,70.75,293.867,69.4,293,68.4 M286.45,69.05
				c0.733-0.833,1.717-1.25,2.95-1.25c1.267,0,2.233,0.4,2.899,1.2c0.667,0.8,1,1.95,1,3.45c0,1.466-0.333,2.6-1,3.4
				c-0.699,0.833-1.666,1.25-2.899,1.25c-1.267,0-2.25-0.417-2.95-1.25c-0.733-0.833-1.1-1.934-1.1-3.3
				C285.35,71.05,285.717,69.883,286.45,69.05 M274.3,65.55c1.167-1.267,2.667-1.9,4.5-1.9c1.134,0,2.217,0.233,3.25,0.7V63.3
				c-1.033-0.366-2.116-0.55-3.25-0.55c-2.1,0-3.833,0.717-5.199,2.15c-1.4,1.434-2.101,3.35-2.101,5.75
				c0,2.167,0.634,3.934,1.9,5.3c1.267,1.333,2.917,2,4.95,2c1.267,0,2.5-0.25,3.699-0.75v-0.95c-1.066,0.5-2.283,0.75-3.649,0.75
				c-1.667,0-3.066-0.566-4.2-1.7c-1.1-1.167-1.65-2.75-1.65-4.75C272.55,68.483,273.134,66.816,274.3,65.55 M301.25,48.65V40.1
				h-3.35v8.5c0,4.3,2,6.45,6,6.45c4.1,0,6.149-2.2,6.149-6.6V40.1h-3.3v8.65c0,2.3-0.916,3.45-2.75,3.45
				C302.167,52.2,301.25,51.017,301.25,48.65 M294.35,48.35c1.066-0.9,1.6-2.083,1.6-3.55c0-3.133-1.866-4.7-5.6-4.7h-5.15v14.7h3.3
				v-5.05h1.55C291.85,49.75,293.283,49.283,294.35,48.35 M288.5,42.65h1.3c1.768,0,2.65,0.75,2.65,2.25c0,1.534-0.883,2.3-2.65,2.3
				h-1.3V42.65 M274.65,47.55c0-1.5,0.417-2.683,1.25-3.55c0.866-0.867,1.983-1.3,3.35-1.3c1.267,0,2.384,0.3,3.351,0.9v-3.2
				c-0.967-0.367-2.167-0.55-3.601-0.55c-2.333,0-4.217,0.733-5.649,2.2c-1.467,1.467-2.2,3.367-2.2,5.7c0,2.233,0.649,4,1.95,5.3
				c1.3,1.333,3.066,2,5.3,2c1.733,0,3.133-0.25,4.2-0.75v-3.05c-1.067,0.633-2.25,0.95-3.551,0.95c-1.333,0-2.399-0.417-3.199-1.25
				C275.05,50.083,274.65,48.95,274.65,47.55z"/>
		</g>
	</g>
</g>
</svg>
