
<svg xmlns="http://www.w3.org/2000/svg" version="1.1" xmlns:xlink="http://www.w3.org/1999/xlink" preserveAspectRatio="none" x="0px" y="0px" width="40px" height="40px" viewBox="0 0 40 40">
<defs>
<g id="Layer2_0_FILL">
<path fill="#585858" stroke="none" d="
M 44.15 -1.75
L -2.35 -1.75 -2.35 41.6 44.15 41.6 44.15 -1.75 Z"/>
</g>

<g id="Symbol_2_0_Layer1_0_FILL">
<path fill="#A1A1A1" stroke="none" d="
M 141.05 0
L 48.5 56.45 227.7 56.45 141.05 0
M 20.25 93.45
L 20.25 73.65 0 86 20.25 93.45
M 254.95 74.2
L 254.95 93.45 273.05 86 254.95 74.2 Z"/>

<path fill="#777777" stroke="none" d="
M 137 136.45
L 150.4 136.45 172.3 127.45 112.55 127.45 137 136.45
M 191.75 119.45
L 213.65 110.45 66.4 110.45 90.85 119.45 191.75 119.45
M 241.95 98.8
L 241.95 93.45 33 93.45 33 98.15 44.7 102.45 233.1 102.45 241.95 98.8
M 112.05 79
L 112.05 70 33 70 33 79 112.05 79 Z"/>

<path fill="#E2E2E2" stroke="none" d="
M 144.05 139.05
L 150.4 136.45 137 136.45 144.05 139.05
M 172.3 127.45
L 191.75 119.45 90.85 119.45 112.55 127.45 172.3 127.45
M 213.65 110.45
L 233.1 102.45 44.7 102.45 66.4 110.45 213.65 110.45
M 254.95 74.2
L 254.95 56.45 227.7 56.45 48.5 56.45 20.25 56.45 20.25 73.65 20.25 93.45 33 98.15 33 93.45 241.95 93.45 241.95 98.8 254.95 93.45 254.95 74.2
M 112.05 70
L 112.05 79 33 79 33 70 112.05 70 Z"/>

<path fill="#C6C6C6" stroke="none" d="
M 33 102.45
L 44.7 102.45 33 98.15 33 102.45
M 233.1 102.45
L 241.95 102.45 241.95 98.8 233.1 102.45 Z"/>

<path fill="#CDCDCD" stroke="none" d="
M 273.05 86
L 254.95 93.45 241.95 98.8 241.95 102.45 233.1 102.45 213.65 110.45 191.75 119.45 172.3 127.45 150.4 136.45 144.05 139.05 137 136.45 112.55 127.45 90.85 119.45 66.4 110.45 44.7 102.45 33 102.45 33 98.15 20.25 93.45 0 86 0 263.05 273.05 263.05 273.05 86 Z"/>
</g>

<g id="Layer0_0_FILL">
<path fill="#A1A1A1" stroke="none" d="
M 24.8 24
Q 23.2 22.5 20.7 22.5 18.05 22.5 16.3 24.25 14.6 26.05 14.6 28.7 14.6 31.3 16.25 32.9 17.85 34.55 20.55 34.55 22.45 34.55 23.7 34
L 23.7 33.1
Q 22.4 33.7 20.6 33.7 18.3 33.7 16.95 32.3 15.6 30.9 15.6 28.65 15.6 26.4 17.05 24.85 18.45 23.35 20.65 23.35 22.9 23.35 24.15 24.6 25.45 25.9 25.45 27.9 25.45 29.25 24.9 30.1 24.4 30.95 23.6 30.95 22.75 30.95 22.75 29.45 22.75 29.4 23.05 25.35
L 22.15 25.35
Q 22.1 26 22.1 26.2
L 22.05 26.2
Q 21.95 25.8 21.5 25.5 21.1 25.25 20.6 25.25 19.2 25.25 18.35 26.35 17.5 27.45 17.5 29.1 17.5 30.35 18.15 31.1 18.75 31.8 19.75 31.8 21.3 31.8 21.85 30.05
L 21.9 30.05
Q 21.9 31.8 23.5 31.8 24.7 31.8 25.6 30.7 26.45 29.6 26.45 27.85 26.45 25.45 24.8 24
M 18.9 30.45
Q 18.55 29.95 18.55 29.1 18.55 27.8 19.1 26.95 19.65 26.1 20.55 26.1 21.9 26.1 21.9 27.65 21.9 29.15 21.35 30.05 20.85 30.95 19.9 30.95 19.3 30.95 18.9 30.45 Z"/>
</g>
</defs>

<g transform="matrix( 1, 0, 0, 1, 0,0) ">
<use xlink:href="#Layer2_0_FILL"/>
</g>

<g transform="matrix( 0.1299896240234375, 0, 0, 0.1299896240234375, 2.25,2.9) ">
<g transform="matrix( 1, 0, 0, 1, 0,0) ">
<use xlink:href="#Symbol_2_0_Layer1_0_FILL"/>
</g>
</g>

<g transform="matrix( 1, 0, 0, 1, 0,0) ">
<use xlink:href="#Layer0_0_FILL"/>
</g>
</svg>
