<?xml version="1.0" encoding="utf-8"?>
<!-- Generator: Adobe Illustrator 19.2.1, SVG Export Plug-In . SVG Version: 6.00 Build 0)  -->
<svg version="1.1" id="Layer_1" xmlns="http://www.w3.org/2000/svg" xmlns:xlink="http://www.w3.org/1999/xlink" x="0px" y="0px"
	 viewBox="0 0 255.2 29.6" style="enable-background:new 0 0 255.2 29.6;" xml:space="preserve">
<style type="text/css">
	.st0{fill:#CCCCCC;}
</style>
<g transform="matrix( 1, 0, 0, 1, 852.7,77.9) ">
	<g transform="matrix( 1, 0, 0, 1, 0,0) ">
		<g>
			<g id="Layer0_0_FILL">
				<path class="st0" d="M-849.7-74.8c-0.8,1.1-1.5,2.6-2.1,4.5c-0.6,1.9-1,4.3-1,7.3c0,2.5,0.3,4.7,0.8,6.7c0.5,2,1.3,3.6,2.3,5
					c0.7,1.1,1.4,1.8,2.1,2.3c0.7,0.4,1,0.7,1.1,0.7l1-1.2c-0.3-0.1-0.6-0.3-0.8-0.5c-0.3-0.2-0.5-0.5-0.8-0.8
					c-0.3-0.3-0.6-0.7-0.9-1.2c-0.6-0.9-1.3-2.2-1.8-4c-0.6-1.8-0.9-4.1-0.9-7c0-2.9,0.3-5.2,0.9-7c0.6-1.8,1.2-3.1,1.8-4.1
					c0.3-0.5,0.7-0.9,1-1.3c0.3-0.3,0.6-0.5,0.8-0.8c0.3-0.3,0.6-0.5,0.9-0.6l-1.2-1.2c-0.1,0-0.5,0.3-1.2,0.7
					C-848.3-76.7-849-76-849.7-74.8 M-826.5-66.5c0.7-0.9,1.1-2.2,1.1-3.7c0-2.3-0.6-4-1.9-5.3c-1.4-1.6-3.5-2.3-6.3-2.3
					c-2.7,0-4.7,0.7-6.2,2.2c-1.3,1.3-2,3.2-2,5.7v0.7h2.1v-0.7c0-4.3,2-6.5,6.1-6.5c2,0,3.5,0.6,4.5,1.7c0.6,0.6,1,1.3,1.3,2
					c0.3,0.8,0.4,1.7,0.4,2.6c0,1.1-0.3,2.1-0.8,2.9c-0.5,0.8-1.2,1.5-2,2c-0.8,0.5-1.6,0.9-2.5,1.2c-0.9,0.3-1.8,0.4-2.5,0.4h-1.9
					v1.4h1.9c0.6,0,1.4,0.1,2.3,0.3c0.9,0.2,1.8,0.6,2.7,1.2c0.7,0.4,1.3,1,1.9,1.8c0.6,0.8,1,1.9,1,3.2c0,0.9-0.1,1.8-0.4,2.5
					c-0.3,0.8-0.7,1.5-1.3,2c-1.1,1.1-2.6,1.7-4.5,1.7c-1.9,0-3.4-0.5-4.4-1.5c-1.1-1-1.7-2.7-1.7-5v-0.7h-2.1v0.7
					c0,2.5,0.7,4.4,2,5.8c1.5,1.4,3.5,2.1,6.2,2.1c2.5,0,4.5-0.7,6-2c1.5-1.4,2.2-3.3,2.2-5.6c0-1.6-0.4-2.8-1.1-3.8
					c-0.8-1-1.5-1.7-2.3-2.2c-0.7-0.5-1.5-0.9-2.5-1.2c0.9-0.3,1.7-0.7,2.5-1.2C-828-64.8-827.2-65.5-826.5-66.5 M-813.3-77.9h-2
					l-6.7,5.8l1.6,0.8l5-4.3v27.3h2.1V-77.9 M-787.5-76.6v-1.3h-21.8v1.3h19.6l-17.7,28.3h2.2L-787.5-76.6 M-779.9-70.2
					c0.3,0.9,0.5,1.9,0.6,3.1c0.2,1.2,0.3,2.5,0.3,3.9c0,2.9-0.3,5.2-0.9,7c-0.6,1.8-1.2,3.1-1.8,4c-0.4,0.5-0.7,0.9-1,1.2
					c-0.3,0.3-0.6,0.6-0.8,0.8c-0.3,0.2-0.6,0.4-0.8,0.6l1.1,1.2c0,0,0.4-0.3,1.1-0.7c0.7-0.4,1.4-1.2,2.2-2.3s1.5-2.6,2.1-4.5
					c0.6-1.9,1-4.4,1-7.3c0-5-1-8.9-3-11.8c-0.8-1.1-1.5-1.8-2.1-2.3c-0.7-0.4-1.1-0.6-1.2-0.7l-1,1.2h-0.1c0.1,0,0.4,0.2,0.9,0.6
					c0.5,0.3,1.1,1,1.8,1.9c0.3,0.5,0.6,1,0.9,1.7C-780.4-71.8-780.1-71.1-779.9-70.2 M-744-70.8c0-2-0.7-3.7-2-5
					c-1.5-1.4-3.6-2.1-6.2-2.1c-2.8,0-4.8,0.6-6.2,1.8c-1.3,1.3-2,3.1-2,5.4v0.7h2.1v-0.7c0-2.1,0.5-3.6,1.5-4.6
					c1-0.9,2.5-1.3,4.5-1.3c2,0,3.5,0.5,4.5,1.6c1,1,1.6,2.4,1.6,4.2c0,3.5-2.3,6.7-6.8,9.4c-2.8,1.7-4.8,3.6-6,5.8
					c-0.5,0.9-0.9,2-1.2,3c-0.3,1.1-0.4,2.3-0.4,3.6v0.7h16.3v-1.3h-14.3c0.1-2.4,0.6-4.4,1.7-6.2c1.1-1.7,2.8-3.2,5.1-4.6
					C-746.4-63.4-744-66.8-744-70.8 M-724-76c-1.4-1.3-3.7-1.9-6.8-1.9c-3.1,0-5.4,0.7-6.8,1.9c-1.4,1.3-2.1,3.2-2.1,5.8
					c0,2.6,0.7,4.5,2.1,5.8c0.6,0.5,1.4,1,2.3,1.3c-0.9,0.3-1.6,0.8-2.3,1.3c-1.4,1.3-2.1,3.2-2.1,5.8c0,2.6,0.7,4.5,2.1,5.8
					c1.4,1.3,3.7,2,6.8,2c3.1,0,5.3-0.7,6.8-2c1.4-1.2,2.1-3.1,2.1-5.8c0-2.6-0.7-4.5-2.1-5.8c-0.6-0.6-1.3-1-2.2-1.3
					c0.9-0.3,1.6-0.8,2.2-1.3c1.4-1.2,2.1-3.2,2.1-5.8C-722-72.8-722.7-74.7-724-76 M-730.8-76.6c2.4,0,4.1,0.5,5.1,1.5
					c1.1,1,1.6,2.6,1.6,4.9c0,2.3-0.5,4-1.6,5c-1.1,1-2.8,1.5-5.1,1.4c-2.4,0-4.1-0.5-5.2-1.4c-1.1-1-1.7-2.7-1.7-5
					c0-2.3,0.6-3.9,1.7-4.9C-734.9-76.1-733.2-76.6-730.8-76.6 M-725.7-61c1.1,1,1.6,2.7,1.6,5s-0.5,4-1.6,5c-1.1,1-2.8,1.4-5.1,1.5
					c-2.4,0-4.1-0.5-5.2-1.5c-1.1-1-1.7-2.7-1.7-5s0.6-4,1.7-5c1.1-0.9,2.8-1.4,5.2-1.4C-728.4-62.4-726.7-61.9-725.7-61
					 M-702.5-66.5c0.7-0.9,1.1-2.2,1.1-3.7c0-2.3-0.7-4-2-5.3c-1.4-1.6-3.5-2.3-6.3-2.3c-2.7,0-4.7,0.7-6.2,2.2
					c-1.3,1.3-2,3.2-2,5.7v0.7h2.1v-0.7c0-4.3,2-6.5,6-6.5c2,0,3.5,0.6,4.5,1.7c0.6,0.6,1,1.3,1.3,2c0.3,0.8,0.4,1.7,0.4,2.6
					c0,1.1-0.3,2.1-0.8,2.9c-0.5,0.8-1.2,1.5-2,2c-0.8,0.5-1.6,0.9-2.5,1.2c-0.9,0.3-1.8,0.4-2.5,0.4h-1.9v1.4h1.9
					c0.6,0,1.4,0.1,2.3,0.3c0.9,0.2,1.8,0.6,2.7,1.2c0.7,0.4,1.3,1,1.9,1.8c0.6,0.8,1,1.9,1,3.2c0,0.9-0.1,1.8-0.4,2.5
					c-0.3,0.8-0.7,1.5-1.3,2c-1.1,1.1-2.6,1.7-4.5,1.7c-1.9,0-3.4-0.5-4.4-1.5c-1.1-1-1.7-2.7-1.7-5v-0.7h-2.1v0.7
					c0,2.5,0.6,4.4,2,5.8c1.5,1.4,3.5,2.1,6.2,2.1c2.5,0,4.5-0.7,6-2c1.5-1.4,2.2-3.3,2.2-5.6c0-1.6-0.4-2.8-1.1-3.8
					c-0.8-1-1.6-1.7-2.4-2.2c-0.7-0.5-1.5-0.9-2.5-1.2c0.9-0.3,1.7-0.7,2.5-1.2C-704.1-64.8-703.3-65.5-702.5-66.5 M-681.8-62.4
					v-1.4h-16v1.4H-681.8 M-663.2-66.5c0.7-0.9,1.1-2.2,1.1-3.7c0-2.3-0.7-4-2-5.3c-1.4-1.6-3.5-2.3-6.3-2.3c-2.7,0-4.7,0.7-6.2,2.2
					c-1.3,1.3-2,3.2-2,5.7v0.7h2.1v-0.7c0-4.3,2-6.5,6-6.5c2,0,3.5,0.6,4.5,1.7c0.6,0.6,1,1.3,1.3,2c0.3,0.8,0.4,1.7,0.4,2.6
					c0,1.1-0.3,2.1-0.8,2.9c-0.5,0.8-1.2,1.5-1.9,2c-0.8,0.5-1.6,0.9-2.5,1.2c-0.9,0.3-1.8,0.4-2.6,0.4h-1.9v1.4h1.9
					c0.6,0,1.4,0.1,2.3,0.3c0.9,0.2,1.8,0.6,2.6,1.2c0.7,0.4,1.3,1,1.9,1.8c0.6,0.8,1,1.9,1,3.2c0,0.9-0.1,1.8-0.4,2.5
					c-0.3,0.8-0.7,1.5-1.3,2c-1.1,1.1-2.6,1.7-4.5,1.7c-1.9,0-3.4-0.5-4.4-1.5c-1.1-1-1.7-2.7-1.6-5v-0.7h-2.1v0.7
					c0,2.5,0.7,4.4,2,5.8c1.5,1.4,3.5,2.1,6.2,2.1c2.5,0,4.5-0.7,6-2c1.5-1.4,2.2-3.3,2.2-5.6c0-1.6-0.4-2.8-1.1-3.8
					c-0.8-1-1.5-1.7-2.3-2.2c-0.7-0.5-1.5-0.9-2.5-1.2c0.9-0.3,1.7-0.7,2.5-1.2C-664.7-64.8-663.9-65.5-663.2-66.5 M-637-76.6v-1.3
					h-21.8v1.3h19.6l-17.7,28.3h2.2L-637-76.6 M-617.7-76.6v-1.3H-634v19h2.1v-0.3c0-1.9,0.5-3.4,1.6-4.5c1.1-1.1,2.5-1.7,4.4-1.7
					c2.1,0,3.6,0.5,4.6,1.4c1,1,1.5,2.6,1.5,4.8v3.1c0,0.9-0.1,1.8-0.4,2.6c-0.3,0.8-0.7,1.4-1.3,2c-1.1,1.2-2.6,1.8-4.5,1.8
					c-2,0-3.5-0.5-4.4-1.5c-1.1-1-1.6-2.7-1.6-4.9v-0.5h-2.1v0.5c0,2.4,0.7,4.3,2,5.7c1.4,1.4,3.4,2,6.1,2c2.7,0,4.8-0.8,6.3-2.4
					c0.6-0.7,1.1-1.5,1.5-2.4c0.3-0.9,0.5-1.9,0.5-3v-3.1c0-2.4-0.7-4.3-2-5.6c-1.5-1.4-3.6-2-6.3-2c-2.6,0-4.6,0.8-6,2.3v-12.1
					H-617.7 M-598.6-66.5c0.7-0.9,1.1-2.2,1.1-3.7c0-2.3-0.7-4-2-5.3c-1.4-1.6-3.5-2.3-6.3-2.3c-2.7,0-4.7,0.7-6.2,2.2
					c-1.3,1.3-1.9,3.2-1.9,5.7v0.7h2.1v-0.7c0-4.3,2-6.5,6-6.5c2,0,3.5,0.6,4.5,1.7c0.6,0.6,1,1.3,1.3,2c0.3,0.8,0.4,1.7,0.4,2.6
					c0,1.1-0.3,2.1-0.8,2.9c-0.5,0.8-1.2,1.5-2,2c-0.8,0.5-1.6,0.9-2.5,1.2c-0.9,0.3-1.8,0.4-2.5,0.4h-1.9v1.4h1.9
					c0.6,0,1.4,0.1,2.3,0.3c0.9,0.2,1.8,0.6,2.6,1.2c0.7,0.4,1.3,1,1.9,1.8c0.6,0.8,0.9,1.9,1,3.2c0,0.9-0.1,1.8-0.4,2.5
					c-0.3,0.8-0.7,1.5-1.3,2c-1.1,1.1-2.6,1.7-4.5,1.7c-1.9,0-3.4-0.5-4.4-1.5c-1.1-1-1.7-2.7-1.7-5v-0.7h-2.1v0.7
					c0,2.5,0.6,4.4,1.9,5.8c1.5,1.4,3.5,2.1,6.2,2.1c2.5,0,4.5-0.7,6-2c1.5-1.4,2.2-3.3,2.2-5.6c0-1.6-0.4-2.8-1.1-3.8
					c-0.8-1-1.6-1.7-2.4-2.2c-0.7-0.5-1.5-0.9-2.5-1.2c0.9-0.3,1.7-0.7,2.5-1.2C-600.2-64.8-599.4-65.5-598.6-66.5z"/>
			</g>
		</g>
	</g>
</g>
</svg>
