<?xml version="1.0" encoding="utf-8"?>
<!-- Generator: Adobe Illustrator 19.2.1, SVG Export Plug-In . SVG Version: 6.00 Build 0)  -->
<svg version="1.1" id="Layer_1" xmlns="http://www.w3.org/2000/svg" xmlns:xlink="http://www.w3.org/1999/xlink" x="0px" y="0px"
	 viewBox="0 0 158.4 100.4" style="enable-background:new 0 0 158.4 100.4;" xml:space="preserve">
<g>
	<path d="M78.7,16.5c9.5,0,19,0,28.5,0c0.8,0,1.7-0.1,2.5,0c1.5,0.3,2.9,0.7,4.3,1c-0.9,0.9-1.9,1.7-2.7,2.7
		c-0.7,0.9-1.7,1.8-1.9,2.9c-0.7,3-1.5,5.3-5,6.5c-2.5,0.8-3.1,4.5-1.8,7c1.3,2.5,4,3.7,6.7,2.9c0.9-0.3,1.7-1.3,2.6-1.4
		c1.1-0.1,2.2,0.4,3.4,0.7c-0.2,0.8-0.2,1.7-0.7,2.2c-1.9,2.1-2.2,4.5-0.8,6.9c1.3,2.3,3.5,3.1,6,2.6c2.8-0.5,4.1-2.5,4.5-5.3
		c0.1-0.8,0.6-2.2,0.9-2.2c1.6,0,2.1,1.1,2.1,2.7c-0.1,6,0.1,12-0.2,18c-0.1,1.5-1.4,3.3-2.7,4.3c-13.6,10.6-34.3,5.5-42.3-10
		c-0.9-1.7-0.6-4.8-3.6-4.7c-3,0-2.7,3.1-3.6,4.8c-8.3,15.5-27.9,20.3-42,10.3c-2.1-1.5-3.1-3.2-3.1-5.8c0.1-5.3,0.1-10.7,0-16
		c0-2.1,0.6-3.5,2.7-4.1c1.8-0.5,3.9-2.2,2.3,1.9c-0.9,2.3,0.8,4.1,3.3,4.7c0.5,0.1,1,0.1,1.5,0.1c5.2,0.4,5.2,0.4,5.7,5.6
		c0.3,3.5,1.8,5.3,4.2,5.2c2.4-0.1,3.6-1.9,3.8-5.5c0-0.5,0.1-1,0-1.5c-0.5-3.2,1.2-4.1,4.1-3.8c1,0.1,2,0.1,3-0.1
		c2.2-0.3,3.8-1.5,3.7-3.9c-0.1-2.3-1.4-3.7-3.7-4c-2.2-0.3-5.2,0.2-6.5-1.1c-1.1-1-0.4-4.1-0.7-6.2c-0.1-0.9-0.7-2.3-1.3-2.5
		c-3.3-1-3.3-3.5-3.9-6.3c-0.4-2.2-2.5-4.1-3.8-6.1c-0.3-0.4-0.6-0.7-1-1.1c0.5-0.3,1-0.8,1.5-0.8c2.1-0.3,4.3-0.6,6.4-0.6
		C60.4,16.4,69.5,16.4,78.7,16.5C78.7,16.4,78.7,16.4,78.7,16.5z M102.3,45.1c0-3.1-2.6-5.8-5.6-5.8c-3.1,0-5.6,2.6-5.7,5.7
		c0,3,2.6,5.8,5.6,5.8C99.7,50.9,102.3,48.3,102.3,45.1z M107.4,61.6c3.1,0.1,5.7-2.3,5.8-5.4c0.1-3-2.4-5.8-5.5-5.9
		c-2.9-0.1-5.7,2.5-5.8,5.6C101.8,59,104.2,61.5,107.4,61.6z"/>
	<path d="M38.7,21.6c3.7,0,6.2,2.7,5.8,6.2c-0.4,3.9-2.7,6.3-6.2,7.8c-2.7,1.2-5.5,2.4-8.4,3.2c-3,0.9-4.3,2.4-4.1,5.7
		c0.2,6.7,0.2,13.3,0,20c0,2.4,0.8,4,2.6,5.6c5.8,4.9,12.5,7.5,20,8c0.8,0.1,1.5,0.3,2.3,0.5c-0.4,0.7-0.7,1.5-1.2,2
		c-2.1,2.2-4.1,4.4-6.4,6.3c-3.5,3.1-6.4,3.1-9.6-0.1c-6.8-6.7-13.4-13.5-20.2-20.1c-2.4-2.3-3.2-4.8-3-8c0.4-6.8,0.6-13.6,0.8-20.5
		c0.1-3.7,1.7-6.6,5-8c6.9-2.9,13.9-5.5,20.9-8.2C37.7,21.8,38.3,21.7,38.7,21.6z"/>
	<path d="M147.4,49.3c0.2,3.5,0.7,7,0.4,10.5c-0.2,2.1-1,4.7-2.4,6.2c-6.7,7.1-13.8,14-20.8,20.9c-3.1,3.1-5.8,3.3-9.2,0.4
		c-2.5-2.1-4.8-4.6-7.1-7c-0.4-0.4-0.5-1.1-0.8-1.7c0.6-0.1,1.2-0.4,1.9-0.4c7.3-0.5,13.9-2.9,19.7-7.5c2.3-1.8,3.4-3.8,3.3-6.7
		c-0.2-6.7-0.2-13.3,0-20c0.1-2.6-0.8-3.9-3.2-4.7c-3.3-1.1-6.5-2.5-9.7-3.8c-2.9-1.2-4.9-3.5-5.5-6.6c-1-4.7,2.4-8.3,6.9-6.8
		c7.4,2.5,14.6,5.5,21.8,8.6c3,1.3,4.6,4.2,4.5,7.7c-0.1,3.7,0,7.3,0,11C147.2,49.3,147.3,49.3,147.4,49.3z"/>
	<path d="M25.6,100.4c-0.8-0.5-2.4-1.2-3.5-2.3C15.5,91.6,8.9,85,2.3,78.3c-3.1-3.1-3.1-6.7-0.2-9.6c3.1-3.1,6.3-3.2,9.6,0
		c6.8,6.6,13.5,13.4,20.2,20.1c2.2,2.1,2.6,4.5,1.2,7.3C31.7,98.8,29.5,100.2,25.6,100.4z"/>
	<path d="M158.4,74.4c-0.5,0.8-1,2.5-2.1,3.6c-6.6,6.8-13.3,13.5-20.1,20.1c-3.1,3.1-6.7,3-9.6,0c-3-3.1-3.1-6.4,0.1-9.6
		c6.6-6.6,13.2-13.2,19.8-19.8c2.1-2.1,4.4-3.1,7.2-1.7C156.4,68.4,158.2,70.4,158.4,74.4z"/>
	<path d="M78.4,14.7c-2.3,0-4.6,0-7,0c-2.1-0.1-3.5-1-3.5-3.3c0-2.3,1.5-3,3.6-3.2c4.5-0.4,4.5-0.5,4.7-5c0.1-1.5-0.3-3.1,2-3.2
		c2.4-0.1,2.6,1.3,2.6,3.2c0.2,4.5,0.2,4.6,4.7,5c2.2,0.2,3.4,1.1,3.4,3.4c0,2.1-1.3,3-3.2,3.1C83.4,14.7,80.9,14.6,78.4,14.7
		C78.4,14.7,78.4,14.7,78.4,14.7z"/>
	<path d="M41.2,41c-0.5,0-1,0.1-1.5,0c-0.4-0.1-0.8-0.2-1.2-0.4c0.4-0.3,0.7-0.7,1.1-0.9c1-0.6,2-1.1,3.1-1.6c0.8-0.4,1.6-0.7,2.4-1
		c0.1,0.8,0.4,1.8,0.1,2.4c-0.3,0.7-1.2,1.2-2,1.5C42.6,41.2,41.8,41,41.2,41C41.2,41,41.2,41,41.2,41z"/>
</g>
</svg>
