<?xml version="1.0" encoding="utf-8"?>
<!-- Generator: Adobe Illustrator 19.2.1, SVG Export Plug-In . SVG Version: 6.00 Build 0)  -->
<svg version="1.1" id="Layer_1" xmlns="http://www.w3.org/2000/svg" xmlns:xlink="http://www.w3.org/1999/xlink" x="0px" y="0px"
	 viewBox="0 0 407.8 467.9" style="enable-background:new 0 0 407.8 467.9;" xml:space="preserve">
<g>
	<path d="M21.7,212.3c0-14.3,0-28.6,0-43c0.1-17.7,12.3-30.8,29.9-31.6c8.3-0.4,16.7-0.4,25,0.2c16.2,1.1,28.3,14.4,28.4,30.5
		c0,29,0,58,0,86.9c0,17.3-10.8,30.1-28,31.8c-9.5,0.9-19.4,0.8-28.9-0.3c-15.5-1.7-26.2-14.6-26.4-30.2
		C21.6,241.9,21.7,227.1,21.7,212.3z M68.3,183.8c0-4.7,0-9.3,0-14c0-0.3,0-0.7,0-1c-0.2-5.9-4-10.2-9.6-10.9
		c-10-1.3-16.8,1.5-18.5,7.6c-0.2,0.8-0.3,1.6-0.3,2.5c0,10.5-0.1,21,0,31.5c0.1,5.1,3,8.7,7.9,9.6c3.8,0.7,8,0.8,11.8,0.2
		c5.6-0.9,8.6-4.7,8.7-10.5C68.4,193.8,68.3,188.8,68.3,183.8z"/>
	<path d="M55.5,131.9c5.4-15.7,12.1-30,20.4-43.5c24.6-40.1,57.8-69.9,104-82.1c59-15.6,112.1-1.7,159,36.5
		c26.8,21.8,45.7,49.5,58.3,81.7c0.8,2.2,2.5,4.2,4.3,5.8c4,3.5,6.3,7.8,6.3,13.1c0.1,10.2,0.1,20.3,0,30.5c-0.1,9.4-7,16.3-16,16.5
		c-9.2,0.2-16.5-6-16.9-15.4c-0.4-10.8-0.2-21.7,0-32.5c0-2.4,0.6-5.4,2.1-7c3.4-3.8,2-7,0.4-10.8c-22.9-52.5-60.7-89-117-102.2
		C196.8,7.5,144.7,28.5,104.1,79c-11.9,14.8-20.6,31.5-27.5,49.1c-1.2,3-2.6,4.1-5.8,3.9C66,131.7,61.2,131.9,55.5,131.9z"/>
	<path d="M55.3,293.1c5.1,0,9.7,0,14.4,0c15.6,69.1,52.7,120.2,121.6,145.9c3-10.8,11.1-11.3,19.9-11.1c13.5,0.3,27,0.1,40.5,0.1
		c8.8,0,13.9,5.1,14.1,13.9c0.1,4.2,0.1,8.3,0,12.5c-0.2,7.9-5.3,13.3-13.1,13.4c-16,0.2-32,0.1-48,0c-6.7-0.1-10.9-3.8-13.1-10.3
		c-0.6-1.8-2.4-3.9-4.2-4.5C115.7,427.4,75,374.9,57.1,302.6C56.4,299.6,55.9,296.5,55.3,293.1z M238.3,442.3c-1.6,2.9-3.2,4.5-3,6
		c0.1,1.1,2.3,3,3.6,2.9c1.2-0.1,3.2-2.2,3.1-3.3C241.9,446.4,240.2,445,238.3,442.3z M209.8,451.1c-1.8,2.1-3.8,3.5-3.6,4.5
		c0.2,1.5,2,2.8,3.1,4.2c1.3-1.2,3.2-2.3,3.6-3.7C213.1,455,211.3,453.4,209.8,451.1z M253,456.2c-2.5-1.8-4-3.7-5-3.5
		c-1.5,0.4-2.6,2.2-3.9,3.5c1.2,1.2,2.3,3.3,3.5,3.4C248.9,459.7,250.4,457.9,253,456.2z M204.1,439.9c2.6,1.6,4.2,3.3,5.3,3
		c1.4-0.4,2.4-2.3,3.6-3.6c-1.2-1.1-2.4-3.2-3.6-3.2C208,436.2,206.6,438,204.1,439.9z M247.7,444.6c1.6-2.2,3.5-3.6,3.3-4.7
		c-0.3-1.5-2.1-2.7-3.2-4c-1.2,1.3-3.1,2.4-3.5,3.9C244.1,440.8,246,442.4,247.7,444.6z M218.7,452.9c1.6-2.3,3.5-3.8,3.3-4.8
		c-0.3-1.5-2.2-2.7-3.4-4c-1.2,1.3-3,2.6-3.3,4.1C215,449.3,217,450.7,218.7,452.9z M233.9,456.3c-2.5-1.9-3.9-3.8-5-3.6
		c-1.5,0.3-3.2,2-3.6,3.5c-0.2,0.9,1.9,3.3,3.1,3.3C229.8,459.6,231.3,458,233.9,456.3z M229,434.3c-1.9,2.3-3.9,3.7-3.7,4.8
		c0.2,1.4,1.8,3.3,3.2,3.7c0.8,0.3,3.3-1.8,3.4-2.9C232,438.5,230.5,437,229,434.3z"/>
	<path d="M12.7,165.4c0,32.3,0,63.8,0,95.3c-7.9,1.4-7.7,1.4-8.9-5.4c-5-28.6-4.9-57.2-0.7-85.9C4.2,162.2,9.3,167.1,12.7,165.4z"/>
</g>
</svg>
