<?xml version="1.0" encoding="utf-8"?>
<!-- Generator: Adobe Illustrator 19.2.1, SVG Export Plug-In . SVG Version: 6.00 Build 0)  -->
<svg version="1.1" id="Layer_1" xmlns="http://www.w3.org/2000/svg" xmlns:xlink="http://www.w3.org/1999/xlink" x="0px" y="0px"
	 viewBox="0 0 360.7 566.5" style="enable-background:new 0 0 360.7 566.5;" xml:space="preserve">
<style type="text/css">
	.st0{fill:none;stroke:#FFFFFF;stroke-width:7.1;stroke-linecap:round;stroke-linejoin:round;}
	.st1{fill:url(#SVGID_1_);}
	.st2{fill:#FFFFFF;}
	.st3{fill:url(#SVGID_2_);}
</style>
<g transform="matrix( 1, 0, 0, 1, 0,0) ">
	<g>
		<path id="Layer1_0_1_STROKES" class="st0" d="M351.7,83.8c-45.5-0.1-78.9-5.1-100.5-14.9c-21.8-9.9-37.3-16.4-46.7-19.4
			l-13.9-11.9c-44.5-0.5-80.1,11.8-106.9,36.8v9.3C38.5,136,11.8,244.1,3.5,408c0.8,54.8,9.8,92.3,26.8,112.4
			c19,19.3,50,18,93.1-3.8c20.2-10.2,37.7-24,52.5-41.3c50-41.1,108.6-62,175.8-62.7"/>
	</g>
</g>
<g transform="matrix( 1, 0, 0, 1, 0,0) ">
	<g>
		<g id="Layer0_0_FILL">
			
				<linearGradient id="SVGID_1_" gradientUnits="userSpaceOnUse" x1="353.75" y1="6.625" x2="353.75" y2="59.175" gradientTransform="matrix(1 0 0 -1 0 566.5)">
				<stop  offset="0" style="stop-color:#FFFFFF;stop-opacity:0"/>
				<stop  offset="1" style="stop-color:#FFFFFF"/>
			</linearGradient>
			<path class="st1" d="M360.7,502.3h-13.9v64.3h13.9V502.3z"/>
			<path class="st2" d="M360.7,48.3h-13.9v454h13.9V48.3z"/>
			
				<linearGradient id="SVGID_2_" gradientUnits="userSpaceOnUse" x1="353.75" y1="560.725" x2="353.75" y2="521.975" gradientTransform="matrix(1 0 0 -1 0 566.5)">
				<stop  offset="0" style="stop-color:#FFFFFF;stop-opacity:0"/>
				<stop  offset="1" style="stop-color:#FFFFFF"/>
			</linearGradient>
			<path class="st3" d="M360.7,0h-13.9v48.3h13.9V0z"/>
		</g>
	</g>
</g>
</svg>
