<?xml version="1.0" encoding="utf-8"?>
<!-- Generator: Adobe Illustrator 19.2.1, SVG Export Plug-In . SVG Version: 6.00 Build 0)  -->
<svg version="1.1" xmlns="http://www.w3.org/2000/svg" xmlns:xlink="http://www.w3.org/1999/xlink" x="0px" y="0px"
	 viewBox="0 0 510.9 50.1" style="enable-background:new 0 0 510.9 50.1;" xml:space="preserve">
<style type="text/css">
	.st0{fill:none;stroke:#FFFFFF;stroke-width:2;stroke-linecap:round;stroke-linejoin:round;}
	.st1{fill:url(#SVGID_1_);}
	.st2{fill:#FFFFFF;}
	.st3{fill:url(#SVGID_2_);}
</style>
<g id="Layer_2">
</g>
<g id="Layer_1">
	<g transform="matrix( 1, 0, 0, 1, 0,0) ">
		<g>
			<path id="Layer1_0_1_STROKES" class="st0" d="M33.9,12.6c-3.1,0-5.3-0.3-6.8-1c-1.5-0.7-2.5-1.1-3.1-1.3l-0.9-0.8
				c-3,0-5.4,0.8-7.2,2.5v0.6c-3,3.5-4.8,10.8-5.4,21.8c0.1,3.7,0.7,6.2,1.8,7.6c1.3,1.3,3.4,1.2,6.3-0.3c1.4-0.7,2.5-1.6,3.5-2.8
				c3.4-2.8,7.3-4.2,11.8-4.2"/>
		</g>
	</g>
	<g transform="matrix( 1, 0, 0, 1, 0,0) ">
		<g>
			<g id="Layer0_0_FILL">
				
					<linearGradient id="SVGID_1_" gradientUnits="userSpaceOnUse" x1="34.0437" y1="-497.8824" x2="34.0437" y2="-501.4132" gradientTransform="matrix(1 0 0 1 0 542.5)">
					<stop  offset="0" style="stop-color:#FFFFFF;stop-opacity:0"/>
					<stop  offset="1" style="stop-color:#FFFFFF"/>
				</linearGradient>
				<path class="st1" d="M35.1,40.7H33v4.3h2.2V40.7z"/>
				<path class="st2" d="M35.1,10.2H33v30.5h2.2V10.2z"/>
				
					<linearGradient id="SVGID_2_" gradientUnits="userSpaceOnUse" x1="34.0437" y1="-535.112" x2="34.0437" y2="-532.5084" gradientTransform="matrix(1 0 0 1 0 542.5)">
					<stop  offset="0" style="stop-color:#FFFFFF;stop-opacity:0"/>
					<stop  offset="1" style="stop-color:#FFFFFF"/>
				</linearGradient>
				<path class="st3" d="M35.1,7H33v3.2h2.2V7z"/>
			</g>
		</g>
	</g>
	<g>
		<path class="st2" d="M37.3,11.8h16.8c2,0,3.6,0.8,5.1,2.3c1.4,1.5,2.1,3.3,2.1,5.4c0,2.1-0.7,3.9-2.1,5.4
			c-1.4,1.5-3.1,2.3-5.1,2.3h-8.2v8.6h-8.6V11.8z M45.9,17.6v3.8h4.8c0.5,0,1-0.2,1.4-0.6c0.4-0.4,0.6-0.8,0.6-1.4
			c0-0.5-0.2-1-0.6-1.4c-0.4-0.4-0.8-0.6-1.4-0.6H45.9z"/>
		<path class="st2" d="M61.3,35.9l8.6-24h11.5l8.6,24h-9.6l-1-3.8h-7.7l-1,3.8H61.3z M77.6,25.3l-1.9-5.8l-1.9,5.8H77.6z"/>
		<path class="st2" d="M90.1,11.8h16.8c2,0,3.6,0.8,5.1,2.3c1.4,1.5,2.1,3.3,2.1,5.4c0,2.1-0.7,3.9-2.1,5.4c-1.2,1.3-2.6,2-4.2,2.2
			l6.3,8.7h-8.6l-6.3-8.6h-0.5v8.6h-8.6V11.8z M98.7,17.6v3.8h4.8c0.5,0,1-0.2,1.4-0.6c0.4-0.4,0.6-0.8,0.6-1.4c0-0.5-0.2-1-0.6-1.4
			c-0.4-0.4-0.8-0.6-1.4-0.6H98.7z"/>
		<path class="st2" d="M115,35.9l8.6-24h11.5l8.6,24h-9.6l-1-3.8h-7.7l-1,3.8H115z M131.3,25.3l-1.9-5.8l-1.9,5.8H131.3z"/>
		<path class="st2" d="M143.8,35.9v-24h13.7c3.7,0,6.6,1.2,8.4,3.5c1.9,2.4,2.8,5.2,2.8,8.5c0,3.3-0.9,6.1-2.8,8.5
			c-1.9,2.4-4.7,3.5-8.4,3.5H143.8z M152.5,29.1h2.8c1.8,0,3-0.5,3.7-1.5c0.7-1,1.1-2.3,1.1-3.7c0-1.4-0.4-2.7-1.1-3.7
			c-0.7-1-2-1.6-3.7-1.6h-2.8V29.1z"/>
		<path class="st2" d="M170.7,23.5c0-3.5,1.2-6.5,3.7-9c2.5-2.4,5.6-3.6,9.5-3.6c3.9,0,7.1,1.1,9.6,3.4c2.5,2.2,3.8,5.3,3.9,9.2
			c0,3.6-1.3,6.6-4,9.1c-2.6,2.5-5.8,3.8-9.5,3.8c-3.7,0-6.8-1.3-9.4-3.8C172,30.1,170.7,27.1,170.7,23.5z M181.1,19.9
			c-1.3,0.9-2.2,2-2.7,3.3c-0.5,1.3-0.4,2.5,0.5,3.7c0.8,1.1,2,1.7,3.3,1.7c1.4,0,2.7-0.5,4-1.5c1.3-0.9,2.2-1.9,2.7-3.3
			c0.5-1.3,0.4-2.6-0.4-3.7c-0.8-1.2-2-1.7-3.3-1.7C183.8,18.6,182.4,19,181.1,19.9z"/>
		<path class="st2" d="M214.6,35.9l-3.8-5.6l-3.8,5.6h-8.6l8.2-12l-8.2-12h8.6l3.8,5.6l3.8-5.6h8.6l-8.2,12l8.2,12H214.6z"/>
		<path class="st2" d="M238.6,11.8h16.8c2,0,3.6,0.8,5.1,2.3c1.4,1.5,2.1,3.3,2.1,5.4c0,2.1-0.7,3.9-2.1,5.4
			c-1.4,1.5-3.1,2.3-5.1,2.3h-8.2v8.6h-8.6V11.8z M247.3,17.6v3.8h4.8c0.5,0,1-0.2,1.4-0.6c0.4-0.4,0.6-0.8,0.6-1.4
			c0-0.5-0.2-1-0.6-1.4c-0.4-0.4-0.8-0.6-1.4-0.6H247.3z"/>
		<path class="st2" d="M263.6,23.5c0-3.5,1.2-6.5,3.7-9c2.5-2.4,5.6-3.6,9.5-3.6c3.9,0,7.1,1.1,9.6,3.4c2.5,2.2,3.8,5.3,3.9,9.2
			c0,3.6-1.3,6.6-4,9.1c-2.6,2.5-5.8,3.8-9.5,3.8c-3.7,0-6.8-1.3-9.4-3.8C264.9,30.1,263.6,27.1,263.6,23.5z M274,19.9
			c-1.3,0.9-2.2,2-2.7,3.3c-0.5,1.3-0.4,2.5,0.5,3.7c0.8,1.1,2,1.7,3.3,1.7c1.4,0,2.7-0.5,4-1.5c1.3-0.9,2.2-1.9,2.7-3.3
			c0.5-1.3,0.4-2.6-0.4-3.7c-0.8-1.2-2-1.7-3.3-1.7C276.7,18.6,275.3,19,274,19.9z"/>
		<path class="st2" d="M291.2,11.8h7.7l2.9,10.3l2.9-10.3h7.7l2.9,10.3l2.9-10.3h7.7l-6.7,24h-7.7l-2.9-10.3l-2.9,10.3h-7.7
			L291.2,11.8z"/>
		<path class="st2" d="M325.7,35.9v-24h20.2v6.2h-10.6v2.4h10.6v6.7h-10.6v2.4h10.6v6.2H325.7z"/>
		<path class="st2" d="M347.8,11.8h16.8c2,0,3.6,0.8,5.1,2.3c1.4,1.5,2.1,3.3,2.1,5.4c0,2.1-0.7,3.9-2.1,5.4c-1.2,1.3-2.6,2-4.2,2.2
			l6.3,8.7h-8.6l-6.3-8.6h-0.5v8.6h-8.6V11.8z M356.5,17.6v3.8h4.8c0.5,0,1-0.2,1.4-0.6c0.4-0.4,0.6-0.8,0.6-1.4
			c0-0.5-0.2-1-0.6-1.4c-0.4-0.4-0.8-0.6-1.4-0.6H356.5z"/>
		<path class="st2" d="M389.1,11.8h16.8c2,0,3.6,0.8,5.1,2.3c1.4,1.5,2.1,3.3,2.1,5.4c0,2.1-0.7,3.9-2.1,5.4
			c-1.4,1.5-3.1,2.3-5.1,2.3h-8.2v8.6h-8.6V11.8z M397.7,17.6v3.8h4.8c0.5,0,1-0.2,1.4-0.6c0.4-0.4,0.6-0.8,0.6-1.4
			c0-0.5-0.2-1-0.6-1.4c-0.4-0.4-0.8-0.6-1.4-0.6H397.7z"/>
		<path class="st2" d="M414.1,35.9v-24h9.6v17.3h11.5v6.7H414.1z"/>
		<path class="st2" d="M436.1,35.9l8.6-24h11.5l8.6,24h-9.6l-1-3.8h-7.7l-1,3.8H436.1z M452.5,25.3l-1.9-5.8l-1.9,5.8H452.5z"/>
		<path class="st2" d="M464,11.8h8.6l4.3,7.7l4.3-7.7h8.6l-8.6,15.4v8.6h-8.6v-8.6L464,11.8z"/>
		<path class="st2" d="M490,19.3c0-2.3,1-4.2,3-5.7c2-1.5,4.6-2.2,7.8-2.1c2.9-0.1,6,0.1,9.2,0.5l-1.7,6.1c-1.3-0.2-3-0.3-5.1-0.2
			c-2.1,0-3.3,0.4-3.5,1c-0.2,0.7,0.1,1.1,0.8,1.3c0.7,0.2,2,0.4,3.8,0.6c1.9,0.1,3.5,0.8,4.8,2c1.3,1.2,2,2.9,2,5.2
			c0.1,2.4-0.8,4.3-2.7,5.9c-1.9,1.6-4.1,2.3-6.6,2.3c-2.6,0.2-6.1,0.1-10.5-0.4l2-6.1c5.1,0.2,7.8,0,8.2-0.7
			c0.4-0.7,0.2-1.2-0.6-1.5c-0.7-0.3-1.8-0.4-3.2-0.4c-1.4,0-3-0.6-4.7-1.7C490.9,23.9,489.9,21.9,490,19.3z"/>
	</g>
</g>
</svg>
