<?xml version="1.0" encoding="utf-8"?>
<!-- Generator: Adobe Illustrator 19.2.1, SVG Export Plug-In . SVG Version: 6.00 Build 0)  -->
<svg version="1.1" xmlns="http://www.w3.org/2000/svg" xmlns:xlink="http://www.w3.org/1999/xlink" x="0px" y="0px"
	 viewBox="0 0 1150.8 566.5" style="enable-background:new 0 0 1150.8 566.5;" xml:space="preserve">
<style type="text/css">
	.st0{fill:#FFFFFF;}
	.st1{fill:url(#SVGID_1_);}
	.st2{fill:url(#SVGID_2_);}
</style>
<g id="Layer_2">
</g>
<g id="Layer_1">
	<g transform="matrix( 1, 0, 0, 1, 0,0) ">
		<g>
			<g id="Layer3_0_FILL">
				<path class="st0" d="M202.2,52.1c0.4,0.3,0.8,0.6,1.3,0.7c9.3,3,24.7,9.4,46.3,19.3c22.1,10.1,56.6,15.2,103.5,15.2
					c0.8,0,1.6,0,2.4,0c1,0,1.8-0.4,2.5-1.1c0.7-0.7,1-1.5,1-2.5c0-1-0.4-1.8-1-2.5c-0.7-0.7-1.5-1-2.5-1.1c-0.8,0-1.6,0-2.4,0
					c-45.6,0-79.1-4.8-100.6-14.6c-21.4-9.8-36.9-16.2-46.4-19.3L193,34.8c-0.7-0.6-1.4-0.8-2.3-0.8c-45.5-0.5-82,12.1-109.4,37.8
					c-0.3,0.3-0.6,0.7-0.8,1.2c-0.2,0.5-0.3,0.9-0.3,1.4v8C35,135.4,8.2,243.9,0,407.8c0,0.1,0,0.2,0,0.3
					c0.9,56,10.1,94.2,27.6,114.7c0.1,0.1,0.1,0.1,0.1,0.2c19.8,20.7,52.2,19.6,97.2-3.2c20.5-10.3,38.3-24.3,53.4-41.9
					c50.1-41.1,109-61.7,176.6-61.7c0.2,0,0.5,0,0.7,0c1,0,1.8-0.4,2.5-1.1c0.7-0.7,1-1.5,1-2.5c0-1-0.4-1.8-1-2.5
					c-0.7-0.7-1.5-1-2.5-1c-0.2,0-0.5,0-0.7,0c-69.5,0.1-129.9,21.3-181.4,63.5c-0.2,0.1-0.3,0.3-0.4,0.5
					c-14.6,17-31.7,30.4-51.5,40.4C80.6,534.2,51,535.8,32.9,518C16.5,498.2,7.9,461.6,7.1,408.1C15.3,245.4,41.7,138,86.4,85.9
					c0.6-0.7,0.9-1.4,0.9-2.3v-7.8c25.8-23.4,59.8-35,102-34.8L202.2,52.1z"/>
			</g>
		</g>
	</g>
	<g transform="matrix( 1, 0, 0, 1, 0,0) ">
		<g>
			<g id="Layer0_0_FILL">
				<path class="st0" d="M366.7,502.3v-454h-25.8v454H366.7z"/>
				
					<linearGradient id="SVGID_1_" gradientUnits="userSpaceOnUse" x1="353.777" y1="6.625" x2="353.777" y2="59.175" gradientTransform="matrix(1 0 0 -1 0 566.5)">
					<stop  offset="0" style="stop-color:#FFFFFF;stop-opacity:0"/>
					<stop  offset="1" style="stop-color:#FFFFFF"/>
				</linearGradient>
				<path class="st1" d="M366.7,566.5v-64.3h-25.8v64.3H366.7z"/>
				
					<linearGradient id="SVGID_2_" gradientUnits="userSpaceOnUse" x1="353.777" y1="560.725" x2="353.777" y2="521.975" gradientTransform="matrix(1 0 0 -1 0 566.5)">
					<stop  offset="0" style="stop-color:#FFFFFF;stop-opacity:0"/>
					<stop  offset="1" style="stop-color:#FFFFFF"/>
				</linearGradient>
				<path class="st2" d="M366.7,48.3V0h-25.8v48.3H366.7z"/>
			</g>
		</g>
	</g>
</g>
<g id="Layer_3">
	<g>
		<path class="st0" d="M384.8,84.2h69.2c8.1,0,15,3.1,20.9,9.3c5.8,6.2,8.8,13.7,8.8,22.3c0,8.7-2.9,16.2-8.8,22.4
			c-5.8,6.2-12.8,9.3-20.9,9.3h-33.6V183h-35.6V84.2z M420.3,107.9v15.8h19.8c2.1,0,4-0.8,5.6-2.3c1.6-1.5,2.3-3.4,2.3-5.6
			c0-2.1-0.8-4-2.3-5.6c-1.6-1.6-3.4-2.3-5.6-2.3H420.3z"/>
		<path class="st0" d="M483.6,183l35.6-98.8h47.4l35.6,98.8h-39.5l-4-15.8h-31.6l-4,15.8H483.6z M550.8,139.6l-7.9-23.7l-7.9,23.7
			H550.8z"/>
		<path class="st0" d="M602.2,84.2h69.2c8.1,0,15,3.1,20.9,9.3c5.8,6.2,8.8,13.7,8.8,22.3c0,8.7-2.9,16.2-8.8,22.4
			c-4.9,5.3-10.7,8.3-17.3,9L701,183h-35.6l-25.8-35.6h-1.9V183h-35.6V84.2z M637.8,107.9v15.8h19.8c2.1,0,4-0.8,5.6-2.3
			c1.6-1.5,2.3-3.4,2.3-5.6c0-2.1-0.8-4-2.3-5.6c-1.6-1.6-3.4-2.3-5.6-2.3H637.8z"/>
		<path class="st0" d="M705,183l35.6-98.8H788l35.6,98.8h-39.5l-4-15.8h-31.6l-4,15.8H705z M772.2,139.6l-7.9-23.7l-7.9,23.7H772.2z
			"/>
		<path class="st0" d="M823.6,183V84.2h56.3c15.4,0,27,4.9,34.8,14.6c7.8,9.7,11.7,21.3,11.7,34.8c0,13.6-3.9,25.2-11.7,34.9
			c-7.8,9.7-19.4,14.5-34.8,14.5H823.6z M859.2,155.4h11.4c7.2,0,12.4-2.1,15.3-6.4c3-4.2,4.4-9.4,4.4-15.4c0-5.9-1.5-11-4.4-15.3
			c-3-4.3-8.1-6.4-15.3-6.4h-11.4V155.4z"/>
		<path class="st0" d="M934.3,132.1c0-14.6,5.1-26.9,15.2-36.9s23.2-15,39.2-15c16.1,0,29.3,4.6,39.4,13.8
			c10.1,9.2,15.4,21.9,15.9,38.1c0,14.7-5.4,27.1-16.3,37.4c-10.9,10.3-23.9,15.4-39,15.4c-15.2,0-28.1-5.1-38.6-15.4
			C939.5,159.3,934.3,146.8,934.3,132.1z M977.3,117.6c-5.4,3.7-9.1,8.2-11.1,13.6c-2.1,5.4-1.4,10.5,1.9,15.3c3.5,4.7,8,7,13.8,6.8
			c5.7-0.2,11.2-2.2,16.5-6.1c5.4-3.5,9.1-8,11.1-13.4c2.1-5.4,1.5-10.5-1.7-15.4c-3.5-4.8-8.1-7-13.8-6.8
			C988.2,111.9,982.6,113.9,977.3,117.6z"/>
		<path class="st0" d="M1115.2,183l-15.8-23.2l-15.8,23.2H1048l33.6-49.4L1048,84.2h35.6l15.8,23.2l15.8-23.2h35.6l-33.6,49.4
			l33.6,49.4H1115.2z"/>
		<path class="st0" d="M384.8,200.4h69.2c8.1,0,15,3.1,20.9,9.3c5.8,6.2,8.8,13.7,8.8,22.3c0,8.7-2.9,16.2-8.8,22.4
			c-5.8,6.2-12.8,9.3-20.9,9.3h-33.6v35.6h-35.6V200.4z M420.3,224.2V240h19.8c2.1,0,4-0.8,5.6-2.3c1.6-1.5,2.3-3.4,2.3-5.6
			c0-2.1-0.8-4-2.3-5.6c-1.6-1.6-3.4-2.3-5.6-2.3H420.3z"/>
		<path class="st0" d="M487.5,248.4c0-14.6,5.1-26.9,15.2-36.9c10.1-10,23.2-15,39.2-15c16.1,0,29.3,4.6,39.4,13.8
			c10.1,9.2,15.4,21.9,15.9,38.1c0,14.7-5.4,27.1-16.3,37.4c-10.9,10.3-23.9,15.4-39,15.4c-15.2,0-28.1-5.1-38.6-15.4
			C492.8,275.5,487.5,263,487.5,248.4z M530.5,233.8c-5.4,3.7-9.1,8.2-11.1,13.6c-2.1,5.4-1.4,10.5,1.9,15.3c3.5,4.7,8,7,13.8,6.8
			c5.7-0.2,11.2-2.2,16.5-6.1c5.4-3.5,9.1-8,11.1-13.4c2.1-5.4,1.5-10.5-1.7-15.4c-3.5-4.8-8.1-7-13.8-6.8
			C541.4,228.1,535.9,230.1,530.5,233.8z"/>
		<path class="st0" d="M601.2,200.4h31.6l11.9,42.4l11.9-42.4h31.6l11.9,42.4l11.9-42.4h31.6l-27.7,98.8h-31.6l-11.9-42.4
			l-11.9,42.4h-31.6L601.2,200.4z"/>
		<path class="st0" d="M743.5,299.3v-98.8h83v25.7h-43.5v9.9h43.5v27.7h-43.5v9.9h43.5v25.7H743.5z"/>
		<path class="st0" d="M834.5,200.4h69.2c8.1,0,15,3.1,20.9,9.3c5.8,6.2,8.8,13.7,8.8,22.3c0,8.7-2.9,16.2-8.8,22.4
			c-4.9,5.3-10.7,8.3-17.3,9l26.1,35.8h-35.6l-25.8-35.6H870v35.6h-35.6V200.4z M870,224.2V240h19.8c2.1,0,4-0.8,5.6-2.3
			c1.6-1.5,2.3-3.4,2.3-5.6c0-2.1-0.8-4-2.3-5.6c-1.6-1.6-3.4-2.3-5.6-2.3H870z"/>
		<path class="st0" d="M384.8,316.7h69.2c8.1,0,15,3.1,20.9,9.3c5.8,6.2,8.8,13.7,8.8,22.3c0,8.7-2.9,16.2-8.8,22.4
			c-5.8,6.2-12.8,9.3-20.9,9.3h-33.6v35.6h-35.6V316.7z M420.3,340.4v15.8h19.8c2.1,0,4-0.8,5.6-2.3c1.6-1.5,2.3-3.4,2.3-5.6
			c0-2.1-0.8-4-2.3-5.6c-1.6-1.6-3.4-2.3-5.6-2.3H420.3z"/>
		<path class="st0" d="M487.5,415.5v-98.8h39.5v71.2h47.4v27.7H487.5z"/>
		<path class="st0" d="M578.5,415.5l35.6-98.8h47.4l35.6,98.8h-39.5l-4-15.8H622l-4,15.8H578.5z M645.7,372l-7.9-23.7l-7.9,23.7
			H645.7z"/>
		<path class="st0" d="M693.1,316.7h35.6l17.8,31.6l17.8-31.6h35.6l-35.6,63.3v35.6h-35.6v-35.6L693.1,316.7z"/>
		<path class="st0" d="M800.1,347.2c0-9.5,4.1-17.3,12.2-23.5c8.1-6.2,18.8-9.1,32.1-8.6c12-0.4,24.6,0.2,37.7,2l-7,25.1
			c-5.4-0.7-12.4-1.1-21.1-1c-8.7,0.1-13.4,1.5-14.3,4.2c-0.8,2.7,0.2,4.6,3.2,5.5c3,0.9,8.1,1.7,15.4,2.3
			c7.7,0.6,14.3,3.4,19.8,8.3c5.6,5,8.3,12.1,8.3,21.4c0.4,9.7-3.2,17.8-10.9,24.3c-7.7,6.5-16.8,9.6-27.2,9.3
			c-10.5,1-25,0.5-43.2-1.5l8-25.1c20.8,0.9,32.1-0.1,33.9-3c1.8-2.9,1-5-2.4-6.3c-3-1.1-7.5-1.6-13.3-1.7c-5.8,0-12.4-2.3-19.5-6.9
			C803.8,366.2,800,357.9,800.1,347.2z"/>
	</g>
</g>
</svg>
