<?xml version="1.0" standalone="no"?>
<!DOCTYPE svg PUBLIC "-//W3C//DTD SVG 1.1//EN" "http://www.w3.org/Graphics/SVG/1.1/DTD/svg11.dtd" >
<svg>
<metadata>
Created by FontForge 20120731 at Fri Sep 30 04:17:48 2016
 By ,,,
Copyright (c) 2008 by Autodesk, Inc.. All rights reserved.
</metadata>
<defs>
<font id="GENISO" horiz-adv-x="1032" >
  <font-face 
    font-family="GENISO"
    font-weight="400"
    font-stretch="normal"
    units-per-em="2048"
    panose-1="2 0 4 0 0 0 0 0 0 0"
    ascent="1638"
    descent="-410"
    x-height="885"
    cap-height="1342"
    bbox="-147 -741 3538 2101"
    underline-thickness="20"
    underline-position="-123"
    unicode-range="U+0005-25A1"
  />
<missing-glyph horiz-adv-x="590" 
 />
    <glyph glyph-name=".notdef" horiz-adv-x="590" 
 />
    <glyph glyph-name="percent" unicode="%" horiz-adv-x="1622" 
d="M679 1106q0 -99 -69 -168q-68 -68 -167 -68q-97 0 -168 68q-69 69 -69 168t69 167q69 69 168 69t167 -69q69 -68 69 -167zM1412 1318l-1180 -1327l-21 19l1179 1326zM1416 221q0 -100 -69 -167q-67 -67 -167 -67q-101 0 -168 67q-68 68 -68 167t68 167q69 69 168 69
t167 -69q69 -68 69 -167zM649 1106q0 87 -60 146q-59 60 -146 60q-86 0 -147 -60q-60 -60 -60 -146q0 -87 60 -147t147 -60q86 0 146 60q60 61 60 147zM1386 221q0 87 -60 146q-59 60 -146 60q-86 0 -147 -60q-60 -60 -60 -146q0 -87 60 -147t147 -60q86 0 146 60
q60 61 60 147z" />
    <glyph glyph-name="ampersand" unicode="&#x26;" horiz-adv-x="1327" 
d="M1115 430l-279 -210l135 -212l-25 -15l-133 209l-185 -140q-95 -71 -191 -71q-86 0 -157 65q-70 64 -70 150q0 88 84 208l201 288l-154 241q-47 74 -47 167q0 102 59 167q60 65 163 65q136 0 198 -102q38 -65 38 -132q0 -89 -93 -222l-129 -185l291 -456l276 209z
M723 1108q0 61 -34 116q-54 88 -173 88q-45 0 -81 -15t-60.5 -41.5t-38 -64t-13.5 -82.5q0 -83 43 -150l147 -231l121 175q89 131 89 205zM796 227l-284 448l-194 -278q-78 -113 -78 -189q0 -75 61 -132q62 -56 138 -56q85 0 171 65z" />
    <glyph glyph-name="quotesingle" unicode="'" horiz-adv-x="516" 
d="M310 1324l-74 -295l-29 7l74 295z" />
    <glyph glyph-name="parenleft" unicode="(" horiz-adv-x="590" 
d="M382 -140l-27 -12q-149 370 -149 815t149 817l27 -11q-146 -589 -146 -806q0 -193 36 -407q20 -121 47.5 -219.5t62.5 -176.5z" />
    <glyph glyph-name="parenright" unicode=")" horiz-adv-x="590" 
d="M383 663q0 -199 -36 -413q-20 -121 -48.5 -221t-63.5 -181l-27 12q146 586 146 803q0 193 -36 408q-20 121 -47.5 220t-62.5 178l27 11q31 -68 75 -227q73 -262 73 -590z" />
    <glyph glyph-name="asterisk" unicode="*" 
d="M822 157l-21 -20l-285 284l-285 -284l-20 20l284 286l-284 284l20 21l285 -285l285 285l21 -21l-285 -284z" />
    <glyph glyph-name="plus" unicode="+" 
d="M811 427h-280v-279h-30v279h-280v30h280v280h30v-280h280v-30z" />
    <glyph glyph-name="comma" unicode="," horiz-adv-x="516" 
d="M310 -3l-74 -295l-29 7l74 295z" />
    <glyph glyph-name="period" unicode="." horiz-adv-x="442" 
d="M236 0h-30v74h30v-74z" />
    <glyph glyph-name="slash" unicode="/" 
d="M824 1321l-589 -1326l-27 11l589 1327z" />
    <glyph glyph-name="zero" unicode="0" 
d="M826 610q0 -128 -41 -284q-44 -171 -114 -261q-62 -78 -155 -78q-168 0 -261 310q-49 160 -49 313v107q0 134 40 285q45 170 116 262q60 78 154 78q168 0 261 -311q49 -162 49 -314v-107zM796 610v107q0 144 -47 305q-86 290 -233 290t-233 -290q-47 -161 -47 -305v-107
q0 -131 43 -288q83 -308 237 -308q146 0 233 291q47 161 47 305z" />
    <glyph glyph-name="one" unicode="1" horiz-adv-x="737" 
d="M531 0h-30v1291l-270 -270l-20 21l285 285h35v-1327z" />
    <glyph glyph-name="two" unicode="2" 
d="M811 -13h-617l546 881q47 77 47 166q0 118 -77 198t-194 80q-184 0 -268 -176q-5 -10 -8 -18t-5 -15l-28 9q30 101 116 166q85 64 193 64q132 0 216 -88q84 -89 84 -220q0 -99 -51 -181l-518 -839h564v-27z" />
    <glyph glyph-name="three" unicode="3" 
d="M826 328q0 -172 -109 -263q-93 -78 -230 -78h-266v27h266q140 0 224 86q85 85 85 228v103q0 128 -91 213q-72 66 -155 79h-181v29h181q87 16 153 72q93 79 93 208q0 127 -77 204q-76 76 -203 76h-295v30h295q138 0 224 -86t86 -224q0 -218 -218 -295q103 -37 160.5 -117
t57.5 -189v-103z" />
    <glyph glyph-name="four" unicode="4" horiz-adv-x="1180" 
d="M958 280h-206v-280h-29v280h-521l300 1051l28 -8l-290 -1013h483v279h29v-279h206v-30z" />
    <glyph glyph-name="five" unicode="5" 
d="M826 328q0 -341 -339 -341h-266v27h266q309 0 309 314v90q0 170 -123 250q-85 55 -194 55h-273v619h531v-30h-501v-560h243q115 0 210 -59q137 -87 137 -275v-90z" />
    <glyph glyph-name="six" unicode="6" 
d="M826 332q0 -145 -81 -242q-87 -103 -229 -103q-137 0 -228 97q-82 88 -82 196v409q0 266 177 466q128 146 277 186l8 -28q-136 -37 -262 -178q-151 -171 -168 -383h265q323 0 323 -284v-136zM796 332v136q0 255 -293 255h-266q-1 -7 -1 -12v-9v-13v-409q0 -97 74 -177
q83 -89 206 -89q131 0 208 96q72 88 72 222z" />
    <glyph glyph-name="seven" unicode="7" 
d="M830 1342l-300 -1345l-29 7l292 1308h-557v-132h-30v162h624z" />
    <glyph glyph-name="eight" unicode="8" 
d="M826 267q0 -120 -96 -202q-92 -78 -214 -78q-123 0 -214 78q-96 82 -96 202v176q0 104 58 183t157 111q-96 30 -156 112q-59 83 -59 183q0 129 90 219q91 91 220 91t219 -91q91 -90 91 -219q0 -101 -60 -183q-58 -82 -155 -112q99 -32 157 -111t58 -183v-176zM796 1032
q0 117 -82 198q-81 82 -198 82t-199 -82q-81 -81 -81 -198t81 -199q82 -81 199 -81t198 81q82 82 82 199zM796 267v176q0 120 -80 200t-200 80t-200 -80t-80 -200v-176q0 -109 87 -182q86 -71 193 -71q108 0 194 72q86 74 86 181z" />
    <glyph glyph-name="nine" unicode="9" 
d="M826 638q0 -266 -177 -465q-131 -147 -276 -186l-9 27q137 38 262 179q152 171 168 382h-265q-323 0 -323 284v136q0 145 81 243q87 104 229 104q136 0 228 -99q82 -88 82 -196v-409zM796 605v442q0 96 -74 176q-83 89 -206 89q-130 0 -208 -95q-72 -89 -72 -222v-136
q0 -254 293 -254h267z" />
    <glyph glyph-name="colon" unicode=":" horiz-adv-x="442" 
d="M236 663h-30v74h30v-74zM236 148h-30v73h30v-73z" />
    <glyph glyph-name="semicolon" unicode=";" horiz-adv-x="516" 
d="M310 516h-30v73h30v-73zM310 -3l-74 -295l-29 7l74 295z" />
    <glyph glyph-name="less" unicode="&#x3c;" 
d="M816 235l-11 -28l-626 236l626 235l11 -28l-553 -207z" />
    <glyph glyph-name="equal" unicode="=" 
d="M811 649h-590v30h590v-30zM811 206h-590v30h590v-30z" />
    <glyph glyph-name="greater" unicode="&#x3e;" 
d="M853 443l-626 -236l-11 28l553 208l-553 207l11 28z" />
    <glyph glyph-name="question" unicode="?" 
d="M826 1099q0 -64 -44 -126q-23 -32 -90 -99l-109 -109q-52 -64 -52 -139v-183h-30v183q0 84 54 152q2 2 30.5 31t85.5 86q67 67 84 90q41 56 41 114q0 102 -83 161q-73 52 -180 52q-78 0 -194 -38q-93 -31 -108 -46l-20 21q20 20 119 53q116 40 203 40q147 0 226 -82
q67 -67 67 -161zM531 0h-30v74h30v-74z" />
    <glyph glyph-name="at" unicode="@" horiz-adv-x="1622" 
d="M1416 332q0 -174 -19 -228q-41 -117 -180 -117q-145 0 -189 134q-62 -134 -217 -134q-124 0 -185 96q-51 79 -51 212v331q0 127 64 197q67 76 191 76h217v-714q7 -73 52 -122q46 -49 118 -49q122 0 155 111q14 51 14 207v368q0 286 -174 456q-161 156 -401 156
q-282 0 -442 -208q-133 -172 -133 -385v-627q0 -251 189 -399q152 -119 312 -119v-30q-170 0 -331 125q-200 158 -200 423v627q0 225 139 403q169 220 466 220q252 0 422 -165q183 -179 183 -477v-368zM1018 185l-1 685h-187q-225 0 -225 -244v-331q0 -281 206 -281
q77 0 136 48q60 47 71 123z" />
    <glyph glyph-name="A" unicode="A" horiz-adv-x="1327" 
d="M1120 4l-28 -7l-120 357h-617l-120 -357l-28 7l441 1323h31zM963 383l-300 898l-299 -898h599z" />
    <glyph glyph-name="B" unicode="B" horiz-adv-x="1180" 
d="M973 369q0 -221 -171 -321q-103 -61 -213 -61h-383v1355h383q107 0 188 -48q132 -78 132 -262q0 -213 -215 -293q279 -71 279 -370zM879 1032q0 166 -118 236q-74 44 -172 44h-353v-560h390q59 0 139 57q114 82 114 223zM944 369q0 299 -319 354h-389v-709h353
q101 0 198 58q157 94 157 297z" />
    <glyph glyph-name="C" unicode="C" 
d="M811 -13h-222q-182 0 -282 100q-101 101 -101 282v589q0 181 101 282q102 102 282 102h222v-30h-222q-170 0 -261.5 -91.5t-91.5 -262.5v-589q0 -84 23.5 -150t69 -111.5t111 -69.5t149.5 -24h222v-27z" />
    <glyph glyph-name="D" unicode="D" horiz-adv-x="1180" 
d="M973 406q0 -190 -150 -314q-128 -105 -270 -105h-347v1355h347q143 0 270 -106q150 -125 150 -314v-516zM944 406v516q0 176 -139 291q-120 99 -252 99h-317v-1298h317q134 0 252 100q139 115 139 292z" />
    <glyph glyph-name="E" unicode="E" 
d="M811 -13h-605v1355h605v-30h-575v-560h427v-29h-427v-709h575v-27z" />
    <glyph glyph-name="F" unicode="F" 
d="M811 723h-575v-723h-30v1342h605v-30h-575v-560h575v-29z" />
    <glyph glyph-name="G" unicode="G" horiz-adv-x="1180" 
d="M973 -13h-384q-165 0 -274 108q-109 109 -109 274v589q0 174 125 285q112 99 258 99h369v-30h-369q-134 0 -238 -92q-115 -102 -115 -262v-589q0 -154 100 -254q101 -101 253 -101h355v709h-207v29h236v-765z" />
    <glyph glyph-name="H" unicode="H" horiz-adv-x="1180" 
d="M973 0h-29v723h-708v-723h-30v1327h30v-575h708v575h29v-1327z" />
    <glyph glyph-name="I" unicode="I" horiz-adv-x="442" 
d="M236 0h-30v1327h30v-1327z" />
    <glyph glyph-name="J" unicode="J" horiz-adv-x="885" 
d="M679 295q0 -129 -91 -219q-92 -89 -219 -89h-148v27h148q117 0 198 82q82 82 82 199v1032h30v-1032z" />
    <glyph glyph-name="K" unicode="K" horiz-adv-x="1180" 
d="M971 7l-25 -13l-443 811l-267 -295v-510h-30v1327h30v-773l712 783l21 -19l-444 -490z" />
    <glyph glyph-name="L" unicode="L" 
d="M811 -13h-605v1340h30v-1313h575v-27z" />
    <glyph glyph-name="M" unicode="M" horiz-adv-x="1327" 
d="M1120 0h-29v1273l-428 -711l-427 711v-1273h-30v1327h32l425 -709l426 709h31v-1327z" />
    <glyph glyph-name="N" unicode="N" horiz-adv-x="1180" 
d="M973 0h-32l-705 1270v-1270h-30v1327h32l706 -1270v1270h29v-1327z" />
    <glyph glyph-name="O" unicode="O" horiz-adv-x="1180" 
d="M973 369q0 -160 -112 -271q-113 -111 -272 -111q-160 0 -272 111q-111 111 -111 271v589q0 159 111 272q112 112 272 112t272 -112t112 -272v-589zM944 369v589q0 146 -104 250t-251 104t-250 -103t-103 -251v-589q0 -149 103 -252t250 -103q148 0 251 103
q104 104 104 252z" />
    <glyph glyph-name="P" unicode="P" horiz-adv-x="1180" 
d="M973 958q0 -217 -145 -314q-102 -69 -257 -69h-335v-575h-30v1342h365q153 0 257 -71q145 -99 145 -313zM944 958q0 198 -132 288q-96 66 -241 66h-335v-707h335q147 0 241 64q132 88 132 289z" />
    <glyph glyph-name="Q" unicode="Q" horiz-adv-x="1180" 
d="M1115 12l-18 -23l-196 156q-114 -158 -312 -158q-160 0 -272 111q-111 111 -111 271v589q0 159 111 272q112 112 272 112t272 -112t112 -272v-589q0 -108 -56 -200zM944 369v589q0 146 -104 250t-251 104t-250 -103t-103 -251v-589q0 -149 103 -252t250 -103
q182 0 289 150l-150 119l18 23l149 -118q49 82 49 181z" />
    <glyph glyph-name="R" unicode="R" horiz-adv-x="1180" 
d="M973 958q0 -311 -287 -371l286 -581l-27 -11l-289 586q-41 -6 -85 -6h-335v-575h-30v1342h365q153 0 257 -71q145 -99 145 -313zM944 958q0 198 -132 288q-96 66 -241 66h-335v-707h335q147 0 241 64q132 88 132 289z" />
    <glyph glyph-name="S" unicode="S" horiz-adv-x="1180" 
d="M973 292q0 -110 -77 -202q-88 -103 -233 -103q-109 0 -235 42q-122 42 -216 107l17 23q324 -145 434 -145q128 0 211 95q70 82 70 183q0 112 -78 189q-52 52 -172 112l-222 111q-72 36 -153 87q-113 95 -113 241q0 114 75 203q92 107 250 107q210 0 362 -89l-16 -25
q-245 84 -346 84q-145 0 -227 -96q-68 -80 -68 -184q0 -181 184 -272q19 -9 66 -30q82 -39 288 -144q199 -106 199 -294z" />
    <glyph glyph-name="T" unicode="T" horiz-adv-x="1180" 
d="M958 1312h-353v-1312h-30v1312h-354v30h737v-30z" />
    <glyph glyph-name="U" unicode="U" horiz-adv-x="1180" 
d="M973 369q0 -160 -112 -271q-113 -111 -272 -111q-160 0 -272 111q-111 111 -111 271v958h30v-958q0 -149 103 -252t250 -103q148 0 251 103q104 104 104 252v958h29v-958z" />
    <glyph glyph-name="V" unicode="V" horiz-adv-x="1327" 
d="M1120 1322l-441 -1322h-31l-441 1322l28 10l428 -1285l429 1285z" />
    <glyph glyph-name="W" unicode="W" horiz-adv-x="1622" 
d="M1415 1324l-294 -1324h-30l-280 849l-280 -849h-31l-293 1324l29 6l283 -1274l292 887l292 -887l283 1274z" />
    <glyph glyph-name="X" unicode="X" horiz-adv-x="1327" 
d="M1118 8l-25 -15l-430 644l-430 -644l-24 15l437 655l-437 655l24 18l430 -646l430 646l25 -18l-437 -655z" />
    <glyph glyph-name="Y" unicode="Y" horiz-adv-x="1364" 
d="M1151 1318l-456 -659v-659h-30v659l-456 659l24 18l447 -647l447 647z" />
    <glyph glyph-name="Z" unicode="Z" horiz-adv-x="1180" 
d="M984 1342l-737 -1328h711v-27h-762l737 1325h-712v30h763z" />
    <glyph glyph-name="bracketleft" unicode="[" horiz-adv-x="590" 
d="M369 -161h-163v1650h163v-29h-133v-1591h133v-30z" />
    <glyph glyph-name="backslash" unicode="\" 
d="M824 6l-27 -11l-589 1326l27 12z" />
    <glyph glyph-name="bracketright" unicode="]" horiz-adv-x="590" 
d="M383 -161h-162v30h133v1591h-133v29h162v-1650z" />
    <glyph glyph-name="asciicircum" unicode="^" horiz-adv-x="442" 
d="M453 1003l-21 -22l-211 204l-211 -204l-19 22l230 223z" />
    <glyph glyph-name="underscore" unicode="_" horiz-adv-x="1622" 
d="M1622 -456h-1622v30h1622v-30z" />
    <glyph glyph-name="grave" unicode="`" horiz-adv-x="406" 
d="M319 1004l-18 -24l-294 223l18 24z" />
    <glyph glyph-name="a" unicode="a" 
d="M826 -13h-362q-78 0 -145 32q-113 59 -113 202q0 144 109 202q61 34 149 34h332v160q0 138 -102 204q-73 49 -178 49h-221v29h221q111 0 194 -53q116 -74 116 -229v-630zM796 14v413h-332q-228 0 -228 -206q0 -125 97 -177q55 -30 131 -30h332z" />
    <glyph glyph-name="b" unicode="b" 
d="M826 258q0 -113 -80 -193q-80 -78 -193 -78h-347v1340h30v-428h317q113 0 193 -80t80 -193v-368zM796 258v368q0 102 -71 173t-172 71h-317v-856h317q101 0 172 71t71 173z" />
    <glyph glyph-name="c" unicode="c" horiz-adv-x="885" 
d="M663 -13h-184q-115 0 -194 78q-79 79 -79 193v368q0 114 79 193q80 80 194 80h184v-29h-184q-102 0 -173 -71q-70 -70 -70 -173v-368q0 -103 70 -173q71 -71 173 -71h184v-27z" />
    <glyph glyph-name="d" unicode="d" 
d="M826 -13h-347q-115 0 -194 78q-79 79 -79 193v368q0 114 79 193q80 80 194 80h317v428h30v-1340zM796 14v856h-317q-102 0 -173 -71q-70 -70 -70 -173v-368q0 -103 70 -173q71 -71 173 -71h317z" />
    <glyph glyph-name="e" unicode="e" 
d="M826 427h-590v-132q0 -169 67 -230q55 -51 191 -51h317v-27h-317q-147 0 -211 57q-77 69 -77 251v294q0 129 90 219q91 91 220 91t219 -91q91 -90 91 -219v-162zM796 457v132q0 117 -82 199q-81 82 -198 82t-199 -82q-81 -83 -81 -199v-132h560z" />
    <glyph glyph-name="f" unicode="f" horiz-adv-x="885" 
d="M663 870h-280v-870h-29v870h-133v29h133v96q0 131 52 216q78 131 257 131v-30q-162 0 -232 -117q-48 -80 -48 -200v-96h280v-29z" />
    <glyph glyph-name="g" unicode="g" 
d="M826 -147q0 -309 -328 -309h-203v30h203q298 0 298 279v134h-317q-115 0 -194 78q-79 79 -79 193v368q0 114 79 193q80 80 194 80h347v-1046zM796 14v856h-317q-102 0 -173 -71q-70 -70 -70 -173v-368q0 -103 70 -173q71 -71 173 -71h317z" />
    <glyph glyph-name="h" unicode="h" 
d="M826 0h-30v626q0 102 -71 173t-172 71h-317v-870h-30v1327h30v-428h317q113 0 193 -80t80 -193v-626z" />
    <glyph glyph-name="i" unicode="i" horiz-adv-x="442" 
d="M236 1254h-30v73h30v-73zM236 0h-30v885h30v-885z" />
    <glyph glyph-name="j" unicode="j" horiz-adv-x="737" 
d="M531 1254h-30v73h30v-73zM531 -183q0 -113 -80 -193t-193 -80h-37v30h37q101 0 172 71t71 172v1068h30v-1068z" />
    <glyph glyph-name="k" unicode="k" 
d="M824 6l-27 -11l-288 575l-273 -137v-433h-30v1327h30v-861l569 285l12 -27l-282 -141z" />
    <glyph glyph-name="l" unicode="l" horiz-adv-x="590" 
d="M369 -13q-66 0 -116 47q-47 47 -47 114v1179h30v-1179q0 -55 39 -95q39 -39 94 -39v-27z" />
    <glyph glyph-name="m" unicode="m" horiz-adv-x="1327" 
d="M1120 0h-29v626q0 102 -71 173t-172 71h-169v-870h-30v870h-413v-870h-30v899h642q113 0 193 -80q79 -79 79 -193v-626z" />
    <glyph glyph-name="n" unicode="n" 
d="M826 0h-30v626q0 102 -71 173t-172 71h-317v-870h-30v899h347q113 0 193 -80t80 -193v-626z" />
    <glyph glyph-name="o" unicode="o" 
d="M826 295q0 -129 -91 -219q-92 -89 -219 -89q-128 0 -220 89q-90 90 -90 219v294q0 129 90 219q91 91 220 91t219 -91q91 -90 91 -219v-294zM796 295v294q0 117 -82 199q-81 82 -198 82t-199 -82q-81 -83 -81 -199v-294q0 -117 81 -199q82 -82 199 -82t198 82
q82 82 82 199z" />
    <glyph glyph-name="p" unicode="p" 
d="M826 258q0 -113 -80 -193q-80 -78 -193 -78h-317v-429h-30v1341h347q113 0 193 -80t80 -193v-368zM796 258v368q0 102 -71 173t-172 71h-317v-856h317q101 0 172 71t71 173z" />
    <glyph glyph-name="q" unicode="q" 
d="M826 -442h-30v429h-317q-115 0 -194 78q-79 79 -79 193v368q0 114 79 193q80 80 194 80h347v-1341zM796 14v856h-317q-102 0 -173 -71q-70 -70 -70 -173v-368q0 -103 70 -173q71 -71 173 -71h317z" />
    <glyph glyph-name="r" unicode="r" horiz-adv-x="885" 
d="M679 737h-30v133h-413v-870h-30v899h473v-162z" />
    <glyph glyph-name="s" unicode="s" 
d="M826 184q0 -197 -310 -197q-131 0 -301 73l12 27q176 -73 289 -73q280 0 280 170q0 85 -76 140q-22 16 -148 77l-217 105q-149 72 -149 194q0 199 237 199q144 0 284 -75l-13 -26q-209 72 -271 72q-207 0 -207 -170q0 -84 76 -136q27 -17 148 -75q72 -34 145 -72t148 -80
q73 -58 73 -153z" />
    <glyph glyph-name="t" unicode="t" horiz-adv-x="885" 
d="M663 870h-280v-870h-29v870h-133v29h133v428h29v-428h280v-29z" />
    <glyph glyph-name="u" unicode="u" 
d="M826 -13h-347q-115 0 -194 78q-79 79 -79 193v627h30v-627q0 -103 70 -173q71 -71 173 -71h317v871h30v-898z" />
    <glyph glyph-name="v" unicode="v" 
d="M825 880l-294 -880h-31l-293 880l28 9l281 -842l281 842z" />
    <glyph glyph-name="w" unicode="w" horiz-adv-x="1327" 
d="M1120 881l-220 -881h-32l-205 548l-205 -548h-31l-220 881l29 7l209 -839l218 583l219 -583l210 839z" />
    <glyph glyph-name="x" unicode="x" 
d="M823 8l-25 -15l-282 423l-283 -423l-24 15l290 435l-290 434l24 16l283 -424l282 424l25 -16l-289 -434z" />
    <glyph glyph-name="y" unicode="y" 
d="M825 880l-446 -1336h-158v30h137l142 426l-293 880l28 9l281 -842l281 842z" />
    <glyph glyph-name="z" unicode="z" 
d="M839 899l-591 -885h563v-27h-618l591 883h-563v29h618z" />
    <glyph glyph-name="braceleft" unicode="{" horiz-adv-x="737" 
d="M517 -161q-5 -2 -13 0q-61 6 -101 55q-39 45 -47 106q-1 7 -1.5 27t-0.5 54v343q0 108 -14 145q-27 65 -121 80l-86 14q57 10 92.5 17.5t49.5 14.5q69 31 77 113q1 10 1.5 34t0.5 62v342q0 125 38 175q55 73 125 68l-1 -29q-4 1 -8 0q-48 -5 -83 -44q-34 -37 -40 -89
q-1 -8 -1.5 -28.5t-0.5 -52.5v-342q0 -99 -11 -141q-19 -71 -93 -100q73 -29 93 -99q11 -41 11 -140v-343q0 -78 14 -122q23 -63 87 -85q19 -6 32 -5z" />
    <glyph glyph-name="bar" unicode="|" horiz-adv-x="406" 
d="M218 -625h-30v2726h30v-2726z" />
    <glyph glyph-name="braceright" unicode="}" horiz-adv-x="737" 
d="M604 663q-57 -10 -92.5 -17.5t-49.5 -14.5q-69 -31 -77 -113q-1 -10 -1.5 -33.5t-0.5 -60.5v-343q0 -128 -37 -174q-55 -73 -126 -68l2 30q3 -1 7 0q50 5 84 46q33 38 39 88q1 8 1.5 27.5t0.5 50.5v343q0 99 11 140q21 71 94 99q-73 28 -94 100q-11 41 -11 141v342
q0 116 -32 157q-46 58 -100 57l-2 29q5 2 13 0q58 -6 99 -53t49 -105q1 -8 1.5 -29t0.5 -56v-342q0 -109 14 -146q26 -63 121 -80z" />
    <glyph glyph-name="asciitilde" unicode="~" horiz-adv-x="634" 
d="M626 1176q-2 -2 -3.5 -5l-3.5 -7q-39 -58 -135 -58q-70 0 -168 77q-95 78 -140 78q-75 0 -144 -70l-23 19q71 80 167 80q57 0 152 -77t156 -77q92 0 115 51z" />
    <glyph glyph-name="nonbreakingspace" unicode="&#xa0;" horiz-adv-x="590" 
 />
    <glyph glyph-name="exclamdown" unicode="&#xa1;" horiz-adv-x="442" 
d="M236 1254h-30v73h30v-73zM236 0h-30v885h30v-885z" />
    <glyph glyph-name="cent" unicode="&#xa2;" 
d="M811 -13h-206v-207h-30v207h-96q-133 0 -206 93q-67 85 -67 221v283q0 136 67 221q73 94 206 94h96v209h30v-209h206v-29h-206v-856h206v-27zM575 14v856h-96q-121 0 -185 -85q-58 -76 -58 -201v-283q0 -121 59 -201q65 -86 184 -86h96z" />
    <glyph glyph-name="sterling" unicode="&#xa3;" horiz-adv-x="1327" 
d="M1120 221q0 -142 -95 -196q-68 -38 -214 -38h-590v27q102 0 158 72q48 64 48 172v391h-206v30h206v353q0 96 54 182q80 128 243 128q164 0 254 -116q69 -89 69 -194h-30q0 96 -63 176q-83 104 -230 104q-146 0 -218 -114q-49 -76 -49 -166v-353h280v-30h-280v-391
q0 -176 -116 -244h470q138 0 200 36q80 47 80 171h29z" />
    <glyph glyph-name="currency" unicode="&#xa4;" horiz-adv-x="1327" 
d="M1121 664q0 -180 -122 -311l101 -103l-21 -21l-101 102q-134 -125 -315 -125q-180 0 -314 125l-101 -102l-20 21l100 103q-123 132 -123 311q0 180 121 310l-98 100l20 20l98 -100q134 128 317 128q185 0 319 -128l99 100l21 -20l-99 -101q118 -130 118 -309zM1092 664
q0 179 -125 304t-304 125t-304 -125q-124 -124 -124 -304t124 -304t304 -124t304 124q125 125 125 304z" />
    <glyph glyph-name="yen" unicode="&#xa5;" horiz-adv-x="1364" 
d="M1151 1318l-391 -566h346v-29h-367l-44 -64v-276h411v-29h-411v-354h-30v354h-407v29h407v276l-44 64h-363v29h343l-392 566l24 18l404 -584h87l403 584zM703 723h-46l23 -34z" />
    <glyph glyph-name="section" unicode="&#xa7;" horiz-adv-x="885" 
d="M679 221q0 -100 -69 -167q-67 -67 -167 -67q-38 0 -72.5 11t-63.5 31.5t-51.5 49t-35.5 63.5l28 10q49 -138 195 -138q86 0 146 60q60 61 60 147q0 87 -60 146q-59 60 -146 60q-97 0 -168 68q-69 69 -69 168q0 73 42 135q43 61 112 87q-35 13 -63 35t-48.5 51t-31.5 63.5
t-11 71.5q0 99 69 167q69 69 168 69q37 0 71.5 -11.5t64 -32t51.5 -49.5t34 -65l-28 -10q-50 138 -193 138q-86 0 -147 -60q-60 -60 -60 -146q0 -87 60 -147t147 -60q99 0 167 -69q69 -68 69 -167q0 -37 -11 -71t-31 -63t-48.5 -51t-63.5 -35q69 -26 111 -87q43 -61 43 -135
zM649 663q0 86 -60 146q-60 61 -146 61q-87 0 -147 -60t-60 -147q0 -86 60 -146q61 -60 147 -60q87 0 146 59q60 60 60 147z" />
    <glyph glyph-name="dieresis" unicode="&#xa8;" horiz-adv-x="492" 
d="M482 1092h-29v74h29v-74zM40 1092h-30v74h30v-74z" />
    <glyph glyph-name="copyright" unicode="&#xa9;" horiz-adv-x="1327" 
d="M1121 664q0 -191 -134 -325q-133 -133 -324 -133q-192 0 -325 133t-133 325q0 191 133 324q134 134 325 134q190 0 324 -134t134 -324zM1092 664q0 179 -125 304t-304 125t-304 -125q-124 -124 -124 -304t124 -304t304 -124t304 124q125 125 125 304zM922 433
q-104 -116 -259 -116q-146 0 -246 100t-100 246q0 145 101 246t245 101q149 0 251 -107l-20 -21q-95 99 -231 99q-132 0 -225 -93q-92 -95 -92 -225t92 -225q95 -92 225 -92q143 0 237 106z" />
    <glyph glyph-name="ordfeminine" unicode="&#xaa;" 
d="M826 575h-362q-258 0 -258 199t258 199h332v87q0 138 -102 204q-74 48 -178 48h-221v30h221q111 0 194 -53q116 -74 116 -229v-485zM811 206h-590v30h590v-30zM796 605v339h-332q-228 0 -228 -170q0 -169 228 -169h332z" />
    <glyph glyph-name="guillemotleft" unicode="&#xab;" horiz-adv-x="1106" 
d="M897 82l-25 -16l-226 358l226 358l25 -16l-216 -342zM454 82l-24 -16l-227 358l227 358l24 -16l-216 -342z" />
    <glyph glyph-name="logicalnot" unicode="&#xac;" horiz-adv-x="664" 
d="M457 -73h-30v722h-427v30h457v-752z" />
    <glyph glyph-name="registered" unicode="&#xae;" horiz-adv-x="1327" 
d="M1121 664q0 -191 -134 -325q-133 -133 -324 -133q-192 0 -325 133t-133 325q0 191 133 324q134 134 325 134q190 0 324 -134t134 -324zM1092 664q0 179 -125 304t-304 125t-304 -125q-124 -124 -124 -304t124 -304t304 -124t304 124q125 125 125 304zM899 774
q0 -122 -127 -156l125 -205l-25 -15l-131 215q-3 -1 -10 -1h-7h-230v-206h-30v530h273q73 0 117.5 -44.5t44.5 -117.5zM870 774q0 133 -133 133h-243v-265h230q59 0 102 37q44 38 44 95z" />
    <glyph glyph-name="macron" unicode="&#xaf;" horiz-adv-x="510" 
d="M540 1061h-569v30h569v-30z" />
    <glyph glyph-name="degree" unicode="&#xb0;" horiz-adv-x="885" 
d="M679 1106q0 -99 -69 -168q-68 -68 -167 -68q-97 0 -168 68q-69 69 -69 168t69 167q69 69 168 69t167 -69q69 -68 69 -167zM649 1106q0 87 -60 146q-59 60 -146 60q-86 0 -147 -60q-60 -60 -60 -146q0 -87 60 -147t147 -60q86 0 146 60q60 61 60 147z" />
    <glyph glyph-name="plusminus" unicode="&#xb1;" 
d="M811 575h-280v-280h-30v280h-280v30h280v280h30v-280h280v-30zM811 95h-590v30h590v-30z" />
    <glyph glyph-name="acute" unicode="&#xb4;" horiz-adv-x="406" 
d="M404 1203l-294 -223l-18 24l294 223z" />
    <glyph glyph-name="paragraph" unicode="&#xb6;" horiz-adv-x="1290" 
d="M1069 1312h-96v-1312h-29v1312h-413v-1312h-30v723q-127 6 -209 94t-82 215q0 130 90 220t220 90h549v-30zM501 752v560q-112 -7 -187 -88q-75 -80 -75 -192q0 -115 74 -195q73 -79 188 -85z" />
    <glyph glyph-name="middledot" unicode="&#xb7;" horiz-adv-x="516" 
d="M295 427h-74v30h74v-30z" />
    <glyph glyph-name="cedilla" unicode="&#xb8;" horiz-adv-x="516" 
d="M310 -3l-74 -295l-29 7l74 295z" />
    <glyph glyph-name="ordmasculine" unicode="&#xba;" 
d="M826 904q0 -112 -59 -204q-83 -125 -251 -125t-251 125q-59 92 -59 204v109q0 112 59 204q83 125 251 125t251 -125q59 -92 59 -204v-109zM811 206h-590v30h590v-30zM796 904v109q0 106 -54 187q-75 112 -226 112t-226 -112q-54 -81 -54 -187v-109q0 -106 54 -187
q75 -112 226 -112t226 112q54 81 54 187z" />
    <glyph glyph-name="guillemotright" unicode="&#xbb;" horiz-adv-x="1106" 
d="M902 424l-226 -358l-25 16l217 342l-217 342l25 16zM460 424l-226 -358l-25 16l216 342l-216 342l25 16z" />
    <glyph glyph-name="questiondown" unicode="&#xbf;" 
d="M531 1254h-30v73h30v-73zM822 78q-20 -20 -120 -53q-122 -38 -203 -38q-147 0 -226 81q-67 67 -67 161q0 63 44 125q22 31 90 99l54 54t55 54q52 64 52 139v185h30v-185q0 -84 -54 -151q-2 -2 -30.5 -31t-85.5 -86q-68 -68 -84 -90q-41 -56 -41 -113q0 -83 58 -141
q72 -74 205 -74q78 0 194 38q92 31 108 47z" />
    <glyph glyph-name="Agrave" unicode="&#xc0;" horiz-adv-x="1327" 
d="M790 1704l-18 -24l-294 223l18 24zM1120 4l-28 -7l-120 357h-617l-120 -357l-28 7l441 1323h31zM963 383l-300 898l-299 -898h599z" />
    <glyph glyph-name="Aacute" unicode="&#xc1;" horiz-adv-x="1327" 
d="M790 1903l-294 -223l-18 24l294 223zM1120 4l-28 -7l-120 357h-617l-120 -357l-28 7l441 1323h31zM963 383l-300 898l-299 -898h599z" />
    <glyph glyph-name="Acircumflex" unicode="&#xc2;" horiz-adv-x="1327" 
d="M895 1703l-20 -22l-212 204l-210 -204l-21 22l231 223zM1120 4l-28 -7l-120 357h-617l-120 -357l-28 7l441 1323h31zM963 383l-300 898l-299 -898h599z" />
    <glyph glyph-name="Atilde" unicode="&#xc3;" horiz-adv-x="1327" 
d="M974 1876q-2 -2 -3.5 -5l-3.5 -7q-39 -58 -135 -58q-69 0 -167 77q-95 78 -141 78q-75 0 -144 -70l-23 19q71 80 167 80q57 0 152 -77t156 -77q92 0 115 51zM1120 4l-28 -7l-120 357h-617l-120 -357l-28 7l441 1323h31zM963 383l-300 898l-299 -898h599z" />
    <glyph glyph-name="Adieresis" unicode="&#xc4;" horiz-adv-x="1327" 
d="M899 1692h-29v74h29v-74zM457 1692h-30v74h30v-74zM1120 4l-28 -7l-120 357h-617l-120 -357l-28 7l441 1323h31zM963 383l-300 898l-299 -898h599z" />
    <glyph glyph-name="Aring" unicode="&#xc5;" horiz-adv-x="1327" 
d="M862 1729q0 -83 -58 -141t-141 -58t-141 58t-58 141t58 141t141 58t141 -58t58 -141zM1120 4l-28 -7l-120 357h-617l-120 -357l-28 7l441 1323h31zM833 1729q0 69 -50 119t-120 50t-120 -50q-49 -49 -49 -119q0 -71 49 -120t120 -49t120 49q50 50 50 120zM963 383
l-300 898l-299 -898h599z" />
    <glyph glyph-name="AE" unicode="&#xc6;" horiz-adv-x="1622" 
d="M1400 -13h-460v367h-585l-120 -357l-28 7l445 1338h748v-30h-431v-560h322v-29h-322v-709h431v-27zM940 383v929h-266l-310 -929h576z" />
    <glyph glyph-name="Ccedilla" unicode="&#xc7;" 
d="M811 -13h-222q-37 0 -62 3l-71 -288l-28 7l70 285q-292 51 -292 375v589q0 181 101 282q102 102 282 102h222v-30h-222q-170 0 -261.5 -91.5t-91.5 -262.5v-589q0 -84 23.5 -150t69 -111.5t111 -69.5t149.5 -24h222v-27z" />
    <glyph glyph-name="Egrave" unicode="&#xc8;" 
d="M672 1704l-18 -24l-294 223l17 24zM811 -13h-605v1355h605v-30h-575v-560h427v-29h-427v-709h575v-27z" />
    <glyph glyph-name="Eacute" unicode="&#xc9;" 
d="M672 1903l-295 -223l-17 24l294 223zM811 -13h-605v1355h605v-30h-575v-560h427v-29h-427v-709h575v-27z" />
    <glyph glyph-name="Ecircumflex" unicode="&#xca;" 
d="M748 1703l-21 -22l-211 204l-211 -204l-21 22l232 223zM811 -13h-605v1355h605v-30h-575v-560h427v-29h-427v-709h575v-27z" />
    <glyph glyph-name="Edieresis" unicode="&#xcb;" 
d="M752 1692h-29v74h29v-74zM310 1692h-30v74h30v-74zM811 -13h-605v1355h605v-30h-575v-560h427v-29h-427v-709h575v-27z" />
    <glyph glyph-name="Igrave" unicode="&#xcc;" horiz-adv-x="442" 
d="M377 1704l-17 -24l-295 223l18 24zM236 0h-30v1327h30v-1327z" />
    <glyph glyph-name="Iacute" unicode="&#xcd;" horiz-adv-x="442" 
d="M377 1903l-294 -223l-18 24l295 223zM236 0h-30v1327h30v-1327z" />
    <glyph glyph-name="Icircumflex" unicode="&#xce;" horiz-adv-x="442" 
d="M453 1703l-21 -22l-211 204l-211 -204l-19 22l230 223zM236 0h-30v1327h30v-1327z" />
    <glyph glyph-name="Idieresis" unicode="&#xcf;" horiz-adv-x="442" 
d="M383 1692h-29v74h29v-74zM88 1692h-29v74h29v-74zM236 0h-30v1327h30v-1327z" />
    <glyph glyph-name="Ntilde" unicode="&#xd1;" horiz-adv-x="1180" 
d="M902 1829q-1 -2 -3 -5.5t-4 -7.5q-38 -57 -135 -57q-69 0 -167 77q-95 77 -141 77q-75 0 -144 -70l-22 20q71 80 166 80q57 0 152 -78q95 -77 156 -77q93 0 115 52zM973 0h-32l-705 1270v-1270h-30v1327h32l706 -1270v1270h29v-1327z" />
    <glyph glyph-name="Ograve" unicode="&#xd2;" horiz-adv-x="1180" 
d="M746 1704l-18 -24l-294 223l17 24zM973 369q0 -160 -112 -271q-113 -111 -272 -111q-160 0 -272 111q-111 111 -111 271v589q0 159 111 272q112 112 272 112t272 -112t112 -272v-589zM944 369v589q0 146 -104 250t-251 104t-250 -103t-103 -251v-589q0 -149 103 -252
t250 -103q148 0 251 103q104 104 104 252z" />
    <glyph glyph-name="Oacute" unicode="&#xd3;" horiz-adv-x="1180" 
d="M744 1903l-295 -223l-17 24l294 223zM973 369q0 -160 -112 -271q-113 -111 -272 -111q-160 0 -272 111q-111 111 -111 271v589q0 159 111 272q112 112 272 112t272 -112t112 -272v-589zM944 369v589q0 146 -104 250t-251 104t-250 -103t-103 -251v-589q0 -149 103 -252
t250 -103q148 0 251 103q104 104 104 252z" />
    <glyph glyph-name="Ocircumflex" unicode="&#xd4;" horiz-adv-x="1180" 
d="M822 1703l-21 -22l-212 204l-210 -204l-21 22l231 223zM973 369q0 -160 -112 -271q-113 -111 -272 -111q-160 0 -272 111q-111 111 -111 271v589q0 159 111 272q112 112 272 112t272 -112t112 -272v-589zM944 369v589q0 146 -104 250t-251 104t-250 -103t-103 -251v-589
q0 -149 103 -252t250 -103q148 0 251 103q104 104 104 252z" />
    <glyph glyph-name="Otilde" unicode="&#xd5;" horiz-adv-x="1180" 
d="M893 1810l-3.5 -7t-3.5 -5q-38 -57 -135 -57q-73 0 -167 76q-95 77 -141 77q-75 0 -144 -70l-23 20q71 80 167 80q57 0 152 -78q95 -77 156 -77q93 0 115 52zM973 369q0 -160 -112 -271q-113 -111 -272 -111q-160 0 -272 111q-111 111 -111 271v589q0 159 111 272
q112 112 272 112t272 -112t112 -272v-589zM944 369v589q0 146 -104 250t-251 104t-250 -103t-103 -251v-589q0 -149 103 -252t250 -103q148 0 251 103q104 104 104 252z" />
    <glyph glyph-name="Odieresis" unicode="&#xd6;" horiz-adv-x="1180" 
d="M826 1692h-30v74h30v-74zM383 1692h-29v74h29v-74zM973 369q0 -160 -112 -271q-113 -111 -272 -111q-160 0 -272 111q-111 111 -111 271v589q0 159 111 272q112 112 272 112t272 -112t112 -272v-589zM944 369v589q0 146 -104 250t-251 104t-250 -103t-103 -251v-589
q0 -149 103 -252t250 -103q148 0 251 103q104 104 104 252z" />
    <glyph glyph-name="Oslash" unicode="&#xd8;" horiz-adv-x="1180" 
d="M1044 1318l-121 -171q50 -89 50 -189v-589q0 -160 -112 -271q-113 -111 -272 -111q-232 0 -340 206l-90 -128l-24 17l100 141q-29 73 -29 146v589q0 159 111 272q112 112 272 112q201 0 317 -168l114 162zM888 1148q-105 164 -299 164q-147 0 -250 -103t-103 -251v-589
q0 -57 20 -117zM944 369v589q0 86 -40 162l-636 -900q44 -95 131 -150q89 -56 190 -56q148 0 251 103q104 104 104 252z" />
    <glyph glyph-name="Ugrave" unicode="&#xd9;" horiz-adv-x="1180" 
d="M737 1704l-18 -24l-295 223l18 24zM973 369q0 -160 -112 -271q-113 -111 -272 -111q-160 0 -272 111q-111 111 -111 271v958h30v-958q0 -149 103 -252t250 -103q148 0 251 103q104 104 104 252v958h29v-958z" />
    <glyph glyph-name="Uacute" unicode="&#xda;" horiz-adv-x="1180" 
d="M737 1903l-295 -223l-18 24l295 223zM973 369q0 -160 -112 -271q-113 -111 -272 -111q-160 0 -272 111q-111 111 -111 271v958h30v-958q0 -149 103 -252t250 -103q148 0 251 103q104 104 104 252v958h29v-958z" />
    <glyph glyph-name="Ucircumflex" unicode="&#xdb;" horiz-adv-x="1180" 
d="M822 1703l-21 -22l-212 204l-210 -204l-21 22l231 223zM973 369q0 -160 -112 -271q-113 -111 -272 -111q-160 0 -272 111q-111 111 -111 271v958h30v-958q0 -149 103 -252t250 -103q148 0 251 103q104 104 104 252v958h29v-958z" />
    <glyph glyph-name="Udieresis" unicode="&#xdc;" horiz-adv-x="1180" 
d="M826 1692h-30v74h30v-74zM383 1692h-29v74h29v-74zM973 369q0 -160 -112 -271q-113 -111 -272 -111q-160 0 -272 111q-111 111 -111 271v958h30v-958q0 -149 103 -252t250 -103q148 0 251 103q104 104 104 252v958h29v-958z" />
    <glyph glyph-name="uni00DF" unicode="&#xdf;" horiz-adv-x="1180" 
d="M973 236q0 -249 -225 -249v27q196 0 196 222v328q0 203 -174 221q-3 1 -13 1h-17h-1l-1 -1l-2 29h2q4 0 11.5 1.5t19.5 3.5q175 36 175 202v87q0 204 -244 204h-257q-93 0 -154 -85q-53 -74 -53 -158v-1069h-30v1069q0 94 58 176q69 97 179 97h257q119 0 193 -56
q80 -63 80 -178v-87q0 -161 -150 -216q150 -45 150 -241v-328z" />
    <glyph glyph-name="agrave" unicode="&#xe0;" 
d="M672 1265l-18 -23l-294 220l17 25zM826 -13h-362q-78 0 -145 32q-113 59 -113 202q0 144 109 202q61 34 149 34h332v160q0 138 -102 204q-73 49 -178 49h-221v29h221q111 0 194 -53q116 -74 116 -229v-630zM796 14v413h-332q-228 0 -228 -206q0 -125 97 -177
q55 -30 131 -30h332z" />
    <glyph glyph-name="aacute" unicode="&#xe1;" 
d="M672 1462l-295 -220l-17 23l294 222zM826 -13h-362q-78 0 -145 32q-113 59 -113 202q0 144 109 202q61 34 149 34h332v160q0 138 -102 204q-73 49 -178 49h-221v29h221q111 0 194 -53q116 -74 116 -229v-630zM796 14v413h-332q-228 0 -228 -206q0 -125 97 -177
q55 -30 131 -30h332z" />
    <glyph glyph-name="acircumflex" unicode="&#xe2;" 
d="M748 1264l-21 -21l-211 203l-211 -203l-21 21l232 224zM826 -13h-362q-78 0 -145 32q-113 59 -113 202q0 144 109 202q61 34 149 34h332v160q0 138 -102 204q-73 49 -178 49h-221v29h221q111 0 194 -53q116 -74 116 -229v-630zM796 14v413h-332q-228 0 -228 -206
q0 -125 97 -177q55 -30 131 -30h332z" />
    <glyph glyph-name="atilde" unicode="&#xe3;" 
d="M828 1382q-2 -5 -6 -12q-39 -58 -136 -58q-69 0 -167 77q-95 78 -141 78q-75 0 -144 -70l-22 20q71 80 166 80q57 0 152 -78q95 -77 156 -77q92 0 115 51zM826 -13h-362q-78 0 -145 32q-113 59 -113 202q0 144 109 202q61 34 149 34h332v160q0 138 -102 204
q-73 49 -178 49h-221v29h221q111 0 194 -53q116 -74 116 -229v-630zM796 14v413h-332q-228 0 -228 -206q0 -125 97 -177q55 -30 131 -30h332z" />
    <glyph glyph-name="adieresis" unicode="&#xe4;" 
d="M752 1254h-29v73h29v-73zM310 1254h-30v73h30v-73zM826 -13h-362q-78 0 -145 32q-113 59 -113 202q0 144 109 202q61 34 149 34h332v160q0 138 -102 204q-73 49 -178 49h-221v29h221q111 0 194 -53q116 -74 116 -229v-630zM796 14v413h-332q-228 0 -228 -206
q0 -125 97 -177q55 -30 131 -30h332z" />
    <glyph glyph-name="aring" unicode="&#xe5;" 
d="M704 1291q0 -83 -58 -141q-57 -57 -140 -57t-141 57q-57 58 -57 141t57 140q58 58 141 58t140 -58q58 -57 58 -140zM826 -13h-362q-78 0 -145 32q-113 59 -113 202q0 144 109 202q61 34 149 34h332v160q0 138 -102 204q-73 49 -178 49h-221v29h221q111 0 194 -53
q116 -74 116 -229v-630zM675 1291q0 69 -50 119t-119 50q-70 0 -120 -50q-49 -49 -49 -119q0 -71 49 -120t120 -49q70 0 119 49q50 50 50 120zM796 14v413h-332q-228 0 -228 -206q0 -125 97 -177q55 -30 131 -30h332z" />
    <glyph glyph-name="ae" unicode="&#xe6;" horiz-adv-x="1327" 
d="M1120 427h-441v-132q0 -169 67 -230q55 -51 190 -51h170v-27h-170q-203 0 -257 125v-125h-215q-78 0 -145 32q-113 59 -113 202q0 144 109 202q61 34 149 34h185v160q0 138 -102 204q-73 49 -178 49h-74v29h74q86 0 162 -35q99 -47 132 -146q46 181 222 181
q235 0 235 -310v-162zM1091 457v132q0 281 -206 281t-206 -281v-132h412zM649 14v413h-185q-228 0 -228 -206q0 -125 97 -177q55 -30 131 -30h185z" />
    <glyph glyph-name="ccedilla" unicode="&#xe7;" horiz-adv-x="885" 
d="M663 -13h-184h-14q-8 0 -11 1l-71 -286l-28 7l70 283q-96 18 -158 93q-61 76 -61 173v368q0 114 79 193q80 80 194 80h184v-29h-184q-102 0 -173 -71q-70 -70 -70 -173v-368q0 -103 70 -173q71 -71 173 -71h184v-27z" />
    <glyph glyph-name="egrave" unicode="&#xe8;" 
d="M672 1265l-18 -23l-294 220l17 25zM826 427h-590v-132q0 -169 67 -230q55 -51 191 -51h317v-27h-317q-147 0 -211 57q-77 69 -77 251v294q0 129 90 219q91 91 220 91t219 -91q91 -90 91 -219v-162zM796 457v132q0 117 -82 199q-81 82 -198 82t-199 -82q-81 -83 -81 -199
v-132h560z" />
    <glyph glyph-name="eacute" unicode="&#xe9;" 
d="M672 1462l-295 -220l-17 23l294 222zM826 427h-590v-132q0 -169 67 -230q55 -51 191 -51h317v-27h-317q-147 0 -211 57q-77 69 -77 251v294q0 129 90 219q91 91 220 91t219 -91q91 -90 91 -219v-162zM796 457v132q0 117 -82 199q-81 82 -198 82t-199 -82
q-81 -83 -81 -199v-132h560z" />
    <glyph glyph-name="ecircumflex" unicode="&#xea;" 
d="M748 1264l-21 -21l-211 203l-211 -203l-21 21l232 224zM826 427h-590v-132q0 -169 67 -230q55 -51 191 -51h317v-27h-317q-147 0 -211 57q-77 69 -77 251v294q0 129 90 219q91 91 220 91t219 -91q91 -90 91 -219v-162zM796 457v132q0 117 -82 199q-81 82 -198 82
t-199 -82q-81 -83 -81 -199v-132h560z" />
    <glyph glyph-name="edieresis" unicode="&#xeb;" 
d="M752 1254h-29v73h29v-73zM310 1254h-30v73h30v-73zM826 427h-590v-132q0 -169 67 -230q55 -51 191 -51h317v-27h-317q-147 0 -211 57q-77 69 -77 251v294q0 129 90 219q91 91 220 91t219 -91q91 -90 91 -219v-162zM796 457v132q0 117 -82 199q-81 82 -198 82t-199 -82
q-81 -83 -81 -199v-132h560z" />
    <glyph glyph-name="igrave" unicode="&#xec;" horiz-adv-x="442" 
d="M377 1265l-17 -23l-295 220l18 25zM236 0h-30v885h30v-885z" />
    <glyph glyph-name="iacute" unicode="&#xed;" horiz-adv-x="442" 
d="M377 1462l-294 -220l-18 23l295 222zM236 0h-30v885h30v-885z" />
    <glyph glyph-name="icircumflex" unicode="&#xee;" horiz-adv-x="442" 
d="M453 1264l-21 -21l-211 203l-211 -203l-19 21l230 224zM236 0h-30v885h30v-885z" />
    <glyph glyph-name="idieresis" unicode="&#xef;" horiz-adv-x="442" 
d="M457 1254h-30v73h30v-73zM14 1254h-27v73h27v-73zM236 0h-30v885h30v-885z" />
    <glyph glyph-name="ntilde" unicode="&#xf1;" 
d="M828 1382q-2 -5 -6 -12q-39 -58 -136 -58q-69 0 -167 77q-95 78 -141 78q-75 0 -144 -70l-22 20q71 80 166 80q57 0 152 -78q95 -77 156 -77q92 0 115 51zM826 0h-30v626q0 102 -71 173t-172 71h-317v-870h-30v899h347q113 0 193 -80t80 -193v-626z" />
    <glyph glyph-name="ograve" unicode="&#xf2;" 
d="M672 1265l-18 -23l-294 220l17 25zM826 295q0 -129 -91 -219q-92 -89 -219 -89q-128 0 -220 89q-90 90 -90 219v294q0 129 90 219q91 91 220 91t219 -91q91 -90 91 -219v-294zM796 295v294q0 117 -82 199q-81 82 -198 82t-199 -82q-81 -83 -81 -199v-294q0 -117 81 -199
q82 -82 199 -82t198 82q82 82 82 199z" />
    <glyph glyph-name="oacute" unicode="&#xf3;" 
d="M672 1462l-295 -220l-17 23l294 222zM826 295q0 -129 -91 -219q-92 -89 -219 -89q-128 0 -220 89q-90 90 -90 219v294q0 129 90 219q91 91 220 91t219 -91q91 -90 91 -219v-294zM796 295v294q0 117 -82 199q-81 82 -198 82t-199 -82q-81 -83 -81 -199v-294
q0 -117 81 -199q82 -82 199 -82t198 82q82 82 82 199z" />
    <glyph glyph-name="ocircumflex" unicode="&#xf4;" 
d="M748 1264l-21 -21l-211 203l-211 -203l-21 21l232 224zM826 295q0 -129 -91 -219q-92 -89 -219 -89q-128 0 -220 89q-90 90 -90 219v294q0 129 90 219q91 91 220 91t219 -91q91 -90 91 -219v-294zM796 295v294q0 117 -82 199q-81 82 -198 82t-199 -82q-81 -83 -81 -199
v-294q0 -117 81 -199q82 -82 199 -82t198 82q82 82 82 199z" />
    <glyph glyph-name="otilde" unicode="&#xf5;" 
d="M828 1382q-2 -5 -6 -12q-39 -58 -136 -58q-69 0 -167 77q-95 78 -141 78q-75 0 -144 -70l-22 20q71 80 166 80q57 0 152 -78q95 -77 156 -77q92 0 115 51zM826 295q0 -129 -91 -219q-92 -89 -219 -89q-128 0 -220 89q-90 90 -90 219v294q0 129 90 219q91 91 220 91
t219 -91q91 -90 91 -219v-294zM796 295v294q0 117 -82 199q-81 82 -198 82t-199 -82q-81 -83 -81 -199v-294q0 -117 81 -199q82 -82 199 -82t198 82q82 82 82 199z" />
    <glyph glyph-name="odieresis" unicode="&#xf6;" 
d="M752 1254h-29v73h29v-73zM310 1254h-30v73h30v-73zM826 295q0 -129 -91 -219q-92 -89 -219 -89q-128 0 -220 89q-90 90 -90 219v294q0 129 90 219q91 91 220 91t219 -91q91 -90 91 -219v-294zM796 295v294q0 117 -82 199q-81 82 -198 82t-199 -82q-81 -83 -81 -199v-294
q0 -117 81 -199q82 -82 199 -82t198 82q82 82 82 199z" />
    <glyph glyph-name="divide" unicode="&#xf7;" 
d="M531 737h-30v74h30v-74zM811 427h-590v30h590v-30zM531 74h-30v74h30v-74z" />
    <glyph glyph-name="oslash" unicode="&#xf8;" 
d="M850 898l-87 -122q63 -80 63 -187v-294q0 -129 -91 -219q-92 -89 -219 -89q-128 0 -220 89q-10 9 -18 19l-87 -121l-24 17l92 129q-53 76 -53 175v294q0 129 90 219q91 91 220 91t219 -91l8 -9l83 117zM796 295v294q0 92 -51 162l-450 -631q10 -13 22 -24q82 -82 199 -82
t198 82q82 82 82 199zM714 788q-81 82 -198 82t-199 -82q-81 -83 -81 -199v-294q0 -84 41 -150l449 630q-6 7 -12 13z" />
    <glyph glyph-name="ugrave" unicode="&#xf9;" 
d="M672 1265l-18 -23l-294 220l17 25zM826 -13h-347q-115 0 -194 78q-79 79 -79 193v627h30v-627q0 -103 70 -173q71 -71 173 -71h317v871h30v-898z" />
    <glyph glyph-name="uacute" unicode="&#xfa;" 
d="M672 1462l-295 -220l-17 23l294 222zM826 -13h-347q-115 0 -194 78q-79 79 -79 193v627h30v-627q0 -103 70 -173q71 -71 173 -71h317v871h30v-898z" />
    <glyph glyph-name="ucircumflex" unicode="&#xfb;" 
d="M748 1264l-21 -21l-211 203l-211 -203l-21 21l232 224zM826 -13h-347q-115 0 -194 78q-79 79 -79 193v627h30v-627q0 -103 70 -173q71 -71 173 -71h317v871h30v-898z" />
    <glyph glyph-name="udieresis" unicode="&#xfc;" 
d="M752 1254h-29v73h29v-73zM310 1254h-30v73h30v-73zM826 -13h-347q-115 0 -194 78q-79 79 -79 193v627h30v-627q0 -103 70 -173q71 -71 173 -71h317v871h30v-898z" />
    <glyph glyph-name="ydieresis" unicode="&#xff;" 
d="M752 1254h-29v73h29v-73zM310 1254h-30v73h30v-73zM825 880l-446 -1336h-158v30h137l142 426l-293 880l28 9l281 -842l281 842z" />
    <glyph glyph-name="mu" unicode="&#x3bc;" horiz-adv-x="1253" 
d="M900 885v-627v-11v-100q0 -27 10.5 -51t28.5 -42t42 -28.5t51 -10.5v-30q-32 0 -60.5 11.5t-50 32t-35 47.5t-16.5 59q-34 -67 -99 -108.5t-145 -41.5h-147q-40 0 -76.5 11t-68 30.5t-56.5 47t-42 60.5v-576h-30v1327h30v-627q0 -50 19 -94.5t52 -77.5t77.5 -52t94.5 -19
h147q49 0 92.5 18t76.5 49.5t53 74t22 91.5v637h30z" />
    <glyph glyph-name="hyphen" unicode="-" 
d="M811 427h-590v30h590v-30z" />
    <glyph glyph-name="numbersign" unicode="#" horiz-adv-x="1327" 
d="M1106 427h-207v-427h-29v427h-413v-427h-30v427h-206v30h206v413h-206v29h206v428h30v-428h413v428h29v-428h207v-29h-207v-413h207v-30zM870 457v413h-413v-413h413z" />
    <glyph glyph-name="exclam" unicode="!" horiz-adv-x="442" 
d="M236 443h-30v884h30v-884zM236 0h-30v74h30v-74z" />
    <glyph glyph-name="quotedbl" unicode="&#x22;" horiz-adv-x="885" 
d="M678 1324l-74 -295l-29 7l74 295zM310 1324l-74 -295l-29 7l74 295z" />
    <glyph glyph-name="approxequal" unicode="&#x2248;" 
d="M209 378q29 38 70.5 58.5t89.5 20.5q47 0 88.5 -20.5t70.5 -58.5q24 -32 59.5 -49.5t75.5 -17.5q41 0 76.5 17.5t59.5 49.5l24 -18q-29 -38 -70.5 -58.5t-89.5 -20.5q-47 0 -88.5 20.5t-70.5 58.5q-24 32 -59.5 49.5t-75.5 17.5q-41 0 -76.5 -17.5t-59.5 -49.5zM209 525
q29 38 70.5 58.5t89.5 20.5q47 0 88.5 -20.5t70.5 -58.5q24 -32 59.5 -49.5t75.5 -17.5q41 0 76.5 17.5t59.5 49.5l24 -18q-29 -38 -70.5 -58.5t-89.5 -20.5q-47 0 -88.5 20.5t-70.5 58.5q-24 32 -59.5 49.5t-75.5 17.5q-41 0 -76.5 -17.5t-59.5 -49.5z" />
    <glyph glyph-name="uni0020" unicode=" " horiz-adv-x="590" 
 />
    <glyph glyph-name="softhyphen" unicode="&#xad;" horiz-adv-x="590" 
d="M589 649h-589v30h589v-30z" />
    <glyph glyph-name="emptyset" unicode="&#x2205;" horiz-adv-x="1327" 
d="M1120 664q0 -192 -133 -325t-324 -133q-69 0 -130 19l-77 -228l-28 7l77 231q-137 50 -218 167q-81 118 -81 262q0 191 133 324q134 134 324 134q72 0 132 -19l75 229l29 -10l-76 -228q135 -50 216 -168q81 -117 81 -262zM1091 664q0 135 -76 244q-74 111 -201 158
l-271 -812q61 -18 120 -18q178 0 303 125t125 303zM786 1075q-62 18 -123 18q-178 0 -303 -125q-124 -124 -124 -304q0 -135 76 -244q76 -110 203 -157z" />
    <glyph glyph-name="brokenbar" unicode="&#xa6;" horiz-adv-x="442" 
d="M236 774h-30v553h30v-553zM236 0h-30v553h30v-553z" />
    <glyph glyph-name="twosuperior" unicode="&#xb2;" horiz-adv-x="885" 
d="M675 1552q0 -62 -32 -112q-18 -27 -77 -86l-309 -307h407v-30h-479q91 85 190.5 185t211.5 215q58 58 58 135q0 79 -66 138q-65 60 -145 60q-118 0 -200 -129l-25 15q35 61 96 101q62 41 129 41q93 0 166 -67q75 -68 75 -159z" />
    <glyph glyph-name="threesuperior" unicode="&#xb3;" horiz-adv-x="737" 
d="M526 1254q0 -99 -69 -168q-68 -69 -167 -69h-70v30h70q86 0 146 60q60 61 60 147q0 87 -60 146q-59 60 -146 60h-35v29h28q58 0 98 40q41 41 41 98q0 28 -11 51t-29.5 39t-44 24.5t-54.5 8.5h-67v28h67q69 0 119 -41t50 -110q0 -102 -91 -148q73 -22 119 -85
q46 -61 46 -140z" />
    <glyph glyph-name="onesuperior" unicode="&#xb9;" horiz-adv-x="664" 
d="M457 1032h-30v689l-194 -256l-23 18l247 324v-775z" />
    <glyph glyph-name="onequarter" unicode="&#xbc;" horiz-adv-x="1622" 
d="M457 737h-30v693l-194 -259l-23 18l247 330v-782zM1119 1320l-737 -1326l-27 13l738 1328zM1400 59h-132v-206h-30v206h-376l231 537l27 -12l-213 -496h331v133h30v-133h132v-29z" />
    <glyph glyph-name="onehalf" unicode="&#xbd;" horiz-adv-x="1622" 
d="M457 737h-30v693l-194 -259l-23 18l247 330v-782zM1119 1320l-737 -1326l-27 13l738 1328zM1400 -161h-478l395 378q61 58 61 152q0 89 -55 147q-54 59 -143 59q-102 0 -160 -58q-37 -35 -47 -78l-29 6q12 49 55 92q71 68 181 68q102 0 164 -66q63 -65 63 -167
q0 -109 -70 -176l-342 -327h405v-30z" />
    <glyph glyph-name="threequarters" unicode="&#xbe;" horiz-adv-x="1475" 
d="M531 958q0 -100 -69 -167q-68 -68 -167 -68h-74v29h74q87 0 146 59q60 60 60 147q0 86 -60 146q-60 61 -146 61h-37v29h37q55 0 93 39q39 39 39 94q0 57 -45 95q-47 38 -104 38h-57v29h57q73 0 125 -46q54 -47 54 -116q0 -99 -88 -144q73 -24 117 -86q45 -62 45 -139z
M971 1320l-737 -1326l-26 13l738 1328zM1254 59h-134v-206h-29v206h-376l230 537l27 -12l-212 -496h331v133h29v-133h134v-29z" />
    <glyph glyph-name="Eth" unicode="&#xd0;" horiz-adv-x="1180" 
d="M973 406q0 -190 -150 -314q-128 -105 -270 -105h-347v662h-58v30h58v663h347q143 0 270 -106q150 -125 150 -314v-516zM944 406v516q0 176 -139 291q-120 99 -252 99h-317v-633h317v-30h-317v-635h317q134 0 252 100q139 115 139 292z" />
    <glyph glyph-name="multiply" unicode="&#xd7;" horiz-adv-x="1806" 
d="M1596 11l-21 -21l-671 653l-673 -653l-20 21l671 652l-671 654l20 20l673 -653l671 653l21 -20l-672 -654z" />
    <glyph glyph-name="Yacute" unicode="&#xdd;" horiz-adv-x="1364" 
d="M820 1903l-295 -223l-17 24l294 223zM1151 1318l-456 -659v-659h-30v659l-456 659l24 18l447 -647l447 647z" />
    <glyph glyph-name="Thorn" unicode="&#xde;" horiz-adv-x="1217" 
d="M1012 683q0 -185 -137 -313q-136 -127 -322 -127t-317 113v-356h-30v1327h30v-317q127 112 317 112q187 0 321 -126q138 -128 138 -313zM984 683q0 173 -130 293q-128 117 -301 117q-199 0 -317 -124v-572q124 -124 317 -124q175 0 302 118q129 118 129 292z" />
    <glyph glyph-name="eth" unicode="&#xf0;" 
d="M826 295q0 -129 -91 -219q-92 -89 -219 -89q-128 0 -220 89q-90 90 -90 219v294q0 129 90 219q91 91 220 91q175 0 265 -148q-48 285 -236 506l-46 -50l-21 20l48 52q-11 11 -21 20.5t-18 16.5l18 22q8 -7 18.5 -16t21.5 -22l34 37l21 -20l-35 -38q244 -280 258 -652
q3 -26 3 -38v-294zM796 295v294q0 117 -82 199q-81 82 -198 82t-199 -82q-81 -83 -81 -199v-294q0 -117 81 -199q82 -82 199 -82t198 82q82 82 82 199z" />
    <glyph glyph-name="yacute" unicode="&#xfd;" 
d="M672 1462l-295 -220l-17 23l294 222zM825 880l-446 -1336h-158v30h137l142 426l-293 880l28 9l281 -842l281 842z" />
    <glyph glyph-name="thorn" unicode="&#xfe;" horiz-adv-x="922" 
d="M737 663q0 -152 -106 -237q-89 -72 -205 -72q-105 0 -190 64v-418h-30v1327h30v-418q85 64 190 64q116 0 205 -72q106 -85 106 -238zM707 663q0 137 -95 215q-80 66 -186 66q-111 0 -190 -73v-415q79 -73 190 -73q106 0 186 65q95 78 95 215z" />
    <glyph glyph-name="euro" unicode="&#x20ac;" horiz-adv-x="1187" 
d="M70 645h53v123q0 27 3 53h-56v33h61q31 180 171 299q141 120 326 120q210 0 358 -148l-24 -23q-138 138 -334 138q-171 0 -302 -110t-162 -276h639v-33h-644q-3 -26 -3 -53v-123h542v-33h-542q8 -190 144 -323t328 -133q196 0 334 139l24 -24q-148 -148 -358 -148
q-202 0 -351 143q-147 144 -154 346h-53v33z" />
    <glyph glyph-name="Ccaron" unicode="&#x10c;" 
d="M284 1904l20 22l212 -204l210 204l21 -22l-231 -223zM811 -13h-222q-182 0 -282 100q-101 101 -101 282v589q0 181 101 282q102 102 282 102h222v-30h-222q-170 0 -261.5 -91.5t-91.5 -262.5v-589q0 -84 23.5 -150t69 -111.5t111 -69.5t149.5 -24h222v-27z" />
    <glyph glyph-name="ccaron" unicode="&#x10d;" horiz-adv-x="885" 
d="M212 1461l20 22l212 -204l210 204l21 -22l-231 -223zM663 -13h-184q-115 0 -194 78q-79 79 -79 193v368q0 114 79 193q80 80 194 80h184v-29h-184q-102 0 -173 -71q-70 -70 -70 -173v-368q0 -103 70 -173q71 -71 173 -71h184v-27z" />
    <glyph glyph-name="Dcaron" unicode="&#x10e;" horiz-adv-x="1180" 
d="M360 1906l20 22l212 -204l210 204l21 -22l-231 -223zM973 406q0 -190 -150 -314q-128 -105 -270 -105h-347v1355h347q143 0 270 -106q150 -125 150 -314v-516zM944 406v516q0 176 -139 291q-120 99 -252 99h-317v-1298h317q134 0 252 100q139 115 139 292z" />
    <glyph glyph-name="dcaron" unicode="&#x10f;" horiz-adv-x="1327" 
d="M826 -13h-347q-115 0 -194 78q-79 79 -79 193v368q0 114 79 193q80 80 194 80h317v428h30v-1340zM796 14v856h-317q-102 0 -173 -71q-70 -70 -70 -173v-368q0 -103 70 -173q71 -71 173 -71h317zM1121 1324l-74 -295l-29 7l74 295z" />
    <glyph glyph-name="Ecaron" unicode="&#x11a;" 
d="M285 1906l20 22l212 -204l210 204l21 -22l-231 -223zM811 -13h-605v1355h605v-30h-575v-560h427v-29h-427v-709h575v-27z" />
    <glyph glyph-name="ecaron" unicode="&#x11b;" 
d="M286 1465l20 22l212 -204l210 204l21 -22l-231 -223zM826 427h-590v-132q0 -169 67 -230q55 -51 191 -51h317v-27h-317q-147 0 -211 57q-77 69 -77 251v294q0 129 90 219q91 91 220 91t219 -91q91 -90 91 -219v-162zM796 457v132q0 117 -82 199q-81 82 -198 82t-199 -82
q-81 -83 -81 -199v-132h560z" />
    <glyph glyph-name="Lacute" unicode="&#x139;" 
d="M377 1904l-294 -223l-18 24l294 223zM811 -13h-605v1340h30v-1313h575v-27z" />
    <glyph glyph-name="lacute" unicode="&#x13a;" horiz-adv-x="590" 
d="M377 1905l-294 -223l-18 24l294 223zM369 -13q-66 0 -116 47q-47 47 -47 114v1179h30v-1179q0 -55 39 -95q39 -39 94 -39v-27z" />
    <glyph glyph-name="Lcaron" unicode="&#x13d;" 
d="M11 1928l210 -210q52 53 105 105t105 105l22 -22l-232 -233l-232 233zM811 -13h-605v1340h30v-1313h575v-27z" />
    <glyph glyph-name="lcaron" unicode="&#x13e;" horiz-adv-x="590" 
d="M11 1928l210 -210q52 53 105 105t105 105l22 -22l-232 -233l-232 233zM369 -13q-66 0 -116 47q-47 47 -47 114v1179h30v-1179q0 -55 39 -95q39 -39 94 -39v-27z" />
    <glyph glyph-name="Ncaron" unicode="&#x147;" horiz-adv-x="1180" 
d="M363 1903l20 22l212 -204l210 204l21 -22l-231 -223zM973 0h-32l-705 1270v-1270h-30v1327h32l706 -1270v1270h29v-1327z" />
    <glyph glyph-name="ncaron" unicode="&#x148;" 
d="M286 1471l20 22l212 -204l210 204l21 -22l-231 -223zM826 0h-30v626q0 102 -71 173t-172 71h-317v-870h-30v899h347q113 0 193 -80t80 -193v-626z" />
    <glyph glyph-name="Racute" unicode="&#x154;" horiz-adv-x="1180" 
d="M747 1905l-294 -223l-18 24l294 223zM973 958q0 -311 -287 -371l286 -581l-27 -11l-289 586q-41 -6 -85 -6h-335v-575h-30v1342h365q153 0 257 -71q145 -99 145 -313zM944 958q0 198 -132 288q-96 66 -241 66h-335v-707h335q147 0 241 64q132 88 132 289z" />
    <glyph glyph-name="racute" unicode="&#x155;" horiz-adv-x="885" 
d="M598 1461l-294 -223l-18 24l294 223zM679 737h-30v133h-413v-870h-30v899h473v-162z" />
    <glyph glyph-name="Rcaron" unicode="&#x158;" horiz-adv-x="1180" 
d="M356 1903l20 22l212 -204l210 204l21 -22l-231 -223zM973 958q0 -311 -287 -371l286 -581l-27 -11l-289 586q-41 -6 -85 -6h-335v-575h-30v1342h365q153 0 257 -71q145 -99 145 -313zM944 958q0 198 -132 288q-96 66 -241 66h-335v-707h335q147 0 241 64q132 88 132 289z
" />
    <glyph glyph-name="rcaron" unicode="&#x159;" horiz-adv-x="885" 
d="M213 1470l20 22l212 -204l210 204l21 -22l-231 -223zM679 737h-30v133h-413v-870h-30v899h473v-162z" />
    <glyph glyph-name="Scaron" unicode="&#x160;" horiz-adv-x="1180" 
d="M352 1903l20 22l212 -204l210 204l21 -22l-231 -223zM973 292q0 -110 -77 -202q-88 -103 -233 -103q-109 0 -235 42q-122 42 -216 107l17 23q324 -145 434 -145q128 0 211 95q70 82 70 183q0 112 -78 189q-52 52 -172 112l-222 111q-72 36 -153 87q-113 95 -113 241
q0 114 75 203q92 107 250 107q210 0 362 -89l-16 -25q-245 84 -346 84q-145 0 -227 -96q-68 -80 -68 -184q0 -181 184 -272q19 -9 66 -30q82 -39 288 -144q199 -106 199 -294z" />
    <glyph glyph-name="scaron" unicode="&#x161;" horiz-adv-x="1036" 
d="M286 1467l20 22l212 -204l210 204l21 -22l-231 -223zM826 184q0 -197 -310 -197q-131 0 -301 73l12 27q176 -73 289 -73q280 0 280 170q0 85 -76 140q-22 16 -148 77l-217 105q-149 72 -149 194q0 199 237 199q144 0 284 -75l-13 -26q-209 72 -271 72q-207 0 -207 -170
q0 -84 76 -136q27 -17 148 -75q72 -34 145 -72t148 -80q73 -58 73 -153z" />
    <glyph glyph-name="Tcaron" unicode="&#x164;" horiz-adv-x="1180" 
d="M356 1903l20 22l212 -204l210 204l21 -22l-231 -223zM958 1312h-353v-1312h-30v1312h-354v30h737v-30z" />
    <glyph glyph-name="tcaron" unicode="&#x165;" horiz-adv-x="885" 
d="M663 870h-280v-870h-29v870h-133v29h133v428h29v-428h280v-29zM603 1324l-74 -295l-29 7l74 295z" />
    <glyph glyph-name="Uring" unicode="&#x16e;" horiz-adv-x="1180" 
d="M788 1770q0 -83 -58 -141t-141 -58t-141 58t-58 141t58 141t141 58t141 -58t58 -141zM759 1770q0 69 -50 119t-120 50t-120 -50q-49 -49 -49 -119q0 -71 49 -120t120 -49t120 49q50 50 50 120zM973 369q0 -160 -112 -271q-113 -111 -272 -111q-160 0 -272 111
q-111 111 -111 271v958h30v-958q0 -149 103 -252t250 -103q148 0 251 103q104 104 104 252v958h29v-958z" />
    <glyph glyph-name="uring" unicode="&#x16f;" 
d="M715 1291q0 -83 -58 -141t-141 -58t-141 58t-58 141t58 141t141 58t141 -58t58 -141zM686 1291q0 69 -50 119t-120 50t-120 -50q-49 -49 -49 -119q0 -71 49 -120t120 -49t120 49q50 50 50 120zM826 -13h-347q-115 0 -194 78q-79 79 -79 193v627h30v-627q0 -103 70 -173
q71 -71 173 -71h317v871h30v-898z" />
    <glyph glyph-name="Zcaron" unicode="&#x17d;" horiz-adv-x="1180" 
d="M359 1906l20 22l212 -204l210 204l21 -22l-231 -223zM984 1342l-737 -1328h711v-27h-762l737 1325h-712v30h763z" />
    <glyph glyph-name="zcaron" unicode="&#x17e;" 
d="M285 1462l20 22l212 -204l210 204l21 -22l-231 -223zM839 899l-591 -885h563v-27h-618l591 883h-563v29h618z" />
    <glyph glyph-name="Delta" unicode="&#x394;" horiz-adv-x="1327" 
d="M200 -15l444 1334h37l446 -1334h-927zM242 15h843q-54 162 -106.5 319t-104.5 312.5t-104.5 312.5t-106.5 320z" />
    <glyph glyph-name="Omega" unicode="&#x3a9;" horiz-adv-x="1327" 
d="M221 15h206v347q-82 73 -139 168.5t-82 203.5v151q0 94 36 177.5t98 145.5t145 98t178 36t178.5 -36t145.5 -98t98 -145.5t36 -177.5v-151q-25 -108 -82 -203.5t-139 -168.5v-347h206v-30h-236v391q81 72 138 167t83 197v145q0 88 -33.5 166t-91.5 136t-136 91.5
t-167 33.5t-166.5 -33.5t-135.5 -91.5t-91.5 -136t-33.5 -166v-145q25 -104 81.5 -198t139.5 -166v-391h-236v30z" />
    <glyph glyph-name="angle" unicode="&#x2220;" horiz-adv-x="2579" 
d="M2358 -15h-2143l-6 25l2142 1109l14 -26l-2082 -1078h2075v-30z" />
    <glyph glyph-name="equivalence" unicode="&#x2261;" 
d="M221 236h590v-30h-590v30zM811 648h-590v30h590v-30zM221 457h590v-30h-590v30z" />
    <glyph glyph-name="numero" unicode="&#x2116;" horiz-adv-x="1732" 
d="M1496 590v-111q0 -43 -16 -80.5t-44 -65.5t-65.5 -44t-80.5 -16t-80.5 16t-65.5 44t-44 65.5t-16 80.5v111q0 43 16 80.5t44 65.5t65.5 44t80.5 16t80.5 -16t65.5 -44t44 -65.5t16 -80.5zM1526 590q0 49 -18.5 92t-50.5 75t-75 50.5t-92 18.5t-92 -18.5t-75 -50.5
t-50.5 -75t-18.5 -92v-111q0 -49 18.5 -92t50.5 -75t75 -50.5t92 -18.5t92 18.5t75 50.5t50.5 75t18.5 92v111zM1069 169h442v30h-442v-30zM973 0h-32l-705 1270v-1270h-30v1327h32l706 -1270v1270h29v-1327z" />
    <glyph glyph-name="uni24C5" unicode="&#x24c5;" horiz-adv-x="2506" 
d="M59 663q0 155 40 298t113 267.5t175.5 227t226.5 175.5t267 113t298 40t298 -40t267.5 -113t227 -175.5t175.5 -227t113 -267.5t40 -298q0 -154 -40 -297.5t-113 -267.5t-175.5 -226.5t-227 -175.5t-267.5 -113t-298 -40q-154 0 -297.5 40t-267.5 113t-226.5 175.5
t-175.5 226.5t-113 267t-40 298zM89 663q0 -150 39 -289.5t110 -260.5t170.5 -220.5t220.5 -170.5t260 -110t290 -39t290.5 39t260.5 110t220.5 170.5t170.5 220.5t110 260t39 290t-39 290.5t-110 260.5t-170.5 220.5t-220.5 170.5t-260.5 110t-290.5 39q-150 0 -289.5 -39
t-260.5 -110t-220.5 -170.5t-170.5 -220.5t-110 -260.5t-39 -290.5zM1634 958q0 -217 -145 -314q-102 -69 -257 -69h-335v-575h-30v1342h365q153 0 257 -71q145 -99 145 -313zM1605 958q0 198 -132 288q-96 66 -241 66h-335v-707h335q147 0 241 64q132 88 132 289z" />
    <glyph glyph-name="uni24C2" unicode="&#x24c2;" horiz-adv-x="2506" 
d="M96 663q0 155 40 298t113 267.5t175.5 227t227 175.5t267.5 113t298 40q154 0 297.5 -40t267.5 -113t226.5 -175.5t175.5 -227t113 -267.5t40 -298q0 -154 -40 -297.5t-113 -267.5t-175.5 -226.5t-226.5 -175.5t-267.5 -113t-297.5 -40q-155 0 -298 40t-267.5 113
t-227 175.5t-175.5 226.5t-113 267t-40 298zM126 663q0 -150 39 -289.5t110 -260.5t170.5 -220.5t220.5 -170.5t260.5 -110t290.5 -39q150 0 289.5 39t260.5 110t220.5 170.5t170.5 220.5t110 260t39 290t-39 290.5t-110 260.5t-170.5 220.5t-220.5 170.5t-260.5 110
t-289.5 39q-151 0 -290.5 -39t-260.5 -110t-220.5 -170.5t-170.5 -220.5t-110 -260.5t-39 -290.5zM1710 0h-29v1273l-428 -711l-427 711v-1273h-30v1327h32l425 -709l426 709h31v-1327z" />
    <glyph glyph-name="uni24BA" unicode="&#x24ba;" horiz-adv-x="2506" 
d="M96 663q0 155 40 298t113 267.5t175.5 227t227 175.5t267.5 113t298 40q154 0 297.5 -40t267.5 -113t226.5 -175.5t175.5 -227t113 -267.5t40 -298q0 -154 -40 -297.5t-113 -267.5t-175.5 -226.5t-226.5 -175.5t-267.5 -113t-297.5 -40q-155 0 -298 40t-267.5 113
t-227 175.5t-175.5 226.5t-113 267t-40 298zM126 663q0 -150 39 -289.5t110 -260.5t170.5 -220.5t220.5 -170.5t260.5 -110t290.5 -39q150 0 289.5 39t260.5 110t220.5 170.5t170.5 220.5t110 260t39 290t-39 290.5t-110 260.5t-170.5 220.5t-220.5 170.5t-260.5 110
t-289.5 39q-151 0 -290.5 -39t-260.5 -110t-220.5 -170.5t-170.5 -220.5t-110 -260.5t-39 -290.5zM1549 -13h-605v1355h605v-30h-575v-560h427v-29h-427v-709h575v-27z" />
    <glyph glyph-name="zdotaccent" unicode="&#x17c;" 
d="M494 1268h7v7h-7v-7zM531 1305v-67h-67v67h67zM839 899l-591 -885h563v-27h-618l591 883h-563v29h618z" />
    <glyph glyph-name="Zdotaccent" unicode="&#x17b;" horiz-adv-x="1180" 
d="M568 1710h7v7h-7v-7zM605 1747v-67h-67v67h67zM984 1342l-737 -1328h711v-27h-762l737 1325h-712v30h763z" />
    <glyph glyph-name="zacute" unicode="&#x17a;" 
d="M672 1462l-294 -221l-18 24l294 221zM839 899l-591 -885h563v-27h-618l591 883h-563v29h618z" />
    <glyph glyph-name="Zacute" unicode="&#x179;" horiz-adv-x="1180" 
d="M433 1707l295 222l18 -24l-295 -222zM984 1342l-737 -1328h711v-27h-762l737 1325h-712v30h763z" />
    <glyph glyph-name="Ydieresis" unicode="&#x178;" horiz-adv-x="1326" 
d="M233 1335l430 -645l430 645l24 -16l-439 -659v-660h-30v660l-439 659zM899 1769v-73h-30v73h30zM427 1696v73h30v-73h-30z" />
    <glyph glyph-name="ycircumflex" unicode="&#x177;" 
d="M284 1264l232 232l232 -232l-22 -22l-210 210l-210 -210zM825 880l-446 -1336h-158v30h137l142 426l-293 880l28 9l281 -842l281 842z" />
    <glyph glyph-name="Ycircumflex" unicode="&#x176;" horiz-adv-x="1327" 
d="M233 1335l430 -645q108 162 215.5 322.5t215.5 322.5l24 -16l-440 -660v-659h-30v659l-439 660zM431 1706l232 233l233 -233l-22 -22l-211 211l-210 -211z" />
    <glyph glyph-name="wcircumflex" unicode="&#x175;" horiz-adv-x="1327" 
d="M431 1264l232 232l233 -232l-22 -22l-211 210l-210 -210zM1120 881l-220 -881h-32l-205 548l-205 -548h-31l-220 881l29 7l209 -839l218 583l219 -583l210 839z" />
    <glyph glyph-name="Wcircumflex" unicode="&#x174;" horiz-adv-x="1622" 
d="M579 1706l232 233l232 -233l-22 -22l-210 210q-52 -53 -105 -105t-105 -105zM1415 1324l-294 -1324h-30l-280 849l-280 -849h-31l-293 1324l29 6l283 -1274l292 887l292 -887l283 1274z" />
    <glyph glyph-name="uogonek" unicode="&#x173;" 
d="M464 -291l69 276h-54q-56 0 -106 21.5t-87 58.5t-58.5 87t-21.5 106v627h30v-627q0 -50 19 -94.5t52 -77.5t77.5 -52t94.5 -19h317v870h30v-900h-261l-71 -284z" />
    <glyph glyph-name="Uogonek" unicode="&#x172;" horiz-adv-x="1180" 
d="M501 -291l69 277q-76 4 -142.5 35t-115.5 83t-77.5 120t-28.5 145v958h30v-958q0 -74 27.5 -138.5t75.5 -112.5t112.5 -75.5t138.5 -27.5q73 0 137.5 27.5t112.5 75.5t75.5 112.5t27.5 138.5v958h30v-958q0 -78 -29 -147t-79.5 -120.5t-118 -82.5t-144.5 -33l-71 -285z
" />
    <glyph glyph-name="uhungarumlaut" unicode="&#x171;" 
d="M65 1265l295 221l18 -24l-295 -221zM654 1265l295 221l18 -24l-295 -221zM826 -13h-347q-115 0 -194 78q-79 79 -79 193v627h30v-627q0 -103 70 -173q71 -71 173 -71h317v871h30v-898z" />
    <glyph glyph-name="Uhungarumlaut" unicode="&#x170;" horiz-adv-x="1180" 
d="M282 1703l147 222l26 -16l-147 -222zM724 1703l148 222l26 -16l-148 -222zM973 369q0 -160 -112 -271q-113 -111 -272 -111q-160 0 -272 111q-111 111 -111 271v958h30v-958q0 -149 103 -252t250 -103q148 0 251 103q104 104 104 252v958h29v-958z" />
    <glyph glyph-name="ubreve" unicode="&#x16d;" 
d="M310 1548q0 -43 16 -80.5t44 -65.5t65.5 -44t80.5 -16t80.5 16t65.5 44t44 65.5t16 80.5h30q0 -49 -18.5 -92t-50.5 -75t-75 -50.5t-92 -18.5t-92 18.5t-75 50.5t-50.5 75t-18.5 92h30zM826 -13h-347q-115 0 -194 78q-79 79 -79 193v627h30v-627q0 -103 70 -173
q71 -71 173 -71h317v871h30v-898z" />
    <glyph glyph-name="Ubreve" unicode="&#x16c;" horiz-adv-x="1180" 
d="M384 1917q0 -43 16 -81t44 -66t65.5 -44t80.5 -16t80.5 16t65.5 44t44 66t16 81h30q0 -49 -18.5 -92t-50.5 -75.5t-75 -51t-92 -18.5t-92 18.5t-75 51t-50.5 75.5t-18.5 92h30zM973 369q0 -160 -112 -271q-113 -111 -272 -111q-160 0 -272 111q-111 111 -111 271v958h30
v-958q0 -149 103 -252t250 -103q148 0 251 103q104 104 104 252v958h29v-958z" />
    <glyph glyph-name="umacron" unicode="&#x16b;" 
d="M147 1342h738v-30h-738v30zM826 -13h-347q-115 0 -194 78q-79 79 -79 193v627h30v-627q0 -103 70 -173q71 -71 173 -71h317v871h30v-898z" />
    <glyph glyph-name="Umacron" unicode="&#x16a;" horiz-adv-x="1180" 
d="M221 1784h737v-30h-737v30zM973 369q0 -160 -112 -271q-113 -111 -272 -111q-160 0 -272 111q-111 111 -111 271v958h30v-958q0 -149 103 -252t250 -103q148 0 251 103q104 104 104 252v958h29v-958z" />
    <glyph glyph-name="utilde" unicode="&#x169;" 
d="M209 1336q29 38 70.5 58.5t89.5 20.5q47 0 88.5 -20.5t70.5 -58.5q24 -32 59.5 -49.5t75.5 -17.5q41 0 76.5 17.5t59.5 49.5l24 -18q-29 -38 -70.5 -58.5t-89.5 -20.5q-47 0 -88.5 20.5t-70.5 58.5q-24 32 -59.5 49.5t-75.5 17.5q-41 0 -76.5 -17.5t-59.5 -49.5zM826 -13
h-347q-115 0 -194 78q-79 79 -79 193v627h30v-627q0 -103 70 -173q71 -71 173 -71h317v871h30v-898z" />
    <glyph glyph-name="Utilde" unicode="&#x168;" horiz-adv-x="1180" 
d="M283 1852q29 38 70 58.5t89 20.5t89.5 -20.5t70.5 -58.5q24 -32 59 -49.5t76 -17.5t76.5 17.5t59.5 49.5l24 -18q-29 -38 -70.5 -58.5t-89.5 -20.5t-89 20.5t-70 58.5q-24 32 -59.5 49.5t-76.5 17.5t-76 -17.5t-59 -49.5zM973 369q0 -160 -112 -271q-113 -111 -272 -111
q-160 0 -272 111q-111 111 -111 271v958h30v-958q0 -149 103 -252t250 -103q148 0 251 103q104 104 104 252v958h29v-958z" />
    <glyph glyph-name="tbar" unicode="&#x167;" horiz-adv-x="885" 
d="M221 900h133v427h30v-427h279v-30h-279v-477l125 62l14 -26l-139 -69v-360h-30v345l-126 -63l-14 26l140 70v492h-133v30z" />
    <glyph glyph-name="Tbar" unicode="&#x166;" horiz-adv-x="1180" 
d="M575 0v633l-271 -203l-18 24l289 217v641h-354v30h737v-30h-353v-619l271 204l18 -24l-289 -217v-656h-30z" />
    <glyph glyph-name="tcommaaccent" unicode="&#x163;" horiz-adv-x="885" 
d="M221 900h133v427h30v-427h279v-30h-279v-872l-75 -224l-28 10l73 218v868h-133v30z" />
    <glyph glyph-name="Tcommaaccent" unicode="&#x162;" horiz-adv-x="1180" 
d="M221 1342h737v-30h-353v-1314l-75 -224l-28 10l73 218v1310h-354v30z" />
    <glyph glyph-name="scedilla" unicode="&#x15f;" horiz-adv-x="1036" 
d="M731 797q-157 67 -326 73q-29 1 -55.5 -6.5t-49 -23.5t-38.5 -38.5t-24 -49.5q-3 -11 -5 -23.5t-2 -24.5q0 -43 21.5 -81t61.5 -61l-1 1l405 -196q52 -26 81.5 -74.5t29.5 -104.5q0 -13 -1.5 -23.5t-3.5 -21.5q-8 -33 -26 -61t-43.5 -48.5t-57 -32t-65.5 -12.5
q-18 -2 -38 -3t-39 -1q-48 0 -96 6l-72 -286l-30 8l71 283q-110 18 -210 68l14 26q75 -38 156.5 -56.5t166.5 -18.5q18 0 36 1t37 3q30 0 57 10t49 27.5t37.5 41.5t22.5 53v-1q2 11 3.5 20t1.5 18q0 48 -25 89t-70 64v-1l-406 195q-46 26 -71.5 71.5t-25.5 97.5q0 26 9 56
q10 31 29.5 57t45.5 45t57.5 29t64.5 9q88 -3 172 -21.5t164 -53.5z" />
    <glyph glyph-name="Scedilla" unicode="&#x15e;" horiz-adv-x="1180" 
d="M879 1239q-88 36 -179 54t-184 19q-48 0 -92.5 -16.5t-80.5 -45t-61.5 -68t-37.5 -87.5v1q-4 -17 -6 -33t-2 -32q0 -38 11.5 -74.5t32.5 -69.5t49 -60.5t61 -46.5l413 -207q40 -20 71.5 -50t53.5 -66t33.5 -76.5t11.5 -83.5q0 -19 -1.5 -37.5t-6.5 -35.5v1
q-12 -53 -40.5 -96.5t-69 -75.5t-90 -50t-103.5 -18q-15 1 -29.5 2t-29.5 3l-72 -289l-30 8l71 285q-97 14 -187 49.5t-172 91.5l16 24q94 -64 207 -101t228 -43q48 1 92.5 17.5t80.5 45t61.5 67.5t36.5 86q5 17 6.5 33.5t1.5 32.5q0 37 -11.5 73.5t-32.5 69.5t-49 60.5
t-61 46.5l-413 207q-80 41 -125 115.5t-45 161.5q0 19 2 36.5t6 34.5q13 52 41.5 96t68.5 76t89 50t103 18q97 -1 190.5 -20t184.5 -55z" />
    <glyph glyph-name="scircumflex" unicode="&#x15d;" horiz-adv-x="1036" 
d="M288 1268l232 232l232 -232l-22 -22l-210 210l-210 -210zM826 184q0 -197 -310 -197q-131 0 -301 73l12 27q176 -73 289 -73q280 0 280 170q0 85 -76 140q-22 16 -148 77l-217 105q-149 72 -149 194q0 199 237 199q144 0 284 -75l-13 -26q-209 72 -271 72
q-207 0 -207 -170q0 -84 76 -136q27 -17 148 -75q72 -34 145 -72t148 -80q73 -58 73 -153z" />
    <glyph glyph-name="Scircumflex" unicode="&#x15c;" horiz-adv-x="1180" 
d="M358 1706l232 233l232 -233l-22 -22l-210 210q-52 -53 -105 -105t-105 -105zM973 292q0 -110 -77 -202q-88 -103 -233 -103q-109 0 -235 42q-122 42 -216 107l17 23q324 -145 434 -145q128 0 211 95q70 82 70 183q0 112 -78 189q-52 52 -172 112l-222 111q-72 36 -153 87
q-113 95 -113 241q0 114 75 203q92 107 250 107q210 0 362 -89l-16 -25q-245 84 -346 84q-145 0 -227 -96q-68 -80 -68 -184q0 -181 184 -272q19 -9 66 -30q82 -39 288 -144q199 -106 199 -294z" />
    <glyph glyph-name="sacute" unicode="&#x15b;" horiz-adv-x="1036" 
d="M676 1466l-295 -221l-18 24l295 221zM826 184q0 -197 -310 -197q-131 0 -301 73l12 27q176 -73 289 -73q280 0 280 170q0 85 -76 140q-22 16 -148 77l-217 105q-149 72 -149 194q0 199 237 199q144 0 284 -75l-13 -26q-209 72 -271 72q-207 0 -207 -170q0 -84 76 -136
q27 -17 148 -75q72 -34 145 -72t148 -80q73 -58 73 -153z" />
    <glyph glyph-name="Sacute" unicode="&#x15a;" horiz-adv-x="1180" 
d="M433 1707l295 222l18 -24l-295 -222zM973 292q0 -110 -77 -202q-88 -103 -233 -103q-109 0 -235 42q-122 42 -216 107l17 23q324 -145 434 -145q128 0 211 95q70 82 70 183q0 112 -78 189q-52 52 -172 112l-222 111q-72 36 -153 87q-113 95 -113 241q0 114 75 203
q92 107 250 107q210 0 362 -89l-16 -25q-245 84 -346 84q-145 0 -227 -96q-68 -80 -68 -184q0 -181 184 -272q19 -9 66 -30q82 -39 288 -144q199 -106 199 -294z" />
    <glyph glyph-name="rcommaaccent" unicode="&#x157;" horiz-adv-x="885" 
d="M648 4l-73 -295l30 -8l73 295zM679 737h-30v133h-413v-870h-30v899h473v-162z" />
    <glyph glyph-name="Rcommaaccent" unicode="&#x156;" horiz-adv-x="1180" 
d="M575 4l-74 -295l30 -8l74 295zM973 958q0 -311 -287 -371l286 -581l-27 -11l-289 586q-41 -6 -85 -6h-335v-575h-30v1342h365q153 0 257 -71q145 -99 145 -313zM944 958q0 198 -132 288q-96 66 -241 66h-335v-707h335q147 0 241 64q132 88 132 289z" />
    <glyph glyph-name="OE" unicode="&#x152;" horiz-adv-x="1769" 
d="M1548 -15h-605v234q-22 -52 -58 -95t-81.5 -74t-100 -48t-113.5 -17q-80 0 -149.5 30t-121.5 82.5t-82.5 122t-30.5 149.5v589q0 79 30.5 149t82.5 122t121.5 82t149.5 30q59 0 113.5 -17t100 -48t81.5 -74t58 -95v235h605v-30h-575v-560h427v-30h-427v-707h575v-30z
M943 958q0 73 -27.5 137.5t-75.5 112.5t-112.5 75.5t-137.5 27.5q-74 0 -138 -27.5t-112 -75.5t-76 -112.5t-28 -137.5v-589q0 -74 28 -138.5t76 -112.5t112 -75.5t138 -27.5q73 0 137.5 27.5t112.5 75.5t75.5 112.5t27.5 138.5v589z" />
    <glyph glyph-name="ohungarumlaut" unicode="&#x151;" 
d="M65 1265l295 221l18 -24l-295 -221zM654 1265l295 221l18 -24l-295 -221zM826 295q0 -129 -91 -219q-92 -89 -219 -89q-128 0 -220 89q-90 90 -90 219v294q0 129 90 219q91 91 220 91t219 -91q91 -90 91 -219v-294zM796 295v294q0 117 -82 199q-81 82 -198 82t-199 -82
q-81 -83 -81 -199v-294q0 -117 81 -199q82 -82 199 -82t198 82q82 82 82 199z" />
    <glyph glyph-name="Ohungarumlaut" unicode="&#x150;" horiz-adv-x="1180" 
d="M282 1703l147 222l26 -16l-147 -222zM724 1703l148 222l26 -16l-148 -222zM973 369q0 -160 -112 -271q-113 -111 -272 -111q-160 0 -272 111q-111 111 -111 271v589q0 159 111 272q112 112 272 112t272 -112t112 -272v-589zM944 369v589q0 146 -104 250t-251 104
t-250 -103t-103 -251v-589q0 -149 103 -252t250 -103q148 0 251 103q104 104 104 252z" />
    <glyph glyph-name="obreve" unicode="&#x14f;" 
d="M236 1548q0 -43 16 -80.5t44 -65.5t65.5 -44t80.5 -16t80.5 16t65.5 44t44 65.5t16 80.5h30q0 -49 -18.5 -92t-50.5 -75t-75 -50.5t-92 -18.5t-92 18.5t-75 50.5t-50.5 75t-18.5 92h30zM826 295q0 -129 -91 -219q-92 -89 -219 -89q-128 0 -220 89q-90 90 -90 219v294
q0 129 90 219q91 91 220 91t219 -91q91 -90 91 -219v-294zM796 295v294q0 117 -82 199q-81 82 -198 82t-199 -82q-81 -83 -81 -199v-294q0 -117 81 -199q82 -82 199 -82t198 82q82 82 82 199z" />
    <glyph glyph-name="Obreve" unicode="&#x14e;" horiz-adv-x="1180" 
d="M384 1917q0 -43 16 -81t44 -66t65.5 -44t80.5 -16t80.5 16t65.5 44t44 66t16 81h30q0 -49 -18.5 -92t-50.5 -75.5t-75 -51t-92 -18.5t-92 18.5t-75 51t-50.5 75.5t-18.5 92h30zM973 369q0 -160 -112 -271q-113 -111 -272 -111q-160 0 -272 111q-111 111 -111 271v589
q0 159 111 272q112 112 272 112t272 -112t112 -272v-589zM944 369v589q0 146 -104 250t-251 104t-250 -103t-103 -251v-589q0 -149 103 -252t250 -103q148 0 251 103q104 104 104 252z" />
    <glyph glyph-name="omacron" unicode="&#x14d;" 
d="M147 1342h738v-30h-738v30zM826 295q0 -129 -91 -219q-92 -89 -219 -89q-128 0 -220 89q-90 90 -90 219v294q0 129 90 219q91 91 220 91t219 -91q91 -90 91 -219v-294zM796 295v294q0 117 -82 199q-81 82 -198 82t-199 -82q-81 -83 -81 -199v-294q0 -117 81 -199
q82 -82 199 -82t198 82q82 82 82 199z" />
    <glyph glyph-name="Omacron" unicode="&#x14c;" horiz-adv-x="1180" 
d="M221 1784h737v-30h-737v30zM973 369q0 -160 -112 -271q-113 -111 -272 -111q-160 0 -272 111q-111 111 -111 271v589q0 159 111 272q112 112 272 112t272 -112t112 -272v-589zM944 369v589q0 146 -104 250t-251 104t-250 -103t-103 -251v-589q0 -149 103 -252t250 -103
q148 0 251 103q104 104 104 252z" />
    <glyph glyph-name="ncommaaccent" unicode="&#x146;" 
d="M132 -291l74 295v896h347q56 0 106 -21.5t87 -59t58.5 -87t21.5 -106.5v-626h-30v626q0 51 -19 95.5t-52 77.5t-77.5 52t-94.5 19h-317v-874l-74 -295z" />
    <glyph glyph-name="Ncommaaccent" unicode="&#x145;" horiz-adv-x="1180" 
d="M575 4l-74 -295l30 -8l74 295zM973 0h-32l-705 1270v-1270h-30v1327h32l706 -1270v1270h29v-1327z" />
    <glyph glyph-name="nacute" unicode="&#x144;" 
d="M673 1462l-295 -221l-18 24l295 221zM826 0h-30v626q0 102 -71 173t-172 71h-317v-870h-30v899h347q113 0 193 -80t80 -193v-626z" />
    <glyph glyph-name="Nacute" unicode="&#x143;" horiz-adv-x="1180" 
d="M433 1707l295 222l18 -24l-295 -222zM973 0h-32l-705 1270v-1270h-30v1327h32l706 -1270v1270h29v-1327z" />
    <glyph glyph-name="lslash" unicode="&#x142;" horiz-adv-x="590" 
d="M24 376l182 363v588h30v-528l157 314l26 -14l-183 -366v-586q0 -27 10.5 -51t28.5 -42t42 -28.5t52 -10.5v-30q-34 0 -63.5 13t-51.5 35t-35 51.5t-13 62.5v526l-156 -311z" />
    <glyph glyph-name="Lslash" unicode="&#x141;" 
d="M236 1327v-811l453 453l22 -22l-475 -475v-457h575v-30h-605v1342h30z" />
    <glyph glyph-name="ldot" unicode="&#x140;" horiz-adv-x="737" 
d="M457 464h7v-7h-7v7zM427 494v-67h67v67h-67zM369 -13q-66 0 -116 47q-47 47 -47 114v1179h30v-1179q0 -55 39 -95q39 -39 94 -39v-27z" />
    <glyph glyph-name="Ldot" unicode="&#x13f;" 
d="M531 464h7v-7h-7v7zM501 494v-67h67v67h-67zM811 -13h-605v1340h30v-1313h575v-27z" />
    <glyph glyph-name="Lcommaaccent" unicode="&#x13b;" 
d="M427 -291l69 276h-290v1342h30v-1312h575v-30h-283l-71 -284z" />
    <glyph glyph-name="kcommaaccent" unicode="&#x137;" 
d="M818 724l-282 -141l288 -576l-26 -14l-289 577l-273 -137v-437l-74 -295l-30 8l74 295v1323h30v-861l568 284z" />
    <glyph glyph-name="Kcommaaccent" unicode="&#x136;" horiz-adv-x="1186" 
d="M582 4l-74 -295l30 -8l74 295zM971 7l-25 -13l-443 811l-267 -295v-510h-30v1327h30v-773l712 783l21 -19l-444 -490z" />
    <glyph glyph-name="Jcircumflex" unicode="&#x134;" horiz-adv-x="737" 
d="M221 -427q58 0 109 22t89 60t60 89t22 109v1032h30v-1032q0 -64 -24.5 -120.5t-66.5 -98.5t-98.5 -66.5t-120.5 -24.5v30zM501 1253v74h30v-74h-30zM726 1684l-210 210q-52 -53 -105 -105t-105 -105l-22 22l232 233l232 -233z" />
    <glyph glyph-name="ij" unicode="&#x133;" horiz-adv-x="737" 
d="M236 1254h-30v73h30v-73zM236 0h-30v885h30v-885zM531 1254h-30v73h30v-73zM531 -183q0 -113 -80 -193t-193 -80h-37v30h37q101 0 172 71t71 172v1068h30v-1068z" />
    <glyph glyph-name="IJ" unicode="&#x132;" horiz-adv-x="1179" 
d="M236 0h-30v1327h30v-1327zM973 295q0 -129 -91 -219q-92 -89 -219 -89h-148v27h148q117 0 198 82q82 82 82 199v1032h30v-1032z" />
    <glyph glyph-name="Idotaccent" unicode="&#x130;" horiz-adv-x="442" 
d="M236 1710h7v7h-7v-7zM273 1747v-67h-67v67h67zM236 0h-30v1327h30v-1327z" />
    <glyph glyph-name="Itilde" unicode="&#x128;" horiz-adv-x="442" 
d="M-86 1852q29 38 70.5 58.5t89.5 20.5t89 -20.5t70 -58.5q24 -32 59.5 -49.5t76.5 -17.5q40 0 75.5 17.5t59.5 49.5l24 -18q-29 -38 -70.5 -58.5t-88.5 -20.5q-48 0 -89.5 20.5t-70.5 58.5q-24 32 -59 49.5t-76 17.5t-76.5 -17.5t-59.5 -49.5zM236 0h-30v1327h30v-1327z
" />
    <glyph glyph-name="hcircumflex" unicode="&#x125;" 
d="M284 1706l232 233l232 -233l-22 -22l-210 210q-52 -53 -105 -105t-105 -105zM826 0h-30v626q0 102 -71 173t-172 71h-317v-870h-30v1327h30v-428h317q113 0 193 -80t80 -193v-626z" />
    <glyph glyph-name="Hcircumflex" unicode="&#x124;" horiz-adv-x="1180" 
d="M358 1706l232 233l232 -233l-22 -22l-210 210q-52 -53 -105 -105t-105 -105zM973 0h-29v723h-708v-723h-30v1327h30v-575h708v575h29v-1327z" />
    <glyph glyph-name="gcommaaccent" unicode="&#x123;" 
d="M295 -427h258q50 0 94.5 19t77.5 52t52 77t19 95v169h-317q-56 0 -106 21.5t-87 58.5t-58.5 87t-21.5 106v368q0 57 21.5 106.5t58.5 87t87 59t106 21.5h347v-1084q0 -57 -21.5 -106.5t-58.5 -86.5t-87 -58.5t-106 -21.5h-25l-71 -284l-30 8l69 276h-201v30zM236 258
q0 -50 19 -94.5t52 -77.5t77.5 -52t94.5 -19h317v855h-317q-50 0 -94.5 -19t-77.5 -52t-52 -77.5t-19 -95.5v-368z" />
    <glyph glyph-name="Gcommaaccent" unicode="&#x122;" horiz-adv-x="1180" 
d="M943 15v707h-206v30h236v-767h-371l-71 -284l-30 8l69 277q-76 4 -142.5 35t-115.5 83t-77.5 120t-28.5 145v589q0 79 30 149t82.5 122.5t122 82.5t149.5 30h368v-30h-368q-74 0 -138.5 -28t-112.5 -76t-75.5 -112.5t-27.5 -137.5v-589q0 -74 27.5 -138.5t75.5 -112.5
t112.5 -75.5t138.5 -27.5h353z" />
    <glyph glyph-name="gdotaccent" unicode="&#x121;" 
d="M494 1268h7v7h-7v-7zM531 1305v-67h-67v67h67zM826 -147q0 -309 -328 -309h-203v30h203q298 0 298 279v134h-317q-115 0 -194 78q-79 79 -79 193v368q0 114 79 193q80 80 194 80h347v-1046zM796 14v856h-317q-102 0 -173 -71q-70 -70 -70 -173v-368q0 -103 70 -173
q71 -71 173 -71h317z" />
    <glyph glyph-name="Gdotaccent" unicode="&#x120;" horiz-adv-x="1180" 
d="M568 1710h7v7h-7v-7zM605 1747v-67h-67v67h67zM973 -13h-384q-165 0 -274 108q-109 109 -109 274v589q0 174 125 285q112 99 258 99h369v-30h-369q-134 0 -238 -92q-115 -102 -115 -262v-589q0 -154 100 -254q101 -101 253 -101h355v709h-207v29h236v-765z" />
    <glyph glyph-name="gbreve" unicode="&#x11f;" 
d="M310 1548q0 -43 16 -80.5t44 -65.5t65.5 -44t80.5 -16t80.5 16t65.5 44t44 65.5t16 80.5h30q0 -49 -18.5 -92t-50.5 -75t-75 -50.5t-92 -18.5t-92 18.5t-75 50.5t-50.5 75t-18.5 92h30zM826 -147q0 -309 -328 -309h-203v30h203q298 0 298 279v134h-317q-115 0 -194 78
q-79 79 -79 193v368q0 114 79 193q80 80 194 80h347v-1046zM796 14v856h-317q-102 0 -173 -71q-70 -70 -70 -173v-368q0 -103 70 -173q71 -71 173 -71h317z" />
    <glyph glyph-name="Gbreve" unicode="&#x11e;" horiz-adv-x="1180" 
d="M384 1917q0 -43 16 -81t44 -66t65.5 -44t80.5 -16t80.5 16t65.5 44t44 66t16 81h30q0 -49 -18.5 -92t-50.5 -75.5t-75 -51t-92 -18.5t-92 18.5t-75 51t-50.5 75.5t-18.5 92h30zM973 -13h-384q-165 0 -274 108q-109 109 -109 274v589q0 174 125 285q112 99 258 99h369v-30
h-369q-134 0 -238 -92q-115 -102 -115 -262v-589q0 -154 100 -254q101 -101 253 -101h355v709h-207v29h236v-765z" />
    <glyph glyph-name="gcircumflex" unicode="&#x11d;" 
d="M284 1264l232 232l232 -232l-22 -22l-210 210l-210 -210zM826 -147q0 -309 -328 -309h-203v30h203q298 0 298 279v134h-317q-115 0 -194 78q-79 79 -79 193v368q0 114 79 193q80 80 194 80h347v-1046zM796 14v856h-317q-102 0 -173 -71q-70 -70 -70 -173v-368
q0 -103 70 -173q71 -71 173 -71h317z" />
    <glyph glyph-name="Gcircumflex" unicode="&#x11c;" horiz-adv-x="1180" 
d="M358 1706l232 233l232 -233l-22 -22l-210 210q-52 -53 -105 -105t-105 -105zM973 -13h-384q-165 0 -274 108q-109 109 -109 274v589q0 174 125 285q112 99 258 99h369v-30h-369q-134 0 -238 -92q-115 -102 -115 -262v-589q0 -154 100 -254q101 -101 253 -101h355v709
h-207v29h236v-765z" />
    <glyph glyph-name="eogonek" unicode="&#x119;" 
d="M538 -291l68 276h-164q-49 0 -92 18.5t-75 50.5t-50.5 75t-18.5 92v369q0 64 24.5 120.5t66.5 98.5t98.5 66.5t120.5 24.5t120.5 -24.5t98.5 -66.5t66.5 -98.5t24.5 -120.5v-163h-590v-206q0 -43 16 -80.5t44 -65.5t65.5 -44t80.5 -16h369v-30h-173l-70 -284zM236 457
h560v133q0 58 -22 109t-60 89t-89 60t-109 22t-109 -22t-89 -60t-60 -89t-22 -109v-133z" />
    <glyph glyph-name="Eogonek" unicode="&#x118;" 
d="M663 722h-427v-707h575v-30h-173l-70 -284l-30 8l68 276h-400v1357h605v-30h-575v-560h427v-30z" />
    <glyph glyph-name="edotaccent" unicode="&#x117;" 
d="M494 1268h7v7h-7v-7zM531 1305v-67h-67v67h67zM826 427h-590v-132q0 -169 67 -230q55 -51 191 -51h317v-27h-317q-147 0 -211 57q-77 69 -77 251v294q0 129 90 219q91 91 220 91t219 -91q91 -90 91 -219v-162zM796 457v132q0 117 -82 199q-81 82 -198 82t-199 -82
q-81 -83 -81 -199v-132h560z" />
    <glyph glyph-name="Edotaccent" unicode="&#x116;" 
d="M494 1710h7v7h-7v-7zM531 1747v-67h-67v67h67zM811 -13h-605v1355h605v-30h-575v-560h427v-29h-427v-709h575v-27z" />
    <glyph glyph-name="ebreve" unicode="&#x115;" 
d="M310 1548q0 -43 16 -80.5t44 -65.5t65.5 -44t80.5 -16t80.5 16t65.5 44t44 65.5t16 80.5h30q0 -49 -18.5 -92t-50.5 -75t-75 -50.5t-92 -18.5t-92 18.5t-75 50.5t-50.5 75t-18.5 92h30zM826 427h-590v-132q0 -169 67 -230q55 -51 191 -51h317v-27h-317q-147 0 -211 57
q-77 69 -77 251v294q0 129 90 219q91 91 220 91t219 -91q91 -90 91 -219v-162zM796 457v132q0 117 -82 199q-81 82 -198 82t-199 -82q-81 -83 -81 -199v-132h560z" />
    <glyph glyph-name="Ebreve" unicode="&#x114;" 
d="M310 1917q0 -43 16 -81t44 -66t65.5 -44t80.5 -16t80.5 16t65.5 44t44 66t16 81h30q0 -49 -18.5 -92t-50.5 -75.5t-75 -51t-92 -18.5t-92 18.5t-75 51t-50.5 75.5t-18.5 92h30zM811 -13h-605v1355h605v-30h-575v-560h427v-29h-427v-709h575v-27z" />
    <glyph glyph-name="emacron" unicode="&#x113;" 
d="M147 1342h738v-30h-738v30zM826 427h-590v-132q0 -169 67 -230q55 -51 191 -51h317v-27h-317q-147 0 -211 57q-77 69 -77 251v294q0 129 90 219q91 91 220 91t219 -91q91 -90 91 -219v-162zM796 457v132q0 117 -82 199q-81 82 -198 82t-199 -82q-81 -83 -81 -199v-132
h560z" />
    <glyph glyph-name="Emacron" unicode="&#x112;" 
d="M147 1784h738v-30h-738v30zM811 -13h-605v1355h605v-30h-575v-560h427v-29h-427v-709h575v-27z" />
    <glyph glyph-name="cdotaccent" unicode="&#x10b;" horiz-adv-x="885" 
d="M421 1268h6v7h-6v-7zM457 1305v-67h-66v67h66zM663 -13h-184q-115 0 -194 78q-79 79 -79 193v368q0 114 79 193q80 80 194 80h184v-29h-184q-102 0 -173 -71q-70 -70 -70 -173v-368q0 -103 70 -173q71 -71 173 -71h184v-27z" />
    <glyph glyph-name="Cdotaccent" unicode="&#x10a;" 
d="M494 1710h7v7h-7v-7zM531 1747v-67h-67v67h67zM811 -13h-222q-182 0 -282 100q-101 101 -101 282v589q0 181 101 282q102 102 282 102h222v-30h-222q-170 0 -261.5 -91.5t-91.5 -262.5v-589q0 -84 23.5 -150t69 -111.5t111 -69.5t149.5 -24h222v-27z" />
    <glyph glyph-name="ccircumflex" unicode="&#x109;" horiz-adv-x="885" 
d="M210 1264l232 232l232 -232l-22 -22l-210 210l-210 -210zM663 -13h-184q-115 0 -194 78q-79 79 -79 193v368q0 114 79 193q80 80 194 80h184v-29h-184q-102 0 -173 -71q-70 -70 -70 -173v-368q0 -103 70 -173q71 -71 173 -71h184v-27z" />
    <glyph glyph-name="Ccircumflex" unicode="&#x108;" 
d="M284 1706l232 233l232 -233l-22 -22l-210 210q-52 -53 -105 -105t-105 -105zM811 -13h-222q-182 0 -282 100q-101 101 -101 282v589q0 181 101 282q102 102 282 102h222v-30h-222q-170 0 -261.5 -91.5t-91.5 -262.5v-589q0 -84 23.5 -150t69 -111.5t111 -69.5t149.5 -24
h222v-27z" />
    <glyph glyph-name="cacute" unicode="&#x107;" horiz-adv-x="885" 
d="M672 1462l-294 -221l-18 24l294 221zM663 -13h-184q-115 0 -194 78q-79 79 -79 193v368q0 114 79 193q80 80 194 80h184v-29h-184q-102 0 -173 -71q-70 -70 -70 -173v-368q0 -103 70 -173q71 -71 173 -71h184v-27z" />
    <glyph glyph-name="Cacute" unicode="&#x106;" 
d="M397 1708l294 220l18 -24l-294 -220zM811 -13h-222q-182 0 -282 100q-101 101 -101 282v589q0 181 101 282q102 102 282 102h222v-30h-222q-170 0 -261.5 -91.5t-91.5 -262.5v-589q0 -84 23.5 -150t69 -111.5t111 -69.5t149.5 -24h222v-27z" />
    <glyph glyph-name="aogonek" unicode="&#x105;" 
d="M648 -291l69 278h-253q-78 0 -145 32q-113 59 -113 202q0 144 109 202q61 34 149 34h332v160q0 138 -102 204q-73 49 -178 49h-221v29h221q111 0 194 -53q116 -74 116 -229v-630h-77l-71 -286zM796 14v413h-332q-228 0 -228 -206q0 -125 97 -177q55 -30 131 -30h332z" />
    <glyph glyph-name="abreve" unicode="&#x103;" 
d="M310 1548q0 -43 16 -80.5t44 -65.5t65.5 -44t80.5 -16t80.5 16t65.5 44t44 65.5t16 80.5h30q0 -49 -18.5 -92t-50.5 -75t-75 -50.5t-92 -18.5t-92 18.5t-75 50.5t-50.5 75t-18.5 92h30zM826 -13h-362q-78 0 -145 32q-113 59 -113 202q0 144 109 202q61 34 149 34h332v160
q0 138 -102 204q-73 49 -178 49h-221v29h221q111 0 194 -53q116 -74 116 -229v-630zM796 14v413h-332q-228 0 -228 -206q0 -125 97 -177q55 -30 131 -30h332z" />
    <glyph glyph-name="Abreve" unicode="&#x102;" horiz-adv-x="1327" 
d="M457 1916q-1 -50 16.5 -87.5t46.5 -62t66 -37t76 -12.5t76.5 12.5t66.5 37t47 62t18 87.5h30q0 -57 -20.5 -100t-54 -71.5t-76.5 -43t-87 -14.5t-86.5 14.5t-76 43t-53.5 71.5t-19 100h30zM1120 4l-28 -7l-120 357h-617l-120 -357l-28 7l441 1323h31zM963 383l-300 898
l-299 -898h599z" />
    <glyph glyph-name="amacron" unicode="&#x101;" 
d="M147 1342h738v-30h-738v30zM826 -13h-362q-78 0 -145 32q-113 59 -113 202q0 144 109 202q61 34 149 34h332v160q0 138 -102 204q-73 49 -178 49h-221v29h221q111 0 194 -53q116 -74 116 -229v-630zM796 14v413h-332q-228 0 -228 -206q0 -125 97 -177q55 -30 131 -30h332
z" />
    <glyph glyph-name="Amacron" unicode="&#x100;" horiz-adv-x="1327" 
d="M1032 1754h-737v30h737v-30zM1120 4l-28 -7l-120 357h-617l-120 -357l-28 7l441 1323h31zM963 383l-300 898l-299 -898h599z" />
    <glyph glyph-name="Aogonek" unicode="&#x104;" horiz-adv-x="1327" 
d="M1090 1l-118 353h-617l-120 -357l-28 7l441 1323h31l442 -1328l-74 -298l-30 8zM963 383l-300 898l-299 -898h599z" />
    <glyph glyph-name="Dcroat" unicode="&#x110;" horiz-adv-x="1474" 
d="M221 678h280v664h347q87 0 163.5 -33t133.5 -90.5t90 -134t33 -163.5v-515q0 -87 -33 -164t-90 -134t-133.5 -90t-163.5 -33h-347v663h-280v30zM1238 921q0 81 -30.5 152t-83.5 124.5t-124 84t-152 30.5h-317v-634h280v-30h-280v-633h317q81 0 152 30.5t124 83.5
t83.5 124.5t30.5 152.5v515z" />
    <glyph glyph-name="dcroat" unicode="&#x111;" horiz-adv-x="1327" 
d="M516 1342h280v353h30v-353h280v-30h-280v-1327h-384q-49 0 -92 18.5t-75 50.5t-50.5 75t-18.5 92v442q0 49 18.5 92t50.5 75.5t75 51t92 18.5h354v412h-280v30zM796 15v855h-354q-43 0 -80.5 -16t-65.5 -44t-44 -66t-16 -81v-442q0 -43 16 -80.5t44 -65.5t65.5 -44
t80.5 -16h354z" />
    <glyph glyph-name="Hbar" unicode="&#x126;" horiz-adv-x="1623" 
d="M1194 1695v-353h207v-30h-207v-1312h-30v722h-707v-722h-30v1312h-206v30h206v353h30v-353h707v353h30zM457 752h707v560h-707v-560z" />
    <glyph glyph-name="hbar" unicode="&#x127;" horiz-adv-x="1327" 
d="M531 1695v-353h280v-30h-280v-486h354q49 0 92 -18.5t75 -50.5t50.5 -75t18.5 -92v-590h-30v590q0 43 -16 80.5t-44 65.5t-65.5 44t-80.5 16h-354v-796h-30v1312h-280v30h280v353h30z" />
    <glyph glyph-name="itilde" unicode="&#x129;" horiz-adv-x="591" 
d="M280 0v885h30v-885h-30zM-12 1336q29 38 70 58.5t89 20.5t89.5 -20.5t70.5 -58.5q24 -32 59 -49.5t76 -17.5t76.5 17.5t59.5 49.5l24 -18q-29 -38 -70.5 -58.5t-89.5 -20.5t-89 20.5t-70 58.5q-24 32 -59.5 49.5t-76.5 17.5t-76 -17.5t-59 -49.5z" />
    <glyph glyph-name="Imacron" unicode="&#x12a;" horiz-adv-x="442" 
d="M-147 1784h737v-30h-737v30zM236 1327v-1327h-30v1327h30z" />
    <glyph glyph-name="imacron" unicode="&#x12b;" horiz-adv-x="737" 
d="M0 1342h737v-30h-737v30zM384 885v-885h-30v885h30z" />
    <glyph glyph-name="Ibreve" unicode="&#x12c;" horiz-adv-x="442" 
d="M236 1327v-1327h-30v1327h30zM15 1917q0 -43 16 -81t44 -66t65.5 -44t80.5 -16t80.5 16t65.5 44t44 66t16 81h30q0 -49 -18.5 -92t-50.5 -75.5t-75 -51t-92 -18.5t-92 18.5t-75 51t-50.5 75.5t-18.5 92h30z" />
    <glyph glyph-name="ibreve" unicode="&#x12d;" horiz-adv-x="442" 
d="M236 885v-885h-30v885h30zM15 1548q0 -43 16 -80.5t44 -65.5t65.5 -44t80.5 -16t80.5 16t65.5 44t44 65.5t16 80.5h30q0 -49 -18.5 -92t-50.5 -75t-75 -50.5t-92 -18.5t-92 18.5t-75 50.5t-50.5 75t-18.5 92h30z" />
    <glyph glyph-name="Iogonek" unicode="&#x12e;" horiz-adv-x="442" 
d="M132 -291l74 295v1323h30v-1331l-74 -295z" />
    <glyph glyph-name="iogonek" unicode="&#x12f;" horiz-adv-x="442" 
d="M59 -291l147 590v586h30v-594l-147 -590zM206 1253v74h30v-74h-30z" />
    <glyph glyph-name="dotlessi" unicode="&#x131;" horiz-adv-x="442" 
d="M206 0v885h30v-885h-30z" />
    <glyph glyph-name="jcircumflex" unicode="&#x135;" horiz-adv-x="737" 
d="M221 -427q58 0 109 22t89 60t60 89t22 109v1032h30v-1032q0 -64 -24.5 -120.5t-66.5 -98.5t-98.5 -66.5t-120.5 -24.5v30zM284 1264l232 232l232 -232l-22 -22l-210 210l-210 -210z" />
    <glyph glyph-name="lcommaaccent" unicode="&#x13c;" horiz-adv-x="811" 
d="M310 -299l74 295l-30 8l-74 -295zM590 -13q-66 0 -116 47q-47 47 -47 114v1179h30v-1179q0 -55 39 -95q39 -39 94 -39v-27z" />
    <glyph glyph-name="oe" unicode="&#x153;" horiz-adv-x="1621" 
d="M1400 -15h-368q-41 0 -78.5 13.5t-67.5 37t-51.5 56t-31.5 70.5q-20 -41 -50 -73.5t-66.5 -55.5t-78.5 -35.5t-87 -12.5q-11 0 -20.5 0.5t-18.5 1.5q-58 7 -108 34.5t-87 68.5t-58.5 93.5t-22.5 111.5v295q0 64 24.5 120.5t66.5 98.5t98.5 66.5t120.5 24.5q52 0 99 -16
t85.5 -45t67 -68.5t43.5 -85.5q15 46 43.5 85.5t67 68.5t85.5 45t99 16q64 0 120 -24.5t98 -66.5t66.5 -98.5t24.5 -120.5v-163h-589v-206q0 -43 16 -80.5t44 -65.5t65.5 -44t80.5 -16h368v-30zM796 590q0 58 -22 109t-60 89t-89 60t-109 22t-109 -22t-89 -60t-60 -89
t-22 -109v-295q1 -53 20.5 -100.5t53 -85t78.5 -61.5t98 -31h-1q9 -1 18.5 -1.5t17.5 -0.5q48 0 91.5 15t80 42t63 65t40.5 85v368zM826 457h559v133q0 58 -22 109t-60 89t-88.5 60t-108.5 22t-109 -22t-89 -60t-60 -89t-22 -109v-133z" />
    <glyph glyph-name="caron" unicode="&#x2c7;" horiz-adv-x="885" 
d="M232 1485l210 -210l210 210l22 -22l-232 -232l-232 232z" />
    <glyph glyph-name="hungarumlaut" unicode="&#x2dd;" horiz-adv-x="885" 
d="M206 1036l74 295l30 -8l-74 -295zM575 1036l73 295l30 -8l-73 -295z" />
    <glyph glyph-name="Alpha" unicode="&#x391;" horiz-adv-x="1327" 
d="M207 5l440 1322h31l442 -1322l-28 -10l-120 359h-618l-119 -359zM364 384h598l-299 896z" />
    <glyph glyph-name="Beta" unicode="&#x392;" horiz-adv-x="1179" 
d="M206 -15v1357h347q72 0 135 -27.5t110 -74.5t74.5 -110t27.5 -135q0 -55 -16 -104.5t-45 -91.5t-69 -74.5t-88 -51.5q62 -10 115 -40.5t92 -75.5t61.5 -103t22.5 -122q0 -72 -27 -135t-74.5 -110.5t-110.5 -74.5t-135 -27h-420zM626 15q66 0 124 25t100.5 67.5
t67.5 100.5t25 124t-25 123.5t-67.5 100t-100.5 67.5t-124 25h-390v-633h390zM236 678h317q66 0 123.5 25t100.5 68t68 100.5t25 123.5t-25 123.5t-68 100.5t-100.5 68t-123.5 25h-317v-634z" />
    <glyph glyph-name="Gamma" unicode="&#x393;" horiz-adv-x="1106" 
d="M206 0v1342h679v-30h-649v-1312h-30z" />
    <glyph glyph-name="Epsilon" unicode="&#x395;" horiz-adv-x="1106" 
d="M737 648h-501v-633h649v-30h-679v1357h679v-30h-649v-634h501v-30z" />
    <glyph glyph-name="Zeta" unicode="&#x396;" horiz-adv-x="1179" 
d="M221 1342h762l-737 -1327h712v-30h-762l737 1327h-712v30z" />
    <glyph glyph-name="Eta" unicode="&#x397;" horiz-adv-x="1179" 
d="M206 0v1327h30v-649h707v649h30v-1327h-30v648h-707v-648h-30z" />
    <glyph glyph-name="Theta" unicode="&#x398;" horiz-adv-x="1179" 
d="M590 1342q79 0 149 -30t122 -82.5t82 -122.5t30 -149v-589q0 -80 -30 -149.5t-82 -122t-122 -82.5t-149 -30q-80 0 -149.5 30t-122 82.5t-82.5 122t-30 149.5v589q0 79 30 149t82.5 122.5t122 82.5t149.5 30zM943 958q0 73 -27.5 137.5t-75.5 112.5t-112.5 76t-137.5 28
q-74 0 -138.5 -28t-112.5 -76t-75.5 -112.5t-27.5 -137.5v-589q0 -74 27.5 -138.5t75.5 -112.5t112.5 -75.5t138.5 -27.5q73 0 137.5 27.5t112.5 75.5t75.5 112.5t27.5 138.5v589zM516 678h147v-30h-147v30z" />
    <glyph glyph-name="Iota" unicode="&#x399;" horiz-adv-x="442" 
d="M206 0v1327h30v-1327h-30z" />
    <glyph glyph-name="Kappa" unicode="&#x39a;" horiz-adv-x="1107" 
d="M206 0v1327h30v-698l638 708l22 -20l-432 -480l434 -830l-26 -14l-429 821l-207 -230v-584h-30z" />
    <glyph glyph-name="Lambda" unicode="&#x39b;" horiz-adv-x="1327" 
d="M207 5l456 1369l457 -1369l-28 -10l-429 1285l-428 -1285z" />
    <glyph glyph-name="Mu" unicode="&#x39c;" horiz-adv-x="1327" 
d="M1120 0h-29v1273l-428 -711l-427 711v-1273h-30v1327h32l425 -709l426 709h31v-1327z" />
    <glyph glyph-name="Nu" unicode="&#x39d;" horiz-adv-x="1179" 
d="M973 0h-32l-705 1270v-1270h-30v1327h32l706 -1270v1270h29v-1327z" />
    <glyph glyph-name="Xi" unicode="&#x39e;" horiz-adv-x="1179" 
d="M221 15h737v-30h-737v30zM442 678h295v-30h-295v30zM221 1342h737v-30h-737v30z" />
    <glyph glyph-name="Omicron" unicode="&#x39f;" horiz-adv-x="1180" 
d="M973 369q0 -160 -112 -271q-113 -111 -272 -111q-160 0 -272 111q-111 111 -111 271v589q0 159 111 272q112 112 272 112t272 -112t112 -272v-589zM944 369v589q0 146 -104 250t-251 104t-250 -103t-103 -251v-589q0 -149 103 -252t250 -103q148 0 251 103
q104 104 104 252z" />
    <glyph glyph-name="Pi" unicode="&#x3a0;" horiz-adv-x="1179" 
d="M206 0v1342h767v-1342h-30v1312h-707v-1312h-30z" />
    <glyph glyph-name="Rho" unicode="&#x3a1;" horiz-adv-x="1179" 
d="M206 0v1342h420q72 0 135 -27.5t110.5 -74.5t74.5 -110t27 -135t-27 -135t-74.5 -110t-110.5 -74.5t-135 -27.5h-390v-648h-30zM236 678h390q66 0 124 25t100.5 68t67.5 100.5t25 123.5t-25 123.5t-67.5 100.5t-100.5 68t-124 25h-390v-634z" />
    <glyph glyph-name="Sigma" unicode="&#x3a3;" horiz-adv-x="1179" 
d="M958 1312h-714q72 -162 144.5 -324.5t144.5 -324.5l-289 -648h714v-30h-760l302 678q-73 166 -151 340t-151 339h760v-30z" />
    <glyph glyph-name="Tau" unicode="&#x3a4;" horiz-adv-x="1179" 
d="M221 1342h737v-30h-353v-1312h-30v1312h-354v30z" />
    <glyph glyph-name="Upsilon" unicode="&#x3a5;" horiz-adv-x="1327" 
d="M233 1335l430 -645q108 162 215.5 322.5t215.5 322.5l24 -16l-440 -660v-659h-30v659l-439 660z" />
    <glyph glyph-name="Phi" unicode="&#x3a6;" horiz-adv-x="1474" 
d="M722 0v202q-30 -3 -61 -3q-81 0 -157 28.5t-139 81.5q-78 67 -119.5 159.5t-39.5 194.5q-1 50 9.5 99.5t31 95t50.5 86t68 73.5q63 52 141 81t156 29q16 0 30.5 -1t29.5 -3v204h30v-204q15 2 29.5 3t30.5 1q79 0 157 -29t141 -81q37 -33 66.5 -73.5t50.5 -86.5t31.5 -95
t9.5 -99q2 -102 -39 -194.5t-119 -159.5q-63 -53 -139.5 -81.5t-157.5 -28.5q-33 0 -61 3v-202h-30zM1238 663q2 97 -36.5 183.5t-111.5 148.5q-59 51 -130.5 76.5t-147.5 25.5q-15 0 -30 -1t-30 -3v-860q15 -2 30.5 -3t30.5 -1q74 0 147 27.5t130 74.5q72 63 111 150.5
t37 181.5zM661 229q15 0 30 1t31 3v860q-15 2 -30 3t-30 1q-75 0 -146.5 -25.5t-130.5 -76.5q-73 -62 -112 -148.5t-37 -183.5q-1 -47 9 -93t29 -89t47 -81t64 -69q57 -47 129.5 -74.5t146.5 -27.5z" />
    <glyph glyph-name="Chi" unicode="&#x3a7;" horiz-adv-x="1179" 
d="M234 1334l355 -640l356 640l26 -14l-365 -657l365 -656l-26 -14l-356 640l-355 -640l-26 14l364 656l-364 657z" />
    <glyph glyph-name="Psi" unicode="&#x3a8;" horiz-adv-x="1327" 
d="M236 1327v-516q0 -87 32 -163t88 -134t131 -92.5t161 -37.5v943h30v-943q86 3 161.5 37.5t131.5 92.5t88 134t32 163v516h30v-516q0 -93 -34.5 -174.5t-94.5 -143.5t-141 -99t-173 -40v-354h-30v354q-92 3 -172.5 40t-140.5 99t-94.5 143.5t-34.5 174.5v516h30z" />
    <glyph glyph-name="alpha" unicode="&#x3b1;" horiz-adv-x="1327" 
d="M1046 879l-206 -514l60 -251l-1 2q19 -51 61.5 -79.5t93.5 -28.5q27 0 48 6l8 -28q-14 -5 -28 -6.5t-28 -1.5q-30 0 -58.5 9t-52.5 26t-43 41.5t-30 55.5l-49 206l-70 -175q-17 -39 -44.5 -70.5t-61.5 -53.5t-73.5 -33.5t-81.5 -11.5q-37 0 -79 12q-47 13 -85 40
t-65 63.5t-42 80.5t-15 91v19.5t2 18.5v291q-2 8 -2 18.5v19.5q0 47 15 90.5t42 80t65 63.5t85 41q20 6 39.5 8.5t39.5 2.5q42 0 81 -11.5t73.5 -33.5t62 -53.5t45.5 -71.5l76 -326l190 475zM490 2q37 0 72 11t65.5 30.5t55 47.5t40.5 62l86 214l-87 366q-16 35 -40.5 62.5
t-54.5 47t-65 29.5t-72 10q-38 0 -71 -9q-40 -13 -74 -38t-58.5 -57.5t-38.5 -71.5t-14 -80v-16.5t2 -17.5v-299q-2 -9 -2 -17.5v-16.5q0 -42 14 -80.5t38.5 -71.5t58.5 -57.5t74 -37.5q17 -5 35 -7.5t36 -2.5z" />
    <glyph glyph-name="beta" unicode="&#x3b2;" horiz-adv-x="1179" 
d="M206 -442v1474q0 72 27.5 135t74.5 110t110 74.5t135 27.5q71 0 133.5 -27.5t109.5 -75t74.5 -110.5t29.5 -133q1 -7 1.5 -14.5t0.5 -15.5q0 -44 -13.5 -85.5t-37.5 -76.5t-58 -62t-75 -43q59 -21 105.5 -57t79 -84t49.5 -105.5t17 -120.5q0 -69 -22.5 -131.5t-62.5 -113
t-95.5 -87t-122.5 -52.5l-6 30q61 15 112.5 48t88.5 80t57.5 105t20.5 121t-21 120.5t-59 104.5t-90 80.5t-115 48.5v28q47 9 87 32t69 57t45.5 75.5t16.5 87.5q0 7 -0.5 13.5t-1.5 14.5q0 66 -25 123.5t-68 101t-100.5 68.5t-123.5 25t-123.5 -25t-100.5 -68t-68 -100.5
t-25 -123.5v-1474h-30z" />
    <glyph glyph-name="gamma" unicode="&#x3b3;" horiz-adv-x="1327" 
d="M1116 874q-107 -104 -197.5 -225t-163.5 -256q87 -138 142.5 -292t75.5 -320q0 -49 -18.5 -92.5t-50.5 -75.5t-75 -51t-92 -19t-92 19t-75 51t-50.5 75.5t-18.5 93.5q29 161 82 312t130 294q-96 150 -221.5 273t-277.5 211l14 26q155 -89 282 -208t224 -264
q73 130 163 247t199 223zM943 -223q-23 153 -76 298t-133 279q-72 -138 -123 -283.5t-80 -294.5q0 -42 16.5 -79t44.5 -64.5t65.5 -43.5t79.5 -16t79.5 16t65 43.5t44 65t17.5 79.5z" />
    <glyph glyph-name="delta" unicode="&#x3b4;" 
d="M670 861q71 -40 113.5 -112t42.5 -159v-295q0 -64 -24.5 -120.5t-66.5 -98.5t-98.5 -66.5t-120.5 -24.5t-120.5 24.5t-98.5 66.5t-66.5 98.5t-24.5 120.5v295q0 64 24.5 120.5t66.5 98.5t98.5 66.5t120.5 24.5q5 0 11 -0.5t11 -0.5l-291 159q-23 23 -35 53.5t-12 62.5
q0 33 13.5 62.5t36 51.5t51.5 35t61 13h369v-30h-369q-26 0 -49.5 -10t-42 -27.5t-29.5 -42t-11 -52.5q0 -55 39 -94zM236 295q0 -58 22 -109t60 -89t89 -60t109 -22t109 22t89 60t60 89t22 109v295q0 58 -22 109t-60 89t-89 60t-109 22t-109 -22t-89 -60t-60 -89t-22 -109
v-295z" />
    <glyph glyph-name="epsilon" unicode="&#x3b5;" 
d="M804 798q-67 38 -141.5 57t-152.5 19q-17 0 -33.5 -1t-33.5 -3q-43 0 -80.5 -16t-65.5 -44t-44.5 -66t-16.5 -81q0 -42 15.5 -78.5t42 -64.5t62.5 -45t77 -18h9h74v-30h-74h-9q-41 -2 -77 -19t-62.5 -44.5t-42 -64t-15.5 -78.5q0 -43 16.5 -80.5t44.5 -65.5t66 -44
t81 -16q18 -2 35 -3t34 -1q76 0 150 19t141 57l14 -26q-71 -39 -148 -59.5t-157 -20.5q-18 0 -37 1t-36 3q-48 0 -91 19t-74.5 51t-50 74.5t-18.5 91.5q0 38 11.5 72.5t31.5 63t48.5 50.5t61.5 35q-33 13 -61.5 35t-48.5 50.5t-31.5 63t-11.5 72.5q0 48 18.5 91t51 75t75 51
t90.5 20q17 2 34.5 3t34.5 1q81 0 159 -20.5t149 -59.5z" />
    <glyph glyph-name="zeta" unicode="&#x3b6;" 
d="M236 1327q0 -43 16 -80.5t44 -65.5t65.5 -44t80.5 -16h325l-460 -614q-46 -43 -69.5 -98.5t-23.5 -114.5q0 -36 9.5 -73t28.5 -72q20 -33 48 -60t61 -46t69.5 -29.5t74.5 -10.5q43 0 85 12q49 0 92 -18.5t75 -50.5t50.5 -75t18.5 -92t-18.5 -92t-50.5 -75t-75 -50.5
t-92 -18.5v30q43 0 80.5 16t65.5 44t44 65.5t16 80.5q0 42 -16 79.5t-43.5 65t-65 44t-79.5 17.5q-44 -12 -87 -12q-42 0 -83 11t-77 32t-66.5 51t-52.5 68q-42 76 -42 159q0 64 25 124.5t74 107.5l424 565h-265q-49 0 -92 18.5t-75 50.5t-50.5 75t-18.5 92h30z" />
    <glyph glyph-name="eta" unicode="&#x3b7;" horiz-adv-x="1179" 
d="M221 900q33 0 63 -13t52 -35t35 -51.5t13 -63.5v-15q18 39 47 72t65 56.5t78.5 36.5t88.5 13q64 0 120.5 -24.5t98.5 -66.5t66.5 -98.5t24.5 -120.5v-1032h-30v1032q0 58 -22 109t-60 89t-89 60t-109 22q-56 0 -106 -21t-87.5 -57.5t-60.5 -85.5t-25 -105v-601h-30v737
q0 28 -10.5 52t-28.5 42t-42.5 28.5t-51.5 10.5v30z" />
    <glyph glyph-name="theta" unicode="&#x3b8;" 
d="M206 1032q0 64 24.5 120.5t66.5 98.5t98.5 66.5t120.5 24.5t120.5 -24.5t98.5 -66.5t66.5 -98.5t24.5 -120.5v-737q0 -64 -24.5 -120.5t-66.5 -98.5t-98.5 -66.5t-120.5 -24.5t-120.5 24.5t-98.5 66.5t-66.5 98.5t-24.5 120.5v737zM236 678h560v354q0 58 -22 109t-60 89
t-89 60t-109 22t-109 -22t-89 -60t-60 -89t-22 -109v-354zM236 295q0 -58 22 -109t60 -89t89 -60t109 -22t109 22t89 60t60 89t22 109v353h-560v-353z" />
    <glyph glyph-name="iota" unicode="&#x3b9;" horiz-adv-x="958" 
d="M236 885v-590q0 -42 12.5 -81t35.5 -73t54.5 -61t70.5 -43q26 -10 53.5 -16t53.5 -6q55 0 106 21t92 61l22 -22q-45 -44 -102 -67t-118 -23q-62 0 -119 24q-44 18 -79 47t-60 66.5t-38.5 81.5t-13.5 91v590h30z" />
    <glyph glyph-name="kappa" unicode="&#x3ba;" horiz-adv-x="1179" 
d="M228 898l156 -78v-486l490 561l22 -20l-512 -586v-289h-30v802l-140 70zM603 523l291 -508h64v-30h-81l-300 524z" />
    <glyph glyph-name="lambda" unicode="&#x3bb;" horiz-adv-x="1179" 
d="M208 7l369 700l11 -7l-202 574q-18 17 -41.5 27.5t-49.5 10.5v30q32 0 62 -12t53 -35l3 -6l440 -1249q19 -18 43 -28t50 -10v-30q-68 0 -116 48l-3 6l-231 654l-362 -687z" />
    <glyph glyph-name="micro" unicode="&#xb5;" 
d="M479 -52q-40 0 -76.5 11t-68 30.5t-56.5 47t-42 60.5v-539h-30v1327h30v-664q0 -50 19 -94.5t52 -77.5t77.5 -52t94.5 -19h74q50 0 94.5 19t77.5 52t52 77.5t19 94.5v627h30v-627q0 -56 -21.5 -106t-58.5 -87t-87 -58.5t-106 -21.5h-74v0z" />
    <glyph glyph-name="nu" unicode="&#x3bd;" horiz-adv-x="1179" 
d="M340 844l179 -819q168 178 274.5 395.5t143.5 459.5l30 -4q-38 -254 -157.5 -486.5t-308.5 -425.5l-190 870q-38 36 -90 36v30q32 0 62 -13t53 -36z" />
    <glyph glyph-name="xi" unicode="&#x3be;" horiz-adv-x="1179" 
d="M811 -427q27 0 51 10.5t42 28.5t28.5 42t10.5 51v148q0 27 -10.5 51t-28.5 42t-42 28.5t-51 10.5h-221q-80 0 -149.5 30t-122 82.5t-82.5 122t-30 149.5q0 67 22 127.5t61 109.5t92 84t116 51q-32 13 -58 35t-45 50.5t-29.5 62t-10.5 69.5q0 67 33 121t87 85h-105
q-34 0 -63.5 13t-51.5 35t-35 51.5t-13 63.5h30q0 -28 10.5 -52t28.5 -42t42 -28.5t52 -10.5h442v-30h-230q-41 -2 -77 -18.5t-62.5 -44.5t-42 -64.5t-15.5 -78.5q0 -43 16 -80.5t44 -65.5t65.5 -44t80.5 -16h221v-30h-221q-74 0 -138.5 -27.5t-112.5 -75.5t-75.5 -112.5
t-27.5 -137.5q0 -74 27.5 -138.5t75.5 -112.5t112.5 -75.5t138.5 -27.5h221q33 0 62.5 -13t51.5 -35t35 -51.5t13 -62.5v-148q0 -33 -13 -62.5t-35 -51.5t-51.5 -35t-62.5 -13v30z" />
    <glyph glyph-name="omicron" unicode="&#x3bf;" 
d="M826 295q0 -129 -91 -219q-92 -89 -219 -89q-128 0 -220 89q-90 90 -90 219v294q0 129 90 219q91 91 220 91t219 -91q91 -90 91 -219v-294zM796 295v294q0 117 -82 199q-81 82 -198 82t-199 -82q-81 -83 -81 -199v-294q0 -117 81 -199q82 -82 199 -82t198 82
q82 82 82 199z" />
    <glyph glyph-name="pi" unicode="&#x3c0;" horiz-adv-x="1327" 
d="M221 900h885v-30h-206v-723q0 -27 10.5 -51t28.5 -42t42 -28.5t51 -10.5v-30q-33 0 -62.5 13t-51.5 35t-35 51.5t-13 62.5v723h-413v-723q0 -33 -13 -62.5t-35 -51.5t-51.5 -35t-62.5 -13v30q27 0 51 10.5t42 28.5t28.5 42t10.5 51v723h-206v30z" />
    <glyph glyph-name="rho" unicode="&#x3c1;" 
d="M356 -435q54 108 54 232q0 60 -13.5 119t-40.5 113q-68 42 -109 111.5t-41 154.5v295q0 64 24.5 120.5t66.5 98.5t98.5 66.5t120.5 24.5t120.5 -24.5t98.5 -66.5t66.5 -98.5t24.5 -120.5v-295q0 -64 -24.5 -120.5t-66.5 -98.5t-98.5 -66.5t-120.5 -24.5q-32 0 -61.5 6
t-56.5 17q42 -102 42 -211q0 -127 -58 -246zM796 590q0 58 -22 109t-60 89t-89 60t-109 22t-109 -22t-89 -60t-60 -89t-22 -109v-295q0 -58 22 -109t60 -89t89 -60t109 -22t109 22t89 60t60 89t22 109v295z" />
    <glyph glyph-name="sigma" unicode="&#x3c3;" horiz-adv-x="1253" 
d="M826 295q0 -64 -24.5 -120.5t-66.5 -98.5t-98.5 -66.5t-120.5 -24.5t-120.5 24.5t-98.5 66.5t-66.5 98.5t-24.5 120.5v295q0 64 24.5 120.5t66.5 98.5t98.5 66.5t120.5 24.5h369q27 0 51 10.5t42 28.5t28.5 42t10.5 51h30q0 -33 -13 -62.5t-35 -51.5t-51.5 -35t-62.5 -13
h-237q39 -19 72 -47.5t56.5 -65t36.5 -79t13 -88.5v-295zM796 590q0 58 -22 109t-60 89t-89 60t-109 22t-109 -22t-89 -60t-60 -89t-22 -109v-295q0 -58 22 -109t60 -89t89 -60t109 -22t109 22t89 60t60 89t22 109v295z" />
    <glyph glyph-name="tau" unicode="&#x3c4;" horiz-adv-x="1179" 
d="M221 900h737v-30h-353v-723q0 -27 10.5 -51t28.5 -42t42 -28.5t51 -10.5v-30q-33 0 -62.5 13t-51.5 35t-35 51.5t-13 62.5v723h-354v30z" />
    <glyph glyph-name="upsilon" unicode="&#x3c5;" horiz-adv-x="1327" 
d="M221 900q33 0 63 -13t52 -35t35 -51.5t13 -63.5v-368q0 -74 27.5 -138.5t75.5 -112.5t112.5 -75.5t137.5 -27.5t137.5 27.5t112.5 75.5t76 112.5t28 138.5v516h30v-516q0 -80 -30 -149.5t-82.5 -122t-122.5 -82.5t-149 -30t-149 30t-122 82.5t-82 122t-30 149.5v368
q0 28 -10.5 52t-28.5 42t-42.5 28.5t-51.5 10.5v30z" />
    <glyph glyph-name="phi" unicode="&#x3c6;" horiz-adv-x="1253" 
d="M132 221q0 93 34.5 174.5t94.5 143t141 98.5t173 40v208h30v-208q92 -3 172.5 -40t140.5 -98.5t94.5 -143t34.5 -174.5t-34.5 -174.5t-94.5 -143t-140.5 -98.5t-172.5 -40v-207h-30v207q-92 3 -173 40t-141 98.5t-94.5 143t-34.5 174.5zM162 221q0 -87 32 -163t88 -133.5
t131.5 -92t161.5 -37.5v852q-86 -3 -161.5 -37.5t-131.5 -91.5t-88 -133.5t-32 -163.5zM1017 221q0 87 -32 163.5t-88 133.5t-131 91.5t-161 37.5v-852q86 3 161 37.5t131 92t88 133.5t32 163z" />
    <glyph glyph-name="chi" unicode="&#x3c7;" horiz-adv-x="1179" 
d="M281 -436l292 658l-217 582q-24 31 -60 48.5t-75 17.5v30q47 0 89.5 -21.5t71.5 -59.5l208 -558l281 630l28 -12l-293 -659l218 -582q24 -31 59 -48t75 -17v-30q-48 0 -89.5 21t-70.5 59l-209 558l-280 -629z" />
    <glyph glyph-name="psi" unicode="&#x3c8;" horiz-adv-x="1327" 
d="M678 1179v-1164q86 3 161.5 37.5t131.5 92.5t88 134t32 163v443h30v-443q0 -93 -34.5 -174.5t-94.5 -143t-141 -98.5t-173 -40v-428h-30v428q-92 3 -172.5 40t-140.5 98.5t-94.5 143t-34.5 174.5v443h30v-443q0 -87 32 -163t88 -134t131 -92.5t161 -37.5v1164h30z" />
    <glyph glyph-name="omega" unicode="&#x3c9;" horiz-adv-x="1474" 
d="M309 880q-82 -226 -82 -462q0 -79 9 -158q0 -51 19 -95.5t52 -77.5t77.5 -52.5t94.5 -19.5q51 0 95 19t77 52t52 77.5t19 94.5v184h30v-184q0 -50 19 -94.5t52 -77.5t77.5 -52t94.5 -19q51 0 95 19.5t77 52.5t52 77.5t19 95.5q9 79 9 158q0 236 -82 462l28 10
q84 -230 84 -472q0 -38 -2.5 -81t-6.5 -81q0 -56 -21.5 -105.5t-58.5 -86t-86.5 -58t-106.5 -21.5q-45 0 -85.5 13.5t-74.5 38t-59 58.5t-39 74q-14 -40 -39.5 -74t-59 -58.5t-74 -38t-85.5 -13.5q-56 0 -105.5 21.5t-86.5 58t-59 86t-22 105.5q-5 39 -7 80.5t-2 81.5
q0 242 84 472z" />
    <glyph glyph-name="afii10023" unicode="&#x401;" 
d="M280 1695v74h30v-74h-30zM752 1769v-74h-30v74h30zM811 -13h-605v1355h605v-30h-575v-560h427v-29h-427v-709h575v-27z" />
    <glyph glyph-name="afii10017" unicode="&#x410;" horiz-adv-x="1327" 
d="M1120 4l-28 -7l-120 357h-617l-120 -357l-28 7l441 1323h31zM963 383l-300 898l-299 -898h599z" />
    <glyph glyph-name="afii10018" unicode="&#x411;" horiz-adv-x="1179" 
d="M236 752h354q79 0 149 -30t122 -82t82 -122t30 -149q0 -80 -30 -149.5t-82 -122t-122 -82.5t-149 -30h-384v1357h605v-30h-575v-560zM236 722v-707h354q73 0 137.5 27.5t112.5 75.5t75.5 112.5t27.5 138.5q0 73 -27.5 137.5t-75.5 112.5t-112.5 75.5t-137.5 27.5h-354z
" />
    <glyph glyph-name="afii10019" unicode="&#x412;" horiz-adv-x="1179" 
d="M900 1032q0 -51 -15.5 -97.5t-43.5 -85t-66.5 -67t-84.5 -44.5q61 -17 112.5 -51.5t89.5 -83.5t59.5 -108.5t21.5 -125.5q0 -80 -30 -149.5t-82 -122t-122 -82.5t-149 -30h-384v1357h384q64 0 120.5 -24.5t98.5 -66.5t66.5 -98.5t24.5 -120.5zM236 722v-707h354
q73 0 137.5 27.5t112.5 75.5t75.5 112.5t27.5 138.5q0 73 -27.5 137.5t-75.5 112.5t-112.5 75.5t-137.5 27.5h-354zM236 752h354q58 0 109 22t89 60t60 89t22 109t-22 109t-60 89t-89 60t-109 22h-354v-560z" />
    <glyph glyph-name="afii10020" unicode="&#x413;" 
d="M206 0v1342h605v-30h-575v-1312h-30z" />
    <glyph glyph-name="afii10021" unicode="&#x414;" horiz-adv-x="1327" 
d="M206 -147v162h149l147 1327h471v-1327h148v-162h-30v132h-855v-132h-30zM386 15h557v1297h-414z" />
    <glyph glyph-name="afii10022" unicode="&#x415;" 
d="M811 -13h-605v1355h605v-30h-575v-560h427v-29h-427v-709h575v-27z" />
    <glyph glyph-name="afii10024" unicode="&#x416;" horiz-adv-x="1474" 
d="M208 7l365 729l-365 583l26 16l364 -583h124v575h30v-575h124q91 147 182 291.5t182 291.5l26 -16l-364 -584l364 -728l-26 -14l-364 729h-124v-722h-30v722h-123l-365 -729z" />
    <glyph glyph-name="afii10025" unicode="&#x417;" horiz-adv-x="1106" 
d="M442 752h148q58 0 109 22t89 60t60 89t22 109t-22 109t-60 89t-89 60t-109 22q-8 0 -15.5 0.5t-15.5 0.5q-86 0 -169.5 -19t-162.5 -55l-12 28q163 76 344 76q8 0 15.5 -0.5t15.5 -0.5q64 0 120.5 -24.5t98.5 -66.5t66.5 -98.5t24.5 -120.5q0 -57 -19 -107.5t-53 -90.5
t-79.5 -68t-99.5 -38q55 -21 101 -56.5t79.5 -82t52 -103t18.5 -117.5q0 -80 -30.5 -149.5t-82.5 -122t-122 -82.5t-149 -30q-159 2 -302 76l14 26q67 -35 140 -53t148 -19q73 0 137.5 27.5t112.5 75.5t76 112.5t28 138.5q0 73 -28 137.5t-76 112.5t-112.5 75.5t-137.5 27.5
h-74v30z" />
    <glyph glyph-name="afii10026" unicode="&#x418;" horiz-adv-x="1179" 
d="M206 1327h29v-1270l706 1270h32v-1327h-30v1270l-705 -1270h-32v1327z" />
    <glyph glyph-name="afii10027" unicode="&#x419;" horiz-adv-x="1179" 
d="M206 1327h29v-1270l706 1270h32v-1327h-30v1270l-705 -1270h-32v1327zM442 1637h295v-30h-295v30z" />
    <glyph glyph-name="afii10028" unicode="&#x41a;" horiz-adv-x="1187" 
d="M971 7l-25 -13l-443 811l-267 -295v-510h-30v1327h30v-773l712 783l21 -19l-444 -490z" />
    <glyph glyph-name="afii10029" unicode="&#x41b;" horiz-adv-x="1179" 
d="M207 4l372 1338h394v-1342h-30v1312h-342l-366 -1316z" />
    <glyph glyph-name="afii10030" unicode="&#x41c;" horiz-adv-x="1327" 
d="M1120 0h-29v1273l-428 -711l-427 711v-1273h-30v1327h32l425 -709l426 709h31v-1327z" />
    <glyph glyph-name="afii10031" unicode="&#x41d;" horiz-adv-x="1179" 
d="M973 0h-29v723h-708v-723h-30v1327h30v-575h708v575h29v-1327z" />
    <glyph glyph-name="afii10032" unicode="&#x41e;" horiz-adv-x="1180" 
d="M973 369q0 -160 -112 -271q-113 -111 -272 -111q-160 0 -272 111q-111 111 -111 271v589q0 159 111 272q112 112 272 112t272 -112t112 -272v-589zM944 369v589q0 146 -104 250t-251 104t-250 -103t-103 -251v-589q0 -149 103 -252t250 -103q148 0 251 103
q104 104 104 252z" />
    <glyph glyph-name="afii10033" unicode="&#x41f;" horiz-adv-x="1179" 
d="M206 0v1342h767v-1342h-30v1312h-707v-1312h-30z" />
    <glyph glyph-name="afii10034" unicode="&#x420;" horiz-adv-x="1179" 
d="M206 0v1342h384q79 0 149 -30t122 -82.5t82 -122.5t30 -149t-30 -149t-82 -122t-122 -82t-149 -30h-354v-575h-30zM236 605h354q73 0 137.5 27.5t112.5 75.5t75.5 112.5t27.5 137.5t-27.5 137.5t-75.5 112.5t-112.5 76t-137.5 28h-354v-707z" />
    <glyph glyph-name="afii10035" unicode="&#x421;" 
d="M811 -13h-222q-182 0 -282 100q-101 101 -101 282v589q0 181 101 282q102 102 282 102h222v-30h-222q-170 0 -261.5 -91.5t-91.5 -262.5v-589q0 -84 23.5 -150t69 -111.5t111 -69.5t149.5 -24h222v-27z" />
    <glyph glyph-name="afii10036" unicode="&#x422;" horiz-adv-x="1179" 
d="M575 0v1312h-354v30h737v-30h-353v-1312h-30z" />
    <glyph glyph-name="afii10037" unicode="&#x423;" horiz-adv-x="1179" 
d="M295 15h442q43 0 80.5 16t65.5 44t44 65.5t16 80.5v354h-353q-80 0 -149.5 30t-122 82t-82.5 122t-30 149v369h30v-369q0 -73 27.5 -137.5t75.5 -112.5t112.5 -75.5t138.5 -27.5h353v722h30v-1106q0 -49 -18.5 -92t-50.5 -75t-75 -50.5t-92 -18.5h-442v30z" />
    <glyph glyph-name="afii10038" unicode="&#x424;" horiz-adv-x="1474" 
d="M626 280q-87 0 -163.5 33t-133.5 90t-90 133.5t-33 163.5t33 163.5t90 134t133.5 90.5t163.5 33h96v206h30v-206h96q87 0 163.5 -33t133.5 -90.5t90 -134t33 -163.5t-33 -163.5t-90 -133.5t-133.5 -90t-163.5 -33h-96v-280h-30v280h-96zM752 1091v-781h96q81 0 152 30.5
t124 83.5t83.5 124t30.5 152t-30.5 152t-83.5 124.5t-124 84t-152 30.5h-96zM722 310v781h-96q-81 0 -152 -30.5t-124 -84t-83.5 -124.5t-30.5 -152t30.5 -152t83.5 -124t124 -83.5t152 -30.5h96z" />
    <glyph glyph-name="afii10039" unicode="&#x425;" horiz-adv-x="1327" 
d="M1118 8l-25 -15l-430 644l-430 -644l-24 15l437 655l-437 655l24 18l430 -646l430 646l25 -18l-437 -655z" />
    <glyph glyph-name="afii10040" unicode="&#x426;" horiz-adv-x="1327" 
d="M236 1327v-1312h707v1312h30v-1312h148v-310h-30v280h-885v1342h30z" />
    <glyph glyph-name="afii10041" unicode="&#x427;" horiz-adv-x="1179" 
d="M943 0v575h-353q-80 0 -149.5 30t-122 82t-82.5 122t-30 149v369h30v-369q0 -73 27.5 -137.5t75.5 -112.5t112.5 -75.5t138.5 -27.5h353v722h30v-1327h-30z" />
    <glyph glyph-name="afii10042" unicode="&#x428;" horiz-adv-x="1474" 
d="M752 1327v-1312h486v1312h30v-1342h-1062v1342h30v-1312h486v1312h30z" />
    <glyph glyph-name="afii10043" unicode="&#x429;" horiz-adv-x="1622" 
d="M206 1327h30v-1312h486v1312h30v-1312h486v1312h30v-1312h148v-310h-30v280h-1180v1342z" />
    <glyph glyph-name="afii10044" unicode="&#x42a;" horiz-adv-x="1474" 
d="M221 1342h310v-590h354q79 0 149 -30t122 -82t82 -122t30 -149q0 -80 -30 -149.5t-82 -122t-122 -82.5t-149 -30h-384v1327h-280v30zM531 722v-707h354q73 0 137.5 27.5t112.5 75.5t75.5 112.5t27.5 138.5q0 73 -27.5 137.5t-75.5 112.5t-112.5 75.5t-137.5 27.5h-354z
" />
    <glyph glyph-name="afii10045" unicode="&#x42b;" horiz-adv-x="1327" 
d="M236 1327v-575h206q79 0 149 -30t122.5 -82t82.5 -122t30 -149q0 -80 -30 -149.5t-82.5 -122t-122.5 -82.5t-149 -30h-236v1342h30zM236 722v-707h206q73 0 137.5 27.5t112.5 75.5t76 112.5t28 138.5q0 73 -28 137.5t-76 112.5t-112.5 75.5t-137.5 27.5h-206zM1091 0
v1327h30v-1327h-30z" />
    <glyph glyph-name="afii10046" unicode="&#x42c;" horiz-adv-x="1179" 
d="M236 1327v-575h354q79 0 149 -30t122 -82t82 -122t30 -149q0 -80 -30 -149.5t-82 -122t-122 -82.5t-149 -30h-384v1342h30zM236 722v-707h354q73 0 137.5 27.5t112.5 75.5t75.5 112.5t27.5 138.5q0 73 -27.5 137.5t-75.5 112.5t-112.5 75.5t-137.5 27.5h-354z" />
    <glyph glyph-name="afii10047" unicode="&#x42d;" horiz-adv-x="1179" 
d="M516 752h427v206q0 73 -27.5 137.5t-75.5 112.5t-112.5 76t-137.5 28h-369v30h369q79 0 149 -30t122 -82.5t82 -122.5t30 -149v-589q0 -80 -30 -149.5t-82 -122t-122 -82.5t-149 -30h-369v30h369q73 0 137.5 27.5t112.5 75.5t75.5 112.5t27.5 138.5v353h-427v30z" />
    <glyph glyph-name="afii10048" unicode="&#x42e;" horiz-adv-x="1474" 
d="M206 0v1327h30v-575h412v280q0 64 24.5 120.5t66.5 98.5t98.5 66.5t120.5 24.5t120.5 -24.5t98.5 -66.5t66.5 -98.5t24.5 -120.5v-737q0 -64 -24.5 -120.5t-66.5 -98.5t-98.5 -66.5t-120.5 -24.5t-120.5 24.5t-98.5 66.5t-66.5 98.5t-24.5 120.5v427h-412v-722h-30z
M1238 1032q0 58 -22 109t-60 89t-89 60t-109 22t-109 -22t-89 -60t-60 -89t-22 -109v-737q0 -58 22 -109t60 -89t89 -60t109 -22t109 22t89 60t60 89t22 109v737z" />
    <glyph glyph-name="afii10049" unicode="&#x42f;" horiz-adv-x="1180" 
d="M208 8l355 568q-75 5 -140 37t-113.5 83.5t-76 118.5t-27.5 143q0 79 30 149t82.5 122.5t122 82.5t149.5 30h383v-1342h-30v575h-344l-365 -583zM943 605v707h-353q-74 0 -138.5 -28t-112.5 -76t-75.5 -112.5t-27.5 -137.5t27.5 -137.5t75.5 -112.5t112.5 -75.5
t138.5 -27.5h353z" />
    <glyph glyph-name="afii10065" unicode="&#x430;" horiz-adv-x="1253" 
d="M826 900v-679v-9q1 -41 18 -77t45 -62.5t64.5 -42t78.5 -15.5v-30q-38 0 -72.5 11.5t-63 31.5t-50.5 48.5t-35 61.5q-13 -33 -35 -61.5t-51 -48.5t-63.5 -31.5t-71.5 -11.5h-148q-49 0 -92 18.5t-75 50.5t-50.5 75t-18.5 92v442q0 49 18.5 92t50.5 75.5t75 51t92 18.5
h384zM796 870h-354q-43 0 -80.5 -16t-65.5 -44t-44 -66t-16 -81v-442q0 -43 16 -80.5t44 -65.5t65.5 -44t80.5 -16h148q42 0 78.5 15.5t64 42t44.5 62.5t19 77v9v649z" />
    <glyph glyph-name="afii10066" unicode="&#x431;" 
d="M811 1312h-556l419 -454l-1 -1q34 -20 62 -48.5t48.5 -63t31.5 -74t11 -81.5v-295q0 -64 -24.5 -120.5t-66.5 -98.5t-98.5 -66.5t-120.5 -24.5t-120.5 24.5t-98.5 66.5t-66.5 98.5t-24.5 120.5v295q0 64 24.5 120.5t66.5 98.5t98.5 66.5t120.5 24.5q46 0 91 -14l-420 456
h624v-30zM236 295q0 -58 22 -109t60 -89t89 -60t109 -22t109 22t89 60t60 89t22 109v295q0 58 -22 109t-60 89t-89 60t-109 22t-109 -22t-89 -60t-60 -89t-22 -109v-295z" />
    <glyph glyph-name="afii10067" unicode="&#x432;" 
d="M206 1143q0 33 10.5 64t30 56.5t47 44t60.5 27.5q27 7 51 7q54 0 99.5 -26t73.5 -73q27 -47 27 -101q0 -39 -14.5 -75.5t-43.5 -65.5l-113 -112q41 11 82 11q64 0 120.5 -24.5t98.5 -66.5t66.5 -98.5t24.5 -120.5v-295q0 -64 -24.5 -120.5t-66.5 -98.5t-98.5 -66.5
t-120.5 -24.5t-120.5 24.5t-98.5 66.5t-66.5 98.5t-24.5 120.5v848zM236 295q0 -58 22 -109t60 -89t89 -60t109 -22t109 22t89 60t60 89t22 109v295q0 58 -22 109t-60 89t-89 60t-109 22q-38 0 -72 -9t-64 -26l-18 -18l-4 4q-56 -38 -89 -98.5t-33 -132.5v-295zM525 1023
q24 24 37 55t13 64q0 22 -5.5 43.5t-17.5 41.5q-24 41 -63 63t-84 22q-19 0 -43 -6v1q-28 -8 -51.5 -23.5t-40 -37t-25.5 -48t-9 -55.5v-421q39 85 121 134z" />
    <glyph glyph-name="afii10068" unicode="&#x433;" horiz-adv-x="958" 
d="M250 824q61 38 130.5 57.5t142.5 19.5h15.5t15.5 -1q29 -1 56 -11t49 -27.5t38 -41t24 -51.5q5 -22 5 -41q0 -47 -24.5 -88t-68.5 -63l1 1l-331 -221h1q-38 -28 -59.5 -69t-21.5 -86q0 -33 14 -70q22 -54 70 -86.5t105 -32.5h12.5t14.5 2q77 1 150.5 19t140.5 53l14 -26
q-141 -74 -299 -76q-8 -2 -16.5 -2h-16.5q-33 0 -64 10.5t-57.5 28.5t-47.5 43t-34 55q-8 20 -12 41t-4 41q0 52 24 99.5t69 79.5l335 223q35 18 55 51.5t20 72.5q0 13 -5 35v-1q-12 48 -50.5 78t-88.5 30q-8 1 -15 1h-14q-69 0 -134 -18t-123 -55z" />
    <glyph glyph-name="afii10069" unicode="&#x434;" 
d="M369 1342h221q49 0 92 -18.5t75 -50.5t50.5 -75t18.5 -92v-811q0 -64 -24.5 -120.5t-66.5 -98.5t-98.5 -66.5t-120.5 -24.5t-120.5 24.5t-98.5 66.5t-66.5 98.5t-24.5 120.5v295q0 64 24.5 120.5t66.5 98.5t98.5 66.5t120.5 24.5q46 0 88.5 -13t79 -36.5t65 -56.5
t47.5 -72v384q0 43 -16 80.5t-44 65.5t-65.5 44t-80.5 16h-221v30zM796 601q-2 56 -25 105t-60.5 85.5t-87.5 57.5t-107 21q-58 0 -109 -22t-89 -60t-60 -89t-22 -109v-295q0 -58 22 -109t60 -89t89 -60t109 -22t109 22t89 60t60 89t22 109v306z" />
    <glyph glyph-name="afii10070" unicode="&#x435;" 
d="M826 427h-590v-132q0 -169 67 -230q55 -51 191 -51h317v-27h-317q-147 0 -211 57q-77 69 -77 251v294q0 129 90 219q91 91 220 91t219 -91q91 -90 91 -219v-162zM796 457v132q0 117 -82 199q-81 82 -198 82t-199 -82q-81 -83 -81 -199v-132h560z" />
    <glyph glyph-name="afii10072" unicode="&#x436;" horiz-adv-x="1327" 
d="M209 8l290 434q-72 109 -145 217.5t-145 217.5l24 16l290 -436h125v428h30v-428h126l290 436l24 -16l-290 -435l290 -434l-24 -16l-291 435h-125v-427h-30v427h-125l-290 -435z" />
    <glyph glyph-name="afii10073" unicode="&#x437;" horiz-adv-x="958" 
d="M229 87q117 -73 254 -73h16t16 1q43 0 80.5 16t65.5 44t44.5 65.5t16.5 80.5q0 42 -15.5 78.5t-42.5 64t-63 44.5t-77 19h-8h-147v30h147h8q41 1 77 18t63 45t42.5 64.5t15.5 78.5q0 43 -16.5 81t-44.5 66t-65.5 44t-80.5 16q-8 1 -15 1h-14q-69 0 -134 -18t-123 -55
l-16 26q61 38 130.5 57.5t142.5 19.5h15.5t15.5 -1q48 -1 90.5 -20t75 -51t51 -75t18.5 -91q0 -38 -11.5 -72.5t-31.5 -63t-48.5 -50.5t-61.5 -35q33 -13 61.5 -35t48.5 -51t31.5 -63.5t11.5 -71.5q0 -48 -18.5 -90.5t-51 -74.5t-75 -51t-90.5 -20q-8 -1 -17 -1h-17
q-72 0 -140.5 19.5t-129.5 57.5z" />
    <glyph glyph-name="afii10074" unicode="&#x438;" 
d="M236 885v-664q0 -43 16 -80.5t44 -65.5t65.5 -44t80.5 -16h354v870h30v-900h-384q-49 0 -92 18.5t-75 50.5t-50.5 75t-18.5 92v664h30z" />
    <glyph glyph-name="afii10075" unicode="&#x439;" 
d="M236 885v-664q0 -43 16 -80.5t44 -65.5t65.5 -44t80.5 -16h354v870h30v-900h-384q-49 0 -92 18.5t-75 50.5t-50.5 75t-18.5 92v664h30zM369 1342h294v-30h-294v30z" />
    <glyph glyph-name="afii10076" unicode="&#x43a;" 
d="M206 0v885h30v-553l564 564l22 -22l-360 -360l361 -505l-24 -18l-359 501l-204 -204v-288h-30z" />
    <glyph glyph-name="afii10077" unicode="&#x43b;" 
d="M207 5l298 895h321v-900h-30v870h-269q-73 -221 -146 -437.5t-146 -437.5z" />
    <glyph glyph-name="afii10078" unicode="&#x43c;" horiz-adv-x="1179" 
d="M206 0v882h37l347 -416l345 416h38v-882h-30v842q-88 -106 -177.5 -213t-175.5 -211l-354 425v-843h-30z" />
    <glyph glyph-name="afii10079" unicode="&#x43d;" 
d="M206 0v885h30v-428h560v428h30v-885h-30v427h-560v-427h-30z" />
    <glyph glyph-name="afii10080" unicode="&#x43e;" 
d="M826 295q0 -129 -91 -219q-92 -89 -219 -89q-128 0 -220 89q-90 90 -90 219v294q0 129 90 219q91 91 220 91t219 -91q91 -90 91 -219v-294zM796 295v294q0 117 -82 199q-81 82 -198 82t-199 -82q-81 -83 -81 -199v-294q0 -117 81 -199q82 -82 199 -82t198 82
q82 82 82 199z" />
    <glyph glyph-name="afii10081" unicode="&#x43f;" 
d="M206 0v900h384q49 0 92 -18.5t75 -51t50.5 -75.5t18.5 -92v-663h-30v663q0 43 -16 81t-44 66t-65.5 44t-80.5 16h-354v-870h-30z" />
    <glyph glyph-name="afii10082" unicode="&#x440;" 
d="M206 -442v1342h384q49 0 92 -18.5t75 -51t50.5 -75.5t18.5 -92v-442q0 -49 -18.5 -92t-50.5 -75t-75 -50.5t-92 -18.5h-354v-427h-30zM236 15h354q43 0 80.5 16t65.5 44t44 65.5t16 80.5v442q0 43 -16 81t-44 66t-65.5 44t-80.5 16h-354v-855z" />
    <glyph glyph-name="afii10083" unicode="&#x441;" horiz-adv-x="885" 
d="M663 870h-221q-43 0 -80.5 -16t-65.5 -44t-44 -66t-16 -81v-442q0 -43 16 -80.5t44 -65.5t65.5 -44t80.5 -16h221v-30h-221q-49 0 -92 18.5t-75 50.5t-50.5 75t-18.5 92v442q0 49 18.5 92t50.5 75.5t75 51t92 18.5h221v-30z" />
    <glyph glyph-name="afii10084" unicode="&#x442;" horiz-adv-x="1327" 
d="M648 0v870h-412v-870h-30v900h679q49 0 92 -18.5t75 -51t50.5 -75.5t18.5 -92v-663h-30v663q0 43 -16 81t-44 66t-65.5 44t-80.5 16h-207v-870h-30z" />
    <glyph glyph-name="afii10085" unicode="&#x443;" 
d="M826 885v-1106q0 -49 -18.5 -92t-50.5 -75t-75 -50.5t-92 -18.5h-295v30h295q43 0 80.5 16t65.5 44t44 65.5t16 80.5v206h-354q-49 0 -92 18.5t-75 50.5t-50.5 75t-18.5 92v664h30v-664q0 -43 16 -80.5t44 -65.5t65.5 -44t80.5 -16h354v870h30z" />
    <glyph glyph-name="afii10086" unicode="&#x444;" horiz-adv-x="1327" 
d="M648 -442v428q-92 3 -172.5 40t-140.5 98.5t-94.5 143t-34.5 174.5t34.5 174.5t94.5 143.5t140.5 99t172.5 40v280h30v-280q92 -3 173 -40t141 -99t94.5 -143.5t34.5 -174.5t-34.5 -174.5t-94.5 -143t-141 -98.5t-173 -40v-428h-30zM1091 442q0 87 -32 163t-88 134
t-131.5 92.5t-161.5 37.5v-854q86 3 161.5 37.5t131.5 92.5t88 134t32 163zM236 442q0 -87 32 -163t88 -134t131 -92.5t161 -37.5v854q-86 -3 -161 -37.5t-131 -92.5t-88 -134t-32 -163z" />
    <glyph glyph-name="afii10087" unicode="&#x445;" 
d="M233 893l283 -425l283 425l24 -16l-290 -435l290 -434l-24 -16l-283 424l-283 -424l-24 16l289 434l-289 435z" />
    <glyph glyph-name="afii10088" unicode="&#x446;" horiz-adv-x="1179" 
d="M442 -15q-49 0 -92 18.5t-75 50.5t-50.5 75t-18.5 92v664h30v-664q0 -43 16 -80.5t44 -65.5t65.5 -44t80.5 -16h354v870h30v-870h147v-236h-30v206h-501v0z" />
    <glyph glyph-name="afii10089" unicode="&#x447;" 
d="M826 885v-885h-30v427h-354q-49 0 -92 18.5t-75 50.5t-50.5 75t-18.5 92v222h30v-222q0 -43 16 -80.5t44 -65.5t65.5 -44t80.5 -16h354v428h30z" />
    <glyph glyph-name="afii10090" unicode="&#x448;" horiz-adv-x="1327" 
d="M678 885v-870h413v870h30v-900h-679q-49 0 -92 18.5t-75 50.5t-50.5 75t-18.5 92v664h30v-664q0 -43 16 -80.5t44 -65.5t65.5 -44t80.5 -16h206v870h30z" />
    <glyph glyph-name="afii10091" unicode="&#x449;" horiz-adv-x="1474" 
d="M442 -15q-49 0 -92 18.5t-75 50.5t-50.5 75t-18.5 92v664h30v-664q0 -43 16 -80.5t44 -65.5t65.5 -44t80.5 -16h206v870h30v-870h413v870h30v-870h147v-236h-30v206h-796v0z" />
    <glyph glyph-name="afii10092" unicode="&#x44a;" horiz-adv-x="1179" 
d="M221 900h163v-443h353q49 0 92 -18.5t75 -50.5t50.5 -75t18.5 -92t-18.5 -92t-50.5 -75t-75 -50.5t-92 -18.5h-383v885h-133v30zM384 427v-412h353q43 0 80.5 16t65.5 44t44 65.5t16 80.5t-16 80.5t-44 65.5t-65.5 44t-80.5 16h-353z" />
    <glyph glyph-name="afii10093" unicode="&#x44b;" horiz-adv-x="1179" 
d="M236 885v-428h206q49 0 92 -18.5t75 -50.5t50.5 -75t18.5 -92t-18.5 -92t-50.5 -75t-75 -50.5t-92 -18.5h-236v900h30zM236 427v-412h206q43 0 80.5 16t65.5 44t44 65.5t16 80.5t-16 80.5t-44 65.5t-65.5 44t-80.5 16h-206zM943 0v885h30v-885h-30z" />
    <glyph glyph-name="afii10094" unicode="&#x44c;" 
d="M236 885v-428h354q49 0 92 -18.5t75 -50.5t50.5 -75t18.5 -92t-18.5 -92t-50.5 -75t-75 -50.5t-92 -18.5h-384v900h30zM236 427v-412h354q43 0 80.5 16t65.5 44t44 65.5t16 80.5t-16 80.5t-44 65.5t-65.5 44t-80.5 16h-354z" />
    <glyph glyph-name="afii10095" unicode="&#x44d;" 
d="M516 457h280v206q0 43 -16 81t-44 66t-65.5 44t-80.5 16h-369v30h369q49 0 92 -18.5t75 -51t50.5 -75.5t18.5 -92v-442q0 -49 -18.5 -92t-50.5 -75t-75 -50.5t-92 -18.5h-369v30h369q43 0 80.5 16t65.5 44t44 65.5t16 80.5v206h-280v30z" />
    <glyph glyph-name="afii10096" unicode="&#x44e;" horiz-adv-x="1253" 
d="M206 0v885h30v-428h339v206q0 49 18.5 92t50.5 75.5t75 51t92 18.5t92 -18.5t75 -51t50.5 -75.5t18.5 -92v-442q0 -49 -18.5 -92t-50.5 -75t-75 -50.5t-92 -18.5t-92 18.5t-75 50.5t-50.5 75t-18.5 92v206h-339v-427h-30zM1017 663q0 43 -16 81t-44 66t-65.5 44t-80.5 16
t-80.5 -16t-65.5 -44t-44 -66t-16 -81v-442q0 -43 16 -80.5t44 -65.5t65.5 -44t80.5 -16t80.5 16t65.5 44t44 65.5t16 80.5v442z" />
    <glyph glyph-name="afii10097" unicode="&#x44f;" 
d="M209 8l279 419h-46q-49 0 -92 18.5t-75 50.5t-50.5 75t-18.5 92t18.5 92t50.5 75.5t75 51t92 18.5h384v-900h-30v427h-273l-290 -435zM236 663q0 -43 16 -80.5t44 -65.5t65.5 -44t80.5 -16h354v413h-354q-43 0 -80.5 -16t-65.5 -44t-44 -66t-16 -81z" />
    <glyph glyph-name="afii10071" unicode="&#x451;" 
d="M752 1254h-29v73h29v-73zM310 1254h-30v73h30v-73zM826 427h-590v-132q0 -169 67 -230q55 -51 191 -51h317v-27h-317q-147 0 -211 57q-77 69 -77 251v294q0 129 90 219q91 91 220 91t219 -91q91 -90 91 -219v-162zM796 457v132q0 117 -82 199q-81 82 -198 82t-199 -82
q-81 -83 -81 -199v-132h560z" />
    <glyph glyph-name="underscoredbl" unicode="&#x2017;" 
d="M216 235l551 207q-138 51 -275.5 103.5t-275.5 103.5l10 28l628 -235l-628 -235zM221 199h590v-30h-590v30z" />
    <glyph glyph-name="uni21A7" unicode="&#x21a7;" horiz-adv-x="1695" 
d="M221 1342h1253v-30h-611v-1261l451 694l26 -16l-492 -757l-492 757l26 16l451 -694v1261h-612v30z" />
    <glyph glyph-name="radical" unicode="&#x221a;" horiz-adv-x="1106" 
d="M235 926l317 -949l469 1697h932v-30h-910q-57 -208 -117 -423t-120 -431.5t-119.5 -432t-116.5 -424.5h-36l-327 983z" />
    <glyph glyph-name="infinity" unicode="&#x221e;" horiz-adv-x="1474" 
d="M206 663q0 57 21.5 106.5t58.5 86.5t87 58.5t106 21.5q45 0 85.5 -13.5t74 -38t59 -58.5t39.5 -74q14 40 39 74t59 58.5t74.5 38t85.5 13.5q57 0 106.5 -21.5t86.5 -58.5t58.5 -86.5t21.5 -106.5q0 -56 -21.5 -105.5t-58.5 -86.5t-86.5 -58.5t-106.5 -21.5
q-45 0 -85.5 13.5t-74.5 38t-59 58t-39 73.5q-14 -40 -39.5 -73.5t-59 -58t-74 -38t-85.5 -13.5q-56 0 -106 21.5t-87 58.5t-58.5 86.5t-21.5 105.5zM752 653q2 -49 21.5 -91t52.5 -73.5t76.5 -49.5t92.5 -18q51 0 95 19t77 52t52 77t19 94q0 51 -19 95t-52 77t-77 52
t-95 19q-50 0 -94.5 -19t-77.5 -52t-52 -77t-19 -95v-10zM236 663q0 -50 19 -94t52 -77t77.5 -52t94.5 -19q49 0 92.5 18t76.5 49.5t52.5 73.5t21.5 91v10v10q-2 49 -21.5 91.5t-52.5 74t-76.5 49.5t-92.5 18q-50 0 -94.5 -19t-77.5 -52t-52 -77t-19 -95z" />
    <glyph glyph-name="lessequal" unicode="&#x2264;" 
d="M816 649l-551 -207q138 -51 275.5 -103.5t275.5 -103.5l-10 -28l-628 235l628 235zM811 169h-590v30h590v-30z" />
    <glyph glyph-name="greaterequal" unicode="&#x2265;" 
d="M216 235l551 207q-138 51 -275.5 103.5t-275.5 103.5l10 28l628 -235l-628 -235zM221 199h590v-30h-590v30z" />
    <glyph glyph-name="perpendicular" unicode="&#x22a5;" horiz-adv-x="2211" 
d="M221 15h870v1312h30v-1312h869v-30h-1769v30z" />
    <glyph glyph-name="uni2300" unicode="&#x2300;" horiz-adv-x="1327" 
d="M1120 664q0 -192 -133 -325t-324 -133q-69 0 -130 19l-77 -228l-28 7l77 231q-137 50 -218 167q-81 118 -81 262q0 191 133 324q134 134 324 134q72 0 132 -19l75 229l29 -10l-76 -228q135 -50 216 -168q81 -117 81 -262zM1091 664q0 135 -76 244q-74 111 -201 158
l-271 -812q61 -18 120 -18q178 0 303 125t125 303zM786 1075q-62 18 -123 18q-178 0 -303 -125q-124 -124 -124 -304q0 -135 76 -244q76 -110 203 -157z" />
    <glyph glyph-name="uni2330" unicode="&#x2330;" horiz-adv-x="2764" 
d="M1578 1356l-320 -719l-189 189l-811 -811h951l833 833l-189 189l720 319l-320 -719l-189 189l-841 -841h-1039l863 863l-189 189zM1907 1027l336 -336l271 606zM1248 691l271 606l-607 -270z" />
    <glyph glyph-name="uni2332" unicode="&#x2332;" horiz-adv-x="3759" 
d="M221 678h316v741l2671 -741h330v-30h-330l-2671 -740v740h-316v30zM567 678h2531q-635 176 -1265 351.5t-1266 351.5v-703zM3097 648h-2530v-702z" />
    <glyph glyph-name="uni2333" unicode="&#x2333;" horiz-adv-x="3096" 
d="M206 -15v1144l2679 -1117l-5 -27h-2674zM236 1083v-1068h2562z" />
    <glyph glyph-name="uni2334" unicode="&#x2334;" horiz-adv-x="3096" 
d="M236 1327v-1312h2623v1312h30v-1342h-2683v1342h30z" />
    <glyph glyph-name="uni2335" unicode="&#x2335;" horiz-adv-x="3094" 
d="M232 1338l1316 -1316l1315 1316l22 -22l-1337 -1338l-1338 1338z" />
    <glyph glyph-name="H22073" unicode="&#x25a1;" horiz-adv-x="1327" 
d="M236 15h855v855h-855v-855zM1121 900v-915h-915v915h915z" />
    <glyph glyph-name="dollar" unicode="$" 
d="M826 369q0 -230 -295 -236v-133h-30v133q-159 4 -287 75l15 26q122 -68 272 -72v493q-88 51 -142 84.5t-76 53.5q-77 69 -77 165q0 230 295 236v133h30v-133q159 -4 287 -75l-14 -26q-123 67 -273 72v-490q45 -25 81.5 -46.5t67.5 -39.5q146 -86 146 -220zM501 691v474
q-265 -6 -265 -207q0 -84 65 -143q15 -14 65 -44.5t135 -79.5zM796 369q0 89 -64 147q-25 23 -136 87q-12 7 -28.5 16t-36.5 20v-477q265 4 265 207z" />
    <glyph glyph-name="uni0005" horiz-adv-x="1484" 
d="M1428 1356l-320 -719l-189 189l-910 -910l-25 20l913 912l-189 189zM1098 691l271 606l-607 -270z" />
  </font>
</defs>
</svg>
