<?xml version="1.0" encoding="utf-8"?>
<!-- Generator: Adobe Illustrator 15.1.0, SVG Export Plug-In . SVG Version: 6.00 Build 0)  -->
<!DOCTYPE svg PUBLIC "-//W3C//DTD SVG 1.1//EN" "http://www.w3.org/Graphics/SVG/1.1/DTD/svg11.dtd">
<svg version="1.1" id="Layer_1" xmlns="http://www.w3.org/2000/svg" xmlns:xlink="http://www.w3.org/1999/xlink" x="0px" y="0px"
	 width="436px" height="149.7px" viewBox="80 163.15 436 149.7" enable-background="new 80 163.15 436 149.7" xml:space="preserve">
<g transform="matrix( 1, 0, 0, 1, 0,0) ">
	<g>
		<g id="Layer1_0_FILL">
			<path fill="#2D0B44" d="M312.2,184.8l-2.15,0.65v1.5h-1.1v1.6h1.1v3.2c0,1.567,0.768,2.35,2.301,2.35
				c0.633,0,1.116-0.083,1.449-0.25v-1.6c-0.232,0.133-0.466,0.2-0.699,0.2c-0.601,0-0.9-0.367-0.9-1.1v-2.8h1.6v-1.6h-1.6V184.8
				 M317.65,184.8l-2.15,0.65v1.5h-1.1v1.6h1.1v3.2c0,1.567,0.767,2.35,2.3,2.35c0.634,0,1.117-0.083,1.45-0.25v-1.6
				c-0.233,0.133-0.467,0.2-0.7,0.2c-0.6,0-0.899-0.367-0.899-1.1v-2.8h1.6v-1.6h-1.6V184.8 M302.6,187.8
				c-0.667,0.667-1,1.583-1,2.75c0,1.133,0.316,2.017,0.949,2.65c0.601,0.6,1.467,0.9,2.601,0.9c1.033,0,1.883-0.167,2.55-0.5v-1.55
				c-0.6,0.367-1.283,0.55-2.05,0.55c-1.2,0-1.833-0.517-1.9-1.55h4.55v-0.9c0-1.033-0.283-1.85-0.85-2.45
				c-0.566-0.6-1.35-0.9-2.35-0.9S303.266,187.133,302.6,187.8 M305.1,188.25c0.8,0,1.199,0.5,1.199,1.5h-2.6
				c0.066-0.433,0.233-0.8,0.5-1.1C304.433,188.383,304.733,188.25,305.1,188.25 M326.7,191.05v-0.9c0-1.033-0.283-1.85-0.85-2.45
				c-0.567-0.6-1.351-0.9-2.351-0.9s-1.833,0.333-2.5,1c-0.666,0.667-1,1.583-1,2.75c0,1.133,0.317,2.017,0.95,2.65
				c0.6,0.6,1.467,0.9,2.6,0.9c1.034,0,1.884-0.167,2.551-0.5v-1.55c-0.601,0.367-1.283,0.55-2.051,0.55
				c-1.199,0-1.833-0.517-1.899-1.55H326.7 M322.1,189.75c0.066-0.433,0.233-0.8,0.5-1.1c0.233-0.267,0.533-0.4,0.899-0.4
				c0.8,0,1.2,0.5,1.2,1.5H322.1 M330.15,188.25h-0.05v-1.3h-2.15v7h2.15v-3.35c0-0.6,0.133-1.067,0.399-1.4
				c0.267-0.333,0.634-0.5,1.101-0.5c0.366,0,0.683,0.066,0.949,0.2v-2c-0.133-0.033-0.316-0.05-0.55-0.05
				C331.1,186.85,330.483,187.317,330.15,188.25 M300.6,190.25c0-1.067-0.25-1.917-0.75-2.55c-0.467-0.6-1.167-0.9-2.101-0.9
				c-0.967,0-1.717,0.4-2.25,1.2h-0.05v-4.4h-2.15v10.35h2.15v-0.8h0.05c0.434,0.633,1.084,0.95,1.95,0.95
				c0.967,0,1.733-0.35,2.3-1.05C300.317,192.35,300.6,191.417,300.6,190.25 M295.45,190.2c0-0.534,0.134-0.967,0.4-1.3
				c0.3-0.3,0.666-0.45,1.1-0.45c0.467,0,0.816,0.167,1.05,0.5c0.233,0.3,0.351,0.75,0.351,1.35c0,0.7-0.134,1.233-0.4,1.6
				s-0.65,0.55-1.15,0.55c-0.399,0-0.732-0.15-1-0.45c-0.232-0.267-0.35-0.633-0.35-1.1V190.2 M283.1,188
				c-0.167,0.267-0.25,0.6-0.25,1c0,0.3,0.033,0.55,0.1,0.75c0.1,0.2,0.217,0.383,0.35,0.55c0.134,0.167,0.317,0.317,0.551,0.45
				c0.199,0.1,0.433,0.2,0.699,0.3c0.167,0.067,0.351,0.133,0.551,0.2c0.199,0.067,0.366,0.133,0.5,0.2
				c0.166,0.066,0.3,0.133,0.399,0.2c0.101,0.1,0.15,0.217,0.15,0.35c0,0.233-0.117,0.4-0.351,0.5c-0.199,0.1-0.5,0.15-0.899,0.15
				c-0.3,0-0.634-0.05-1-0.15c-0.333-0.1-0.684-0.267-1.05-0.5v1.75c0.666,0.233,1.383,0.35,2.149,0.35c0.4,0,0.8-0.033,1.2-0.1
				c0.4-0.1,0.75-0.233,1.05-0.4c0.3-0.2,0.533-0.434,0.7-0.7c0.167-0.3,0.25-0.667,0.25-1.1c0-0.3-0.033-0.55-0.1-0.75
				c-0.101-0.233-0.233-0.417-0.4-0.55c-0.167-0.167-0.366-0.317-0.6-0.45c-0.233-0.1-0.483-0.2-0.75-0.3
				c-0.167-0.067-0.334-0.117-0.5-0.15c-0.167-0.067-0.317-0.133-0.45-0.2c-0.134-0.066-0.233-0.15-0.3-0.25
				c-0.101-0.066-0.15-0.167-0.15-0.3c0-0.1,0.033-0.184,0.1-0.25c0.067-0.1,0.134-0.167,0.2-0.2c0.101-0.066,0.217-0.1,0.351-0.1
				c0.133-0.033,0.267-0.05,0.399-0.05c0.3,0,0.617,0.033,0.95,0.1c0.3,0.1,0.583,0.233,0.85,0.4v-1.7
				c-0.3-0.1-0.616-0.167-0.949-0.2c-0.301-0.033-0.617-0.05-0.95-0.05c-0.4,0-0.783,0.034-1.15,0.1
				c-0.366,0.1-0.683,0.233-0.95,0.4C283.5,187.467,283.266,187.7,283.1,188 M279.3,193.95h2.15v-7h-2.15V193.95 M272.1,188.25
				h-0.051v-1.3H269.9v7h2.149v-3.35c0-0.6,0.134-1.067,0.4-1.4c0.267-0.333,0.634-0.5,1.1-0.5c0.367,0,0.684,0.066,0.95,0.2v-2
				c-0.133-0.033-0.316-0.05-0.55-0.05C273.05,186.85,272.433,187.317,272.1,188.25 M279.15,184.7c0,0.333,0.116,0.6,0.35,0.8
				c0.233,0.233,0.533,0.35,0.9,0.35c0.366,0,0.667-0.1,0.899-0.3c0.233-0.233,0.351-0.517,0.351-0.85c0-0.3-0.117-0.55-0.351-0.75
				c-0.232-0.233-0.533-0.35-0.899-0.35c-0.367,0-0.667,0.117-0.9,0.35C279.266,184.15,279.15,184.4,279.15,184.7 M262.95,187.8
				c-0.667,0.667-1,1.583-1,2.75c0,1.133,0.316,2.017,0.95,2.65c0.6,0.6,1.467,0.9,2.6,0.9c1.033,0,1.884-0.167,2.55-0.5v-1.55
				c-0.6,0.367-1.283,0.55-2.05,0.55c-1.2,0-1.833-0.517-1.899-1.55h4.55v-0.9c0-1.033-0.283-1.85-0.851-2.45
				c-0.566-0.6-1.35-0.9-2.35-0.9S263.617,187.133,262.95,187.8 M266.65,189.75h-2.601c0.067-0.433,0.233-0.8,0.5-1.1
				c0.233-0.267,0.534-0.4,0.9-0.4C266.25,188.25,266.65,188.75,266.65,189.75 M251,186.95v7h2.15v-3.35
				c0-0.6,0.133-1.067,0.399-1.4c0.268-0.333,0.634-0.5,1.101-0.5c0.366,0,0.684,0.066,0.95,0.2v-2
				c-0.134-0.033-0.317-0.05-0.551-0.05c-0.899,0-1.517,0.467-1.85,1.4h-0.05v-1.3H251 M249.65,190.35c0-1.067-0.316-1.934-0.95-2.6
				c-0.667-0.633-1.583-0.95-2.75-0.95c-1.2,0-2.133,0.317-2.8,0.95c-0.7,0.667-1.05,1.583-1.05,2.75c0,1.1,0.333,1.983,1,2.65
				c0.666,0.633,1.583,0.95,2.75,0.95c1.166,0,2.1-0.333,2.8-1C249.317,192.434,249.65,191.517,249.65,190.35 M245.9,188.45
				c1.033,0,1.55,0.65,1.55,1.95c0,1.367-0.517,2.05-1.55,2.05c-1.066,0-1.601-0.667-1.601-2c0-0.633,0.134-1.133,0.4-1.5
				C245,188.617,245.4,188.45,245.9,188.45 M259.6,184.8l-2.15,0.65v1.5h-1.1v1.6h1.1v3.2c0,1.567,0.767,2.35,2.3,2.35
				c0.634,0,1.117-0.083,1.45-0.25v-1.6c-0.233,0.133-0.467,0.2-0.7,0.2c-0.6,0-0.899-0.367-0.899-1.1v-2.8h1.6v-1.6h-1.6V184.8
				 M236.2,183.6h-2.15v10.35h2.15v-4c0-0.434,0.117-0.8,0.35-1.1c0.268-0.267,0.584-0.4,0.95-0.4c0.767,0,1.15,0.5,1.15,1.5v4
				h2.149v-4.3c0-1.9-0.8-2.85-2.399-2.85c-0.9,0-1.617,0.4-2.15,1.2h-0.05V183.6 M227.1,184.65c-0.367,0.267-0.65,0.583-0.851,0.95
				s-0.3,0.8-0.3,1.3c0,0.633,0.184,1.184,0.55,1.65c0.367,0.467,0.934,0.867,1.7,1.2c0.3,0.1,0.583,0.217,0.85,0.35
				c0.268,0.1,0.483,0.217,0.65,0.35c0.2,0.133,0.35,0.283,0.45,0.45c0.133,0.133,0.2,0.3,0.2,0.5c0,0.133-0.033,0.267-0.101,0.4
				c-0.066,0.1-0.183,0.2-0.35,0.3c-0.134,0.1-0.3,0.167-0.5,0.2c-0.2,0.067-0.45,0.1-0.75,0.1c-0.467,0-0.934-0.083-1.4-0.25
				s-0.899-0.417-1.3-0.75v2.15c0.367,0.2,0.8,0.35,1.3,0.45c0.467,0.067,0.967,0.1,1.5,0.1s1.033-0.05,1.5-0.15
				c0.467-0.1,0.884-0.25,1.25-0.45c0.367-0.233,0.65-0.533,0.851-0.9c0.199-0.4,0.3-0.867,0.3-1.4c0-0.4-0.05-0.75-0.15-1.05
				c-0.133-0.3-0.316-0.566-0.55-0.8c-0.2-0.233-0.467-0.434-0.8-0.6c-0.3-0.2-0.65-0.383-1.05-0.55
				c-0.267-0.1-0.517-0.217-0.75-0.35c-0.233-0.1-0.434-0.217-0.601-0.35c-0.166-0.1-0.283-0.217-0.35-0.35
				c-0.101-0.133-0.15-0.283-0.15-0.45c0-0.133,0.033-0.267,0.101-0.4c0.1-0.133,0.217-0.233,0.35-0.3c0.134-0.1,0.3-0.167,0.5-0.2
				c0.2-0.066,0.434-0.1,0.7-0.1c0.167,0,0.366,0.017,0.6,0.05c0.2,0.033,0.4,0.083,0.601,0.15c0.199,0.033,0.399,0.1,0.6,0.2
				s0.367,0.2,0.5,0.3v-2.05c-0.3-0.133-0.65-0.217-1.05-0.25c-0.4-0.067-0.851-0.1-1.351-0.1c-0.533,0-1.033,0.05-1.5,0.15
				C227.834,184.25,227.433,184.417,227.1,184.65 M308.75,168.15h-3.25v10.5h3.25V168.15 M303.85,166.65v-2.7h-11.7v2.7h4.2v12h3.3
				v-12H303.85 M307.15,166.5c0.566,0,1.017-0.167,1.35-0.5c0.334-0.3,0.5-0.7,0.5-1.2c0-0.466-0.166-0.867-0.5-1.2
				c-0.333-0.3-0.783-0.45-1.35-0.45c-0.533,0-0.983,0.15-1.351,0.45c-0.333,0.333-0.5,0.733-0.5,1.2c0,0.467,0.167,0.867,0.5,1.2
				C306.167,166.333,306.617,166.5,307.15,166.5 M252.6,168.15v2.4h1.699v4.8c0,2.367,1.15,3.55,3.45,3.55
				c0.967,0,1.684-0.117,2.15-0.35v-2.4c-0.367,0.167-0.717,0.25-1.05,0.25c-0.867,0-1.301-0.533-1.301-1.6v-4.25h2.351v-2.4h-2.351
				v-3.2l-3.25,0.95v2.25H252.6 M247.9,170.1h-0.05v-1.95h-3.25v10.5h3.25v-5c0-0.9,0.199-1.6,0.6-2.1c0.4-0.533,0.95-0.8,1.65-0.8
				c0.533,0,0.983,0.1,1.35,0.3v-2.95c-0.167-0.1-0.434-0.15-0.8-0.15C249.317,167.95,248.4,168.667,247.9,170.1 M271.7,168.15
				h-3.25v6c0,0.7-0.167,1.25-0.5,1.65c-0.366,0.4-0.833,0.6-1.4,0.6c-1.166,0-1.75-0.733-1.75-2.2v-6.05h-3.25v6.35
				c0,2.933,1.217,4.4,3.65,4.4c1.333,0,2.4-0.617,3.2-1.85h0.05v1.6h3.25V168.15 M281.05,167.9c-1.433,0-2.55,0.617-3.35,1.85
				h-0.05v-1.6h-3.25v15.35h3.25v-6.05h0.05c0.667,0.966,1.634,1.45,2.9,1.45c1.433,0,2.583-0.533,3.449-1.6
				c0.867-1.033,1.301-2.433,1.301-4.2c0-1.6-0.367-2.867-1.101-3.8C283.483,168.367,282.417,167.9,281.05,167.9 M279.85,170.4
				c1.433,0,2.149,0.917,2.149,2.75c0,1.033-0.2,1.833-0.6,2.4c-0.4,0.567-0.967,0.85-1.7,0.85c-0.633,0-1.133-0.217-1.5-0.65
				c-0.4-0.467-0.6-1.067-0.6-1.8v-0.85c0-0.8,0.217-1.45,0.649-1.95C278.65,170.65,279.183,170.4,279.85,170.4 M242.05,172.35
				c0-2.967-1.5-4.45-4.5-4.45c-0.633,0-1.333,0.083-2.1,0.25c-0.8,0.2-1.434,0.417-1.9,0.65v2.4c1.134-0.733,2.334-1.1,3.601-1.1
				c1.233,0,1.85,0.566,1.85,1.7l-2.85,0.4c-2.4,0.3-3.601,1.483-3.601,3.55c0,0.933,0.284,1.7,0.851,2.3
				c0.6,0.567,1.399,0.85,2.399,0.85c1.4,0,2.45-0.583,3.15-1.75H239v1.5h3.05V172.35 M239,173.7v0.7c0,0.633-0.183,1.167-0.55,1.6
				c-0.4,0.4-0.9,0.6-1.5,0.6c-0.434,0-0.783-0.117-1.05-0.35s-0.4-0.533-0.4-0.9c0-0.8,0.533-1.284,1.601-1.45L239,173.7
				 M225.9,168.15h-1.7v2.4h1.7v4.8c0,2.367,1.149,3.55,3.45,3.55c0.967,0,1.683-0.117,2.149-0.35v-2.4
				c-0.366,0.167-0.717,0.25-1.05,0.25c-0.866,0-1.3-0.533-1.3-1.6v-4.25h2.35v-2.4h-2.35v-3.2l-3.25,0.95V168.15 M328.15,172.1
				c0-2.8-1.15-4.2-3.45-4.2c-1.533,0-2.7,0.65-3.5,1.95c-0.566-1.3-1.583-1.95-3.05-1.95c-0.733,0-1.4,0.184-2,0.55
				c-0.601,0.333-1.066,0.783-1.4,1.35h-0.05v-1.65h-3.25v10.5h3.25v-5.85c0-0.733,0.167-1.316,0.5-1.75
				c0.333-0.433,0.783-0.65,1.35-0.65c1.101,0,1.65,0.733,1.65,2.2v6.05h3.2v-5.9c0-0.667,0.167-1.233,0.5-1.7
				c0.366-0.433,0.816-0.65,1.35-0.65c1.101,0,1.65,0.75,1.65,2.25v6h3.25V172.1 M335.35,167.9c-1.5,0-2.75,0.5-3.75,1.5
				c-1,1.033-1.5,2.417-1.5,4.15c0,1.7,0.467,3.017,1.399,3.95c0.934,0.933,2.25,1.4,3.95,1.4c1.533,0,2.783-0.25,3.75-0.75v-2.35
				c-0.866,0.534-1.866,0.8-3,0.8c-1.833,0-2.8-0.767-2.9-2.3h6.851v-1.35c0-1.567-0.417-2.8-1.25-3.7S336.884,167.9,335.35,167.9
				 M337.15,172.35H333.3c0.067-0.667,0.284-1.217,0.65-1.65c0.4-0.4,0.85-0.6,1.35-0.6C336.533,170.1,337.15,170.85,337.15,172.35
				 M222.95,167.35v-3.1c-0.5-0.167-1.05-0.3-1.65-0.4c-0.6-0.1-1.283-0.15-2.05-0.15s-1.5,0.083-2.2,0.25
				c-0.699,0.167-1.316,0.433-1.85,0.8c-0.533,0.333-0.95,0.783-1.25,1.35c-0.3,0.533-0.45,1.183-0.45,1.95
				c0,1,0.283,1.833,0.851,2.5c0.566,0.7,1.416,1.284,2.55,1.75c0.467,0.2,0.883,0.384,1.25,0.55c0.399,0.2,0.75,0.383,1.05,0.55
				c0.267,0.2,0.483,0.417,0.65,0.65c0.166,0.233,0.25,0.483,0.25,0.75c0,0.233-0.051,0.434-0.15,0.6c-0.1,0.2-0.25,0.367-0.45,0.5
				c-0.233,0.133-0.5,0.233-0.8,0.3c-0.3,0.066-0.667,0.1-1.1,0.1c-0.7,0-1.4-0.117-2.101-0.35c-0.7-0.267-1.35-0.65-1.95-1.15v3.3
				c0.534,0.267,1.167,0.467,1.9,0.6s1.5,0.2,2.3,0.2s1.55-0.066,2.25-0.2c0.7-0.167,1.317-0.417,1.851-0.75
				c0.533-0.367,0.949-0.817,1.25-1.35c0.333-0.567,0.5-1.267,0.5-2.1c0-0.567-0.101-1.083-0.301-1.55
				c-0.166-0.434-0.416-0.833-0.75-1.2c-0.333-0.333-0.732-0.633-1.199-0.9c-0.467-0.3-1-0.567-1.601-0.8
				c-0.433-0.2-0.816-0.383-1.149-0.55c-0.334-0.167-0.617-0.333-0.851-0.5c-0.267-0.167-0.467-0.35-0.6-0.55
				c-0.101-0.2-0.15-0.417-0.15-0.65c0-0.233,0.05-0.433,0.15-0.6c0.133-0.2,0.3-0.367,0.5-0.5s0.467-0.233,0.8-0.3
				c0.3-0.066,0.634-0.1,1-0.1c0.267,0,0.55,0.017,0.85,0.05c0.301,0.066,0.617,0.133,0.95,0.2c0.3,0.1,0.601,0.217,0.9,0.35
				C222.417,167,222.683,167.15,222.95,167.35 M273.3,286.15c-0.267-0.101-0.55-0.15-0.85-0.15s-0.566,0.05-0.8,0.15
				c-0.267,0.1-0.5,0.25-0.7,0.449c-0.167,0.167-0.3,0.367-0.4,0.601c-0.133,0.233-0.199,0.5-0.199,0.8c0,0.367,0.116,0.7,0.35,1
				c0.2,0.3,0.467,0.533,0.8,0.7c-0.233,0.1-0.433,0.216-0.6,0.35c-0.2,0.134-0.351,0.3-0.45,0.5c-0.133,0.167-0.233,0.351-0.3,0.55
				c-0.033,0.2-0.05,0.4-0.05,0.601c0,0.366,0.05,0.683,0.149,0.95c0.134,0.266,0.3,0.5,0.5,0.699c0.2,0.2,0.45,0.351,0.75,0.45
				c0.3,0.101,0.617,0.15,0.95,0.15c0.367,0,0.7-0.05,1-0.15c0.267-0.1,0.517-0.25,0.75-0.45c0.2-0.199,0.35-0.434,0.45-0.699
				c0.133-0.301,0.2-0.617,0.2-0.95c0-0.2-0.033-0.4-0.101-0.601c-0.066-0.199-0.149-0.383-0.25-0.55
				c-0.133-0.2-0.283-0.366-0.45-0.5c-0.199-0.134-0.399-0.25-0.6-0.35c0.167-0.101,0.316-0.2,0.45-0.3
				c0.133-0.134,0.25-0.268,0.35-0.4c0.101-0.166,0.167-0.334,0.2-0.5c0.066-0.166,0.1-0.334,0.1-0.5c0-0.3-0.05-0.566-0.149-0.8
				c-0.101-0.233-0.25-0.434-0.45-0.601C273.783,286.4,273.567,286.25,273.3,286.15 M272.45,286.6c0.2,0,0.384,0.033,0.55,0.101
				c0.167,0.1,0.317,0.2,0.45,0.3c0.134,0.133,0.233,0.283,0.3,0.45c0.067,0.2,0.101,0.399,0.101,0.6
				c0,0.167-0.033,0.351-0.101,0.55c-0.066,0.167-0.166,0.316-0.3,0.45c-0.133,0.101-0.283,0.2-0.45,0.3
				c-0.166,0.066-0.35,0.101-0.55,0.101c-0.167,0-0.35-0.034-0.55-0.101c-0.167-0.1-0.3-0.199-0.4-0.3
				c-0.133-0.134-0.233-0.283-0.3-0.45c-0.066-0.199-0.1-0.383-0.1-0.55c0-0.2,0.033-0.384,0.1-0.55c0.066-0.2,0.15-0.35,0.25-0.45
				c0.134-0.134,0.283-0.233,0.45-0.3C272.067,286.65,272.25,286.6,272.45,286.6 M271.3,290.5c0.134-0.166,0.301-0.283,0.5-0.35
				c0.2-0.066,0.417-0.101,0.65-0.101c0.267,0,0.5,0.034,0.7,0.101c0.2,0.1,0.366,0.217,0.5,0.35c0.133,0.166,0.25,0.35,0.35,0.55
				c0.067,0.2,0.101,0.417,0.101,0.65s-0.033,0.466-0.101,0.7c-0.1,0.199-0.217,0.366-0.35,0.5c-0.167,0.133-0.351,0.25-0.55,0.35
				c-0.2,0.066-0.417,0.1-0.65,0.1s-0.45-0.033-0.65-0.1c-0.199-0.066-0.383-0.184-0.55-0.35c-0.133-0.134-0.233-0.301-0.3-0.5
				c-0.1-0.234-0.15-0.467-0.15-0.7s0.051-0.467,0.15-0.7C271.016,290.8,271.134,290.633,271.3,290.5 M318.25,278.2
				c-0.366-0.2-0.8-0.3-1.3-0.3c-0.934,0-1.667,0.283-2.2,0.85c-0.533,0.533-0.8,1.267-0.8,2.2c0,0.8,0.25,1.45,0.75,1.95
				c0.5,0.533,1.167,0.8,2,0.8c0.6,0,1.117-0.134,1.55-0.4v-1.1c-0.399,0.333-0.816,0.5-1.25,0.5c-0.533,0-0.967-0.167-1.3-0.5
				c-0.3-0.333-0.45-0.784-0.45-1.351s0.167-1.033,0.5-1.399c0.334-0.366,0.767-0.55,1.3-0.55c0.434,0,0.834,0.149,1.2,0.449V278.2
				 M320.7,278.05h-1.25v5.5h1.25V280.9c0-0.566,0.134-1.018,0.4-1.351c0.233-0.333,0.533-0.5,0.899-0.5c0.3,0,0.517,0.067,0.65,0.2
				v-1.2c-0.134-0.066-0.3-0.1-0.5-0.1c-0.333,0-0.617,0.116-0.851,0.35c-0.267,0.2-0.449,0.5-0.55,0.9h-0.05V278.05 M263.7,293.45
				c0,0.134,0.05,0.25,0.15,0.35c0.1,0.101,0.217,0.15,0.35,0.15c0.066,0,0.134-0.017,0.2-0.05c0.066,0,0.116-0.033,0.149-0.101
				c0.067-0.033,0.117-0.083,0.15-0.149c0-0.066,0-0.134,0-0.2c0-0.067,0-0.134,0-0.2c-0.033-0.066-0.083-0.133-0.15-0.2
				c-0.033-0.033-0.083-0.066-0.149-0.1c-0.066-0.034-0.134-0.05-0.2-0.05c-0.133,0-0.25,0.05-0.35,0.149
				C263.75,293.15,263.7,293.283,263.7,293.45 M264.7,288.55c-0.033-0.066-0.083-0.116-0.15-0.149
				c-0.033-0.066-0.083-0.101-0.149-0.101c-0.066-0.033-0.134-0.05-0.2-0.05c-0.133,0-0.25,0.05-0.35,0.15
				c-0.101,0.1-0.15,0.217-0.15,0.35c0,0.066,0.017,0.133,0.05,0.2c0,0.066,0.033,0.116,0.101,0.149
				c0.033,0.066,0.083,0.117,0.149,0.15c0.067,0,0.134,0,0.2,0s0.134,0,0.2,0c0.066-0.033,0.116-0.084,0.149-0.15
				c0.067-0.033,0.117-0.083,0.15-0.149c0-0.067,0-0.134,0-0.2S264.7,288.617,264.7,288.55 M267.25,287.3
				c0.167-0.1,0.317-0.216,0.45-0.35v6.899h0.7V286h-0.2c-0.366,0.3-0.75,0.566-1.15,0.8c-0.366,0.233-0.767,0.417-1.199,0.55v0.601
				c0.133-0.034,0.283-0.083,0.449-0.15c0.167-0.066,0.334-0.149,0.5-0.25C266.967,287.483,267.117,287.4,267.25,287.3
				 M260.25,287.55c0.167-0.066,0.317-0.149,0.45-0.25c0.167-0.1,0.316-0.216,0.45-0.35v6.899h0.7V286h-0.2
				c-0.367,0.3-0.75,0.566-1.15,0.8c-0.366,0.233-0.767,0.417-1.2,0.55v0.601c0.134-0.034,0.284-0.083,0.45-0.15
				C259.917,287.733,260.084,287.65,260.25,287.55 M333.9,281.15v-0.5c0-0.867-0.2-1.533-0.601-2c-0.399-0.5-0.982-0.75-1.75-0.75
				c-0.732,0-1.366,0.283-1.899,0.85c-0.5,0.533-0.75,1.217-0.75,2.05c0,0.934,0.233,1.65,0.7,2.15s1.1,0.75,1.899,0.75
				c0.834,0,1.5-0.167,2-0.5v-1c-0.5,0.366-1.05,0.55-1.649,0.55c-0.5,0-0.9-0.15-1.2-0.45c-0.3-0.267-0.467-0.649-0.5-1.149H333.9
				 M332.4,279.2c0.2,0.267,0.3,0.616,0.3,1.05h-2.55c0.066-0.434,0.233-0.767,0.5-1c0.233-0.267,0.533-0.4,0.899-0.4
				C331.917,278.85,332.2,278.967,332.4,279.2 M328.05,280.65c0-0.867-0.199-1.533-0.6-2c-0.4-0.5-0.983-0.75-1.75-0.75
				c-0.733,0-1.366,0.283-1.9,0.85c-0.5,0.533-0.75,1.217-0.75,2.05c0,0.934,0.233,1.65,0.7,2.15s1.101,0.75,1.9,0.75
				c0.833,0,1.5-0.167,2-0.5v-1c-0.5,0.366-1.05,0.55-1.65,0.55c-0.5,0-0.899-0.15-1.2-0.45c-0.3-0.267-0.466-0.649-0.5-1.149h3.75
				V280.65 M326.55,279.2c0.2,0.267,0.301,0.616,0.301,1.05H324.3c0.067-0.434,0.233-0.767,0.5-1c0.233-0.267,0.534-0.4,0.9-0.4
				C326.067,278.85,326.35,278.967,326.55,279.2 M336.35,278.05h-1.25v5.5h1.25V280.4c0-0.434,0.133-0.783,0.399-1.051
				c0.233-0.3,0.533-0.449,0.9-0.449c0.733,0,1.1,0.516,1.1,1.55v3.1H340v-3.35c0-0.733-0.149-1.3-0.45-1.7
				c-0.333-0.4-0.8-0.6-1.399-0.6c-0.767,0-1.351,0.35-1.75,1.05h-0.05V278.05 M309.45,277.8c0-0.2,0.033-0.35,0.1-0.45
				c0.101-0.133,0.233-0.25,0.4-0.35c0.134-0.066,0.3-0.117,0.5-0.15c0.167-0.033,0.35-0.05,0.55-0.05c0.7,0,1.267,0.15,1.7,0.45
				V276c-0.366-0.2-0.95-0.3-1.75-0.3c-0.366,0-0.717,0.05-1.05,0.149c-0.333,0.066-0.634,0.2-0.9,0.4
				c-0.267,0.166-0.483,0.383-0.649,0.65c-0.167,0.266-0.25,0.583-0.25,0.949c0,0.301,0.05,0.551,0.149,0.75
				c0.101,0.234,0.233,0.434,0.4,0.601s0.35,0.316,0.55,0.45c0.233,0.166,0.483,0.316,0.75,0.449c0.233,0.101,0.467,0.2,0.7,0.301
				c0.2,0.1,0.383,0.217,0.55,0.35c0.134,0.1,0.25,0.217,0.35,0.35c0.101,0.134,0.15,0.283,0.15,0.45c0,0.366-0.133,0.634-0.4,0.8
				c-0.267,0.167-0.666,0.25-1.199,0.25c-0.167,0-0.334-0.016-0.5-0.05c-0.2-0.033-0.384-0.066-0.551-0.1
				c-0.199-0.067-0.383-0.15-0.55-0.25c-0.166-0.067-0.3-0.15-0.399-0.25v1.3c0.1,0.066,0.233,0.133,0.399,0.2
				c0.2,0.033,0.4,0.066,0.601,0.1c0.166,0.034,0.35,0.067,0.55,0.101s0.366,0.05,0.5,0.05c0.366,0,0.733-0.05,1.1-0.15
				c0.334-0.066,0.634-0.183,0.9-0.35s0.483-0.384,0.649-0.65c0.167-0.267,0.25-0.6,0.25-1c0-0.3-0.066-0.55-0.199-0.75
				c-0.101-0.233-0.233-0.45-0.4-0.649c-0.2-0.167-0.417-0.334-0.65-0.5c-0.232-0.167-0.482-0.316-0.75-0.45
				c-0.267-0.101-0.5-0.2-0.699-0.3c-0.2-0.101-0.367-0.2-0.5-0.301c-0.134-0.1-0.233-0.217-0.301-0.35
				C309.483,278.117,309.45,277.967,309.45,277.8 M290.75,278.05h-1.25v0.75c-0.366-0.6-0.899-0.899-1.6-0.899
				c-0.767,0-1.384,0.283-1.851,0.85c-0.433,0.566-0.649,1.316-0.649,2.25c0,0.8,0.2,1.45,0.6,1.95c0.434,0.5,0.983,0.75,1.65,0.75
				c0.833,0,1.45-0.351,1.85-1.05v0.6c0,1.267-0.649,1.9-1.95,1.9c-0.533,0-1.1-0.167-1.699-0.5v1.149
				c0.533,0.233,1.149,0.351,1.85,0.351c2.033,0,3.05-1.018,3.05-3.051V278.05 M286.7,280.9c0-0.634,0.134-1.117,0.4-1.45
				c0.267-0.366,0.633-0.55,1.1-0.55c0.367,0,0.684,0.149,0.95,0.449c0.267,0.268,0.399,0.584,0.399,0.95v0.75
				c0,0.467-0.133,0.851-0.399,1.15c-0.267,0.333-0.617,0.5-1.05,0.5c-0.434,0-0.783-0.167-1.051-0.5
				C286.817,281.867,286.7,281.434,286.7,280.9 M297.7,280.8c0-0.899-0.233-1.6-0.7-2.1c-0.5-0.534-1.166-0.8-2-0.8
				c-0.899,0-1.616,0.266-2.149,0.8c-0.533,0.533-0.801,1.25-0.801,2.149c0,0.867,0.25,1.551,0.75,2.051
				c0.534,0.533,1.217,0.8,2.051,0.8c0.866,0,1.566-0.267,2.1-0.8C297.45,282.367,297.7,281.666,297.7,280.8 M294.9,278.9
				c0.5,0,0.883,0.166,1.149,0.5c0.268,0.333,0.4,0.8,0.4,1.399c0,0.601-0.133,1.067-0.4,1.4c-0.267,0.333-0.649,0.5-1.149,0.5
				c-0.467,0-0.851-0.167-1.15-0.5c-0.267-0.333-0.399-0.784-0.399-1.351c0-0.6,0.133-1.066,0.399-1.399
				C294.05,279.084,294.433,278.9,294.9,278.9 M300.2,278.05h-1.25v5.5h1.25V280.4c0-0.434,0.134-0.783,0.4-1.051
				c0.233-0.3,0.533-0.449,0.899-0.449c0.733,0,1.101,0.516,1.101,1.55v3.1h1.25v-3.35c0-0.733-0.15-1.3-0.45-1.7
				c-0.333-0.4-0.8-0.6-1.4-0.6c-0.767,0-1.35,0.35-1.75,1.05h-0.05V278.05 M268.45,278.05V276.4l-1.25,0.399v1.25h-0.9v1h0.9v3.101
				c0,1,0.533,1.5,1.6,1.5c0.4,0,0.717-0.051,0.95-0.15v-1c-0.133,0.133-0.316,0.2-0.55,0.2c-0.267,0-0.467-0.067-0.6-0.2
				c-0.101-0.166-0.15-0.4-0.15-0.7v-2.75h1.3v-1H268.45 M279.65,278.7c-0.533,0.533-0.8,1.25-0.8,2.149
				c0,0.867,0.25,1.551,0.75,2.051c0.533,0.533,1.217,0.8,2.05,0.8c0.866,0,1.566-0.267,2.1-0.8c0.5-0.533,0.75-1.234,0.75-2.101
				c0-0.899-0.233-1.6-0.7-2.1c-0.5-0.534-1.166-0.8-2-0.8C280.9,277.9,280.183,278.166,279.65,278.7 M281.7,278.9
				c0.5,0,0.884,0.166,1.15,0.5c0.267,0.333,0.399,0.8,0.399,1.399c0,0.601-0.133,1.067-0.399,1.4s-0.65,0.5-1.15,0.5
				c-0.467,0-0.85-0.167-1.15-0.5c-0.267-0.333-0.399-0.784-0.399-1.351c0-0.6,0.133-1.066,0.399-1.399
				C280.85,279.084,281.233,278.9,281.7,278.9 M275.25,275.85h-1.3v7.7h4.25v-1.1h-2.95V275.85 M261.85,275.85l-2.9,7.7h1.4
				L261,281.6h3.05l0.7,1.95h1.4l-2.9-7.7H261.85 M261.35,280.55l1.05-3.05c0.033-0.133,0.066-0.3,0.1-0.5
				c0.067,0.2,0.117,0.367,0.15,0.5l1.05,3.05H261.35 M136.95,276.95h2.2v6.6h1.3v-6.6h2.2v-1.101h-5.7V276.95 M103.55,288.75
				c-0.3,0.434-0.633,0.883-1,1.35c-0.333,0.434-0.683,0.834-1.05,1.2v0.65h3.65v1.899h0.7v-1.899h1.199v-0.65h-1.199v-5.149h-0.75
				c-0.167,0.399-0.384,0.816-0.65,1.25S103.884,288.283,103.55,288.75 M104.4,288.55c0.233-0.399,0.483-0.833,0.75-1.3v4.05H102.3
				c0.2-0.2,0.4-0.45,0.601-0.75c0.233-0.267,0.467-0.566,0.7-0.899C103.867,289.283,104.134,288.916,104.4,288.55 M94.5,292.95
				c-0.066-0.034-0.133-0.05-0.2-0.05c-0.133,0-0.25,0.05-0.35,0.149c-0.1,0.101-0.15,0.233-0.15,0.4c0,0.134,0.051,0.25,0.15,0.35
				c0.1,0.101,0.217,0.15,0.35,0.15c0.067,0,0.134-0.017,0.2-0.05c0.067,0,0.117-0.033,0.15-0.101
				c0.066-0.033,0.116-0.083,0.149-0.149c0-0.066,0-0.134,0-0.2c0-0.067,0-0.134,0-0.2c-0.033-0.066-0.083-0.133-0.149-0.2
				C94.617,293.017,94.567,292.983,94.5,292.95 M94.5,288.3c-0.066-0.033-0.133-0.05-0.2-0.05c-0.133,0-0.25,0.05-0.35,0.15
				c-0.1,0.1-0.15,0.217-0.15,0.35c0,0.066,0.018,0.133,0.051,0.2c0,0.066,0.033,0.116,0.1,0.149c0.033,0.066,0.083,0.117,0.15,0.15
				c0.066,0,0.133,0,0.199,0c0.067,0,0.134,0,0.2,0c0.067-0.033,0.117-0.084,0.15-0.15c0.066-0.033,0.116-0.083,0.149-0.149
				c0-0.067,0-0.134,0-0.2s0-0.133,0-0.2c-0.033-0.066-0.083-0.116-0.149-0.149C94.617,288.334,94.567,288.3,94.5,288.3
				 M100.8,289.95c0-2.634-0.767-3.95-2.3-3.95c-0.833,0-1.45,0.35-1.85,1.05c-0.434,0.7-0.65,1.733-0.65,3.101
				c0,0.633,0.05,1.184,0.15,1.649c0.1,0.467,0.25,0.866,0.45,1.2c0.199,0.334,0.449,0.584,0.75,0.75c0.267,0.166,0.6,0.25,1,0.25
				c0.366,0,0.717-0.1,1.05-0.3c0.3-0.167,0.55-0.417,0.75-0.75c0.233-0.333,0.399-0.75,0.5-1.25
				C100.75,291.2,100.8,290.617,100.8,289.95 M97.15,287.5c0.3-0.6,0.733-0.9,1.3-0.9c1.1,0,1.65,1.15,1.65,3.45
				c0,0.534-0.033,1.017-0.101,1.45c-0.066,0.4-0.183,0.75-0.35,1.05c-0.134,0.267-0.3,0.467-0.5,0.601
				c-0.233,0.166-0.483,0.25-0.75,0.25c-0.566,0-1-0.283-1.3-0.851c-0.267-0.566-0.4-1.384-0.4-2.45
				C96.7,288.934,96.85,288.066,97.15,287.5 M88.5,287.05c-0.433,0.7-0.649,1.733-0.649,3.101c0,0.633,0.05,1.184,0.149,1.649
				c0.101,0.467,0.25,0.866,0.45,1.2s0.45,0.584,0.75,0.75c0.267,0.166,0.6,0.25,1,0.25c0.367,0,0.717-0.1,1.05-0.3
				c0.3-0.167,0.55-0.417,0.75-0.75c0.233-0.333,0.4-0.75,0.5-1.25c0.101-0.5,0.15-1.083,0.15-1.75c0-2.634-0.767-3.95-2.3-3.95
				C89.516,286,88.9,286.35,88.5,287.05 M89,287.5c0.3-0.6,0.733-0.9,1.3-0.9c1.101,0,1.65,1.15,1.65,3.45
				c0,0.534-0.033,1.017-0.1,1.45c-0.067,0.4-0.184,0.75-0.351,1.05c-0.133,0.267-0.3,0.467-0.5,0.601
				c-0.233,0.166-0.483,0.25-0.75,0.25c-0.566,0-1-0.283-1.3-0.851c-0.267-0.566-0.4-1.384-0.4-2.45
				C88.55,288.934,88.7,288.066,89,287.5 M132.8,278.25c-0.066-0.133-0.1-0.283-0.1-0.45c0-0.2,0.033-0.35,0.1-0.45
				c0.101-0.133,0.233-0.25,0.4-0.35c0.134-0.066,0.3-0.117,0.5-0.15c0.167-0.033,0.35-0.05,0.55-0.05c0.7,0,1.267,0.15,1.7,0.45
				V276c-0.366-0.2-0.95-0.3-1.75-0.3c-0.366,0-0.717,0.05-1.05,0.149c-0.333,0.066-0.634,0.2-0.9,0.4
				c-0.267,0.166-0.483,0.383-0.649,0.65c-0.167,0.266-0.25,0.583-0.25,0.949c0,0.301,0.05,0.551,0.149,0.75
				c0.101,0.234,0.233,0.434,0.4,0.601s0.35,0.316,0.55,0.45c0.233,0.166,0.483,0.316,0.75,0.449c0.233,0.101,0.467,0.2,0.7,0.301
				c0.2,0.1,0.383,0.217,0.55,0.35c0.134,0.1,0.25,0.217,0.35,0.35c0.101,0.134,0.15,0.283,0.15,0.45c0,0.366-0.133,0.634-0.4,0.8
				c-0.267,0.167-0.666,0.25-1.199,0.25c-0.167,0-0.334-0.016-0.5-0.05c-0.2-0.033-0.384-0.066-0.551-0.1
				c-0.199-0.067-0.383-0.15-0.55-0.25c-0.166-0.067-0.3-0.15-0.399-0.25v1.3c0.1,0.066,0.233,0.133,0.399,0.2
				c0.2,0.033,0.4,0.066,0.601,0.1c0.166,0.034,0.35,0.067,0.55,0.101s0.366,0.05,0.5,0.05c0.366,0,0.733-0.05,1.1-0.15
				c0.334-0.066,0.634-0.183,0.9-0.35s0.483-0.384,0.649-0.65c0.167-0.267,0.25-0.6,0.25-1c0-0.3-0.066-0.55-0.199-0.75
				c-0.101-0.233-0.233-0.45-0.4-0.649c-0.2-0.167-0.417-0.334-0.65-0.5c-0.232-0.167-0.482-0.316-0.75-0.45
				c-0.267-0.101-0.5-0.2-0.699-0.3c-0.2-0.101-0.367-0.2-0.5-0.301C132.967,278.5,132.867,278.383,132.8,278.25 M129.3,276.8
				c-0.666-0.733-1.533-1.1-2.6-1.1c-1.167,0-2.083,0.384-2.75,1.149c-0.7,0.734-1.05,1.717-1.05,2.95c0,1.134,0.333,2.067,1,2.8
				c0.667,0.734,1.566,1.101,2.7,1.101c1.1,0,2-0.366,2.699-1.101c0.667-0.732,1-1.732,1-3C130.3,278.434,129.967,277.5,129.3,276.8
				 M126.65,276.85c0.7,0,1.267,0.25,1.7,0.75c0.399,0.5,0.6,1.217,0.6,2.15c0,0.867-0.2,1.55-0.6,2.05
				c-0.434,0.5-1.017,0.75-1.75,0.75c-0.7,0-1.267-0.25-1.7-0.75c-0.434-0.533-0.65-1.233-0.65-2.1s0.217-1.55,0.65-2.05
				C125.367,277.117,125.95,276.85,126.65,276.85 M119.3,275.85h-2.35v7.7h1.25v-2.8h1.05c0.867,0,1.55-0.233,2.05-0.7
				c0.5-0.466,0.75-1.083,0.75-1.85c0-0.733-0.232-1.317-0.699-1.75C120.85,276.05,120.167,275.85,119.3,275.85 M118.2,276.9h0.95
				c1.066,0,1.6,0.449,1.6,1.35c0,0.467-0.149,0.834-0.45,1.1c-0.3,0.234-0.716,0.351-1.25,0.351h-0.85V276.9 M116.1,275.85h-1.15
				l-3.7,9h1.15L116.1,275.85 M107.4,277.8c0-0.2,0.033-0.35,0.1-0.45c0.101-0.133,0.233-0.25,0.4-0.35
				c0.133-0.066,0.3-0.117,0.5-0.15c0.167-0.033,0.35-0.05,0.55-0.05c0.7,0,1.267,0.15,1.7,0.45V276c-0.367-0.2-0.95-0.3-1.75-0.3
				c-0.367,0-0.717,0.05-1.05,0.149c-0.334,0.066-0.634,0.2-0.9,0.4c-0.267,0.166-0.483,0.383-0.65,0.65
				c-0.166,0.266-0.25,0.583-0.25,0.949c0,0.301,0.051,0.551,0.15,0.75c0.1,0.234,0.233,0.434,0.4,0.601
				c0.166,0.167,0.35,0.316,0.55,0.45c0.233,0.166,0.483,0.316,0.75,0.449c0.233,0.101,0.467,0.2,0.7,0.301
				c0.199,0.1,0.383,0.217,0.55,0.35c0.133,0.1,0.25,0.217,0.35,0.35c0.101,0.134,0.15,0.283,0.15,0.45c0,0.366-0.134,0.634-0.4,0.8
				c-0.267,0.167-0.666,0.25-1.2,0.25c-0.166,0-0.333-0.016-0.5-0.05c-0.199-0.033-0.383-0.066-0.55-0.1
				c-0.2-0.067-0.383-0.15-0.55-0.25c-0.167-0.067-0.3-0.15-0.4-0.25v1.3c0.101,0.066,0.233,0.133,0.4,0.2
				c0.2,0.033,0.4,0.066,0.6,0.1c0.167,0.034,0.351,0.067,0.551,0.101c0.199,0.033,0.366,0.05,0.5,0.05c0.366,0,0.733-0.05,1.1-0.15
				c0.333-0.066,0.634-0.183,0.9-0.35s0.483-0.384,0.649-0.65c0.167-0.267,0.25-0.6,0.25-1c0-0.3-0.066-0.55-0.2-0.75
				c-0.1-0.233-0.232-0.45-0.399-0.649c-0.2-0.167-0.417-0.334-0.65-0.5c-0.233-0.167-0.483-0.316-0.75-0.45
				c-0.267-0.101-0.5-0.2-0.7-0.3c-0.199-0.101-0.366-0.2-0.5-0.301c-0.133-0.1-0.232-0.217-0.3-0.35
				C107.433,278.117,107.4,277.967,107.4,277.8 M97.6,279.8c0,1.134,0.333,2.067,1,2.8c0.666,0.734,1.566,1.101,2.699,1.101
				c1.101,0,2-0.366,2.7-1.101c0.667-0.732,1-1.732,1-3c0-1.166-0.333-2.1-1-2.8c-0.666-0.733-1.533-1.1-2.6-1.1
				c-1.167,0-2.083,0.384-2.75,1.149C97.95,277.584,97.6,278.566,97.6,279.8 M99.6,281.8c-0.434-0.533-0.65-1.233-0.65-2.1
				s0.217-1.55,0.65-2.05c0.467-0.533,1.05-0.801,1.75-0.801c0.699,0,1.267,0.25,1.699,0.75c0.4,0.5,0.601,1.217,0.601,2.15
				c0,0.867-0.2,1.55-0.601,2.05c-0.433,0.5-1.017,0.75-1.75,0.75C100.6,282.55,100.033,282.3,99.6,281.8 M96.25,283.55v-7.7h-1.3
				v7.7H96.25 M93.5,281.35c0-0.533-0.149-0.967-0.45-1.3c-0.333-0.333-0.767-0.533-1.3-0.6c0.467-0.134,0.817-0.366,1.05-0.7
				c0.233-0.334,0.351-0.717,0.351-1.15c0-0.5-0.217-0.916-0.65-1.25c-0.433-0.333-1.017-0.5-1.75-0.5H88.3v7.7h2.45
				c0.8,0,1.467-0.2,2-0.6C93.25,282.55,93.5,282.017,93.5,281.35 M91.8,277.85c0,0.4-0.116,0.7-0.35,0.9
				c-0.267,0.2-0.616,0.3-1.05,0.3H89.55v-2.2h0.95C91.367,276.85,91.8,277.184,91.8,277.85 M92.15,281.3
				c0,0.366-0.134,0.667-0.4,0.9c-0.233,0.233-0.6,0.35-1.1,0.35H89.55v-2.45h0.95C91.6,280.1,92.15,280.5,92.15,281.3 M127,250.6
				V262.9h128.7v33.75h2.3V262.9V250.6H127 M84.2,262.9v33.75h2.3V262.9V250.6H80V262.9H84.2 M86.5,242.4V230.1H80V242.4H86.5
				 M127,230.1V242.4h131V230.1H127 M86.5,221.9V209.6H80V221.9H86.5 M127,209.6V221.9h131V209.6H127z"/>
			<path fill="#69199F" d="M458.95,256c0-0.4-0.166-0.717-0.5-0.95c-0.3-0.233-0.733-0.35-1.3-0.35h-1.75v5.6h1.8
				c0.567,0,1.033-0.149,1.4-0.45c0.399-0.3,0.6-0.684,0.6-1.149c0-0.4-0.116-0.717-0.35-0.95s-0.55-0.383-0.95-0.45
				c0.333-0.1,0.583-0.267,0.75-0.5C458.85,256.566,458.95,256.3,458.95,256 M456.301,255.45H457c0.634,0,0.95,0.233,0.95,0.7
				c0,0.3-0.083,0.516-0.25,0.649c-0.2,0.167-0.467,0.25-0.8,0.25h-0.6V255.45 M456.301,257.8H457c0.801,0,1.2,0.284,1.2,0.851
				c0,0.3-0.1,0.516-0.3,0.649c-0.167,0.167-0.434,0.25-0.8,0.25h-0.8V257.8 M448.85,255.6c0.033,0.234,0.083,0.417,0.149,0.551
				l1.65,4.149h0.65l1.649-4.2c0.067-0.1,0.117-0.266,0.15-0.5h0.05c-0.033,0.434-0.05,0.801-0.05,1.101v3.6H454v-5.6h-1.25
				l-1.5,3.7c-0.066,0.166-0.149,0.383-0.25,0.649c-0.033-0.134-0.116-0.333-0.25-0.6l-1.449-3.75H448v5.6h0.851v-3.6
				c0-0.534-0.017-0.9-0.05-1.101H448.85 M443.2,252.65c-0.333,0.133-0.616,0.316-0.85,0.55c-0.233,0.2-0.417,0.466-0.55,0.8
				c-0.134,0.334-0.2,0.7-0.2,1.1c0,0.367,0.066,0.7,0.2,1c0.1,0.301,0.25,0.551,0.449,0.75c0.2,0.2,0.45,0.367,0.75,0.5
				c0.268,0.101,0.567,0.15,0.9,0.15c0.167,0,0.35-0.017,0.55-0.05c0.134-0.067,0.283-0.134,0.45-0.2
				c0.134-0.066,0.25-0.15,0.35-0.25c0.101-0.133,0.184-0.25,0.25-0.35c0,0.467-0.033,0.866-0.1,1.199
				c-0.1,0.334-0.25,0.617-0.45,0.851c-0.166,0.233-0.366,0.417-0.6,0.55c-0.267,0.1-0.55,0.15-0.851,0.15c-0.133,0-0.267,0-0.399,0
				c-0.134-0.033-0.267-0.066-0.4-0.101c-0.133-0.033-0.267-0.083-0.399-0.149c-0.101-0.033-0.184-0.084-0.25-0.15v1.15
				c0.066,0.033,0.149,0.066,0.25,0.1c0.133,0.033,0.267,0.066,0.399,0.1c0.134,0.033,0.267,0.051,0.4,0.051
				c0.167,0.033,0.316,0.05,0.45,0.05c0.433,0,0.85-0.083,1.25-0.25c0.399-0.2,0.75-0.467,1.05-0.8c0.267-0.367,0.5-0.834,0.7-1.4
				c0.133-0.533,0.199-1.184,0.199-1.95c0-0.667-0.066-1.216-0.199-1.649c-0.134-0.467-0.317-0.834-0.551-1.101
				c-0.232-0.3-0.5-0.517-0.8-0.649c-0.3-0.134-0.633-0.2-1-0.2C443.834,252.45,443.5,252.517,443.2,252.65 M444.15,253.5
				c0.2,0,0.384,0.033,0.55,0.1c0.134,0.101,0.267,0.217,0.4,0.351c0.133,0.167,0.233,0.35,0.3,0.55c0.033,0.2,0.05,0.434,0.05,0.7
				c0,0.167-0.017,0.333-0.05,0.5c-0.066,0.167-0.167,0.3-0.3,0.399c-0.101,0.101-0.233,0.184-0.4,0.25
				c-0.133,0.066-0.3,0.101-0.5,0.101s-0.383-0.034-0.55-0.101s-0.3-0.149-0.4-0.25c-0.133-0.133-0.232-0.3-0.3-0.5
				c-0.066-0.166-0.1-0.383-0.1-0.649c0-0.2,0.033-0.4,0.1-0.601c0.067-0.166,0.167-0.316,0.3-0.449
				c0.101-0.134,0.233-0.234,0.4-0.301S443.983,253.5,444.15,253.5 M428.15,257.75h2.95v-0.9h-2.95V257.75 M439.75,252.6h-1.25
				c-0.166,0.4-0.383,0.816-0.649,1.25s-0.55,0.867-0.851,1.301c-0.3,0.434-0.616,0.85-0.949,1.25
				c-0.334,0.434-0.65,0.816-0.95,1.149v1.05h3.45v1.7h1.199v-1.7h1.15v-1.05h-1.15V252.6 M438.551,254.35v3.2h-2.2
				c0.333-0.399,0.684-0.85,1.05-1.35C437.801,255.666,438.183,255.05,438.551,254.35 M373.4,252.6H372l-2.899,7.7h1.399l0.65-1.95
				h3.05l0.7,1.95h1.399L373.4,252.6 M373.85,257.3H371.5l1.05-3.05c0.034-0.133,0.067-0.3,0.101-0.5
				c0.066,0.2,0.116,0.367,0.149,0.5L373.85,257.3 M378.6,253.15l-1.25,0.399v1.25h-0.9v1h0.9v3.101c0,1,0.533,1.5,1.6,1.5
				c0.4,0,0.717-0.051,0.95-0.15v-1c-0.134,0.133-0.316,0.2-0.55,0.2c-0.267,0-0.467-0.067-0.601-0.2
				c-0.1-0.166-0.149-0.4-0.149-0.7v-2.75h1.3v-1h-1.3V253.15 M390.6,256.35c0-2.5-1.434-3.75-4.301-3.75H384.1v7.7h2.149
				c1.3,0,2.351-0.366,3.15-1.1C390.2,258.5,390.6,257.55,390.6,256.35 M388.5,258.5c-0.5,0.467-1.2,0.7-2.1,0.7h-1.05v-5.5h1.1
				c1.867,0,2.8,0.899,2.8,2.7C389.25,257.3,389,258,388.5,258.5 M396.5,257.9v-0.5c0-0.867-0.2-1.533-0.6-2
				c-0.4-0.5-0.983-0.75-1.75-0.75c-0.733,0-1.367,0.283-1.9,0.85c-0.5,0.533-0.75,1.217-0.75,2.05c0,0.934,0.233,1.65,0.7,2.15
				s1.1,0.75,1.9,0.75c0.833,0,1.5-0.167,2-0.5v-1c-0.5,0.366-1.051,0.55-1.65,0.55c-0.5,0-0.9-0.15-1.2-0.45
				c-0.3-0.267-0.467-0.649-0.5-1.149H396.5 M395,255.95c0.2,0.267,0.3,0.616,0.3,1.05h-2.55c0.067-0.434,0.233-0.767,0.5-1
				c0.233-0.267,0.533-0.4,0.9-0.4C394.516,255.6,394.8,255.717,395,255.95 M399.6,254.65c-0.267,0-0.533,0.05-0.8,0.149
				c-0.267,0.067-0.517,0.167-0.75,0.3c-0.2,0.134-0.367,0.301-0.5,0.5c-0.134,0.2-0.2,0.434-0.2,0.7c0,0.2,0.033,0.384,0.1,0.55
				c0.067,0.167,0.167,0.316,0.3,0.45c0.101,0.134,0.25,0.25,0.45,0.351c0.167,0.1,0.367,0.184,0.601,0.25
				c0.166,0.066,0.333,0.133,0.5,0.199c0.133,0.066,0.267,0.134,0.399,0.2c0.101,0.067,0.184,0.134,0.25,0.2
				c0.067,0.1,0.101,0.217,0.101,0.35c0,0.434-0.384,0.65-1.15,0.65c-0.566,0-1.083-0.184-1.55-0.55v1.2c0.467,0.199,1,0.3,1.6,0.3
				c0.3,0,0.584-0.034,0.851-0.101c0.3-0.066,0.55-0.166,0.75-0.3c0.233-0.167,0.416-0.35,0.55-0.55c0.1-0.2,0.149-0.434,0.149-0.7
				c0-0.233-0.033-0.433-0.1-0.6s-0.167-0.317-0.3-0.45c-0.134-0.133-0.283-0.25-0.45-0.35c-0.2-0.101-0.417-0.2-0.65-0.301
				c-0.199-0.066-0.366-0.116-0.5-0.149c-0.133-0.067-0.25-0.134-0.35-0.2s-0.167-0.133-0.2-0.2c-0.066-0.066-0.1-0.167-0.1-0.3
				c0-0.1,0.033-0.184,0.1-0.25c0.033-0.1,0.101-0.166,0.2-0.2c0.1-0.066,0.217-0.116,0.35-0.149c0.101-0.033,0.233-0.051,0.4-0.051
				c0.5,0,0.95,0.134,1.35,0.4v-1.1C400.6,254.733,400.134,254.65,399.6,254.65 M407.25,254.8h-1.5l-2,2.5h-0.05v-5.149h-1.25v8.149
				h1.25v-2.649h0.05l2.101,2.649h1.6l-2.45-2.85L407.25,254.8 M409.7,253.15l-1.25,0.399v1.25h-0.899v1h0.899v3.101
				c0,1,0.533,1.5,1.601,1.5c0.399,0,0.717-0.051,0.949-0.15v-1c-0.133,0.133-0.316,0.2-0.55,0.2c-0.267,0-0.467-0.067-0.6-0.2
				c-0.101-0.166-0.15-0.4-0.15-0.7v-2.75h1.3v-1h-1.3V253.15 M416.551,259.65c0.5-0.533,0.75-1.234,0.75-2.101
				c0-0.899-0.233-1.6-0.7-2.1c-0.5-0.534-1.167-0.8-2-0.8c-0.9,0-1.617,0.266-2.15,0.8c-0.533,0.533-0.8,1.25-0.8,2.149
				c0,0.867,0.25,1.551,0.75,2.051c0.533,0.533,1.217,0.8,2.05,0.8C415.317,260.45,416.017,260.184,416.551,259.65 M416.051,257.55
				c0,0.601-0.134,1.067-0.4,1.4s-0.65,0.5-1.15,0.5c-0.466,0-0.85-0.167-1.149-0.5c-0.267-0.333-0.4-0.784-0.4-1.351
				c0-0.6,0.134-1.066,0.4-1.399c0.3-0.366,0.684-0.55,1.149-0.55c0.5,0,0.884,0.166,1.15,0.5
				C415.917,256.483,416.051,256.95,416.051,257.55 M419.801,254.8h-1.25v8.05h1.25v-3.35h0.05c0.366,0.6,0.899,0.9,1.6,0.9
				c0.767,0,1.367-0.268,1.8-0.801c0.434-0.566,0.65-1.3,0.65-2.199c0-0.834-0.184-1.5-0.55-2c-0.4-0.5-0.95-0.75-1.65-0.75
				c-0.833,0-1.45,0.366-1.85,1.1h-0.05V254.8 M419.801,258v-0.7c0-0.466,0.133-0.85,0.399-1.149c0.267-0.334,0.617-0.5,1.05-0.5
				c0.434,0,0.768,0.166,1,0.5c0.268,0.3,0.4,0.717,0.4,1.25c0,0.633-0.133,1.133-0.4,1.5c-0.267,0.366-0.633,0.55-1.1,0.55
				c-0.4,0-0.717-0.15-0.95-0.45C419.933,258.733,419.801,258.4,419.801,258 M363.35,252.45c-0.834,0-1.45,0.35-1.851,1.05
				c-0.433,0.7-0.649,1.733-0.649,3.1c0,0.634,0.05,1.184,0.149,1.65c0.101,0.467,0.25,0.867,0.45,1.2s0.45,0.583,0.75,0.75
				c0.267,0.167,0.6,0.25,1,0.25c0.367,0,0.717-0.101,1.05-0.3c0.3-0.167,0.55-0.417,0.75-0.75c0.233-0.334,0.4-0.75,0.5-1.25
				c0.101-0.5,0.15-1.084,0.15-1.75C365.65,253.767,364.884,252.45,363.35,252.45 M364,259.6c-0.233,0.167-0.483,0.25-0.75,0.25
				c-0.566,0-1-0.283-1.3-0.85c-0.267-0.566-0.4-1.383-0.4-2.45c0-1.167,0.15-2.033,0.45-2.6c0.3-0.601,0.733-0.9,1.3-0.9
				c1.101,0,1.65,1.15,1.65,3.45c0,0.533-0.033,1.017-0.1,1.45c-0.067,0.399-0.184,0.75-0.351,1.05
				C364.367,259.267,364.2,259.467,364,259.6 M359.15,253.5c-0.134-0.233-0.283-0.416-0.45-0.55c-0.2-0.167-0.434-0.284-0.7-0.351
				c-0.233-0.1-0.483-0.149-0.75-0.149c-0.6,0-1.166,0.149-1.7,0.45v0.699c0.5-0.366,1.018-0.55,1.551-0.55
				c0.5,0,0.866,0.134,1.1,0.4c0.267,0.233,0.4,0.566,0.4,1c0,0.5-0.167,0.884-0.5,1.149c-0.367,0.268-0.884,0.4-1.551,0.4H356v0.6
				h0.601c0.733,0,1.3,0.134,1.699,0.4c0.367,0.3,0.551,0.717,0.551,1.25c0,0.267-0.051,0.5-0.15,0.7s-0.233,0.366-0.4,0.5
				c-0.199,0.134-0.399,0.233-0.6,0.3c-0.233,0.066-0.467,0.1-0.7,0.1c-0.6,0-1.183-0.199-1.75-0.6V260c0.5,0.3,1.067,0.45,1.7,0.45
				c0.367,0,0.7-0.05,1-0.15c0.333-0.1,0.617-0.25,0.85-0.45c0.233-0.199,0.417-0.434,0.551-0.699c0.133-0.301,0.199-0.634,0.199-1
				c0-0.268-0.05-0.518-0.149-0.75c-0.066-0.2-0.184-0.384-0.351-0.551c-0.166-0.166-0.366-0.3-0.6-0.399
				c-0.2-0.067-0.434-0.116-0.7-0.15v-0.05c1.033-0.267,1.55-0.916,1.55-1.95C359.3,254,359.25,253.733,359.15,253.5 M353.9,259.7
				c-0.033-0.067-0.083-0.134-0.15-0.2c-0.033-0.033-0.083-0.066-0.149-0.1c-0.067-0.033-0.134-0.051-0.2-0.051
				c-0.134,0-0.25,0.051-0.351,0.15c-0.1,0.1-0.149,0.233-0.149,0.4c0,0.133,0.05,0.25,0.149,0.35c0.101,0.1,0.217,0.15,0.351,0.15
				c0.066,0,0.133-0.018,0.2-0.051c0.066,0,0.116-0.033,0.149-0.1c0.067-0.033,0.117-0.084,0.15-0.15c0-0.066,0-0.133,0-0.199
				S353.9,259.767,353.9,259.7 M353.9,255.2c0-0.067,0-0.134,0-0.2c-0.033-0.066-0.083-0.117-0.15-0.15
				c-0.033-0.066-0.083-0.1-0.149-0.1c-0.067-0.033-0.134-0.05-0.2-0.05c-0.134,0-0.25,0.05-0.351,0.149
				c-0.1,0.101-0.149,0.217-0.149,0.351c0,0.066,0.017,0.134,0.05,0.2c0,0.066,0.033,0.116,0.1,0.149
				c0.034,0.067,0.084,0.116,0.15,0.15c0.066,0,0.134,0,0.2,0s0.133,0,0.2,0c0.066-0.034,0.116-0.083,0.149-0.15
				c0.067-0.033,0.117-0.083,0.15-0.149C353.9,255.334,353.9,255.267,353.9,255.2 M349.8,253.15c0.2,0.066,0.367,0.166,0.5,0.3
				c0.134,0.134,0.233,0.3,0.301,0.5c0.066,0.167,0.1,0.366,0.1,0.6c0,0.267-0.033,0.5-0.1,0.7c-0.067,0.233-0.167,0.434-0.301,0.6
				c-0.133,0.2-0.3,0.384-0.5,0.551c-0.199,0.166-0.433,0.35-0.699,0.55c-0.367,0.267-0.684,0.5-0.95,0.7
				c-0.267,0.232-0.483,0.467-0.65,0.699c-0.166,0.2-0.3,0.434-0.399,0.7c-0.067,0.233-0.101,0.534-0.101,0.9v0.35h4.55v-0.6h-3.85
				c0-0.067,0.017-0.134,0.05-0.2c0-0.033,0-0.084,0-0.15c0.033-0.166,0.084-0.333,0.15-0.5c0.066-0.166,0.184-0.316,0.35-0.449
				c0.134-0.167,0.317-0.334,0.55-0.5c0.2-0.167,0.467-0.367,0.801-0.601c0.267-0.2,0.517-0.384,0.75-0.55
				c0.199-0.2,0.383-0.416,0.55-0.65c0.167-0.232,0.283-0.467,0.35-0.699c0.101-0.268,0.15-0.566,0.15-0.9
				c0-0.3-0.033-0.55-0.101-0.75c-0.1-0.233-0.232-0.45-0.399-0.65c-0.134-0.166-0.316-0.3-0.55-0.399
				c-0.2-0.101-0.434-0.167-0.7-0.2c-0.066,0-0.134,0-0.2,0c-0.033-0.033-0.083-0.05-0.15-0.05c-0.433,0-0.8,0.066-1.1,0.2
				c-0.333,0.133-0.633,0.316-0.9,0.55v0.75c0.268-0.267,0.567-0.483,0.9-0.65c0.3-0.167,0.634-0.25,1-0.25
				C349.4,253.05,349.6,253.084,349.8,253.15 M473.35,235c-0.3-0.233-0.733-0.35-1.3-0.35h-1.75v5.6h1.8
				c0.566,0,1.033-0.15,1.399-0.45c0.4-0.3,0.601-0.683,0.601-1.149c0-0.4-0.117-0.717-0.351-0.95
				c-0.232-0.233-0.55-0.384-0.949-0.45c0.333-0.1,0.583-0.267,0.75-0.5c0.199-0.233,0.3-0.5,0.3-0.8
				C473.85,235.55,473.683,235.233,473.35,235 M472.6,236.75c-0.2,0.166-0.467,0.25-0.8,0.25H471.2v-1.6h0.7
				c0.634,0,0.95,0.232,0.95,0.699C472.85,236.4,472.767,236.617,472.6,236.75 M471.2,237.75h0.7c0.8,0,1.2,0.283,1.2,0.85
				c0,0.301-0.101,0.518-0.3,0.65c-0.167,0.166-0.434,0.25-0.801,0.25h-0.8V237.75 M464.2,234.65h-1.3v5.6h0.85v-3.6
				c0-0.533-0.017-0.9-0.05-1.101h0.05c0.034,0.233,0.084,0.417,0.15,0.55l1.65,4.15h0.649l1.65-4.2
				c0.066-0.1,0.116-0.267,0.149-0.5h0.051c-0.033,0.434-0.051,0.8-0.051,1.101v3.6h0.9v-5.6h-1.25l-1.5,3.699
				c-0.066,0.167-0.15,0.384-0.25,0.65c-0.033-0.133-0.116-0.334-0.25-0.6L464.2,234.65 M458.051,235
				c0.1-0.334,0.25-0.617,0.449-0.85c0.167-0.234,0.384-0.417,0.65-0.551c0.233-0.1,0.5-0.149,0.8-0.149
				c0.267,0,0.517,0.033,0.75,0.1c0.2,0.034,0.384,0.101,0.55,0.2v-1.1c-0.133-0.066-0.316-0.117-0.55-0.15
				c-0.233-0.066-0.5-0.1-0.8-0.1c-0.467,0-0.9,0.1-1.3,0.3c-0.4,0.2-0.75,0.483-1.05,0.85c-0.301,0.366-0.533,0.833-0.7,1.4
				c-0.167,0.533-0.25,1.167-0.25,1.899c0,0.566,0.066,1.084,0.2,1.551c0.133,0.434,0.316,0.8,0.55,1.1s0.517,0.517,0.85,0.65
				c0.3,0.166,0.65,0.25,1.05,0.25c0.367,0,0.7-0.066,1-0.2c0.301-0.134,0.567-0.317,0.801-0.55c0.233-0.234,0.416-0.5,0.55-0.801
				c0.1-0.333,0.149-0.699,0.149-1.1c0-0.367-0.05-0.684-0.149-0.95c-0.101-0.3-0.25-0.55-0.45-0.75
				c-0.167-0.233-0.383-0.399-0.65-0.5c-0.3-0.1-0.616-0.149-0.949-0.149c-0.367,0-0.684,0.066-0.95,0.199
				c-0.3,0.167-0.533,0.367-0.7,0.601C457.9,235.767,457.95,235.367,458.051,235 M458.25,236.8c0.134-0.134,0.284-0.233,0.45-0.3
				c0.134-0.066,0.317-0.1,0.55-0.1c0.2,0,0.384,0.033,0.551,0.1c0.166,0.066,0.3,0.166,0.399,0.3
				c0.101,0.134,0.184,0.284,0.25,0.45c0.033,0.2,0.05,0.416,0.05,0.65c0,0.199-0.017,0.383-0.05,0.55
				c-0.066,0.2-0.149,0.366-0.25,0.5c-0.1,0.134-0.233,0.233-0.399,0.3c-0.167,0.066-0.351,0.1-0.551,0.1
				c-0.232,0-0.433-0.05-0.6-0.149c-0.167-0.101-0.3-0.233-0.4-0.4c-0.1-0.134-0.183-0.3-0.25-0.5c-0.033-0.2-0.05-0.384-0.05-0.55
				s0.017-0.334,0.05-0.5C458.067,237.084,458.15,236.934,458.25,236.8 M453,232.4c-0.333,0-0.633,0.05-0.899,0.149
				c-0.3,0.101-0.55,0.25-0.75,0.45c-0.2,0.166-0.367,0.367-0.5,0.6c-0.101,0.234-0.15,0.5-0.15,0.801
				c0,0.333,0.101,0.649,0.3,0.949c0.2,0.301,0.467,0.533,0.801,0.7c-0.233,0.101-0.434,0.217-0.601,0.351
				c-0.166,0.133-0.316,0.3-0.45,0.5c-0.1,0.166-0.183,0.35-0.25,0.55c-0.033,0.2-0.05,0.417-0.05,0.649
				c0,0.334,0.067,0.65,0.2,0.95c0.1,0.267,0.267,0.5,0.5,0.7s0.5,0.35,0.8,0.45c0.334,0.1,0.684,0.149,1.05,0.149
				c0.4,0,0.75-0.05,1.051-0.149c0.3-0.101,0.566-0.25,0.8-0.45s0.417-0.434,0.55-0.7c0.1-0.3,0.15-0.616,0.15-0.95
				c0-0.232-0.017-0.449-0.051-0.649c-0.066-0.2-0.149-0.384-0.25-0.55c-0.133-0.2-0.283-0.367-0.449-0.5
				c-0.167-0.134-0.367-0.25-0.601-0.351c0.334-0.167,0.601-0.399,0.8-0.7c0.2-0.3,0.301-0.616,0.301-0.949
				c0-0.301-0.067-0.566-0.2-0.801c-0.101-0.232-0.25-0.434-0.45-0.6c-0.2-0.2-0.45-0.35-0.75-0.45
				C453.634,232.45,453.334,232.4,453,232.4 M452.551,233.45c0.133-0.034,0.283-0.05,0.449-0.05c0.167,0,0.317,0.016,0.45,0.05
				c0.101,0.066,0.2,0.149,0.3,0.25c0.101,0.1,0.184,0.216,0.25,0.35c0.067,0.134,0.101,0.284,0.101,0.45s-0.033,0.316-0.101,0.45
				c-0.066,0.134-0.149,0.25-0.25,0.35c-0.1,0.101-0.216,0.184-0.35,0.25c-0.133,0.067-0.267,0.101-0.4,0.101
				c-0.166,0-0.3-0.033-0.399-0.101c-0.134-0.033-0.25-0.116-0.351-0.25c-0.1-0.1-0.183-0.216-0.25-0.35
				c-0.066-0.134-0.1-0.284-0.1-0.45c0-0.133,0.033-0.267,0.1-0.4c0.034-0.166,0.101-0.3,0.2-0.399
				C452.301,233.6,452.417,233.517,452.551,233.45 M453.551,236.7c0.166,0.066,0.316,0.167,0.449,0.3
				c0.101,0.133,0.184,0.283,0.25,0.45c0.067,0.167,0.101,0.35,0.101,0.55s-0.033,0.4-0.101,0.6c-0.066,0.167-0.149,0.316-0.25,0.45
				c-0.133,0.101-0.283,0.184-0.449,0.25c-0.167,0.067-0.351,0.101-0.551,0.101c-0.199,0-0.383-0.033-0.55-0.101
				c-0.166-0.066-0.316-0.149-0.45-0.25c-0.1-0.134-0.183-0.283-0.25-0.45c-0.066-0.199-0.1-0.399-0.1-0.6s0.033-0.4,0.1-0.6
				c0.067-0.167,0.167-0.316,0.301-0.45c0.1-0.134,0.233-0.233,0.399-0.3c0.167-0.066,0.351-0.101,0.55-0.101
				C453.2,236.55,453.384,236.6,453.551,236.7 M447.65,232.4c-0.467,0-0.9,0.1-1.3,0.3c-0.4,0.2-0.75,0.483-1.05,0.85
				c-0.301,0.366-0.533,0.833-0.7,1.4c-0.167,0.533-0.25,1.167-0.25,1.899c0,0.566,0.066,1.084,0.2,1.551
				c0.133,0.434,0.316,0.8,0.55,1.1s0.517,0.517,0.85,0.65c0.3,0.166,0.65,0.25,1.05,0.25c0.367,0,0.7-0.066,1-0.2
				c0.301-0.134,0.567-0.317,0.801-0.55c0.233-0.234,0.416-0.5,0.55-0.801c0.1-0.333,0.149-0.699,0.149-1.1
				c0-0.367-0.05-0.684-0.149-0.95c-0.101-0.3-0.25-0.55-0.45-0.75c-0.167-0.233-0.383-0.399-0.65-0.5
				c-0.3-0.1-0.616-0.149-0.949-0.149c-0.367,0-0.684,0.066-0.95,0.199c-0.3,0.167-0.533,0.367-0.7,0.601
				c0-0.434,0.05-0.833,0.15-1.2c0.1-0.334,0.25-0.617,0.449-0.85c0.167-0.234,0.384-0.417,0.65-0.551
				c0.233-0.1,0.5-0.149,0.8-0.149c0.267,0,0.517,0.033,0.75,0.1c0.2,0.034,0.384,0.101,0.55,0.2v-1.1
				c-0.133-0.066-0.316-0.117-0.55-0.15C448.217,232.434,447.95,232.4,447.65,232.4 M448.2,237.25c0.033,0.2,0.05,0.416,0.05,0.65
				c0,0.199-0.017,0.383-0.05,0.55c-0.066,0.2-0.149,0.366-0.25,0.5c-0.1,0.134-0.233,0.233-0.399,0.3
				c-0.167,0.066-0.351,0.1-0.551,0.1c-0.232,0-0.433-0.05-0.6-0.149c-0.167-0.101-0.3-0.233-0.4-0.4c-0.1-0.134-0.183-0.3-0.25-0.5
				c-0.033-0.2-0.05-0.384-0.05-0.55s0.017-0.334,0.05-0.5c0.067-0.166,0.15-0.316,0.25-0.45c0.134-0.134,0.284-0.233,0.45-0.3
				c0.134-0.066,0.317-0.1,0.55-0.1c0.2,0,0.384,0.033,0.551,0.1c0.166,0.066,0.3,0.166,0.399,0.3
				C448.051,236.934,448.134,237.084,448.2,237.25 M437.15,237.7h2.95v-0.9h-2.95V237.7 M395.25,240.25
				c1.301,0,2.351-0.367,3.15-1.1c0.8-0.7,1.2-1.65,1.2-2.851c0-2.5-1.434-3.75-4.301-3.75H393.1v7.7H395.25 M398.25,236.35
				c0,0.9-0.25,1.601-0.75,2.101c-0.5,0.466-1.2,0.7-2.1,0.7h-1.05v-5.5h1.1C397.317,233.65,398.25,234.55,398.25,236.35
				 M386.35,234.75h-0.9v1h0.9v3.1c0,1,0.533,1.5,1.6,1.5c0.4,0,0.717-0.05,0.95-0.149v-1c-0.134,0.134-0.316,0.2-0.55,0.2
				c-0.267,0-0.467-0.066-0.601-0.2c-0.1-0.167-0.149-0.4-0.149-0.7v-2.75h1.3v-1h-1.3v-1.65l-1.25,0.4V234.75 M382.4,232.55H381
				l-2.899,7.7h1.399l0.65-1.95h3.05l0.7,1.95h1.399L382.4,232.55 M381.55,234.2c0.034-0.134,0.067-0.3,0.101-0.5
				c0.066,0.2,0.116,0.366,0.149,0.5l1.051,3.05H380.5L381.55,234.2 M428.801,234.75h-1.25v8.05h1.25v-3.35h0.05
				c0.366,0.6,0.899,0.899,1.6,0.899c0.767,0,1.367-0.266,1.8-0.8c0.434-0.566,0.65-1.3,0.65-2.2c0-0.833-0.184-1.5-0.55-2
				c-0.4-0.5-0.95-0.75-1.65-0.75c-0.833,0-1.45,0.367-1.85,1.101h-0.05V234.75 M431.25,236.1c0.268,0.301,0.4,0.717,0.4,1.25
				c0,0.634-0.133,1.134-0.4,1.5c-0.267,0.367-0.633,0.551-1.1,0.551c-0.4,0-0.717-0.15-0.95-0.45c-0.267-0.267-0.399-0.601-0.399-1
				v-0.7c0-0.467,0.133-0.85,0.399-1.15c0.267-0.333,0.617-0.5,1.05-0.5C430.683,235.6,431.017,235.767,431.25,236.1 M421.45,235.4
				c-0.533,0.533-0.8,1.25-0.8,2.149c0,0.866,0.25,1.55,0.75,2.05c0.533,0.533,1.217,0.801,2.05,0.801
				c0.867,0,1.567-0.268,2.101-0.801c0.5-0.533,0.75-1.232,0.75-2.1c0-0.9-0.233-1.6-0.7-2.1c-0.5-0.533-1.167-0.801-2-0.801
				C422.7,234.6,421.983,234.867,421.45,235.4 M423.5,235.6c0.5,0,0.884,0.167,1.15,0.5c0.267,0.334,0.4,0.801,0.4,1.4
				s-0.134,1.066-0.4,1.4c-0.267,0.333-0.65,0.5-1.15,0.5c-0.466,0-0.85-0.167-1.149-0.5c-0.267-0.334-0.4-0.783-0.4-1.351
				c0-0.6,0.134-1.066,0.4-1.399C422.65,235.783,423.034,235.6,423.5,235.6 M405.5,237.85v-0.5c0-0.866-0.199-1.533-0.6-2
				c-0.4-0.5-0.983-0.75-1.75-0.75c-0.733,0-1.366,0.283-1.9,0.851c-0.5,0.533-0.75,1.216-0.75,2.05c0,0.934,0.233,1.65,0.7,2.15
				s1.101,0.75,1.9,0.75c0.833,0,1.5-0.167,2-0.5v-1c-0.5,0.366-1.05,0.55-1.65,0.55c-0.5,0-0.899-0.15-1.2-0.45
				c-0.3-0.267-0.466-0.65-0.5-1.15H405.5 M404,235.9c0.2,0.266,0.301,0.616,0.301,1.05h-2.551c0.067-0.434,0.233-0.767,0.5-1
				c0.233-0.267,0.534-0.4,0.9-0.4C403.517,235.55,403.801,235.666,404,235.9 M410,234.85c-0.399-0.166-0.866-0.25-1.399-0.25
				c-0.267,0-0.533,0.051-0.8,0.15c-0.267,0.066-0.517,0.166-0.75,0.3c-0.2,0.134-0.367,0.3-0.5,0.5c-0.134,0.2-0.2,0.434-0.2,0.7
				c0,0.2,0.033,0.383,0.1,0.55c0.067,0.167,0.167,0.317,0.3,0.45c0.101,0.133,0.25,0.25,0.45,0.35
				c0.167,0.101,0.367,0.184,0.601,0.25c0.166,0.066,0.333,0.134,0.5,0.2c0.133,0.067,0.267,0.134,0.399,0.2
				c0.101,0.066,0.184,0.133,0.25,0.2c0.067,0.1,0.101,0.216,0.101,0.35c0,0.434-0.384,0.65-1.15,0.65
				c-0.566,0-1.083-0.184-1.55-0.55v1.199c0.467,0.2,1,0.301,1.6,0.301c0.3,0,0.584-0.033,0.851-0.101
				c0.3-0.066,0.55-0.167,0.75-0.3c0.233-0.166,0.416-0.35,0.55-0.55c0.1-0.2,0.149-0.434,0.149-0.7c0-0.233-0.033-0.434-0.1-0.6
				c-0.066-0.167-0.167-0.316-0.3-0.45c-0.134-0.134-0.283-0.25-0.45-0.351c-0.2-0.1-0.417-0.199-0.65-0.3
				c-0.199-0.066-0.366-0.116-0.5-0.149c-0.133-0.066-0.25-0.134-0.35-0.2c-0.1-0.067-0.167-0.134-0.2-0.2
				c-0.066-0.066-0.1-0.166-0.1-0.3c0-0.101,0.033-0.184,0.1-0.25c0.033-0.101,0.101-0.167,0.2-0.2c0.1-0.066,0.217-0.117,0.35-0.15
				c0.101-0.033,0.233-0.05,0.4-0.05c0.5,0,0.95,0.134,1.35,0.4V234.85 M412.7,232.1h-1.25v8.15h1.25v-2.65h0.05l2.101,2.65h1.6
				L414,237.4l2.25-2.65h-1.5l-2,2.5h-0.05V232.1 M420,234.75h-1.3v-1.65l-1.25,0.4v1.25h-0.899v1h0.899v3.1
				c0,1,0.533,1.5,1.601,1.5c0.399,0,0.717-0.05,0.949-0.149v-1c-0.133,0.134-0.316,0.2-0.55,0.2c-0.267,0-0.467-0.066-0.6-0.2
				c-0.101-0.167-0.15-0.4-0.15-0.7v-2.75h1.3V234.75 M374.25,232.55h-0.75c-0.166,0.4-0.383,0.817-0.649,1.25
				c-0.267,0.434-0.567,0.884-0.9,1.351c-0.3,0.434-0.633,0.883-1,1.35c-0.333,0.434-0.684,0.834-1.05,1.2v0.649h3.649v1.9h0.7v-1.9
				h1.2V237.7h-1.2V232.55 M372.8,234.95c0.233-0.4,0.483-0.833,0.75-1.3v4.05h-2.85c0.2-0.2,0.4-0.45,0.6-0.75
				c0.233-0.267,0.467-0.567,0.7-0.9C372.266,235.684,372.533,235.316,372.8,234.95 M368.2,232.55h-0.75
				c-0.167,0.4-0.383,0.817-0.65,1.25c-0.267,0.434-0.566,0.884-0.899,1.351c-0.3,0.434-0.634,0.883-1,1.35
				c-0.333,0.434-0.684,0.834-1.05,1.2v0.649h3.649v1.9h0.7v-1.9h1.2V237.7h-1.2V232.55 M366.75,234.95
				c0.233-0.4,0.483-0.833,0.75-1.3v4.05h-2.85c0.2-0.2,0.399-0.45,0.6-0.75c0.233-0.267,0.467-0.567,0.7-0.9
				C366.217,235.684,366.483,235.316,366.75,234.95 M362.4,239.3c-0.134,0-0.25,0.05-0.351,0.15c-0.1,0.1-0.149,0.233-0.149,0.399
				c0,0.134,0.05,0.25,0.149,0.351c0.101,0.1,0.217,0.149,0.351,0.149c0.066,0,0.133-0.016,0.2-0.05c0.066,0,0.116-0.033,0.149-0.1
				c0.067-0.034,0.117-0.083,0.15-0.15c0-0.066,0-0.134,0-0.2s0-0.133,0-0.199c-0.033-0.066-0.083-0.134-0.15-0.2
				c-0.033-0.034-0.083-0.067-0.149-0.101C362.533,239.316,362.467,239.3,362.4,239.3 M362.9,234.95
				c-0.033-0.067-0.083-0.116-0.15-0.15c-0.033-0.066-0.083-0.1-0.149-0.1c-0.067-0.034-0.134-0.05-0.2-0.05
				c-0.134,0-0.25,0.05-0.351,0.149c-0.1,0.101-0.149,0.217-0.149,0.351c0,0.066,0.017,0.133,0.05,0.199
				c0,0.066,0.033,0.117,0.1,0.15c0.034,0.066,0.084,0.117,0.15,0.15c0.066,0,0.134,0,0.2,0s0.133,0,0.2,0
				c0.066-0.033,0.116-0.084,0.149-0.15c0.067-0.033,0.117-0.084,0.15-0.15c0-0.066,0-0.133,0-0.199S362.9,235.017,362.9,234.95
				 M356.3,233.15v0.75c0.268-0.268,0.567-0.484,0.9-0.65c0.3-0.166,0.634-0.25,1-0.25c0.2,0,0.4,0.033,0.6,0.1
				c0.2,0.066,0.367,0.167,0.5,0.301c0.134,0.133,0.233,0.3,0.301,0.5c0.066,0.166,0.1,0.366,0.1,0.6c0,0.267-0.033,0.5-0.1,0.7
				c-0.067,0.233-0.167,0.433-0.301,0.6c-0.133,0.2-0.3,0.384-0.5,0.55c-0.199,0.167-0.433,0.351-0.699,0.551
				c-0.367,0.266-0.684,0.5-0.95,0.699c-0.267,0.234-0.483,0.467-0.65,0.7c-0.166,0.2-0.3,0.434-0.399,0.7
				c-0.067,0.233-0.101,0.533-0.101,0.9v0.35h4.55v-0.6h-3.85c0-0.066,0.017-0.134,0.05-0.2c0-0.034,0-0.083,0-0.15
				c0.033-0.167,0.084-0.333,0.15-0.5s0.184-0.316,0.35-0.45c0.134-0.166,0.317-0.333,0.55-0.5c0.2-0.166,0.467-0.366,0.801-0.6
				c0.267-0.2,0.517-0.383,0.75-0.55c0.199-0.2,0.383-0.417,0.55-0.65s0.283-0.466,0.35-0.7c0.101-0.266,0.15-0.566,0.15-0.899
				c0-0.3-0.033-0.55-0.101-0.75c-0.1-0.233-0.232-0.45-0.399-0.65c-0.134-0.167-0.316-0.3-0.55-0.399
				c-0.2-0.101-0.434-0.167-0.7-0.2c-0.066,0-0.134,0-0.2,0c-0.033-0.034-0.083-0.05-0.15-0.05c-0.433,0-0.8,0.066-1.1,0.199
				C356.867,232.733,356.567,232.916,356.3,233.15 M504.5,215c-0.433-0.434-1.066-0.65-1.899-0.65c-0.2,0-0.417,0.018-0.65,0.051
				l0.15-1.95h2.75v-1.05h-3.8l-0.301,4.05c0.634-0.034,1.067-0.05,1.301-0.05c0.6,0,1.066,0.116,1.399,0.35
				c0.3,0.233,0.45,0.566,0.45,1c0,0.467-0.15,0.834-0.45,1.1c-0.333,0.268-0.767,0.4-1.3,0.4c-0.5,0-1-0.166-1.5-0.5v1.15
				c0.367,0.232,0.917,0.35,1.65,0.35c0.899,0,1.6-0.233,2.1-0.7c0.533-0.466,0.8-1.083,0.8-1.85
				C505.2,215.967,504.967,215.4,504.5,215 M493.15,216.55h2.95v-0.899h-2.95V216.55 M510.95,216.05h-2.1v0.8h1.2v1.301
				c-0.301,0.166-0.634,0.25-1,0.25c-0.567,0-1.017-0.184-1.351-0.551c-0.333-0.366-0.5-0.883-0.5-1.55c0-0.6,0.2-1.1,0.601-1.5
				c0.366-0.399,0.85-0.6,1.449-0.6c0.601,0,1.117,0.149,1.551,0.45v-0.95c-0.434-0.2-0.967-0.3-1.601-0.3
				c-0.866,0-1.566,0.283-2.1,0.85c-0.566,0.533-0.851,1.233-0.851,2.1c0,0.867,0.25,1.551,0.75,2.051c0.5,0.533,1.167,0.8,2,0.8
				c0.733,0,1.384-0.167,1.95-0.5V216.05 M515.25,213.85c-0.3-0.232-0.732-0.35-1.3-0.35h-1.75v5.6h1.8
				c0.567,0,1.034-0.149,1.4-0.449c0.4-0.301,0.6-0.684,0.6-1.15c0-0.4-0.116-0.717-0.35-0.95s-0.55-0.384-0.95-0.45
				c0.334-0.1,0.584-0.266,0.75-0.5c0.2-0.232,0.3-0.5,0.3-0.8C515.75,214.4,515.584,214.084,515.25,213.85 M513.7,215.85h-0.6v-1.6
				h0.7c0.633,0,0.949,0.233,0.949,0.7c0,0.3-0.083,0.517-0.25,0.649C514.301,215.767,514.034,215.85,513.7,215.85 M514.7,218.1
				c-0.166,0.167-0.433,0.25-0.8,0.25h-0.8v-1.75h0.7c0.8,0,1.199,0.283,1.199,0.851C515,217.75,514.9,217.967,514.7,218.1
				 M438.4,211.4H437L434.1,219.1h1.399l0.65-1.949h3.05l0.7,1.949h1.4L438.4,211.4 M437.551,213.05c0.033-0.134,0.066-0.3,0.1-0.5
				c0.066,0.2,0.117,0.366,0.15,0.5l1.05,3.05H436.5L437.551,213.05 M442.35,213.6h-0.9v1h0.9v3.101c0,1,0.533,1.5,1.6,1.5
				c0.4,0,0.717-0.05,0.95-0.15v-1c-0.133,0.134-0.316,0.2-0.55,0.2c-0.267,0-0.467-0.066-0.601-0.2
				c-0.1-0.167-0.149-0.399-0.149-0.7v-2.75h1.3v-1h-1.3v-1.649l-1.25,0.399V213.6 M461.5,216.2c0-0.866-0.199-1.534-0.6-2
				c-0.4-0.5-0.983-0.75-1.75-0.75c-0.733,0-1.366,0.283-1.9,0.85c-0.5,0.534-0.75,1.217-0.75,2.05c0,0.934,0.233,1.65,0.7,2.15
				s1.101,0.75,1.9,0.75c0.833,0,1.5-0.166,2-0.5v-1c-0.5,0.367-1.05,0.55-1.65,0.55c-0.5,0-0.899-0.149-1.2-0.45
				c-0.3-0.266-0.466-0.649-0.5-1.149h3.75V216.2 M460,214.75c0.2,0.267,0.301,0.617,0.301,1.05h-2.551
				c0.067-0.433,0.233-0.767,0.5-1c0.233-0.267,0.534-0.399,0.9-0.399C459.517,214.4,459.801,214.517,460,214.75 M455.6,215.15
				c0-2.5-1.434-3.75-4.3-3.75h-2.2v7.699h2.149c1.301,0,2.351-0.366,3.15-1.1C455.2,217.3,455.6,216.35,455.6,215.15 M451.45,212.5
				c1.867,0,2.8,0.9,2.8,2.7c0,0.899-0.25,1.6-0.75,2.1c-0.5,0.467-1.199,0.7-2.1,0.7h-1.05v-5.5H451.45 M482.301,216.35
				c0-0.899-0.233-1.6-0.7-2.1c-0.5-0.533-1.167-0.8-2-0.8c-0.9,0-1.617,0.267-2.15,0.8s-0.8,1.25-0.8,2.15
				c0,0.866,0.25,1.55,0.75,2.05c0.533,0.533,1.217,0.8,2.05,0.8c0.867,0,1.567-0.267,2.101-0.8
				C482.051,217.916,482.301,217.217,482.301,216.35 M478.35,215c0.3-0.367,0.684-0.55,1.149-0.55c0.5,0,0.884,0.167,1.15,0.5
				s0.4,0.8,0.4,1.399c0,0.601-0.134,1.066-0.4,1.4s-0.65,0.5-1.15,0.5c-0.466,0-0.85-0.166-1.149-0.5
				c-0.267-0.334-0.4-0.783-0.4-1.35C477.95,215.8,478.084,215.334,478.35,215 M484.85,214.55h-0.05v-0.95h-1.25v8.051h1.25V218.3
				h0.05c0.366,0.601,0.899,0.9,1.6,0.9c0.767,0,1.367-0.267,1.8-0.8c0.434-0.566,0.65-1.301,0.65-2.2c0-0.833-0.184-1.5-0.55-2
				c-0.4-0.5-0.95-0.75-1.65-0.75C485.867,213.45,485.25,213.816,484.85,214.55 M484.801,216.1c0-0.467,0.133-0.85,0.399-1.149
				c0.267-0.333,0.617-0.5,1.05-0.5c0.434,0,0.768,0.167,1,0.5c0.268,0.3,0.4,0.716,0.4,1.25c0,0.634-0.133,1.134-0.4,1.5
				c-0.267,0.366-0.633,0.55-1.1,0.55c-0.4,0-0.717-0.15-0.95-0.45c-0.267-0.267-0.399-0.6-0.399-1V216.1 M470.75,213.6l-2,2.5
				h-0.05v-5.149h-1.25v8.149h1.25v-2.649h0.05l2.101,2.649h1.6l-2.45-2.85l2.25-2.65H470.75 M466,214.8v-1.1
				c-0.399-0.167-0.866-0.25-1.399-0.25c-0.267,0-0.533,0.05-0.8,0.149c-0.267,0.066-0.517,0.167-0.75,0.301
				c-0.2,0.133-0.367,0.3-0.5,0.5c-0.134,0.199-0.2,0.434-0.2,0.699c0,0.2,0.033,0.384,0.1,0.551c0.067,0.166,0.167,0.316,0.3,0.449
				c0.101,0.134,0.25,0.25,0.45,0.351c0.167,0.1,0.367,0.183,0.601,0.25c0.166,0.066,0.333,0.134,0.5,0.2
				c0.133,0.066,0.267,0.133,0.399,0.199c0.101,0.066,0.184,0.134,0.25,0.2c0.067,0.101,0.101,0.217,0.101,0.351
				c0,0.434-0.384,0.649-1.15,0.649c-0.566,0-1.083-0.183-1.55-0.55v1.2c0.467,0.2,1,0.3,1.6,0.3c0.3,0,0.584-0.033,0.851-0.1
				c0.3-0.066,0.55-0.167,0.75-0.301c0.233-0.166,0.416-0.35,0.55-0.55c0.1-0.2,0.149-0.433,0.149-0.7c0-0.232-0.033-0.434-0.1-0.6
				s-0.167-0.316-0.3-0.45c-0.134-0.134-0.283-0.25-0.45-0.35c-0.2-0.101-0.417-0.2-0.65-0.3c-0.199-0.066-0.366-0.117-0.5-0.15
				c-0.133-0.066-0.25-0.133-0.35-0.2c-0.1-0.066-0.167-0.134-0.2-0.2c-0.066-0.066-0.1-0.166-0.1-0.3c0-0.1,0.033-0.183,0.1-0.25
				c0.033-0.1,0.101-0.167,0.2-0.2c0.1-0.066,0.217-0.116,0.35-0.149c0.101-0.034,0.233-0.05,0.4-0.05
				C465.15,214.4,465.6,214.533,466,214.8 M474.7,213.6v-1.649l-1.25,0.399v1.25h-0.899v1h0.899v3.101c0,1,0.533,1.5,1.601,1.5
				c0.399,0,0.717-0.05,0.949-0.15v-1c-0.133,0.134-0.316,0.2-0.55,0.2c-0.267,0-0.467-0.066-0.6-0.2
				c-0.101-0.167-0.15-0.399-0.15-0.7v-2.75h1.3v-1H474.7 M428.35,211.25c-0.833,0-1.45,0.35-1.851,1.05
				c-0.433,0.7-0.649,1.733-0.649,3.101c0,0.633,0.05,1.184,0.149,1.649c0.101,0.467,0.25,0.866,0.45,1.2s0.45,0.584,0.75,0.75
				c0.267,0.166,0.601,0.25,1,0.25c0.367,0,0.717-0.1,1.05-0.3c0.301-0.167,0.551-0.417,0.75-0.75c0.233-0.333,0.4-0.75,0.5-1.25
				c0.101-0.5,0.15-1.083,0.15-1.75C430.65,212.566,429.884,211.25,428.35,211.25 M427,212.75c0.301-0.6,0.733-0.9,1.301-0.9
				c1.1,0,1.649,1.15,1.649,3.45c0,0.534-0.033,1.017-0.1,1.45c-0.066,0.4-0.184,0.75-0.351,1.05c-0.133,0.267-0.3,0.467-0.5,0.601
				c-0.232,0.166-0.482,0.25-0.75,0.25c-0.566,0-1-0.283-1.3-0.851c-0.267-0.566-0.399-1.384-0.399-2.45
				C426.551,214.184,426.7,213.316,427,212.75 M424.9,215.2c0-2.634-0.767-3.95-2.3-3.95c-0.833,0-1.45,0.35-1.851,1.05
				c-0.433,0.7-0.649,1.733-0.649,3.101c0,0.633,0.05,1.184,0.149,1.649c0.101,0.467,0.25,0.866,0.45,1.2s0.45,0.584,0.75,0.75
				c0.267,0.166,0.601,0.25,1,0.25c0.367,0,0.717-0.1,1.05-0.3c0.301-0.167,0.551-0.417,0.75-0.75c0.233-0.333,0.4-0.75,0.5-1.25
				C424.85,216.45,424.9,215.867,424.9,215.2 M421.25,212.75c0.301-0.6,0.733-0.9,1.301-0.9c1.1,0,1.649,1.15,1.649,3.45
				c0,0.534-0.033,1.017-0.1,1.45c-0.066,0.4-0.184,0.75-0.351,1.05c-0.133,0.267-0.3,0.467-0.5,0.601
				c-0.232,0.166-0.482,0.25-0.75,0.25c-0.566,0-1-0.283-1.3-0.851c-0.267-0.566-0.399-1.384-0.399-2.45
				C420.801,214.184,420.95,213.316,421.25,212.75 M418.6,218.2c-0.066-0.034-0.134-0.05-0.2-0.05c-0.133,0-0.25,0.05-0.35,0.149
				c-0.101,0.101-0.15,0.233-0.15,0.4c0,0.134,0.05,0.25,0.15,0.35c0.1,0.101,0.217,0.15,0.35,0.15c0.066,0,0.134-0.017,0.2-0.05
				c0.066,0,0.116-0.033,0.149-0.101c0.067-0.033,0.117-0.083,0.15-0.149c0-0.066,0-0.134,0-0.2c0-0.067,0-0.134,0-0.2
				c-0.033-0.066-0.083-0.133-0.15-0.2C418.717,218.267,418.667,218.233,418.6,218.2 M418.6,213.55
				c-0.066-0.033-0.134-0.05-0.2-0.05c-0.133,0-0.25,0.05-0.35,0.15c-0.101,0.1-0.15,0.217-0.15,0.35c0,0.066,0.017,0.133,0.05,0.2
				c0,0.066,0.033,0.116,0.101,0.149c0.033,0.066,0.083,0.117,0.149,0.15c0.067,0,0.134,0,0.2,0s0.134,0,0.2,0
				c0.066-0.033,0.116-0.084,0.149-0.15c0.067-0.033,0.117-0.083,0.15-0.149c0-0.067,0-0.134,0-0.2s0-0.133,0-0.2
				c-0.033-0.066-0.083-0.116-0.15-0.149C418.717,213.584,418.667,213.55,418.6,213.55 M413.95,211.85c0.5,0,0.867,0.134,1.101,0.4
				c0.267,0.233,0.399,0.566,0.399,1c0,0.5-0.166,0.883-0.5,1.15c-0.366,0.266-0.883,0.399-1.55,0.399h-0.55v0.601h0.6
				c0.733,0,1.3,0.133,1.7,0.399c0.367,0.3,0.55,0.717,0.55,1.25c0,0.267-0.05,0.5-0.149,0.7c-0.101,0.2-0.233,0.367-0.4,0.5
				c-0.2,0.133-0.4,0.233-0.6,0.3c-0.233,0.067-0.467,0.101-0.7,0.101c-0.601,0-1.184-0.2-1.75-0.601v0.75
				c0.5,0.3,1.066,0.45,1.7,0.45c0.366,0,0.699-0.05,1-0.15c0.333-0.1,0.616-0.25,0.85-0.449c0.233-0.2,0.417-0.434,0.55-0.7
				c0.134-0.3,0.2-0.634,0.2-1c0-0.267-0.05-0.517-0.15-0.75c-0.066-0.2-0.183-0.384-0.35-0.55c-0.167-0.167-0.366-0.301-0.6-0.4
				c-0.2-0.066-0.434-0.117-0.7-0.15v-0.05c1.033-0.267,1.55-0.917,1.55-1.95c0-0.3-0.05-0.566-0.15-0.8
				c-0.133-0.233-0.283-0.417-0.449-0.55c-0.2-0.166-0.434-0.283-0.7-0.35c-0.233-0.101-0.483-0.15-0.75-0.15
				c-0.601,0-1.167,0.15-1.7,0.45v0.7C412.9,212.033,413.417,211.85,413.95,211.85 M148.1,302.55v-0.3H143.3v0.6h3.95
				c-0.333,0.601-0.649,1.2-0.95,1.801c-0.333,0.6-0.616,1.199-0.85,1.8c-0.233,0.6-0.434,1.2-0.6,1.8
				c-0.2,0.566-0.334,1.134-0.4,1.7h0.7c0.066-0.4,0.149-0.8,0.25-1.2c0.1-0.4,0.2-0.783,0.3-1.15
				c0.134-0.399,0.283-0.783,0.45-1.149c0.167-0.4,0.333-0.8,0.5-1.2c0.2-0.434,0.417-0.867,0.649-1.3
				C147.533,303.517,147.8,303.05,148.1,302.55 M142.1,304.15c0-0.301-0.033-0.551-0.101-0.75c-0.1-0.234-0.233-0.45-0.399-0.65
				c-0.134-0.166-0.317-0.3-0.551-0.4c-0.199-0.1-0.433-0.166-0.699-0.199c-0.067,0-0.134,0-0.2,0
				c-0.033-0.033-0.083-0.051-0.15-0.051c-0.433,0-0.8,0.066-1.1,0.2c-0.333,0.134-0.634,0.317-0.9,0.55v0.75
				c0.267-0.266,0.567-0.482,0.9-0.649c0.3-0.167,0.633-0.25,1-0.25c0.2,0,0.399,0.033,0.6,0.1c0.2,0.067,0.367,0.167,0.5,0.3
				c0.134,0.134,0.233,0.301,0.3,0.5c0.067,0.167,0.101,0.367,0.101,0.601c0,0.267-0.033,0.5-0.101,0.7
				c-0.066,0.232-0.166,0.434-0.3,0.6c-0.133,0.2-0.3,0.383-0.5,0.55s-0.433,0.351-0.7,0.55c-0.366,0.267-0.683,0.5-0.949,0.7
				c-0.267,0.233-0.483,0.467-0.65,0.7c-0.167,0.2-0.3,0.434-0.4,0.7c-0.066,0.233-0.1,0.533-0.1,0.899v0.351h4.55v-0.601h-3.85
				c0-0.066,0.017-0.133,0.05-0.199c0-0.034,0-0.084,0-0.15c0.033-0.167,0.083-0.333,0.15-0.5c0.066-0.167,0.183-0.316,0.35-0.45
				c0.134-0.166,0.316-0.333,0.55-0.5c0.2-0.166,0.467-0.366,0.8-0.6c0.268-0.2,0.518-0.384,0.75-0.55
				c0.2-0.2,0.384-0.417,0.551-0.65c0.166-0.233,0.283-0.467,0.35-0.7C142.05,304.783,142.1,304.483,142.1,304.15 M227.55,294
				c-0.732,0-1.366,0.283-1.899,0.85c-0.5,0.533-0.75,1.217-0.75,2.051c0,0.934,0.233,1.649,0.7,2.149s1.1,0.75,1.899,0.75
				c0.834,0,1.5-0.167,2-0.5v-1c-0.5,0.366-1.05,0.55-1.649,0.55c-0.5,0-0.9-0.149-1.2-0.449c-0.3-0.268-0.467-0.65-0.5-1.15h3.75
				v-0.5c0-0.867-0.2-1.533-0.601-2C228.9,294.25,228.317,294,227.55,294 M226.65,295.35c0.233-0.266,0.533-0.399,0.899-0.399
				c0.367,0,0.65,0.116,0.851,0.35c0.2,0.267,0.3,0.616,0.3,1.05h-2.55C226.217,295.916,226.384,295.584,226.65,295.35 M135.95,309
				c-0.133,0-0.25,0.05-0.35,0.15c-0.101,0.1-0.15,0.233-0.15,0.399c0,0.134,0.05,0.25,0.15,0.351c0.1,0.1,0.217,0.149,0.35,0.149
				c0.066,0,0.134-0.017,0.2-0.05c0.066,0,0.116-0.033,0.149-0.1c0.067-0.034,0.117-0.084,0.15-0.15c0-0.066,0-0.134,0-0.2
				s0-0.133,0-0.2c-0.033-0.066-0.083-0.133-0.15-0.199c-0.033-0.034-0.083-0.067-0.149-0.101S136.016,309,135.95,309
				 M133.65,309.05c0.233-0.333,0.399-0.75,0.5-1.25c0.1-0.5,0.149-1.083,0.149-1.75c0-2.634-0.767-3.95-2.3-3.95
				c-0.833,0-1.45,0.351-1.85,1.051c-0.434,0.699-0.65,1.732-0.65,3.1c0,0.634,0.05,1.184,0.15,1.65
				c0.1,0.466,0.25,0.866,0.45,1.199c0.199,0.334,0.449,0.584,0.75,0.75c0.267,0.167,0.6,0.25,1,0.25c0.366,0,0.717-0.1,1.05-0.3
				C133.2,309.634,133.45,309.384,133.65,309.05 M133.15,308.65c-0.134,0.267-0.3,0.466-0.5,0.6c-0.233,0.167-0.483,0.25-0.75,0.25
				c-0.566,0-1-0.283-1.3-0.85c-0.267-0.567-0.4-1.384-0.4-2.45c0-1.167,0.15-2.034,0.45-2.601c0.3-0.6,0.733-0.899,1.3-0.899
				c1.1,0,1.65,1.149,1.65,3.45c0,0.533-0.033,1.017-0.101,1.449C133.433,308,133.317,308.35,133.15,308.65 M136.3,304.5
				c-0.033-0.066-0.083-0.1-0.149-0.1c-0.066-0.033-0.134-0.051-0.2-0.051c-0.133,0-0.25,0.051-0.35,0.15
				c-0.101,0.1-0.15,0.217-0.15,0.35c0,0.066,0.017,0.134,0.05,0.2c0,0.067,0.033,0.116,0.101,0.15
				c0.033,0.066,0.083,0.116,0.149,0.149c0.067,0,0.134,0,0.2,0s0.134,0,0.2,0c0.066-0.033,0.116-0.083,0.149-0.149
				c0.067-0.034,0.117-0.083,0.15-0.15c0-0.066,0-0.134,0-0.2s0-0.133,0-0.199C136.417,304.584,136.367,304.533,136.3,304.5
				 M222.6,295.3h-0.051v-1.149h-1.25v5.5h1.25V297c0-0.566,0.134-1.017,0.4-1.35c0.233-0.334,0.533-0.5,0.9-0.5
				c0.3,0,0.517,0.066,0.649,0.199v-1.199c-0.133-0.066-0.3-0.101-0.5-0.101c-0.333,0-0.616,0.116-0.85,0.351
				C222.884,294.6,222.7,294.9,222.6,295.3 M215.2,294.8c-0.533,0.534-0.8,1.25-0.8,2.15c0,0.866,0.25,1.55,0.75,2.05
				c0.533,0.533,1.217,0.8,2.05,0.8c0.867,0,1.566-0.267,2.1-0.8c0.5-0.533,0.75-1.233,0.75-2.1c0-0.9-0.232-1.601-0.699-2.101
				c-0.5-0.533-1.167-0.8-2-0.8C216.45,294,215.733,294.267,215.2,294.8 M216.1,295.55c0.3-0.366,0.683-0.55,1.149-0.55
				c0.5,0,0.884,0.166,1.15,0.5s0.399,0.8,0.399,1.4c0,0.6-0.133,1.066-0.399,1.399s-0.65,0.5-1.15,0.5
				c-0.467,0-0.85-0.167-1.149-0.5c-0.267-0.333-0.4-0.783-0.4-1.35C215.7,296.35,215.834,295.883,216.1,295.55 M208.7,292.95
				c-0.767,0.767-1.15,1.767-1.15,3c0,1.134,0.334,2.05,1,2.75c0.7,0.733,1.601,1.1,2.7,1.1c0.867,0,1.584-0.149,2.15-0.45v-1.199
				c-0.533,0.333-1.15,0.5-1.851,0.5c-0.8,0-1.449-0.25-1.949-0.75c-0.467-0.5-0.7-1.167-0.7-2c0-0.9,0.267-1.617,0.8-2.15
				c0.5-0.533,1.167-0.8,2-0.8c0.634,0,1.2,0.149,1.7,0.45v-1.25c-0.467-0.234-1.083-0.351-1.851-0.351
				C210.417,291.8,209.467,292.184,208.7,292.95 M196.45,295h-0.05v-0.85h-1.25v5.5h1.25v-3c0-0.467,0.116-0.851,0.35-1.15
				c0.2-0.334,0.467-0.5,0.8-0.5c0.733,0,1.101,0.517,1.101,1.55v3.101h1.25v-3c0-0.434,0.116-0.816,0.35-1.15s0.5-0.5,0.8-0.5
				c0.4,0,0.684,0.133,0.851,0.4c0.167,0.266,0.25,0.684,0.25,1.25v3h1.25v-3.4c0-1.5-0.617-2.25-1.851-2.25
				c-0.8,0-1.399,0.383-1.8,1.15c-0.1-0.334-0.3-0.601-0.6-0.801c-0.267-0.232-0.601-0.35-1-0.35
				C197.384,294,196.817,294.334,196.45,295 M189.7,294.85c-0.5,0.533-0.75,1.217-0.75,2.051c0,0.934,0.233,1.649,0.7,2.149
				s1.1,0.75,1.899,0.75c0.834,0,1.5-0.167,2-0.5v-1c-0.5,0.366-1.05,0.55-1.649,0.55c-0.5,0-0.9-0.149-1.2-0.449
				c-0.3-0.268-0.467-0.65-0.5-1.15h3.75v-0.5c0-0.867-0.2-1.533-0.6-2c-0.4-0.5-0.983-0.75-1.75-0.75
				C190.867,294,190.233,294.283,189.7,294.85 M190.7,295.35c0.233-0.266,0.533-0.399,0.9-0.399c0.366,0,0.649,0.116,0.85,0.35
				c0.2,0.267,0.3,0.616,0.3,1.05h-2.55C190.266,295.916,190.433,295.584,190.7,295.35 M187,292.5l-1.25,0.4v1.25h-0.899v1h0.899
				v3.1c0,1,0.533,1.5,1.601,1.5c0.399,0,0.717-0.05,0.949-0.15v-1c-0.133,0.134-0.316,0.2-0.55,0.2c-0.267,0-0.467-0.066-0.6-0.2
				c-0.101-0.166-0.15-0.399-0.15-0.699v-2.75h1.3v-1H187V292.5 M181.65,295.35c0.033-0.1,0.1-0.166,0.2-0.199
				c0.1-0.066,0.217-0.117,0.35-0.15c0.1-0.033,0.233-0.05,0.4-0.05c0.5,0,0.949,0.134,1.35,0.399v-1.1
				c-0.4-0.166-0.866-0.25-1.4-0.25c-0.267,0-0.533,0.05-0.8,0.15c-0.267,0.066-0.517,0.166-0.75,0.3c-0.2,0.134-0.366,0.3-0.5,0.5
				c-0.133,0.2-0.2,0.433-0.2,0.7c0,0.199,0.034,0.383,0.101,0.55s0.167,0.316,0.3,0.45c0.1,0.133,0.25,0.25,0.45,0.35
				c0.167,0.1,0.366,0.184,0.6,0.25c0.167,0.066,0.334,0.133,0.5,0.2c0.134,0.066,0.267,0.134,0.4,0.2
				c0.1,0.066,0.184,0.133,0.25,0.199c0.066,0.101,0.1,0.217,0.1,0.351c0,0.433-0.383,0.649-1.149,0.649
				c-0.567,0-1.084-0.184-1.551-0.55v1.2c0.467,0.2,1,0.3,1.601,0.3c0.3,0,0.583-0.033,0.85-0.1c0.3-0.067,0.55-0.167,0.75-0.3
				c0.233-0.167,0.417-0.351,0.55-0.551c0.101-0.199,0.15-0.434,0.15-0.699c0-0.234-0.033-0.434-0.1-0.601
				c-0.067-0.167-0.167-0.316-0.301-0.45c-0.133-0.133-0.283-0.25-0.449-0.35c-0.2-0.1-0.417-0.2-0.65-0.3
				c-0.2-0.067-0.366-0.116-0.5-0.15c-0.133-0.066-0.25-0.134-0.35-0.2c-0.101-0.066-0.167-0.133-0.2-0.199
				c-0.066-0.066-0.101-0.167-0.101-0.301C181.55,295.5,181.584,295.416,181.65,295.35 M175.65,294.15H174.3l2.15,5.5l-0.35,0.899
				c-0.233,0.467-0.584,0.7-1.051,0.7c-0.166,0-0.35-0.033-0.55-0.1v1c0.2,0.066,0.417,0.1,0.65,0.1c0.934,0,1.667-0.566,2.2-1.7
				l2.5-6.399h-1.301l-1.35,4c-0.066,0.166-0.1,0.3-0.1,0.399h-0.051c-0.033-0.233-0.066-0.366-0.1-0.399L175.65,294.15
				 M170.6,293.45c0.1-0.134,0.233-0.25,0.399-0.351c0.134-0.066,0.3-0.116,0.5-0.149c0.167-0.034,0.351-0.05,0.55-0.05
				c0.7,0,1.268,0.149,1.7,0.449v-1.25c-0.366-0.199-0.95-0.3-1.75-0.3c-0.366,0-0.717,0.05-1.05,0.15
				c-0.333,0.066-0.633,0.2-0.9,0.399c-0.267,0.167-0.482,0.384-0.649,0.65s-0.25,0.584-0.25,0.95c0,0.3,0.05,0.55,0.149,0.75
				c0.101,0.233,0.233,0.433,0.4,0.6s0.35,0.317,0.55,0.45c0.233,0.166,0.483,0.316,0.75,0.45c0.233,0.1,0.467,0.2,0.7,0.3
				c0.2,0.1,0.384,0.217,0.55,0.35c0.134,0.101,0.25,0.217,0.351,0.351c0.1,0.134,0.149,0.283,0.149,0.45
				c0,0.366-0.133,0.633-0.399,0.8s-0.667,0.25-1.2,0.25c-0.167,0-0.333-0.017-0.5-0.05c-0.2-0.033-0.384-0.066-0.55-0.101
				c-0.2-0.066-0.384-0.149-0.551-0.25c-0.166-0.066-0.3-0.149-0.399-0.25v1.3c0.1,0.066,0.233,0.134,0.399,0.2
				c0.2,0.034,0.4,0.067,0.601,0.101c0.167,0.033,0.35,0.066,0.55,0.1s0.367,0.05,0.5,0.05c0.367,0,0.733-0.05,1.1-0.149
				c0.334-0.066,0.634-0.184,0.9-0.351s0.483-0.384,0.65-0.649c0.166-0.268,0.25-0.601,0.25-1c0-0.301-0.067-0.551-0.2-0.75
				c-0.101-0.234-0.233-0.45-0.4-0.65c-0.2-0.166-0.416-0.334-0.649-0.5s-0.483-0.316-0.75-0.45c-0.267-0.1-0.5-0.2-0.7-0.3
				s-0.367-0.2-0.5-0.3c-0.134-0.101-0.233-0.217-0.3-0.351c-0.067-0.133-0.101-0.283-0.101-0.449
				C170.5,293.7,170.533,293.55,170.6,293.45 M168.65,291.95h-1.15l-3.7,9h1.15L168.65,291.95 M161.95,294
				c-0.267,0-0.533,0.05-0.8,0.15c-0.267,0.066-0.517,0.166-0.75,0.3c-0.2,0.134-0.367,0.3-0.5,0.5c-0.134,0.2-0.2,0.433-0.2,0.7
				c0,0.199,0.033,0.383,0.1,0.55c0.067,0.167,0.167,0.316,0.301,0.45c0.1,0.133,0.25,0.25,0.449,0.35
				c0.167,0.1,0.367,0.184,0.601,0.25c0.167,0.066,0.333,0.133,0.5,0.2c0.133,0.066,0.267,0.134,0.399,0.2
				c0.101,0.066,0.184,0.133,0.25,0.199c0.067,0.101,0.101,0.217,0.101,0.351c0,0.433-0.384,0.649-1.15,0.649
				c-0.566,0-1.083-0.184-1.55-0.55v1.2c0.467,0.2,1,0.3,1.6,0.3c0.301,0,0.584-0.033,0.851-0.1c0.3-0.067,0.55-0.167,0.75-0.3
				c0.233-0.167,0.417-0.351,0.55-0.551c0.1-0.199,0.15-0.434,0.15-0.699c0-0.234-0.033-0.434-0.101-0.601
				c-0.066-0.167-0.166-0.316-0.3-0.45c-0.133-0.133-0.283-0.25-0.45-0.35c-0.2-0.1-0.416-0.2-0.649-0.3
				c-0.2-0.067-0.367-0.116-0.5-0.15c-0.134-0.066-0.25-0.134-0.351-0.2c-0.1-0.066-0.166-0.133-0.2-0.199
				c-0.066-0.066-0.1-0.167-0.1-0.301c0-0.1,0.033-0.184,0.1-0.25c0.034-0.1,0.101-0.166,0.2-0.199
				c0.101-0.066,0.217-0.117,0.351-0.15c0.1-0.033,0.233-0.05,0.399-0.05c0.5,0,0.95,0.134,1.351,0.399v-1.1
				C162.95,294.084,162.483,294,161.95,294 M157.25,295.3h-0.05v-1.149h-1.25v5.5h1.25V297c0-0.566,0.134-1.017,0.4-1.35
				c0.233-0.334,0.533-0.5,0.899-0.5c0.3,0,0.517,0.066,0.65,0.199v-1.199c-0.134-0.066-0.3-0.101-0.5-0.101
				c-0.333,0-0.617,0.116-0.851,0.351C157.533,294.6,157.35,294.9,157.25,295.3 M150.5,294.85c-0.5,0.533-0.75,1.217-0.75,2.051
				c0,0.934,0.233,1.649,0.7,2.149s1.1,0.75,1.9,0.75c0.833,0,1.5-0.167,2-0.5v-1c-0.5,0.366-1.051,0.55-1.65,0.55
				c-0.5,0-0.9-0.149-1.2-0.449c-0.3-0.268-0.467-0.65-0.5-1.15h3.75v-0.5c0-0.867-0.2-1.533-0.6-2c-0.4-0.5-0.983-0.75-1.75-0.75
				C151.667,294,151.033,294.283,150.5,294.85 M151,296.35c0.067-0.434,0.233-0.766,0.5-1c0.233-0.266,0.533-0.399,0.9-0.399
				c0.366,0,0.649,0.116,0.85,0.35c0.2,0.267,0.3,0.616,0.3,1.05H151 M145.2,294.15h-1.35l2,5.5h1.35l2.15-5.5h-1.301l-1.3,3.85
				c-0.066,0.233-0.116,0.483-0.149,0.75c-0.033-0.233-0.101-0.483-0.2-0.75L145.2,294.15 M143,294.15h-1.25v5.5H143V294.15
				 M141.85,292.8c0.166,0.134,0.35,0.2,0.55,0.2s0.383-0.066,0.55-0.2c0.134-0.134,0.2-0.3,0.2-0.5s-0.066-0.366-0.2-0.5
				c-0.167-0.134-0.35-0.2-0.55-0.2s-0.384,0.066-0.55,0.2c-0.134,0.134-0.2,0.3-0.2,0.5S141.717,292.666,141.85,292.8
				 M138.95,294.15h-1.25v5.5h1.25V297c0-0.566,0.134-1.017,0.4-1.35c0.233-0.334,0.533-0.5,0.899-0.5c0.3,0,0.517,0.066,0.65,0.199
				v-1.199c-0.134-0.066-0.3-0.101-0.5-0.101c-0.333,0-0.617,0.116-0.851,0.351c-0.267,0.199-0.449,0.5-0.55,0.899h-0.05V294.15
				 M136.45,295.7c0-2.5-1.434-3.75-4.3-3.75h-2.2v7.7h2.15c1.3,0,2.35-0.367,3.149-1.101C136.05,297.85,136.45,296.9,136.45,295.7
				 M132.3,293.05c1.867,0,2.801,0.9,2.801,2.7c0,0.9-0.25,1.6-0.75,2.1c-0.5,0.467-1.2,0.7-2.101,0.7h-1.05v-5.5H132.3 M127,285.2
				h-2.3v27.649h2.3V285.2 M86.5,250.6V262.9h38.2v11.25h2.3V262.9V250.6H86.5 M344.45,262.9V250.6H258V262.9H344.45 M127,242.4
				V230.1H86.5V242.4H127 M353.45,242.4V230.1H258V242.4H353.45 M127,221.9V209.6H86.5V221.9H127 M409.45,221.9V209.6H258V221.9
				H409.45z"/>
		</g>
	</g>
</g>
</svg>
