<?xml version="1.0" encoding="utf-8"?>
<!-- Generator: Adobe Illustrator 19.1.0, SVG Export Plug-In . SVG Version: 6.00 Build 0)  -->
<svg version="1.1" id="Layer_2" xmlns="http://www.w3.org/2000/svg" xmlns:xlink="http://www.w3.org/1999/xlink" x="0px" y="0px"
	 viewBox="0 0 448.7 385.5" style="enable-background:new 0 0 448.7 385.5;" xml:space="preserve">
<style type="text/css">
	.st0{fill:#CDCCCC;}
	.st1{fill:none;}
</style>
<g id="XMLID_1_">
	<g>
		<path class="st0" d="M66,276.5v9.1c-1.3,0.9-2.9,1.4-4.6,1.4H33.8c-0.1-1.1-0.2-2.3-0.2-3.4v-7.1H66z"/>
		<path class="st0" d="M33.8,287c0.2,2.4,0.7,4.7,1.4,6.9c-1,1.3-1.6,2.9-1.6,4.6V287H33.8z"/>
		<path class="st0" d="M66,343.8V378c0,4.1-3.4,7.5-7.5,7.5H41.2c-4.1,0-7.5-3.4-7.5-7.5v-34.2H66z"/>
		<path class="st0" d="M69.5,230.1v48.8c0,2.8-1.4,5.2-3.5,6.7v-9.1H33.7V222h27.8C65.9,222,69.5,225.6,69.5,230.1z"/>
		<path class="st0" d="M66,48.5V91H33.7v-7.8C33.7,64.9,47.9,49.8,66,48.5z"/>
		<rect x="33.7" y="40" class="st0" width="32.3" height="8.5"/>
		<path class="st0" d="M448.7,83.3v200.3c0,19.2-15.6,34.8-34.8,34.8h-28.4v-15.9c0-5-4-9-9-9h-62c-5,0-9,4-9,9v15.9H274v-27.6
			c0-5.1-4.1-9.3-9.3-9.3H137.6c-5.1,0-9.3,4.1-9.3,9.3v27.6H68.4c-0.8,0-1.6,0-2.4-0.1v-19.8v-12.9c2.1-1.5,3.5-3.9,3.5-6.7v-48.8
			c0-4.5-3.6-8.1-8.1-8.1H33.7v-31.1h29.8c5.3,0,9.5-4.3,9.5-9.5v-76.9c0-5.3-4.3-9.5-9.5-9.5H33.7v-4H66V48.5
			c0.8-0.1,1.6-0.1,2.4-0.1h345.5C433.1,48.5,448.7,64,448.7,83.3z M390.3,182.5c0-39.8-32.3-72.1-72.1-72.1H240h-39.5h-59.8
			c-6.8,0-12.3,5.5-12.3,12.3v59.8v59.8c0,6.8,5.5,12.3,12.3,12.3h59.8H240h78.2c19.9,0,37.9-8.1,51-21.1
			C382.2,220.5,390.3,202.5,390.3,182.5z"/>
		<path class="st0" d="M33.8,287h-0.2v-3.4C33.7,284.7,33.7,285.9,33.8,287z"/>
		<path class="st0" d="M66,318.3v25.5H33.7v-45.3c0-1.7,0.6-3.3,1.6-4.6C39.4,307.3,51.5,317.3,66,318.3z"/>
		<path class="st0" d="M33.7,283.6v3.4h-8.1c-4.5,0-8.1-3.6-8.1-8.1v-48.8c0-4.5,3.6-8.1,8.1-8.1h8.1v54.5V283.6z"/>
		<path class="st0" d="M66,285.6v12.9c0-4.1-3.4-7.5-7.5-7.5H41.2c-2.4,0-4.6,1.1-5.9,2.9c-0.7-2.2-1.2-4.5-1.4-6.9h27.6
			C63.1,287,64.7,286.5,66,285.6z"/>
		<path class="st0" d="M66,48.5L66,48.5c-18.1,1.3-32.3,16.4-32.3,34.8V48.5H66z"/>
		<path class="st0" d="M66,32.3V40H33.7c0-5-4-9-9-9H9.5C4.3,31,0,26.8,0,21.5v-12C0,4.3,4.3,0,9.5,0h24.3C51.6,0,66,14.4,66,32.3z"
			/>
		<path class="st0" d="M385.5,318.4V343c0,5-4,9-9,9h-62c-5,0-9-4-9-9v-24.6H322v17.1h16v-17.1H353v17.1h16v-17.1H385.5z"/>
		<path class="st0" d="M274,318.4v24.4c0,5.1-4.1,9.3-9.3,9.3H137.6c-5.1,0-9.3-4.1-9.3-9.3v-24.4h17.1v17.1h16v-17.1h14.9v17.1h16
			v-17.1h17.1v17.1h16v-17.1h14.9v17.1h16v-17.1H274z"/>
		<path class="st0" d="M66,298.5v19.8c-14.5-1-26.6-11-30.8-24.4c1.4-1.8,3.5-2.9,5.9-2.9h17.3C62.6,291,66,294.4,66,298.5z"/>
		<path class="st0" d="M274,290.8v27.6h-17.6h-16h-14.9h-16h-17.1h-16h-14.9h-16h-17.1v-27.6c0-5.1,4.1-9.3,9.3-9.3h127.1
			C269.9,281.5,274,285.6,274,290.8z"/>
		<path class="st0" d="M385.5,302.5v15.9H369h-16H338h-16h-16.5v-15.9c0-5,4-9,9-9h62C381.5,293.5,385.5,297.5,385.5,302.5z"/>
		<path class="st0" d="M33.7,95v95.9H27c-5.3,0-9.5-4.3-9.5-9.5v-76.9c0-5.3,4.3-9.5,9.5-9.5H33.7z"/>
		<path class="st0" d="M73,104.5v76.9c0,5.3-4.3,9.5-9.5,9.5H33.7V95h29.8C68.8,95,73,99.3,73,104.5z"/>
		<rect x="159.3" y="159.5" class="st0" width="66.2" height="17.3"/>
		<rect x="159.3" y="190.9" class="st0" width="66.2" height="17.3"/>
		<path class="st0" d="M313.1,128.6c30.3,0,54.8,24.6,54.8,54.8s-24.6,54.8-54.8,54.8c-30.3,0-54.8-24.6-54.8-54.8
			S282.8,128.6,313.1,128.6z M339.7,183.6c0-14.2-11.5-25.7-25.7-25.7s-25.7,11.5-25.7,25.7c0,14.2,11.5,25.7,25.7,25.7
			S339.7,197.8,339.7,183.6z"/>
	</g>
	<g>
		<polyline class="st1" points="33.7,276.5 33.7,222 33.7,190.9 33.7,95 33.7,91 		"/>
		<path class="st1" d="M145.5,318.4h-17.1H68.4c-0.8,0-1.6,0-2.4-0.1"/>
		<line class="st1" x1="176.4" y1="318.4" x2="161.5" y2="318.4"/>
		<line class="st1" x1="209.5" y1="318.4" x2="192.4" y2="318.4"/>
		<line class="st1" x1="240.4" y1="318.4" x2="225.5" y2="318.4"/>
		<polyline class="st1" points="322,318.4 305.5,318.4 274,318.4 256.4,318.4 		"/>
		<line class="st1" x1="353" y1="318.4" x2="338" y2="318.4"/>
		<path class="st1" d="M66,48.5c0.8-0.1,1.6-0.1,2.4-0.1h345.5c19.2,0,34.8,15.6,34.8,34.8v200.3c0,19.2-15.6,34.8-34.8,34.8h-28.4
			H369"/>
		<path class="st1" d="M200.5,254.7c-39.8,0-72.1-32.3-72.1-72.1c0-19.9,8.1-37.9,21.1-51c13.1-13.1,31.1-21.1,51-21.1"/>
		<path class="st1" d="M240,110.4h78.2c39.8,0,72.1,32.3,72.1,72.1c0,19.9-8.1,37.9-21.1,51c-13.1,13.1-31.1,21.1-51,21.1H240"/>
		<path class="st1" d="M240,254.7h-39.5h-59.8c-6.8,0-12.3-5.5-12.3-12.3v-59.8v-59.8c0-6.8,5.5-12.3,12.3-12.3h59.8H240
			c6.8,0,12.3,5.5,12.3,12.3v119.7C252.2,249.2,246.7,254.7,240,254.7z"/>
		<rect x="159.3" y="190.9" class="st1" width="66.2" height="17.3"/>
		<rect x="159.3" y="159.5" class="st1" width="66.2" height="17.3"/>
		<path class="st1" d="M305.5,318.4v-15.9c0-5,4-9,9-9h62c5,0,9,4,9,9v15.9V343c0,5-4,9-9,9h-62c-5,0-9-4-9-9V318.4z"/>
		<path class="st1" d="M128.4,318.4v-27.6c0-5.1,4.1-9.3,9.3-9.3h127.1c5.1,0,9.3,4.1,9.3,9.3v27.6v24.4c0,5.1-4.1,9.3-9.3,9.3
			H137.6c-5.1,0-9.3-4.1-9.3-9.3V318.4z"/>
		<rect x="145.5" y="318.4" class="st1" width="16" height="17.1"/>
		<rect x="176.4" y="318.4" class="st1" width="16" height="17.1"/>
		<rect x="209.5" y="318.4" class="st1" width="16" height="17.1"/>
		<rect x="240.4" y="318.4" class="st1" width="16" height="17.1"/>
		<rect x="322" y="318.4" class="st1" width="16" height="17.1"/>
		<rect x="353" y="318.4" class="st1" width="16" height="17.1"/>
		<path class="st1" d="M66,343.8V378c0,4.1-3.4,7.5-7.5,7.5H41.2c-4.1,0-7.5-3.4-7.5-7.5v-34.2"/>
		<path class="st1" d="M33.7,287h-8.1c-4.5,0-8.1-3.6-8.1-8.1v-48.8c0-4.5,3.6-8.1,8.1-8.1h8.1h27.8c4.5,0,8.1,3.6,8.1,8.1v48.8
			c0,2.8-1.4,5.2-3.5,6.7"/>
		<path class="st1" d="M33.7,95h29.8c5.3,0,9.5,4.3,9.5,9.5v76.9c0,5.3-4.3,9.5-9.5,9.5H33.7H27c-5.3,0-9.5-4.3-9.5-9.5v-76.9
			c0-5.3,4.3-9.5,9.5-9.5H33.7z"/>
		<path class="st1" d="M66,40v-7.8C66,14.4,51.6,0,33.8,0H9.5C4.3,0,0,4.3,0,9.5v12C0,26.8,4.3,31,9.5,31h15.2c5,0,9,4,9,9"/>
		<path class="st1" d="M367.9,183.4c0,30.3-24.6,54.8-54.8,54.8c-30.3,0-54.8-24.6-54.8-54.8s24.6-54.8,54.8-54.8
			C343.4,128.6,367.9,153.1,367.9,183.4z"/>
		<path class="st1" d="M339.7,183.6c0,14.2-11.5,25.7-25.7,25.7s-25.7-11.5-25.7-25.7c0-14.2,11.5-25.7,25.7-25.7
			S339.7,169.4,339.7,183.6z"/>
	</g>
</g>
</svg>
