<?xml version="1.0" encoding="utf-8"?>
<!-- Generator: Adobe Illustrator 15.1.0, SVG Export Plug-In . SVG Version: 6.00 Build 0)  -->
<!DOCTYPE svg PUBLIC "-//W3C//DTD SVG 1.1//EN" "http://www.w3.org/Graphics/SVG/1.1/DTD/svg11.dtd">
<svg version="1.1" id="Layer_1" xmlns="http://www.w3.org/2000/svg" xmlns:xlink="http://www.w3.org/1999/xlink" x="0px" y="0px"
	 width="428.601px" height="240.8px" viewBox="87.45 40.35 428.601 240.8" enable-background="new 87.45 40.35 428.601 240.8"
	 xml:space="preserve">
<g transform="matrix( 1, 0, 0, 1, 0,0) ">
	<g>
		<g id="Layer1_0_FILL">
			<path fill="#2D0B44" d="M286.75,215.65v-9.101H246.7v9.101h15.45V277.3h9.1V215.65H286.75 M239.5,206.55h-9.05v51.95
				c0,2.4-0.233,4.283-0.7,5.65c-0.467,1.333-1.066,2.316-1.8,2.949c-0.667,0.601-1.4,0.934-2.2,1c-0.767,0.101-1.467,0.15-2.1,0.15
				c-0.667,0-1.367-0.05-2.101-0.15c-0.8-0.066-1.533-0.399-2.199-1c-0.733-0.633-1.334-1.616-1.801-2.949
				c-0.466-1.367-0.699-3.25-0.699-5.65v-51.95H207.8v51.95c0,5.867,1.284,10.367,3.851,13.5c0.967,1.3,2.399,2.5,4.3,3.6
				c1.934,1.134,4.5,1.7,7.7,1.7s5.767-0.566,7.7-1.7c1.899-1.1,3.333-2.3,4.3-3.6c2.566-3.133,3.85-7.633,3.85-13.5V206.55
				 M281.2,135.25c-2.5-3.067-6.316-4.6-11.45-4.6H258.7v64.7h11.05c5.134,0,8.95-1.533,11.45-4.6c2.367-2.8,3.55-7.1,3.55-12.9
				V148.1C284.75,142.367,283.567,138.083,281.2,135.25 M261.7,133.6h8.05c4.134,0,7.167,1.183,9.101,3.55
				c1.866,2.333,2.8,5.983,2.8,10.95v29.75c0,5-0.934,8.683-2.8,11.05c-1.934,2.333-4.967,3.5-9.101,3.5h-8.05V133.6 M232.4,192.4
				v-27.95h20.25v-3H232.4V133.6h20.25v-2.95H229.4v64.7h23.25v-2.95H232.4 M223.55,147.55c0-5.633-1.216-9.85-3.649-12.65
				c-2.434-2.833-6.25-4.25-11.45-4.25H196.9v64.7h2.95v-30.9h8.6c5.2,0,9.017-1.417,11.45-4.25
				C222.334,157.4,223.55,153.183,223.55,147.55 M208.45,133.6c4.333,0,7.417,1.083,9.25,3.25c1.833,2.133,2.75,5.7,2.75,10.7
				c0,4.867-0.917,8.417-2.75,10.65c-1.9,2.167-4.983,3.25-9.25,3.25h-8.6V133.6H208.45 M190.9,147.55
				c0-5.633-1.217-9.85-3.65-12.65c-2.433-2.833-6.25-4.25-11.45-4.25h-11.55v64.7h2.95v-30.9h8.6c5.2,0,9.018-1.417,11.45-4.25
				C189.683,157.4,190.9,153.183,190.9,147.55 M167.2,133.6h8.6c4.334,0,7.417,1.083,9.25,3.25c1.834,2.133,2.75,5.7,2.75,10.7
				c0,4.867-0.916,8.417-2.75,10.65c-1.899,2.167-4.982,3.25-9.25,3.25h-8.6V133.6 M143.75,130.65h-2.399l-9.801,41.95v0.3
				l-5.1,22.45h3.1l4.4-19.8h17.1l4.4,19.8h3.1L143.75,130.65 M150.35,172.6H134.75l7.75-33.8L150.35,172.6 M121.45,130.55h-34v3.05
				h15.5v61.65h2.95V133.6h15.55V130.55 M265.8,42.45h-9.05v70.75h30.8v-9.05H265.8V42.45 M231.6,42.45h-9.051v70.75h30.801v-9.05
				H231.6V42.45 M194.45,93.5h12.25l4.5,19.8h9.45l-16.5-70.75h-7.25l-16.3,70.75h9.35L194.45,93.5 M196.55,84.5l4-17.35L204.6,84.5
				H196.55z"/>
		</g>
	</g>
</g>
<g transform="matrix( 1, 0, 0, 1, 0,0) ">
	<g>
		<g id="Layer0_0_FILL">
			<path fill="#5B0A91" d="M325.85,249.95V245.6H306.8v4.351h7.351v29.35h4.35v-29.35H325.85 M364.8,249.95h9.65v-4.3H360.5v33.699
				h4.3V264.65h9.65V260.3h-9.65V249.95 M332,246.5c-0.5,0.267-0.933,0.533-1.3,0.8c-0.333,0.333-0.633,0.65-0.9,0.95
				c-1.267,1.633-1.899,3.95-1.899,6.95v14.5c0,3,0.633,5.316,1.899,6.95c0.5,0.6,1.233,1.199,2.2,1.8c1,0.566,2.3,0.85,3.9,0.85
				c1.633,0,2.95-0.283,3.95-0.85c0.933-0.601,1.649-1.2,2.149-1.8c1.267-1.634,1.9-3.95,1.9-6.95v-14.5c0-3-0.634-5.317-1.9-6.95
				c-0.5-0.633-1.217-1.233-2.149-1.8c-1-0.567-2.317-0.851-3.95-0.851c-0.833,0-1.566,0.084-2.2,0.25
				C333.067,246.017,332.5,246.233,332,246.5 M334.8,250.05c0.4-0.066,0.768-0.1,1.101-0.1c0.3,0,0.667,0.033,1.1,0.1
				c0.434,0.034,0.851,0.217,1.25,0.55c0.367,0.301,0.684,0.816,0.95,1.551c0.267,0.732,0.4,1.75,0.4,3.05v14.5
				c0,1.333-0.134,2.366-0.4,3.1c-0.267,0.7-0.583,1.217-0.95,1.55c-0.399,0.301-0.816,0.484-1.25,0.551
				c-0.433,0.066-0.8,0.1-1.1,0.1c-0.333,0-0.7-0.033-1.101-0.1c-0.399-0.066-0.816-0.25-1.25-0.551
				c-0.399-0.333-0.716-0.85-0.949-1.55c-0.267-0.733-0.4-1.767-0.4-3.1v-14.5c0-1.3,0.134-2.317,0.4-3.05
				c0.233-0.734,0.55-1.25,0.949-1.551C333.983,250.267,334.4,250.084,334.8,250.05 M391.7,245.65h-4.8l7.8,16.8l-7.95,16.899h4.8
				l5.601-11.8l5.5,11.8h4.8l-7.95-16.899l8-16.8h-4.8l-5.55,11.75L391.7,245.65 M383.15,245.65h-4.3v33.699h4.3V245.65
				 M444.551,279.3v-29.35h7.35V245.6h-19.05v4.351h7.35v29.35H444.551 M429.301,245.65H425v33.699h4.301V245.65 M506.75,211.75
				c0.2,0.7,0.301,1.65,0.301,2.85v2.15h4.35v-2.15c0-3.033-0.65-5.35-1.95-6.949c-1.366-1.734-3.399-2.601-6.1-2.601
				c-2.667,0-4.684,0.866-6.05,2.601c-1.301,1.6-1.95,3.916-1.95,6.949v14.551c0,3.033,0.649,5.35,1.95,6.949
				c0.5,0.601,1.233,1.2,2.199,1.801c0.967,0.566,2.25,0.85,3.851,0.85c1.633,0,2.95-0.283,3.95-0.85
				c0.933-0.601,1.649-1.2,2.149-1.801c1.3-1.6,1.95-3.916,1.95-6.949v-6.9h-9.55v4.35h5.2v2.551c0,1.333-0.134,2.366-0.4,3.1
				c-0.267,0.7-0.583,1.217-0.95,1.55c-0.366,0.3-0.767,0.483-1.2,0.55c-0.433,0.066-0.816,0.101-1.149,0.101
				s-0.7-0.034-1.101-0.101c-0.399-0.066-0.816-0.25-1.25-0.55c-0.399-0.333-0.716-0.85-0.949-1.55c-0.267-0.733-0.4-1.767-0.4-3.1
				V214.6c0-1.199,0.1-2.149,0.3-2.85c0.233-0.7,0.517-1.233,0.851-1.6c0.366-0.367,0.767-0.601,1.199-0.7
				c0.467-0.067,0.917-0.101,1.351-0.101c0.467,0,0.917,0.033,1.35,0.101c0.467,0.1,0.867,0.333,1.2,0.7
				C506.267,210.517,506.551,211.05,506.75,211.75 M479.45,205h-3.6v33.7h4.3v-20.4l8.25,20.4h3.65V205H487.7v20.4L479.45,205
				 M472.301,205.05H468v33.7h4.301V205.05 M460.051,205.85c-1-0.566-2.317-0.85-3.95-0.85c-0.833,0-1.566,0.084-2.2,0.25
				c-0.633,0.166-1.2,0.383-1.7,0.65c-0.5,0.266-0.933,0.533-1.3,0.8c-0.333,0.333-0.633,0.649-0.9,0.95
				c-1.267,1.633-1.899,3.949-1.899,6.949v14.5c0,3,0.633,5.316,1.899,6.95c0.5,0.601,1.233,1.2,2.2,1.8
				c1,0.566,2.3,0.851,3.9,0.851c1.633,0,2.95-0.284,3.95-0.851c0.933-0.6,1.649-1.199,2.149-1.8c1.267-1.634,1.9-3.95,1.9-6.95
				v-14.5c0-3-0.634-5.316-1.9-6.949C461.7,207.017,460.983,206.416,460.051,205.85 M456.1,209.35c0.3,0,0.667,0.033,1.1,0.101
				c0.434,0.033,0.851,0.216,1.25,0.55c0.367,0.3,0.684,0.816,0.95,1.55s0.4,1.75,0.4,3.05v14.5c0,1.334-0.134,2.367-0.4,3.101
				c-0.267,0.7-0.583,1.216-0.95,1.55c-0.399,0.3-0.816,0.483-1.25,0.55c-0.433,0.067-0.8,0.101-1.1,0.101
				c-0.333,0-0.7-0.033-1.101-0.101c-0.399-0.066-0.816-0.25-1.25-0.55c-0.399-0.334-0.716-0.85-0.949-1.55
				c-0.267-0.733-0.4-1.767-0.4-3.101v-14.5c0-1.3,0.134-2.316,0.4-3.05c0.233-0.733,0.55-1.25,0.949-1.55
				c0.434-0.334,0.851-0.517,1.25-0.55C455.4,209.383,455.767,209.35,456.1,209.35 M445.5,228.95V214.8c0-3.1-0.683-5.45-2.05-7.05
				c-1.433-1.8-3.616-2.7-6.55-2.7h-6.7v33.7h6.7c2.934,0,5.117-0.9,6.55-2.7C444.817,234.416,445.5,232.05,445.5,228.95
				 M440.75,211.8c0.233,0.733,0.351,1.733,0.351,3v14.15c0,1.267-0.117,2.267-0.351,3c-0.232,0.733-0.533,1.283-0.899,1.649
				c-0.4,0.367-0.851,0.601-1.351,0.7c-0.5,0.101-1.033,0.15-1.6,0.15h-2.4V209.35h2.4c0.566,0,1.1,0.033,1.6,0.101
				c0.5,0.1,0.95,0.333,1.351,0.7C440.217,210.517,440.517,211.066,440.75,211.8 M405.95,209.35c0.3,0,0.667,0.033,1.101,0.101
				c0.433,0.033,0.85,0.216,1.25,0.55c0.399,0.3,0.717,0.816,0.949,1.55c0.268,0.767,0.4,1.8,0.4,3.101v2.149H414v-2.149
				c0-3-0.649-5.334-1.949-7c-0.5-0.634-1.233-1.234-2.2-1.801s-2.267-0.85-3.9-0.85c-1.166,0-2.25,0.233-3.25,0.7
				c-1,0.466-1.866,1.116-2.6,1.95c-0.7,0.866-1.233,1.883-1.601,3.05c-0.399,1.2-0.6,2.517-0.6,3.95c0,2.732,0.917,4.982,2.75,6.75
				c0.733,0.699,1.467,1.25,2.2,1.649c0.733,0.366,1.35,0.65,1.85,0.851l0.851,0.399c0.5,0.2,0.983,0.434,1.449,0.7
				c0.5,0.267,0.95,0.584,1.351,0.95c0.399,0.399,0.717,0.866,0.95,1.399c0.233,0.566,0.35,1.234,0.35,2c0,0.467-0.033,1-0.1,1.601
				c-0.101,0.6-0.267,1.149-0.5,1.649c-0.267,0.5-0.634,0.934-1.101,1.301c-0.5,0.333-1.166,0.5-2,0.5
				c-0.866,0-1.5-0.117-1.899-0.351c-0.367-0.233-0.634-0.45-0.801-0.649c-0.699-0.867-1.05-2.283-1.05-4.25V227h-4.3v2.15
				c0,3.033,0.65,5.35,1.95,6.949c1.366,1.734,3.399,2.601,6.1,2.601c2.601,0,4.65-0.967,6.15-2.9c1.267-1.7,1.899-3.85,1.899-6.45
				c0-2.732-0.949-4.967-2.85-6.699c-0.733-0.7-1.467-1.234-2.2-1.601c-0.767-0.333-1.35-0.583-1.75-0.75l-0.75-0.35
				c-0.533-0.2-1.066-0.45-1.6-0.75c-0.467-0.3-0.9-0.65-1.3-1.05c-0.4-0.4-0.733-0.884-1-1.45c-0.233-0.567-0.351-1.25-0.351-2.05
				c0-0.301,0.033-0.75,0.101-1.351c0.066-0.6,0.217-1.2,0.449-1.8c0.268-0.6,0.65-1.1,1.15-1.5
				C404.367,209.566,405.051,209.35,405.95,209.35 M372.65,214.45c0-3-0.684-5.317-2.05-6.95c-1.5-1.666-3.684-2.5-6.551-2.5h-7
				v33.7h4.301v-14.65h2.699c2.9,0,5.084-0.866,6.551-2.6C371.967,219.85,372.65,217.517,372.65,214.45 M365.9,209.5
				c0.533,0.133,0.983,0.383,1.35,0.75c0.334,0.367,0.601,0.883,0.8,1.55c0.167,0.667,0.25,1.55,0.25,2.65c0,2.1-0.333,3.5-1,4.2
				c-0.133,0.133-0.399,0.333-0.8,0.6c-0.433,0.3-1.25,0.45-2.45,0.45h-2.699V209.35h2.699C364.75,209.35,365.367,209.4,365.9,209.5
				 M394.35,205.05h-4.301v33.7h4.301V205.05 M308.15,238.75h4.3v-33.7h-4.3V238.75 M318,164.4h-3.45l-7.75,33.7h4.45l2.15-9.45
				h5.85l2.15,9.45h4.45L318,164.4 M314.4,184.4l1.899-8.3l1.95,8.3H314.4 M335.05,209.35V205H316v4.35h7.351V238.7h4.35V209.35
				H335.05 M348.3,205.05h-3.449l-7.75,33.7h4.449l2.15-9.45h5.85l2.15,9.45h4.45L348.3,205.05 M348.55,225.05h-3.85l1.9-8.3
				L348.55,225.05 M468.95,168.7v-4.35H449.9v4.35h7.35v29.35h4.351V168.7H468.95 M415.5,164.4h-4.3v33.7h4.3v-14.65h6.5v14.65
				h4.351v-33.7H422v14.65h-6.5V164.4 M441.15,164.4h-3.45l-7.75,33.7h4.45l2.15-9.45h5.85l2.15,9.45H449L441.15,164.4
				 M437.551,184.4l1.899-8.3l1.95,8.3H437.551 M480.801,133.4c0-3.1-0.634-5.45-1.9-7.05c-1.3-1.6-3.233-2.4-5.8-2.4
				c-2.5,0-4.4,0.8-5.7,2.4c-1.267,1.633-1.9,3.983-1.9,7.05v16.8c0,2,0.233,3.617,0.7,4.85c0.467,1.2,1.084,2.167,1.851,2.9
				c0.733,0.7,1.55,1.183,2.449,1.45c0.9,0.233,1.768,0.35,2.601,0.35c0.899,0,1.8-0.117,2.7-0.35c0.899-0.267,1.733-0.75,2.5-1.45
				c0.733-0.733,1.333-1.7,1.8-2.9c0.467-1.233,0.7-2.85,0.7-4.85V133.4 M473.1,125.55c2,0,3.5,0.633,4.5,1.9
				c1,1.233,1.5,3.216,1.5,5.95v16.8c0,2.8-0.5,4.816-1.5,6.05c-1.033,1.233-2.533,1.85-4.5,1.85s-3.434-0.617-4.4-1.85
				c-1-1.333-1.5-3.35-1.5-6.05v-16.8c0-2.667,0.5-4.65,1.5-5.95C469.634,126.183,471.1,125.55,473.1,125.55 M451.25,123.95h-1.699
				v35.8h13.75v-1.65H451.25V123.95 M395.65,164.4h-3.45l-4.75,21.5l-4.75-21.5h-4.45l7.45,33.7h3.45l4.8-21.55l4.7,21.55h3.5
				l7.45-33.7h-4.45l-4.75,21.5L395.65,164.4 M342.95,164.35h-4.35v20.4l-8.25-20.4h-3.601v33.7h4.3v-20.4l8.25,20.4h3.65V164.35
				 M352.95,164.4h-6.7v33.7h6.7c2.934,0,5.117-0.9,6.55-2.7c1.367-1.633,2.05-4,2.05-7.1v-14.15c0-3.1-0.683-5.45-2.05-7.05
				C358.067,165.3,355.884,164.4,352.95,164.4 M355.9,169.5c0.366,0.367,0.667,0.917,0.899,1.65c0.233,0.733,0.351,1.733,0.351,3
				v14.15c0,1.267-0.117,2.267-0.351,3c-0.232,0.733-0.533,1.284-0.899,1.65c-0.4,0.367-0.851,0.6-1.351,0.7s-1.033,0.15-1.6,0.15
				h-2.4v-25.1h2.4c0.566,0,1.1,0.033,1.6,0.1C355.05,168.9,355.5,169.133,355.9,169.5 M516.051,123.95h-1.75l-6.75,31.1
				l-6.851-31.1h-1.35l-6.851,31.1l-6.899-31.1h-1.7l7.9,35.8h1.35l6.85-31.1l6.851,31.1h1.399L516.051,123.95 M446.75,134.25v-0.85
				c0-3.1-0.633-5.45-1.899-7.05c-1.367-1.633-3.3-2.45-5.8-2.45c-2.467,0-4.4,0.95-5.801,2.85c-1.267,1.733-1.899,3.95-1.899,6.65
				c0,1.533,0.267,2.85,0.8,3.95c0.566,1.066,1.2,1.967,1.9,2.7c0.733,0.733,1.5,1.3,2.3,1.7c0.767,0.4,1.417,0.717,1.95,0.95
				l0.899,0.35c0.434,0.167,0.983,0.417,1.65,0.75c0.667,0.333,1.316,0.784,1.95,1.35c0.6,0.567,1.116,1.283,1.55,2.15
				c0.467,0.867,0.7,1.934,0.7,3.2c0,2.367-0.533,4.217-1.601,5.55c-1.033,1.333-2.5,2-4.399,2c-0.634,0-1.301-0.083-2-0.25
				c-0.733-0.167-1.384-0.517-1.95-1.05c-0.601-0.5-1.083-1.267-1.45-2.3c-0.4-1.034-0.6-2.45-0.6-4.25v-0.75h-1.7v0.75
				c0,3.167,0.649,5.517,1.95,7.05c1.267,1.633,3.183,2.45,5.75,2.45c2.467,0,4.399-0.9,5.8-2.7c1.267-1.667,1.899-3.833,1.899-6.5
				c0-1.567-0.267-2.883-0.8-3.95c-0.566-1.033-1.217-1.9-1.95-2.6c-0.767-0.7-1.533-1.233-2.3-1.6s-1.383-0.633-1.85-0.8l-0.9-0.4
				c-0.5-0.2-1.083-0.483-1.75-0.85c-0.7-0.367-1.35-0.85-1.95-1.45c-0.633-0.6-1.149-1.35-1.55-2.25
				c-0.433-0.867-0.649-1.934-0.649-3.2c0-2.3,0.517-4.183,1.55-5.65s2.517-2.2,4.45-2.2c2,0,3.483,0.617,4.449,1.85
				c1.034,1.3,1.551,3.3,1.551,6v0.85H446.75 M403.15,126.35c-1.267,1.633-1.9,3.983-1.9,7.05v16.8c0,2,0.233,3.617,0.7,4.85
				c0.467,1.2,1.084,2.167,1.851,2.9c0.733,0.7,1.55,1.183,2.449,1.45c0.9,0.233,1.768,0.35,2.601,0.35c0.899,0,1.8-0.117,2.7-0.35
				c0.899-0.267,1.733-0.75,2.5-1.45c0.733-0.733,1.333-1.7,1.8-2.9c0.467-1.233,0.7-2.85,0.7-4.85v-16.8c0-3.1-0.634-5.45-1.9-7.05
				c-1.3-1.6-3.233-2.4-5.8-2.4C406.35,123.95,404.45,124.75,403.15,126.35 M402.95,133.4c0-2.667,0.5-4.65,1.5-5.95
				c0.934-1.267,2.4-1.9,4.4-1.9s3.5,0.633,4.5,1.9c1,1.233,1.5,3.216,1.5,5.95v16.8c0,2.8-0.5,4.816-1.5,6.05
				c-1.033,1.233-2.533,1.85-4.5,1.85s-3.434-0.617-4.4-1.85c-1-1.333-1.5-3.35-1.5-6.05V133.4 M384.7,126.75
				c-1.267,1.733-1.9,3.95-1.9,6.65c0,1.533,0.268,2.85,0.801,3.95c0.566,1.066,1.199,1.967,1.899,2.7c0.733,0.733,1.5,1.3,2.3,1.7
				c0.768,0.4,1.417,0.717,1.95,0.95l0.9,0.35c0.434,0.167,0.983,0.417,1.649,0.75c0.667,0.333,1.317,0.784,1.95,1.35
				c0.601,0.567,1.117,1.283,1.55,2.15c0.467,0.867,0.7,1.934,0.7,3.2c0,2.367-0.533,4.217-1.6,5.55c-1.033,1.333-2.5,2-4.4,2
				c-0.633,0-1.3-0.083-2-0.25c-0.733-0.167-1.383-0.517-1.95-1.05c-0.6-0.5-1.083-1.267-1.449-2.3
				c-0.4-1.034-0.601-2.45-0.601-4.25v-0.75h-1.7v0.75c0,3.167,0.65,5.517,1.95,7.05c1.267,1.633,3.184,2.45,5.75,2.45
				c2.467,0,4.4-0.9,5.8-2.7c1.268-1.667,1.9-3.833,1.9-6.5c0-1.567-0.267-2.883-0.8-3.95c-0.566-1.033-1.217-1.9-1.95-2.6
				c-0.767-0.7-1.533-1.233-2.3-1.6s-1.384-0.633-1.851-0.8l-0.899-0.4c-0.5-0.2-1.083-0.483-1.75-0.85
				c-0.7-0.367-1.351-0.85-1.95-1.45c-0.633-0.6-1.15-1.35-1.55-2.25c-0.434-0.867-0.65-1.934-0.65-3.2c0-2.3,0.517-4.183,1.55-5.65
				c1.034-1.467,2.518-2.2,4.45-2.2c2,0,3.483,0.617,4.45,1.85c1.033,1.3,1.55,3.3,1.55,6v0.85h1.7v-0.85c0-3.1-0.633-5.45-1.9-7.05
				c-1.366-1.633-3.3-2.45-5.8-2.45C388.033,123.9,386.1,124.85,384.7,126.75 M308.8,125.55h11.25v-1.6H307.15v35.8h1.649v-17.1
				h11.25V141H308.8V125.55 M357.35,123.95h-1.7v35.8h13.75v-1.65h-12.05V123.95 M325.4,125.55h11.2v-1.6h-12.9v35.8h12.9v-1.65
				h-11.2v-15.45h11.2V141h-11.2V125.55 M341.5,141v-15.45h11.2v-1.6h-12.9v35.8h12.9v-1.65h-11.2v-15.45h11.2V141H341.5
				 M464.5,96.1c-0.433-0.867-0.649-1.934-0.649-3.2c0-2.3,0.517-4.183,1.55-5.65s2.517-2.2,4.45-2.2c2,0,3.483,0.617,4.45,1.85
				c1.033,1.3,1.55,3.3,1.55,6v0.85h1.7V92.9c0-3.1-0.634-5.45-1.9-7.05c-1.366-1.633-3.3-2.45-5.8-2.45c-2.467,0-4.4,0.95-5.8,2.85
				c-1.267,1.733-1.9,3.95-1.9,6.65c0,1.533,0.267,2.85,0.8,3.95c0.567,1.066,1.2,1.967,1.9,2.7c0.733,0.733,1.5,1.3,2.3,1.7
				c0.767,0.4,1.417,0.717,1.95,0.95l0.899,0.35c0.434,0.167,0.983,0.417,1.65,0.75c0.667,0.333,1.316,0.784,1.95,1.35
				c0.6,0.567,1.116,1.283,1.55,2.15c0.467,0.867,0.7,1.934,0.7,3.2c0,2.367-0.533,4.217-1.601,5.55c-1.033,1.333-2.5,2-4.399,2
				c-0.634,0-1.3-0.083-2-0.25c-0.733-0.167-1.384-0.517-1.95-1.05c-0.6-0.5-1.083-1.267-1.45-2.3c-0.399-1.034-0.6-2.45-0.6-4.25
				v-0.75h-1.7v0.75c0,3.167,0.65,5.517,1.95,7.05c1.267,1.633,3.184,2.45,5.75,2.45c2.467,0,4.399-0.9,5.8-2.7
				c1.267-1.667,1.9-3.833,1.9-6.5c0-1.567-0.267-2.883-0.801-3.95c-0.566-1.033-1.216-1.9-1.949-2.6
				c-0.767-0.7-1.533-1.233-2.301-1.6c-0.767-0.367-1.383-0.633-1.85-0.8l-0.9-0.4c-0.5-0.2-1.083-0.483-1.75-0.85
				c-0.699-0.367-1.35-0.85-1.949-1.45C465.417,97.75,464.9,97,464.5,96.1 M458.45,92.9c0-3.267-0.666-5.667-2-7.2
				c-1.333-1.534-3.433-2.3-6.3-2.3h-6.4v35.8h1.65v-16.75h4.75c2.134,0,3.783,0.583,4.95,1.75c1.167,1.2,1.75,2.883,1.75,5.05v9.95
				h1.7v-9.95c0-2.7-0.783-4.817-2.351-6.35c-0.533-0.5-1.149-0.917-1.85-1.25c0.866-0.4,1.583-0.95,2.149-1.65
				C457.801,98.467,458.45,96.1,458.45,92.9 M450.15,85.05c2.4,0,4.1,0.617,5.1,1.85c1.034,1.167,1.551,3.167,1.551,6
				c0,2.767-0.533,4.783-1.601,6.05c-0.967,1.2-2.649,1.8-5.05,1.8h-4.75v-15.7H450.15 M440.45,83.45h-12.899v35.8h12.899v-1.65
				h-11.2v-15.45h11.2v-1.65h-11.2V85.05h11.2V83.45 M317.5,83.8c-0.899-0.233-1.783-0.35-2.649-0.35c-0.867,0-1.75,0.116-2.65,0.35
				s-1.717,0.7-2.45,1.4c-0.767,0.7-1.383,1.667-1.85,2.9s-0.7,2.833-0.7,4.8v16.8c0,2,0.233,3.617,0.7,4.85
				c0.467,1.2,1.083,2.167,1.85,2.9c0.733,0.7,1.55,1.183,2.45,1.45c0.9,0.233,1.783,0.35,2.65,0.35c0.866,0,1.75-0.117,2.649-0.35
				c0.9-0.267,1.733-0.75,2.5-1.45c0.733-0.733,1.334-1.7,1.8-2.9c0.467-1.233,0.7-2.85,0.7-4.85v-0.8h-1.7v0.8
				c0,2.7-0.5,4.716-1.5,6.05c-1.033,1.233-2.517,1.85-4.449,1.85c-1.967,0-3.434-0.617-4.4-1.85c-1-1.267-1.5-3.283-1.5-6.05V92.9
				c0-2.733,0.483-4.717,1.45-5.95c1.033-1.267,2.517-1.9,4.45-1.9c1.933,0,3.416,0.633,4.449,1.9c1,1.233,1.5,3.216,1.5,5.95v0.85
				h1.7V92.9c0-1.967-0.233-3.566-0.7-4.8c-0.466-1.233-1.066-2.2-1.8-2.9C319.233,84.5,318.4,84.033,317.5,83.8 M389.25,83.4H387.6
				v27c0,1.8,0.233,3.283,0.699,4.45c0.434,1.167,1,2.066,1.7,2.7c0.667,0.633,1.434,1.067,2.3,1.3c0.834,0.233,1.65,0.35,2.45,0.35
				c0.767,0,1.584-0.117,2.45-0.35c0.834-0.233,1.601-0.667,2.3-1.3c0.667-0.633,1.217-1.533,1.65-2.7
				c0.434-1.167,0.65-2.65,0.65-4.45v-27H400.2v27c0,1.6-0.183,2.867-0.55,3.8c-0.366,0.966-0.816,1.683-1.35,2.15
				c-0.533,0.5-1.117,0.833-1.75,1c-0.634,0.133-1.233,0.2-1.801,0.2c-0.6,0-1.217-0.066-1.85-0.2c-0.667-0.167-1.25-0.5-1.75-1
				c-0.533-0.467-0.983-1.184-1.351-2.15c-0.366-0.934-0.55-2.2-0.55-3.8V83.4 M376.2,83.45h-6.4v35.8h1.65v-17.1h4.75
				c2.867,0,4.983-0.783,6.35-2.35c1.334-1.566,2-3.917,2-7.05c0-3.1-0.666-5.433-2-7C381.183,84.217,379.067,83.45,376.2,83.45
				 M371.45,85.05h4.75c2.4,0,4.1,0.6,5.1,1.8c1.034,1.167,1.551,3.133,1.551,5.9c0,2.7-0.517,4.667-1.551,5.9
				c-1.033,1.233-2.732,1.85-5.1,1.85h-4.75V85.05 M345.8,83.45h-1.449v35.8H346v-29l8.351,29h1.3l8.3-29v29h1.7v-35.8h-1.5
				L355,115.4L345.8,83.45 M333.2,83.45c-2.5,0-4.4,0.8-5.7,2.4c-1.267,1.633-1.899,3.983-1.899,7.05v16.8
				c0,2,0.233,3.617,0.699,4.85c0.467,1.2,1.084,2.167,1.851,2.9c0.733,0.7,1.55,1.183,2.45,1.45c0.899,0.233,1.767,0.35,2.6,0.35
				c0.9,0,1.8-0.117,2.7-0.35c0.899-0.267,1.733-0.75,2.5-1.45c0.733-0.733,1.333-1.7,1.8-2.9c0.467-1.233,0.7-2.85,0.7-4.85V92.9
				c0-3.1-0.634-5.45-1.9-7.05C337.7,84.25,335.766,83.45,333.2,83.45 M327.3,92.9c0-2.667,0.5-4.65,1.5-5.95
				c0.934-1.267,2.4-1.9,4.4-1.9s3.5,0.633,4.5,1.9c1,1.233,1.5,3.216,1.5,5.95v16.8c0,2.8-0.5,4.816-1.5,6.05
				c-1.033,1.233-2.533,1.85-4.5,1.85s-3.434-0.617-4.4-1.85c-1-1.333-1.5-3.35-1.5-6.05V92.9 M396,42.95h-1.7v35.8h1.7V42.95
				 M424.801,83.4H405.95v1.65h8.601v34.15h1.6V85.05h8.65V83.4 M430.35,42.95H429l-5.399,23.2v0.15l-2.851,12.45h1.75l2.4-10.95
				h9.5l2.45,10.95h1.7L430.35,42.95 M434,66.15h-8.649l4.3-18.7L434,66.15 M418,44.55V42.9h-18.85v1.65h8.6V78.7h1.601V44.55H418
				 M454.4,45.25c-1.366-1.533-3.483-2.3-6.35-2.3h-6.4v35.8h1.65v-17.1h4.75c2.866,0,4.983-0.783,6.35-2.35
				c1.333-1.566,2-3.917,2-7.05C456.4,49.15,455.733,46.816,454.4,45.25 M448.051,44.55c2.399,0,4.1,0.6,5.1,1.8
				c1.033,1.167,1.55,3.133,1.55,5.9c0,2.7-0.517,4.667-1.55,5.9s-2.733,1.85-5.1,1.85h-4.75V44.55H448.051 M380.75,42.95h-1.899
				l-8.9,16.1l-8.85-16.1h-1.9l9.95,18.1v17.7h1.649v-17.7L380.75,42.95 M343.65,42.95h-1.75v35.8h1.75V61.7h10.85v17.05h1.65v-35.8
				h-1.65v17.1h-10.85V42.95 M338.95,42.95h-1.75l-6.75,31.1l-6.85-31.1h-1.351l-6.85,31.1l-6.9-31.1h-1.7l7.9,35.8h1.35l6.851-31.1
				l6.85,31.1h1.4L338.95,42.95z"/>
			<path fill="#2D0B44" d="M185.1,270.95c0.199-0.833,0.1-1.634-0.301-2.4l-8.3-14.25c-0.467-0.767-1.1-1.25-1.899-1.45
				c-0.867-0.232-1.667-0.133-2.4,0.301s-1.217,1.066-1.45,1.899c-0.2,0.833-0.083,1.634,0.351,2.4l8.25,14.25
				c0.433,0.767,1.066,1.267,1.899,1.5c0.834,0.2,1.634,0.083,2.4-0.351C184.384,272.416,184.867,271.783,185.1,270.95z"/>
			<path fill="#2D0B44" fill-opacity="0.9216" d="M181.8,246.75c-0.767-0.434-1.566-0.55-2.399-0.35
				c-0.833,0.232-1.467,0.717-1.9,1.449c-0.433,0.734-0.533,1.533-0.3,2.4c0.2,0.8,0.684,1.434,1.45,1.9l14.25,8.3
				c0.767,0.399,1.566,0.5,2.399,0.3c0.834-0.233,1.467-0.717,1.9-1.45c0.434-0.767,0.55-1.566,0.35-2.399
				c-0.232-0.834-0.732-1.467-1.5-1.9L181.8,246.75z"/>
			<path fill="#2D0B44" fill-opacity="0.8392" d="M180.35,238.4c-0.601,0.6-0.9,1.333-0.9,2.199c0,0.867,0.3,1.617,0.9,2.25
				c0.6,0.601,1.333,0.9,2.199,0.9h16.5c0.9,0,1.65-0.3,2.25-0.9c0.601-0.633,0.917-1.383,0.95-2.25
				c-0.033-0.866-0.35-1.6-0.95-2.199c-0.6-0.601-1.35-0.9-2.25-0.9h-16.5C181.683,237.5,180.95,237.8,180.35,238.4z"/>
			<path fill="#2D0B44" fill-opacity="0.6784" d="M185.1,210.3c-0.233-0.833-0.717-1.466-1.45-1.899
				c-0.767-0.467-1.55-0.584-2.351-0.351c-0.866,0.233-1.517,0.717-1.949,1.45l-8.25,14.3c-0.467,0.733-0.584,1.517-0.351,2.351
				c0.233,0.833,0.717,1.482,1.45,1.949c0.733,0.434,1.533,0.533,2.4,0.301c0.8-0.234,1.433-0.717,1.899-1.45l8.3-14.3
				C185.233,211.916,185.334,211.133,185.1,210.3z"/>
			<path fill="#2D0B44" fill-opacity="0.7608" d="M197.2,222.05c-0.434-0.767-1.05-1.25-1.85-1.45
				c-0.867-0.232-1.667-0.133-2.4,0.301l-14.3,8.25c-0.767,0.399-1.25,1.016-1.45,1.85c-0.233,0.834-0.133,1.633,0.3,2.4
				c0.434,0.766,1.067,1.25,1.9,1.449c0.833,0.234,1.633,0.134,2.399-0.3l14.25-8.2c0.768-0.467,1.268-1.1,1.5-1.899
				C197.75,223.584,197.634,222.783,197.2,222.05z"/>
			<path fill="#2D0B44" fill-opacity="0.1216" d="M161.85,258.2v16.5c0,0.899,0.3,1.649,0.899,2.25c0.601,0.6,1.334,0.917,2.2,0.95
				c0.867-0.033,1.617-0.351,2.25-0.95c0.6-0.601,0.9-1.351,0.9-2.25v-16.5c0-0.866-0.301-1.601-0.9-2.2
				c-0.633-0.6-1.383-0.9-2.25-0.9c-0.866,0-1.6,0.301-2.2,0.9C162.15,256.6,161.85,257.334,161.85,258.2z"/>
			<path fill="#2D0B44" fill-opacity="0.2" d="M155.35,252.85c-0.834,0.2-1.45,0.684-1.851,1.45l-8.25,14.3
				c-0.433,0.734-0.533,1.533-0.3,2.4c0.2,0.8,0.684,1.416,1.45,1.85c0.733,0.434,1.533,0.551,2.399,0.351
				c0.801-0.233,1.434-0.733,1.9-1.5l8.2-14.25c0.434-0.767,0.533-1.567,0.3-2.4c-0.2-0.833-0.684-1.466-1.45-1.899
				S156.183,252.617,155.35,252.85z"/>
			<path fill="#2D0B44" fill-opacity="0.6" d="M161.85,206.5V223c0,0.9,0.3,1.65,0.899,2.25c0.601,0.6,1.334,0.9,2.2,0.9
				c0.867,0,1.617-0.301,2.25-0.9c0.6-0.6,0.9-1.35,0.9-2.25v-16.5c0-0.867-0.301-1.6-0.9-2.2c-0.633-0.6-1.383-0.899-2.25-0.899
				c-0.866,0-1.6,0.3-2.2,0.899C162.15,204.9,161.85,205.633,161.85,206.5z"/>
			<path fill="#2D0B44" fill-opacity="0.2784" d="M150.5,246.4c-0.833-0.234-1.616-0.117-2.35,0.35l-14.3,8.25
				c-0.733,0.434-1.217,1.084-1.45,1.95c-0.233,0.8-0.117,1.583,0.35,2.35c0.434,0.733,1.067,1.217,1.9,1.45s1.616,0.133,2.35-0.3
				l14.3-8.3c0.733-0.467,1.217-1.101,1.45-1.9c0.233-0.867,0.134-1.666-0.3-2.4C151.983,247.117,151.334,246.633,150.5,246.4z"/>
			<path fill="#2D0B44" fill-opacity="0.3608" d="M128.65,242.85c0.6,0.601,1.333,0.9,2.2,0.9h16.5c0.899,0,1.649-0.3,2.25-0.9
				c0.6-0.633,0.899-1.383,0.899-2.25c0-0.866-0.3-1.6-0.899-2.199c-0.601-0.601-1.351-0.9-2.25-0.9h-16.5
				c-0.867,0-1.601,0.3-2.2,0.9c-0.601,0.6-0.9,1.333-0.9,2.199C127.75,241.467,128.05,242.217,128.65,242.85z"/>
			<path fill="#2D0B44" fill-opacity="0.4392" d="M134.6,220.6c-0.834,0.2-1.45,0.667-1.851,1.4c-0.433,0.767-0.533,1.566-0.3,2.4
				c0.2,0.833,0.667,1.482,1.4,1.949l14.3,8.2c0.733,0.434,1.517,0.534,2.35,0.3c0.867-0.199,1.517-0.684,1.95-1.449
				c0.4-0.734,0.5-1.533,0.3-2.4c-0.233-0.8-0.717-1.416-1.45-1.85L137,220.9C136.266,220.467,135.467,220.367,134.6,220.6z"/>
			<path fill="#2D0B44" fill-opacity="0.5216" d="M150.7,209.5c-0.467-0.733-1.116-1.2-1.95-1.4
				c-0.833-0.232-1.633-0.133-2.399,0.301c-0.733,0.399-1.2,1.016-1.4,1.85c-0.233,0.867-0.133,1.666,0.3,2.4l8.25,14.3
				c0.434,0.733,1.05,1.216,1.851,1.45c0.866,0.199,1.666,0.1,2.399-0.301c0.767-0.434,1.25-1.083,1.45-1.949
				c0.233-0.834,0.134-1.617-0.3-2.351L150.7,209.5z"/>
		</g>
	</g>
	<g>
		<path id="Layer0_0_1_STROKES" fill="none" stroke="#2D0B44" stroke-width="3" stroke-linejoin="round" d="M298.3,40.35v240.8"/>
	</g>
</g>
</svg>
