<?xml version="1.0" encoding="utf-8"?>
<!-- Generator: Adobe Illustrator 15.1.0, SVG Export Plug-In . SVG Version: 6.00 Build 0)  -->
<!DOCTYPE svg PUBLIC "-//W3C//DTD SVG 1.1//EN" "http://www.w3.org/Graphics/SVG/1.1/DTD/svg11.dtd">
<svg version="1.1" id="Layer_1" xmlns="http://www.w3.org/2000/svg" xmlns:xlink="http://www.w3.org/1999/xlink" x="0px" y="0px"
	 width="461.601px" height="125.1px" viewBox="77.7 25.05 461.601 125.1" enable-background="new 77.7 25.05 461.601 125.1"
	 xml:space="preserve">
<g transform="matrix( 1, 0, 0, 1, 0,0) ">
	<g>
		<g id="Layer1_0_FILL">
			<path fill="#2D0B44" d="M386.35,48.55c-0.801,0-1.517,0.167-2.15,0.5c-0.6,0.333-1.116,0.833-1.55,1.5
				c-0.4,0.667-0.717,1.5-0.95,2.5c-0.2,0.967-0.3,2.1-0.3,3.4c0,1.167,0.1,2.2,0.3,3.1c0.2,0.9,0.5,1.667,0.9,2.3
				c0.399,0.633,0.883,1.1,1.449,1.4c0.567,0.333,1.233,0.5,2,0.5c0.768,0,1.45-0.167,2.051-0.5c0.633-0.333,1.149-0.833,1.55-1.5
				c0.434-0.633,0.767-1.434,1-2.4c0.2-0.934,0.3-2.017,0.3-3.25C390.95,51.066,389.417,48.55,386.35,48.55 M386.25,50
				c2,0,3,2.083,3,6.25c0,4.033-1.017,6.05-3.05,6.05c-2.066,0-3.1-1.983-3.1-5.95C383.1,52.117,384.15,50,386.25,50 M375.05,48.55
				c-0.8,0-1.517,0.167-2.149,0.5c-0.601,0.333-1.117,0.833-1.55,1.5c-0.4,0.667-0.717,1.5-0.95,2.5c-0.2,0.967-0.3,2.1-0.3,3.4
				c0,1.167,0.1,2.2,0.3,3.1c0.2,0.9,0.5,1.667,0.899,2.3c0.4,0.633,0.884,1.1,1.45,1.4c0.567,0.333,1.233,0.5,2,0.5
				s1.45-0.167,2.05-0.5c0.634-0.333,1.15-0.833,1.551-1.5c0.433-0.633,0.767-1.434,1-2.4c0.199-0.934,0.3-2.017,0.3-3.25
				C379.65,51.066,378.117,48.55,375.05,48.55 M374.95,50c2,0,3,2.083,3,6.25c0,4.033-1.017,6.05-3.05,6.05
				c-2.066,0-3.101-1.983-3.101-5.95C371.8,52.117,372.85,50,374.95,50 M438.95,54.15c-0.733-0.933-1.783-1.4-3.149-1.4
				c-1.601,0-2.817,0.7-3.65,2.1V53h-1.7v15.35h1.7V62c0.767,1.167,1.816,1.75,3.15,1.75c1.5,0,2.683-0.533,3.55-1.6
				c0.833-1.033,1.25-2.433,1.25-4.2C440.1,56.35,439.717,55.083,438.95,54.15 M435.4,54.15c0.9,0,1.634,0.333,2.2,1
				c0.533,0.667,0.8,1.583,0.8,2.75c0,1.4-0.283,2.483-0.85,3.25c-0.601,0.8-1.4,1.2-2.4,1.2c-0.866,0-1.583-0.3-2.15-0.9
				c-0.566-0.634-0.85-1.384-0.85-2.25v-1.45c0-1.033,0.3-1.883,0.9-2.55C433.617,54.5,434.4,54.15,435.4,54.15 M444.051,55.05
				c0.1-0.2,0.25-0.35,0.449-0.45c0.167-0.133,0.384-0.233,0.65-0.3c0.233-0.1,0.517-0.15,0.85-0.15c1,0,1.884,0.267,2.65,0.8v-1.7
				c-0.733-0.333-1.55-0.5-2.45-0.5c-0.5,0-1,0.066-1.5,0.2c-0.467,0.133-0.883,0.333-1.25,0.6c-0.399,0.233-0.7,0.55-0.899,0.95
				c-0.233,0.367-0.351,0.8-0.351,1.3c0,0.4,0.05,0.75,0.15,1.05c0.133,0.3,0.316,0.566,0.55,0.8s0.533,0.45,0.9,0.65
				c0.333,0.167,0.733,0.35,1.199,0.55c0.334,0.133,0.65,0.25,0.95,0.35c0.3,0.133,0.55,0.267,0.75,0.4
				c0.233,0.167,0.4,0.35,0.5,0.55c0.134,0.2,0.2,0.434,0.2,0.7c0,1-0.733,1.5-2.2,1.5c-1.1,0-2.116-0.35-3.05-1.05v1.8
				c0.8,0.433,1.75,0.65,2.85,0.65c0.534,0,1.051-0.066,1.551-0.2c0.5-0.1,0.933-0.283,1.3-0.55c0.399-0.267,0.717-0.583,0.95-0.95
				c0.233-0.4,0.35-0.85,0.35-1.35c0-0.434-0.083-0.8-0.25-1.1c-0.133-0.3-0.333-0.567-0.6-0.8c-0.233-0.267-0.533-0.483-0.9-0.65
				c-0.4-0.2-0.833-0.383-1.3-0.55c-0.333-0.133-0.634-0.267-0.9-0.4c-0.267-0.1-0.5-0.233-0.7-0.4
				c-0.199-0.133-0.35-0.283-0.449-0.45c-0.101-0.2-0.15-0.434-0.15-0.7C443.9,55.417,443.95,55.217,444.051,55.05 M419.801,47.95
				h-1.7V63.5h1.7V62c0.733,1.167,1.783,1.75,3.149,1.75c1.5,0,2.684-0.533,3.55-1.6c0.834-1.033,1.25-2.433,1.25-4.2
				c0-1.6-0.383-2.867-1.149-3.8c-0.767-0.933-1.816-1.4-3.15-1.4c-1.6,0-2.816,0.7-3.649,2.1V47.95 M425.25,55.15
				c0.534,0.667,0.801,1.583,0.801,2.75c0,1.4-0.283,2.483-0.851,3.25c-0.6,0.8-1.399,1.2-2.399,1.2c-0.867,0-1.584-0.3-2.15-0.9
				c-0.566-0.634-0.85-1.384-0.85-2.25v-1.45c0-1.033,0.3-1.883,0.899-2.55c0.567-0.7,1.351-1.05,2.351-1.05
				C423.95,54.15,424.683,54.483,425.25,55.15 M414.45,48.8h-2.149L407.7,59c-0.166,0.4-0.399,1-0.7,1.8h-0.05
				c-0.1-0.366-0.333-0.95-0.7-1.75l-4.5-10.25h-2.25v14.7h1.65v-9.85c0-1.333-0.033-2.3-0.1-2.9h0.05
				c0.133,0.7,0.283,1.217,0.45,1.55l5,11.2h0.85l5-11.3c0.134-0.3,0.283-0.784,0.45-1.45h0.05c-0.1,1.133-0.15,2.1-0.15,2.9v9.85
				h1.7V48.8 M138.5,57.95c0-1.6-0.383-2.867-1.149-3.8c-0.733-0.933-1.783-1.4-3.15-1.4c-1.6,0-2.816,0.7-3.65,2.1V53h-1.699v15.35
				h1.699V62c0.768,1.167,1.817,1.75,3.15,1.75c1.5,0,2.684-0.533,3.55-1.6C138.084,61.117,138.5,59.717,138.5,57.95 M133.8,54.15
				c0.9,0,1.634,0.333,2.2,1c0.533,0.667,0.8,1.583,0.8,2.75c0,1.4-0.283,2.483-0.85,3.25c-0.6,0.8-1.4,1.2-2.4,1.2
				c-0.866,0-1.583-0.3-2.149-0.9c-0.566-0.634-0.851-1.384-0.851-2.25v-1.45c0-1.033,0.301-1.883,0.9-2.55
				C132.016,54.5,132.8,54.15,133.8,54.15 M147.05,54.95v-1.7c-0.732-0.333-1.55-0.5-2.449-0.5c-0.5,0-1,0.066-1.5,0.2
				c-0.467,0.133-0.884,0.333-1.25,0.6c-0.4,0.233-0.7,0.55-0.9,0.95c-0.233,0.367-0.35,0.8-0.35,1.3c0,0.4,0.05,0.75,0.149,1.05
				c0.134,0.3,0.317,0.566,0.55,0.8c0.233,0.233,0.534,0.45,0.9,0.65c0.333,0.167,0.733,0.35,1.2,0.55
				c0.333,0.133,0.649,0.25,0.95,0.35c0.3,0.133,0.55,0.267,0.75,0.4c0.233,0.167,0.399,0.35,0.5,0.55
				c0.133,0.2,0.199,0.434,0.199,0.7c0,1-0.732,1.5-2.199,1.5c-1.101,0-2.117-0.35-3.051-1.05v1.8c0.801,0.433,1.75,0.65,2.851,0.65
				c0.533,0,1.05-0.066,1.55-0.2c0.5-0.1,0.934-0.283,1.3-0.55c0.4-0.267,0.717-0.583,0.95-0.95c0.233-0.4,0.35-0.85,0.35-1.35
				c0-0.434-0.083-0.8-0.25-1.1c-0.133-0.3-0.333-0.567-0.6-0.8c-0.233-0.267-0.533-0.483-0.9-0.65c-0.399-0.2-0.833-0.383-1.3-0.55
				c-0.333-0.133-0.633-0.267-0.899-0.4c-0.267-0.1-0.5-0.233-0.7-0.4c-0.2-0.133-0.351-0.283-0.45-0.45
				c-0.1-0.2-0.15-0.434-0.15-0.7c0-0.233,0.051-0.433,0.15-0.6c0.1-0.2,0.25-0.35,0.45-0.45c0.167-0.133,0.383-0.233,0.649-0.3
				c0.233-0.1,0.518-0.15,0.851-0.15C145.4,54.15,146.283,54.417,147.05,54.95 M113,49.35c-1.066-0.534-2.399-0.8-4-0.8
				c-2.2,0-4.017,0.733-5.45,2.2c-1.466,1.467-2.199,3.333-2.199,5.6c0,2.233,0.649,4.017,1.949,5.35c1.301,1.366,3,2.05,5.101,2.05
				c1.8,0,3.434-0.417,4.899-1.25v-6.65H108.4v1.55h3.2v4.1c-0.834,0.467-1.834,0.7-3,0.7c-1.667,0-2.983-0.534-3.95-1.6
				c-1-1.067-1.5-2.534-1.5-4.4c0-1.8,0.533-3.267,1.6-4.4c1.067-1.133,2.417-1.7,4.05-1.7c1.634,0,3.034,0.383,4.2,1.15V49.35
				 M118.2,47.95h-1.7V63.5h1.7V62c0.733,1.167,1.783,1.75,3.15,1.75c1.5,0,2.683-0.533,3.55-1.6c0.833-1.033,1.25-2.433,1.25-4.2
				c0-1.6-0.384-2.867-1.15-3.8c-0.767-0.933-1.816-1.4-3.149-1.4c-1.601,0-2.817,0.7-3.65,2.1V47.95 M118.2,57.75
				c0-1.033,0.3-1.883,0.9-2.55c0.566-0.7,1.35-1.05,2.35-1.05c0.9,0,1.634,0.333,2.2,1c0.533,0.667,0.8,1.583,0.8,2.75
				c0,1.4-0.283,2.483-0.85,3.25c-0.601,0.8-1.4,1.2-2.4,1.2c-0.866,0-1.583-0.3-2.15-0.9c-0.566-0.634-0.85-1.384-0.85-2.25V57.75
				 M398.051,36.15h5.649v-2.3h-5.649V36.15 M365.3,48.45h-0.6c-0.267,0.233-0.583,0.466-0.95,0.7c-0.333,0.233-0.7,0.467-1.1,0.7
				c-0.4,0.2-0.816,0.4-1.25,0.6c-0.4,0.167-0.783,0.3-1.15,0.4v1.7c0.334-0.1,0.667-0.216,1-0.35c0.334-0.134,0.667-0.284,1-0.45
				c0.3-0.167,0.584-0.333,0.851-0.5c0.233-0.167,0.416-0.316,0.55-0.45v12.7h1.649V48.45 M370.1,26.2
				c-0.967-0.367-2.167-0.55-3.601-0.55c-2.333,0-4.217,0.733-5.649,2.2c-1.467,1.466-2.2,3.367-2.2,5.7c0,2.233,0.649,4,1.95,5.3
				c1.3,1.333,3.066,2,5.3,2c1.733,0,3.133-0.25,4.2-0.75v-3.05c-1.067,0.634-2.25,0.95-3.551,0.95c-1.333,0-2.399-0.417-3.199-1.25
				c-0.801-0.867-1.2-2-1.2-3.4c0-1.5,0.417-2.684,1.25-3.55c0.866-0.866,1.983-1.3,3.35-1.3c1.267,0,2.384,0.3,3.351,0.9V26.2
				 M384.6,25.9v2.7h4.199v12h3.301v-12h4.199v-2.7H384.6 M380.4,25.9h-3.95l-5.35,14.7h3.6l1.05-3.25h5.2L382,40.6h3.601
				L380.4,25.9 M378.3,28.5h0.051c0.066,0.533,0.149,0.983,0.25,1.35l1.6,4.95h-3.75l1.6-5
				C378.183,29.367,378.266,28.934,378.3,28.5 M415.1,28.55V25.9h-7.75l-0.55,8.2c0.967-0.133,1.833-0.2,2.6-0.2
				c2.066,0,3.1,0.733,3.1,2.2c0,0.7-0.232,1.25-0.699,1.65c-0.5,0.4-1.184,0.6-2.051,0.6c-1.133,0-2.199-0.3-3.199-0.9v2.75
				c0.967,0.433,2.149,0.65,3.55,0.65c1.767,0,3.149-0.467,4.149-1.4c1.034-0.934,1.551-2.15,1.551-3.65
				c0-1.333-0.434-2.4-1.301-3.2c-0.833-0.8-2.017-1.2-3.55-1.2c-0.366,0-0.816,0.034-1.35,0.1l0.2-2.95H415.1 M90.5,48.55
				c-0.933,0-1.767,0.2-2.5,0.6s-1.35,0.983-1.85,1.75c-0.533,0.733-0.95,1.617-1.25,2.65c-0.267,1.034-0.4,2.2-0.4,3.5
				c0,1.034,0.101,1.967,0.3,2.8c0.2,0.833,0.518,1.533,0.95,2.1c0.4,0.6,0.9,1.05,1.5,1.35c0.567,0.3,1.217,0.45,1.95,0.45
				c0.667,0,1.283-0.117,1.85-0.35c0.567-0.233,1.051-0.583,1.45-1.05c0.434-0.434,0.767-0.95,1-1.55
				c0.233-0.6,0.351-1.25,0.351-1.95c0-0.7-0.101-1.317-0.301-1.85c-0.199-0.566-0.482-1.05-0.85-1.45
				c-0.366-0.4-0.816-0.7-1.35-0.9c-0.5-0.233-1.067-0.35-1.7-0.35c-1.566,0-2.7,0.617-3.4,1.85c0-0.933,0.101-1.783,0.3-2.55
				c0.2-0.767,0.483-1.417,0.851-1.95c0.366-0.533,0.816-0.95,1.35-1.25c0.533-0.267,1.134-0.4,1.8-0.4
				c0.834,0,1.634,0.184,2.4,0.55v-1.6C92.317,48.684,91.5,48.55,90.5,48.55 M92.1,59.05c0,0.5-0.067,0.95-0.2,1.35
				c-0.134,0.4-0.316,0.733-0.55,1c-0.267,0.3-0.567,0.533-0.9,0.7c-0.366,0.133-0.75,0.2-1.15,0.2c-0.466,0-0.866-0.083-1.199-0.25
				c-0.367-0.2-0.684-0.466-0.95-0.8s-0.467-0.717-0.601-1.15c-0.133-0.434-0.199-0.9-0.199-1.4c0-0.4,0.066-0.784,0.199-1.15
				c0.134-0.366,0.334-0.683,0.601-0.95s0.583-0.483,0.95-0.65c0.333-0.134,0.717-0.2,1.149-0.2c0.434,0,0.834,0.066,1.2,0.2
				c0.367,0.167,0.667,0.383,0.9,0.65c0.233,0.3,0.416,0.65,0.55,1.05C92.033,58.083,92.1,58.55,92.1,59.05 M191.15,25.9h-3.95
				l-5.35,14.7h3.6l1.05-3.25h5.2l1.05,3.25h3.601L191.15,25.9 M190.95,34.8h-3.75l1.6-5c0.134-0.433,0.217-0.866,0.25-1.3h0.051
				c0.066,0.533,0.149,0.983,0.25,1.35L190.95,34.8 M209.6,40.6l1.05-3.25h5.2l1.05,3.25h3.6l-5.2-14.7h-3.949L206,40.6H209.6
				 M213.5,29.85l1.601,4.95h-3.75l1.6-5c0.134-0.433,0.217-0.866,0.25-1.3h0.05C213.317,29.033,213.4,29.483,213.5,29.85
				 M202.85,28.6h4.199v-2.7H195.35v2.7h4.199v12h3.301V28.6 M177.75,28.3c0.3,0.067,0.617,0.134,0.95,0.2
				c0.3,0.1,0.6,0.217,0.9,0.35c0.267,0.1,0.533,0.25,0.8,0.45v-3.1c-0.5-0.167-1.05-0.3-1.65-0.4c-0.6-0.1-1.283-0.15-2.05-0.15
				s-1.5,0.083-2.2,0.25s-1.316,0.434-1.85,0.8c-0.533,0.333-0.95,0.783-1.25,1.35c-0.3,0.534-0.45,1.184-0.45,1.95
				c0,1,0.283,1.833,0.85,2.5c0.567,0.7,1.417,1.283,2.551,1.75c0.467,0.2,0.883,0.383,1.25,0.55c0.399,0.2,0.75,0.383,1.05,0.55
				c0.267,0.2,0.483,0.417,0.649,0.65c0.167,0.233,0.25,0.483,0.25,0.75c0,0.233-0.05,0.433-0.149,0.6
				c-0.101,0.2-0.25,0.367-0.45,0.5c-0.233,0.133-0.5,0.233-0.8,0.3c-0.3,0.067-0.667,0.1-1.101,0.1c-0.699,0-1.399-0.117-2.1-0.35
				c-0.7-0.267-1.35-0.65-1.95-1.15v3.3c0.533,0.267,1.167,0.467,1.9,0.6s1.5,0.2,2.3,0.2s1.55-0.067,2.25-0.2
				c0.7-0.167,1.316-0.417,1.85-0.75c0.534-0.367,0.95-0.816,1.25-1.35c0.334-0.566,0.5-1.267,0.5-2.1c0-0.567-0.1-1.083-0.3-1.55
				c-0.166-0.433-0.416-0.833-0.75-1.2c-0.333-0.333-0.733-0.634-1.2-0.9c-0.466-0.3-1-0.566-1.6-0.8
				c-0.434-0.2-0.816-0.383-1.15-0.55c-0.333-0.167-0.616-0.333-0.85-0.5c-0.267-0.167-0.467-0.35-0.6-0.55
				c-0.101-0.2-0.15-0.417-0.15-0.65s0.05-0.434,0.15-0.6c0.133-0.2,0.3-0.367,0.5-0.5c0.199-0.133,0.467-0.233,0.8-0.3
				c0.3-0.067,0.633-0.1,1-0.1C177.167,28.25,177.45,28.267,177.75,28.3 M163,40.6v-6.45c0-2.867-1.166-4.3-3.5-4.3
				c-1.467,0-2.583,0.633-3.35,1.9h-0.05V30.1h-3.25v10.5h3.25v-6c0-0.667,0.183-1.217,0.55-1.65c0.366-0.4,0.833-0.6,1.399-0.6
				c1.134,0,1.7,0.8,1.7,2.4v5.85H163 M150.95,36.25V34.9c0-1.566-0.417-2.8-1.25-3.7c-0.833-0.9-2.017-1.35-3.55-1.35
				c-1.5,0-2.75,0.5-3.75,1.5c-1,1.033-1.5,2.417-1.5,4.15c0,1.7,0.467,3.017,1.399,3.95c0.934,0.933,2.25,1.4,3.95,1.4
				c1.533,0,2.783-0.25,3.75-0.75v-2.35c-0.866,0.533-1.866,0.8-3,0.8c-1.833,0-2.8-0.767-2.899-2.3H150.95 M144.1,34.3
				c0.066-0.667,0.283-1.216,0.649-1.65c0.4-0.4,0.851-0.6,1.351-0.6c1.233,0,1.85,0.75,1.85,2.25H144.1 M138.95,32.2h-6.25v2.65
				h2.95v2.9c-0.467,0.233-1.101,0.35-1.9,0.35c-1.333,0-2.383-0.417-3.149-1.25c-0.767-0.833-1.15-2-1.15-3.5s0.434-2.7,1.3-3.6
				c0.867-0.9,1.983-1.35,3.351-1.35c1.633,0,3.017,0.333,4.149,1v-3.1c-1.166-0.433-2.533-0.65-4.1-0.65
				c-2.467,0-4.45,0.733-5.95,2.2c-1.5,1.433-2.25,3.316-2.25,5.65c0,2.3,0.684,4.1,2.05,5.4c1.367,1.3,3.233,1.95,5.601,1.95
				c2.133,0,3.916-0.417,5.35-1.25V32.2 M123.8,36.15v-2.3h-5.649v2.3H123.8 M112.1,31.3h-0.051c-0.533-0.966-1.466-1.45-2.8-1.45
				c-1.433,0-2.6,0.517-3.5,1.55c-0.866,1.067-1.3,2.467-1.3,4.2c0,1.667,0.4,2.95,1.2,3.85c0.8,0.933,1.85,1.4,3.149,1.4
				c1.434,0,2.518-0.567,3.25-1.7h0.051v1.45h3.25V25.05h-3.25V31.3 M112.15,34.7v0.8c0,0.867-0.2,1.566-0.601,2.1
				c-0.433,0.5-0.966,0.75-1.6,0.75c-0.7,0-1.25-0.233-1.65-0.7c-0.366-0.5-0.55-1.216-0.55-2.15c0-1,0.2-1.767,0.601-2.3
				c0.399-0.567,0.949-0.85,1.649-0.85c0.634,0,1.15,0.216,1.55,0.65C111.95,33.467,112.15,34.033,112.15,34.7 M100.1,32.05h-0.051
				V30.1H96.8v10.5h3.25v-5c0-0.9,0.2-1.6,0.601-2.1c0.399-0.533,0.95-0.8,1.649-0.8c0.534,0,0.983,0.1,1.351,0.3v-2.95
				c-0.167-0.1-0.434-0.15-0.8-0.15C101.516,29.9,100.6,30.617,100.1,32.05 M93.9,36.4c0-0.9-0.3-1.667-0.9-2.3
				c-0.6-0.633-1.416-1.017-2.45-1.15V32.9c1.967-0.466,2.95-1.667,2.95-3.6c0-1.066-0.416-1.95-1.25-2.65
				c-0.866-0.667-2.05-1-3.55-1c-1.366,0-2.566,0.267-3.6,0.8v2.6c0.933-0.633,1.883-0.95,2.85-0.95c1.5,0,2.25,0.6,2.25,1.8
				c0,1.267-0.967,1.9-2.9,1.9h-1.25v2.5H87.4c1,0,1.783,0.184,2.35,0.55c0.567,0.333,0.851,0.833,0.851,1.5
				c0,0.633-0.217,1.133-0.65,1.5c-0.467,0.333-1.116,0.5-1.95,0.5c-1.3,0-2.45-0.35-3.45-1.05v2.8c0.967,0.5,2.2,0.75,3.7,0.75
				c1.767,0,3.15-0.4,4.15-1.2C93.4,38.85,93.9,37.767,93.9,36.4z"/>
		</g>
	</g>
</g>
<g transform="matrix( 1, 0, 0, 1, 0,0) ">
	<g>
		<g id="Layer0_0_FILL">
			<path fill="#FFFFFF" d="M88,104.4v-3.55h-9.8L88,104.4 M150.6,92.85V91H143.8v1.85H150.6 M131.5,92.85h6.8V91h-6.8V92.85
				 M119.2,91v1.85h6.8V91H119.2 M113.7,92.85V91h-6.8v1.85H113.7 M94.6,91v1.85h6.8V91H94.6 M162.9,92.85V91h-6.8v1.85H162.9
				 M162.9,91v1.85h2V100h11.95V83.6h-84.4v9.25h2.15V91h6.8v1.85h5.5V91h6.8v1.85h5.5V91h6.8v1.85h5.5V91h6.8v1.85h5.5V91h6.801
				v1.85h5.5V91H162.9 M197.2,117.05l-15.6-11.45H88l34.25,11.45H197.2 M197.2,94.7l-15.6-16.6v27.5l15.6,11.45v-5.55v-9.7V94.7
				 M452.15,128.05l-13.9-6.15H390.1L408,128.05H452.15 M452.15,112.3V99.7l-29.4-20v30.45l15.5,7.55v4.2l13.9,6.15v-6.5V112.3
				 M386.55,110.2h-7.199h-2.25H369.8h-2.25h-5.199l27.75,7.5h48.149l-15.5-7.55v0.05h-5.55h-2.3h-7.15h-2.3h-7.149H396h-7.2H386.55
				 M390.1,117.7v4.2h48.149v-4.2H390.1 M400.051,70.75v8.95h14L400.051,70.75 M388.8,94.55h-2.25v15.65h2.25V94.55 M398.301,94.55
				H396v15.65h2.301V94.55 M379.35,94.55h-2.25v15.65h2.25V94.55 M369.8,94.55h-2.25v15.65h2.25V94.55 M407.75,94.55h-2.3v15.65h2.3
				V94.55 M417.2,94.55h-2.3v15.65h2.3V94.55z"/>
			<path fill="#2D0B44" d="M181.6,105.6V78.1H88v7.7h-9.8v15.05H88v3.55v1.2H181.6 M164.9,92.85h-2h-6.8h-5.5H143.8h-5.5h-6.8H126
				h-6.8h-5.5h-6.8h-5.5h-6.8h-2.15V83.6h84.4V100H164.9V92.85 M239.3,102.4h-0.149l-1.25,0.25c-2.333,0.467-4.283,0.967-5.851,1.5
				l-2.25,0.8l-0.199,0.1l-0.551,0.2l-2.5,1.2l-0.05,0.05l-0.399,0.2l-2.15,1.35l-0.1,0.05l-0.101,0.1l-1.5,1.15l-0.05,0.05h-0.05
				l-0.05,0.05L222,109.5l-0.85,0.55l-0.9,0.35l-1.3,0.25h-0.85c-0.267,0.033-0.667,0.017-1.2-0.05h-0.351l-1.899-0.35l-0.3-0.1
				c-0.834-0.2-1.7-0.483-2.601-0.85l-0.35-0.1l-1.15-0.45l-0.1-0.05l-0.05-0.05l-1-0.45l-0.2-0.05v-0.05h-0.05l-0.051-0.05
				l-5.8-2.65l-5.8-3.6v9.7l2.55,0.8l0.2,0.1l0.2,0.05l5.8,2.35H206l0.101,0.05h0.05l0.2,0.1l1.149,0.4l0.101,0.05h0.1l0.2,0.1
				l1.2,0.4l0.449,0.1c1,0.333,2.117,0.6,3.351,0.8l0.45,0.1l2.699,0.3l2.601-0.05l0.25-0.05h0.25l0.1-0.05h0.15l0.95-0.15
				c0.666-0.133,1.316-0.333,1.949-0.6c0.667-0.2,1.284-0.483,1.851-0.85c0.8-0.534,1.366-0.95,1.7-1.25l0.199-0.15l1.15-1.05
				l0.15-0.1l0.1-0.1l1.9-1.35l0.05-0.05l0.1-0.05l0.15-0.05l2.05-1.15l0.15-0.1L232,110l0.9-0.45l0.35-0.1l0.601-0.3
				c2-0.767,3.717-1.333,5.149-1.7l1.15-0.3h0.05l0.1-0.05l0.351-0.05l0.899-0.25l2.5-0.4c1.667-0.2,3.25-0.25,4.75-0.15
				c1.367,0.1,2.801,0.367,4.301,0.8L257,108.8l0.101,0.1l7.75,3.2l0.8,0.2c0.3,0.133,0.767,0.284,1.399,0.45l4.2,1l0.3,0.1
				l0.801,0.1l0.35,0.1l0.55-2.35l-8.1-2.7c-0.934-0.367-1.967-0.85-3.101-1.45l-2.949-1.6l-0.25-0.1l-0.101-0.1l-0.1-0.05
				l-1.95-1.2c-1.366-0.633-2.133-0.983-2.3-1.05c-1.601-0.667-3.316-1.117-5.15-1.35c-1.899-0.267-3.767-0.35-5.6-0.25
				c-1,0.066-1.967,0.167-2.9,0.3l-0.75,0.1l-0.149,0.05h-0.2L239.3,102.4 M414.9,94.55h2.3v15.65h5.55v-0.05V79.7h-8.699h-14v-8.95
				h-15.9v8.95h-21.8v30.5h5.199V94.55h2.25v15.65h7.301V94.55h2.25v15.65h7.199V94.55h2.25v15.65h7.2V94.55h2.301v15.65h7.149
				V94.55h2.3v15.65h7.15V94.55 M539.301,135.45c-3.233-0.233-6.483-0.333-9.75-0.3l-3.95,0.1l-0.9,0.1
				c-1.833,0.1-3.483,0.267-4.95,0.5h-0.3l-5.149,0.95L514,136.9h-0.149l-0.101,0.05c-0.033,0-0.083,0.017-0.149,0.05l-19,4.65
				l-0.3,0.1l-2.551,0.5c-1.6,0.3-3.116,0.55-4.55,0.75c-1.666,0.233-3.149,0.367-4.45,0.4h-2.399l-0.25-0.05h-0.65l-0.1-0.05h-0.25
				l-0.2-0.05h-0.15l-0.149-0.05h-0.3l-0.15-0.05l-0.25-0.05h-0.1l-0.601-0.15l-0.1-0.05H477l-0.199-0.1l-0.2-0.05l-0.101-0.05h-0.1
				l-1.65-0.9l-0.5-0.45l-0.399-0.5l-0.3-0.55l-0.25-0.65l-0.15-0.75l-0.05-0.1v-0.1l-0.05-0.2v-0.25L473,138.1v-0.25l-0.1-0.7
				v-0.35l-0.6-2.85c-0.2-0.733-0.517-1.633-0.95-2.7l-0.45-0.95l-0.2-0.3l-0.3-0.65l-0.55-0.9l-0.15-0.3l-1.2-1.7
				c-1.199-1.567-2.366-2.9-3.5-4l-9.649-7.95l-3.2-2.2v9.25l5.7,4.05l1.2,1.15l0.149,0.2l0.601,0.55l1.05,1.2l0.3,0.45l0.35,0.4
				l0.051,0.1l0.1,0.1l0.9,1.25l0.1,0.25l0.3,0.4l1.65,3.3l0.05,0.25l0.1,0.2l0.25,0.7l0.101,0.45l0.1,0.25l0.25,1.15v0.2
				l0.101,0.45v0.2l0.05,0.15v0.15l0.05,0.1v0.1l0.05,0.45l0.15,0.6l0.05,0.15c0.1,0.5,0.25,1.033,0.45,1.6l0.7,1.55
				c0.566,1.033,1.267,1.967,2.1,2.8c0.333,0.333,0.783,0.7,1.35,1.1c0.101,0.1,0.584,0.4,1.45,0.9l2.351,0.95l2.75,0.6h0.25
				l0.149,0.05h0.3l0.15,0.05h0.15l0.399,0.05h3.7l1-0.1c1.9-0.167,3.583-0.383,5.05-0.65l7.25-1.6l0.3-0.1l0.301-0.05l20.05-6.05
				c0.033,0,0.217-0.05,0.55-0.15l3.9-0.9c1.433-0.3,2.949-0.55,4.55-0.75l0.6-0.1h0.3l3.75-0.4c2.467-0.2,5.601-0.3,9.4-0.3
				L539.301,135.45z"/>
		</g>
	</g>
	<g>
		<path id="Layer0_0_1_STROKES" fill="none" stroke="#2D0B44" stroke-linejoin="round" d="M452.15,112.3v9.25v6.5H408L390.1,121.9
			v-4.2l-27.75-7.5V79.7h21.8v-8.95h15.9l14,8.95h8.699l29.4,20V112.3z M417.2,94.55h-2.3 M414.9,110.2h2.3 M407.75,94.55h-2.3
			 M405.45,110.2h2.3 M369.8,94.55h-2.25 M367.55,110.2h2.25 M379.35,94.55h-2.25 M377.1,110.2h2.25 M398.301,94.55H396 M396,110.2
			h2.301 M388.8,94.55h-2.25 M386.55,110.2h2.25 M414.051,79.7h-14v-8.95 M379.35,110.2h7.199 M388.8,110.2h7.2 M369.8,110.2h7.301
			 M362.35,110.2h5.199 M422.75,110.15l15.5,7.55v4.2l13.9,6.15 M417.2,110.2h5.55v-0.05V79.7 M407.75,110.2h7.15 M438.25,117.7
			H390.1 M438.25,121.9H390.1 M398.301,110.2h7.149 M156.1,92.85V91h6.8v1.85h2V100h11.95V83.6h-84.4v9.25h2.15V91h6.8v1.85h5.5V91
			h6.8v1.85h5.5V91h6.8v1.85h5.5V91h6.8v1.85h5.5V91h6.801v1.85H156.1h6.8 M181.6,78.1l15.6,16.6v7.1 M197.2,111.5v5.55h-74.95
			L88,105.6v-1.2l-9.8-3.55V85.8H88v-7.7H181.6v27.5l15.6,11.45 M197.2,101.8v9.7 M113.7,92.85h-6.8 M101.4,92.85h-6.8 M138.3,92.85
			h-6.8 M150.6,92.85H143.8 M126,92.85h-6.8 M88,104.4v-3.55h-9.8 M181.6,105.6H88"/>
	</g>
</g>
</svg>
