<?xml version="1.0" encoding="utf-8"?>
<!-- Generator: Adobe Illustrator 19.1.0, SVG Export Plug-In . SVG Version: 6.00 Build 0)  -->
<svg version="1.1" id="Layer_1" xmlns="http://www.w3.org/2000/svg" xmlns:xlink="http://www.w3.org/1999/xlink" x="0px" y="0px"
	 viewBox="136.7 288.7 216.6 216.6" style="enable-background:new 136.7 288.7 216.6 216.6;" xml:space="preserve">
<style type="text/css">
	.st0{fill:#CCCCCC;}
</style>
<g transform="matrix( 1, 0, 0, 1, 0,0) ">
	<g>
		<g id="Layer2_0_FILL">
			<path class="st0" d="M208.4,505.3c1.5,0,2.7-0.5,3.8-1.5c1-1,1.6-2.3,1.6-3.8v-13.2h-10.6V500c0,1.5,0.5,2.7,1.5,3.8
				C205.7,504.8,206.9,505.3,208.4,505.3 M189.4,486.8h-10.6V500c0,1.5,0.5,2.7,1.6,3.8c1,1,2.3,1.6,3.8,1.5c1.5,0,2.7-0.5,3.8-1.5
				c1-1,1.6-2.3,1.5-3.8V486.8 M142,463.1h13.3v-10.6H142c-1.5,0-2.7,0.5-3.8,1.6c-1,1-1.6,2.3-1.6,3.8c0,1.5,0.5,2.7,1.6,3.8
				C139.3,462.6,140.5,463.2,142,463.1 M142,428.3c-1.5,0-2.7,0.5-3.8,1.5c-1,1-1.6,2.3-1.6,3.8c0,1.5,0.5,2.7,1.6,3.8
				c1,1,2.3,1.6,3.8,1.6h13.3v-10.6H142 M155.3,414.5v-10.6H142c-1.5,0-2.7,0.5-3.8,1.5c-1,1-1.6,2.3-1.6,3.8c0,1.5,0.5,2.7,1.6,3.8
				c1,1,2.3,1.6,3.8,1.6H155.3 M262.4,486.8h-10.6V500c0,1.5,0.5,2.7,1.5,3.8c1,1,2.3,1.6,3.8,1.5c1.5,0,2.7-0.5,3.8-1.5
				c1-1,1.6-2.3,1.6-3.8V486.8 M286.7,486.8h-10.6V500c0,1.5,0.5,2.7,1.5,3.8c1,1,2.3,1.6,3.8,1.5c1.5,0,2.7-0.5,3.8-1.5
				c1-1,1.6-2.3,1.6-3.8V486.8 M238,486.8h-10.6V500c0,1.5,0.5,2.7,1.5,3.8c1,1,2.3,1.6,3.8,1.5c1.5,0,2.7-0.5,3.8-1.5
				c1-1,1.6-2.3,1.5-3.8V486.8 M138.3,388.6c1,1,2.3,1.6,3.8,1.5h13.3v-10.6H142c-1.5,0-2.7,0.5-3.8,1.5c-1,1-1.6,2.3-1.6,3.8
				C136.7,386.4,137.2,387.6,138.3,388.6 M155.3,365.9v-10.6H142c-1.5,0-2.7,0.5-3.8,1.5c-1,1-1.6,2.3-1.6,3.8
				c0,1.5,0.5,2.7,1.6,3.8c1,1,2.3,1.6,3.8,1.6H155.3 M142,341.5h13.3v-10.6H142c-1.5,0-2.7,0.5-3.8,1.5c-1,1-1.6,2.3-1.6,3.8
				c0,1.5,0.5,2.7,1.6,3.8C139.3,341,140.5,341.5,142,341.5 M180.4,290.3c-1,1-1.6,2.3-1.6,3.8v13.3h10.6V294c0-1.5-0.5-2.7-1.5-3.8
				c-1-1-2.3-1.6-3.8-1.6C182.6,288.7,181.4,289.2,180.4,290.3 M204.6,290.3c-1,1-1.6,2.3-1.5,3.8v13.3h10.6V294
				c0-1.5-0.5-2.7-1.6-3.8c-1-1-2.3-1.6-3.8-1.6C206.9,288.7,205.7,289.2,204.6,290.3 M277.6,290.3c-1,1-1.6,2.3-1.5,3.8v13.3h10.6
				V294c0-1.5-0.5-2.7-1.6-3.8c-1-1-2.3-1.6-3.8-1.6C279.9,288.7,278.7,289.2,277.6,290.3 M253.3,290.3c-1,1-1.6,2.3-1.5,3.8v13.3
				h10.6V294c0-1.5-0.5-2.7-1.6-3.8c-1-1-2.3-1.6-3.8-1.6C255.6,288.7,254.3,289.2,253.3,290.3 M229,290.3c-1,1-1.6,2.3-1.5,3.8
				v13.3H238V294c0-1.5-0.5-2.7-1.5-3.8c-1-1-2.3-1.6-3.8-1.6C231.3,288.7,230,289.2,229,290.3 M351.8,454.1c-1-1-2.3-1.6-3.8-1.6
				h-13.2v10.6H348c1.5,0,2.7-0.5,3.8-1.5c1-1,1.6-2.3,1.5-3.8C353.3,456.4,352.8,455.1,351.8,454.1 M311,486.8h-10.6V500
				c0,1.5,0.5,2.7,1.5,3.8c1,1,2.3,1.6,3.8,1.5c1.5,0,2.7-0.5,3.8-1.5c1-1,1.6-2.3,1.5-3.8V486.8 M348,428.3h-13.2v10.6H348
				c1.5,0,2.7-0.5,3.8-1.6c1-1,1.6-2.3,1.5-3.8c0-1.5-0.5-2.7-1.5-3.8C350.7,428.8,349.5,428.2,348,428.3 M334.8,403.9v10.6H348
				c1.5,0,2.7-0.5,3.8-1.6c1-1,1.6-2.3,1.5-3.8c0-1.5-0.5-2.7-1.5-3.8c-1-1-2.3-1.6-3.8-1.5H334.8 M348,390.2c1.5,0,2.7-0.5,3.8-1.5
				c1-1,1.6-2.3,1.5-3.8c0-1.5-0.5-2.7-1.5-3.8c-1-1-2.3-1.6-3.8-1.5h-13.2v10.6H348 M334.8,355.3v10.6H348c1.5,0,2.7-0.5,3.8-1.6
				c1-1,1.6-2.3,1.5-3.8c0-1.5-0.5-2.7-1.5-3.8c-1-1-2.3-1.6-3.8-1.5H334.8 M351.8,332.4c-1-1-2.3-1.6-3.8-1.5h-13.2v10.6H348
				c1.5,0,2.7-0.5,3.8-1.6c1-1,1.6-2.3,1.5-3.8C353.3,334.7,352.8,333.5,351.8,332.4 M302,290.3c-1,1-1.6,2.3-1.5,3.8v13.3H311V294
				c0-1.5-0.5-2.7-1.5-3.8c-1-1-2.3-1.6-3.8-1.6C304.3,288.7,303,289.2,302,290.3 M324.2,325.5c0-5.1-2.6-7.7-7.7-7.7h-143
				c-5.1,0-7.6,2.6-7.6,7.7v143c0,5.1,2.6,7.7,7.6,7.7H184c0,0,0.1,0,0.1,0s0,0,0,0h24.2c0,0,0.1,0,0.1,0s0,0,0.1,0h24.2
				c0,0,0.1,0,0.1,0s0,0,0,0H257c0,0,0.1,0,0.1,0s0,0,0.1,0h24.2c0,0,0.1,0,0.1,0c0,0,0,0,0.1,0h24.2c0,0,0.1,0,0.1,0s0,0,0,0h10.8
				c5.1,0,7.7-2.6,7.7-7.7v-10.6c0,0,0,0,0,0c0,0,0-0.1,0-0.1v-24.1c0,0,0,0,0-0.1c0,0,0-0.1,0-0.1v-24.2c0,0,0,0,0-0.1
				c0,0,0-0.1,0-0.1v-24.2c0,0,0,0,0,0c0,0,0-0.1,0-0.1v-24.2c0,0,0,0,0-0.1c0,0,0-0.1,0-0.1v-24.2c0,0,0,0,0-0.1c0,0,0-0.1,0-0.1
				V325.5z"/>
		</g>
	</g>
</g>
</svg>
