<?xml version="1.0" encoding="utf-8"?>
<!-- Generator: Adobe Illustrator 19.2.0, SVG Export Plug-In . SVG Version: 6.00 Build 0)  -->
<svg version="1.1" id="Layer_2" xmlns="http://www.w3.org/2000/svg" xmlns:xlink="http://www.w3.org/1999/xlink" x="0px" y="0px"
	 viewBox="0 0 448.6 385.5" style="enable-background:new 0 0 448.6 385.5;" xml:space="preserve">
<style type="text/css">
	.st0{fill:#CDCCCC;}
</style>
<g transform="matrix( 1, 0, 0, 1, 0,0) ">
	<g>
		<g id="Layer0_0_FILL">
			<path class="st0" d="M448.6,80.7c-0.7-8.7-4.1-16.1-10.4-22.3c-6.3-6.1-13.8-9.4-22.5-9.9L66,48.5l-0.1-17.9
				c-0.3-5.3-1.7-10.2-4.4-14.7c-2.6-4.4-6.1-8-10.4-10.8L47,2.9C42.8,1,38.4,0,33.8,0H9.5C6.9,0,4.7,0.9,2.8,2.8
				C0.9,4.7,0,6.9,0,9.5v12c0,2.7,0.9,4.9,2.8,6.8C4.7,30.1,6.9,31,9.5,31h15.1c2.5,0,4.6,0.9,6.4,2.6c1.7,1.7,2.6,3.9,2.6,6.4v43.2
				l0.1-1.6L33.6,222h-8c-2.2,0-4.2,0.8-5.8,2.4c-1.6,1.6-2.4,3.5-2.4,5.8v48.7c0,2.3,0.8,4.2,2.4,5.8c1.6,1.6,3.5,2.4,5.8,2.4h8
				v-10.5h0v8.8l0.2,1.7h0.1c0.2,2.4,0.7,4.6,1.3,6.8c0.4-0.5,0.8-0.9,1.3-1.3c-0.5,0.4-0.9,0.8-1.3,1.4c0.9,3,2.2,5.8,3.8,8.4
				c-1.6-2.5-2.9-5.3-3.8-8.3c-1,1.4-1.6,2.9-1.6,4.5V378c0,2.1,0.8,3.8,2.3,5.3c1.5,1.5,3.2,2.2,5.3,2.2h17.3
				c2.1,0,3.8-0.7,5.3-2.2c1.5-1.5,2.2-3.2,2.2-5.3v-59.7c0.5,0.1,1.3,0.1,2.4,0.1h59.9v-27.6c0-2.5,0.9-4.6,2.6-6.5
				c1.3-1.3,2.8-2.2,4.5-2.5c-1.7,0.4-3.2,1.3-4.5,2.6c-1.7,1.8-2.5,3.9-2.5,6.4v27.6h-0.1v24.4c0,2.6,0.9,4.8,2.8,6.6
				c1.8,1.8,4,2.7,6.6,2.7h127.1l0.4-0.1c2.5-0.1,4.6-1.1,6.3-2.9c1.7-1.8,2.6-3.9,2.6-6.4v-24.4h31.5V343c0,2.5,0.9,4.6,2.6,6.4
				c1.7,1.7,3.9,2.6,6.4,2.6h62c2.5,0,4.6-0.9,6.4-2.6c1.7-1.8,2.6-3.9,2.6-6.4v-24.7h28.3c9.3,0,17.3-3.2,24.1-9.6
				c6.7-6.4,10.3-14.2,10.7-23.4V80.7 M322,318.4h16v17.1h-16V318.4 M353,335.5v-17.1h16v17.1H353 M318.2,110.5
				c9.8,0,19.1,1.9,28.1,5.7c8.6,3.7,16.3,8.8,22.9,15.4c6.6,6.6,11.8,14.3,15.4,22.9c3.8,8.9,5.7,18.3,5.7,28.1
				c0,3.4-0.2,6.5-0.6,9.3c-1,7.4-3,14.5-6.1,21.3c-3.1,6.6-7.1,12.6-12,17.9l-2.4,2.5c-5.8,5.8-12.4,10.5-19.8,14.1
				c-7.5,3.6-15.5,5.9-23.9,6.7c-2.6,0.3-5.1,0.4-7.4,0.4h-76.7l-1.5,0.1h-99.4c-3.3,0-6.1-1.1-8.5-3.5s-3.6-5.1-3.8-8.4V122.2
				c0.1-3.3,1.4-6,3.8-8.3c2.4-2.3,5.2-3.4,8.5-3.4H318.2 M176.3,335.5v-17.1h16v17.1H176.3 M161.4,318.4v17.1h-16v-17.1H161.4
				 M256.3,335.5h-16v-17.1h16V335.5 M209.4,335.5v-17.1h15.9v17.1H209.4 M64.9,222.8c-0.9-0.4-1.9-0.7-3.1-0.8
				c0.4,0,0.9,0.1,1.3,0.1C63.7,222.3,64.3,222.5,64.9,222.8 M271.3,284.1c-0.1-0.1-0.2-0.2-0.4-0.3c0.3,0.3,0.6,0.6,0.9,0.9
				c0.4,0.5,0.7,0.9,1,1.5c-0.5-0.9-1.1-1.7-2-2.4c-0.6-0.5-1.3-0.9-2-1.3C269.8,282.9,270.6,283.5,271.3,284.1 M45,57.5l0.3-0.3
				l2.5-1.9L45,57.5 M159.3,159.5v17.4h66.2v-17.4H159.3 M225.5,208.3v-17.3h-66.2v17.3H225.5 M328.1,130.7
				c-2.2-0.6-4.4-1.1-6.6-1.4c-2.7-0.4-5.5-0.6-8.4-0.6c-3.9,0-7.6,0.4-11.1,1.1c-10,2-18.7,6.6-26.3,13.6
				c-7.5,7-12.6,15.3-15.4,25.1c-0.6,2.2-1.1,4.4-1.4,6.7c-0.4,2.9-0.6,5.7-0.6,8.3c0,15.1,5.4,28,16,38.8
				c10.7,10.7,23.6,16.1,38.8,16.1c2.6,0,5.4-0.2,8.3-0.6c2.2-0.3,4.4-0.8,6.6-1.4c9.8-2.8,18.1-7.9,25.1-15.4
				c7-7.5,11.5-16.3,13.6-26.3c0.7-3.5,1.1-7.2,1.1-11.1c0-3.9-0.4-7.6-1.1-11c-2-10-6.6-18.8-13.6-26.3
				C346.2,138.6,337.9,133.5,328.1,130.7 M288.3,183.7c0-7.1,2.5-13.2,7.5-18.2c5-5,11.1-7.6,18.2-7.6c7.1,0,13.2,2.5,18.2,7.6
				c5,5,7.5,11.1,7.5,18.2c0,7.1-2.5,13.1-7.5,18.1c-5,5-11.1,7.5-18.2,7.5c-7.1,0-13.2-2.5-18.2-7.5
				C290.8,196.8,288.3,190.7,288.3,183.7 M35.3,293.9L35.3,293.9h-0.2l0.1,0.1L35.3,293.9 M33.8,287l-0.2-1.2v1.2h0v11.3
				c0-1.6,0.5-3.1,1.5-4.4C34.5,291.5,34,289.2,33.8,287 M27,95c-2.6,0-4.8,0.9-6.7,2.8c-1.9,1.9-2.8,4.1-2.8,6.8v76.9
				c0,2.6,0.9,4.9,2.8,6.7c1.8,1.9,4.1,2.8,6.8,2.8h6.7V95H27z"/>
		</g>
	</g>
</g>
</svg>
