<?xml version="1.0" encoding="utf-8"?>
<!-- Generator: Adobe Illustrator 15.1.0, SVG Export Plug-In . SVG Version: 6.00 Build 0)  -->
<!DOCTYPE svg PUBLIC "-//W3C//DTD SVG 1.1//EN" "http://www.w3.org/Graphics/SVG/1.1/DTD/svg11.dtd">
<svg version="1.1" id="Layer_1" xmlns="http://www.w3.org/2000/svg" xmlns:xlink="http://www.w3.org/1999/xlink" x="0px" y="0px"
	 width="453.601px" height="287.2px" viewBox="20.7 60.15 453.601 287.2" enable-background="new 20.7 60.15 453.601 287.2"
	 xml:space="preserve">
<g transform="matrix( 1, 0, 0, 1, 0,0) ">
	<g>
		<path id="Layer1_0_1_STROKES" fill="none" stroke="#999999" stroke-linecap="round" stroke-linejoin="round" d="M430.85,334.2
			V326.6h-167.7v7.601 M430.85,326.6V101.3 M97.9,334.2V326.6V101.3 M97.9,326.6h165.25V101.3"/>
	</g>
</g>
<g transform="matrix( 1, 0, 0, 1, 0,0) ">
	<g>
		<g id="Layer0_0_FILL">
			<path fill="#2D0B44" d="M304.9,84H303.8v1.6h1.101v3.2c0,1.567,0.767,2.35,2.3,2.35c0.634,0,1.117-0.083,1.45-0.25v-1.6
				c-0.233,0.133-0.467,0.2-0.7,0.2c-0.6,0-0.9-0.367-0.9-1.1v-2.8h1.601V84h-1.601v-2.15L304.9,82.5V84 M314.1,85.6V84H312.5v-2.15
				l-2.149,0.65V84h-1.101v1.6h1.101v3.2c0,1.567,0.767,2.35,2.3,2.35c0.633,0,1.116-0.083,1.45-0.25v-1.6
				c-0.233,0.133-0.467,0.2-0.7,0.2c-0.601,0-0.9-0.367-0.9-1.1v-2.8H314.1 M320.7,84.75c-0.566-0.6-1.35-0.9-2.35-0.9
				s-1.834,0.333-2.5,1c-0.667,0.667-1,1.583-1,2.75c0,1.133,0.316,2.017,0.949,2.65c0.601,0.6,1.467,0.9,2.601,0.9
				c1.033,0,1.883-0.167,2.55-0.5V89.1c-0.6,0.367-1.283,0.55-2.05,0.55c-1.2,0-1.833-0.517-1.9-1.55h4.55v-0.9
				C321.55,86.167,321.266,85.35,320.7,84.75 M317.45,85.7c0.233-0.267,0.533-0.4,0.9-0.4c0.8,0,1.199,0.5,1.199,1.5h-2.6
				C317.016,86.367,317.183,86,317.45,85.7 M299.95,83.85c-1,0-1.833,0.333-2.5,1c-0.667,0.667-1,1.583-1,2.75
				c0,1.133,0.316,2.017,0.95,2.65c0.6,0.6,1.467,0.9,2.6,0.9c1.033,0,1.884-0.167,2.55-0.5V89.1c-0.6,0.367-1.283,0.55-2.05,0.55
				c-1.2,0-1.833-0.517-1.899-1.55h4.55v-0.9c0-1.034-0.283-1.85-0.851-2.45C301.733,84.15,300.95,83.85,299.95,83.85 M299.05,85.7
				c0.233-0.267,0.534-0.4,0.9-0.4c0.8,0,1.2,0.5,1.2,1.5h-2.601C298.617,86.367,298.783,86,299.05,85.7 M326.45,85.75
				c0.367,0,0.684,0.067,0.95,0.2v-2c-0.134-0.034-0.316-0.05-0.55-0.05c-0.9,0-1.517,0.467-1.851,1.4h-0.05V84h-2.15v7h2.15v-3.35
				c0-0.6,0.134-1.066,0.4-1.4S325.983,85.75,326.45,85.75 M290.3,80.65h-2.149V91h2.149v-0.8h0.051
				c0.433,0.633,1.083,0.95,1.949,0.95c0.967,0,1.733-0.35,2.301-1.05c0.566-0.7,0.85-1.633,0.85-2.8c0-1.066-0.25-1.917-0.75-2.55
				c-0.467-0.6-1.167-0.9-2.1-0.9c-0.967,0-1.717,0.4-2.25,1.2H290.3V80.65 M291.8,85.5c0.467,0,0.817,0.167,1.051,0.5
				c0.233,0.3,0.35,0.75,0.35,1.35c0,0.7-0.133,1.233-0.4,1.6c-0.267,0.367-0.649,0.55-1.149,0.55c-0.4,0-0.733-0.15-1-0.45
				c-0.233-0.267-0.351-0.633-0.351-1.1v-0.7c0-0.533,0.134-0.967,0.4-1.3C291,85.65,291.367,85.5,291.8,85.5 M277.95,85.05
				c-0.167,0.267-0.25,0.6-0.25,1c0,0.3,0.033,0.55,0.1,0.75c0.101,0.2,0.217,0.383,0.351,0.55c0.133,0.167,0.316,0.316,0.55,0.45
				c0.2,0.1,0.434,0.2,0.7,0.3c0.167,0.066,0.35,0.133,0.55,0.2c0.2,0.067,0.367,0.133,0.5,0.2c0.167,0.067,0.3,0.133,0.4,0.2
				c0.1,0.1,0.149,0.216,0.149,0.35c0,0.233-0.116,0.4-0.35,0.5c-0.2,0.1-0.5,0.15-0.9,0.15c-0.3,0-0.633-0.05-1-0.15
				c-0.333-0.1-0.683-0.267-1.05-0.5v1.75c0.667,0.233,1.384,0.35,2.15,0.35c0.399,0,0.8-0.033,1.199-0.1
				c0.4-0.1,0.75-0.233,1.051-0.4c0.3-0.2,0.533-0.433,0.699-0.7c0.167-0.3,0.25-0.667,0.25-1.1c0-0.3-0.033-0.55-0.1-0.75
				c-0.1-0.233-0.233-0.417-0.4-0.55c-0.166-0.167-0.366-0.316-0.6-0.45c-0.233-0.1-0.483-0.2-0.75-0.3
				c-0.167-0.066-0.333-0.117-0.5-0.15c-0.167-0.066-0.316-0.133-0.45-0.2c-0.133-0.067-0.233-0.15-0.3-0.25
				c-0.1-0.067-0.15-0.167-0.15-0.3c0-0.1,0.034-0.183,0.101-0.25c0.066-0.1,0.133-0.167,0.2-0.2c0.1-0.067,0.217-0.1,0.35-0.1
				c0.134-0.033,0.267-0.05,0.4-0.05c0.3,0,0.616,0.034,0.949,0.1c0.301,0.1,0.584,0.233,0.851,0.4v-1.7
				c-0.3-0.1-0.617-0.167-0.95-0.2c-0.3-0.033-0.616-0.05-0.95-0.05c-0.399,0-0.783,0.033-1.149,0.1
				c-0.367,0.1-0.684,0.233-0.95,0.4C278.35,84.517,278.117,84.75,277.95,85.05 M227.8,81.2h-2.25V91h2.25v-4h4.051v4h2.199v-9.8
				h-2.199v3.9H227.8V81.2 M238.25,84H236.1v7h2.149V84 M237.2,80.65c-0.366,0-0.667,0.117-0.9,0.35c-0.232,0.2-0.35,0.45-0.35,0.75
				c0,0.333,0.117,0.6,0.35,0.8c0.233,0.233,0.534,0.35,0.9,0.35c0.367,0,0.667-0.1,0.9-0.3c0.233-0.233,0.35-0.517,0.35-0.85
				c0-0.3-0.116-0.55-0.35-0.75C237.867,80.767,237.567,80.65,237.2,80.65 M266.9,84h-2.15v7h2.15v-3.35
				c0-0.6,0.133-1.066,0.399-1.4c0.268-0.333,0.634-0.5,1.101-0.5c0.366,0,0.684,0.067,0.95,0.2v-2
				c-0.134-0.034-0.317-0.05-0.551-0.05c-0.899,0-1.517,0.467-1.85,1.4h-0.05V84 M276.3,84h-2.149v7h2.149V84 M276.15,82.6
				c0.233-0.233,0.35-0.517,0.35-0.85c0-0.3-0.116-0.55-0.35-0.75c-0.233-0.233-0.533-0.35-0.9-0.35
				c-0.366,0-0.666,0.117-0.899,0.35c-0.233,0.2-0.351,0.45-0.351,0.75c0,0.333,0.117,0.6,0.351,0.8
				c0.233,0.233,0.533,0.35,0.899,0.35C275.617,82.9,275.917,82.8,276.15,82.6 M250.9,85.05v-4.4h-2.15V91h2.15v-4
				c0-0.433,0.116-0.8,0.35-1.1c0.267-0.267,0.584-0.4,0.95-0.4c0.767,0,1.15,0.5,1.15,1.5v4h2.149v-4.3c0-1.9-0.8-2.85-2.399-2.85
				c-0.9,0-1.617,0.4-2.15,1.2H250.9 M246.95,84h-2.15v0.8c-0.433-0.633-1.083-0.95-1.949-0.95c-0.934,0-1.7,0.35-2.301,1.05
				c-0.566,0.667-0.85,1.6-0.85,2.8c0,1.066,0.267,1.917,0.8,2.55c0.5,0.6,1.2,0.9,2.101,0.9c0.967,0,1.699-0.383,2.199-1.15v0.55
				c0,0.667-0.199,1.184-0.6,1.55c-0.4,0.4-0.967,0.6-1.7,0.6s-1.45-0.217-2.149-0.65v1.85c0.533,0.267,1.283,0.4,2.25,0.4
				c1.399,0,2.483-0.367,3.25-1.1c0.733-0.7,1.1-1.7,1.1-3V84 M243.4,85.5c0.434,0,0.783,0.15,1.05,0.45
				c0.267,0.3,0.4,0.683,0.4,1.15v0.55c0,0.567-0.134,1.017-0.4,1.35c-0.3,0.333-0.667,0.5-1.1,0.5c-0.467,0-0.817-0.167-1.051-0.5
				c-0.267-0.333-0.399-0.8-0.399-1.4c0-0.667,0.133-1.184,0.399-1.55C242.567,85.683,242.933,85.5,243.4,85.5 M260.3,83.85
				c-1,0-1.833,0.333-2.5,1c-0.666,0.667-1,1.583-1,2.75c0,1.133,0.317,2.017,0.95,2.65c0.601,0.6,1.467,0.9,2.601,0.9
				c1.033,0,1.883-0.167,2.55-0.5V89.1c-0.601,0.367-1.283,0.55-2.05,0.55c-1.2,0-1.834-0.517-1.9-1.55h4.55v-0.9
				c0-1.034-0.283-1.85-0.85-2.45S261.3,83.85,260.3,83.85 M259.4,85.7c0.233-0.267,0.533-0.4,0.899-0.4c0.801,0,1.2,0.5,1.2,1.5
				h-2.6C258.967,86.367,259.134,86,259.4,85.7 M364.15,65.15c-0.533,0.1-1.017,0.3-1.45,0.6c-0.434,0.267-0.783,0.6-1.05,1
				c-0.233,0.434-0.351,0.95-0.351,1.55c0,0.434,0.051,0.8,0.15,1.1c0.1,0.333,0.267,0.617,0.5,0.85c0.2,0.233,0.467,0.433,0.8,0.6
				c0.3,0.2,0.667,0.367,1.101,0.5c0.267,0.133,0.533,0.233,0.8,0.3c0.267,0.067,0.533,0.167,0.8,0.3
				c0.233,0.1,0.417,0.216,0.55,0.35c0.167,0.134,0.25,0.3,0.25,0.5c0,0.333-0.166,0.567-0.5,0.7c-0.333,0.167-0.8,0.25-1.399,0.25
				c-0.467,0-0.95-0.083-1.45-0.25c-0.533-0.133-1.066-0.367-1.601-0.7v2.6c0.967,0.367,2.034,0.55,3.2,0.55
				c0.634,0,1.233-0.067,1.8-0.2c0.601-0.1,1.117-0.3,1.551-0.6c0.467-0.267,0.833-0.617,1.1-1.05c0.267-0.467,0.4-1,0.4-1.6
				c0-0.467-0.067-0.85-0.2-1.15c-0.134-0.333-0.333-0.617-0.601-0.85c-0.232-0.233-0.533-0.433-0.899-0.6
				c-0.333-0.2-0.717-0.367-1.15-0.5c-0.233-0.1-0.467-0.183-0.7-0.25c-0.267-0.1-0.5-0.183-0.699-0.25
				c-0.2-0.1-0.351-0.233-0.45-0.4c-0.134-0.133-0.2-0.283-0.2-0.45c0-0.167,0.033-0.3,0.1-0.4c0.101-0.1,0.217-0.2,0.351-0.3
				c0.133-0.067,0.3-0.117,0.5-0.15c0.2-0.034,0.399-0.05,0.6-0.05c0.467,0,0.934,0.067,1.4,0.2c0.467,0.1,0.899,0.267,1.3,0.5v-2.5
				c-0.467-0.133-0.934-0.233-1.4-0.3c-0.5-0.066-0.982-0.1-1.449-0.1C365.283,64.95,364.717,65.017,364.15,65.15 M327.35,72.7
				c-0.767,0.5-1.551,0.75-2.351,0.75c-0.899,0-1.616-0.25-2.149-0.75c-0.5-0.534-0.75-1.267-0.75-2.2c0-0.967,0.267-1.717,0.8-2.25
				s1.267-0.8,2.2-0.8c0.833,0,1.583,0.25,2.25,0.75v-2.75c-0.533-0.333-1.417-0.5-2.65-0.5c-1.8,0-3.233,0.517-4.3,1.55
				s-1.601,2.434-1.601,4.2c0,1.533,0.5,2.8,1.5,3.8c1,0.967,2.301,1.45,3.9,1.45c1.367,0,2.417-0.217,3.15-0.65V72.7 M330.45,66.4
				c-1.033,1-1.55,2.367-1.55,4.1c0,1.667,0.5,3,1.5,4c1,0.967,2.366,1.45,4.1,1.45c1.8,0,3.2-0.5,4.2-1.5
				c1.033-1.034,1.55-2.417,1.55-4.15c0-1.6-0.5-2.9-1.5-3.9c-0.967-0.967-2.333-1.45-4.1-1.45S331.483,65.433,330.45,66.4
				 M332.2,70.45c0-0.967,0.2-1.717,0.6-2.25c0.434-0.5,1.034-0.75,1.801-0.75c1.566,0,2.35,0.966,2.35,2.9
				c0,2.066-0.783,3.1-2.35,3.1C333,73.45,332.2,72.45,332.2,70.45 M351.5,66.45c-1,1.033-1.5,2.417-1.5,4.15
				c0,1.7,0.467,3.017,1.4,3.95c0.934,0.934,2.25,1.4,3.95,1.4c1.533,0,2.783-0.25,3.75-0.75v-2.35c-0.867,0.533-1.867,0.8-3,0.8
				c-1.834,0-2.801-0.767-2.9-2.3h6.85V70c0-1.566-0.416-2.8-1.25-3.7c-0.833-0.9-2.017-1.35-3.55-1.35
				C353.75,64.95,352.5,65.45,351.5,66.45 M353.2,69.4c0.066-0.667,0.283-1.216,0.65-1.65c0.399-0.4,0.85-0.6,1.35-0.6
				c1.233,0,1.85,0.75,1.85,2.25H353.2 M345.65,67.15h-0.05V65.2h-3.25v10.5h3.25v-5c0-0.9,0.199-1.6,0.6-2.1
				c0.4-0.533,0.95-0.8,1.65-0.8c0.533,0,0.983,0.1,1.35,0.3v-2.95c-0.167-0.1-0.434-0.15-0.8-0.15
				C347.067,65,346.15,65.717,345.65,67.15 M316.7,61.3c-0.5-0.167-1.05-0.3-1.65-0.4c-0.6-0.1-1.283-0.15-2.05-0.15
				s-1.5,0.083-2.2,0.25c-0.699,0.167-1.316,0.434-1.85,0.8c-0.533,0.333-0.95,0.784-1.25,1.35c-0.3,0.534-0.45,1.184-0.45,1.95
				c0,1,0.283,1.833,0.851,2.5c0.566,0.7,1.416,1.283,2.55,1.75c0.467,0.2,0.883,0.383,1.25,0.55c0.399,0.2,0.75,0.383,1.05,0.55
				c0.267,0.2,0.483,0.417,0.65,0.65c0.166,0.233,0.25,0.483,0.25,0.75c0,0.233-0.051,0.433-0.15,0.6c-0.1,0.2-0.25,0.366-0.45,0.5
				c-0.233,0.133-0.5,0.233-0.8,0.3s-0.667,0.1-1.1,0.1c-0.7,0-1.4-0.117-2.101-0.35c-0.7-0.267-1.35-0.65-1.95-1.15v3.3
				c0.534,0.267,1.167,0.467,1.9,0.6s1.5,0.2,2.3,0.2s1.55-0.067,2.25-0.2c0.7-0.167,1.317-0.417,1.851-0.75
				c0.533-0.367,0.949-0.817,1.25-1.35c0.333-0.566,0.5-1.267,0.5-2.1c0-0.566-0.101-1.083-0.301-1.55
				c-0.166-0.434-0.416-0.833-0.75-1.2c-0.333-0.333-0.732-0.633-1.199-0.9c-0.467-0.3-1-0.566-1.601-0.8
				c-0.433-0.2-0.816-0.383-1.149-0.55c-0.334-0.167-0.617-0.333-0.851-0.5c-0.267-0.167-0.467-0.35-0.6-0.55
				c-0.101-0.2-0.15-0.417-0.15-0.65s0.05-0.434,0.15-0.6c0.133-0.2,0.3-0.367,0.5-0.5s0.467-0.233,0.8-0.3
				c0.3-0.067,0.634-0.1,1-0.1c0.267,0,0.55,0.017,0.85,0.05c0.301,0.067,0.617,0.133,0.95,0.2c0.3,0.1,0.601,0.216,0.9,0.35
				c0.267,0.1,0.533,0.25,0.8,0.45V61.3 M237.35,64.95c-0.634,0-1.334,0.083-2.101,0.25c-0.8,0.2-1.433,0.417-1.899,0.65v2.4
				c1.133-0.733,2.333-1.1,3.6-1.1c1.233,0,1.85,0.567,1.85,1.7l-2.85,0.4c-2.4,0.3-3.6,1.483-3.6,3.55c0,0.934,0.283,1.7,0.85,2.3
				c0.6,0.566,1.4,0.85,2.4,0.85c1.399,0,2.449-0.583,3.149-1.75h0.05v1.5h3.051v-6.3C241.85,66.433,240.35,64.95,237.35,64.95
				 M236.75,73.65c-0.433,0-0.783-0.117-1.05-0.35s-0.4-0.533-0.4-0.9c0-0.8,0.534-1.283,1.601-1.45l1.899-0.2v0.7
				c0,0.633-0.183,1.167-0.55,1.6C237.85,73.45,237.35,73.65,236.75,73.65 M228.95,65.2V62l-3.25,0.95v2.25H224v2.4h1.7v4.8
				c0,2.367,1.15,3.55,3.45,3.55c0.967,0,1.684-0.117,2.149-0.35v-2.4c-0.366,0.167-0.716,0.25-1.05,0.25
				c-0.866,0-1.3-0.534-1.3-1.6V67.6h2.35v-2.4H228.95 M293.35,60.15h-3.25V75.7h3.25v-5.2h0.05l3.35,5.2h3.9l-4.05-5.55l3.75-4.95
				H296.5l-3.1,4.85h-0.05V60.15 M281.75,65.2v10.5H285v-5c0-0.9,0.2-1.6,0.601-2.1c0.399-0.533,0.949-0.8,1.649-0.8
				c0.533,0,0.983,0.1,1.351,0.3v-2.95c-0.167-0.1-0.434-0.15-0.801-0.15c-1.333,0-2.25,0.717-2.75,2.15H285V65.2H281.75
				 M247.65,60.15h-3.25V75.7h3.25V60.15 M264.3,63.75c-0.1,1.167-0.149,2.217-0.149,3.15v8.8h3.3V61h-4.75l-3,8.7
				c-0.2,0.6-0.4,1.3-0.6,2.1h-0.051c-0.1-0.7-0.267-1.4-0.5-2.1l-3-8.7h-4.85v14.7h2.95v-8.15c0-1.066-0.033-2.333-0.101-3.8h0.051
				c0.233,1.1,0.399,1.783,0.5,2.05l3.5,9.9h2.699l3.45-10c0.134-0.4,0.283-1.05,0.45-1.95H264.3 M273.3,69.25
				c-2.399,0.3-3.6,1.483-3.6,3.55c0,0.934,0.283,1.7,0.85,2.3c0.601,0.566,1.4,0.85,2.4,0.85c1.4,0,2.45-0.583,3.15-1.75h0.05v1.5
				h3.05v-6.3c0-2.967-1.5-4.45-4.5-4.45c-0.633,0-1.333,0.083-2.1,0.25c-0.801,0.2-1.434,0.417-1.9,0.65v2.4
				c1.134-0.733,2.333-1.1,3.6-1.1c1.233,0,1.851,0.567,1.851,1.7L273.3,69.25 M273.05,73.3c-0.267-0.233-0.399-0.533-0.399-0.9
				c0-0.8,0.533-1.283,1.6-1.45l1.9-0.2v0.7c0,0.633-0.184,1.167-0.55,1.6c-0.4,0.4-0.9,0.6-1.5,0.6
				C273.667,73.65,273.317,73.533,273.05,73.3 M223.1,72.5c0-0.467-0.067-0.85-0.2-1.15c-0.134-0.333-0.333-0.617-0.601-0.85
				c-0.232-0.233-0.533-0.433-0.899-0.6c-0.333-0.2-0.717-0.367-1.15-0.5c-0.233-0.1-0.467-0.183-0.7-0.25
				c-0.267-0.1-0.5-0.183-0.699-0.25c-0.2-0.1-0.351-0.233-0.45-0.4c-0.134-0.133-0.2-0.283-0.2-0.45c0-0.167,0.033-0.3,0.1-0.4
				c0.101-0.1,0.217-0.2,0.351-0.3c0.133-0.067,0.3-0.117,0.5-0.15c0.2-0.034,0.399-0.05,0.6-0.05c0.467,0,0.934,0.067,1.4,0.2
				c0.467,0.1,0.899,0.267,1.3,0.5v-2.5c-0.467-0.133-0.934-0.233-1.4-0.3c-0.5-0.066-0.982-0.1-1.449-0.1
				c-0.567,0-1.134,0.066-1.7,0.2c-0.533,0.1-1.017,0.3-1.45,0.6c-0.434,0.267-0.783,0.6-1.05,1c-0.233,0.434-0.351,0.95-0.351,1.55
				c0,0.434,0.051,0.8,0.15,1.1c0.1,0.333,0.267,0.617,0.5,0.85c0.2,0.233,0.467,0.433,0.8,0.6c0.3,0.2,0.667,0.367,1.101,0.5
				c0.267,0.133,0.533,0.233,0.8,0.3c0.267,0.067,0.533,0.167,0.8,0.3c0.233,0.1,0.417,0.216,0.55,0.35
				c0.167,0.134,0.25,0.3,0.25,0.5c0,0.333-0.166,0.567-0.5,0.7c-0.333,0.167-0.8,0.25-1.399,0.25c-0.467,0-0.95-0.083-1.45-0.25
				c-0.533-0.133-1.066-0.367-1.601-0.7v2.6c0.967,0.367,2.034,0.55,3.2,0.55c0.634,0,1.233-0.067,1.8-0.2
				c0.601-0.1,1.117-0.3,1.551-0.6c0.467-0.267,0.833-0.617,1.1-1.05C222.967,73.633,223.1,73.1,223.1,72.5 M214.4,65.2h-3.2l-2,6.4
				c-0.133,0.533-0.233,1-0.3,1.4h-0.05c-0.067-0.533-0.167-1-0.301-1.4l-1.949-6.4H203l4.25,10.5L206.7,77
				c-0.3,0.767-0.866,1.15-1.7,1.15c-0.533,0-1.017-0.117-1.45-0.35v2.55c0.534,0.2,1.184,0.3,1.95,0.3
				c2.067,0,3.617-1.367,4.65-4.1L214.4,65.2 M202.05,65.15c-0.166-0.1-0.433-0.15-0.8-0.15c-1.333,0-2.25,0.717-2.75,2.15h-0.05
				V65.2h-3.25v10.5h3.25v-5c0-0.9,0.2-1.6,0.6-2.1c0.4-0.533,0.95-0.8,1.65-0.8c0.533,0,0.983,0.1,1.35,0.3V65.15 M189.4,73.1
				c-1.333,0-2.4-0.417-3.2-1.25c-0.8-0.867-1.2-2-1.2-3.4c0-1.5,0.417-2.684,1.25-3.55c0.867-0.867,1.983-1.3,3.351-1.3
				c1.267,0,2.383,0.3,3.35,0.9v-3.2c-0.967-0.366-2.167-0.55-3.6-0.55c-2.334,0-4.217,0.733-5.65,2.2
				c-1.467,1.466-2.2,3.367-2.2,5.7c0,2.233,0.65,4,1.95,5.3c1.3,1.333,3.066,2,5.3,2c1.733,0,3.134-0.25,4.2-0.75v-3.05
				C191.884,72.783,190.7,73.1,189.4,73.1 M468.551,341.35c0,0.733,0.066,1.384,0.199,1.95c0.134,0.566,0.317,1.033,0.551,1.4
				c0.233,0.366,0.517,0.649,0.85,0.85c0.367,0.2,0.767,0.3,1.2,0.3c0.467,0,0.883-0.1,1.25-0.3c0.366-0.2,0.667-0.5,0.899-0.899
				c0.268-0.4,0.467-0.9,0.601-1.5c0.133-0.601,0.2-1.284,0.2-2.051c0-3.1-0.917-4.649-2.75-4.649c-0.967,0-1.7,0.416-2.2,1.25
				C468.817,338.5,468.551,339.717,468.551,341.35 M469.9,344.15c-0.333-0.634-0.5-1.584-0.5-2.851c0-1.399,0.184-2.434,0.55-3.1
				c0.334-0.7,0.851-1.05,1.55-1.05c1.301,0,1.95,1.35,1.95,4.05c0,0.633-0.05,1.2-0.149,1.7c-0.067,0.5-0.184,0.916-0.351,1.25
				c-0.2,0.333-0.416,0.583-0.649,0.75c-0.267,0.166-0.551,0.25-0.851,0.25C470.75,345.15,470.233,344.816,469.9,344.15
				 M464.7,336.45c-0.967,0-1.7,0.416-2.2,1.25c-0.533,0.8-0.8,2.017-0.8,3.649c0,0.733,0.067,1.384,0.2,1.95
				c0.134,0.566,0.316,1.033,0.55,1.4c0.233,0.366,0.517,0.649,0.851,0.85c0.366,0.2,0.767,0.3,1.199,0.3
				c0.467,0,0.884-0.1,1.25-0.3c0.367-0.2,0.667-0.5,0.9-0.899c0.267-0.4,0.467-0.9,0.6-1.5c0.134-0.601,0.2-1.284,0.2-2.051
				C467.45,338,466.534,336.45,464.7,336.45 M463.1,338.2c0.333-0.7,0.85-1.05,1.55-1.05c1.3,0,1.95,1.35,1.95,4.05
				c0,0.633-0.05,1.2-0.15,1.7c-0.066,0.5-0.183,0.916-0.35,1.25c-0.2,0.333-0.417,0.583-0.65,0.75
				c-0.267,0.166-0.55,0.25-0.85,0.25c-0.7,0-1.217-0.334-1.55-1c-0.334-0.634-0.5-1.584-0.5-2.851
				C462.551,339.9,462.733,338.866,463.1,338.2 M455.051,343.3c0.133,0.566,0.316,1.033,0.55,1.4c0.233,0.366,0.517,0.649,0.85,0.85
				c0.367,0.2,0.767,0.3,1.2,0.3c0.467,0,0.884-0.1,1.25-0.3c0.367-0.2,0.667-0.5,0.9-0.899c0.267-0.4,0.467-0.9,0.6-1.5
				c0.134-0.601,0.2-1.284,0.2-2.051c0-3.1-0.917-4.649-2.75-4.649c-0.967,0-1.7,0.416-2.2,1.25c-0.533,0.8-0.8,2.017-0.8,3.649
				C454.85,342.083,454.917,342.733,455.051,343.3 M456.25,338.2c0.334-0.7,0.851-1.05,1.551-1.05c1.3,0,1.949,1.35,1.949,4.05
				c0,0.633-0.05,1.2-0.149,1.7c-0.066,0.5-0.184,0.916-0.351,1.25c-0.199,0.333-0.416,0.583-0.649,0.75
				c-0.267,0.166-0.55,0.25-0.851,0.25c-0.699,0-1.216-0.334-1.55-1c-0.333-0.634-0.5-1.584-0.5-2.851
				C455.7,339.9,455.884,338.866,456.25,338.2 M453.4,344.25h-0.85l-0.851,3.1h0.65L453.4,344.25 M282.15,347.35h0.649l1.051-3.1
				H283L282.15,347.35 M277.2,345.55c0.367,0.2,0.767,0.3,1.2,0.3c0.467,0,0.883-0.1,1.25-0.3c0.366-0.2,0.667-0.5,0.899-0.899
				c0.268-0.4,0.467-0.9,0.601-1.5c0.133-0.601,0.2-1.284,0.2-2.051c0-3.1-0.917-4.649-2.75-4.649c-0.967,0-1.7,0.416-2.2,1.25
				c-0.533,0.8-0.8,2.017-0.8,3.649c0,0.733,0.066,1.384,0.199,1.95c0.134,0.566,0.317,1.033,0.551,1.4
				C276.584,345.066,276.867,345.35,277.2,345.55 M276.95,344.15c-0.333-0.634-0.5-1.584-0.5-2.851c0-1.399,0.184-2.434,0.55-3.1
				c0.334-0.7,0.851-1.05,1.55-1.05c1.301,0,1.95,1.35,1.95,4.05c0,0.633-0.05,1.2-0.149,1.7c-0.067,0.5-0.184,0.916-0.351,1.25
				c-0.2,0.333-0.416,0.583-0.649,0.75c-0.267,0.166-0.551,0.25-0.851,0.25C277.8,345.15,277.283,344.816,276.95,344.15
				 M271.15,340.25c-0.233,0-0.533,0.017-0.9,0.05l0.2-2.95h3.3v-0.75h-4l-0.25,4.45c0.601-0.066,1.05-0.1,1.351-0.1
				c0.8,0,1.416,0.184,1.85,0.55c0.4,0.333,0.6,0.85,0.6,1.55c0,0.3-0.05,0.584-0.149,0.851c-0.101,0.267-0.25,0.482-0.45,0.649
				c-0.2,0.2-0.45,0.351-0.75,0.45c-0.267,0.1-0.566,0.15-0.9,0.15c-0.633,0-1.25-0.184-1.85-0.551v0.9
				c0.467,0.233,1.066,0.35,1.8,0.35c0.5,0,0.95-0.066,1.351-0.199c0.366-0.134,0.683-0.334,0.949-0.601
				c0.268-0.267,0.467-0.566,0.601-0.899c0.167-0.367,0.25-0.767,0.25-1.2s-0.066-0.817-0.2-1.15c-0.133-0.333-0.333-0.616-0.6-0.85
				s-0.584-0.4-0.95-0.5C272.033,340.316,271.617,340.25,271.15,340.25 M302,336.45c-0.967,0-1.7,0.416-2.2,1.25
				c-0.533,0.8-0.8,2.017-0.8,3.649c0,0.733,0.067,1.384,0.2,1.95c0.134,0.566,0.316,1.033,0.55,1.4
				c0.233,0.366,0.517,0.649,0.851,0.85c0.366,0.2,0.767,0.3,1.199,0.3c0.467,0,0.884-0.1,1.25-0.3c0.367-0.2,0.667-0.5,0.9-0.899
				c0.267-0.4,0.467-0.9,0.6-1.5c0.134-0.601,0.2-1.284,0.2-2.051C304.75,338,303.834,336.45,302,336.45 M300.4,338.2
				c0.333-0.7,0.85-1.05,1.55-1.05c1.3,0,1.95,1.35,1.95,4.05c0,0.633-0.05,1.2-0.15,1.7c-0.066,0.5-0.183,0.916-0.35,1.25
				c-0.2,0.333-0.417,0.583-0.65,0.75c-0.267,0.166-0.55,0.25-0.85,0.25c-0.7,0-1.217-0.334-1.55-1
				c-0.334-0.634-0.5-1.584-0.5-2.851C299.85,339.9,300.033,338.866,300.4,338.2 M292.15,341.35c0,0.733,0.066,1.384,0.2,1.95
				c0.133,0.566,0.316,1.033,0.55,1.4c0.233,0.366,0.517,0.649,0.85,0.85c0.367,0.2,0.767,0.3,1.2,0.3c0.467,0,0.884-0.1,1.25-0.3
				c0.367-0.2,0.667-0.5,0.9-0.899c0.267-0.4,0.467-0.9,0.6-1.5c0.134-0.601,0.2-1.284,0.2-2.051c0-3.1-0.917-4.649-2.75-4.649
				c-0.967,0-1.7,0.416-2.2,1.25C292.417,338.5,292.15,339.717,292.15,341.35 M293.5,344.15c-0.333-0.634-0.5-1.584-0.5-2.851
				c0-1.399,0.184-2.434,0.55-3.1c0.334-0.7,0.851-1.05,1.551-1.05c1.3,0,1.949,1.35,1.949,4.05c0,0.633-0.05,1.2-0.149,1.7
				c-0.066,0.5-0.184,0.916-0.351,1.25c-0.199,0.333-0.416,0.583-0.649,0.75c-0.267,0.166-0.55,0.25-0.851,0.25
				C294.35,345.15,293.834,344.816,293.5,344.15 M288.3,336.45c-0.966,0-1.699,0.416-2.199,1.25c-0.533,0.8-0.801,2.017-0.801,3.649
				c0,0.733,0.067,1.384,0.2,1.95c0.134,0.566,0.317,1.033,0.55,1.4c0.233,0.366,0.518,0.649,0.851,0.85
				c0.366,0.2,0.767,0.3,1.2,0.3c0.467,0,0.883-0.1,1.25-0.3c0.366-0.2,0.666-0.5,0.899-0.899c0.267-0.4,0.467-0.9,0.601-1.5
				c0.133-0.601,0.199-1.284,0.199-2.051C291.05,338,290.134,336.45,288.3,336.45 M286.7,338.2c0.333-0.7,0.85-1.05,1.55-1.05
				c1.3,0,1.95,1.35,1.95,4.05c0,0.633-0.05,1.2-0.15,1.7c-0.066,0.5-0.183,0.916-0.35,1.25c-0.2,0.333-0.417,0.583-0.65,0.75
				c-0.267,0.166-0.55,0.25-0.85,0.25c-0.7,0-1.217-0.334-1.55-1c-0.333-0.634-0.5-1.584-0.5-2.851
				C286.15,339.9,286.334,338.866,286.7,338.2 M91.05,112.45v9.1h4.5v-0.75H91.85v-8.35H91.05 M439.051,344.7
				c0.233,0.366,0.517,0.649,0.85,0.85c0.367,0.2,0.767,0.3,1.2,0.3c0.467,0,0.883-0.1,1.25-0.3c0.366-0.2,0.667-0.5,0.899-0.899
				c0.268-0.4,0.467-0.9,0.601-1.5c0.133-0.601,0.2-1.284,0.2-2.051c0-3.1-0.917-4.649-2.75-4.649c-0.967,0-1.7,0.416-2.2,1.25
				c-0.533,0.8-0.8,2.017-0.8,3.649c0,0.733,0.066,1.384,0.199,1.95C438.634,343.866,438.817,344.333,439.051,344.7 M439.65,344.15
				c-0.333-0.634-0.5-1.584-0.5-2.851c0-1.399,0.184-2.434,0.55-3.1c0.334-0.7,0.851-1.05,1.55-1.05c1.301,0,1.95,1.35,1.95,4.05
				c0,0.633-0.05,1.2-0.149,1.7c-0.067,0.5-0.184,0.916-0.351,1.25c-0.2,0.333-0.416,0.583-0.649,0.75
				c-0.267,0.166-0.551,0.25-0.851,0.25C440.5,345.15,439.983,344.816,439.65,344.15 M434.5,338.25c0.2-0.1,0.384-0.2,0.551-0.3
				c0.199-0.134,0.366-0.267,0.5-0.4v8.15h0.8v-9.3h-0.2c-0.434,0.366-0.883,0.683-1.35,0.949c-0.434,0.301-0.9,0.534-1.4,0.7v0.7
				c0.134-0.066,0.3-0.134,0.5-0.2C434.1,338.45,434.301,338.35,434.5,338.25 M448.15,336.45c-0.967,0-1.7,0.416-2.2,1.25
				c-0.533,0.8-0.8,2.017-0.8,3.649c0,0.733,0.066,1.384,0.2,1.95c0.133,0.566,0.316,1.033,0.55,1.4
				c0.233,0.366,0.517,0.649,0.85,0.85c0.367,0.2,0.768,0.3,1.2,0.3c0.467,0,0.884-0.1,1.25-0.3c0.367-0.2,0.667-0.5,0.9-0.899
				c0.267-0.4,0.467-0.9,0.6-1.5c0.134-0.601,0.2-1.284,0.2-2.051C450.9,338,449.983,336.45,448.15,336.45 M446.551,338.2
				c0.333-0.7,0.85-1.05,1.55-1.05c1.3,0,1.95,1.35,1.95,4.05c0,0.633-0.051,1.2-0.15,1.7c-0.066,0.5-0.184,0.916-0.35,1.25
				c-0.2,0.333-0.417,0.583-0.65,0.75c-0.267,0.166-0.55,0.25-0.85,0.25c-0.7,0-1.217-0.334-1.551-1
				c-0.333-0.634-0.5-1.584-0.5-2.851C446,339.9,446.183,338.866,446.551,338.2 M90.5,143.95h-2.35v9.1h2.25
				c0.767,0,1.45-0.117,2.05-0.35c0.566-0.2,1.066-0.517,1.5-0.95c0.434-0.4,0.75-0.883,0.95-1.45c0.233-0.566,0.35-1.2,0.35-1.9
				c0-1.467-0.399-2.583-1.2-3.35C93.25,144.317,92.067,143.95,90.5,143.95 M88.95,144.7h1.5c2.6,0,3.9,1.233,3.9,3.7
				c0,0.633-0.084,1.184-0.25,1.65c-0.2,0.5-0.467,0.917-0.801,1.25c-0.333,0.3-0.75,0.55-1.25,0.75
				c-0.5,0.167-1.066,0.25-1.699,0.25h-1.4V144.7 M88.75,112.8c-0.7-0.333-1.517-0.5-2.45-0.5c-0.466,0-0.899,0.05-1.3,0.15
				c-0.433,0.133-0.816,0.3-1.149,0.5c-0.334,0.2-0.634,0.45-0.9,0.75c-0.267,0.3-0.5,0.633-0.7,1c-0.166,0.367-0.3,0.75-0.399,1.15
				c-0.101,0.4-0.15,0.833-0.15,1.3c0,0.667,0.1,1.283,0.3,1.85c0.2,0.533,0.483,1.017,0.851,1.45c0.366,0.4,0.8,0.7,1.3,0.9
				c0.533,0.233,1.133,0.35,1.8,0.35c1.033,0,2.017-0.267,2.95-0.8v-4H86v0.8H88.1v2.75c-0.567,0.333-1.25,0.5-2.051,0.5
				c-0.566,0-1.066-0.1-1.5-0.3c-0.433-0.2-0.8-0.467-1.1-0.8c-0.3-0.367-0.517-0.783-0.65-1.25c-0.166-0.467-0.25-0.983-0.25-1.55
				c0.034-0.566,0.134-1.1,0.301-1.6c0.166-0.467,0.416-0.883,0.75-1.25c0.3-0.367,0.666-0.65,1.1-0.85c0.467-0.2,0.967-0.3,1.5-0.3
				c0.9,0,1.75,0.217,2.55,0.65V112.8 M58.8,115.05c-0.166-0.566-0.433-1.05-0.8-1.45c-0.366-0.4-0.8-0.717-1.3-0.95
				c-0.533-0.233-1.116-0.35-1.75-0.35c-0.7,0-1.316,0.117-1.85,0.35c-0.567,0.233-1.033,0.567-1.4,1c-0.366,0.4-0.65,0.9-0.85,1.5
				c-0.2,0.6-0.301,1.25-0.301,1.95c0,0.633,0.101,1.233,0.301,1.8c0.199,0.567,0.483,1.05,0.85,1.45c0.367,0.433,0.8,0.767,1.3,1
				c0.533,0.233,1.134,0.35,1.8,0.35c0.7,0,1.317-0.117,1.851-0.35c0.533-0.267,0.983-0.617,1.35-1.05c0.367-0.4,0.634-0.9,0.8-1.5
				c0.2-0.6,0.301-1.25,0.301-1.95C59.1,116.217,59,115.617,58.8,115.05 M58.05,115.5c0.101,0.467,0.15,0.967,0.15,1.5
				c0,0.567-0.066,1.1-0.2,1.6c-0.133,0.467-0.35,0.883-0.649,1.25c-0.301,0.333-0.65,0.6-1.051,0.8c-0.433,0.2-0.933,0.3-1.5,0.3
				c-0.566,0-1.066-0.117-1.5-0.35c-0.433-0.2-0.783-0.483-1.05-0.85s-0.467-0.783-0.6-1.25c-0.167-0.467-0.25-0.967-0.25-1.5
				c0.033-0.533,0.116-1.033,0.25-1.5c0.167-0.5,0.383-0.917,0.649-1.25c0.301-0.367,0.667-0.65,1.101-0.85
				c0.434-0.233,0.917-0.35,1.45-0.35c0.6,0,1.116,0.117,1.55,0.35c0.399,0.2,0.75,0.483,1.05,0.85
				C57.717,114.583,57.917,115,58.05,115.5 M79.6,115.6c-0.367-0.467-0.917-0.7-1.65-0.7c-0.967,0-1.684,0.434-2.15,1.3h-0.05v-1.15
				h-0.8v6.5h0.8v-3.7c0-0.333,0.05-0.633,0.15-0.9c0.1-0.267,0.233-0.5,0.399-0.7c0.2-0.2,0.417-0.367,0.65-0.5
				c0.233-0.1,0.5-0.15,0.8-0.15c1.067,0,1.601,0.733,1.601,2.2v3.75h0.8v-3.95C80.15,116.733,79.967,116.067,79.6,115.6
				 M70.75,114.9c-0.433,0-0.833,0.083-1.2,0.25c-0.366,0.167-0.666,0.4-0.899,0.7c-0.267,0.3-0.483,0.667-0.65,1.1
				c-0.133,0.4-0.2,0.85-0.2,1.35c0,0.534,0.067,1.017,0.2,1.45c0.134,0.433,0.317,0.783,0.55,1.05c0.268,0.3,0.584,0.517,0.95,0.65
				c0.334,0.167,0.717,0.25,1.15,0.25c0.899,0,1.667-0.217,2.3-0.65v-0.8c-0.667,0.5-1.366,0.75-2.1,0.75
				c-0.334,0-0.634-0.05-0.9-0.15c-0.3-0.133-0.533-0.317-0.7-0.55c-0.2-0.2-0.35-0.466-0.45-0.8c-0.1-0.3-0.149-0.65-0.149-1.05
				h4.7v-0.4c0-0.5-0.067-0.933-0.2-1.3c-0.101-0.4-0.267-0.733-0.5-1c-0.2-0.267-0.467-0.483-0.8-0.65
				C71.516,114.967,71.15,114.9,70.75,114.9 M68.9,116.85c0.1-0.267,0.25-0.5,0.45-0.7c0.166-0.167,0.366-0.3,0.6-0.4
				s0.483-0.15,0.75-0.15c0.566,0,1,0.183,1.3,0.55s0.467,0.9,0.5,1.6h-3.85C68.683,117.417,68.766,117.117,68.9,116.85
				 M66.45,116.75c-0.133-0.4-0.316-0.733-0.55-1c-0.2-0.267-0.467-0.467-0.8-0.6c-0.334-0.167-0.717-0.25-1.15-0.25
				c-0.5,0-0.95,0.117-1.35,0.35c-0.4,0.233-0.717,0.583-0.95,1.05H61.6v-1.25H60.8v9.5H61.6v-4.05h0.05
				c0.434,0.8,1.116,1.2,2.05,1.2c0.434,0,0.833-0.083,1.2-0.25c0.366-0.167,0.684-0.417,0.95-0.75
				c0.233-0.333,0.416-0.717,0.55-1.15c0.133-0.433,0.2-0.917,0.2-1.45C66.6,117.6,66.55,117.15,66.45,116.75 M62.2,116.3
				c0.2-0.2,0.434-0.367,0.7-0.5s0.566-0.2,0.899-0.2c0.301,0,0.584,0.05,0.851,0.15c0.233,0.133,0.434,0.3,0.6,0.5
				c0.167,0.233,0.3,0.5,0.4,0.8c0.1,0.3,0.149,0.65,0.149,1.05c0,0.433-0.05,0.833-0.149,1.2c-0.101,0.367-0.25,0.667-0.45,0.9
				c-0.167,0.267-0.383,0.466-0.65,0.6c-0.267,0.133-0.566,0.2-0.899,0.2c-0.3,0-0.583-0.05-0.851-0.15
				c-0.232-0.133-0.449-0.3-0.649-0.5c-0.167-0.2-0.3-0.417-0.4-0.65c-0.1-0.267-0.149-0.55-0.149-0.85V118
				c0-0.333,0.05-0.65,0.149-0.95C61.85,116.75,62,116.5,62.2,116.3 M80.9,151.8v0.9c0.566,0.333,1.233,0.5,2,0.5
				c0.399,0,0.8-0.05,1.2-0.15c0.366-0.133,0.683-0.316,0.949-0.55c0.301-0.233,0.518-0.517,0.65-0.85
				c0.167-0.333,0.25-0.717,0.25-1.15c0-0.3-0.05-0.583-0.15-0.85c-0.1-0.267-0.25-0.5-0.449-0.7c-0.2-0.167-0.417-0.317-0.65-0.45
				c-0.267-0.1-0.55-0.167-0.85-0.2c1.199-0.367,1.8-1.15,1.8-2.35c0-0.367-0.066-0.684-0.2-0.95
				c-0.133-0.267-0.316-0.483-0.55-0.65c-0.2-0.2-0.45-0.333-0.75-0.4c-0.3-0.1-0.617-0.15-0.95-0.15c-0.667,0-1.316,0.167-1.95,0.5
				v0.85c0.567-0.433,1.167-0.65,1.8-0.65c0.567,0,1,0.15,1.301,0.45c0.3,0.267,0.449,0.667,0.449,1.2c0,0.6-0.199,1.05-0.6,1.35
				c-0.4,0.333-0.983,0.5-1.75,0.5h-0.7v0.7h0.75c0.867,0,1.517,0.15,1.95,0.45c0.467,0.333,0.7,0.817,0.7,1.45
				c0,0.333-0.066,0.617-0.2,0.85c-0.133,0.233-0.3,0.433-0.5,0.6c-0.2,0.167-0.434,0.284-0.7,0.35c-0.267,0.067-0.55,0.1-0.85,0.1
				C82.2,152.5,81.533,152.267,80.9,151.8 M78.1,144.65L77.3,144.9v1.65H76.15v0.7H77.3v4.1c0,1.233,0.534,1.85,1.601,1.85
				c0.3,0,0.6-0.083,0.899-0.25v-0.7c-0.232,0.167-0.482,0.25-0.75,0.25c-0.333,0-0.566-0.1-0.699-0.3
				c-0.167-0.2-0.25-0.517-0.25-0.95v-4H79.8v-0.7H78.1V144.65 M72.55,146.7c-0.399,0.167-0.75,0.417-1.05,0.75
				c-0.267,0.3-0.483,0.667-0.649,1.1c-0.134,0.434-0.2,0.9-0.2,1.4c0,0.466,0.066,0.9,0.2,1.3c0.133,0.4,0.333,0.75,0.6,1.05
				c0.267,0.267,0.583,0.483,0.95,0.65c0.366,0.167,0.783,0.25,1.25,0.25c0.7,0,1.283-0.15,1.75-0.45v-0.8
				c-0.467,0.367-1.017,0.55-1.65,0.55c-0.366,0-0.7-0.067-1-0.2c-0.3-0.167-0.533-0.367-0.7-0.6
				c-0.199-0.233-0.35-0.517-0.449-0.85c-0.067-0.3-0.101-0.633-0.101-1s0.05-0.717,0.15-1.05c0.1-0.333,0.25-0.633,0.45-0.9
				c0.199-0.233,0.449-0.433,0.75-0.6c0.333-0.133,0.683-0.2,1.05-0.2c0.566,0,1.083,0.15,1.55,0.45v-0.85
				c-0.467-0.2-0.967-0.3-1.5-0.3S72.95,146.5,72.55,146.7 M64.8,147.35c-0.267,0.3-0.482,0.667-0.649,1.1
				c-0.134,0.4-0.2,0.85-0.2,1.35c0,0.534,0.066,1.017,0.2,1.45c0.133,0.433,0.316,0.783,0.55,1.05c0.267,0.3,0.583,0.517,0.95,0.65
				c0.333,0.167,0.717,0.25,1.149,0.25c0.9,0,1.667-0.217,2.301-0.65v-0.8c-0.667,0.5-1.367,0.75-2.101,0.75
				c-0.333,0-0.633-0.05-0.899-0.15c-0.301-0.133-0.533-0.317-0.7-0.55c-0.2-0.2-0.351-0.466-0.45-0.8c-0.1-0.3-0.15-0.65-0.15-1.05
				h4.7v-0.4c0-0.5-0.066-0.933-0.2-1.3c-0.1-0.4-0.267-0.733-0.5-1c-0.199-0.267-0.466-0.483-0.8-0.65
				c-0.333-0.133-0.7-0.2-1.1-0.2c-0.434,0-0.833,0.083-1.2,0.25C65.334,146.817,65.033,147.05,64.8,147.35 M65.05,148.35
				c0.101-0.267,0.25-0.5,0.45-0.7c0.167-0.167,0.367-0.3,0.601-0.4s0.483-0.15,0.75-0.15c0.566,0,1,0.183,1.3,0.55
				s0.467,0.9,0.5,1.6H64.8C64.834,148.917,64.917,148.617,65.05,148.35 M63.1,146.45c-0.101,0-0.217,0-0.351,0
				c-0.2,0-0.399,0.033-0.6,0.1c-0.167,0.067-0.333,0.167-0.5,0.3c-0.134,0.1-0.267,0.25-0.4,0.45c-0.1,0.2-0.183,0.417-0.25,0.65
				h-0.05v-1.4h-0.8v6.5h0.8v-3.2c0-0.167,0.017-0.35,0.05-0.55c0-0.2,0.033-0.4,0.101-0.6c0.066-0.2,0.133-0.4,0.199-0.6
				c0.101-0.167,0.217-0.317,0.351-0.45c0.1-0.167,0.233-0.283,0.399-0.35c0.167-0.1,0.367-0.15,0.601-0.15
				c0.3,0,0.533,0.083,0.7,0.25v-0.85C63.283,146.517,63.2,146.483,63.1,146.45 M58.05,146.55h-0.8v6.5h0.8V146.55 M57.9,143.8
				c-0.101-0.033-0.184-0.05-0.25-0.05c-0.167,0-0.3,0.05-0.4,0.15c-0.133,0.1-0.2,0.233-0.2,0.4c0,0.2,0.067,0.35,0.2,0.45
				c0.101,0.1,0.233,0.15,0.4,0.15c0.066,0,0.149-0.017,0.25-0.05c0.066-0.033,0.116-0.067,0.149-0.1
				c0.067-0.067,0.117-0.133,0.15-0.2c0.033-0.066,0.05-0.15,0.05-0.25c0-0.066-0.017-0.133-0.05-0.2
				c-0.033-0.067-0.083-0.133-0.15-0.2C58.016,143.867,57.967,143.833,57.9,143.8 M54.35,145.05c-0.801-0.733-1.983-1.1-3.551-1.1
				h-2.35v9.1h2.25c0.767,0,1.45-0.117,2.05-0.35c0.567-0.2,1.067-0.517,1.5-0.95c0.434-0.4,0.75-0.883,0.95-1.45
				c0.233-0.566,0.35-1.2,0.35-1.9C55.55,146.933,55.15,145.817,54.35,145.05 M50.75,144.7c2.601,0,3.9,1.233,3.9,3.7
				c0,0.633-0.083,1.184-0.25,1.65c-0.2,0.5-0.467,0.917-0.8,1.25c-0.334,0.3-0.75,0.55-1.25,0.75c-0.5,0.167-1.067,0.25-1.7,0.25
				h-1.4v-7.6H50.75 M92,178.4c-0.233,0.133-0.399,0.317-0.5,0.55c-0.133,0.233-0.2,0.483-0.2,0.75c0,0.233,0.034,0.45,0.101,0.65
				c0.066,0.167,0.167,0.333,0.3,0.5c0.134,0.133,0.316,0.267,0.55,0.4c0.2,0.133,0.45,0.25,0.75,0.35
				c0.233,0.1,0.434,0.2,0.601,0.3c0.199,0.067,0.366,0.15,0.5,0.25c0.1,0.1,0.183,0.217,0.25,0.35c0.066,0.1,0.1,0.233,0.1,0.4
				c0,0.733-0.483,1.1-1.45,1.1c-0.133,0-0.267-0.017-0.399-0.05c-0.167-0.034-0.334-0.067-0.5-0.1
				c-0.134-0.067-0.267-0.133-0.4-0.2c-0.167-0.066-0.3-0.15-0.4-0.25v0.9c0.434,0.267,0.983,0.4,1.65,0.4
				c0.333,0,0.65-0.034,0.95-0.1c0.267-0.1,0.517-0.217,0.75-0.35c0.2-0.167,0.366-0.367,0.5-0.6c0.1-0.233,0.149-0.5,0.149-0.8
				c0-0.233-0.033-0.434-0.1-0.6c-0.066-0.2-0.184-0.367-0.35-0.5c-0.134-0.133-0.317-0.267-0.551-0.4
				c-0.232-0.133-0.5-0.267-0.8-0.4c-0.233-0.1-0.45-0.184-0.649-0.25c-0.167-0.1-0.301-0.2-0.4-0.3s-0.184-0.2-0.25-0.3
				c-0.033-0.133-0.05-0.284-0.05-0.45s0.033-0.3,0.1-0.4c0.067-0.133,0.15-0.25,0.25-0.35c0.134-0.1,0.283-0.167,0.45-0.2
				c0.167-0.067,0.35-0.1,0.55-0.1c0.567,0,1.084,0.15,1.55,0.45v-0.85c-0.399-0.2-0.883-0.3-1.449-0.3
				c-0.301,0-0.584,0.033-0.851,0.1C92.45,178.1,92.2,178.233,92,178.4 M83.65,178.05h-0.8v6.5h0.8V178.05 M83.65,176.25
				c0.066-0.067,0.116-0.133,0.149-0.2c0.034-0.066,0.051-0.15,0.051-0.25c0-0.066-0.017-0.133-0.051-0.2
				c-0.033-0.067-0.083-0.133-0.149-0.2c-0.033-0.033-0.083-0.066-0.15-0.1c-0.1-0.033-0.183-0.05-0.25-0.05
				c-0.166,0-0.3,0.05-0.399,0.15c-0.134,0.1-0.2,0.233-0.2,0.4c0,0.2,0.066,0.35,0.2,0.45c0.1,0.1,0.233,0.15,0.399,0.15
				c0.067,0,0.15-0.017,0.25-0.05C83.567,176.317,83.617,176.283,83.65,176.25 M88.6,177.9c-0.533,0-1,0.1-1.4,0.3
				c-0.4,0.167-0.75,0.417-1.05,0.75c-0.267,0.3-0.483,0.667-0.65,1.1c-0.133,0.434-0.2,0.9-0.2,1.4c0,0.466,0.067,0.9,0.2,1.3
				c0.134,0.4,0.334,0.75,0.601,1.05c0.267,0.267,0.583,0.483,0.949,0.65c0.367,0.167,0.784,0.25,1.25,0.25
				c0.7,0,1.284-0.15,1.75-0.45v-0.8c-0.466,0.367-1.017,0.55-1.649,0.55c-0.367,0-0.7-0.067-1-0.2c-0.3-0.167-0.533-0.367-0.7-0.6
				c-0.2-0.233-0.35-0.517-0.45-0.85c-0.066-0.3-0.1-0.633-0.1-1s0.05-0.717,0.149-1.05c0.101-0.333,0.25-0.633,0.45-0.9
				c0.2-0.233,0.45-0.433,0.75-0.6c0.334-0.133,0.684-0.2,1.05-0.2c0.567,0,1.084,0.15,1.551,0.45v-0.85
				C89.634,178,89.134,177.9,88.6,177.9 M77.1,179.2c0.166-0.2,0.366-0.35,0.6-0.45s0.483-0.15,0.75-0.15
				c0.566,0,0.983,0.167,1.25,0.5c0.267,0.367,0.4,0.917,0.4,1.65v3.8h0.8v-4c0-0.867-0.184-1.533-0.55-2
				c-0.367-0.433-0.917-0.65-1.65-0.65c-0.934,0-1.65,0.417-2.15,1.25H76.5v-4.2h-0.8v9.6h0.8v-3.65c0-0.367,0.05-0.683,0.15-0.95
				C76.783,179.65,76.933,179.4,77.1,179.2 M72.55,178.15c-0.333-0.167-0.716-0.25-1.149-0.25c-0.5,0-0.95,0.117-1.351,0.35
				c-0.399,0.233-0.716,0.583-0.949,1.05H69.05v-1.25h-0.8v9.5h0.8v-4.05H69.1c0.433,0.8,1.116,1.2,2.05,1.2
				c0.434,0,0.833-0.083,1.2-0.25c0.366-0.167,0.683-0.417,0.949-0.75c0.233-0.333,0.417-0.717,0.551-1.15
				c0.133-0.433,0.199-0.917,0.199-1.45c0-0.5-0.05-0.95-0.149-1.35c-0.134-0.4-0.316-0.733-0.55-1
				C73.15,178.483,72.884,178.283,72.55,178.15 M71.25,178.6c0.3,0,0.584,0.05,0.851,0.15c0.233,0.133,0.433,0.3,0.6,0.5
				c0.167,0.233,0.3,0.5,0.4,0.8c0.1,0.3,0.149,0.65,0.149,1.05c0,0.433-0.05,0.833-0.149,1.2c-0.101,0.367-0.25,0.667-0.45,0.9
				c-0.167,0.267-0.384,0.466-0.65,0.6S71.433,184,71.1,184c-0.301,0-0.584-0.05-0.851-0.15c-0.233-0.133-0.45-0.3-0.649-0.5
				c-0.167-0.2-0.301-0.417-0.4-0.65c-0.1-0.267-0.15-0.55-0.15-0.85V181c0-0.333,0.051-0.65,0.15-0.95c0.1-0.3,0.25-0.55,0.45-0.75
				c0.2-0.2,0.434-0.367,0.7-0.5S70.917,178.6,71.25,178.6 M62.4,178.3c-0.167,0.067-0.316,0.15-0.45,0.25v0.9
				c0.634-0.567,1.333-0.85,2.1-0.85c0.967,0,1.45,0.617,1.45,1.85l-2,0.3c-0.733,0.1-1.283,0.333-1.649,0.7
				c-0.367,0.333-0.551,0.8-0.551,1.4c0,0.267,0.051,0.517,0.15,0.75s0.233,0.433,0.4,0.6c0.199,0.167,0.416,0.283,0.649,0.35
				c0.267,0.1,0.55,0.15,0.851,0.15c0.467,0,0.883-0.117,1.25-0.35c0.366-0.233,0.649-0.55,0.85-0.95h0.05v1.15h0.8v-4.25
				c0-0.8-0.183-1.4-0.55-1.8c-0.366-0.4-0.916-0.6-1.649-0.6c-0.2,0-0.4,0.017-0.601,0.05c-0.2,0.033-0.383,0.083-0.55,0.15
				C62.75,178.133,62.567,178.2,62.4,178.3 M65.5,181.15v0.65c0,0.333-0.05,0.633-0.149,0.9c-0.101,0.267-0.233,0.5-0.4,0.7
				c-0.2,0.167-0.417,0.317-0.65,0.45c-0.232,0.1-0.5,0.15-0.8,0.15c-0.2,0-0.383-0.033-0.55-0.1
				c-0.167-0.033-0.316-0.117-0.45-0.25c-0.1-0.1-0.183-0.217-0.25-0.35c-0.066-0.167-0.1-0.333-0.1-0.5
				c0-0.233,0.033-0.433,0.1-0.6c0.067-0.167,0.167-0.3,0.3-0.4c0.134-0.1,0.301-0.183,0.5-0.25c0.233-0.066,0.483-0.117,0.75-0.15
				L65.5,181.15 M51.15,176.35c0.467-0.2,0.967-0.3,1.5-0.3c0.899,0,1.75,0.217,2.55,0.65v-0.9c-0.7-0.333-1.517-0.5-2.45-0.5
				c-0.467,0-0.899,0.05-1.3,0.15c-0.434,0.133-0.816,0.3-1.15,0.5c-0.333,0.2-0.633,0.45-0.899,0.75c-0.267,0.3-0.5,0.633-0.7,1
				c-0.167,0.367-0.3,0.75-0.4,1.15c-0.1,0.4-0.149,0.833-0.149,1.3c0,0.667,0.1,1.283,0.3,1.85c0.2,0.533,0.483,1.017,0.85,1.45
				c0.367,0.4,0.801,0.7,1.301,0.9c0.533,0.233,1.133,0.35,1.8,0.35c1.033,0,2.017-0.267,2.95-0.8v-4h-2.9v0.8h2.1v2.75
				c-0.566,0.333-1.25,0.5-2.05,0.5c-0.566,0-1.066-0.1-1.5-0.3c-0.433-0.2-0.8-0.466-1.1-0.8c-0.3-0.367-0.517-0.783-0.65-1.25
				c-0.166-0.467-0.25-0.983-0.25-1.55c0.033-0.566,0.134-1.1,0.3-1.6c0.167-0.467,0.417-0.883,0.75-1.25
				C50.35,176.833,50.717,176.55,51.15,176.35 M58.15,178.05h-0.8v6.5h0.8v-3.2c0-0.167,0.017-0.35,0.05-0.55
				c0-0.2,0.033-0.4,0.1-0.6c0.067-0.2,0.134-0.4,0.2-0.6c0.101-0.167,0.217-0.317,0.351-0.45c0.1-0.167,0.233-0.283,0.399-0.35
				c0.167-0.1,0.367-0.15,0.601-0.15c0.3,0,0.533,0.083,0.699,0.25v-0.85c-0.066-0.033-0.149-0.066-0.25-0.1c-0.1,0-0.216,0-0.35,0
				c-0.2,0-0.4,0.033-0.6,0.1c-0.167,0.067-0.334,0.167-0.5,0.3c-0.134,0.1-0.267,0.25-0.4,0.45c-0.1,0.2-0.184,0.417-0.25,0.65
				h-0.05V178.05 M38.55,175.45H36.2v9.1h2.25c0.767,0,1.45-0.117,2.05-0.35c0.567-0.2,1.067-0.517,1.5-0.95
				c0.434-0.4,0.75-0.883,0.95-1.45c0.233-0.566,0.35-1.2,0.35-1.9c0-1.467-0.399-2.583-1.199-3.35
				C41.3,175.817,40.117,175.45,38.55,175.45 M37,176.2h1.5c2.601,0,3.9,1.233,3.9,3.7c0,0.633-0.083,1.184-0.25,1.65
				c-0.2,0.5-0.467,0.917-0.8,1.25c-0.334,0.3-0.75,0.55-1.25,0.75c-0.5,0.167-1.067,0.25-1.7,0.25H37V176.2 M32.8,175.6
				c-0.267-0.133-0.566-0.217-0.899-0.25c-0.066-0.033-0.134-0.05-0.2-0.05s-0.133,0-0.2,0c-0.467,0-0.899,0.067-1.3,0.2
				c-0.366,0.167-0.717,0.383-1.05,0.65v0.9c0.333-0.3,0.684-0.55,1.05-0.75c0.367-0.2,0.767-0.3,1.2-0.3c0.267,0,0.5,0.033,0.7,0.1
				c0.233,0.1,0.433,0.217,0.6,0.35c0.134,0.167,0.25,0.35,0.35,0.55c0.067,0.233,0.101,0.5,0.101,0.8c0,0.3-0.033,0.567-0.101,0.8
				c-0.066,0.233-0.183,0.467-0.35,0.7c-0.167,0.2-0.366,0.417-0.6,0.65c-0.233,0.2-0.5,0.4-0.801,0.6
				c-0.433,0.333-0.816,0.633-1.149,0.9c-0.3,0.267-0.55,0.517-0.75,0.75c-0.2,0.267-0.351,0.55-0.45,0.85
				c-0.1,0.3-0.15,0.65-0.15,1.05v0.45h5.4v-0.75h-4.55c0-0.066,0-0.133,0-0.2c0-0.033,0.017-0.083,0.05-0.15
				c0.033-0.233,0.1-0.434,0.2-0.6c0.066-0.2,0.184-0.383,0.35-0.55c0.167-0.2,0.384-0.4,0.65-0.6c0.267-0.2,0.583-0.434,0.95-0.7
				c0.333-0.233,0.633-0.45,0.899-0.65c0.267-0.233,0.483-0.483,0.65-0.75c0.2-0.267,0.35-0.55,0.45-0.85
				c0.1-0.333,0.149-0.683,0.149-1.05c0-0.333-0.05-0.633-0.149-0.9c-0.101-0.3-0.233-0.55-0.4-0.75
				C33.25,175.85,33.033,175.7,32.8,175.6 M70.55,206.95H68.2v9.1h2.25c0.767,0,1.45-0.116,2.05-0.35
				c0.567-0.2,1.067-0.517,1.5-0.95c0.434-0.4,0.75-0.883,0.95-1.45c0.233-0.566,0.35-1.2,0.35-1.899
				c0-1.467-0.399-2.584-1.199-3.351C73.3,207.316,72.117,206.95,70.55,206.95 M69,207.7h1.5c2.601,0,3.9,1.233,3.9,3.7
				c0,0.633-0.083,1.184-0.25,1.649c-0.2,0.5-0.467,0.917-0.8,1.25c-0.334,0.3-0.75,0.55-1.25,0.75c-0.5,0.167-1.067,0.25-1.7,0.25
				H69V207.7 M78.9,210.3c0.167-0.1,0.366-0.149,0.6-0.149c0.3,0,0.533,0.083,0.7,0.25v-0.851c-0.066-0.033-0.15-0.066-0.25-0.1
				c-0.1,0-0.217,0-0.35,0c-0.2,0-0.4,0.033-0.601,0.1c-0.166,0.067-0.333,0.167-0.5,0.3c-0.133,0.101-0.267,0.25-0.399,0.45
				c-0.101,0.2-0.184,0.417-0.25,0.65H77.8v-1.4H77v6.5h0.8v-3.2c0-0.166,0.018-0.35,0.051-0.55c0-0.2,0.033-0.399,0.1-0.6
				s0.134-0.4,0.2-0.601c0.1-0.166,0.217-0.316,0.35-0.449C78.6,210.483,78.733,210.367,78.9,210.3 M84.25,209.55H83.35l2.5,6.5
				h0.75l2.6-6.5h-0.85l-1.9,5c-0.066,0.2-0.116,0.45-0.15,0.75h-0.05c-0.033-0.233-0.1-0.5-0.2-0.8L84.25,209.55 M82.2,209.55h-0.8
				v6.5h0.8V209.55 M82.35,207.1c-0.033-0.066-0.084-0.133-0.15-0.199c-0.033-0.033-0.083-0.066-0.15-0.101
				c-0.1-0.033-0.183-0.05-0.25-0.05c-0.166,0-0.3,0.05-0.399,0.15c-0.134,0.1-0.2,0.232-0.2,0.399c0,0.2,0.066,0.351,0.2,0.45
				c0.1,0.1,0.233,0.15,0.399,0.15c0.067,0,0.15-0.018,0.25-0.051c0.067-0.033,0.117-0.066,0.15-0.1
				c0.066-0.066,0.117-0.133,0.15-0.2c0.033-0.066,0.05-0.149,0.05-0.25C82.4,207.233,82.384,207.166,82.35,207.1 M94.65,210.25
				c-0.2-0.267-0.467-0.483-0.8-0.65c-0.334-0.133-0.7-0.199-1.101-0.199c-0.433,0-0.833,0.083-1.2,0.25
				c-0.366,0.166-0.666,0.399-0.899,0.699c-0.267,0.301-0.483,0.667-0.65,1.101c-0.133,0.399-0.2,0.85-0.2,1.35
				c0,0.534,0.067,1.017,0.2,1.45c0.134,0.434,0.317,0.783,0.55,1.05c0.268,0.3,0.584,0.517,0.95,0.65
				c0.334,0.167,0.717,0.25,1.15,0.25c0.899,0,1.667-0.217,2.3-0.65v-0.8c-0.667,0.5-1.366,0.75-2.1,0.75
				c-0.334,0-0.634-0.05-0.9-0.15c-0.3-0.133-0.533-0.316-0.7-0.55c-0.2-0.2-0.35-0.466-0.45-0.8c-0.1-0.3-0.149-0.65-0.149-1.05
				h4.7v-0.4c0-0.5-0.067-0.933-0.2-1.3C95.05,210.85,94.884,210.517,94.65,210.25 M91.95,210.25c0.233-0.1,0.483-0.15,0.75-0.15
				c0.566,0,1,0.184,1.3,0.551c0.3,0.366,0.467,0.899,0.5,1.6h-3.85c0.033-0.334,0.116-0.633,0.25-0.9
				c0.1-0.266,0.25-0.5,0.45-0.699C91.516,210.483,91.717,210.35,91.95,210.25 M62.4,206.45h-0.8v4.05
				c-0.434-0.733-1.117-1.1-2.051-1.1c-0.433,0-0.833,0.083-1.199,0.25c-0.367,0.166-0.684,0.416-0.95,0.75
				c-0.267,0.3-0.467,0.666-0.601,1.1c-0.133,0.434-0.199,0.916-0.199,1.45c0,0.5,0.066,0.95,0.199,1.35
				c0.134,0.4,0.317,0.75,0.551,1.05c0.233,0.268,0.517,0.484,0.85,0.65c0.333,0.133,0.7,0.2,1.1,0.2c0.5,0,0.95-0.116,1.351-0.351
				c0.399-0.232,0.717-0.55,0.95-0.949v1.149h0.8V206.45 M61.6,213.2c0,0.333-0.051,0.634-0.15,0.899
				c-0.1,0.301-0.233,0.551-0.4,0.75c-0.199,0.2-0.433,0.367-0.699,0.5c-0.267,0.101-0.567,0.15-0.9,0.15
				c-0.3,0-0.566-0.05-0.8-0.15c-0.267-0.133-0.483-0.316-0.65-0.55c-0.2-0.2-0.35-0.466-0.45-0.8c-0.066-0.334-0.1-0.7-0.1-1.1
				c0-0.434,0.05-0.834,0.15-1.2c0.1-0.333,0.25-0.616,0.449-0.851c0.2-0.232,0.434-0.416,0.7-0.55s0.55-0.2,0.851-0.2
				c0.3,0,0.583,0.051,0.85,0.15c0.233,0.1,0.434,0.25,0.6,0.45c0.167,0.167,0.301,0.384,0.4,0.649c0.1,0.234,0.15,0.5,0.15,0.801
				V213.2 M56,209.55c-0.066-0.033-0.149-0.066-0.25-0.1c-0.1,0-0.217,0-0.35,0c-0.2,0-0.4,0.033-0.601,0.1
				c-0.166,0.067-0.333,0.167-0.5,0.3c-0.133,0.101-0.267,0.25-0.399,0.45c-0.101,0.2-0.184,0.417-0.25,0.65H53.6v-1.4H52.8v6.5
				H53.6v-3.2c0-0.166,0.017-0.35,0.05-0.55c0-0.2,0.033-0.399,0.1-0.6c0.067-0.2,0.134-0.4,0.2-0.601
				c0.1-0.166,0.217-0.316,0.35-0.449c0.101-0.167,0.233-0.283,0.4-0.351c0.167-0.1,0.367-0.149,0.6-0.149
				c0.301,0,0.534,0.083,0.7,0.25V209.55 M50.3,210c-0.366-0.4-0.916-0.6-1.649-0.6c-0.2,0-0.4,0.016-0.601,0.05
				c-0.199,0.033-0.383,0.083-0.55,0.149c-0.2,0.033-0.383,0.101-0.55,0.2c-0.167,0.067-0.316,0.15-0.45,0.25v0.9
				c0.634-0.567,1.334-0.851,2.101-0.851c0.967,0,1.449,0.617,1.449,1.851l-2,0.3c-0.732,0.1-1.283,0.334-1.649,0.7
				c-0.367,0.333-0.55,0.8-0.55,1.399c0,0.268,0.05,0.518,0.149,0.75c0.101,0.234,0.233,0.434,0.4,0.601
				c0.2,0.167,0.417,0.283,0.649,0.35c0.268,0.101,0.551,0.15,0.851,0.15c0.467,0,0.883-0.116,1.25-0.351
				c0.366-0.232,0.649-0.55,0.85-0.949h0.05v1.149h0.801v-4.25C50.85,211,50.667,210.4,50.3,210 M48.35,212.9l1.699-0.25v0.649
				c0,0.333-0.05,0.634-0.149,0.9c-0.101,0.267-0.233,0.5-0.4,0.7c-0.2,0.166-0.416,0.316-0.649,0.449
				c-0.233,0.101-0.5,0.15-0.801,0.15c-0.199,0-0.383-0.033-0.55-0.1c-0.166-0.033-0.316-0.117-0.45-0.25
				c-0.1-0.101-0.183-0.217-0.25-0.351c-0.066-0.167-0.1-0.333-0.1-0.5c0-0.233,0.033-0.433,0.1-0.6
				c0.067-0.167,0.167-0.3,0.301-0.4c0.133-0.1,0.3-0.183,0.5-0.25C47.834,212.983,48.084,212.934,48.35,212.9 M43.25,211.8v4.25
				H44.1v-9.1H43.25v4.1h-5v-4.1h-0.8v9.1h0.8v-4.25H43.25 M90.8,241.05H89.9l2.5,6.45l-0.55,1.35
				c-0.134,0.334-0.301,0.584-0.5,0.75c-0.2,0.167-0.434,0.25-0.7,0.25c-0.101,0-0.2,0-0.3,0c-0.101-0.033-0.2-0.066-0.301-0.1v0.75
				c0.167,0.066,0.367,0.1,0.601,0.1c0.467,0,0.866-0.149,1.2-0.449c0.333-0.301,0.633-0.768,0.899-1.4l3.05-7.7h-0.85L93,246.2
				c-0.033,0.1-0.066,0.183-0.1,0.25c-0.033,0.1-0.05,0.183-0.05,0.25H92.8c0-0.101-0.017-0.184-0.05-0.25
				c-0.033-0.101-0.066-0.184-0.1-0.25L90.8,241.05 M88.55,240.95c-0.199,0-0.399,0.033-0.6,0.1c-0.167,0.067-0.333,0.167-0.5,0.3
				c-0.133,0.101-0.267,0.25-0.4,0.45c-0.1,0.2-0.183,0.417-0.25,0.65h-0.05v-1.4h-0.8v6.5h0.8v-3.2c0-0.166,0.017-0.35,0.05-0.55
				c0-0.2,0.034-0.399,0.101-0.6s0.133-0.4,0.2-0.601c0.1-0.166,0.217-0.316,0.35-0.449c0.1-0.167,0.233-0.283,0.4-0.351
				c0.166-0.1,0.366-0.149,0.6-0.149c0.3,0,0.533,0.083,0.7,0.25v-0.851c-0.066-0.033-0.15-0.066-0.25-0.1
				C88.8,240.95,88.683,240.95,88.55,240.95 M82.55,241.15c-0.366-0.167-0.8-0.25-1.3-0.25c-0.467,0-0.899,0.083-1.3,0.25
				c-0.4,0.133-0.75,0.35-1.05,0.649c-0.267,0.3-0.483,0.667-0.65,1.101c-0.133,0.434-0.2,0.916-0.2,1.449
				c0,0.5,0.067,0.95,0.2,1.351c0.134,0.433,0.351,0.8,0.65,1.1c0.267,0.267,0.583,0.483,0.95,0.65c0.399,0.167,0.833,0.25,1.3,0.25
				c0.5,0,0.95-0.083,1.35-0.25c0.367-0.167,0.684-0.4,0.95-0.7s0.483-0.65,0.65-1.05c0.133-0.434,0.199-0.9,0.199-1.4
				c0-0.533-0.066-1.017-0.199-1.45c-0.134-0.399-0.334-0.75-0.601-1.05S82.917,241.283,82.55,241.15 M81.2,241.6
				c0.733,0,1.3,0.234,1.7,0.7c0.366,0.467,0.55,1.134,0.55,2c0,0.434-0.033,0.817-0.1,1.15c-0.101,0.333-0.25,0.616-0.45,0.85
				s-0.45,0.417-0.75,0.55c-0.267,0.101-0.583,0.15-0.95,0.15c-0.366,0-0.684-0.066-0.95-0.2c-0.3-0.1-0.55-0.267-0.75-0.5
				s-0.35-0.517-0.45-0.85c-0.1-0.333-0.149-0.7-0.149-1.101c0-0.434,0.05-0.816,0.149-1.149c0.101-0.333,0.25-0.616,0.45-0.851
				c0.2-0.266,0.45-0.449,0.75-0.55C80.55,241.666,80.867,241.6,81.2,241.6 M68.35,241.05H67.55v6.5h0.801v-3.75
				c0-0.3,0.05-0.6,0.149-0.899c0.067-0.268,0.184-0.5,0.351-0.7c0.166-0.167,0.35-0.317,0.55-0.45c0.2-0.1,0.417-0.15,0.649-0.15
				c1.067,0,1.601,0.684,1.601,2.051v3.899h0.8v-3.75c0-0.3,0.05-0.583,0.15-0.85c0.066-0.267,0.183-0.5,0.35-0.7
				s0.35-0.367,0.55-0.5c0.233-0.1,0.467-0.15,0.7-0.15c0.267,0,0.5,0.033,0.7,0.101c0.167,0.1,0.316,0.233,0.45,0.399
				c0.133,0.167,0.233,0.384,0.3,0.65c0.033,0.267,0.05,0.6,0.05,1v3.8h0.85v-4c0-1.767-0.716-2.649-2.149-2.649
				c-0.467,0-0.884,0.116-1.25,0.35c-0.367,0.233-0.667,0.584-0.9,1.05c-0.066-0.2-0.149-0.384-0.25-0.55
				c-0.133-0.166-0.267-0.316-0.399-0.45c-0.167-0.134-0.351-0.233-0.551-0.3c-0.199-0.066-0.416-0.1-0.649-0.1
				c-0.9,0-1.566,0.399-2,1.199h-0.05V241.05 M80.9,274.35c-0.134-0.399-0.333-0.75-0.601-1.05c-0.267-0.3-0.583-0.517-0.949-0.649
				c-0.367-0.167-0.801-0.25-1.301-0.25c-0.466,0-0.899,0.083-1.3,0.25C76.35,272.783,76,273,75.7,273.3
				c-0.267,0.3-0.483,0.667-0.65,1.101c-0.133,0.434-0.199,0.916-0.199,1.449c0,0.5,0.066,0.95,0.199,1.351
				c0.134,0.433,0.351,0.8,0.65,1.1c0.267,0.267,0.583,0.483,0.95,0.65c0.399,0.167,0.833,0.25,1.3,0.25c0.5,0,0.95-0.083,1.35-0.25
				c0.367-0.167,0.684-0.4,0.95-0.7s0.483-0.65,0.65-1.05c0.133-0.434,0.2-0.9,0.2-1.4C81.1,275.267,81.033,274.783,80.9,274.35
				 M76.3,273.85c0.2-0.266,0.45-0.449,0.75-0.55c0.301-0.134,0.617-0.2,0.95-0.2c0.733,0,1.3,0.234,1.7,0.7
				c0.367,0.467,0.55,1.134,0.55,2c0,0.434-0.033,0.817-0.1,1.15c-0.101,0.333-0.25,0.616-0.45,0.85s-0.45,0.417-0.75,0.55
				c-0.267,0.101-0.583,0.15-0.95,0.15c-0.366,0-0.683-0.066-0.95-0.2c-0.3-0.1-0.55-0.267-0.75-0.5
				c-0.199-0.233-0.35-0.517-0.449-0.85c-0.101-0.333-0.15-0.7-0.15-1.101c0-0.434,0.05-0.816,0.15-1.149
				C75.95,274.367,76.1,274.084,76.3,273.85 M73.9,271.45c-0.134-0.3-0.316-0.567-0.55-0.8c-0.267-0.234-0.584-0.4-0.95-0.5
				c-0.367-0.134-0.783-0.2-1.25-0.2H68.8v9.1H69.6v-3.55h1.3c0.5,0,0.95-0.066,1.35-0.2c0.4-0.167,0.733-0.366,1-0.6
				c0.267-0.267,0.483-0.583,0.65-0.95c0.133-0.367,0.2-0.75,0.2-1.15C74.1,272.166,74.033,271.783,73.9,271.45 M69.6,270.7H71
				c1.467,0,2.2,0.649,2.2,1.95c0,0.666-0.2,1.184-0.6,1.55c-0.4,0.366-0.983,0.55-1.75,0.55H69.6V270.7 M60.6,242.95
				c-0.134,0.399-0.2,0.85-0.2,1.35c0,0.534,0.066,1.017,0.2,1.45c0.133,0.434,0.316,0.783,0.55,1.05
				c0.267,0.3,0.583,0.517,0.95,0.65c0.333,0.167,0.717,0.25,1.149,0.25c0.9,0,1.667-0.217,2.3-0.65v-0.8
				c-0.666,0.5-1.366,0.75-2.1,0.75c-0.333,0-0.633-0.05-0.9-0.15c-0.3-0.133-0.533-0.316-0.699-0.55c-0.2-0.2-0.351-0.466-0.45-0.8
				c-0.101-0.3-0.15-0.65-0.15-1.05h4.7v-0.4c0-0.5-0.066-0.933-0.2-1.3c-0.1-0.4-0.267-0.733-0.5-1
				c-0.2-0.267-0.467-0.483-0.8-0.65c-0.333-0.133-0.7-0.199-1.1-0.199c-0.434,0-0.834,0.083-1.2,0.25
				c-0.367,0.166-0.667,0.399-0.9,0.699C60.983,242.15,60.766,242.517,60.6,242.95 M64.6,242.15c0.3,0.366,0.467,0.899,0.5,1.6
				H61.25c0.033-0.334,0.117-0.633,0.25-0.9c0.101-0.266,0.25-0.5,0.45-0.699c0.167-0.167,0.367-0.301,0.6-0.4
				c0.233-0.1,0.483-0.15,0.75-0.15C63.867,241.6,64.3,241.783,64.6,242.15 M50.5,239.7h0.05c0.101,0.399,0.184,0.7,0.25,0.899
				l3.2,6.95h0.351l3.199-7c0.034-0.1,0.084-0.216,0.15-0.35c0.033-0.134,0.083-0.3,0.15-0.5c-0.033,0.733-0.051,1.25-0.051,1.55
				v6.3H58.6v-9.1h-0.95l-3.101,6.85c-0.066,0.167-0.116,0.317-0.149,0.45c-0.066,0.133-0.134,0.283-0.2,0.45h-0.05
				c-0.033-0.167-0.083-0.317-0.15-0.45c-0.066-0.166-0.133-0.316-0.2-0.45l-3.05-6.85h-1v9.1h0.8v-6.35c0-0.3,0-0.583,0-0.851
				C50.55,240.117,50.533,239.9,50.5,239.7 M83.55,272.55h-0.8v6.5h0.8V272.55 M90.85,275.1c0-0.866-0.184-1.533-0.551-2
				c-0.366-0.467-0.916-0.699-1.649-0.699c-0.967,0-1.684,0.434-2.15,1.3h-0.05v-1.15h-0.8v6.5h0.8v-3.7
				c0-0.333,0.05-0.633,0.15-0.899c0.1-0.267,0.233-0.5,0.399-0.7c0.2-0.2,0.417-0.367,0.65-0.5c0.233-0.1,0.5-0.15,0.8-0.15
				c1.066,0,1.6,0.734,1.6,2.2v3.75h0.801V275.1 M93.9,270.65l-0.8,0.25v1.649h-1.15v0.7h1.15v4.1c0,1.234,0.533,1.851,1.6,1.851
				c0.3,0,0.6-0.083,0.9-0.25v-0.7c-0.233,0.166-0.483,0.25-0.75,0.25c-0.334,0-0.567-0.1-0.7-0.3c-0.167-0.2-0.25-0.517-0.25-0.95
				v-4h1.7v-0.7h-1.7V270.65 M82.75,270.75c0.101,0.1,0.233,0.15,0.4,0.15c0.066,0,0.149-0.018,0.25-0.051
				c0.066-0.033,0.116-0.066,0.149-0.1c0.067-0.066,0.117-0.133,0.15-0.2c0.033-0.066,0.05-0.149,0.05-0.25
				c0-0.066-0.017-0.134-0.05-0.2s-0.083-0.133-0.15-0.199c-0.033-0.033-0.083-0.066-0.149-0.101c-0.101-0.033-0.184-0.05-0.25-0.05
				c-0.167,0-0.3,0.05-0.4,0.15c-0.133,0.1-0.2,0.232-0.2,0.399C82.55,270.5,82.617,270.65,82.75,270.75 M60.15,272.4
				c-0.434,0-0.833,0.083-1.2,0.25c-0.366,0.166-0.684,0.416-0.95,0.75c-0.267,0.3-0.467,0.666-0.6,1.1
				c-0.134,0.434-0.2,0.916-0.2,1.45c0,0.5,0.066,0.95,0.2,1.35c0.133,0.4,0.316,0.75,0.55,1.05c0.233,0.268,0.517,0.484,0.85,0.65
				c0.334,0.133,0.7,0.2,1.101,0.2c1.033,0,1.8-0.434,2.3-1.3v0.8c0,1.8-0.85,2.7-2.55,2.7c-0.634,0-1.3-0.2-2-0.601v0.851
				c0.633,0.3,1.3,0.449,2,0.449c1.133,0,1.983-0.283,2.55-0.85c0.533-0.6,0.8-1.5,0.8-2.7v-6h-0.8v0.95
				C61.766,272.767,61.084,272.4,60.15,272.4 M58.65,273.85c0.167-0.232,0.399-0.416,0.7-0.55c0.267-0.134,0.566-0.2,0.899-0.2
				c0.3,0,0.567,0.051,0.8,0.15c0.233,0.133,0.434,0.283,0.601,0.45s0.3,0.384,0.399,0.649c0.101,0.234,0.15,0.484,0.15,0.75v1.15
				c0,0.3-0.05,0.6-0.15,0.9c-0.1,0.266-0.25,0.5-0.449,0.699c-0.167,0.2-0.384,0.367-0.65,0.5c-0.267,0.101-0.566,0.15-0.9,0.15
				c-0.3,0-0.566-0.066-0.8-0.2c-0.267-0.1-0.483-0.267-0.649-0.5c-0.2-0.233-0.351-0.5-0.45-0.8c-0.066-0.334-0.101-0.7-0.101-1.1
				c0-0.434,0.051-0.816,0.15-1.15C58.3,274.383,58.45,274.084,58.65,273.85 M48.4,272.55h-0.8v6.5h0.8V272.55 M53.3,273.1
				c1.067,0,1.601,0.734,1.601,2.2v3.75h0.8v-3.95c0-0.866-0.184-1.533-0.55-2c-0.367-0.467-0.917-0.699-1.65-0.699
				c-0.967,0-1.683,0.434-2.149,1.3H51.3v-1.15h-0.8v6.5h0.8v-3.7c0-0.333,0.051-0.633,0.15-0.899s0.233-0.5,0.4-0.7
				c0.199-0.2,0.416-0.367,0.649-0.5C52.733,273.15,53,273.1,53.3,273.1 M47.6,270.75c0.1,0.1,0.233,0.15,0.399,0.15
				c0.067,0,0.15-0.018,0.25-0.051c0.067-0.033,0.117-0.066,0.15-0.1c0.066-0.066,0.116-0.133,0.149-0.2
				c0.034-0.066,0.051-0.149,0.051-0.25c0-0.066-0.017-0.134-0.051-0.2c-0.033-0.066-0.083-0.133-0.149-0.199
				c-0.033-0.033-0.083-0.066-0.15-0.101c-0.1-0.033-0.183-0.05-0.25-0.05c-0.166,0-0.3,0.05-0.399,0.15
				c-0.134,0.1-0.2,0.232-0.2,0.399C47.4,270.5,47.467,270.65,47.6,270.75 M44.55,270.65l-0.8,0.25v1.649H42.6v0.7h1.149v4.1
				c0,1.234,0.533,1.851,1.601,1.851c0.3,0,0.6-0.083,0.899-0.25v-0.7c-0.233,0.166-0.483,0.25-0.75,0.25
				c-0.333,0-0.566-0.1-0.7-0.3c-0.166-0.2-0.25-0.517-0.25-0.95v-4h1.7v-0.7h-1.7V270.65 M39.3,272.4
				c-0.199,0-0.399,0.016-0.6,0.05c-0.2,0.033-0.383,0.083-0.55,0.149c-0.2,0.033-0.384,0.101-0.55,0.2
				c-0.167,0.067-0.317,0.15-0.45,0.25v0.9c0.633-0.567,1.333-0.851,2.1-0.851c0.967,0,1.45,0.617,1.45,1.851l-2,0.3
				c-0.733,0.1-1.283,0.334-1.65,0.7c-0.366,0.333-0.55,0.8-0.55,1.399c0,0.268,0.05,0.518,0.15,0.75
				c0.1,0.234,0.233,0.434,0.399,0.601c0.2,0.167,0.417,0.283,0.65,0.35c0.267,0.101,0.55,0.15,0.85,0.15
				c0.467,0,0.884-0.116,1.25-0.351c0.367-0.232,0.65-0.55,0.851-0.949h0.05v1.149h0.8v-4.25c0-0.8-0.183-1.399-0.55-1.8
				C40.584,272.6,40.033,272.4,39.3,272.4 M37.7,278.15c-0.1-0.101-0.184-0.217-0.25-0.351c-0.066-0.167-0.1-0.333-0.1-0.5
				c0-0.233,0.033-0.433,0.1-0.6s0.167-0.3,0.3-0.4c0.134-0.1,0.3-0.183,0.5-0.25c0.233-0.066,0.483-0.116,0.75-0.149l1.7-0.25
				v0.649c0,0.333-0.05,0.634-0.15,0.9c-0.1,0.267-0.232,0.5-0.399,0.7c-0.2,0.166-0.417,0.316-0.65,0.449
				c-0.233,0.101-0.5,0.15-0.8,0.15c-0.2,0-0.383-0.033-0.55-0.1C37.983,278.367,37.834,278.283,37.7,278.15 M88.95,304.15h-0.8v6.5
				h0.8V304.15 M85.1,302.25L84.3,302.5v1.65H83.15v0.699H84.3v4.101c0,1.233,0.534,1.85,1.601,1.85c0.3,0,0.6-0.083,0.899-0.25
				v-0.7c-0.232,0.167-0.482,0.25-0.75,0.25c-0.333,0-0.566-0.1-0.699-0.3c-0.167-0.2-0.25-0.517-0.25-0.95v-4H86.8v-0.699H85.1
				V302.25 M88.55,301.35c-0.166,0-0.3,0.051-0.399,0.15c-0.134,0.1-0.2,0.233-0.2,0.4c0,0.199,0.066,0.35,0.2,0.449
				c0.1,0.101,0.233,0.15,0.399,0.15c0.067,0,0.15-0.017,0.25-0.05c0.067-0.034,0.117-0.067,0.15-0.101
				c0.066-0.066,0.117-0.133,0.15-0.199s0.05-0.15,0.05-0.25c0-0.066-0.017-0.134-0.05-0.2c-0.033-0.067-0.084-0.134-0.15-0.2
				c-0.033-0.033-0.083-0.066-0.15-0.1C88.7,301.367,88.617,301.35,88.55,301.35 M93.85,304.7c0.566,0,1.083,0.149,1.55,0.45V304.3
				c-0.467-0.2-0.967-0.3-1.5-0.3s-1,0.1-1.4,0.3c-0.399,0.167-0.75,0.417-1.05,0.75c-0.267,0.3-0.483,0.667-0.65,1.101
				c-0.133,0.433-0.199,0.899-0.199,1.399c0,0.467,0.066,0.9,0.199,1.3c0.134,0.4,0.334,0.75,0.601,1.051
				c0.267,0.267,0.583,0.483,0.95,0.649c0.366,0.167,0.783,0.25,1.25,0.25c0.699,0,1.283-0.149,1.75-0.45v-0.8
				c-0.467,0.367-1.017,0.55-1.65,0.55c-0.366,0-0.7-0.066-1-0.199c-0.3-0.167-0.533-0.367-0.7-0.601
				c-0.2-0.233-0.35-0.517-0.45-0.85c-0.066-0.3-0.1-0.634-0.1-1c0-0.367,0.05-0.717,0.15-1.05c0.1-0.334,0.25-0.634,0.449-0.9
				c0.2-0.233,0.45-0.434,0.75-0.6C93.134,304.767,93.483,304.7,93.85,304.7 M35.25,274.35c-0.133-0.399-0.333-0.75-0.6-1.05
				s-0.583-0.517-0.95-0.649c-0.366-0.167-0.8-0.25-1.3-0.25c-0.467,0-0.9,0.083-1.3,0.25c-0.4,0.133-0.75,0.35-1.051,0.649
				c-0.267,0.3-0.482,0.667-0.649,1.101c-0.134,0.434-0.2,0.916-0.2,1.449c0,0.5,0.066,0.95,0.2,1.351
				c0.133,0.433,0.35,0.8,0.649,1.1c0.268,0.267,0.584,0.483,0.95,0.65c0.4,0.167,0.834,0.25,1.3,0.25c0.5,0,0.95-0.083,1.351-0.25
				c0.366-0.167,0.684-0.4,0.95-0.7s0.483-0.65,0.649-1.05c0.134-0.434,0.2-0.9,0.2-1.4C35.45,275.267,35.384,274.783,35.25,274.35
				 M30.65,273.85c0.2-0.266,0.45-0.449,0.75-0.55c0.3-0.134,0.616-0.2,0.95-0.2c0.733,0,1.3,0.234,1.699,0.7
				c0.367,0.467,0.551,1.134,0.551,2c0,0.434-0.033,0.817-0.101,1.15c-0.1,0.333-0.25,0.616-0.45,0.85
				c-0.199,0.233-0.449,0.417-0.75,0.55c-0.267,0.101-0.583,0.15-0.949,0.15c-0.367,0-0.684-0.066-0.95-0.2
				c-0.3-0.1-0.55-0.267-0.75-0.5s-0.351-0.517-0.45-0.85s-0.15-0.7-0.15-1.101c0-0.434,0.051-0.816,0.15-1.149
				S30.45,274.084,30.65,273.85 M21.5,270.7H25.1v-0.75h-4.4v9.1h0.8V274.9h3.351v-0.75H21.5V270.7 M27.55,269.45h-0.8v9.6h0.8
				V269.45 M79.8,304c-0.433,0-0.833,0.084-1.199,0.25c-0.367,0.166-0.667,0.4-0.9,0.7c-0.267,0.3-0.483,0.667-0.65,1.1
				c-0.133,0.4-0.199,0.851-0.199,1.351c0,0.533,0.066,1.017,0.199,1.449c0.134,0.434,0.317,0.784,0.551,1.051
				c0.267,0.3,0.583,0.517,0.949,0.649c0.334,0.167,0.717,0.25,1.15,0.25c0.9,0,1.667-0.217,2.3-0.649v-0.801
				c-0.666,0.5-1.366,0.75-2.1,0.75c-0.333,0-0.634-0.05-0.9-0.149c-0.3-0.134-0.533-0.316-0.7-0.55
				c-0.199-0.2-0.35-0.467-0.449-0.801c-0.101-0.3-0.15-0.649-0.15-1.05h4.7v-0.399c0-0.5-0.066-0.934-0.2-1.301
				c-0.1-0.399-0.267-0.732-0.5-1c-0.2-0.266-0.467-0.482-0.8-0.649C80.567,304.066,80.2,304,79.8,304 M79,304.85
				c0.233-0.1,0.483-0.149,0.75-0.149c0.567,0,1,0.183,1.3,0.55c0.301,0.367,0.467,0.9,0.5,1.6H77.7
				c0.033-0.333,0.117-0.633,0.25-0.899c0.1-0.267,0.25-0.5,0.45-0.7C78.567,305.084,78.766,304.95,79,304.85 M73.7,304.8
				c0.167,0.101,0.316,0.233,0.45,0.4c0.133,0.167,0.233,0.384,0.3,0.649c0.033,0.268,0.05,0.601,0.05,1v3.801h0.851v-4
				c0-1.768-0.717-2.65-2.15-2.65c-0.467,0-0.883,0.117-1.25,0.35c-0.366,0.234-0.667,0.584-0.9,1.051
				c-0.066-0.2-0.149-0.384-0.25-0.551c-0.133-0.166-0.267-0.316-0.399-0.449c-0.167-0.134-0.351-0.234-0.55-0.301
				c-0.2-0.066-0.417-0.1-0.65-0.1c-0.9,0-1.566,0.4-2,1.2h-0.05v-1.05h-0.8v6.5h0.8v-3.75c0-0.301,0.05-0.601,0.149-0.9
				c0.067-0.267,0.184-0.5,0.351-0.7c0.167-0.167,0.35-0.316,0.55-0.45c0.2-0.1,0.417-0.149,0.65-0.149c1.066,0,1.6,0.683,1.6,2.05
				v3.9h0.8v-3.75c0-0.301,0.05-0.584,0.15-0.851c0.066-0.267,0.184-0.5,0.35-0.7c0.167-0.199,0.351-0.366,0.55-0.5
				c0.233-0.1,0.467-0.149,0.7-0.149C73.266,304.7,73.5,304.733,73.7,304.8 M61.2,304.85c0.233-0.1,0.483-0.149,0.75-0.149
				c0.566,0,0.983,0.167,1.25,0.5c0.267,0.366,0.4,0.917,0.4,1.649v3.801h0.8v-4c0-0.867-0.184-1.533-0.55-2
				c-0.367-0.434-0.917-0.65-1.65-0.65c-0.934,0-1.65,0.416-2.15,1.25H60v-4.2h-0.8v9.601H60V307c0-0.366,0.05-0.684,0.15-0.95
				c0.133-0.3,0.283-0.55,0.45-0.75C60.766,305.1,60.967,304.95,61.2,304.85 M55.35,304.15H54.2v0.699h1.15v4.101
				c0,1.233,0.533,1.85,1.6,1.85c0.3,0,0.6-0.083,0.9-0.25v-0.7c-0.233,0.167-0.483,0.25-0.75,0.25c-0.334,0-0.567-0.1-0.7-0.3
				c-0.167-0.2-0.25-0.517-0.25-0.95v-4h1.7v-0.699h-1.7v-1.9l-0.8,0.25V304.15 M52.95,304.15h-0.8v6.5h0.8V304.15 M52.55,301.35
				c-0.166,0-0.3,0.051-0.399,0.15c-0.134,0.1-0.2,0.233-0.2,0.4c0,0.199,0.066,0.35,0.2,0.449c0.1,0.101,0.233,0.15,0.399,0.15
				c0.067,0,0.15-0.017,0.25-0.05c0.067-0.034,0.117-0.067,0.15-0.101c0.066-0.066,0.117-0.133,0.15-0.199s0.05-0.15,0.05-0.25
				c0-0.066-0.017-0.134-0.05-0.2c-0.033-0.067-0.084-0.134-0.15-0.2c-0.033-0.033-0.083-0.066-0.15-0.1
				C52.7,301.367,52.617,301.35,52.55,301.35 M50.95,305v-0.85c-0.066-0.033-0.15-0.066-0.25-0.101c-0.1,0-0.217,0-0.35,0
				c-0.2,0-0.4,0.034-0.601,0.101c-0.166,0.066-0.333,0.166-0.5,0.3c-0.133,0.1-0.267,0.25-0.399,0.45
				c-0.101,0.199-0.184,0.416-0.25,0.649H48.55v-1.399h-0.8v6.5h0.8v-3.2c0-0.167,0.018-0.351,0.051-0.55c0-0.2,0.033-0.4,0.1-0.601
				s0.134-0.399,0.2-0.6c0.1-0.167,0.217-0.317,0.35-0.45c0.101-0.166,0.233-0.283,0.4-0.35c0.167-0.101,0.366-0.15,0.6-0.15
				C50.55,304.75,50.783,304.834,50.95,305 M43,301.55h-0.85l-3.45,9.101h0.95l0.95-2.7H44.5l1.05,2.7h0.9L43,301.55 M42.65,302.85
				c0.033,0.101,0.066,0.2,0.1,0.301l1.5,4.05H40.9l1.5-4.05c0-0.101,0.017-0.2,0.05-0.301c0.033-0.1,0.066-0.217,0.1-0.35H42.6
				C42.6,302.633,42.617,302.75,42.65,302.85 M100.65,343.3c0.133,0.566,0.316,1.033,0.55,1.4c0.233,0.366,0.517,0.649,0.85,0.85
				c0.367,0.2,0.768,0.3,1.2,0.3c0.467,0,0.884-0.1,1.25-0.3c0.367-0.2,0.667-0.5,0.9-0.899c0.267-0.4,0.467-0.9,0.6-1.5
				c0.134-0.601,0.2-1.284,0.2-2.051c0-3.1-0.917-4.649-2.75-4.649c-0.967,0-1.7,0.416-2.2,1.25c-0.533,0.8-0.8,2.017-0.8,3.649
				C100.45,342.083,100.516,342.733,100.65,343.3 M101.85,338.2c0.333-0.7,0.85-1.05,1.55-1.05c1.3,0,1.95,1.35,1.95,4.05
				c0,0.633-0.051,1.2-0.15,1.7c-0.066,0.5-0.184,0.916-0.35,1.25c-0.2,0.333-0.417,0.583-0.65,0.75
				c-0.267,0.166-0.55,0.25-0.85,0.25c-0.7,0-1.217-0.334-1.551-1c-0.333-0.634-0.5-1.584-0.5-2.851
				C101.3,339.9,101.483,338.866,101.85,338.2 M97.9,265.7V284h222.25v-18.3H97.9 M97.9,221.4h7.95V203.1H97.9V221.4 M113.2,140.5
				H97.9v18.3h15.3V140.5 M154.45,127.5v-18.3H97.9v18.3H154.45 M167.2,190.1v-18.3H97.9v18.3H167.2 M372.1,315.5V297H97.9v18.5
				H372.1 M326.4,252.7v-18.3H97.9v18.3H326.4z"/>
		</g>
	</g>
</g>
</svg>
