<?xml version="1.0" encoding="utf-8"?>
<!-- Generator: Adobe Illustrator 19.1.0, SVG Export Plug-In . SVG Version: 6.00 Build 0)  -->
<svg version="1.1" id="Layer_2" xmlns="http://www.w3.org/2000/svg" xmlns:xlink="http://www.w3.org/1999/xlink" x="0px" y="0px"
	 viewBox="0 0 374.3 494.7" style="enable-background:new 0 0 374.3 494.7;" xml:space="preserve">
<style type="text/css">
	.st0{fill:#CDCCCC;}
</style>
<g>
	<path class="st0" d="M374.3,22.6v449.6c0,12.5-10.1,22.6-22.6,22.6H22.6C10.1,494.7,0,484.6,0,472.1V22.6C0,10.1,10.1,0,22.6,0
		h329.2C364.2,0,374.3,10.1,374.3,22.6z M351.2,43.4c0-8.3-6.7-15-15-15c-8.3,0-15.1,6.7-15.1,15c0,8.3,6.7,15.1,15.1,15.1
		C344.5,58.5,351.2,51.8,351.2,43.4z M351.2,451.3c0-8.3-6.7-15-15-15c-8.3,0-15.1,6.7-15.1,15c0,8.3,6.7,15,15.1,15
		C344.5,466.4,351.2,459.6,351.2,451.3z M315,259.3V98.1c0-3.9-1.6-7.5-4.1-10c-2.6-2.6-6.1-4.1-10-4.1c-7.8,0-14.2,6.3-14.2,14.2
		v161.2c0,3.9,1.6,7.4,4.1,10c2.6,2.6,6.1,4.2,10,4.2C308.7,273.5,315,267.1,315,259.3z M315,331.9c0-7.8-6.3-14.2-14.2-14.2H74.3
		c-3.9,0-7.4,1.6-10,4.1c-2.6,2.6-4.2,6.1-4.2,10c0,7.8,6.3,14.2,14.2,14.2h226.5c3.9,0,7.4-1.6,10-4.1
		C313.5,339.3,315,335.8,315,331.9z M253.1,259.3V98.1c0-3.9-1.6-7.5-4.2-10c-2.6-2.6-6.1-4.1-10-4.1c-7.8,0-14.2,6.3-14.2,14.2
		v161.2c0,3.9,1.6,7.4,4.1,10c2.6,2.6,6.1,4.2,10,4.2C246.8,273.5,253.1,267.1,253.1,259.3z M231.9,387.6c0-7.8-6.3-14.2-14.2-14.2
		H74.3c-3.9,0-7.4,1.6-10,4.1c-2.6,2.6-4.2,6.1-4.2,10c0,7.8,6.3,14.2,14.2,14.2h143.4c3.9,0,7.4-1.6,10-4.1
		C230.3,395.1,231.9,391.5,231.9,387.6z M177,179.2v-78.8c0-11.5-9.3-20.8-20.8-20.8H81c-11.5,0-20.8,9.3-20.8,20.8v78.8
		c0,11.5,9.3,20.8,20.8,20.8h75.2C167.7,200,177,190.7,177,179.2z M55.8,43.4c0-8.3-6.7-15-15-15s-15,6.7-15,15
		c0,8.3,6.7,15.1,15,15.1S55.8,51.8,55.8,43.4z M55.8,451.3c0-8.3-6.7-15-15-15s-15,6.7-15,15c0,8.3,6.7,15,15,15
		S55.8,459.6,55.8,451.3z"/>
</g>
</svg>
